G04 #@! TF.GenerationSoftware,KiCad,Pcbnew,5.0.0-fee4fd1~66~ubuntu16.04.1*
G04 #@! TF.CreationDate,2018-08-14T01:20:48+01:00*
G04 #@! TF.ProjectId,maulwurf,6D61756C777572662E6B696361645F70,rev?*
G04 #@! TF.SameCoordinates,Original*
G04 #@! TF.FileFunction,Profile,NP*
%FSLAX46Y46*%
G04 Gerber Fmt 4.6, Leading zero omitted, Abs format (unit mm)*
G04 Created by KiCad (PCBNEW 5.0.0-fee4fd1~66~ubuntu16.04.1) date Tue Aug 14 01:20:48 2018*
%MOMM*%
%LPD*%
G01*
G04 APERTURE LIST*
%ADD10C,0.150000*%
G04 APERTURE END LIST*
D10*
X114811000Y-124438000D02*
X116380000Y-112040000D01*
X155658000Y-84619000D02*
X158570000Y-92290000D01*
X128764000Y-83206000D02*
X124910000Y-92140000D01*
X163822000Y-67397000D02*
X155668000Y-84639000D01*
X142340000Y-72030000D02*
X163822000Y-67397000D01*
X121806000Y-65904000D02*
X142340000Y-72030000D01*
X128775000Y-83209000D02*
X121806000Y-65904000D01*
X116380000Y-112060000D02*
X124920000Y-92110000D01*
X120599000Y-113235000D02*
X114811000Y-124438000D01*
X119297000Y-127084000D02*
X120599000Y-113235000D01*
X125707000Y-114091000D02*
X119297000Y-127084000D01*
X122932000Y-128656000D02*
X125707000Y-114091000D01*
X134379000Y-111104000D02*
X122932000Y-128656000D01*
X141435000Y-119286000D02*
X134379000Y-111104000D01*
X148141000Y-111424000D02*
X141448000Y-119294000D01*
X157926000Y-129674000D02*
X148141000Y-111424000D01*
X156760000Y-115416000D02*
X157926000Y-129674000D01*
X162390000Y-128784000D02*
X156760000Y-115416000D01*
X161856000Y-115197000D02*
X162390000Y-128784000D01*
X166918000Y-127318000D02*
X161856000Y-115197000D01*
X166380000Y-113440000D02*
X166918000Y-127318000D01*
X158560000Y-92270000D02*
X166390000Y-113460000D01*
M02*
