M48
;DRILL file {KiCad 4.0.7-e2-6376~58~ubuntu16.04.1} date Tue Feb 27 00:41:21 2018
;FORMAT={-:-/ absolute / metric / decimal}
FMAT,2
METRIC,TZ
T1C0.300
%
G90
G05
M71
T1
X111.006Y-79.517
X111.006Y-79.927
X111.017Y-79.139
X114.556Y-79.193
X114.664Y-79.517
X114.729Y-79.873
X137.84Y-121.325
X137.861Y-127.986
X138.348Y-127.986
X138.369Y-121.139
X138.835Y-127.986
X138.926Y-121.147
X139.322Y-127.986
X139.366Y-121.429
X164.849Y-80.868
X165.029Y-80.497
X165.237Y-80.155
X167.667Y-80.479
X167.923Y-80.213
X167.943Y-80.755
T0
M30
