G04 #@! TF.FileFunction,Legend,Top*
%FSLAX46Y46*%
G04 Gerber Fmt 4.6, Leading zero omitted, Abs format (unit mm)*
G04 Created by KiCad (PCBNEW 4.0.7-e2-6376~58~ubuntu16.04.1) date Tue Feb 27 15:54:57 2018*
%MOMM*%
%LPD*%
G01*
G04 APERTURE LIST*
%ADD10C,0.020000*%
%ADD11C,0.010000*%
G04 APERTURE END LIST*
D10*
D11*
G36*
X129991945Y-125744641D02*
X129950281Y-125787634D01*
X129907288Y-125745971D01*
X129948951Y-125702979D01*
X129991945Y-125744641D01*
X129991945Y-125744641D01*
G37*
X129991945Y-125744641D02*
X129950281Y-125787634D01*
X129907288Y-125745971D01*
X129948951Y-125702979D01*
X129991945Y-125744641D01*
G36*
X141838496Y-125219832D02*
X141796833Y-125262826D01*
X141753839Y-125221162D01*
X141795503Y-125178169D01*
X141838496Y-125219832D01*
X141838496Y-125219832D01*
G37*
X141838496Y-125219832D02*
X141796833Y-125262826D01*
X141753839Y-125221162D01*
X141795503Y-125178169D01*
X141838496Y-125219832D01*
G36*
X126928362Y-124776643D02*
X126886698Y-124819635D01*
X126843706Y-124777972D01*
X126885369Y-124734980D01*
X126928362Y-124776643D01*
X126928362Y-124776643D01*
G37*
X126928362Y-124776643D02*
X126886698Y-124819635D01*
X126843706Y-124777972D01*
X126885369Y-124734980D01*
X126928362Y-124776643D01*
G36*
X142549354Y-123755042D02*
X142561064Y-123855349D01*
X142551127Y-123867917D01*
X142500616Y-123857086D01*
X142493802Y-123812365D01*
X142523682Y-123742197D01*
X142549354Y-123755042D01*
X142549354Y-123755042D01*
G37*
X142549354Y-123755042D02*
X142561064Y-123855349D01*
X142551127Y-123867917D01*
X142500616Y-123857086D01*
X142493802Y-123812365D01*
X142523682Y-123742197D01*
X142549354Y-123755042D01*
G36*
X163569317Y-118612788D02*
X163950499Y-118673757D01*
X164344477Y-118781432D01*
X164686321Y-118918764D01*
X164879530Y-119039284D01*
X165044750Y-119231089D01*
X165237995Y-119532509D01*
X165432304Y-119892997D01*
X165600719Y-120262011D01*
X165716280Y-120589004D01*
X165726260Y-120626769D01*
X165781403Y-121190763D01*
X165675281Y-121781817D01*
X165410859Y-122385753D01*
X165329286Y-122522872D01*
X165112471Y-122831901D01*
X164884227Y-123051495D01*
X164576192Y-123244361D01*
X164497099Y-123286231D01*
X164221902Y-123421512D01*
X164000603Y-123516303D01*
X163879901Y-123550658D01*
X163878305Y-123550544D01*
X163745529Y-123534888D01*
X163510261Y-123505153D01*
X163359792Y-123485622D01*
X162951029Y-123391705D01*
X162522931Y-123228838D01*
X162150929Y-123028389D01*
X162010086Y-122924342D01*
X161772156Y-122629825D01*
X161585074Y-122214701D01*
X161468337Y-121724770D01*
X161455013Y-121620615D01*
X161437697Y-121264867D01*
X161446407Y-120952761D01*
X162030029Y-120943593D01*
X162040462Y-121537167D01*
X162111754Y-121992150D01*
X162250586Y-122330380D01*
X162463637Y-122573698D01*
X162547183Y-122634173D01*
X162739140Y-122742396D01*
X162921606Y-122788328D01*
X163162982Y-122782781D01*
X163350197Y-122761113D01*
X163651115Y-122711443D01*
X163900849Y-122651658D01*
X164014278Y-122609371D01*
X164122749Y-122565391D01*
X164111044Y-122624550D01*
X164131801Y-122658252D01*
X164267210Y-122608245D01*
X164316689Y-122582758D01*
X164570554Y-122374804D01*
X164810542Y-122056912D01*
X165000714Y-121687033D01*
X165105129Y-121323118D01*
X165107208Y-121308031D01*
X165100623Y-120934591D01*
X164990274Y-120465901D01*
X164966721Y-120392305D01*
X164860108Y-120088934D01*
X164756812Y-119892586D01*
X164611679Y-119748031D01*
X164379563Y-119600045D01*
X164266148Y-119535371D01*
X163888733Y-119346638D01*
X163581936Y-119267330D01*
X163288629Y-119295713D01*
X162951690Y-119430058D01*
X162831454Y-119491882D01*
X162492293Y-119695292D01*
X162265170Y-119904971D01*
X162127387Y-120162035D01*
X162056249Y-120507596D01*
X162030029Y-120943593D01*
X161446407Y-120952761D01*
X161449491Y-120842267D01*
X161485387Y-120398778D01*
X161540379Y-119980365D01*
X161609459Y-119632988D01*
X161687620Y-119402612D01*
X161698827Y-119382599D01*
X161851312Y-119234250D01*
X162120026Y-119062736D01*
X162458244Y-118890928D01*
X162819238Y-118741700D01*
X163156285Y-118637921D01*
X163265857Y-118615573D01*
X163569317Y-118612788D01*
X163569317Y-118612788D01*
G37*
X163569317Y-118612788D02*
X163950499Y-118673757D01*
X164344477Y-118781432D01*
X164686321Y-118918764D01*
X164879530Y-119039284D01*
X165044750Y-119231089D01*
X165237995Y-119532509D01*
X165432304Y-119892997D01*
X165600719Y-120262011D01*
X165716280Y-120589004D01*
X165726260Y-120626769D01*
X165781403Y-121190763D01*
X165675281Y-121781817D01*
X165410859Y-122385753D01*
X165329286Y-122522872D01*
X165112471Y-122831901D01*
X164884227Y-123051495D01*
X164576192Y-123244361D01*
X164497099Y-123286231D01*
X164221902Y-123421512D01*
X164000603Y-123516303D01*
X163879901Y-123550658D01*
X163878305Y-123550544D01*
X163745529Y-123534888D01*
X163510261Y-123505153D01*
X163359792Y-123485622D01*
X162951029Y-123391705D01*
X162522931Y-123228838D01*
X162150929Y-123028389D01*
X162010086Y-122924342D01*
X161772156Y-122629825D01*
X161585074Y-122214701D01*
X161468337Y-121724770D01*
X161455013Y-121620615D01*
X161437697Y-121264867D01*
X161446407Y-120952761D01*
X162030029Y-120943593D01*
X162040462Y-121537167D01*
X162111754Y-121992150D01*
X162250586Y-122330380D01*
X162463637Y-122573698D01*
X162547183Y-122634173D01*
X162739140Y-122742396D01*
X162921606Y-122788328D01*
X163162982Y-122782781D01*
X163350197Y-122761113D01*
X163651115Y-122711443D01*
X163900849Y-122651658D01*
X164014278Y-122609371D01*
X164122749Y-122565391D01*
X164111044Y-122624550D01*
X164131801Y-122658252D01*
X164267210Y-122608245D01*
X164316689Y-122582758D01*
X164570554Y-122374804D01*
X164810542Y-122056912D01*
X165000714Y-121687033D01*
X165105129Y-121323118D01*
X165107208Y-121308031D01*
X165100623Y-120934591D01*
X164990274Y-120465901D01*
X164966721Y-120392305D01*
X164860108Y-120088934D01*
X164756812Y-119892586D01*
X164611679Y-119748031D01*
X164379563Y-119600045D01*
X164266148Y-119535371D01*
X163888733Y-119346638D01*
X163581936Y-119267330D01*
X163288629Y-119295713D01*
X162951690Y-119430058D01*
X162831454Y-119491882D01*
X162492293Y-119695292D01*
X162265170Y-119904971D01*
X162127387Y-120162035D01*
X162056249Y-120507596D01*
X162030029Y-120943593D01*
X161446407Y-120952761D01*
X161449491Y-120842267D01*
X161485387Y-120398778D01*
X161540379Y-119980365D01*
X161609459Y-119632988D01*
X161687620Y-119402612D01*
X161698827Y-119382599D01*
X161851312Y-119234250D01*
X162120026Y-119062736D01*
X162458244Y-118890928D01*
X162819238Y-118741700D01*
X163156285Y-118637921D01*
X163265857Y-118615573D01*
X163569317Y-118612788D01*
G36*
X152913116Y-117657143D02*
X152999687Y-117750747D01*
X153145877Y-117979833D01*
X153341780Y-118325478D01*
X153577493Y-118768760D01*
X153843110Y-119290759D01*
X154128726Y-119872552D01*
X154424436Y-120495217D01*
X154617070Y-120912251D01*
X154799977Y-121306413D01*
X154964485Y-121649226D01*
X155094901Y-121908813D01*
X155175534Y-122053298D01*
X155185648Y-122067205D01*
X155216084Y-122218235D01*
X155120411Y-122407147D01*
X154924511Y-122597177D01*
X154727174Y-122718421D01*
X154518852Y-122812392D01*
X154374206Y-122861771D01*
X154357680Y-122863899D01*
X154252332Y-122901755D01*
X154036983Y-123001850D01*
X153750510Y-123145738D01*
X153619446Y-123214205D01*
X153313070Y-123370431D01*
X153059511Y-123489361D01*
X152898475Y-123552790D01*
X152868321Y-123558522D01*
X152739619Y-123513828D01*
X152547681Y-123411436D01*
X152529402Y-123400286D01*
X152314063Y-123297764D01*
X152006634Y-123186955D01*
X151733196Y-123107786D01*
X151425263Y-123011918D01*
X151212136Y-122910132D01*
X151136613Y-122836165D01*
X151061358Y-122694926D01*
X150921676Y-122476875D01*
X150817356Y-122326775D01*
X150648832Y-122055399D01*
X150462292Y-121699609D01*
X150296916Y-121334371D01*
X150290604Y-121318925D01*
X150156582Y-121004636D01*
X150033266Y-120742194D01*
X149943466Y-120579558D01*
X149930923Y-120562481D01*
X149820210Y-120378516D01*
X149766681Y-120247522D01*
X149686601Y-120100869D01*
X149617634Y-120059340D01*
X149564058Y-119998703D01*
X149574765Y-119937332D01*
X149545699Y-119814561D01*
X149454088Y-119764168D01*
X149329136Y-119705994D01*
X149300259Y-119610328D01*
X149368762Y-119440057D01*
X149471699Y-119262610D01*
X149604903Y-119069586D01*
X149729152Y-118992467D01*
X149910704Y-118995446D01*
X149954494Y-119001712D01*
X150225907Y-119064542D01*
X150334029Y-119149406D01*
X150284023Y-119261096D01*
X150258890Y-119284193D01*
X150143610Y-119419664D01*
X150166425Y-119491057D01*
X150299697Y-119480689D01*
X150458569Y-119497639D01*
X150536250Y-119616256D01*
X150507919Y-119778533D01*
X150456685Y-119847577D01*
X150401005Y-119928531D01*
X150391696Y-120038242D01*
X150435157Y-120214535D01*
X150537783Y-120495233D01*
X150587704Y-120622216D01*
X150785204Y-121112934D01*
X150935547Y-121466215D01*
X151049485Y-121703748D01*
X151137770Y-121847221D01*
X151211151Y-121918322D01*
X151236256Y-121930476D01*
X151343655Y-122030692D01*
X151459101Y-122222647D01*
X151476024Y-122259630D01*
X151567876Y-122422890D01*
X151703294Y-122545929D01*
X151925392Y-122659103D01*
X152186947Y-122760209D01*
X152596553Y-122895377D01*
X152913107Y-122951990D01*
X153195355Y-122926518D01*
X153502049Y-122815435D01*
X153803426Y-122663126D01*
X154180161Y-122461164D01*
X154426048Y-122310317D01*
X154555010Y-122173862D01*
X154580965Y-122015072D01*
X154517836Y-121797220D01*
X154379544Y-121483585D01*
X154309063Y-121329183D01*
X154061777Y-120796027D01*
X153801089Y-120255671D01*
X153538520Y-119729847D01*
X153285596Y-119240285D01*
X153053838Y-118808721D01*
X152854770Y-118456886D01*
X152699917Y-118206512D01*
X152600799Y-118079333D01*
X152579774Y-118067818D01*
X152498298Y-118010525D01*
X152509077Y-117881657D01*
X152599793Y-117742819D01*
X152653369Y-117699799D01*
X152828962Y-117646398D01*
X152913116Y-117657143D01*
X152913116Y-117657143D01*
G37*
X152913116Y-117657143D02*
X152999687Y-117750747D01*
X153145877Y-117979833D01*
X153341780Y-118325478D01*
X153577493Y-118768760D01*
X153843110Y-119290759D01*
X154128726Y-119872552D01*
X154424436Y-120495217D01*
X154617070Y-120912251D01*
X154799977Y-121306413D01*
X154964485Y-121649226D01*
X155094901Y-121908813D01*
X155175534Y-122053298D01*
X155185648Y-122067205D01*
X155216084Y-122218235D01*
X155120411Y-122407147D01*
X154924511Y-122597177D01*
X154727174Y-122718421D01*
X154518852Y-122812392D01*
X154374206Y-122861771D01*
X154357680Y-122863899D01*
X154252332Y-122901755D01*
X154036983Y-123001850D01*
X153750510Y-123145738D01*
X153619446Y-123214205D01*
X153313070Y-123370431D01*
X153059511Y-123489361D01*
X152898475Y-123552790D01*
X152868321Y-123558522D01*
X152739619Y-123513828D01*
X152547681Y-123411436D01*
X152529402Y-123400286D01*
X152314063Y-123297764D01*
X152006634Y-123186955D01*
X151733196Y-123107786D01*
X151425263Y-123011918D01*
X151212136Y-122910132D01*
X151136613Y-122836165D01*
X151061358Y-122694926D01*
X150921676Y-122476875D01*
X150817356Y-122326775D01*
X150648832Y-122055399D01*
X150462292Y-121699609D01*
X150296916Y-121334371D01*
X150290604Y-121318925D01*
X150156582Y-121004636D01*
X150033266Y-120742194D01*
X149943466Y-120579558D01*
X149930923Y-120562481D01*
X149820210Y-120378516D01*
X149766681Y-120247522D01*
X149686601Y-120100869D01*
X149617634Y-120059340D01*
X149564058Y-119998703D01*
X149574765Y-119937332D01*
X149545699Y-119814561D01*
X149454088Y-119764168D01*
X149329136Y-119705994D01*
X149300259Y-119610328D01*
X149368762Y-119440057D01*
X149471699Y-119262610D01*
X149604903Y-119069586D01*
X149729152Y-118992467D01*
X149910704Y-118995446D01*
X149954494Y-119001712D01*
X150225907Y-119064542D01*
X150334029Y-119149406D01*
X150284023Y-119261096D01*
X150258890Y-119284193D01*
X150143610Y-119419664D01*
X150166425Y-119491057D01*
X150299697Y-119480689D01*
X150458569Y-119497639D01*
X150536250Y-119616256D01*
X150507919Y-119778533D01*
X150456685Y-119847577D01*
X150401005Y-119928531D01*
X150391696Y-120038242D01*
X150435157Y-120214535D01*
X150537783Y-120495233D01*
X150587704Y-120622216D01*
X150785204Y-121112934D01*
X150935547Y-121466215D01*
X151049485Y-121703748D01*
X151137770Y-121847221D01*
X151211151Y-121918322D01*
X151236256Y-121930476D01*
X151343655Y-122030692D01*
X151459101Y-122222647D01*
X151476024Y-122259630D01*
X151567876Y-122422890D01*
X151703294Y-122545929D01*
X151925392Y-122659103D01*
X152186947Y-122760209D01*
X152596553Y-122895377D01*
X152913107Y-122951990D01*
X153195355Y-122926518D01*
X153502049Y-122815435D01*
X153803426Y-122663126D01*
X154180161Y-122461164D01*
X154426048Y-122310317D01*
X154555010Y-122173862D01*
X154580965Y-122015072D01*
X154517836Y-121797220D01*
X154379544Y-121483585D01*
X154309063Y-121329183D01*
X154061777Y-120796027D01*
X153801089Y-120255671D01*
X153538520Y-119729847D01*
X153285596Y-119240285D01*
X153053838Y-118808721D01*
X152854770Y-118456886D01*
X152699917Y-118206512D01*
X152600799Y-118079333D01*
X152579774Y-118067818D01*
X152498298Y-118010525D01*
X152509077Y-117881657D01*
X152599793Y-117742819D01*
X152653369Y-117699799D01*
X152828962Y-117646398D01*
X152913116Y-117657143D01*
G36*
X147476458Y-118982351D02*
X147601888Y-119131938D01*
X147735863Y-119371085D01*
X147875407Y-119613796D01*
X148001036Y-119779901D01*
X148073407Y-119829567D01*
X148199674Y-119776756D01*
X148381829Y-119648169D01*
X148424456Y-119612360D01*
X148667486Y-119452652D01*
X148893259Y-119391387D01*
X149050951Y-119440070D01*
X149052899Y-119540129D01*
X149001558Y-119726701D01*
X148920654Y-119935492D01*
X148833910Y-120102209D01*
X148786374Y-120157075D01*
X148726287Y-120273077D01*
X148695317Y-120472880D01*
X148700037Y-120621827D01*
X148746779Y-120623129D01*
X148839907Y-120513784D01*
X149009555Y-120362266D01*
X149200728Y-120323140D01*
X149357915Y-120397718D01*
X149413563Y-120500210D01*
X149397612Y-120701095D01*
X149246477Y-120966176D01*
X149211409Y-121013062D01*
X148958361Y-121343083D01*
X149273514Y-121681091D01*
X149482504Y-121950791D01*
X149553856Y-122157719D01*
X149485897Y-122290690D01*
X149370830Y-122331449D01*
X149189635Y-122278129D01*
X148953064Y-122073707D01*
X148901023Y-122016519D01*
X148599312Y-121674659D01*
X148266685Y-121854010D01*
X147972644Y-121981611D01*
X147719636Y-122036359D01*
X147541812Y-122016589D01*
X147473324Y-121920630D01*
X147475662Y-121892650D01*
X147563679Y-121760769D01*
X147747875Y-121623541D01*
X147794789Y-121598463D01*
X147938227Y-121523955D01*
X148001118Y-121467730D01*
X147965538Y-121415262D01*
X147813565Y-121352027D01*
X147527275Y-121263499D01*
X147299079Y-121196724D01*
X146968748Y-121074411D01*
X146806581Y-120947985D01*
X146811411Y-120815040D01*
X146982080Y-120673170D01*
X147032519Y-120645344D01*
X147274566Y-120497662D01*
X147478749Y-120340795D01*
X147485753Y-120334285D01*
X147660818Y-120169416D01*
X147455874Y-119779908D01*
X147298102Y-119415934D01*
X147255277Y-119148199D01*
X147328529Y-118987863D01*
X147373096Y-118962457D01*
X147476458Y-118982351D01*
X147476458Y-118982351D01*
G37*
X147476458Y-118982351D02*
X147601888Y-119131938D01*
X147735863Y-119371085D01*
X147875407Y-119613796D01*
X148001036Y-119779901D01*
X148073407Y-119829567D01*
X148199674Y-119776756D01*
X148381829Y-119648169D01*
X148424456Y-119612360D01*
X148667486Y-119452652D01*
X148893259Y-119391387D01*
X149050951Y-119440070D01*
X149052899Y-119540129D01*
X149001558Y-119726701D01*
X148920654Y-119935492D01*
X148833910Y-120102209D01*
X148786374Y-120157075D01*
X148726287Y-120273077D01*
X148695317Y-120472880D01*
X148700037Y-120621827D01*
X148746779Y-120623129D01*
X148839907Y-120513784D01*
X149009555Y-120362266D01*
X149200728Y-120323140D01*
X149357915Y-120397718D01*
X149413563Y-120500210D01*
X149397612Y-120701095D01*
X149246477Y-120966176D01*
X149211409Y-121013062D01*
X148958361Y-121343083D01*
X149273514Y-121681091D01*
X149482504Y-121950791D01*
X149553856Y-122157719D01*
X149485897Y-122290690D01*
X149370830Y-122331449D01*
X149189635Y-122278129D01*
X148953064Y-122073707D01*
X148901023Y-122016519D01*
X148599312Y-121674659D01*
X148266685Y-121854010D01*
X147972644Y-121981611D01*
X147719636Y-122036359D01*
X147541812Y-122016589D01*
X147473324Y-121920630D01*
X147475662Y-121892650D01*
X147563679Y-121760769D01*
X147747875Y-121623541D01*
X147794789Y-121598463D01*
X147938227Y-121523955D01*
X148001118Y-121467730D01*
X147965538Y-121415262D01*
X147813565Y-121352027D01*
X147527275Y-121263499D01*
X147299079Y-121196724D01*
X146968748Y-121074411D01*
X146806581Y-120947985D01*
X146811411Y-120815040D01*
X146982080Y-120673170D01*
X147032519Y-120645344D01*
X147274566Y-120497662D01*
X147478749Y-120340795D01*
X147485753Y-120334285D01*
X147660818Y-120169416D01*
X147455874Y-119779908D01*
X147298102Y-119415934D01*
X147255277Y-119148199D01*
X147328529Y-118987863D01*
X147373096Y-118962457D01*
X147476458Y-118982351D01*
G36*
X139327508Y-109807364D02*
X139655569Y-109839989D01*
X139958465Y-109888479D01*
X140263486Y-109962121D01*
X140597919Y-110070199D01*
X140989053Y-110221999D01*
X141464175Y-110426809D01*
X142050576Y-110693912D01*
X142371420Y-110843160D01*
X142720008Y-111065639D01*
X143105063Y-111412886D01*
X143496973Y-111853764D01*
X143866127Y-112357132D01*
X143979588Y-112534373D01*
X144218144Y-112928769D01*
X144390119Y-113240947D01*
X144522162Y-113530050D01*
X144640925Y-113855214D01*
X144773061Y-114275583D01*
X144790945Y-114334781D01*
X144972822Y-114987625D01*
X145082192Y-115530035D01*
X145117923Y-116005136D01*
X145078884Y-116456052D01*
X144963939Y-116925906D01*
X144771958Y-117457821D01*
X144704572Y-117622962D01*
X144566266Y-117977247D01*
X144499622Y-118210281D01*
X144497965Y-118350938D01*
X144524462Y-118401934D01*
X144566534Y-118503736D01*
X144461989Y-118567989D01*
X144342579Y-118671226D01*
X144202423Y-118881210D01*
X144110065Y-119067533D01*
X143955709Y-119398391D01*
X143774117Y-119747720D01*
X143584963Y-120082346D01*
X143407927Y-120369097D01*
X143262684Y-120574804D01*
X143168911Y-120666293D01*
X143160625Y-120668112D01*
X143060623Y-120726752D01*
X142887292Y-120877559D01*
X142701122Y-121064090D01*
X142300565Y-121431524D01*
X141879006Y-121684389D01*
X141367612Y-121862762D01*
X141298884Y-121880576D01*
X141043005Y-121956317D01*
X140861904Y-122030879D01*
X140809955Y-122069107D01*
X140684076Y-122152269D01*
X140529256Y-122116151D01*
X140411784Y-121981483D01*
X140397367Y-121940064D01*
X140357760Y-121820661D01*
X140295991Y-121757277D01*
X140179038Y-121749214D01*
X139973881Y-121795780D01*
X139647500Y-121896279D01*
X139565502Y-121922554D01*
X139187686Y-122028275D01*
X138849930Y-122078405D01*
X138465836Y-122083228D01*
X138284595Y-122075036D01*
X137447197Y-121964418D01*
X136650788Y-121721691D01*
X135874229Y-121337327D01*
X135096388Y-120801793D01*
X134664119Y-120442657D01*
X134483269Y-120266895D01*
X134258678Y-120024693D01*
X134017933Y-119749063D01*
X133788619Y-119473015D01*
X133598320Y-119229559D01*
X133474623Y-119051705D01*
X133442122Y-118980344D01*
X133403344Y-118871786D01*
X133306764Y-118675698D01*
X133254398Y-118579259D01*
X132913786Y-117872110D01*
X132706395Y-117191798D01*
X132617040Y-116483616D01*
X132611005Y-116261046D01*
X132622058Y-116076342D01*
X133077211Y-116069191D01*
X133102201Y-116688156D01*
X133223586Y-117242062D01*
X133249310Y-117318871D01*
X133642014Y-118257595D01*
X134124362Y-119099475D01*
X134682700Y-119825547D01*
X135303369Y-120416848D01*
X135670260Y-120680242D01*
X136011301Y-120897796D01*
X136254491Y-121048037D01*
X136445523Y-121153489D01*
X136630084Y-121236675D01*
X136853864Y-121320119D01*
X137162553Y-121426347D01*
X137231564Y-121449935D01*
X137612331Y-121571478D01*
X137913986Y-121637951D01*
X138213517Y-121659902D01*
X138587913Y-121647878D01*
X138649272Y-121644173D01*
X139137918Y-121589268D01*
X139635711Y-121493077D01*
X139957991Y-121403758D01*
X140299002Y-121291659D01*
X140408810Y-121256151D01*
X141618802Y-121237143D01*
X141639457Y-121281003D01*
X141687003Y-121284726D01*
X141800833Y-121221438D01*
X141817071Y-121198976D01*
X141802688Y-121151084D01*
X141736888Y-121166956D01*
X141618802Y-121237143D01*
X140408810Y-121256151D01*
X140619226Y-121188109D01*
X140842605Y-121117625D01*
X141094572Y-121021741D01*
X141398472Y-120881406D01*
X141540389Y-120807693D01*
X141789972Y-120692825D01*
X141995462Y-120634944D01*
X142076112Y-120636899D01*
X142158245Y-120687241D01*
X142147041Y-120780567D01*
X142072226Y-120919659D01*
X142061330Y-120968591D01*
X142145929Y-120904951D01*
X142309266Y-120742946D01*
X142418319Y-120626123D01*
X142652362Y-120352405D01*
X142861253Y-120062213D01*
X143064570Y-119722051D01*
X143281897Y-119298429D01*
X143532815Y-118757850D01*
X143604811Y-118596620D01*
X143735793Y-118353994D01*
X143870965Y-118183858D01*
X143941155Y-118137577D01*
X144067207Y-118031650D01*
X144215697Y-117800884D01*
X144368708Y-117484896D01*
X144508328Y-117123301D01*
X144616640Y-116755719D01*
X144658882Y-116550401D01*
X144681908Y-116015595D01*
X144602615Y-115391239D01*
X144434121Y-114711666D01*
X144189543Y-114011216D01*
X143881999Y-113324221D01*
X143524608Y-112685018D01*
X143130487Y-112127944D01*
X142849786Y-111815141D01*
X142653645Y-111630182D01*
X142457516Y-111473186D01*
X142233640Y-111329332D01*
X141954250Y-111183799D01*
X141591584Y-111021768D01*
X141117877Y-110828418D01*
X140678261Y-110655971D01*
X139747426Y-110380605D01*
X138809928Y-110274160D01*
X137870767Y-110336689D01*
X136934945Y-110568249D01*
X136806661Y-110613364D01*
X136398500Y-110783938D01*
X136016973Y-110995838D01*
X135633735Y-111270428D01*
X135220435Y-111629076D01*
X134748728Y-112093146D01*
X134501887Y-112350478D01*
X134140355Y-112748305D01*
X133874836Y-113090657D01*
X133678156Y-113427800D01*
X133523143Y-113809997D01*
X133382626Y-114287511D01*
X133318846Y-114538915D01*
X133149223Y-115360876D01*
X133077211Y-116069191D01*
X132622058Y-116076342D01*
X132655975Y-115509640D01*
X132790916Y-114707843D01*
X133000284Y-113927244D01*
X133265588Y-113245679D01*
X133428365Y-112973795D01*
X133688401Y-112622821D01*
X134017580Y-112223392D01*
X134387789Y-111806140D01*
X134770913Y-111401699D01*
X135138838Y-111040700D01*
X135463452Y-110753779D01*
X135716637Y-110571568D01*
X135723264Y-110567798D01*
X136607123Y-110153324D01*
X137518423Y-109894488D01*
X138480136Y-109786443D01*
X139327508Y-109807364D01*
X139327508Y-109807364D01*
G37*
X139327508Y-109807364D02*
X139655569Y-109839989D01*
X139958465Y-109888479D01*
X140263486Y-109962121D01*
X140597919Y-110070199D01*
X140989053Y-110221999D01*
X141464175Y-110426809D01*
X142050576Y-110693912D01*
X142371420Y-110843160D01*
X142720008Y-111065639D01*
X143105063Y-111412886D01*
X143496973Y-111853764D01*
X143866127Y-112357132D01*
X143979588Y-112534373D01*
X144218144Y-112928769D01*
X144390119Y-113240947D01*
X144522162Y-113530050D01*
X144640925Y-113855214D01*
X144773061Y-114275583D01*
X144790945Y-114334781D01*
X144972822Y-114987625D01*
X145082192Y-115530035D01*
X145117923Y-116005136D01*
X145078884Y-116456052D01*
X144963939Y-116925906D01*
X144771958Y-117457821D01*
X144704572Y-117622962D01*
X144566266Y-117977247D01*
X144499622Y-118210281D01*
X144497965Y-118350938D01*
X144524462Y-118401934D01*
X144566534Y-118503736D01*
X144461989Y-118567989D01*
X144342579Y-118671226D01*
X144202423Y-118881210D01*
X144110065Y-119067533D01*
X143955709Y-119398391D01*
X143774117Y-119747720D01*
X143584963Y-120082346D01*
X143407927Y-120369097D01*
X143262684Y-120574804D01*
X143168911Y-120666293D01*
X143160625Y-120668112D01*
X143060623Y-120726752D01*
X142887292Y-120877559D01*
X142701122Y-121064090D01*
X142300565Y-121431524D01*
X141879006Y-121684389D01*
X141367612Y-121862762D01*
X141298884Y-121880576D01*
X141043005Y-121956317D01*
X140861904Y-122030879D01*
X140809955Y-122069107D01*
X140684076Y-122152269D01*
X140529256Y-122116151D01*
X140411784Y-121981483D01*
X140397367Y-121940064D01*
X140357760Y-121820661D01*
X140295991Y-121757277D01*
X140179038Y-121749214D01*
X139973881Y-121795780D01*
X139647500Y-121896279D01*
X139565502Y-121922554D01*
X139187686Y-122028275D01*
X138849930Y-122078405D01*
X138465836Y-122083228D01*
X138284595Y-122075036D01*
X137447197Y-121964418D01*
X136650788Y-121721691D01*
X135874229Y-121337327D01*
X135096388Y-120801793D01*
X134664119Y-120442657D01*
X134483269Y-120266895D01*
X134258678Y-120024693D01*
X134017933Y-119749063D01*
X133788619Y-119473015D01*
X133598320Y-119229559D01*
X133474623Y-119051705D01*
X133442122Y-118980344D01*
X133403344Y-118871786D01*
X133306764Y-118675698D01*
X133254398Y-118579259D01*
X132913786Y-117872110D01*
X132706395Y-117191798D01*
X132617040Y-116483616D01*
X132611005Y-116261046D01*
X132622058Y-116076342D01*
X133077211Y-116069191D01*
X133102201Y-116688156D01*
X133223586Y-117242062D01*
X133249310Y-117318871D01*
X133642014Y-118257595D01*
X134124362Y-119099475D01*
X134682700Y-119825547D01*
X135303369Y-120416848D01*
X135670260Y-120680242D01*
X136011301Y-120897796D01*
X136254491Y-121048037D01*
X136445523Y-121153489D01*
X136630084Y-121236675D01*
X136853864Y-121320119D01*
X137162553Y-121426347D01*
X137231564Y-121449935D01*
X137612331Y-121571478D01*
X137913986Y-121637951D01*
X138213517Y-121659902D01*
X138587913Y-121647878D01*
X138649272Y-121644173D01*
X139137918Y-121589268D01*
X139635711Y-121493077D01*
X139957991Y-121403758D01*
X140299002Y-121291659D01*
X140408810Y-121256151D01*
X141618802Y-121237143D01*
X141639457Y-121281003D01*
X141687003Y-121284726D01*
X141800833Y-121221438D01*
X141817071Y-121198976D01*
X141802688Y-121151084D01*
X141736888Y-121166956D01*
X141618802Y-121237143D01*
X140408810Y-121256151D01*
X140619226Y-121188109D01*
X140842605Y-121117625D01*
X141094572Y-121021741D01*
X141398472Y-120881406D01*
X141540389Y-120807693D01*
X141789972Y-120692825D01*
X141995462Y-120634944D01*
X142076112Y-120636899D01*
X142158245Y-120687241D01*
X142147041Y-120780567D01*
X142072226Y-120919659D01*
X142061330Y-120968591D01*
X142145929Y-120904951D01*
X142309266Y-120742946D01*
X142418319Y-120626123D01*
X142652362Y-120352405D01*
X142861253Y-120062213D01*
X143064570Y-119722051D01*
X143281897Y-119298429D01*
X143532815Y-118757850D01*
X143604811Y-118596620D01*
X143735793Y-118353994D01*
X143870965Y-118183858D01*
X143941155Y-118137577D01*
X144067207Y-118031650D01*
X144215697Y-117800884D01*
X144368708Y-117484896D01*
X144508328Y-117123301D01*
X144616640Y-116755719D01*
X144658882Y-116550401D01*
X144681908Y-116015595D01*
X144602615Y-115391239D01*
X144434121Y-114711666D01*
X144189543Y-114011216D01*
X143881999Y-113324221D01*
X143524608Y-112685018D01*
X143130487Y-112127944D01*
X142849786Y-111815141D01*
X142653645Y-111630182D01*
X142457516Y-111473186D01*
X142233640Y-111329332D01*
X141954250Y-111183799D01*
X141591584Y-111021768D01*
X141117877Y-110828418D01*
X140678261Y-110655971D01*
X139747426Y-110380605D01*
X138809928Y-110274160D01*
X137870767Y-110336689D01*
X136934945Y-110568249D01*
X136806661Y-110613364D01*
X136398500Y-110783938D01*
X136016973Y-110995838D01*
X135633735Y-111270428D01*
X135220435Y-111629076D01*
X134748728Y-112093146D01*
X134501887Y-112350478D01*
X134140355Y-112748305D01*
X133874836Y-113090657D01*
X133678156Y-113427800D01*
X133523143Y-113809997D01*
X133382626Y-114287511D01*
X133318846Y-114538915D01*
X133149223Y-115360876D01*
X133077211Y-116069191D01*
X132622058Y-116076342D01*
X132655975Y-115509640D01*
X132790916Y-114707843D01*
X133000284Y-113927244D01*
X133265588Y-113245679D01*
X133428365Y-112973795D01*
X133688401Y-112622821D01*
X134017580Y-112223392D01*
X134387789Y-111806140D01*
X134770913Y-111401699D01*
X135138838Y-111040700D01*
X135463452Y-110753779D01*
X135716637Y-110571568D01*
X135723264Y-110567798D01*
X136607123Y-110153324D01*
X137518423Y-109894488D01*
X138480136Y-109786443D01*
X139327508Y-109807364D01*
G36*
X124671949Y-118802845D02*
X124788386Y-118949687D01*
X124848085Y-119181730D01*
X124848765Y-119191867D01*
X124901710Y-119581500D01*
X125002060Y-119833176D01*
X125144290Y-119934023D01*
X125167947Y-119935364D01*
X125299210Y-119877820D01*
X125326087Y-119805864D01*
X125384576Y-119697072D01*
X125544259Y-119693579D01*
X125773840Y-119795228D01*
X125794827Y-119808238D01*
X125965543Y-119967371D01*
X125980411Y-120115338D01*
X125852904Y-120238695D01*
X125596492Y-120323993D01*
X125244563Y-120357545D01*
X124911449Y-120362778D01*
X124919429Y-120870716D01*
X124919370Y-121152291D01*
X124897270Y-121304661D01*
X124837189Y-121367841D01*
X124723186Y-121381850D01*
X124715768Y-121381978D01*
X124552267Y-121348048D01*
X124492700Y-121279636D01*
X124465706Y-121113229D01*
X124460274Y-121089622D01*
X124440431Y-120950988D01*
X124422167Y-120735920D01*
X124422139Y-120735482D01*
X124405003Y-120465691D01*
X124030454Y-120599915D01*
X123695345Y-120690397D01*
X123439144Y-120701100D01*
X123289874Y-120633553D01*
X123263313Y-120558023D01*
X123343158Y-120453434D01*
X123575993Y-120332017D01*
X123786528Y-120253434D01*
X124068806Y-120152972D01*
X124226591Y-120070960D01*
X124296746Y-119974484D01*
X124316131Y-119830630D01*
X124317443Y-119779370D01*
X124327909Y-119388110D01*
X124343587Y-119130552D01*
X124368040Y-118971074D01*
X124404825Y-118874054D01*
X124408567Y-118867660D01*
X124533699Y-118766927D01*
X124671949Y-118802845D01*
X124671949Y-118802845D01*
G37*
X124671949Y-118802845D02*
X124788386Y-118949687D01*
X124848085Y-119181730D01*
X124848765Y-119191867D01*
X124901710Y-119581500D01*
X125002060Y-119833176D01*
X125144290Y-119934023D01*
X125167947Y-119935364D01*
X125299210Y-119877820D01*
X125326087Y-119805864D01*
X125384576Y-119697072D01*
X125544259Y-119693579D01*
X125773840Y-119795228D01*
X125794827Y-119808238D01*
X125965543Y-119967371D01*
X125980411Y-120115338D01*
X125852904Y-120238695D01*
X125596492Y-120323993D01*
X125244563Y-120357545D01*
X124911449Y-120362778D01*
X124919429Y-120870716D01*
X124919370Y-121152291D01*
X124897270Y-121304661D01*
X124837189Y-121367841D01*
X124723186Y-121381850D01*
X124715768Y-121381978D01*
X124552267Y-121348048D01*
X124492700Y-121279636D01*
X124465706Y-121113229D01*
X124460274Y-121089622D01*
X124440431Y-120950988D01*
X124422167Y-120735920D01*
X124422139Y-120735482D01*
X124405003Y-120465691D01*
X124030454Y-120599915D01*
X123695345Y-120690397D01*
X123439144Y-120701100D01*
X123289874Y-120633553D01*
X123263313Y-120558023D01*
X123343158Y-120453434D01*
X123575993Y-120332017D01*
X123786528Y-120253434D01*
X124068806Y-120152972D01*
X124226591Y-120070960D01*
X124296746Y-119974484D01*
X124316131Y-119830630D01*
X124317443Y-119779370D01*
X124327909Y-119388110D01*
X124343587Y-119130552D01*
X124368040Y-118971074D01*
X124404825Y-118874054D01*
X124408567Y-118867660D01*
X124533699Y-118766927D01*
X124671949Y-118802845D01*
G36*
X127996760Y-120470543D02*
X128081407Y-120516730D01*
X128114294Y-120605699D01*
X128116284Y-120617615D01*
X128108569Y-120724580D01*
X128022388Y-120806920D01*
X127823781Y-120888299D01*
X127650108Y-120942478D01*
X127310227Y-121037417D01*
X127083622Y-121079176D01*
X126923908Y-121070987D01*
X126784702Y-121016087D01*
X126763255Y-121004322D01*
X126638331Y-120881450D01*
X126611870Y-120800561D01*
X126688219Y-120650442D01*
X126923978Y-120544008D01*
X127321094Y-120480547D01*
X127516143Y-120467480D01*
X127821343Y-120457378D01*
X127996760Y-120470543D01*
X127996760Y-120470543D01*
G37*
X127996760Y-120470543D02*
X128081407Y-120516730D01*
X128114294Y-120605699D01*
X128116284Y-120617615D01*
X128108569Y-120724580D01*
X128022388Y-120806920D01*
X127823781Y-120888299D01*
X127650108Y-120942478D01*
X127310227Y-121037417D01*
X127083622Y-121079176D01*
X126923908Y-121070987D01*
X126784702Y-121016087D01*
X126763255Y-121004322D01*
X126638331Y-120881450D01*
X126611870Y-120800561D01*
X126688219Y-120650442D01*
X126923978Y-120544008D01*
X127321094Y-120480547D01*
X127516143Y-120467480D01*
X127821343Y-120457378D01*
X127996760Y-120470543D01*
G36*
X120992148Y-120621927D02*
X121003858Y-120722235D01*
X120993921Y-120734802D01*
X120943410Y-120723972D01*
X120936597Y-120679252D01*
X120966477Y-120609084D01*
X120992148Y-120621927D01*
X120992148Y-120621927D01*
G37*
X120992148Y-120621927D02*
X121003858Y-120722235D01*
X120993921Y-120734802D01*
X120943410Y-120723972D01*
X120936597Y-120679252D01*
X120966477Y-120609084D01*
X120992148Y-120621927D01*
G36*
X119897449Y-119213726D02*
X119855787Y-119256720D01*
X119812793Y-119215056D01*
X119854457Y-119172063D01*
X119897449Y-119213726D01*
X119897449Y-119213726D01*
G37*
X119897449Y-119213726D02*
X119855787Y-119256720D01*
X119812793Y-119215056D01*
X119854457Y-119172063D01*
X119897449Y-119213726D01*
G36*
X151466241Y-118209741D02*
X151424577Y-118252735D01*
X151381584Y-118211071D01*
X151423247Y-118168078D01*
X151466241Y-118209741D01*
X151466241Y-118209741D01*
G37*
X151466241Y-118209741D02*
X151424577Y-118252735D01*
X151381584Y-118211071D01*
X151423247Y-118168078D01*
X151466241Y-118209741D01*
G36*
X149267432Y-110677276D02*
X149443419Y-110838045D01*
X149676386Y-111116263D01*
X149979607Y-111524589D01*
X150058051Y-111634532D01*
X150272222Y-111928615D01*
X150452829Y-112162288D01*
X150576615Y-112306274D01*
X150616881Y-112338025D01*
X150712821Y-112279269D01*
X150778392Y-112209495D01*
X150915384Y-112081344D01*
X151122478Y-111928049D01*
X151167316Y-111898631D01*
X151380845Y-111785157D01*
X151519333Y-111779040D01*
X151570152Y-111808986D01*
X151627290Y-111886975D01*
X151633873Y-112017381D01*
X151587589Y-112241733D01*
X151535448Y-112431824D01*
X151434594Y-112751427D01*
X151327835Y-113038439D01*
X151255916Y-113195926D01*
X151177310Y-113349327D01*
X151173584Y-113411824D01*
X151266113Y-113384791D01*
X151476280Y-113269605D01*
X151568929Y-113216057D01*
X151864648Y-113079204D01*
X152053740Y-113073640D01*
X152136729Y-113199533D01*
X152126817Y-113396439D01*
X152112022Y-113575150D01*
X152171277Y-113636056D01*
X152224135Y-113636343D01*
X152323192Y-113664961D01*
X152353639Y-113802545D01*
X152350468Y-113901325D01*
X152372420Y-114155888D01*
X152478809Y-114443538D01*
X152683616Y-114794707D01*
X152908152Y-115115261D01*
X153090695Y-115412842D01*
X153144005Y-115626877D01*
X153067543Y-115748261D01*
X152947161Y-115773179D01*
X152803243Y-115702668D01*
X152611413Y-115506280D01*
X152394406Y-115212034D01*
X152174952Y-114847950D01*
X152133097Y-114769842D01*
X152016814Y-114552411D01*
X151940861Y-114459241D01*
X151862173Y-114467222D01*
X151737680Y-114553245D01*
X151734183Y-114555780D01*
X151515167Y-114662932D01*
X151294520Y-114695115D01*
X151137150Y-114645415D01*
X151116649Y-114621547D01*
X151123342Y-114504591D01*
X151203026Y-114313018D01*
X151232669Y-114259847D01*
X151359387Y-114025542D01*
X151382064Y-113918101D01*
X151296020Y-113927268D01*
X151125293Y-114024508D01*
X150846450Y-114162847D01*
X150631736Y-114194663D01*
X150522009Y-114132191D01*
X150518283Y-114014311D01*
X150558672Y-113797828D01*
X150627050Y-113542387D01*
X150707287Y-113307636D01*
X150783258Y-113153225D01*
X150788603Y-113146210D01*
X150872781Y-112999411D01*
X150958395Y-112796879D01*
X151049490Y-112545462D01*
X150815502Y-112759560D01*
X150607018Y-112953273D01*
X150360615Y-113186146D01*
X150272612Y-113270292D01*
X149963713Y-113566925D01*
X150279806Y-113989934D01*
X150478383Y-114237978D01*
X150751765Y-114556289D01*
X151056011Y-114894410D01*
X151223316Y-115073416D01*
X151549023Y-115432299D01*
X151751519Y-115698408D01*
X151838142Y-115886816D01*
X151816232Y-116012593D01*
X151714775Y-116082726D01*
X151612190Y-116070126D01*
X151448559Y-115962252D01*
X151208716Y-115746962D01*
X150878657Y-115413331D01*
X150591708Y-115109824D01*
X150338264Y-114834334D01*
X150147463Y-114618996D01*
X150053175Y-114502882D01*
X149954256Y-114361197D01*
X149783822Y-114115928D01*
X149566654Y-113802781D01*
X149350608Y-113490798D01*
X149005876Y-113007557D01*
X148725441Y-112653802D01*
X148490004Y-112411763D01*
X148280267Y-112263663D01*
X148076932Y-112191730D01*
X147924253Y-112177128D01*
X147644280Y-112215975D01*
X147462989Y-112352064D01*
X147321600Y-112488105D01*
X147086830Y-112671945D01*
X146814725Y-112860290D01*
X146565285Y-113031908D01*
X146384427Y-113174867D01*
X146308388Y-113260300D01*
X146307920Y-113263998D01*
X146361792Y-113354767D01*
X146505853Y-113539188D01*
X146715360Y-113786559D01*
X146867728Y-113958589D01*
X147186534Y-114334008D01*
X147529976Y-114771897D01*
X147834294Y-115190299D01*
X147892434Y-115275733D01*
X148185674Y-115694909D01*
X148484880Y-116089284D01*
X148770968Y-116437022D01*
X149024861Y-116716289D01*
X149227477Y-116905249D01*
X149359735Y-116982068D01*
X149381993Y-116980338D01*
X149517700Y-117000767D01*
X149589388Y-117058717D01*
X149671740Y-117116285D01*
X149780665Y-117084745D01*
X149958791Y-116949315D01*
X149995582Y-116917861D01*
X150292222Y-116677412D01*
X150599038Y-116453636D01*
X150883012Y-116267777D01*
X151111124Y-116141078D01*
X151250354Y-116094783D01*
X151268536Y-116098892D01*
X151348619Y-116223677D01*
X151290100Y-116390651D01*
X151138777Y-116538560D01*
X150964451Y-116671618D01*
X150714740Y-116869859D01*
X150448794Y-117086199D01*
X150033138Y-117416713D01*
X149715235Y-117643540D01*
X149504124Y-117760489D01*
X149441740Y-117775821D01*
X149348900Y-117718896D01*
X149180796Y-117568982D01*
X148987881Y-117373227D01*
X148487836Y-116821663D01*
X148067854Y-116315351D01*
X147677643Y-115791462D01*
X147407737Y-115399223D01*
X147138493Y-115021701D01*
X146839150Y-114639114D01*
X146557675Y-114311501D01*
X146442213Y-114190624D01*
X146145724Y-113868842D01*
X145917839Y-113567021D01*
X145776191Y-113312988D01*
X145738415Y-113134571D01*
X145750512Y-113099032D01*
X145843155Y-113017605D01*
X146036927Y-112884365D01*
X146236504Y-112760421D01*
X146513211Y-112569329D01*
X146839743Y-112305332D01*
X147151965Y-112020770D01*
X147194663Y-111978481D01*
X147537013Y-111668646D01*
X147845791Y-111452595D01*
X148102640Y-111337410D01*
X148289206Y-111330168D01*
X148387131Y-111437955D01*
X148397364Y-111514507D01*
X148457635Y-111655060D01*
X148608312Y-111846440D01*
X148710854Y-111949140D01*
X148926355Y-112169381D01*
X149181695Y-112461014D01*
X149400600Y-112733952D01*
X149779176Y-113231840D01*
X149769426Y-112611137D01*
X149719884Y-112095254D01*
X149582598Y-111705534D01*
X149346902Y-111417363D01*
X149208039Y-111315617D01*
X149038621Y-111142205D01*
X148956944Y-110926089D01*
X148979330Y-110728748D01*
X149033307Y-110657468D01*
X149135153Y-110621303D01*
X149267432Y-110677276D01*
X149267432Y-110677276D01*
G37*
X149267432Y-110677276D02*
X149443419Y-110838045D01*
X149676386Y-111116263D01*
X149979607Y-111524589D01*
X150058051Y-111634532D01*
X150272222Y-111928615D01*
X150452829Y-112162288D01*
X150576615Y-112306274D01*
X150616881Y-112338025D01*
X150712821Y-112279269D01*
X150778392Y-112209495D01*
X150915384Y-112081344D01*
X151122478Y-111928049D01*
X151167316Y-111898631D01*
X151380845Y-111785157D01*
X151519333Y-111779040D01*
X151570152Y-111808986D01*
X151627290Y-111886975D01*
X151633873Y-112017381D01*
X151587589Y-112241733D01*
X151535448Y-112431824D01*
X151434594Y-112751427D01*
X151327835Y-113038439D01*
X151255916Y-113195926D01*
X151177310Y-113349327D01*
X151173584Y-113411824D01*
X151266113Y-113384791D01*
X151476280Y-113269605D01*
X151568929Y-113216057D01*
X151864648Y-113079204D01*
X152053740Y-113073640D01*
X152136729Y-113199533D01*
X152126817Y-113396439D01*
X152112022Y-113575150D01*
X152171277Y-113636056D01*
X152224135Y-113636343D01*
X152323192Y-113664961D01*
X152353639Y-113802545D01*
X152350468Y-113901325D01*
X152372420Y-114155888D01*
X152478809Y-114443538D01*
X152683616Y-114794707D01*
X152908152Y-115115261D01*
X153090695Y-115412842D01*
X153144005Y-115626877D01*
X153067543Y-115748261D01*
X152947161Y-115773179D01*
X152803243Y-115702668D01*
X152611413Y-115506280D01*
X152394406Y-115212034D01*
X152174952Y-114847950D01*
X152133097Y-114769842D01*
X152016814Y-114552411D01*
X151940861Y-114459241D01*
X151862173Y-114467222D01*
X151737680Y-114553245D01*
X151734183Y-114555780D01*
X151515167Y-114662932D01*
X151294520Y-114695115D01*
X151137150Y-114645415D01*
X151116649Y-114621547D01*
X151123342Y-114504591D01*
X151203026Y-114313018D01*
X151232669Y-114259847D01*
X151359387Y-114025542D01*
X151382064Y-113918101D01*
X151296020Y-113927268D01*
X151125293Y-114024508D01*
X150846450Y-114162847D01*
X150631736Y-114194663D01*
X150522009Y-114132191D01*
X150518283Y-114014311D01*
X150558672Y-113797828D01*
X150627050Y-113542387D01*
X150707287Y-113307636D01*
X150783258Y-113153225D01*
X150788603Y-113146210D01*
X150872781Y-112999411D01*
X150958395Y-112796879D01*
X151049490Y-112545462D01*
X150815502Y-112759560D01*
X150607018Y-112953273D01*
X150360615Y-113186146D01*
X150272612Y-113270292D01*
X149963713Y-113566925D01*
X150279806Y-113989934D01*
X150478383Y-114237978D01*
X150751765Y-114556289D01*
X151056011Y-114894410D01*
X151223316Y-115073416D01*
X151549023Y-115432299D01*
X151751519Y-115698408D01*
X151838142Y-115886816D01*
X151816232Y-116012593D01*
X151714775Y-116082726D01*
X151612190Y-116070126D01*
X151448559Y-115962252D01*
X151208716Y-115746962D01*
X150878657Y-115413331D01*
X150591708Y-115109824D01*
X150338264Y-114834334D01*
X150147463Y-114618996D01*
X150053175Y-114502882D01*
X149954256Y-114361197D01*
X149783822Y-114115928D01*
X149566654Y-113802781D01*
X149350608Y-113490798D01*
X149005876Y-113007557D01*
X148725441Y-112653802D01*
X148490004Y-112411763D01*
X148280267Y-112263663D01*
X148076932Y-112191730D01*
X147924253Y-112177128D01*
X147644280Y-112215975D01*
X147462989Y-112352064D01*
X147321600Y-112488105D01*
X147086830Y-112671945D01*
X146814725Y-112860290D01*
X146565285Y-113031908D01*
X146384427Y-113174867D01*
X146308388Y-113260300D01*
X146307920Y-113263998D01*
X146361792Y-113354767D01*
X146505853Y-113539188D01*
X146715360Y-113786559D01*
X146867728Y-113958589D01*
X147186534Y-114334008D01*
X147529976Y-114771897D01*
X147834294Y-115190299D01*
X147892434Y-115275733D01*
X148185674Y-115694909D01*
X148484880Y-116089284D01*
X148770968Y-116437022D01*
X149024861Y-116716289D01*
X149227477Y-116905249D01*
X149359735Y-116982068D01*
X149381993Y-116980338D01*
X149517700Y-117000767D01*
X149589388Y-117058717D01*
X149671740Y-117116285D01*
X149780665Y-117084745D01*
X149958791Y-116949315D01*
X149995582Y-116917861D01*
X150292222Y-116677412D01*
X150599038Y-116453636D01*
X150883012Y-116267777D01*
X151111124Y-116141078D01*
X151250354Y-116094783D01*
X151268536Y-116098892D01*
X151348619Y-116223677D01*
X151290100Y-116390651D01*
X151138777Y-116538560D01*
X150964451Y-116671618D01*
X150714740Y-116869859D01*
X150448794Y-117086199D01*
X150033138Y-117416713D01*
X149715235Y-117643540D01*
X149504124Y-117760489D01*
X149441740Y-117775821D01*
X149348900Y-117718896D01*
X149180796Y-117568982D01*
X148987881Y-117373227D01*
X148487836Y-116821663D01*
X148067854Y-116315351D01*
X147677643Y-115791462D01*
X147407737Y-115399223D01*
X147138493Y-115021701D01*
X146839150Y-114639114D01*
X146557675Y-114311501D01*
X146442213Y-114190624D01*
X146145724Y-113868842D01*
X145917839Y-113567021D01*
X145776191Y-113312988D01*
X145738415Y-113134571D01*
X145750512Y-113099032D01*
X145843155Y-113017605D01*
X146036927Y-112884365D01*
X146236504Y-112760421D01*
X146513211Y-112569329D01*
X146839743Y-112305332D01*
X147151965Y-112020770D01*
X147194663Y-111978481D01*
X147537013Y-111668646D01*
X147845791Y-111452595D01*
X148102640Y-111337410D01*
X148289206Y-111330168D01*
X148387131Y-111437955D01*
X148397364Y-111514507D01*
X148457635Y-111655060D01*
X148608312Y-111846440D01*
X148710854Y-111949140D01*
X148926355Y-112169381D01*
X149181695Y-112461014D01*
X149400600Y-112733952D01*
X149779176Y-113231840D01*
X149769426Y-112611137D01*
X149719884Y-112095254D01*
X149582598Y-111705534D01*
X149346902Y-111417363D01*
X149208039Y-111315617D01*
X149038621Y-111142205D01*
X148956944Y-110926089D01*
X148979330Y-110728748D01*
X149033307Y-110657468D01*
X149135153Y-110621303D01*
X149267432Y-110677276D01*
G36*
X165339808Y-116979289D02*
X165416157Y-117059834D01*
X165331289Y-117101166D01*
X165288573Y-117103493D01*
X165200727Y-117063212D01*
X165208414Y-117018694D01*
X165309104Y-116968265D01*
X165339808Y-116979289D01*
X165339808Y-116979289D01*
G37*
X165339808Y-116979289D02*
X165416157Y-117059834D01*
X165331289Y-117101166D01*
X165288573Y-117103493D01*
X165200727Y-117063212D01*
X165208414Y-117018694D01*
X165309104Y-116968265D01*
X165339808Y-116979289D01*
G36*
X149985858Y-115608007D02*
X149944195Y-115651000D01*
X149901203Y-115609337D01*
X149942865Y-115566343D01*
X149985858Y-115608007D01*
X149985858Y-115608007D01*
G37*
X149985858Y-115608007D02*
X149944195Y-115651000D01*
X149901203Y-115609337D01*
X149942865Y-115566343D01*
X149985858Y-115608007D01*
G36*
X120815730Y-114781978D02*
X120804899Y-114832489D01*
X120760178Y-114839302D01*
X120690010Y-114809423D01*
X120702855Y-114783751D01*
X120803162Y-114772041D01*
X120815730Y-114781978D01*
X120815730Y-114781978D01*
G37*
X120815730Y-114781978D02*
X120804899Y-114832489D01*
X120760178Y-114839302D01*
X120690010Y-114809423D01*
X120702855Y-114783751D01*
X120803162Y-114772041D01*
X120815730Y-114781978D01*
G36*
X115477581Y-112763022D02*
X115435918Y-112806014D01*
X115392924Y-112764351D01*
X115434588Y-112721359D01*
X115477581Y-112763022D01*
X115477581Y-112763022D01*
G37*
X115477581Y-112763022D02*
X115435918Y-112806014D01*
X115392924Y-112764351D01*
X115434588Y-112721359D01*
X115477581Y-112763022D01*
G36*
X146874400Y-111592384D02*
X146832737Y-111635377D01*
X146789744Y-111593714D01*
X146831407Y-111550721D01*
X146874400Y-111592384D01*
X146874400Y-111592384D01*
G37*
X146874400Y-111592384D02*
X146832737Y-111635377D01*
X146789744Y-111593714D01*
X146831407Y-111550721D01*
X146874400Y-111592384D01*
G36*
X134409987Y-110518034D02*
X134368324Y-110561027D01*
X134325331Y-110519364D01*
X134366994Y-110476370D01*
X134409987Y-110518034D01*
X134409987Y-110518034D01*
G37*
X134409987Y-110518034D02*
X134368324Y-110561027D01*
X134325331Y-110519364D01*
X134366994Y-110476370D01*
X134409987Y-110518034D01*
G36*
X139002245Y-106381392D02*
X138960582Y-106424385D01*
X138917588Y-106382722D01*
X138959252Y-106339728D01*
X139002245Y-106381392D01*
X139002245Y-106381392D01*
G37*
X139002245Y-106381392D02*
X138960582Y-106424385D01*
X138917588Y-106382722D01*
X138959252Y-106339728D01*
X139002245Y-106381392D01*
G36*
X137697545Y-97245654D02*
X138163115Y-97277607D01*
X138803136Y-97323054D01*
X139418304Y-97355782D01*
X139983706Y-97375408D01*
X140474425Y-97381548D01*
X140865549Y-97373820D01*
X141132162Y-97351841D01*
X141237120Y-97324860D01*
X141353494Y-97282417D01*
X141441917Y-97312759D01*
X141506303Y-97432960D01*
X141550571Y-97660094D01*
X141578638Y-98011234D01*
X141594420Y-98503456D01*
X141599940Y-98906366D01*
X141600791Y-99526987D01*
X141593729Y-100227479D01*
X141579982Y-100930651D01*
X141560778Y-101559307D01*
X141555770Y-101684036D01*
X141515868Y-102634024D01*
X141483381Y-103430442D01*
X141457765Y-104088867D01*
X141438471Y-104624876D01*
X141424951Y-105054044D01*
X141416657Y-105391949D01*
X141413042Y-105654166D01*
X141412796Y-105750784D01*
X141409322Y-105996423D01*
X141379172Y-106157876D01*
X141294168Y-106248600D01*
X141126133Y-106282048D01*
X140846892Y-106271677D01*
X140428265Y-106230940D01*
X140411006Y-106229157D01*
X140034231Y-106186362D01*
X139794773Y-106140682D01*
X139661226Y-106074899D01*
X139602182Y-105971795D01*
X139586234Y-105814151D01*
X139585484Y-105776580D01*
X139536076Y-105430293D01*
X139414945Y-105172839D01*
X139244627Y-105024379D01*
X139047659Y-105005074D01*
X138856544Y-105124560D01*
X138769084Y-105286399D01*
X138746022Y-105548197D01*
X138753655Y-105697747D01*
X138771014Y-105880879D01*
X138772768Y-106004814D01*
X138732702Y-106078545D01*
X138624594Y-106111065D01*
X138422227Y-106111368D01*
X138099382Y-106088447D01*
X137706108Y-106057074D01*
X137343605Y-106015041D01*
X137078114Y-105955520D01*
X136949572Y-105890264D01*
X136918104Y-105803954D01*
X136895086Y-105619519D01*
X136880139Y-105323273D01*
X136872879Y-104901534D01*
X136872901Y-104641370D01*
X137297250Y-104634703D01*
X137304689Y-105067920D01*
X137318347Y-105368771D01*
X137338247Y-105521625D01*
X137346872Y-105537373D01*
X137471191Y-105573138D01*
X137697300Y-105614056D01*
X137815979Y-105630808D01*
X138208826Y-105681428D01*
X138259914Y-105299993D01*
X138319883Y-105031108D01*
X138439611Y-104854248D01*
X138605185Y-104730291D01*
X138960217Y-104590549D01*
X139313677Y-104604223D01*
X139633263Y-104758206D01*
X139886677Y-105039392D01*
X140005332Y-105298452D01*
X140079385Y-105526424D01*
X140133437Y-105691754D01*
X140138571Y-105707293D01*
X140242987Y-105775832D01*
X140472456Y-105806296D01*
X140546152Y-105806736D01*
X140918831Y-105800882D01*
X140960824Y-105143975D01*
X140979765Y-104791969D01*
X140999453Y-104332755D01*
X141017437Y-103828425D01*
X141030178Y-103385835D01*
X141043684Y-102903035D01*
X141059841Y-102417904D01*
X141076556Y-101988976D01*
X141090792Y-101691341D01*
X141105025Y-101333727D01*
X141113636Y-100893522D01*
X141117029Y-100400271D01*
X141115612Y-99883524D01*
X141109790Y-99372829D01*
X141099965Y-98897734D01*
X141086546Y-98487787D01*
X141069936Y-98172535D01*
X141050540Y-97981529D01*
X141039368Y-97940926D01*
X140918764Y-97888397D01*
X140637123Y-97859155D01*
X140191304Y-97852910D01*
X140106022Y-97854003D01*
X139607505Y-97847110D01*
X139042189Y-97816810D01*
X138510053Y-97769009D01*
X138362830Y-97750947D01*
X137996677Y-97707051D01*
X137696273Y-97680412D01*
X137498882Y-97673772D01*
X137441223Y-97683151D01*
X137423539Y-97781265D01*
X137407946Y-98016374D01*
X137395871Y-98356139D01*
X137388740Y-98768224D01*
X137387814Y-98894064D01*
X137382979Y-99439205D01*
X137374422Y-100035944D01*
X137363405Y-100607640D01*
X137352645Y-101030309D01*
X137329287Y-101890852D01*
X137312048Y-102697195D01*
X137300949Y-103433707D01*
X137296009Y-104084755D01*
X137297250Y-104634703D01*
X136872901Y-104641370D01*
X136872927Y-104340616D01*
X136879899Y-103626835D01*
X136882028Y-103469010D01*
X136891188Y-102787662D01*
X136899823Y-102095911D01*
X136907507Y-101431739D01*
X136913813Y-100833127D01*
X136918316Y-100338056D01*
X136920224Y-100063315D01*
X136924663Y-99319282D01*
X136929636Y-98726529D01*
X136936031Y-98267004D01*
X136944738Y-97922653D01*
X136956648Y-97675426D01*
X136972649Y-97507267D01*
X136993631Y-97400125D01*
X137020485Y-97335947D01*
X137054099Y-97296681D01*
X137056668Y-97294451D01*
X137162152Y-97253363D01*
X137368294Y-97237212D01*
X137697545Y-97245654D01*
X137697545Y-97245654D01*
G37*
X137697545Y-97245654D02*
X138163115Y-97277607D01*
X138803136Y-97323054D01*
X139418304Y-97355782D01*
X139983706Y-97375408D01*
X140474425Y-97381548D01*
X140865549Y-97373820D01*
X141132162Y-97351841D01*
X141237120Y-97324860D01*
X141353494Y-97282417D01*
X141441917Y-97312759D01*
X141506303Y-97432960D01*
X141550571Y-97660094D01*
X141578638Y-98011234D01*
X141594420Y-98503456D01*
X141599940Y-98906366D01*
X141600791Y-99526987D01*
X141593729Y-100227479D01*
X141579982Y-100930651D01*
X141560778Y-101559307D01*
X141555770Y-101684036D01*
X141515868Y-102634024D01*
X141483381Y-103430442D01*
X141457765Y-104088867D01*
X141438471Y-104624876D01*
X141424951Y-105054044D01*
X141416657Y-105391949D01*
X141413042Y-105654166D01*
X141412796Y-105750784D01*
X141409322Y-105996423D01*
X141379172Y-106157876D01*
X141294168Y-106248600D01*
X141126133Y-106282048D01*
X140846892Y-106271677D01*
X140428265Y-106230940D01*
X140411006Y-106229157D01*
X140034231Y-106186362D01*
X139794773Y-106140682D01*
X139661226Y-106074899D01*
X139602182Y-105971795D01*
X139586234Y-105814151D01*
X139585484Y-105776580D01*
X139536076Y-105430293D01*
X139414945Y-105172839D01*
X139244627Y-105024379D01*
X139047659Y-105005074D01*
X138856544Y-105124560D01*
X138769084Y-105286399D01*
X138746022Y-105548197D01*
X138753655Y-105697747D01*
X138771014Y-105880879D01*
X138772768Y-106004814D01*
X138732702Y-106078545D01*
X138624594Y-106111065D01*
X138422227Y-106111368D01*
X138099382Y-106088447D01*
X137706108Y-106057074D01*
X137343605Y-106015041D01*
X137078114Y-105955520D01*
X136949572Y-105890264D01*
X136918104Y-105803954D01*
X136895086Y-105619519D01*
X136880139Y-105323273D01*
X136872879Y-104901534D01*
X136872901Y-104641370D01*
X137297250Y-104634703D01*
X137304689Y-105067920D01*
X137318347Y-105368771D01*
X137338247Y-105521625D01*
X137346872Y-105537373D01*
X137471191Y-105573138D01*
X137697300Y-105614056D01*
X137815979Y-105630808D01*
X138208826Y-105681428D01*
X138259914Y-105299993D01*
X138319883Y-105031108D01*
X138439611Y-104854248D01*
X138605185Y-104730291D01*
X138960217Y-104590549D01*
X139313677Y-104604223D01*
X139633263Y-104758206D01*
X139886677Y-105039392D01*
X140005332Y-105298452D01*
X140079385Y-105526424D01*
X140133437Y-105691754D01*
X140138571Y-105707293D01*
X140242987Y-105775832D01*
X140472456Y-105806296D01*
X140546152Y-105806736D01*
X140918831Y-105800882D01*
X140960824Y-105143975D01*
X140979765Y-104791969D01*
X140999453Y-104332755D01*
X141017437Y-103828425D01*
X141030178Y-103385835D01*
X141043684Y-102903035D01*
X141059841Y-102417904D01*
X141076556Y-101988976D01*
X141090792Y-101691341D01*
X141105025Y-101333727D01*
X141113636Y-100893522D01*
X141117029Y-100400271D01*
X141115612Y-99883524D01*
X141109790Y-99372829D01*
X141099965Y-98897734D01*
X141086546Y-98487787D01*
X141069936Y-98172535D01*
X141050540Y-97981529D01*
X141039368Y-97940926D01*
X140918764Y-97888397D01*
X140637123Y-97859155D01*
X140191304Y-97852910D01*
X140106022Y-97854003D01*
X139607505Y-97847110D01*
X139042189Y-97816810D01*
X138510053Y-97769009D01*
X138362830Y-97750947D01*
X137996677Y-97707051D01*
X137696273Y-97680412D01*
X137498882Y-97673772D01*
X137441223Y-97683151D01*
X137423539Y-97781265D01*
X137407946Y-98016374D01*
X137395871Y-98356139D01*
X137388740Y-98768224D01*
X137387814Y-98894064D01*
X137382979Y-99439205D01*
X137374422Y-100035944D01*
X137363405Y-100607640D01*
X137352645Y-101030309D01*
X137329287Y-101890852D01*
X137312048Y-102697195D01*
X137300949Y-103433707D01*
X137296009Y-104084755D01*
X137297250Y-104634703D01*
X136872901Y-104641370D01*
X136872927Y-104340616D01*
X136879899Y-103626835D01*
X136882028Y-103469010D01*
X136891188Y-102787662D01*
X136899823Y-102095911D01*
X136907507Y-101431739D01*
X136913813Y-100833127D01*
X136918316Y-100338056D01*
X136920224Y-100063315D01*
X136924663Y-99319282D01*
X136929636Y-98726529D01*
X136936031Y-98267004D01*
X136944738Y-97922653D01*
X136956648Y-97675426D01*
X136972649Y-97507267D01*
X136993631Y-97400125D01*
X137020485Y-97335947D01*
X137054099Y-97296681D01*
X137056668Y-97294451D01*
X137162152Y-97253363D01*
X137368294Y-97237212D01*
X137697545Y-97245654D01*
G36*
X151818942Y-104726427D02*
X151830652Y-104826735D01*
X151820715Y-104839302D01*
X151770205Y-104828472D01*
X151763391Y-104783751D01*
X151793271Y-104713582D01*
X151818942Y-104726427D01*
X151818942Y-104726427D01*
G37*
X151818942Y-104726427D02*
X151830652Y-104826735D01*
X151820715Y-104839302D01*
X151770205Y-104828472D01*
X151763391Y-104783751D01*
X151793271Y-104713582D01*
X151818942Y-104726427D01*
G36*
X126529853Y-104799105D02*
X126488190Y-104842097D01*
X126445196Y-104800434D01*
X126486860Y-104757441D01*
X126529853Y-104799105D01*
X126529853Y-104799105D01*
G37*
X126529853Y-104799105D02*
X126488190Y-104842097D01*
X126445196Y-104800434D01*
X126486860Y-104757441D01*
X126529853Y-104799105D01*
G36*
X162775558Y-99657147D02*
X162733895Y-99700140D01*
X162690901Y-99658477D01*
X162732565Y-99615484D01*
X162775558Y-99657147D01*
X162775558Y-99657147D01*
G37*
X162775558Y-99657147D02*
X162733895Y-99700140D01*
X162690901Y-99658477D01*
X162732565Y-99615484D01*
X162775558Y-99657147D01*
G36*
X129898356Y-98226049D02*
X129856693Y-98269043D01*
X129813701Y-98227379D01*
X129855363Y-98184387D01*
X129898356Y-98226049D01*
X129898356Y-98226049D01*
G37*
X129898356Y-98226049D02*
X129856693Y-98269043D01*
X129813701Y-98227379D01*
X129855363Y-98184387D01*
X129898356Y-98226049D01*
G36*
X126472211Y-95739558D02*
X126430547Y-95782552D01*
X126387555Y-95740888D01*
X126429218Y-95697895D01*
X126472211Y-95739558D01*
X126472211Y-95739558D01*
G37*
X126472211Y-95739558D02*
X126430547Y-95782552D01*
X126387555Y-95740888D01*
X126429218Y-95697895D01*
X126472211Y-95739558D01*
G36*
X138991647Y-90800969D02*
X139100941Y-90839407D01*
X139334253Y-90866703D01*
X139646388Y-90878159D01*
X139732485Y-90877986D01*
X140112850Y-90888968D01*
X140587201Y-90923922D01*
X141082879Y-90976737D01*
X141366815Y-91015436D01*
X141781876Y-91080511D01*
X142059283Y-91133924D01*
X142229267Y-91186108D01*
X142322058Y-91247499D01*
X142367888Y-91328530D01*
X142378761Y-91364702D01*
X142404032Y-91569862D01*
X142406118Y-91864503D01*
X142388927Y-92194982D01*
X142356361Y-92507650D01*
X142312327Y-92748860D01*
X142270219Y-92855924D01*
X142231485Y-92993466D01*
X142221567Y-93235054D01*
X142232529Y-93417139D01*
X142260145Y-93719007D01*
X142256297Y-93927192D01*
X142196157Y-94059072D01*
X142054897Y-94132023D01*
X141807688Y-94163424D01*
X141429704Y-94170649D01*
X141155969Y-94170614D01*
X140670135Y-94176175D01*
X140166565Y-94191465D01*
X139713229Y-94213961D01*
X139446498Y-94234098D01*
X139064184Y-94261657D01*
X138692036Y-94274361D01*
X138405926Y-94269742D01*
X138388575Y-94268516D01*
X138113101Y-94239208D01*
X137746958Y-94189731D01*
X137366045Y-94130400D01*
X137339687Y-94125957D01*
X136979630Y-94071626D01*
X136646732Y-94032911D01*
X136406363Y-94017257D01*
X136385362Y-94017304D01*
X136179543Y-93992229D01*
X136088791Y-93920455D01*
X136088177Y-93916126D01*
X136082980Y-93589705D01*
X136100361Y-93354992D01*
X136584033Y-93347394D01*
X136652908Y-93483539D01*
X136826729Y-93572323D01*
X137128755Y-93640162D01*
X137426854Y-93689004D01*
X137928911Y-93765928D01*
X138315451Y-93816871D01*
X138637820Y-93844663D01*
X138947365Y-93852140D01*
X139295432Y-93842133D01*
X139733366Y-93817472D01*
X139743949Y-93816815D01*
X140196904Y-93790274D01*
X140662329Y-93765709D01*
X141067612Y-93746851D01*
X141224604Y-93740742D01*
X141809388Y-93720403D01*
X141804694Y-93151723D01*
X141810427Y-92854899D01*
X141829982Y-92628336D01*
X141858323Y-92522859D01*
X141900996Y-92396235D01*
X141914963Y-92176139D01*
X141903928Y-91921875D01*
X141871595Y-91692747D01*
X141821670Y-91548055D01*
X141796094Y-91526662D01*
X141437013Y-91459103D01*
X140936456Y-91403079D01*
X140321997Y-91360315D01*
X139621207Y-91332541D01*
X138861662Y-91321483D01*
X138532815Y-91322232D01*
X137953746Y-91327017D01*
X137522260Y-91333343D01*
X137216607Y-91343564D01*
X137015039Y-91360037D01*
X136895809Y-91385120D01*
X136837166Y-91421167D01*
X136817362Y-91470536D01*
X136815059Y-91508343D01*
X136795052Y-91897379D01*
X136753807Y-92312525D01*
X136699873Y-92677038D01*
X136668088Y-92827383D01*
X136596847Y-93137479D01*
X136584033Y-93347394D01*
X136100361Y-93354992D01*
X136113585Y-93176429D01*
X136167450Y-92792909D01*
X136209188Y-92483135D01*
X136244431Y-92092920D01*
X136264106Y-91739374D01*
X136279658Y-91420491D01*
X136316719Y-91190161D01*
X136399227Y-91035038D01*
X136551119Y-90941770D01*
X136796338Y-90897010D01*
X137158819Y-90887407D01*
X137662503Y-90899613D01*
X137764133Y-90902904D01*
X138243705Y-90915559D01*
X138577110Y-90916033D01*
X138787173Y-90902881D01*
X138896720Y-90874654D01*
X138928578Y-90829906D01*
X138928581Y-90829082D01*
X138958019Y-90770463D01*
X138991647Y-90800969D01*
X138991647Y-90800969D01*
G37*
X138991647Y-90800969D02*
X139100941Y-90839407D01*
X139334253Y-90866703D01*
X139646388Y-90878159D01*
X139732485Y-90877986D01*
X140112850Y-90888968D01*
X140587201Y-90923922D01*
X141082879Y-90976737D01*
X141366815Y-91015436D01*
X141781876Y-91080511D01*
X142059283Y-91133924D01*
X142229267Y-91186108D01*
X142322058Y-91247499D01*
X142367888Y-91328530D01*
X142378761Y-91364702D01*
X142404032Y-91569862D01*
X142406118Y-91864503D01*
X142388927Y-92194982D01*
X142356361Y-92507650D01*
X142312327Y-92748860D01*
X142270219Y-92855924D01*
X142231485Y-92993466D01*
X142221567Y-93235054D01*
X142232529Y-93417139D01*
X142260145Y-93719007D01*
X142256297Y-93927192D01*
X142196157Y-94059072D01*
X142054897Y-94132023D01*
X141807688Y-94163424D01*
X141429704Y-94170649D01*
X141155969Y-94170614D01*
X140670135Y-94176175D01*
X140166565Y-94191465D01*
X139713229Y-94213961D01*
X139446498Y-94234098D01*
X139064184Y-94261657D01*
X138692036Y-94274361D01*
X138405926Y-94269742D01*
X138388575Y-94268516D01*
X138113101Y-94239208D01*
X137746958Y-94189731D01*
X137366045Y-94130400D01*
X137339687Y-94125957D01*
X136979630Y-94071626D01*
X136646732Y-94032911D01*
X136406363Y-94017257D01*
X136385362Y-94017304D01*
X136179543Y-93992229D01*
X136088791Y-93920455D01*
X136088177Y-93916126D01*
X136082980Y-93589705D01*
X136100361Y-93354992D01*
X136584033Y-93347394D01*
X136652908Y-93483539D01*
X136826729Y-93572323D01*
X137128755Y-93640162D01*
X137426854Y-93689004D01*
X137928911Y-93765928D01*
X138315451Y-93816871D01*
X138637820Y-93844663D01*
X138947365Y-93852140D01*
X139295432Y-93842133D01*
X139733366Y-93817472D01*
X139743949Y-93816815D01*
X140196904Y-93790274D01*
X140662329Y-93765709D01*
X141067612Y-93746851D01*
X141224604Y-93740742D01*
X141809388Y-93720403D01*
X141804694Y-93151723D01*
X141810427Y-92854899D01*
X141829982Y-92628336D01*
X141858323Y-92522859D01*
X141900996Y-92396235D01*
X141914963Y-92176139D01*
X141903928Y-91921875D01*
X141871595Y-91692747D01*
X141821670Y-91548055D01*
X141796094Y-91526662D01*
X141437013Y-91459103D01*
X140936456Y-91403079D01*
X140321997Y-91360315D01*
X139621207Y-91332541D01*
X138861662Y-91321483D01*
X138532815Y-91322232D01*
X137953746Y-91327017D01*
X137522260Y-91333343D01*
X137216607Y-91343564D01*
X137015039Y-91360037D01*
X136895809Y-91385120D01*
X136837166Y-91421167D01*
X136817362Y-91470536D01*
X136815059Y-91508343D01*
X136795052Y-91897379D01*
X136753807Y-92312525D01*
X136699873Y-92677038D01*
X136668088Y-92827383D01*
X136596847Y-93137479D01*
X136584033Y-93347394D01*
X136100361Y-93354992D01*
X136113585Y-93176429D01*
X136167450Y-92792909D01*
X136209188Y-92483135D01*
X136244431Y-92092920D01*
X136264106Y-91739374D01*
X136279658Y-91420491D01*
X136316719Y-91190161D01*
X136399227Y-91035038D01*
X136551119Y-90941770D01*
X136796338Y-90897010D01*
X137158819Y-90887407D01*
X137662503Y-90899613D01*
X137764133Y-90902904D01*
X138243705Y-90915559D01*
X138577110Y-90916033D01*
X138787173Y-90902881D01*
X138896720Y-90874654D01*
X138928578Y-90829906D01*
X138928581Y-90829082D01*
X138958019Y-90770463D01*
X138991647Y-90800969D01*
G36*
X139074196Y-87848264D02*
X139154984Y-87998194D01*
X139100063Y-88212371D01*
X139047492Y-88401272D01*
X139002147Y-88723987D01*
X138968211Y-89145025D01*
X138954467Y-89448018D01*
X138929481Y-89950737D01*
X138889230Y-90302165D01*
X138828448Y-90520049D01*
X138741865Y-90622136D01*
X138624215Y-90626172D01*
X138606467Y-90620457D01*
X138536291Y-90510924D01*
X138497984Y-90257295D01*
X138492827Y-90124332D01*
X138485624Y-89665777D01*
X137854159Y-89675697D01*
X137476085Y-89670416D01*
X137061926Y-89646655D01*
X136651260Y-89608877D01*
X136283664Y-89561551D01*
X135998714Y-89509141D01*
X135835988Y-89456114D01*
X135822228Y-89446405D01*
X135804400Y-89366543D01*
X135945600Y-89307000D01*
X136236609Y-89268961D01*
X136668207Y-89253606D01*
X137231174Y-89262124D01*
X137251475Y-89262812D01*
X137744408Y-89276710D01*
X138093021Y-89271245D01*
X138322149Y-89234853D01*
X138456625Y-89155975D01*
X138521285Y-89023051D01*
X138540962Y-88824519D01*
X138541455Y-88662298D01*
X138568388Y-88265234D01*
X138650622Y-87976594D01*
X138779712Y-87819276D01*
X138860620Y-87796990D01*
X139074196Y-87848264D01*
X139074196Y-87848264D01*
G37*
X139074196Y-87848264D02*
X139154984Y-87998194D01*
X139100063Y-88212371D01*
X139047492Y-88401272D01*
X139002147Y-88723987D01*
X138968211Y-89145025D01*
X138954467Y-89448018D01*
X138929481Y-89950737D01*
X138889230Y-90302165D01*
X138828448Y-90520049D01*
X138741865Y-90622136D01*
X138624215Y-90626172D01*
X138606467Y-90620457D01*
X138536291Y-90510924D01*
X138497984Y-90257295D01*
X138492827Y-90124332D01*
X138485624Y-89665777D01*
X137854159Y-89675697D01*
X137476085Y-89670416D01*
X137061926Y-89646655D01*
X136651260Y-89608877D01*
X136283664Y-89561551D01*
X135998714Y-89509141D01*
X135835988Y-89456114D01*
X135822228Y-89446405D01*
X135804400Y-89366543D01*
X135945600Y-89307000D01*
X136236609Y-89268961D01*
X136668207Y-89253606D01*
X137231174Y-89262124D01*
X137251475Y-89262812D01*
X137744408Y-89276710D01*
X138093021Y-89271245D01*
X138322149Y-89234853D01*
X138456625Y-89155975D01*
X138521285Y-89023051D01*
X138540962Y-88824519D01*
X138541455Y-88662298D01*
X138568388Y-88265234D01*
X138650622Y-87976594D01*
X138779712Y-87819276D01*
X138860620Y-87796990D01*
X139074196Y-87848264D01*
G36*
X140187904Y-87889254D02*
X140262557Y-87956703D01*
X140306592Y-88113756D01*
X140327439Y-88393915D01*
X140330731Y-88533332D01*
X140340081Y-89128583D01*
X140615335Y-89132024D01*
X141248045Y-89144849D01*
X141831726Y-89166028D01*
X142343391Y-89193981D01*
X142760057Y-89227126D01*
X143058735Y-89263884D01*
X143216441Y-89302673D01*
X143230511Y-89311865D01*
X143291342Y-89466026D01*
X143279054Y-89550026D01*
X143232043Y-89618461D01*
X143130279Y-89656277D01*
X142939074Y-89668080D01*
X142623739Y-89658477D01*
X142507326Y-89652519D01*
X142044394Y-89627699D01*
X141525399Y-89599874D01*
X141066854Y-89575288D01*
X140346492Y-89536664D01*
X140353926Y-90009873D01*
X140352867Y-90279328D01*
X140326956Y-90421006D01*
X140258450Y-90476313D01*
X140149719Y-90486407D01*
X140030050Y-90476365D01*
X139964600Y-90414590D01*
X139934331Y-90260826D01*
X139921176Y-90003103D01*
X139903312Y-89331497D01*
X139899814Y-88774449D01*
X139910343Y-88345435D01*
X139934563Y-88057932D01*
X139972135Y-87925417D01*
X139973348Y-87924095D01*
X140113964Y-87876155D01*
X140187904Y-87889254D01*
X140187904Y-87889254D01*
G37*
X140187904Y-87889254D02*
X140262557Y-87956703D01*
X140306592Y-88113756D01*
X140327439Y-88393915D01*
X140330731Y-88533332D01*
X140340081Y-89128583D01*
X140615335Y-89132024D01*
X141248045Y-89144849D01*
X141831726Y-89166028D01*
X142343391Y-89193981D01*
X142760057Y-89227126D01*
X143058735Y-89263884D01*
X143216441Y-89302673D01*
X143230511Y-89311865D01*
X143291342Y-89466026D01*
X143279054Y-89550026D01*
X143232043Y-89618461D01*
X143130279Y-89656277D01*
X142939074Y-89668080D01*
X142623739Y-89658477D01*
X142507326Y-89652519D01*
X142044394Y-89627699D01*
X141525399Y-89599874D01*
X141066854Y-89575288D01*
X140346492Y-89536664D01*
X140353926Y-90009873D01*
X140352867Y-90279328D01*
X140326956Y-90421006D01*
X140258450Y-90476313D01*
X140149719Y-90486407D01*
X140030050Y-90476365D01*
X139964600Y-90414590D01*
X139934331Y-90260826D01*
X139921176Y-90003103D01*
X139903312Y-89331497D01*
X139899814Y-88774449D01*
X139910343Y-88345435D01*
X139934563Y-88057932D01*
X139972135Y-87925417D01*
X139973348Y-87924095D01*
X140113964Y-87876155D01*
X140187904Y-87889254D01*
G36*
X134074399Y-83765338D02*
X134032736Y-83808331D01*
X133989743Y-83766668D01*
X134031407Y-83723675D01*
X134074399Y-83765338D01*
X134074399Y-83765338D01*
G37*
X134074399Y-83765338D02*
X134032736Y-83808331D01*
X133989743Y-83766668D01*
X134031407Y-83723675D01*
X134074399Y-83765338D01*
G36*
X141775456Y-83475006D02*
X141733792Y-83517999D01*
X141690799Y-83476336D01*
X141732462Y-83433342D01*
X141775456Y-83475006D01*
X141775456Y-83475006D01*
G37*
X141775456Y-83475006D02*
X141733792Y-83517999D01*
X141690799Y-83476336D01*
X141732462Y-83433342D01*
X141775456Y-83475006D01*
G36*
X160381206Y-81997244D02*
X160339543Y-82040237D01*
X160296550Y-81998573D01*
X160338213Y-81955581D01*
X160381206Y-81997244D01*
X160381206Y-81997244D01*
G37*
X160381206Y-81997244D02*
X160339543Y-82040237D01*
X160296550Y-81998573D01*
X160338213Y-81955581D01*
X160381206Y-81997244D01*
G36*
X161588002Y-78681759D02*
X161703629Y-78788745D01*
X161722870Y-78904050D01*
X161708231Y-78926219D01*
X161733974Y-78955864D01*
X161879210Y-78936895D01*
X161899581Y-78932044D01*
X162238218Y-78873611D01*
X162461768Y-78901375D01*
X162591044Y-79002212D01*
X162751287Y-79106564D01*
X162999905Y-79171386D01*
X163262747Y-79186976D01*
X163465663Y-79143627D01*
X163499874Y-79121148D01*
X163672418Y-79054131D01*
X163818227Y-79128858D01*
X163893561Y-79318593D01*
X163896269Y-79363434D01*
X163926330Y-79555115D01*
X163985517Y-79654340D01*
X164059791Y-79636559D01*
X164069128Y-79586472D01*
X164125087Y-79443398D01*
X164234166Y-79311727D01*
X164367531Y-79207806D01*
X164470020Y-79223311D01*
X164558087Y-79293513D01*
X164705445Y-79399401D01*
X164786426Y-79430067D01*
X164900885Y-79479428D01*
X164999890Y-79553576D01*
X165070140Y-79631425D01*
X165093214Y-79730341D01*
X165066627Y-79893033D01*
X164987899Y-80162211D01*
X164959254Y-80252801D01*
X164842495Y-80579419D01*
X164738288Y-80768868D01*
X164629219Y-80850639D01*
X164602371Y-80857189D01*
X164462643Y-80913411D01*
X164429503Y-80965750D01*
X164362430Y-81037737D01*
X164310268Y-81046411D01*
X164179780Y-81104552D01*
X163999800Y-81247576D01*
X163939817Y-81306262D01*
X163762639Y-81467186D01*
X163621266Y-81558252D01*
X163591316Y-81565768D01*
X163495231Y-81496241D01*
X163397331Y-81325719D01*
X163392943Y-81314853D01*
X163305725Y-81141014D01*
X163230375Y-81063684D01*
X163226994Y-81063429D01*
X163166932Y-80995673D01*
X163158936Y-80939599D01*
X163115532Y-80859039D01*
X162964757Y-80858009D01*
X162891139Y-80872255D01*
X162643235Y-80881843D01*
X162530319Y-80812299D01*
X162372749Y-80735956D01*
X162054267Y-80694130D01*
X161838793Y-80686482D01*
X161519398Y-80687482D01*
X161321739Y-80710075D01*
X161198445Y-80767042D01*
X161102151Y-80871170D01*
X161089185Y-80888781D01*
X160918408Y-81045423D01*
X160737800Y-81099616D01*
X160599412Y-81040863D01*
X160571210Y-80993250D01*
X160581247Y-80868460D01*
X160646668Y-80631925D01*
X160754743Y-80326933D01*
X160802605Y-80206353D01*
X160947266Y-79827162D01*
X161077321Y-79442413D01*
X161168027Y-79126092D01*
X161177733Y-79084540D01*
X161256633Y-78804934D01*
X161344426Y-78665712D01*
X161427285Y-78636065D01*
X161588002Y-78681759D01*
X161588002Y-78681759D01*
G37*
X161588002Y-78681759D02*
X161703629Y-78788745D01*
X161722870Y-78904050D01*
X161708231Y-78926219D01*
X161733974Y-78955864D01*
X161879210Y-78936895D01*
X161899581Y-78932044D01*
X162238218Y-78873611D01*
X162461768Y-78901375D01*
X162591044Y-79002212D01*
X162751287Y-79106564D01*
X162999905Y-79171386D01*
X163262747Y-79186976D01*
X163465663Y-79143627D01*
X163499874Y-79121148D01*
X163672418Y-79054131D01*
X163818227Y-79128858D01*
X163893561Y-79318593D01*
X163896269Y-79363434D01*
X163926330Y-79555115D01*
X163985517Y-79654340D01*
X164059791Y-79636559D01*
X164069128Y-79586472D01*
X164125087Y-79443398D01*
X164234166Y-79311727D01*
X164367531Y-79207806D01*
X164470020Y-79223311D01*
X164558087Y-79293513D01*
X164705445Y-79399401D01*
X164786426Y-79430067D01*
X164900885Y-79479428D01*
X164999890Y-79553576D01*
X165070140Y-79631425D01*
X165093214Y-79730341D01*
X165066627Y-79893033D01*
X164987899Y-80162211D01*
X164959254Y-80252801D01*
X164842495Y-80579419D01*
X164738288Y-80768868D01*
X164629219Y-80850639D01*
X164602371Y-80857189D01*
X164462643Y-80913411D01*
X164429503Y-80965750D01*
X164362430Y-81037737D01*
X164310268Y-81046411D01*
X164179780Y-81104552D01*
X163999800Y-81247576D01*
X163939817Y-81306262D01*
X163762639Y-81467186D01*
X163621266Y-81558252D01*
X163591316Y-81565768D01*
X163495231Y-81496241D01*
X163397331Y-81325719D01*
X163392943Y-81314853D01*
X163305725Y-81141014D01*
X163230375Y-81063684D01*
X163226994Y-81063429D01*
X163166932Y-80995673D01*
X163158936Y-80939599D01*
X163115532Y-80859039D01*
X162964757Y-80858009D01*
X162891139Y-80872255D01*
X162643235Y-80881843D01*
X162530319Y-80812299D01*
X162372749Y-80735956D01*
X162054267Y-80694130D01*
X161838793Y-80686482D01*
X161519398Y-80687482D01*
X161321739Y-80710075D01*
X161198445Y-80767042D01*
X161102151Y-80871170D01*
X161089185Y-80888781D01*
X160918408Y-81045423D01*
X160737800Y-81099616D01*
X160599412Y-81040863D01*
X160571210Y-80993250D01*
X160581247Y-80868460D01*
X160646668Y-80631925D01*
X160754743Y-80326933D01*
X160802605Y-80206353D01*
X160947266Y-79827162D01*
X161077321Y-79442413D01*
X161168027Y-79126092D01*
X161177733Y-79084540D01*
X161256633Y-78804934D01*
X161344426Y-78665712D01*
X161427285Y-78636065D01*
X161588002Y-78681759D01*
G36*
X142967007Y-79765315D02*
X143435081Y-79880469D01*
X143820102Y-80053188D01*
X144090113Y-80276775D01*
X144177589Y-80418004D01*
X144244363Y-80659414D01*
X144245919Y-80872532D01*
X144245792Y-80873072D01*
X144129872Y-81063288D01*
X143893098Y-81265361D01*
X143578997Y-81450481D01*
X143231093Y-81589833D01*
X143116103Y-81620907D01*
X142748687Y-81694108D01*
X142383336Y-81745474D01*
X142060445Y-81771782D01*
X141820410Y-81769812D01*
X141703624Y-81736339D01*
X141701716Y-81733737D01*
X141591632Y-81693059D01*
X141453329Y-81708914D01*
X141151836Y-81708007D01*
X140861040Y-81562947D01*
X140617324Y-81296958D01*
X140518582Y-81112336D01*
X140422555Y-80873525D01*
X140419218Y-80855033D01*
X141821397Y-80833006D01*
X141908078Y-81026189D01*
X141927227Y-81046028D01*
X142110845Y-81121751D01*
X142332842Y-81092828D01*
X142510720Y-80973198D01*
X142531154Y-80943990D01*
X142567304Y-80749137D01*
X142467952Y-80577192D01*
X142264536Y-80479414D01*
X142244271Y-80476273D01*
X142016560Y-80509405D01*
X141866580Y-80644530D01*
X141821397Y-80833006D01*
X140419218Y-80855033D01*
X140394420Y-80717656D01*
X140432303Y-80573374D01*
X140500770Y-80433977D01*
X140622131Y-80220249D01*
X140747032Y-80078570D01*
X140921352Y-79977686D01*
X141190969Y-79886336D01*
X141383981Y-79832249D01*
X141909503Y-79734505D01*
X142447830Y-79714427D01*
X142967007Y-79765315D01*
X142967007Y-79765315D01*
G37*
X142967007Y-79765315D02*
X143435081Y-79880469D01*
X143820102Y-80053188D01*
X144090113Y-80276775D01*
X144177589Y-80418004D01*
X144244363Y-80659414D01*
X144245919Y-80872532D01*
X144245792Y-80873072D01*
X144129872Y-81063288D01*
X143893098Y-81265361D01*
X143578997Y-81450481D01*
X143231093Y-81589833D01*
X143116103Y-81620907D01*
X142748687Y-81694108D01*
X142383336Y-81745474D01*
X142060445Y-81771782D01*
X141820410Y-81769812D01*
X141703624Y-81736339D01*
X141701716Y-81733737D01*
X141591632Y-81693059D01*
X141453329Y-81708914D01*
X141151836Y-81708007D01*
X140861040Y-81562947D01*
X140617324Y-81296958D01*
X140518582Y-81112336D01*
X140422555Y-80873525D01*
X140419218Y-80855033D01*
X141821397Y-80833006D01*
X141908078Y-81026189D01*
X141927227Y-81046028D01*
X142110845Y-81121751D01*
X142332842Y-81092828D01*
X142510720Y-80973198D01*
X142531154Y-80943990D01*
X142567304Y-80749137D01*
X142467952Y-80577192D01*
X142264536Y-80479414D01*
X142244271Y-80476273D01*
X142016560Y-80509405D01*
X141866580Y-80644530D01*
X141821397Y-80833006D01*
X140419218Y-80855033D01*
X140394420Y-80717656D01*
X140432303Y-80573374D01*
X140500770Y-80433977D01*
X140622131Y-80220249D01*
X140747032Y-80078570D01*
X140921352Y-79977686D01*
X141190969Y-79886336D01*
X141383981Y-79832249D01*
X141909503Y-79734505D01*
X142447830Y-79714427D01*
X142967007Y-79765315D01*
G36*
X137126031Y-79852439D02*
X137574695Y-79882859D01*
X137923026Y-79944515D01*
X137993350Y-79966729D01*
X138340723Y-80132903D01*
X138622917Y-80342928D01*
X138804428Y-80565425D01*
X138853258Y-80726567D01*
X138780897Y-80939960D01*
X138581134Y-81167810D01*
X138289151Y-81377238D01*
X138017556Y-81507601D01*
X137728583Y-81584104D01*
X137326504Y-81646280D01*
X136867242Y-81690011D01*
X136406718Y-81711173D01*
X136000851Y-81705648D01*
X135735116Y-81675801D01*
X135360451Y-81559125D01*
X135017487Y-81379173D01*
X134742765Y-81162800D01*
X134572825Y-80936858D01*
X134535791Y-80794391D01*
X136144259Y-80769123D01*
X136218302Y-80943390D01*
X136388233Y-81088481D01*
X136573524Y-81143427D01*
X136758910Y-81083245D01*
X136861685Y-81005836D01*
X136967176Y-80848260D01*
X136990821Y-80755825D01*
X136916777Y-80581557D01*
X136746846Y-80436466D01*
X136561555Y-80381521D01*
X136367688Y-80448741D01*
X136205921Y-80602169D01*
X136144259Y-80769123D01*
X134535791Y-80794391D01*
X134607942Y-80581244D01*
X134806271Y-80354629D01*
X135094397Y-80148493D01*
X135364071Y-80021526D01*
X135696054Y-79937798D01*
X136134909Y-79880989D01*
X136628835Y-79852176D01*
X137126031Y-79852439D01*
X137126031Y-79852439D01*
G37*
X137126031Y-79852439D02*
X137574695Y-79882859D01*
X137923026Y-79944515D01*
X137993350Y-79966729D01*
X138340723Y-80132903D01*
X138622917Y-80342928D01*
X138804428Y-80565425D01*
X138853258Y-80726567D01*
X138780897Y-80939960D01*
X138581134Y-81167810D01*
X138289151Y-81377238D01*
X138017556Y-81507601D01*
X137728583Y-81584104D01*
X137326504Y-81646280D01*
X136867242Y-81690011D01*
X136406718Y-81711173D01*
X136000851Y-81705648D01*
X135735116Y-81675801D01*
X135360451Y-81559125D01*
X135017487Y-81379173D01*
X134742765Y-81162800D01*
X134572825Y-80936858D01*
X134535791Y-80794391D01*
X136144259Y-80769123D01*
X136218302Y-80943390D01*
X136388233Y-81088481D01*
X136573524Y-81143427D01*
X136758910Y-81083245D01*
X136861685Y-81005836D01*
X136967176Y-80848260D01*
X136990821Y-80755825D01*
X136916777Y-80581557D01*
X136746846Y-80436466D01*
X136561555Y-80381521D01*
X136367688Y-80448741D01*
X136205921Y-80602169D01*
X136144259Y-80769123D01*
X134535791Y-80794391D01*
X134607942Y-80581244D01*
X134806271Y-80354629D01*
X135094397Y-80148493D01*
X135364071Y-80021526D01*
X135696054Y-79937798D01*
X136134909Y-79880989D01*
X136628835Y-79852176D01*
X137126031Y-79852439D01*
G36*
X156369380Y-77666354D02*
X156474150Y-77756469D01*
X156495369Y-77946711D01*
X156490555Y-78005935D01*
X156496388Y-78220461D01*
X156564768Y-78289066D01*
X156683412Y-78220324D01*
X156699043Y-78188247D01*
X156791040Y-78107116D01*
X156993519Y-78005479D01*
X157161301Y-77941041D01*
X157479424Y-77860546D01*
X157705671Y-77861533D01*
X157817650Y-77940270D01*
X157812648Y-78049562D01*
X157847948Y-78149334D01*
X158003555Y-78217486D01*
X158231588Y-78242009D01*
X158469822Y-78214398D01*
X158660512Y-78197655D01*
X158758140Y-78280044D01*
X158771837Y-78311159D01*
X158855037Y-78462940D01*
X158901309Y-78511010D01*
X159041836Y-78539302D01*
X159284509Y-78537157D01*
X159565673Y-78508561D01*
X159821677Y-78457504D01*
X159840514Y-78452175D01*
X160030448Y-78429998D01*
X160198073Y-78512113D01*
X160300586Y-78603366D01*
X160425626Y-78734592D01*
X160482737Y-78851959D01*
X160482434Y-79013440D01*
X160435229Y-79277013D01*
X160428662Y-79309595D01*
X160356175Y-79674511D01*
X160282476Y-80054631D01*
X160250949Y-80221070D01*
X160167274Y-80622031D01*
X160083740Y-80873441D01*
X159981218Y-80993988D01*
X159840580Y-81002353D01*
X159642697Y-80917220D01*
X159576181Y-80880177D01*
X159410077Y-80754540D01*
X159366952Y-80600768D01*
X159379511Y-80488000D01*
X159379532Y-80273305D01*
X159273086Y-80143031D01*
X159258678Y-80134006D01*
X159123010Y-80079161D01*
X159055016Y-80146276D01*
X159050024Y-80159244D01*
X158939276Y-80257463D01*
X158807391Y-80286087D01*
X158615251Y-80324119D01*
X158523967Y-80377992D01*
X158394648Y-80424096D01*
X158242234Y-80393716D01*
X158154849Y-80307471D01*
X158152800Y-80291147D01*
X158077877Y-80231207D01*
X157894848Y-80176064D01*
X157853307Y-80168248D01*
X157631605Y-80098611D01*
X157486011Y-79996367D01*
X157477558Y-79983791D01*
X157386684Y-79898125D01*
X157280841Y-79952713D01*
X157121083Y-80003825D01*
X156872978Y-79999491D01*
X156593501Y-79951477D01*
X156339628Y-79871553D01*
X156168334Y-79771488D01*
X156130739Y-79715140D01*
X156052226Y-79581668D01*
X155957932Y-79610531D01*
X155909046Y-79702478D01*
X155791937Y-79803635D01*
X155668846Y-79812047D01*
X155539823Y-79768972D01*
X155494374Y-79650044D01*
X155496972Y-79493732D01*
X155534500Y-79308523D01*
X155620146Y-79020940D01*
X155736971Y-78677196D01*
X155868043Y-78323507D01*
X155996427Y-78006082D01*
X156105189Y-77771137D01*
X156162083Y-77678707D01*
X156279138Y-77647445D01*
X156369380Y-77666354D01*
X156369380Y-77666354D01*
G37*
X156369380Y-77666354D02*
X156474150Y-77756469D01*
X156495369Y-77946711D01*
X156490555Y-78005935D01*
X156496388Y-78220461D01*
X156564768Y-78289066D01*
X156683412Y-78220324D01*
X156699043Y-78188247D01*
X156791040Y-78107116D01*
X156993519Y-78005479D01*
X157161301Y-77941041D01*
X157479424Y-77860546D01*
X157705671Y-77861533D01*
X157817650Y-77940270D01*
X157812648Y-78049562D01*
X157847948Y-78149334D01*
X158003555Y-78217486D01*
X158231588Y-78242009D01*
X158469822Y-78214398D01*
X158660512Y-78197655D01*
X158758140Y-78280044D01*
X158771837Y-78311159D01*
X158855037Y-78462940D01*
X158901309Y-78511010D01*
X159041836Y-78539302D01*
X159284509Y-78537157D01*
X159565673Y-78508561D01*
X159821677Y-78457504D01*
X159840514Y-78452175D01*
X160030448Y-78429998D01*
X160198073Y-78512113D01*
X160300586Y-78603366D01*
X160425626Y-78734592D01*
X160482737Y-78851959D01*
X160482434Y-79013440D01*
X160435229Y-79277013D01*
X160428662Y-79309595D01*
X160356175Y-79674511D01*
X160282476Y-80054631D01*
X160250949Y-80221070D01*
X160167274Y-80622031D01*
X160083740Y-80873441D01*
X159981218Y-80993988D01*
X159840580Y-81002353D01*
X159642697Y-80917220D01*
X159576181Y-80880177D01*
X159410077Y-80754540D01*
X159366952Y-80600768D01*
X159379511Y-80488000D01*
X159379532Y-80273305D01*
X159273086Y-80143031D01*
X159258678Y-80134006D01*
X159123010Y-80079161D01*
X159055016Y-80146276D01*
X159050024Y-80159244D01*
X158939276Y-80257463D01*
X158807391Y-80286087D01*
X158615251Y-80324119D01*
X158523967Y-80377992D01*
X158394648Y-80424096D01*
X158242234Y-80393716D01*
X158154849Y-80307471D01*
X158152800Y-80291147D01*
X158077877Y-80231207D01*
X157894848Y-80176064D01*
X157853307Y-80168248D01*
X157631605Y-80098611D01*
X157486011Y-79996367D01*
X157477558Y-79983791D01*
X157386684Y-79898125D01*
X157280841Y-79952713D01*
X157121083Y-80003825D01*
X156872978Y-79999491D01*
X156593501Y-79951477D01*
X156339628Y-79871553D01*
X156168334Y-79771488D01*
X156130739Y-79715140D01*
X156052226Y-79581668D01*
X155957932Y-79610531D01*
X155909046Y-79702478D01*
X155791937Y-79803635D01*
X155668846Y-79812047D01*
X155539823Y-79768972D01*
X155494374Y-79650044D01*
X155496972Y-79493732D01*
X155534500Y-79308523D01*
X155620146Y-79020940D01*
X155736971Y-78677196D01*
X155868043Y-78323507D01*
X155996427Y-78006082D01*
X156105189Y-77771137D01*
X156162083Y-77678707D01*
X156279138Y-77647445D01*
X156369380Y-77666354D01*
G36*
X123642681Y-75912827D02*
X123707112Y-76040203D01*
X123769317Y-76190036D01*
X123837626Y-76262872D01*
X123937334Y-76422113D01*
X123969780Y-76589956D01*
X124013448Y-76813752D01*
X124115975Y-77070421D01*
X124134930Y-77106226D01*
X124248012Y-77349469D01*
X124353576Y-77640522D01*
X124438122Y-77931417D01*
X124488157Y-78174190D01*
X124490180Y-78320874D01*
X124481316Y-78337211D01*
X124368494Y-78383542D01*
X124159199Y-78426461D01*
X124109204Y-78433363D01*
X123849553Y-78434186D01*
X123696604Y-78347165D01*
X123686178Y-78334150D01*
X123634112Y-78275946D01*
X123568707Y-78251099D01*
X123462733Y-78267971D01*
X123288958Y-78334924D01*
X123020151Y-78460322D01*
X122629080Y-78652529D01*
X122595818Y-78669001D01*
X122383617Y-78707117D01*
X122232994Y-78645905D01*
X122083739Y-78578629D01*
X121996111Y-78623101D01*
X121968811Y-78663188D01*
X121893953Y-78840349D01*
X121946699Y-78915145D01*
X121974087Y-78917136D01*
X122052790Y-78971723D01*
X122044263Y-79088577D01*
X121958630Y-79191417D01*
X121936230Y-79202384D01*
X121717813Y-79214979D01*
X121552277Y-79080459D01*
X121497742Y-78952568D01*
X121413492Y-78801565D01*
X121319724Y-78795350D01*
X121162779Y-78840981D01*
X121120270Y-78845873D01*
X121068594Y-78917106D01*
X121066547Y-79027905D01*
X121035141Y-79179966D01*
X120871293Y-79284032D01*
X120836907Y-79296593D01*
X120611317Y-79397865D01*
X120452427Y-79502491D01*
X120261213Y-79612460D01*
X120115374Y-79574427D01*
X120066253Y-79497509D01*
X119949271Y-79392829D01*
X119852617Y-79373849D01*
X119694844Y-79323037D01*
X119643011Y-79260214D01*
X119561618Y-79189001D01*
X119381008Y-79197919D01*
X119299555Y-79215866D01*
X119063383Y-79283056D01*
X118948330Y-79369224D01*
X118909687Y-79527611D01*
X118904477Y-79686318D01*
X118847164Y-79963475D01*
X118705432Y-80120275D01*
X118510455Y-80140571D01*
X118293401Y-80008215D01*
X118289847Y-80004696D01*
X118086249Y-79840750D01*
X117942691Y-79803571D01*
X117878704Y-79896098D01*
X117877553Y-79942661D01*
X117859787Y-80062794D01*
X117759962Y-80109810D01*
X117576217Y-80111624D01*
X117321339Y-80136842D01*
X117220746Y-80223055D01*
X117120355Y-80335800D01*
X117066821Y-80350523D01*
X116912950Y-80422732D01*
X116747992Y-80590240D01*
X116623107Y-80790867D01*
X116586442Y-80934406D01*
X116516275Y-81102394D01*
X116420689Y-81163643D01*
X116284890Y-81259871D01*
X116254126Y-81341320D01*
X116191632Y-81428270D01*
X115988041Y-81465585D01*
X115917406Y-81467919D01*
X115707862Y-81457202D01*
X115594693Y-81423964D01*
X115587809Y-81409589D01*
X115584594Y-81238117D01*
X115529924Y-81164036D01*
X115497640Y-81173043D01*
X115407815Y-81141759D01*
X115280624Y-81003303D01*
X115249550Y-80958379D01*
X115134362Y-80727231D01*
X115130513Y-80510232D01*
X115149140Y-80430826D01*
X115170213Y-80222669D01*
X115142020Y-80004321D01*
X115079339Y-79827140D01*
X114996951Y-79742481D01*
X114953402Y-79750629D01*
X114863937Y-79727226D01*
X114774504Y-79588058D01*
X114711414Y-79384647D01*
X114697065Y-79248713D01*
X114752696Y-79020217D01*
X114851168Y-78868963D01*
X114976612Y-78769206D01*
X115123262Y-78747921D01*
X115354063Y-78792820D01*
X115679962Y-78824481D01*
X115937532Y-78754731D01*
X116093306Y-78598325D01*
X116095903Y-78586093D01*
X117663338Y-78561470D01*
X117678529Y-78681441D01*
X117707699Y-78666619D01*
X117716158Y-78493123D01*
X117704374Y-78454979D01*
X117673309Y-78444829D01*
X117663338Y-78561470D01*
X116095903Y-78586093D01*
X116124081Y-78453385D01*
X116184468Y-78274318D01*
X116331448Y-78192990D01*
X116503530Y-78242496D01*
X116508547Y-78246437D01*
X116694387Y-78297145D01*
X116741722Y-78279578D01*
X117560660Y-78266713D01*
X117603653Y-78308376D01*
X117645316Y-78265383D01*
X117602323Y-78223720D01*
X117560660Y-78266713D01*
X116741722Y-78279578D01*
X116917540Y-78214331D01*
X117091225Y-78062958D01*
X117243452Y-77949061D01*
X117388015Y-77973757D01*
X117517588Y-78000354D01*
X117576948Y-77894591D01*
X117682923Y-77766765D01*
X117937094Y-77669244D01*
X118296306Y-77604552D01*
X118408325Y-77525005D01*
X118524894Y-77353135D01*
X118527317Y-77348304D01*
X118666208Y-77163719D01*
X118812320Y-77110327D01*
X118928878Y-77196648D01*
X118952195Y-77249897D01*
X119030273Y-77453268D01*
X119078920Y-77565445D01*
X119141489Y-77768507D01*
X119184142Y-78021643D01*
X119184276Y-78022994D01*
X119236986Y-78266503D01*
X119312732Y-78352122D01*
X119382886Y-78283221D01*
X119418816Y-78063166D01*
X119419293Y-77995342D01*
X119436652Y-77723153D01*
X119513637Y-77555081D01*
X119599352Y-77477393D01*
X119815929Y-77365331D01*
X119991599Y-77351923D01*
X120083605Y-77437397D01*
X120088533Y-77474783D01*
X120130263Y-77567828D01*
X120274702Y-77550875D01*
X120280224Y-77549070D01*
X120536839Y-77487725D01*
X120882005Y-77433431D01*
X121234983Y-77397152D01*
X121463179Y-77388410D01*
X121637138Y-77355914D01*
X121694386Y-77283102D01*
X121768987Y-77064002D01*
X121982022Y-76900887D01*
X122273281Y-76819602D01*
X122537705Y-76753663D01*
X122748882Y-76648288D01*
X122787342Y-76615437D01*
X122993898Y-76500190D01*
X123122297Y-76503772D01*
X123245649Y-76515876D01*
X123279309Y-76437923D01*
X123260174Y-76287377D01*
X123263860Y-76042009D01*
X123331177Y-75926393D01*
X123492792Y-75865503D01*
X123642681Y-75912827D01*
X123642681Y-75912827D01*
G37*
X123642681Y-75912827D02*
X123707112Y-76040203D01*
X123769317Y-76190036D01*
X123837626Y-76262872D01*
X123937334Y-76422113D01*
X123969780Y-76589956D01*
X124013448Y-76813752D01*
X124115975Y-77070421D01*
X124134930Y-77106226D01*
X124248012Y-77349469D01*
X124353576Y-77640522D01*
X124438122Y-77931417D01*
X124488157Y-78174190D01*
X124490180Y-78320874D01*
X124481316Y-78337211D01*
X124368494Y-78383542D01*
X124159199Y-78426461D01*
X124109204Y-78433363D01*
X123849553Y-78434186D01*
X123696604Y-78347165D01*
X123686178Y-78334150D01*
X123634112Y-78275946D01*
X123568707Y-78251099D01*
X123462733Y-78267971D01*
X123288958Y-78334924D01*
X123020151Y-78460322D01*
X122629080Y-78652529D01*
X122595818Y-78669001D01*
X122383617Y-78707117D01*
X122232994Y-78645905D01*
X122083739Y-78578629D01*
X121996111Y-78623101D01*
X121968811Y-78663188D01*
X121893953Y-78840349D01*
X121946699Y-78915145D01*
X121974087Y-78917136D01*
X122052790Y-78971723D01*
X122044263Y-79088577D01*
X121958630Y-79191417D01*
X121936230Y-79202384D01*
X121717813Y-79214979D01*
X121552277Y-79080459D01*
X121497742Y-78952568D01*
X121413492Y-78801565D01*
X121319724Y-78795350D01*
X121162779Y-78840981D01*
X121120270Y-78845873D01*
X121068594Y-78917106D01*
X121066547Y-79027905D01*
X121035141Y-79179966D01*
X120871293Y-79284032D01*
X120836907Y-79296593D01*
X120611317Y-79397865D01*
X120452427Y-79502491D01*
X120261213Y-79612460D01*
X120115374Y-79574427D01*
X120066253Y-79497509D01*
X119949271Y-79392829D01*
X119852617Y-79373849D01*
X119694844Y-79323037D01*
X119643011Y-79260214D01*
X119561618Y-79189001D01*
X119381008Y-79197919D01*
X119299555Y-79215866D01*
X119063383Y-79283056D01*
X118948330Y-79369224D01*
X118909687Y-79527611D01*
X118904477Y-79686318D01*
X118847164Y-79963475D01*
X118705432Y-80120275D01*
X118510455Y-80140571D01*
X118293401Y-80008215D01*
X118289847Y-80004696D01*
X118086249Y-79840750D01*
X117942691Y-79803571D01*
X117878704Y-79896098D01*
X117877553Y-79942661D01*
X117859787Y-80062794D01*
X117759962Y-80109810D01*
X117576217Y-80111624D01*
X117321339Y-80136842D01*
X117220746Y-80223055D01*
X117120355Y-80335800D01*
X117066821Y-80350523D01*
X116912950Y-80422732D01*
X116747992Y-80590240D01*
X116623107Y-80790867D01*
X116586442Y-80934406D01*
X116516275Y-81102394D01*
X116420689Y-81163643D01*
X116284890Y-81259871D01*
X116254126Y-81341320D01*
X116191632Y-81428270D01*
X115988041Y-81465585D01*
X115917406Y-81467919D01*
X115707862Y-81457202D01*
X115594693Y-81423964D01*
X115587809Y-81409589D01*
X115584594Y-81238117D01*
X115529924Y-81164036D01*
X115497640Y-81173043D01*
X115407815Y-81141759D01*
X115280624Y-81003303D01*
X115249550Y-80958379D01*
X115134362Y-80727231D01*
X115130513Y-80510232D01*
X115149140Y-80430826D01*
X115170213Y-80222669D01*
X115142020Y-80004321D01*
X115079339Y-79827140D01*
X114996951Y-79742481D01*
X114953402Y-79750629D01*
X114863937Y-79727226D01*
X114774504Y-79588058D01*
X114711414Y-79384647D01*
X114697065Y-79248713D01*
X114752696Y-79020217D01*
X114851168Y-78868963D01*
X114976612Y-78769206D01*
X115123262Y-78747921D01*
X115354063Y-78792820D01*
X115679962Y-78824481D01*
X115937532Y-78754731D01*
X116093306Y-78598325D01*
X116095903Y-78586093D01*
X117663338Y-78561470D01*
X117678529Y-78681441D01*
X117707699Y-78666619D01*
X117716158Y-78493123D01*
X117704374Y-78454979D01*
X117673309Y-78444829D01*
X117663338Y-78561470D01*
X116095903Y-78586093D01*
X116124081Y-78453385D01*
X116184468Y-78274318D01*
X116331448Y-78192990D01*
X116503530Y-78242496D01*
X116508547Y-78246437D01*
X116694387Y-78297145D01*
X116741722Y-78279578D01*
X117560660Y-78266713D01*
X117603653Y-78308376D01*
X117645316Y-78265383D01*
X117602323Y-78223720D01*
X117560660Y-78266713D01*
X116741722Y-78279578D01*
X116917540Y-78214331D01*
X117091225Y-78062958D01*
X117243452Y-77949061D01*
X117388015Y-77973757D01*
X117517588Y-78000354D01*
X117576948Y-77894591D01*
X117682923Y-77766765D01*
X117937094Y-77669244D01*
X118296306Y-77604552D01*
X118408325Y-77525005D01*
X118524894Y-77353135D01*
X118527317Y-77348304D01*
X118666208Y-77163719D01*
X118812320Y-77110327D01*
X118928878Y-77196648D01*
X118952195Y-77249897D01*
X119030273Y-77453268D01*
X119078920Y-77565445D01*
X119141489Y-77768507D01*
X119184142Y-78021643D01*
X119184276Y-78022994D01*
X119236986Y-78266503D01*
X119312732Y-78352122D01*
X119382886Y-78283221D01*
X119418816Y-78063166D01*
X119419293Y-77995342D01*
X119436652Y-77723153D01*
X119513637Y-77555081D01*
X119599352Y-77477393D01*
X119815929Y-77365331D01*
X119991599Y-77351923D01*
X120083605Y-77437397D01*
X120088533Y-77474783D01*
X120130263Y-77567828D01*
X120274702Y-77550875D01*
X120280224Y-77549070D01*
X120536839Y-77487725D01*
X120882005Y-77433431D01*
X121234983Y-77397152D01*
X121463179Y-77388410D01*
X121637138Y-77355914D01*
X121694386Y-77283102D01*
X121768987Y-77064002D01*
X121982022Y-76900887D01*
X122273281Y-76819602D01*
X122537705Y-76753663D01*
X122748882Y-76648288D01*
X122787342Y-76615437D01*
X122993898Y-76500190D01*
X123122297Y-76503772D01*
X123245649Y-76515876D01*
X123279309Y-76437923D01*
X123260174Y-76287377D01*
X123263860Y-76042009D01*
X123331177Y-75926393D01*
X123492792Y-75865503D01*
X123642681Y-75912827D01*
G36*
X151047291Y-76319310D02*
X151063095Y-76375970D01*
X151136457Y-76461437D01*
X151303176Y-76521191D01*
X151487593Y-76539895D01*
X151614050Y-76502215D01*
X151624007Y-76489666D01*
X151747157Y-76411389D01*
X151897703Y-76436856D01*
X151992533Y-76545405D01*
X151997789Y-76582591D01*
X152049076Y-76719118D01*
X152118375Y-76750050D01*
X152250138Y-76816283D01*
X152287026Y-76874416D01*
X152401931Y-76985255D01*
X152467390Y-76998599D01*
X152582448Y-77041697D01*
X152598362Y-77081219D01*
X152672922Y-77139235D01*
X152851019Y-77161906D01*
X152856638Y-77161838D01*
X153118080Y-77202428D01*
X153316476Y-77286231D01*
X153490544Y-77362403D01*
X153575898Y-77319894D01*
X153673419Y-77279419D01*
X153838329Y-77355460D01*
X153982494Y-77421884D01*
X154042869Y-77400267D01*
X154042868Y-77399187D01*
X154098277Y-77317532D01*
X154235139Y-77332137D01*
X154403130Y-77432923D01*
X154455315Y-77481806D01*
X154600416Y-77588549D01*
X154676580Y-77563008D01*
X154812306Y-77479008D01*
X155014785Y-77484752D01*
X155211629Y-77573476D01*
X155260993Y-77617628D01*
X155382465Y-77860336D01*
X155388801Y-78210188D01*
X155279866Y-78674723D01*
X155240234Y-78793590D01*
X155106255Y-79146411D01*
X154993516Y-79355338D01*
X154884663Y-79441352D01*
X154762346Y-79425434D01*
X154730699Y-79409679D01*
X154604521Y-79268643D01*
X154578714Y-79167826D01*
X154537543Y-78998108D01*
X154430012Y-78979753D01*
X154268547Y-79114237D01*
X154255530Y-79129433D01*
X154109491Y-79269323D01*
X153961416Y-79290244D01*
X153821313Y-79252097D01*
X153616335Y-79134101D01*
X153560037Y-79005401D01*
X153493566Y-78870308D01*
X153393191Y-78846952D01*
X153235487Y-78817644D01*
X153184594Y-78780339D01*
X153081830Y-78746792D01*
X152867705Y-78736954D01*
X152710157Y-78744178D01*
X152428555Y-78750508D01*
X152276723Y-78710072D01*
X152229787Y-78652259D01*
X152124154Y-78538909D01*
X151989316Y-78564285D01*
X151873273Y-78716402D01*
X151862389Y-78743984D01*
X151741317Y-78920996D01*
X151569774Y-78938490D01*
X151356472Y-78795603D01*
X151355116Y-78794291D01*
X151188258Y-78671523D01*
X151063214Y-78629523D01*
X150936047Y-78591738D01*
X150914019Y-78565223D01*
X150834853Y-78479277D01*
X150664906Y-78332697D01*
X150541474Y-78234869D01*
X150274543Y-78062118D01*
X150072613Y-78013190D01*
X150008470Y-78023509D01*
X149814147Y-78020822D01*
X149640917Y-77936313D01*
X149561484Y-77806150D01*
X149561294Y-77801038D01*
X149609010Y-77699475D01*
X149735330Y-77502938D01*
X149913042Y-77248659D01*
X150114935Y-76973863D01*
X150231935Y-76822023D01*
X150815927Y-76812849D01*
X150858919Y-76854513D01*
X150900582Y-76811519D01*
X150857590Y-76769856D01*
X150815927Y-76812849D01*
X150231935Y-76822023D01*
X150313799Y-76715782D01*
X150482423Y-76511643D01*
X150574778Y-76414422D01*
X150759812Y-76298570D01*
X150935079Y-76265468D01*
X151047291Y-76319310D01*
X151047291Y-76319310D01*
G37*
X151047291Y-76319310D02*
X151063095Y-76375970D01*
X151136457Y-76461437D01*
X151303176Y-76521191D01*
X151487593Y-76539895D01*
X151614050Y-76502215D01*
X151624007Y-76489666D01*
X151747157Y-76411389D01*
X151897703Y-76436856D01*
X151992533Y-76545405D01*
X151997789Y-76582591D01*
X152049076Y-76719118D01*
X152118375Y-76750050D01*
X152250138Y-76816283D01*
X152287026Y-76874416D01*
X152401931Y-76985255D01*
X152467390Y-76998599D01*
X152582448Y-77041697D01*
X152598362Y-77081219D01*
X152672922Y-77139235D01*
X152851019Y-77161906D01*
X152856638Y-77161838D01*
X153118080Y-77202428D01*
X153316476Y-77286231D01*
X153490544Y-77362403D01*
X153575898Y-77319894D01*
X153673419Y-77279419D01*
X153838329Y-77355460D01*
X153982494Y-77421884D01*
X154042869Y-77400267D01*
X154042868Y-77399187D01*
X154098277Y-77317532D01*
X154235139Y-77332137D01*
X154403130Y-77432923D01*
X154455315Y-77481806D01*
X154600416Y-77588549D01*
X154676580Y-77563008D01*
X154812306Y-77479008D01*
X155014785Y-77484752D01*
X155211629Y-77573476D01*
X155260993Y-77617628D01*
X155382465Y-77860336D01*
X155388801Y-78210188D01*
X155279866Y-78674723D01*
X155240234Y-78793590D01*
X155106255Y-79146411D01*
X154993516Y-79355338D01*
X154884663Y-79441352D01*
X154762346Y-79425434D01*
X154730699Y-79409679D01*
X154604521Y-79268643D01*
X154578714Y-79167826D01*
X154537543Y-78998108D01*
X154430012Y-78979753D01*
X154268547Y-79114237D01*
X154255530Y-79129433D01*
X154109491Y-79269323D01*
X153961416Y-79290244D01*
X153821313Y-79252097D01*
X153616335Y-79134101D01*
X153560037Y-79005401D01*
X153493566Y-78870308D01*
X153393191Y-78846952D01*
X153235487Y-78817644D01*
X153184594Y-78780339D01*
X153081830Y-78746792D01*
X152867705Y-78736954D01*
X152710157Y-78744178D01*
X152428555Y-78750508D01*
X152276723Y-78710072D01*
X152229787Y-78652259D01*
X152124154Y-78538909D01*
X151989316Y-78564285D01*
X151873273Y-78716402D01*
X151862389Y-78743984D01*
X151741317Y-78920996D01*
X151569774Y-78938490D01*
X151356472Y-78795603D01*
X151355116Y-78794291D01*
X151188258Y-78671523D01*
X151063214Y-78629523D01*
X150936047Y-78591738D01*
X150914019Y-78565223D01*
X150834853Y-78479277D01*
X150664906Y-78332697D01*
X150541474Y-78234869D01*
X150274543Y-78062118D01*
X150072613Y-78013190D01*
X150008470Y-78023509D01*
X149814147Y-78020822D01*
X149640917Y-77936313D01*
X149561484Y-77806150D01*
X149561294Y-77801038D01*
X149609010Y-77699475D01*
X149735330Y-77502938D01*
X149913042Y-77248659D01*
X150114935Y-76973863D01*
X150231935Y-76822023D01*
X150815927Y-76812849D01*
X150858919Y-76854513D01*
X150900582Y-76811519D01*
X150857590Y-76769856D01*
X150815927Y-76812849D01*
X150231935Y-76822023D01*
X150313799Y-76715782D01*
X150482423Y-76511643D01*
X150574778Y-76414422D01*
X150759812Y-76298570D01*
X150935079Y-76265468D01*
X151047291Y-76319310D01*
G36*
X128992516Y-74868794D02*
X129107339Y-74955779D01*
X129232509Y-74943673D01*
X129336353Y-74932324D01*
X129415593Y-74985257D01*
X129492645Y-75133646D01*
X129589924Y-75408664D01*
X129609218Y-75467589D01*
X129743952Y-75955752D01*
X129785707Y-76314620D01*
X129734940Y-76556119D01*
X129654738Y-76654094D01*
X129434212Y-76756561D01*
X129239497Y-76723986D01*
X129150792Y-76632669D01*
X129030967Y-76535685D01*
X128851111Y-76488109D01*
X128669133Y-76490585D01*
X128542937Y-76543756D01*
X128521711Y-76625679D01*
X128488045Y-76755483D01*
X128344423Y-76835871D01*
X128148691Y-76840133D01*
X128092225Y-76823974D01*
X127974615Y-76829243D01*
X127954473Y-76899835D01*
X127888355Y-77036518D01*
X127736536Y-77097361D01*
X127576561Y-77051523D01*
X127575404Y-77050601D01*
X127481129Y-77025184D01*
X127423202Y-77147813D01*
X127374083Y-77262623D01*
X127269175Y-77302256D01*
X127055794Y-77284834D01*
X127033916Y-77281728D01*
X126814757Y-77259540D01*
X126715958Y-77288602D01*
X126692178Y-77385297D01*
X126692254Y-77405164D01*
X126631201Y-77568314D01*
X126547567Y-77627808D01*
X126352030Y-77706019D01*
X126213981Y-77770171D01*
X126020790Y-77817805D01*
X125905322Y-77764418D01*
X125778259Y-77714073D01*
X125654980Y-77797925D01*
X125504742Y-77878555D01*
X125284016Y-77926638D01*
X125063073Y-77934952D01*
X124912182Y-77896270D01*
X124892249Y-77876338D01*
X124850097Y-77752343D01*
X124794214Y-77516760D01*
X124735488Y-77225533D01*
X124684807Y-76934609D01*
X124653060Y-76699932D01*
X124647663Y-76619604D01*
X124719733Y-76463907D01*
X124903725Y-76309441D01*
X125144386Y-76184392D01*
X125386464Y-76116946D01*
X125574705Y-76135289D01*
X125585543Y-76141164D01*
X125734235Y-76159163D01*
X125855353Y-76077843D01*
X125889133Y-75947985D01*
X125869098Y-75900208D01*
X125878160Y-75799873D01*
X125988417Y-75720707D01*
X126132084Y-75694842D01*
X126223567Y-75732179D01*
X126328118Y-75754251D01*
X126479107Y-75639456D01*
X126524322Y-75590984D01*
X126711118Y-75429765D01*
X126923111Y-75378055D01*
X127056305Y-75381215D01*
X127294731Y-75424094D01*
X127443202Y-75544138D01*
X127522879Y-75676852D01*
X127618537Y-75844703D01*
X127671320Y-75873020D01*
X127707092Y-75779805D01*
X127818499Y-75633610D01*
X127926218Y-75605903D01*
X128064671Y-75556377D01*
X128100221Y-75397183D01*
X128159259Y-75205222D01*
X128255449Y-75138199D01*
X128435498Y-75042819D01*
X128603612Y-74915331D01*
X128796778Y-74772388D01*
X128920364Y-74765518D01*
X128992516Y-74868794D01*
X128992516Y-74868794D01*
G37*
X128992516Y-74868794D02*
X129107339Y-74955779D01*
X129232509Y-74943673D01*
X129336353Y-74932324D01*
X129415593Y-74985257D01*
X129492645Y-75133646D01*
X129589924Y-75408664D01*
X129609218Y-75467589D01*
X129743952Y-75955752D01*
X129785707Y-76314620D01*
X129734940Y-76556119D01*
X129654738Y-76654094D01*
X129434212Y-76756561D01*
X129239497Y-76723986D01*
X129150792Y-76632669D01*
X129030967Y-76535685D01*
X128851111Y-76488109D01*
X128669133Y-76490585D01*
X128542937Y-76543756D01*
X128521711Y-76625679D01*
X128488045Y-76755483D01*
X128344423Y-76835871D01*
X128148691Y-76840133D01*
X128092225Y-76823974D01*
X127974615Y-76829243D01*
X127954473Y-76899835D01*
X127888355Y-77036518D01*
X127736536Y-77097361D01*
X127576561Y-77051523D01*
X127575404Y-77050601D01*
X127481129Y-77025184D01*
X127423202Y-77147813D01*
X127374083Y-77262623D01*
X127269175Y-77302256D01*
X127055794Y-77284834D01*
X127033916Y-77281728D01*
X126814757Y-77259540D01*
X126715958Y-77288602D01*
X126692178Y-77385297D01*
X126692254Y-77405164D01*
X126631201Y-77568314D01*
X126547567Y-77627808D01*
X126352030Y-77706019D01*
X126213981Y-77770171D01*
X126020790Y-77817805D01*
X125905322Y-77764418D01*
X125778259Y-77714073D01*
X125654980Y-77797925D01*
X125504742Y-77878555D01*
X125284016Y-77926638D01*
X125063073Y-77934952D01*
X124912182Y-77896270D01*
X124892249Y-77876338D01*
X124850097Y-77752343D01*
X124794214Y-77516760D01*
X124735488Y-77225533D01*
X124684807Y-76934609D01*
X124653060Y-76699932D01*
X124647663Y-76619604D01*
X124719733Y-76463907D01*
X124903725Y-76309441D01*
X125144386Y-76184392D01*
X125386464Y-76116946D01*
X125574705Y-76135289D01*
X125585543Y-76141164D01*
X125734235Y-76159163D01*
X125855353Y-76077843D01*
X125889133Y-75947985D01*
X125869098Y-75900208D01*
X125878160Y-75799873D01*
X125988417Y-75720707D01*
X126132084Y-75694842D01*
X126223567Y-75732179D01*
X126328118Y-75754251D01*
X126479107Y-75639456D01*
X126524322Y-75590984D01*
X126711118Y-75429765D01*
X126923111Y-75378055D01*
X127056305Y-75381215D01*
X127294731Y-75424094D01*
X127443202Y-75544138D01*
X127522879Y-75676852D01*
X127618537Y-75844703D01*
X127671320Y-75873020D01*
X127707092Y-75779805D01*
X127818499Y-75633610D01*
X127926218Y-75605903D01*
X128064671Y-75556377D01*
X128100221Y-75397183D01*
X128159259Y-75205222D01*
X128255449Y-75138199D01*
X128435498Y-75042819D01*
X128603612Y-74915331D01*
X128796778Y-74772388D01*
X128920364Y-74765518D01*
X128992516Y-74868794D01*
G36*
X139464045Y-75154361D02*
X139547961Y-75155179D01*
X140122269Y-75166983D01*
X140545541Y-75190638D01*
X140835832Y-75229052D01*
X141011204Y-75285137D01*
X141089715Y-75361804D01*
X141098281Y-75405071D01*
X141021555Y-75483580D01*
X140786944Y-75527616D01*
X140392316Y-75537259D01*
X139835539Y-75512593D01*
X139321123Y-75472584D01*
X138916769Y-75431203D01*
X138656896Y-75388573D01*
X138516716Y-75338811D01*
X138471441Y-75276033D01*
X138471184Y-75270895D01*
X138493059Y-75217989D01*
X138577706Y-75182632D01*
X138750700Y-75162075D01*
X139037621Y-75153567D01*
X139464045Y-75154361D01*
X139464045Y-75154361D01*
G37*
X139464045Y-75154361D02*
X139547961Y-75155179D01*
X140122269Y-75166983D01*
X140545541Y-75190638D01*
X140835832Y-75229052D01*
X141011204Y-75285137D01*
X141089715Y-75361804D01*
X141098281Y-75405071D01*
X141021555Y-75483580D01*
X140786944Y-75527616D01*
X140392316Y-75537259D01*
X139835539Y-75512593D01*
X139321123Y-75472584D01*
X138916769Y-75431203D01*
X138656896Y-75388573D01*
X138516716Y-75338811D01*
X138471441Y-75276033D01*
X138471184Y-75270895D01*
X138493059Y-75217989D01*
X138577706Y-75182632D01*
X138750700Y-75162075D01*
X139037621Y-75153567D01*
X139464045Y-75154361D01*
G36*
X123186081Y-75214642D02*
X123144418Y-75257636D01*
X123101425Y-75215972D01*
X123143088Y-75172980D01*
X123186081Y-75214642D01*
X123186081Y-75214642D01*
G37*
X123186081Y-75214642D02*
X123144418Y-75257636D01*
X123101425Y-75215972D01*
X123143088Y-75172980D01*
X123186081Y-75214642D01*
G36*
X131018551Y-60772115D02*
X131365715Y-60883881D01*
X131679423Y-61106156D01*
X131825568Y-61248159D01*
X132259191Y-61801151D01*
X132528866Y-62390924D01*
X132623544Y-62864003D01*
X132632981Y-63371698D01*
X132541750Y-63776644D01*
X132335831Y-64121577D01*
X132144595Y-64323873D01*
X131665844Y-64677505D01*
X131131768Y-64913864D01*
X130583427Y-65019619D01*
X130095982Y-64988938D01*
X129825315Y-64912751D01*
X129594990Y-64790595D01*
X129359065Y-64590986D01*
X129081710Y-64293931D01*
X128674847Y-63771358D01*
X128425336Y-63294925D01*
X128332736Y-62849326D01*
X128341186Y-62792425D01*
X128918193Y-62783361D01*
X128937939Y-63049949D01*
X129006279Y-63260788D01*
X129151835Y-63485906D01*
X129262495Y-63625680D01*
X129559173Y-63969449D01*
X129804951Y-64193971D01*
X130040333Y-64322543D01*
X130305825Y-64378465D01*
X130584827Y-64386287D01*
X130921882Y-64365874D01*
X131238171Y-64322516D01*
X131397421Y-64285208D01*
X131742112Y-64094695D01*
X131980848Y-63789873D01*
X132091054Y-63403818D01*
X132095325Y-63262861D01*
X132012452Y-62834928D01*
X131810021Y-62402098D01*
X131519390Y-62005019D01*
X131171918Y-61684340D01*
X130798964Y-61480710D01*
X130697522Y-61450968D01*
X130425029Y-61452105D01*
X130079298Y-61543197D01*
X129714466Y-61702619D01*
X129384667Y-61908748D01*
X129238078Y-62033944D01*
X129044085Y-62241686D01*
X128948281Y-62416895D01*
X128918446Y-62635049D01*
X128918193Y-62783361D01*
X128341186Y-62792425D01*
X128396607Y-62419256D01*
X128616509Y-61989407D01*
X128992002Y-61544477D01*
X129002336Y-61534073D01*
X129369027Y-61188867D01*
X129680472Y-60959257D01*
X129980308Y-60823382D01*
X130312170Y-60759375D01*
X130575559Y-60745789D01*
X131018551Y-60772115D01*
X131018551Y-60772115D01*
G37*
X131018551Y-60772115D02*
X131365715Y-60883881D01*
X131679423Y-61106156D01*
X131825568Y-61248159D01*
X132259191Y-61801151D01*
X132528866Y-62390924D01*
X132623544Y-62864003D01*
X132632981Y-63371698D01*
X132541750Y-63776644D01*
X132335831Y-64121577D01*
X132144595Y-64323873D01*
X131665844Y-64677505D01*
X131131768Y-64913864D01*
X130583427Y-65019619D01*
X130095982Y-64988938D01*
X129825315Y-64912751D01*
X129594990Y-64790595D01*
X129359065Y-64590986D01*
X129081710Y-64293931D01*
X128674847Y-63771358D01*
X128425336Y-63294925D01*
X128332736Y-62849326D01*
X128341186Y-62792425D01*
X128918193Y-62783361D01*
X128937939Y-63049949D01*
X129006279Y-63260788D01*
X129151835Y-63485906D01*
X129262495Y-63625680D01*
X129559173Y-63969449D01*
X129804951Y-64193971D01*
X130040333Y-64322543D01*
X130305825Y-64378465D01*
X130584827Y-64386287D01*
X130921882Y-64365874D01*
X131238171Y-64322516D01*
X131397421Y-64285208D01*
X131742112Y-64094695D01*
X131980848Y-63789873D01*
X132091054Y-63403818D01*
X132095325Y-63262861D01*
X132012452Y-62834928D01*
X131810021Y-62402098D01*
X131519390Y-62005019D01*
X131171918Y-61684340D01*
X130798964Y-61480710D01*
X130697522Y-61450968D01*
X130425029Y-61452105D01*
X130079298Y-61543197D01*
X129714466Y-61702619D01*
X129384667Y-61908748D01*
X129238078Y-62033944D01*
X129044085Y-62241686D01*
X128948281Y-62416895D01*
X128918446Y-62635049D01*
X128918193Y-62783361D01*
X128341186Y-62792425D01*
X128396607Y-62419256D01*
X128616509Y-61989407D01*
X128992002Y-61544477D01*
X129002336Y-61534073D01*
X129369027Y-61188867D01*
X129680472Y-60959257D01*
X129980308Y-60823382D01*
X130312170Y-60759375D01*
X130575559Y-60745789D01*
X131018551Y-60772115D01*
G36*
X163760131Y-120073645D02*
X164121814Y-120294937D01*
X164265995Y-120417314D01*
X164531887Y-120725578D01*
X164641885Y-121045967D01*
X164603680Y-121413600D01*
X164530979Y-121627171D01*
X164390929Y-121894868D01*
X164204939Y-122053080D01*
X163925052Y-122133307D01*
X163728076Y-122154542D01*
X163469907Y-122166968D01*
X163310104Y-122133091D01*
X163182355Y-122020897D01*
X163035605Y-121820234D01*
X162825673Y-121392391D01*
X162769602Y-120949749D01*
X162869516Y-120523753D01*
X162938882Y-120389158D01*
X163169158Y-120120766D01*
X163442743Y-120015591D01*
X163760131Y-120073645D01*
X163760131Y-120073645D01*
G37*
X163760131Y-120073645D02*
X164121814Y-120294937D01*
X164265995Y-120417314D01*
X164531887Y-120725578D01*
X164641885Y-121045967D01*
X164603680Y-121413600D01*
X164530979Y-121627171D01*
X164390929Y-121894868D01*
X164204939Y-122053080D01*
X163925052Y-122133307D01*
X163728076Y-122154542D01*
X163469907Y-122166968D01*
X163310104Y-122133091D01*
X163182355Y-122020897D01*
X163035605Y-121820234D01*
X162825673Y-121392391D01*
X162769602Y-120949749D01*
X162869516Y-120523753D01*
X162938882Y-120389158D01*
X163169158Y-120120766D01*
X163442743Y-120015591D01*
X163760131Y-120073645D01*
G36*
X142859755Y-113893141D02*
X143238267Y-113940519D01*
X143506218Y-114037371D01*
X143714686Y-114217109D01*
X143914743Y-114513142D01*
X143977980Y-114624614D01*
X144230505Y-115171523D01*
X144348416Y-115685446D01*
X144340904Y-116222799D01*
X144289366Y-116535653D01*
X144091816Y-117185372D01*
X143778826Y-117731642D01*
X143328518Y-118212151D01*
X143303808Y-118233578D01*
X142943271Y-118491337D01*
X142615834Y-118603254D01*
X142287748Y-118579064D01*
X142199476Y-118552134D01*
X141981663Y-118446952D01*
X141716140Y-118279379D01*
X141585589Y-118183370D01*
X141366156Y-117970001D01*
X141207990Y-117706134D01*
X141101914Y-117362313D01*
X141038749Y-116909089D01*
X141009756Y-116335300D01*
X141011092Y-116121108D01*
X141466860Y-116113948D01*
X141487632Y-116372165D01*
X141530904Y-116677892D01*
X141608831Y-117152633D01*
X141687475Y-117490585D01*
X141781832Y-117723687D01*
X141906899Y-117883884D01*
X142077673Y-118003112D01*
X142176755Y-118053495D01*
X142403455Y-118154437D01*
X142566306Y-118214502D01*
X142603422Y-118221887D01*
X142701882Y-118170554D01*
X142882332Y-118039147D01*
X143041016Y-117910202D01*
X143426643Y-117480440D01*
X143692249Y-116966171D01*
X143835332Y-116400974D01*
X143853390Y-115818428D01*
X143743922Y-115252109D01*
X143504426Y-114735597D01*
X143297745Y-114464084D01*
X143083104Y-114341282D01*
X142807332Y-114329704D01*
X142532577Y-114424494D01*
X142389475Y-114535089D01*
X142209568Y-114687765D01*
X142050586Y-114772004D01*
X142044747Y-114773367D01*
X141936149Y-114867947D01*
X141798858Y-115093915D01*
X141664037Y-115390280D01*
X141548539Y-115686101D01*
X141484988Y-115906293D01*
X141466860Y-116113948D01*
X141011092Y-116121108D01*
X141012252Y-115935415D01*
X141051598Y-115626130D01*
X141141058Y-115330361D01*
X141213173Y-115153079D01*
X141456257Y-114642785D01*
X141694840Y-114279940D01*
X141954099Y-114045278D01*
X142259211Y-113919536D01*
X142635349Y-113883448D01*
X142859755Y-113893141D01*
X142859755Y-113893141D01*
G37*
X142859755Y-113893141D02*
X143238267Y-113940519D01*
X143506218Y-114037371D01*
X143714686Y-114217109D01*
X143914743Y-114513142D01*
X143977980Y-114624614D01*
X144230505Y-115171523D01*
X144348416Y-115685446D01*
X144340904Y-116222799D01*
X144289366Y-116535653D01*
X144091816Y-117185372D01*
X143778826Y-117731642D01*
X143328518Y-118212151D01*
X143303808Y-118233578D01*
X142943271Y-118491337D01*
X142615834Y-118603254D01*
X142287748Y-118579064D01*
X142199476Y-118552134D01*
X141981663Y-118446952D01*
X141716140Y-118279379D01*
X141585589Y-118183370D01*
X141366156Y-117970001D01*
X141207990Y-117706134D01*
X141101914Y-117362313D01*
X141038749Y-116909089D01*
X141009756Y-116335300D01*
X141011092Y-116121108D01*
X141466860Y-116113948D01*
X141487632Y-116372165D01*
X141530904Y-116677892D01*
X141608831Y-117152633D01*
X141687475Y-117490585D01*
X141781832Y-117723687D01*
X141906899Y-117883884D01*
X142077673Y-118003112D01*
X142176755Y-118053495D01*
X142403455Y-118154437D01*
X142566306Y-118214502D01*
X142603422Y-118221887D01*
X142701882Y-118170554D01*
X142882332Y-118039147D01*
X143041016Y-117910202D01*
X143426643Y-117480440D01*
X143692249Y-116966171D01*
X143835332Y-116400974D01*
X143853390Y-115818428D01*
X143743922Y-115252109D01*
X143504426Y-114735597D01*
X143297745Y-114464084D01*
X143083104Y-114341282D01*
X142807332Y-114329704D01*
X142532577Y-114424494D01*
X142389475Y-114535089D01*
X142209568Y-114687765D01*
X142050586Y-114772004D01*
X142044747Y-114773367D01*
X141936149Y-114867947D01*
X141798858Y-115093915D01*
X141664037Y-115390280D01*
X141548539Y-115686101D01*
X141484988Y-115906293D01*
X141466860Y-116113948D01*
X141011092Y-116121108D01*
X141012252Y-115935415D01*
X141051598Y-115626130D01*
X141141058Y-115330361D01*
X141213173Y-115153079D01*
X141456257Y-114642785D01*
X141694840Y-114279940D01*
X141954099Y-114045278D01*
X142259211Y-113919536D01*
X142635349Y-113883448D01*
X142859755Y-113893141D01*
G36*
X135726688Y-113449980D02*
X135890279Y-113489047D01*
X136325021Y-113693983D01*
X136663601Y-114025998D01*
X136899042Y-114468229D01*
X137024363Y-115003809D01*
X137032584Y-115615872D01*
X136964240Y-116084104D01*
X136891137Y-116437753D01*
X136814253Y-116812426D01*
X136796171Y-116901056D01*
X136704957Y-117214110D01*
X136562310Y-117569298D01*
X136465346Y-117765693D01*
X136295821Y-118043729D01*
X136124473Y-118220128D01*
X135889722Y-118351688D01*
X135779483Y-118398344D01*
X135384043Y-118546711D01*
X135096376Y-118621246D01*
X134875573Y-118629160D01*
X134706150Y-118587505D01*
X134377844Y-118395971D01*
X134080717Y-118068573D01*
X133846146Y-117682108D01*
X133526346Y-116941662D01*
X133347600Y-116213964D01*
X133331820Y-115917362D01*
X133797267Y-115910050D01*
X133926877Y-116601705D01*
X134217726Y-117334348D01*
X134274776Y-117446709D01*
X134513364Y-117838041D01*
X134752744Y-118073536D01*
X135018759Y-118164828D01*
X135337251Y-118123551D01*
X135578770Y-118033715D01*
X135906632Y-117799159D01*
X136146285Y-117420483D01*
X136272426Y-117022102D01*
X136334342Y-116744808D01*
X136413587Y-116390531D01*
X136474932Y-116116623D01*
X136553060Y-115598720D01*
X136532065Y-115119292D01*
X136406926Y-114602929D01*
X136365993Y-114479981D01*
X136248936Y-114207169D01*
X136107263Y-114046130D01*
X135939019Y-113957457D01*
X135568112Y-113857480D01*
X135244674Y-113890489D01*
X135014986Y-113993551D01*
X134757784Y-114100010D01*
X134511759Y-114149120D01*
X134364169Y-114175305D01*
X134249199Y-114260487D01*
X134132605Y-114440495D01*
X134022772Y-114660807D01*
X133829149Y-115262159D01*
X133797267Y-115910050D01*
X133331820Y-115917362D01*
X133310536Y-115517358D01*
X133415774Y-114870193D01*
X133663939Y-114290814D01*
X133727397Y-114189764D01*
X133882397Y-114003371D01*
X134090932Y-113853220D01*
X134388172Y-113720754D01*
X134809285Y-113587417D01*
X134934947Y-113552612D01*
X135277067Y-113467974D01*
X135520568Y-113435122D01*
X135726688Y-113449980D01*
X135726688Y-113449980D01*
G37*
X135726688Y-113449980D02*
X135890279Y-113489047D01*
X136325021Y-113693983D01*
X136663601Y-114025998D01*
X136899042Y-114468229D01*
X137024363Y-115003809D01*
X137032584Y-115615872D01*
X136964240Y-116084104D01*
X136891137Y-116437753D01*
X136814253Y-116812426D01*
X136796171Y-116901056D01*
X136704957Y-117214110D01*
X136562310Y-117569298D01*
X136465346Y-117765693D01*
X136295821Y-118043729D01*
X136124473Y-118220128D01*
X135889722Y-118351688D01*
X135779483Y-118398344D01*
X135384043Y-118546711D01*
X135096376Y-118621246D01*
X134875573Y-118629160D01*
X134706150Y-118587505D01*
X134377844Y-118395971D01*
X134080717Y-118068573D01*
X133846146Y-117682108D01*
X133526346Y-116941662D01*
X133347600Y-116213964D01*
X133331820Y-115917362D01*
X133797267Y-115910050D01*
X133926877Y-116601705D01*
X134217726Y-117334348D01*
X134274776Y-117446709D01*
X134513364Y-117838041D01*
X134752744Y-118073536D01*
X135018759Y-118164828D01*
X135337251Y-118123551D01*
X135578770Y-118033715D01*
X135906632Y-117799159D01*
X136146285Y-117420483D01*
X136272426Y-117022102D01*
X136334342Y-116744808D01*
X136413587Y-116390531D01*
X136474932Y-116116623D01*
X136553060Y-115598720D01*
X136532065Y-115119292D01*
X136406926Y-114602929D01*
X136365993Y-114479981D01*
X136248936Y-114207169D01*
X136107263Y-114046130D01*
X135939019Y-113957457D01*
X135568112Y-113857480D01*
X135244674Y-113890489D01*
X135014986Y-113993551D01*
X134757784Y-114100010D01*
X134511759Y-114149120D01*
X134364169Y-114175305D01*
X134249199Y-114260487D01*
X134132605Y-114440495D01*
X134022772Y-114660807D01*
X133829149Y-115262159D01*
X133797267Y-115910050D01*
X133331820Y-115917362D01*
X133310536Y-115517358D01*
X133415774Y-114870193D01*
X133663939Y-114290814D01*
X133727397Y-114189764D01*
X133882397Y-114003371D01*
X134090932Y-113853220D01*
X134388172Y-113720754D01*
X134809285Y-113587417D01*
X134934947Y-113552612D01*
X135277067Y-113467974D01*
X135520568Y-113435122D01*
X135726688Y-113449980D01*
G36*
X140513632Y-100176220D02*
X140471968Y-100219212D01*
X140428975Y-100177549D01*
X140470638Y-100134557D01*
X140513632Y-100176220D01*
X140513632Y-100176220D01*
G37*
X140513632Y-100176220D02*
X140471968Y-100219212D01*
X140428975Y-100177549D01*
X140470638Y-100134557D01*
X140513632Y-100176220D01*
G36*
X140340329Y-99924911D02*
X140298666Y-99967903D01*
X140255673Y-99926241D01*
X140297336Y-99883248D01*
X140340329Y-99924911D01*
X140340329Y-99924911D01*
G37*
X140340329Y-99924911D02*
X140298666Y-99967903D01*
X140255673Y-99926241D01*
X140297336Y-99883248D01*
X140340329Y-99924911D01*
G36*
X130715873Y-62091620D02*
X130923214Y-62339172D01*
X131001344Y-62493430D01*
X131116414Y-62876367D01*
X131087587Y-63187172D01*
X130912016Y-63447411D01*
X130870301Y-63485638D01*
X130588727Y-63674410D01*
X130353990Y-63702933D01*
X130154075Y-63569735D01*
X130030131Y-63382721D01*
X129878107Y-62984176D01*
X129878457Y-62627618D01*
X130031426Y-62280668D01*
X130038577Y-62269765D01*
X130252788Y-62052093D01*
X130485476Y-61994319D01*
X130715873Y-62091620D01*
X130715873Y-62091620D01*
G37*
X130715873Y-62091620D02*
X130923214Y-62339172D01*
X131001344Y-62493430D01*
X131116414Y-62876367D01*
X131087587Y-63187172D01*
X130912016Y-63447411D01*
X130870301Y-63485638D01*
X130588727Y-63674410D01*
X130353990Y-63702933D01*
X130154075Y-63569735D01*
X130030131Y-63382721D01*
X129878107Y-62984176D01*
X129878457Y-62627618D01*
X130031426Y-62280668D01*
X130038577Y-62269765D01*
X130252788Y-62052093D01*
X130485476Y-61994319D01*
X130715873Y-62091620D01*
M02*
