G04 #@! TF.FileFunction,Profile,NP*
%FSLAX46Y46*%
G04 Gerber Fmt 4.6, Leading zero omitted, Abs format (unit mm)*
G04 Created by KiCad (PCBNEW 4.0.7-e2-6376~58~ubuntu16.04.1) date Tue Feb 27 16:08:47 2018*
%MOMM*%
%LPD*%
G01*
G04 APERTURE LIST*
%ADD10C,0.020000*%
%ADD11C,0.150000*%
G04 APERTURE END LIST*
D10*
D11*
X162700477Y-89563167D02*
X158606477Y-100812167D01*
X167978227Y-89547167D02*
X162700412Y-89547167D01*
X158625477Y-100800167D02*
X156407477Y-100180167D01*
X155691477Y-108934167D02*
X158056477Y-102339167D01*
X155777000Y-101622000D02*
X158055477Y-102338167D01*
X155698477Y-108926167D02*
X164047477Y-128017167D01*
X125131000Y-108783000D02*
X122586000Y-101650000D01*
X122774000Y-108909000D02*
X120409000Y-102314000D01*
X122584000Y-101648000D02*
X120410000Y-102313000D01*
X119840000Y-100775000D02*
X122058000Y-100155000D01*
X122767000Y-108901000D02*
X114418000Y-127992000D01*
X115765000Y-89538000D02*
X119859000Y-100787000D01*
X111004979Y-89522000D02*
X115765065Y-89522000D01*
X152216000Y-109984000D02*
X155779000Y-101622000D01*
X171500000Y-60000000D02*
X170000000Y-60000000D01*
X171500000Y-130000000D02*
X171500000Y-60000000D01*
X108000000Y-130000000D02*
X171500000Y-130000000D01*
X108000000Y-60000000D02*
X108000000Y-130000000D01*
X170000000Y-60000000D02*
X108000000Y-60000000D01*
X111000000Y-79000000D02*
X111000000Y-62000000D01*
X168000000Y-80307003D02*
X168000000Y-62000000D01*
X114903000Y-80417000D02*
X111003000Y-80417000D01*
X114600000Y-79000000D02*
X111000000Y-79000000D01*
X164190000Y-82000000D02*
X168000000Y-82000000D01*
X164993000Y-80307000D02*
X167993000Y-80307000D01*
X136200000Y-128000000D02*
X137600000Y-128000000D01*
X140500000Y-128000000D02*
X139600000Y-128000000D01*
X114410909Y-128000000D02*
X136200000Y-128000000D01*
X139600000Y-121499000D02*
X139600000Y-127977000D01*
X137600000Y-128000000D02*
X137607000Y-121399000D01*
X168000000Y-62000000D02*
X111000000Y-62000000D01*
X168000000Y-89554279D02*
X168000000Y-82000000D01*
X140500000Y-128000000D02*
X164045010Y-128000000D01*
X111000000Y-80409988D02*
X111000000Y-89525000D01*
X117158000Y-125793000D02*
X125138000Y-108784000D01*
X137600000Y-121400000D02*
X117158000Y-125793000D01*
X159174000Y-127286000D02*
X139600000Y-121500000D01*
X152205000Y-109981000D02*
X159174000Y-127286000D01*
X164201000Y-82000000D02*
X156417000Y-100184000D01*
X166169000Y-68752000D02*
X164996000Y-80308000D01*
X160381000Y-79955000D02*
X166169000Y-68752000D01*
X161683000Y-66106000D02*
X160381000Y-79955000D01*
X155273000Y-79099000D02*
X161683000Y-66106000D01*
X158048000Y-64534000D02*
X155273000Y-79099000D01*
X146601000Y-82086000D02*
X158048000Y-64534000D01*
X139545000Y-73904000D02*
X146601000Y-82086000D01*
X132839000Y-81766000D02*
X139532000Y-73896000D01*
X123054000Y-63516000D02*
X132839000Y-81766000D01*
X124220000Y-77774000D02*
X123054000Y-63516000D01*
X118590000Y-64406000D02*
X124220000Y-77774000D01*
X119124000Y-77993000D02*
X118590000Y-64406000D01*
X114062000Y-65872000D02*
X119124000Y-77993000D01*
X114600000Y-79000000D02*
X114062000Y-65872000D01*
X122060000Y-100157000D02*
X114923000Y-80410000D01*
M02*
