G04 #@! TF.FileFunction,Soldermask,Top*
%FSLAX46Y46*%
G04 Gerber Fmt 4.6, Leading zero omitted, Abs format (unit mm)*
G04 Created by KiCad (PCBNEW 4.0.7-e2-6376~58~ubuntu16.04.1) date Tue Feb 27 03:34:42 2018*
%MOMM*%
%LPD*%
G01*
G04 APERTURE LIST*
%ADD10C,0.020000*%
%ADD11C,0.200000*%
%ADD12C,0.010000*%
%ADD13C,0.700000*%
G04 APERTURE END LIST*
D10*
D11*
X139600000Y-128000000D02*
X140500000Y-128000000D01*
X140400000Y-128000000D02*
X140500000Y-128000000D01*
X139600000Y-128000000D02*
X140400000Y-128000000D01*
D12*
G36*
X140765227Y-91606061D02*
X140917222Y-91630393D01*
X141284995Y-91742775D01*
X141576815Y-91915704D01*
X141760560Y-92124263D01*
X141807083Y-92320667D01*
X141831415Y-92485366D01*
X141964674Y-92613838D01*
X142084667Y-92680060D01*
X142292758Y-92813935D01*
X142560858Y-93026863D01*
X142833189Y-93274334D01*
X142849858Y-93290703D01*
X143119048Y-93534787D01*
X143387198Y-93742437D01*
X143599389Y-93871408D01*
X143611858Y-93876875D01*
X143984311Y-94108267D01*
X144261921Y-94430954D01*
X144407166Y-94800281D01*
X144420136Y-95023359D01*
X144380476Y-95303250D01*
X144281190Y-95679381D01*
X144211832Y-95900947D01*
X144061790Y-96364120D01*
X143962747Y-96692344D01*
X143917490Y-96912994D01*
X143928804Y-97053447D01*
X143999476Y-97141079D01*
X144132291Y-97203264D01*
X144330036Y-97267380D01*
X144351602Y-97274339D01*
X144624289Y-97359407D01*
X144834503Y-97418787D01*
X144921000Y-97437305D01*
X145034283Y-97474720D01*
X145254048Y-97568038D01*
X145535065Y-97697938D01*
X145566802Y-97713163D01*
X145936947Y-97875103D01*
X146334969Y-98024429D01*
X146625136Y-98114702D01*
X147309155Y-98309913D01*
X148010122Y-98535832D01*
X148689555Y-98778220D01*
X149308973Y-99022840D01*
X149829897Y-99255456D01*
X150128000Y-99410723D01*
X150373641Y-99537174D01*
X150694115Y-99684381D01*
X150921568Y-99780282D01*
X151181073Y-99890987D01*
X151297760Y-99961303D01*
X151289170Y-100005226D01*
X151228657Y-100025336D01*
X151215490Y-100059745D01*
X151315800Y-100134118D01*
X151538147Y-100252663D01*
X151891086Y-100419587D01*
X152383177Y-100639097D01*
X153022978Y-100915401D01*
X153144423Y-100967205D01*
X153830608Y-101256389D01*
X154374144Y-101478200D01*
X154785945Y-101636628D01*
X155076924Y-101735663D01*
X155257995Y-101779292D01*
X155340071Y-101771506D01*
X155341373Y-101770260D01*
X155411505Y-101655433D01*
X155526558Y-101422419D01*
X155667974Y-101110020D01*
X155760883Y-100893167D01*
X155933965Y-100503205D01*
X156068652Y-100256059D01*
X156176578Y-100132769D01*
X156241344Y-100110000D01*
X156369286Y-100144216D01*
X156393334Y-100184085D01*
X156361962Y-100299276D01*
X156277257Y-100535068D01*
X156153332Y-100856742D01*
X156004297Y-101229577D01*
X155844267Y-101618854D01*
X155687354Y-101989852D01*
X155547671Y-102307852D01*
X155439330Y-102538134D01*
X155425423Y-102565334D01*
X155349737Y-102724301D01*
X155215772Y-103020460D01*
X155031668Y-103435242D01*
X154805565Y-103950075D01*
X154545604Y-104546388D01*
X154259924Y-105205611D01*
X153956666Y-105909173D01*
X153811041Y-106248334D01*
X153506092Y-106958452D01*
X153218400Y-107626468D01*
X152955540Y-108234934D01*
X152725084Y-108766404D01*
X152534607Y-109203432D01*
X152391681Y-109528573D01*
X152303881Y-109724379D01*
X152282738Y-109768878D01*
X152230687Y-109899663D01*
X152231295Y-110027238D01*
X152298803Y-110184299D01*
X152447451Y-110403541D01*
X152691478Y-110717658D01*
X152701412Y-110730132D01*
X152845860Y-110920512D01*
X152891852Y-111029414D01*
X152849416Y-111105380D01*
X152788776Y-111153081D01*
X152721549Y-111214487D01*
X152701779Y-111291341D01*
X152739714Y-111414635D01*
X152845599Y-111615359D01*
X153029680Y-111924503D01*
X153060758Y-111975702D01*
X153263401Y-112314428D01*
X153446658Y-112635039D01*
X153618848Y-112956422D01*
X153788287Y-113297461D01*
X153963294Y-113677040D01*
X154152185Y-114114046D01*
X154363279Y-114627362D01*
X154604893Y-115235874D01*
X154885345Y-115958468D01*
X155212952Y-116814027D01*
X155348646Y-117170334D01*
X155511792Y-117587567D01*
X155689469Y-118023765D01*
X155849884Y-118401312D01*
X155888939Y-118489420D01*
X156013911Y-118790450D01*
X156103656Y-119050485D01*
X156139297Y-119214625D01*
X156139334Y-119217619D01*
X156149582Y-119346420D01*
X156186471Y-119500569D01*
X156259216Y-119701332D01*
X156377029Y-119969978D01*
X156549127Y-120327773D01*
X156784723Y-120795984D01*
X157031469Y-121276667D01*
X157276765Y-121764536D01*
X157506100Y-122243567D01*
X157702625Y-122676837D01*
X157849494Y-123027424D01*
X157920051Y-123224000D01*
X158072506Y-123685171D01*
X158252951Y-124169460D01*
X158448511Y-124648448D01*
X158646310Y-125093712D01*
X158833471Y-125476830D01*
X158997118Y-125769381D01*
X159124375Y-125942942D01*
X159166167Y-125974577D01*
X159310323Y-126065724D01*
X159360195Y-126150672D01*
X159293167Y-126187502D01*
X159228410Y-126257406D01*
X159215938Y-126426610D01*
X159250687Y-126635090D01*
X159327588Y-126822821D01*
X159349527Y-126855201D01*
X159447426Y-127016661D01*
X159441602Y-127160880D01*
X159380612Y-127299422D01*
X159256044Y-127466013D01*
X159121935Y-127533989D01*
X159117632Y-127533853D01*
X158988945Y-127507094D01*
X158731560Y-127439064D01*
X158378424Y-127338950D01*
X158063001Y-127245667D01*
X158848667Y-127245667D01*
X158891000Y-127288000D01*
X158933334Y-127245667D01*
X158891000Y-127203334D01*
X158848667Y-127245667D01*
X158063001Y-127245667D01*
X157962479Y-127215939D01*
X157790334Y-127163737D01*
X157249819Y-126998434D01*
X156654528Y-126815983D01*
X156076732Y-126638556D01*
X155589000Y-126488415D01*
X155168559Y-126363253D01*
X154778122Y-126255110D01*
X154461655Y-126175661D01*
X154265150Y-126136831D01*
X154065151Y-126094549D01*
X153749397Y-126007865D01*
X153361541Y-125889488D01*
X152952817Y-125754725D01*
X152654095Y-125653693D01*
X152324988Y-125545025D01*
X151951337Y-125424330D01*
X151518986Y-125287214D01*
X151013776Y-125129284D01*
X150421551Y-124946149D01*
X149728152Y-124733415D01*
X148919423Y-124486689D01*
X147981204Y-124201580D01*
X146899340Y-123873693D01*
X146529667Y-123761793D01*
X145299313Y-123388995D01*
X144139244Y-123036569D01*
X143065713Y-122709482D01*
X142094976Y-122412702D01*
X141243287Y-122151193D01*
X140526900Y-121929922D01*
X140137334Y-121808724D01*
X139761212Y-121689781D01*
X139447612Y-121592405D01*
X139176068Y-121517685D01*
X138926116Y-121466710D01*
X138677293Y-121440570D01*
X138409133Y-121440354D01*
X138101175Y-121467150D01*
X137732952Y-121522048D01*
X137284001Y-121606138D01*
X136733859Y-121720508D01*
X136062060Y-121866248D01*
X135248141Y-122044446D01*
X135099667Y-122076848D01*
X134474882Y-122212957D01*
X133814419Y-122356650D01*
X133168912Y-122496923D01*
X132588997Y-122622773D01*
X132136334Y-122720813D01*
X131687486Y-122819142D01*
X131278308Y-122911105D01*
X130947087Y-122987932D01*
X130732112Y-123040854D01*
X130697000Y-123050472D01*
X130524344Y-123093936D01*
X130223227Y-123163327D01*
X129831011Y-123250277D01*
X129385059Y-123346417D01*
X129215334Y-123382344D01*
X128296559Y-123576970D01*
X127425090Y-123763790D01*
X126615661Y-123939502D01*
X125883008Y-124100805D01*
X125241866Y-124244396D01*
X124706969Y-124366975D01*
X124293052Y-124465240D01*
X124014850Y-124535890D01*
X123887099Y-124575623D01*
X123885225Y-124576577D01*
X123727277Y-124628278D01*
X123474136Y-124680375D01*
X123331000Y-124701889D01*
X122928088Y-124764054D01*
X122506384Y-124844881D01*
X122110520Y-124934158D01*
X121785128Y-125021679D01*
X121574839Y-125097234D01*
X121553000Y-125108578D01*
X121369865Y-125177482D01*
X121099234Y-125241807D01*
X120960334Y-125265019D01*
X120171265Y-125383905D01*
X119509841Y-125500270D01*
X118934671Y-125621655D01*
X118721092Y-125672904D01*
X118330149Y-125761821D01*
X117926900Y-125840524D01*
X117607949Y-125890661D01*
X117134231Y-125949567D01*
X117126512Y-125678078D01*
X117156971Y-125521809D01*
X117255732Y-125245781D01*
X117425477Y-124843855D01*
X117668888Y-124309889D01*
X117988644Y-123637744D01*
X118266828Y-123066461D01*
X118619804Y-122346816D01*
X119009168Y-121552731D01*
X119411756Y-120731464D01*
X119804403Y-119930273D01*
X120163947Y-119196418D01*
X120409850Y-118694334D01*
X120668967Y-118165821D01*
X120988647Y-117514859D01*
X121354440Y-116770811D01*
X121751898Y-115963039D01*
X122166571Y-115120906D01*
X122584009Y-114273774D01*
X122989762Y-113451007D01*
X123118063Y-113191000D01*
X123573203Y-112269706D01*
X123959608Y-111487970D01*
X124282457Y-110833002D01*
X124546931Y-110292012D01*
X124758211Y-109852210D01*
X124921477Y-109500804D01*
X125041908Y-109225005D01*
X125124686Y-109012021D01*
X125174991Y-108849064D01*
X125198003Y-108723342D01*
X125198902Y-108622064D01*
X125182869Y-108532441D01*
X125155084Y-108441682D01*
X125120728Y-108336997D01*
X125105244Y-108284588D01*
X125039747Y-108076752D01*
X124923407Y-107734825D01*
X124764915Y-107283238D01*
X124572964Y-106746423D01*
X124356244Y-106148812D01*
X124123447Y-105514836D01*
X124034505Y-105274667D01*
X123795325Y-104628220D01*
X123566078Y-104004645D01*
X123355988Y-103429337D01*
X123174281Y-102927689D01*
X123030183Y-102525097D01*
X122932918Y-102246954D01*
X122911854Y-102184334D01*
X122782791Y-101807443D01*
X122642432Y-101419367D01*
X122536848Y-101144032D01*
X122419448Y-100837452D01*
X122370299Y-100654383D01*
X122388401Y-100563813D01*
X122472753Y-100534727D01*
X122517140Y-100533334D01*
X122632397Y-100586345D01*
X122757300Y-100759866D01*
X122907423Y-101075631D01*
X122909855Y-101081346D01*
X123142764Y-101629358D01*
X123513435Y-101594611D01*
X123781275Y-101561673D01*
X123997478Y-101521862D01*
X124040871Y-101510109D01*
X124309772Y-101503460D01*
X124541274Y-101632757D01*
X124680141Y-101865555D01*
X124685883Y-101888985D01*
X124751498Y-102106459D01*
X124863790Y-102406287D01*
X124978198Y-102677229D01*
X125128451Y-103043445D01*
X125284694Y-103471812D01*
X125395909Y-103814167D01*
X125494344Y-104107523D01*
X125587512Y-104324557D01*
X125657775Y-104425300D01*
X125666767Y-104428000D01*
X125716568Y-104479292D01*
X125704813Y-104507577D01*
X125712939Y-104624880D01*
X125795237Y-104814458D01*
X125822428Y-104861428D01*
X125921493Y-105052653D01*
X125956553Y-105180444D01*
X125952769Y-105194689D01*
X125961279Y-105297534D01*
X126017156Y-105515326D01*
X126108876Y-105804251D01*
X126126490Y-105855248D01*
X126230731Y-106187068D01*
X126305932Y-106490269D01*
X126336582Y-106701825D01*
X126336667Y-106709276D01*
X126372500Y-106951299D01*
X126466994Y-107285259D01*
X126600638Y-107652881D01*
X126753922Y-107995891D01*
X126791783Y-108068667D01*
X126930202Y-108390989D01*
X126966526Y-108691513D01*
X126898040Y-109019982D01*
X126722028Y-109426140D01*
X126717134Y-109435911D01*
X126574077Y-109746953D01*
X126469059Y-110024827D01*
X126422127Y-110215555D01*
X126421334Y-110232324D01*
X126390152Y-110389171D01*
X126332030Y-110439334D01*
X126266471Y-110515646D01*
X126132518Y-110744745D01*
X125930050Y-111126875D01*
X125658944Y-111662279D01*
X125319079Y-112351203D01*
X124910333Y-113193890D01*
X124432585Y-114190584D01*
X123885714Y-115341529D01*
X123821598Y-115477000D01*
X123620897Y-115897909D01*
X123358221Y-116443696D01*
X123046653Y-117087451D01*
X122699274Y-117802262D01*
X122329168Y-118561218D01*
X121949417Y-119337409D01*
X121573105Y-120103923D01*
X121501288Y-120249873D01*
X121162927Y-120938921D01*
X120848955Y-121581554D01*
X120567075Y-122161767D01*
X120324988Y-122663557D01*
X120130397Y-123070919D01*
X119991004Y-123367849D01*
X119914511Y-123538342D01*
X119902000Y-123573040D01*
X119919847Y-123617322D01*
X119985904Y-123635315D01*
X120118945Y-123622985D01*
X120337745Y-123576300D01*
X120661079Y-123491228D01*
X121107721Y-123363737D01*
X121696446Y-123189793D01*
X121722334Y-123182075D01*
X122065181Y-123089938D01*
X122519649Y-122982031D01*
X123030399Y-122870831D01*
X123542089Y-122768813D01*
X123620828Y-122754087D01*
X124090961Y-122660808D01*
X124533637Y-122561686D01*
X124906433Y-122466993D01*
X125166926Y-122386998D01*
X125215347Y-122368040D01*
X125474968Y-122271567D01*
X125695134Y-122214573D01*
X125758558Y-122208000D01*
X125899119Y-122188731D01*
X126169498Y-122135787D01*
X126535211Y-122056461D01*
X126961776Y-121958050D01*
X127127372Y-121918443D01*
X127605763Y-121806617D01*
X128073113Y-121703904D01*
X128481951Y-121620315D01*
X128784809Y-121565860D01*
X128833754Y-121558610D01*
X129141375Y-121502060D01*
X129310003Y-121431491D01*
X129368745Y-121342155D01*
X129333034Y-121178580D01*
X129207669Y-120958265D01*
X129031773Y-120734426D01*
X128844469Y-120560280D01*
X128754429Y-120506536D01*
X128532091Y-120392144D01*
X128421281Y-120324369D01*
X128289753Y-120260828D01*
X128227244Y-120314970D01*
X128223726Y-120324167D01*
X128118875Y-120431968D01*
X127953540Y-120425333D01*
X127762022Y-120330147D01*
X127578623Y-120172293D01*
X127437643Y-119977654D01*
X127373385Y-119772114D01*
X127378038Y-119686016D01*
X127368352Y-119457310D01*
X127300924Y-119256368D01*
X127184284Y-118898376D01*
X127208753Y-118715500D01*
X127951284Y-118715500D01*
X127961574Y-118866101D01*
X127991595Y-118860782D01*
X128030000Y-118779000D01*
X128091548Y-118615033D01*
X128108716Y-118546167D01*
X128050319Y-118484560D01*
X128030000Y-118482667D01*
X127970474Y-118555562D01*
X127951284Y-118715500D01*
X127208753Y-118715500D01*
X127228975Y-118564375D01*
X127438305Y-118236228D01*
X127498764Y-118171195D01*
X127724989Y-117890159D01*
X127819535Y-117633305D01*
X127825324Y-117568603D01*
X127881019Y-117361917D01*
X128008526Y-117129781D01*
X128169551Y-116925771D01*
X128325797Y-116803464D01*
X128382333Y-116789334D01*
X128462356Y-116856839D01*
X128568829Y-117021568D01*
X128580456Y-117043570D01*
X128651574Y-117207398D01*
X128668189Y-117361705D01*
X128629996Y-117570825D01*
X128577077Y-117761672D01*
X128490402Y-118023265D01*
X128407988Y-118212414D01*
X128363114Y-118274432D01*
X128283519Y-118363990D01*
X128359126Y-118425705D01*
X128576669Y-118448800D01*
X128577773Y-118448800D01*
X128787659Y-118419951D01*
X128908634Y-118348942D01*
X128913782Y-118338734D01*
X128999873Y-118239536D01*
X129140001Y-118272343D01*
X129345005Y-118442685D01*
X129545313Y-118661077D01*
X129831955Y-118951607D01*
X130173400Y-119239226D01*
X130391980Y-119393842D01*
X130703167Y-119604342D01*
X131009619Y-119833038D01*
X131184077Y-119977473D01*
X131396333Y-120142592D01*
X131579510Y-120244651D01*
X131644760Y-120260667D01*
X131732754Y-120247300D01*
X131686985Y-120186234D01*
X131623349Y-120136360D01*
X131527219Y-120041581D01*
X131562400Y-120012015D01*
X131705168Y-120044770D01*
X131931801Y-120136953D01*
X132033873Y-120186407D01*
X132279066Y-120311774D01*
X132399547Y-120390390D01*
X132420629Y-120454026D01*
X132367626Y-120534452D01*
X132338899Y-120569234D01*
X132276552Y-120661316D01*
X132323130Y-120685519D01*
X132506408Y-120656011D01*
X132508288Y-120655639D01*
X132728795Y-120637251D01*
X132881156Y-120668711D01*
X132889288Y-120674412D01*
X133023502Y-120701905D01*
X133283324Y-120690867D01*
X133575667Y-120651840D01*
X134168334Y-120553575D01*
X134171792Y-120472334D01*
X139883334Y-120472334D01*
X139925667Y-120514667D01*
X139968000Y-120472334D01*
X139925667Y-120430000D01*
X139883334Y-120472334D01*
X134171792Y-120472334D01*
X134218724Y-119369954D01*
X134240498Y-118898950D01*
X134264251Y-118451618D01*
X134282004Y-118161230D01*
X134485724Y-118161230D01*
X134486410Y-118338680D01*
X134506408Y-118360033D01*
X134558842Y-118238412D01*
X134559975Y-118235481D01*
X134595216Y-118049160D01*
X134564911Y-117956378D01*
X134513421Y-117975640D01*
X134486748Y-118129090D01*
X134485724Y-118161230D01*
X134282004Y-118161230D01*
X134287351Y-118073771D01*
X134307162Y-117811221D01*
X134310125Y-117780244D01*
X134320702Y-117534688D01*
X134301439Y-117367390D01*
X134280590Y-117330555D01*
X134245301Y-117225481D01*
X134262030Y-117079832D01*
X134258987Y-116844849D01*
X134169498Y-116568161D01*
X134086454Y-116325005D01*
X134065899Y-116113467D01*
X134071298Y-116081974D01*
X134244103Y-115488575D01*
X134403738Y-115084677D01*
X135384091Y-115084677D01*
X135405734Y-115270878D01*
X135430770Y-115392334D01*
X135497028Y-115617973D01*
X135563979Y-115754623D01*
X135590289Y-115773334D01*
X135629778Y-115707576D01*
X135617393Y-115625167D01*
X135564232Y-115429989D01*
X135517842Y-115244167D01*
X135459145Y-115076018D01*
X135402342Y-115011334D01*
X135384091Y-115084677D01*
X134403738Y-115084677D01*
X134422057Y-115038329D01*
X134601179Y-114738991D01*
X134777490Y-114598317D01*
X134837835Y-114588000D01*
X134983918Y-114528376D01*
X135057333Y-114461000D01*
X135256814Y-114343133D01*
X135533788Y-114340412D01*
X135849422Y-114444931D01*
X136164883Y-114648783D01*
X136221500Y-114698006D01*
X136313043Y-114798039D01*
X136369452Y-114921505D01*
X136398850Y-115108990D01*
X136409356Y-115401080D01*
X136409980Y-115639925D01*
X136400510Y-116023889D01*
X136377037Y-116378496D01*
X136343979Y-116644133D01*
X136331063Y-116704667D01*
X136196284Y-117153225D01*
X136053798Y-117502902D01*
X135916308Y-117724344D01*
X135871660Y-117766163D01*
X135816151Y-117831262D01*
X135777562Y-117949554D01*
X135753053Y-118147934D01*
X135739783Y-118453295D01*
X135734915Y-118892532D01*
X135734667Y-119063501D01*
X135740288Y-119598295D01*
X135757531Y-119971299D01*
X135786959Y-120189695D01*
X135829020Y-120260667D01*
X135940605Y-120242529D01*
X136186281Y-120192507D01*
X136535231Y-120117187D01*
X136956639Y-120023156D01*
X137204853Y-119966602D01*
X137679382Y-119860427D01*
X138124217Y-119765825D01*
X138500090Y-119690796D01*
X138767729Y-119643341D01*
X138841010Y-119633266D01*
X139117990Y-119578129D01*
X139354055Y-119491471D01*
X139391343Y-119470480D01*
X139616017Y-119352454D01*
X139775224Y-119290833D01*
X139883718Y-119269672D01*
X139937080Y-119314861D01*
X139951117Y-119462966D01*
X139944558Y-119682494D01*
X139925667Y-120130288D01*
X140264334Y-120179492D01*
X140559273Y-120247432D01*
X140831292Y-120348270D01*
X140857000Y-120361094D01*
X141049601Y-120442099D01*
X141354584Y-120549087D01*
X141720666Y-120664596D01*
X141915334Y-120721433D01*
X142349563Y-120849344D01*
X142804103Y-120991083D01*
X143200255Y-121121893D01*
X143306466Y-121159052D01*
X143544659Y-121239052D01*
X143917311Y-121357798D01*
X144396318Y-121506634D01*
X144953575Y-121676905D01*
X145560977Y-121859956D01*
X146185133Y-122045571D01*
X146947782Y-122271121D01*
X147813630Y-122527729D01*
X148723662Y-122797868D01*
X149618861Y-123064015D01*
X150440211Y-123308645D01*
X150783692Y-123411126D01*
X151379092Y-123586759D01*
X151920867Y-123742483D01*
X152388125Y-123872619D01*
X152759972Y-123971490D01*
X153015514Y-124033419D01*
X153133859Y-124052729D01*
X153139062Y-124051161D01*
X153135047Y-123953061D01*
X153071055Y-123756337D01*
X153012537Y-123617886D01*
X152910650Y-123377766D01*
X152847466Y-123197158D01*
X152837334Y-123145592D01*
X152765782Y-123063333D01*
X152603529Y-123000810D01*
X152429179Y-122980911D01*
X152345461Y-123002366D01*
X152244564Y-122991238D01*
X152102743Y-122848110D01*
X151911285Y-122562883D01*
X151793326Y-122362257D01*
X151639064Y-122071001D01*
X151575644Y-121859054D01*
X151617630Y-121694782D01*
X151779587Y-121546549D01*
X152076078Y-121382721D01*
X152292007Y-121279100D01*
X152613042Y-121131111D01*
X152876423Y-121015515D01*
X153044812Y-120948409D01*
X153083218Y-120938000D01*
X153183789Y-120881554D01*
X153303000Y-120768667D01*
X153480752Y-120640062D01*
X153666925Y-120599266D01*
X153808249Y-120647385D01*
X153853334Y-120757249D01*
X153903745Y-120933486D01*
X154022667Y-121130437D01*
X154141834Y-121317376D01*
X154191995Y-121466470D01*
X154192000Y-121467399D01*
X154250296Y-121611840D01*
X154361334Y-121742334D01*
X154497042Y-121894173D01*
X154520450Y-121984390D01*
X154431657Y-121986011D01*
X154360550Y-121953581D01*
X154246595Y-121908428D01*
X154206589Y-121966385D01*
X154212384Y-122141051D01*
X154207889Y-122338398D01*
X154131976Y-122425493D01*
X154043834Y-122446671D01*
X153888831Y-122503821D01*
X153872426Y-122623594D01*
X153993217Y-122824420D01*
X154013106Y-122850076D01*
X154138254Y-123074742D01*
X154227912Y-123348298D01*
X154232556Y-123371430D01*
X154305373Y-123631649D01*
X154426641Y-123950483D01*
X154510897Y-124136294D01*
X154729560Y-124582921D01*
X155582613Y-124842043D01*
X155984068Y-124966141D01*
X156366327Y-125088043D01*
X156674031Y-125189927D01*
X156797388Y-125233139D01*
X157022050Y-125303513D01*
X157172829Y-125329204D01*
X157201682Y-125322540D01*
X157195383Y-125227538D01*
X157132966Y-125030489D01*
X157072310Y-124878833D01*
X156962971Y-124608852D01*
X156824125Y-124245322D01*
X156681074Y-123854910D01*
X156642005Y-123745016D01*
X156503953Y-123405227D01*
X156300200Y-122969531D01*
X156054505Y-122485797D01*
X155790627Y-122001892D01*
X155689990Y-121827000D01*
X155361058Y-121255132D01*
X155116146Y-120804602D01*
X154945927Y-120455468D01*
X154841074Y-120187788D01*
X154792261Y-119981618D01*
X154785942Y-119893938D01*
X154757220Y-119761386D01*
X154677783Y-119494850D01*
X154556306Y-119118923D01*
X154401465Y-118658200D01*
X154221936Y-118137273D01*
X154026394Y-117580735D01*
X153823514Y-117013178D01*
X153621974Y-116459198D01*
X153430448Y-115943385D01*
X153257613Y-115490334D01*
X153112143Y-115124637D01*
X153057106Y-114993220D01*
X152927052Y-114766002D01*
X152777034Y-114604156D01*
X152747340Y-114585149D01*
X152630497Y-114487215D01*
X152663200Y-114382117D01*
X152694506Y-114266489D01*
X152647521Y-114064577D01*
X152528097Y-113774188D01*
X152360570Y-113433091D01*
X152177941Y-113134531D01*
X151936598Y-112810260D01*
X151818432Y-112663668D01*
X151743405Y-112535735D01*
X151630020Y-112302478D01*
X151508979Y-112028668D01*
X151371827Y-111728949D01*
X151236231Y-111472749D01*
X151141060Y-111328334D01*
X151017783Y-111159232D01*
X150857340Y-110909362D01*
X150756772Y-110740384D01*
X150555497Y-110264540D01*
X150518397Y-109814101D01*
X150644796Y-109375764D01*
X150683657Y-109299343D01*
X150819010Y-109012859D01*
X150956384Y-108666719D01*
X151016212Y-108492000D01*
X151124156Y-108170557D01*
X151236561Y-107864086D01*
X151290544Y-107730000D01*
X151390502Y-107475125D01*
X151506108Y-107151283D01*
X151567186Y-106968000D01*
X151642473Y-106753024D01*
X151742164Y-106505892D01*
X151875883Y-106206272D01*
X152053251Y-105833833D01*
X152283892Y-105368243D01*
X152577430Y-104789172D01*
X152849536Y-104258667D01*
X153140265Y-103681259D01*
X153356343Y-103224516D01*
X153494004Y-102896796D01*
X153549482Y-102706454D01*
X153549674Y-102704639D01*
X153480545Y-102640504D01*
X153292479Y-102542766D01*
X153034719Y-102435935D01*
X152729074Y-102313305D01*
X152461987Y-102192812D01*
X152315052Y-102114441D01*
X152090559Y-102009041D01*
X151824912Y-101929604D01*
X151821334Y-101928868D01*
X151598808Y-101870258D01*
X151449219Y-101807433D01*
X151440334Y-101801082D01*
X151330774Y-101745349D01*
X151098157Y-101645542D01*
X150778178Y-101516504D01*
X150457891Y-101392541D01*
X149989727Y-101208006D01*
X149480395Y-100996690D01*
X149009508Y-100792010D01*
X148806891Y-100699582D01*
X148343870Y-100493674D01*
X147795853Y-100269867D01*
X147142889Y-100020515D01*
X146365027Y-99737973D01*
X145556530Y-99454140D01*
X145241866Y-99336677D01*
X144984014Y-99225138D01*
X144830442Y-99140406D01*
X144816470Y-99128565D01*
X144669641Y-99034202D01*
X144442203Y-98936230D01*
X144392607Y-98919239D01*
X144121623Y-98821485D01*
X143797964Y-98692088D01*
X143651000Y-98629214D01*
X143310835Y-98512730D01*
X142912171Y-98447306D01*
X142508000Y-98424461D01*
X142071708Y-98400816D01*
X141788845Y-98350357D01*
X141644431Y-98263919D01*
X141623484Y-98132338D01*
X141711022Y-97946450D01*
X141715375Y-97939615D01*
X141853273Y-97739227D01*
X141969834Y-97593121D01*
X141971637Y-97591218D01*
X142035848Y-97452903D01*
X142095450Y-97207403D01*
X142126494Y-96998551D01*
X142224263Y-96552299D01*
X142414569Y-96051378D01*
X142486887Y-95899646D01*
X142793254Y-95287626D01*
X142542313Y-94968313D01*
X142353119Y-94717563D01*
X142182876Y-94475894D01*
X142140753Y-94411616D01*
X141993753Y-94230583D01*
X141849058Y-94124613D01*
X141846900Y-94123833D01*
X141681572Y-94031801D01*
X141506360Y-93895550D01*
X141326128Y-93780863D01*
X141078810Y-93725677D01*
X140828303Y-93714132D01*
X140545341Y-93701313D01*
X140325456Y-93672042D01*
X140242444Y-93645635D01*
X140179003Y-93519814D01*
X140149502Y-93272059D01*
X140150188Y-92945521D01*
X140177306Y-92583351D01*
X140227102Y-92228698D01*
X140295822Y-91924714D01*
X140379712Y-91714550D01*
X140414450Y-91668598D01*
X140544608Y-91603546D01*
X140765227Y-91606061D01*
X140765227Y-91606061D01*
G37*
X140765227Y-91606061D02*
X140917222Y-91630393D01*
X141284995Y-91742775D01*
X141576815Y-91915704D01*
X141760560Y-92124263D01*
X141807083Y-92320667D01*
X141831415Y-92485366D01*
X141964674Y-92613838D01*
X142084667Y-92680060D01*
X142292758Y-92813935D01*
X142560858Y-93026863D01*
X142833189Y-93274334D01*
X142849858Y-93290703D01*
X143119048Y-93534787D01*
X143387198Y-93742437D01*
X143599389Y-93871408D01*
X143611858Y-93876875D01*
X143984311Y-94108267D01*
X144261921Y-94430954D01*
X144407166Y-94800281D01*
X144420136Y-95023359D01*
X144380476Y-95303250D01*
X144281190Y-95679381D01*
X144211832Y-95900947D01*
X144061790Y-96364120D01*
X143962747Y-96692344D01*
X143917490Y-96912994D01*
X143928804Y-97053447D01*
X143999476Y-97141079D01*
X144132291Y-97203264D01*
X144330036Y-97267380D01*
X144351602Y-97274339D01*
X144624289Y-97359407D01*
X144834503Y-97418787D01*
X144921000Y-97437305D01*
X145034283Y-97474720D01*
X145254048Y-97568038D01*
X145535065Y-97697938D01*
X145566802Y-97713163D01*
X145936947Y-97875103D01*
X146334969Y-98024429D01*
X146625136Y-98114702D01*
X147309155Y-98309913D01*
X148010122Y-98535832D01*
X148689555Y-98778220D01*
X149308973Y-99022840D01*
X149829897Y-99255456D01*
X150128000Y-99410723D01*
X150373641Y-99537174D01*
X150694115Y-99684381D01*
X150921568Y-99780282D01*
X151181073Y-99890987D01*
X151297760Y-99961303D01*
X151289170Y-100005226D01*
X151228657Y-100025336D01*
X151215490Y-100059745D01*
X151315800Y-100134118D01*
X151538147Y-100252663D01*
X151891086Y-100419587D01*
X152383177Y-100639097D01*
X153022978Y-100915401D01*
X153144423Y-100967205D01*
X153830608Y-101256389D01*
X154374144Y-101478200D01*
X154785945Y-101636628D01*
X155076924Y-101735663D01*
X155257995Y-101779292D01*
X155340071Y-101771506D01*
X155341373Y-101770260D01*
X155411505Y-101655433D01*
X155526558Y-101422419D01*
X155667974Y-101110020D01*
X155760883Y-100893167D01*
X155933965Y-100503205D01*
X156068652Y-100256059D01*
X156176578Y-100132769D01*
X156241344Y-100110000D01*
X156369286Y-100144216D01*
X156393334Y-100184085D01*
X156361962Y-100299276D01*
X156277257Y-100535068D01*
X156153332Y-100856742D01*
X156004297Y-101229577D01*
X155844267Y-101618854D01*
X155687354Y-101989852D01*
X155547671Y-102307852D01*
X155439330Y-102538134D01*
X155425423Y-102565334D01*
X155349737Y-102724301D01*
X155215772Y-103020460D01*
X155031668Y-103435242D01*
X154805565Y-103950075D01*
X154545604Y-104546388D01*
X154259924Y-105205611D01*
X153956666Y-105909173D01*
X153811041Y-106248334D01*
X153506092Y-106958452D01*
X153218400Y-107626468D01*
X152955540Y-108234934D01*
X152725084Y-108766404D01*
X152534607Y-109203432D01*
X152391681Y-109528573D01*
X152303881Y-109724379D01*
X152282738Y-109768878D01*
X152230687Y-109899663D01*
X152231295Y-110027238D01*
X152298803Y-110184299D01*
X152447451Y-110403541D01*
X152691478Y-110717658D01*
X152701412Y-110730132D01*
X152845860Y-110920512D01*
X152891852Y-111029414D01*
X152849416Y-111105380D01*
X152788776Y-111153081D01*
X152721549Y-111214487D01*
X152701779Y-111291341D01*
X152739714Y-111414635D01*
X152845599Y-111615359D01*
X153029680Y-111924503D01*
X153060758Y-111975702D01*
X153263401Y-112314428D01*
X153446658Y-112635039D01*
X153618848Y-112956422D01*
X153788287Y-113297461D01*
X153963294Y-113677040D01*
X154152185Y-114114046D01*
X154363279Y-114627362D01*
X154604893Y-115235874D01*
X154885345Y-115958468D01*
X155212952Y-116814027D01*
X155348646Y-117170334D01*
X155511792Y-117587567D01*
X155689469Y-118023765D01*
X155849884Y-118401312D01*
X155888939Y-118489420D01*
X156013911Y-118790450D01*
X156103656Y-119050485D01*
X156139297Y-119214625D01*
X156139334Y-119217619D01*
X156149582Y-119346420D01*
X156186471Y-119500569D01*
X156259216Y-119701332D01*
X156377029Y-119969978D01*
X156549127Y-120327773D01*
X156784723Y-120795984D01*
X157031469Y-121276667D01*
X157276765Y-121764536D01*
X157506100Y-122243567D01*
X157702625Y-122676837D01*
X157849494Y-123027424D01*
X157920051Y-123224000D01*
X158072506Y-123685171D01*
X158252951Y-124169460D01*
X158448511Y-124648448D01*
X158646310Y-125093712D01*
X158833471Y-125476830D01*
X158997118Y-125769381D01*
X159124375Y-125942942D01*
X159166167Y-125974577D01*
X159310323Y-126065724D01*
X159360195Y-126150672D01*
X159293167Y-126187502D01*
X159228410Y-126257406D01*
X159215938Y-126426610D01*
X159250687Y-126635090D01*
X159327588Y-126822821D01*
X159349527Y-126855201D01*
X159447426Y-127016661D01*
X159441602Y-127160880D01*
X159380612Y-127299422D01*
X159256044Y-127466013D01*
X159121935Y-127533989D01*
X159117632Y-127533853D01*
X158988945Y-127507094D01*
X158731560Y-127439064D01*
X158378424Y-127338950D01*
X158063001Y-127245667D01*
X158848667Y-127245667D01*
X158891000Y-127288000D01*
X158933334Y-127245667D01*
X158891000Y-127203334D01*
X158848667Y-127245667D01*
X158063001Y-127245667D01*
X157962479Y-127215939D01*
X157790334Y-127163737D01*
X157249819Y-126998434D01*
X156654528Y-126815983D01*
X156076732Y-126638556D01*
X155589000Y-126488415D01*
X155168559Y-126363253D01*
X154778122Y-126255110D01*
X154461655Y-126175661D01*
X154265150Y-126136831D01*
X154065151Y-126094549D01*
X153749397Y-126007865D01*
X153361541Y-125889488D01*
X152952817Y-125754725D01*
X152654095Y-125653693D01*
X152324988Y-125545025D01*
X151951337Y-125424330D01*
X151518986Y-125287214D01*
X151013776Y-125129284D01*
X150421551Y-124946149D01*
X149728152Y-124733415D01*
X148919423Y-124486689D01*
X147981204Y-124201580D01*
X146899340Y-123873693D01*
X146529667Y-123761793D01*
X145299313Y-123388995D01*
X144139244Y-123036569D01*
X143065713Y-122709482D01*
X142094976Y-122412702D01*
X141243287Y-122151193D01*
X140526900Y-121929922D01*
X140137334Y-121808724D01*
X139761212Y-121689781D01*
X139447612Y-121592405D01*
X139176068Y-121517685D01*
X138926116Y-121466710D01*
X138677293Y-121440570D01*
X138409133Y-121440354D01*
X138101175Y-121467150D01*
X137732952Y-121522048D01*
X137284001Y-121606138D01*
X136733859Y-121720508D01*
X136062060Y-121866248D01*
X135248141Y-122044446D01*
X135099667Y-122076848D01*
X134474882Y-122212957D01*
X133814419Y-122356650D01*
X133168912Y-122496923D01*
X132588997Y-122622773D01*
X132136334Y-122720813D01*
X131687486Y-122819142D01*
X131278308Y-122911105D01*
X130947087Y-122987932D01*
X130732112Y-123040854D01*
X130697000Y-123050472D01*
X130524344Y-123093936D01*
X130223227Y-123163327D01*
X129831011Y-123250277D01*
X129385059Y-123346417D01*
X129215334Y-123382344D01*
X128296559Y-123576970D01*
X127425090Y-123763790D01*
X126615661Y-123939502D01*
X125883008Y-124100805D01*
X125241866Y-124244396D01*
X124706969Y-124366975D01*
X124293052Y-124465240D01*
X124014850Y-124535890D01*
X123887099Y-124575623D01*
X123885225Y-124576577D01*
X123727277Y-124628278D01*
X123474136Y-124680375D01*
X123331000Y-124701889D01*
X122928088Y-124764054D01*
X122506384Y-124844881D01*
X122110520Y-124934158D01*
X121785128Y-125021679D01*
X121574839Y-125097234D01*
X121553000Y-125108578D01*
X121369865Y-125177482D01*
X121099234Y-125241807D01*
X120960334Y-125265019D01*
X120171265Y-125383905D01*
X119509841Y-125500270D01*
X118934671Y-125621655D01*
X118721092Y-125672904D01*
X118330149Y-125761821D01*
X117926900Y-125840524D01*
X117607949Y-125890661D01*
X117134231Y-125949567D01*
X117126512Y-125678078D01*
X117156971Y-125521809D01*
X117255732Y-125245781D01*
X117425477Y-124843855D01*
X117668888Y-124309889D01*
X117988644Y-123637744D01*
X118266828Y-123066461D01*
X118619804Y-122346816D01*
X119009168Y-121552731D01*
X119411756Y-120731464D01*
X119804403Y-119930273D01*
X120163947Y-119196418D01*
X120409850Y-118694334D01*
X120668967Y-118165821D01*
X120988647Y-117514859D01*
X121354440Y-116770811D01*
X121751898Y-115963039D01*
X122166571Y-115120906D01*
X122584009Y-114273774D01*
X122989762Y-113451007D01*
X123118063Y-113191000D01*
X123573203Y-112269706D01*
X123959608Y-111487970D01*
X124282457Y-110833002D01*
X124546931Y-110292012D01*
X124758211Y-109852210D01*
X124921477Y-109500804D01*
X125041908Y-109225005D01*
X125124686Y-109012021D01*
X125174991Y-108849064D01*
X125198003Y-108723342D01*
X125198902Y-108622064D01*
X125182869Y-108532441D01*
X125155084Y-108441682D01*
X125120728Y-108336997D01*
X125105244Y-108284588D01*
X125039747Y-108076752D01*
X124923407Y-107734825D01*
X124764915Y-107283238D01*
X124572964Y-106746423D01*
X124356244Y-106148812D01*
X124123447Y-105514836D01*
X124034505Y-105274667D01*
X123795325Y-104628220D01*
X123566078Y-104004645D01*
X123355988Y-103429337D01*
X123174281Y-102927689D01*
X123030183Y-102525097D01*
X122932918Y-102246954D01*
X122911854Y-102184334D01*
X122782791Y-101807443D01*
X122642432Y-101419367D01*
X122536848Y-101144032D01*
X122419448Y-100837452D01*
X122370299Y-100654383D01*
X122388401Y-100563813D01*
X122472753Y-100534727D01*
X122517140Y-100533334D01*
X122632397Y-100586345D01*
X122757300Y-100759866D01*
X122907423Y-101075631D01*
X122909855Y-101081346D01*
X123142764Y-101629358D01*
X123513435Y-101594611D01*
X123781275Y-101561673D01*
X123997478Y-101521862D01*
X124040871Y-101510109D01*
X124309772Y-101503460D01*
X124541274Y-101632757D01*
X124680141Y-101865555D01*
X124685883Y-101888985D01*
X124751498Y-102106459D01*
X124863790Y-102406287D01*
X124978198Y-102677229D01*
X125128451Y-103043445D01*
X125284694Y-103471812D01*
X125395909Y-103814167D01*
X125494344Y-104107523D01*
X125587512Y-104324557D01*
X125657775Y-104425300D01*
X125666767Y-104428000D01*
X125716568Y-104479292D01*
X125704813Y-104507577D01*
X125712939Y-104624880D01*
X125795237Y-104814458D01*
X125822428Y-104861428D01*
X125921493Y-105052653D01*
X125956553Y-105180444D01*
X125952769Y-105194689D01*
X125961279Y-105297534D01*
X126017156Y-105515326D01*
X126108876Y-105804251D01*
X126126490Y-105855248D01*
X126230731Y-106187068D01*
X126305932Y-106490269D01*
X126336582Y-106701825D01*
X126336667Y-106709276D01*
X126372500Y-106951299D01*
X126466994Y-107285259D01*
X126600638Y-107652881D01*
X126753922Y-107995891D01*
X126791783Y-108068667D01*
X126930202Y-108390989D01*
X126966526Y-108691513D01*
X126898040Y-109019982D01*
X126722028Y-109426140D01*
X126717134Y-109435911D01*
X126574077Y-109746953D01*
X126469059Y-110024827D01*
X126422127Y-110215555D01*
X126421334Y-110232324D01*
X126390152Y-110389171D01*
X126332030Y-110439334D01*
X126266471Y-110515646D01*
X126132518Y-110744745D01*
X125930050Y-111126875D01*
X125658944Y-111662279D01*
X125319079Y-112351203D01*
X124910333Y-113193890D01*
X124432585Y-114190584D01*
X123885714Y-115341529D01*
X123821598Y-115477000D01*
X123620897Y-115897909D01*
X123358221Y-116443696D01*
X123046653Y-117087451D01*
X122699274Y-117802262D01*
X122329168Y-118561218D01*
X121949417Y-119337409D01*
X121573105Y-120103923D01*
X121501288Y-120249873D01*
X121162927Y-120938921D01*
X120848955Y-121581554D01*
X120567075Y-122161767D01*
X120324988Y-122663557D01*
X120130397Y-123070919D01*
X119991004Y-123367849D01*
X119914511Y-123538342D01*
X119902000Y-123573040D01*
X119919847Y-123617322D01*
X119985904Y-123635315D01*
X120118945Y-123622985D01*
X120337745Y-123576300D01*
X120661079Y-123491228D01*
X121107721Y-123363737D01*
X121696446Y-123189793D01*
X121722334Y-123182075D01*
X122065181Y-123089938D01*
X122519649Y-122982031D01*
X123030399Y-122870831D01*
X123542089Y-122768813D01*
X123620828Y-122754087D01*
X124090961Y-122660808D01*
X124533637Y-122561686D01*
X124906433Y-122466993D01*
X125166926Y-122386998D01*
X125215347Y-122368040D01*
X125474968Y-122271567D01*
X125695134Y-122214573D01*
X125758558Y-122208000D01*
X125899119Y-122188731D01*
X126169498Y-122135787D01*
X126535211Y-122056461D01*
X126961776Y-121958050D01*
X127127372Y-121918443D01*
X127605763Y-121806617D01*
X128073113Y-121703904D01*
X128481951Y-121620315D01*
X128784809Y-121565860D01*
X128833754Y-121558610D01*
X129141375Y-121502060D01*
X129310003Y-121431491D01*
X129368745Y-121342155D01*
X129333034Y-121178580D01*
X129207669Y-120958265D01*
X129031773Y-120734426D01*
X128844469Y-120560280D01*
X128754429Y-120506536D01*
X128532091Y-120392144D01*
X128421281Y-120324369D01*
X128289753Y-120260828D01*
X128227244Y-120314970D01*
X128223726Y-120324167D01*
X128118875Y-120431968D01*
X127953540Y-120425333D01*
X127762022Y-120330147D01*
X127578623Y-120172293D01*
X127437643Y-119977654D01*
X127373385Y-119772114D01*
X127378038Y-119686016D01*
X127368352Y-119457310D01*
X127300924Y-119256368D01*
X127184284Y-118898376D01*
X127208753Y-118715500D01*
X127951284Y-118715500D01*
X127961574Y-118866101D01*
X127991595Y-118860782D01*
X128030000Y-118779000D01*
X128091548Y-118615033D01*
X128108716Y-118546167D01*
X128050319Y-118484560D01*
X128030000Y-118482667D01*
X127970474Y-118555562D01*
X127951284Y-118715500D01*
X127208753Y-118715500D01*
X127228975Y-118564375D01*
X127438305Y-118236228D01*
X127498764Y-118171195D01*
X127724989Y-117890159D01*
X127819535Y-117633305D01*
X127825324Y-117568603D01*
X127881019Y-117361917D01*
X128008526Y-117129781D01*
X128169551Y-116925771D01*
X128325797Y-116803464D01*
X128382333Y-116789334D01*
X128462356Y-116856839D01*
X128568829Y-117021568D01*
X128580456Y-117043570D01*
X128651574Y-117207398D01*
X128668189Y-117361705D01*
X128629996Y-117570825D01*
X128577077Y-117761672D01*
X128490402Y-118023265D01*
X128407988Y-118212414D01*
X128363114Y-118274432D01*
X128283519Y-118363990D01*
X128359126Y-118425705D01*
X128576669Y-118448800D01*
X128577773Y-118448800D01*
X128787659Y-118419951D01*
X128908634Y-118348942D01*
X128913782Y-118338734D01*
X128999873Y-118239536D01*
X129140001Y-118272343D01*
X129345005Y-118442685D01*
X129545313Y-118661077D01*
X129831955Y-118951607D01*
X130173400Y-119239226D01*
X130391980Y-119393842D01*
X130703167Y-119604342D01*
X131009619Y-119833038D01*
X131184077Y-119977473D01*
X131396333Y-120142592D01*
X131579510Y-120244651D01*
X131644760Y-120260667D01*
X131732754Y-120247300D01*
X131686985Y-120186234D01*
X131623349Y-120136360D01*
X131527219Y-120041581D01*
X131562400Y-120012015D01*
X131705168Y-120044770D01*
X131931801Y-120136953D01*
X132033873Y-120186407D01*
X132279066Y-120311774D01*
X132399547Y-120390390D01*
X132420629Y-120454026D01*
X132367626Y-120534452D01*
X132338899Y-120569234D01*
X132276552Y-120661316D01*
X132323130Y-120685519D01*
X132506408Y-120656011D01*
X132508288Y-120655639D01*
X132728795Y-120637251D01*
X132881156Y-120668711D01*
X132889288Y-120674412D01*
X133023502Y-120701905D01*
X133283324Y-120690867D01*
X133575667Y-120651840D01*
X134168334Y-120553575D01*
X134171792Y-120472334D01*
X139883334Y-120472334D01*
X139925667Y-120514667D01*
X139968000Y-120472334D01*
X139925667Y-120430000D01*
X139883334Y-120472334D01*
X134171792Y-120472334D01*
X134218724Y-119369954D01*
X134240498Y-118898950D01*
X134264251Y-118451618D01*
X134282004Y-118161230D01*
X134485724Y-118161230D01*
X134486410Y-118338680D01*
X134506408Y-118360033D01*
X134558842Y-118238412D01*
X134559975Y-118235481D01*
X134595216Y-118049160D01*
X134564911Y-117956378D01*
X134513421Y-117975640D01*
X134486748Y-118129090D01*
X134485724Y-118161230D01*
X134282004Y-118161230D01*
X134287351Y-118073771D01*
X134307162Y-117811221D01*
X134310125Y-117780244D01*
X134320702Y-117534688D01*
X134301439Y-117367390D01*
X134280590Y-117330555D01*
X134245301Y-117225481D01*
X134262030Y-117079832D01*
X134258987Y-116844849D01*
X134169498Y-116568161D01*
X134086454Y-116325005D01*
X134065899Y-116113467D01*
X134071298Y-116081974D01*
X134244103Y-115488575D01*
X134403738Y-115084677D01*
X135384091Y-115084677D01*
X135405734Y-115270878D01*
X135430770Y-115392334D01*
X135497028Y-115617973D01*
X135563979Y-115754623D01*
X135590289Y-115773334D01*
X135629778Y-115707576D01*
X135617393Y-115625167D01*
X135564232Y-115429989D01*
X135517842Y-115244167D01*
X135459145Y-115076018D01*
X135402342Y-115011334D01*
X135384091Y-115084677D01*
X134403738Y-115084677D01*
X134422057Y-115038329D01*
X134601179Y-114738991D01*
X134777490Y-114598317D01*
X134837835Y-114588000D01*
X134983918Y-114528376D01*
X135057333Y-114461000D01*
X135256814Y-114343133D01*
X135533788Y-114340412D01*
X135849422Y-114444931D01*
X136164883Y-114648783D01*
X136221500Y-114698006D01*
X136313043Y-114798039D01*
X136369452Y-114921505D01*
X136398850Y-115108990D01*
X136409356Y-115401080D01*
X136409980Y-115639925D01*
X136400510Y-116023889D01*
X136377037Y-116378496D01*
X136343979Y-116644133D01*
X136331063Y-116704667D01*
X136196284Y-117153225D01*
X136053798Y-117502902D01*
X135916308Y-117724344D01*
X135871660Y-117766163D01*
X135816151Y-117831262D01*
X135777562Y-117949554D01*
X135753053Y-118147934D01*
X135739783Y-118453295D01*
X135734915Y-118892532D01*
X135734667Y-119063501D01*
X135740288Y-119598295D01*
X135757531Y-119971299D01*
X135786959Y-120189695D01*
X135829020Y-120260667D01*
X135940605Y-120242529D01*
X136186281Y-120192507D01*
X136535231Y-120117187D01*
X136956639Y-120023156D01*
X137204853Y-119966602D01*
X137679382Y-119860427D01*
X138124217Y-119765825D01*
X138500090Y-119690796D01*
X138767729Y-119643341D01*
X138841010Y-119633266D01*
X139117990Y-119578129D01*
X139354055Y-119491471D01*
X139391343Y-119470480D01*
X139616017Y-119352454D01*
X139775224Y-119290833D01*
X139883718Y-119269672D01*
X139937080Y-119314861D01*
X139951117Y-119462966D01*
X139944558Y-119682494D01*
X139925667Y-120130288D01*
X140264334Y-120179492D01*
X140559273Y-120247432D01*
X140831292Y-120348270D01*
X140857000Y-120361094D01*
X141049601Y-120442099D01*
X141354584Y-120549087D01*
X141720666Y-120664596D01*
X141915334Y-120721433D01*
X142349563Y-120849344D01*
X142804103Y-120991083D01*
X143200255Y-121121893D01*
X143306466Y-121159052D01*
X143544659Y-121239052D01*
X143917311Y-121357798D01*
X144396318Y-121506634D01*
X144953575Y-121676905D01*
X145560977Y-121859956D01*
X146185133Y-122045571D01*
X146947782Y-122271121D01*
X147813630Y-122527729D01*
X148723662Y-122797868D01*
X149618861Y-123064015D01*
X150440211Y-123308645D01*
X150783692Y-123411126D01*
X151379092Y-123586759D01*
X151920867Y-123742483D01*
X152388125Y-123872619D01*
X152759972Y-123971490D01*
X153015514Y-124033419D01*
X153133859Y-124052729D01*
X153139062Y-124051161D01*
X153135047Y-123953061D01*
X153071055Y-123756337D01*
X153012537Y-123617886D01*
X152910650Y-123377766D01*
X152847466Y-123197158D01*
X152837334Y-123145592D01*
X152765782Y-123063333D01*
X152603529Y-123000810D01*
X152429179Y-122980911D01*
X152345461Y-123002366D01*
X152244564Y-122991238D01*
X152102743Y-122848110D01*
X151911285Y-122562883D01*
X151793326Y-122362257D01*
X151639064Y-122071001D01*
X151575644Y-121859054D01*
X151617630Y-121694782D01*
X151779587Y-121546549D01*
X152076078Y-121382721D01*
X152292007Y-121279100D01*
X152613042Y-121131111D01*
X152876423Y-121015515D01*
X153044812Y-120948409D01*
X153083218Y-120938000D01*
X153183789Y-120881554D01*
X153303000Y-120768667D01*
X153480752Y-120640062D01*
X153666925Y-120599266D01*
X153808249Y-120647385D01*
X153853334Y-120757249D01*
X153903745Y-120933486D01*
X154022667Y-121130437D01*
X154141834Y-121317376D01*
X154191995Y-121466470D01*
X154192000Y-121467399D01*
X154250296Y-121611840D01*
X154361334Y-121742334D01*
X154497042Y-121894173D01*
X154520450Y-121984390D01*
X154431657Y-121986011D01*
X154360550Y-121953581D01*
X154246595Y-121908428D01*
X154206589Y-121966385D01*
X154212384Y-122141051D01*
X154207889Y-122338398D01*
X154131976Y-122425493D01*
X154043834Y-122446671D01*
X153888831Y-122503821D01*
X153872426Y-122623594D01*
X153993217Y-122824420D01*
X154013106Y-122850076D01*
X154138254Y-123074742D01*
X154227912Y-123348298D01*
X154232556Y-123371430D01*
X154305373Y-123631649D01*
X154426641Y-123950483D01*
X154510897Y-124136294D01*
X154729560Y-124582921D01*
X155582613Y-124842043D01*
X155984068Y-124966141D01*
X156366327Y-125088043D01*
X156674031Y-125189927D01*
X156797388Y-125233139D01*
X157022050Y-125303513D01*
X157172829Y-125329204D01*
X157201682Y-125322540D01*
X157195383Y-125227538D01*
X157132966Y-125030489D01*
X157072310Y-124878833D01*
X156962971Y-124608852D01*
X156824125Y-124245322D01*
X156681074Y-123854910D01*
X156642005Y-123745016D01*
X156503953Y-123405227D01*
X156300200Y-122969531D01*
X156054505Y-122485797D01*
X155790627Y-122001892D01*
X155689990Y-121827000D01*
X155361058Y-121255132D01*
X155116146Y-120804602D01*
X154945927Y-120455468D01*
X154841074Y-120187788D01*
X154792261Y-119981618D01*
X154785942Y-119893938D01*
X154757220Y-119761386D01*
X154677783Y-119494850D01*
X154556306Y-119118923D01*
X154401465Y-118658200D01*
X154221936Y-118137273D01*
X154026394Y-117580735D01*
X153823514Y-117013178D01*
X153621974Y-116459198D01*
X153430448Y-115943385D01*
X153257613Y-115490334D01*
X153112143Y-115124637D01*
X153057106Y-114993220D01*
X152927052Y-114766002D01*
X152777034Y-114604156D01*
X152747340Y-114585149D01*
X152630497Y-114487215D01*
X152663200Y-114382117D01*
X152694506Y-114266489D01*
X152647521Y-114064577D01*
X152528097Y-113774188D01*
X152360570Y-113433091D01*
X152177941Y-113134531D01*
X151936598Y-112810260D01*
X151818432Y-112663668D01*
X151743405Y-112535735D01*
X151630020Y-112302478D01*
X151508979Y-112028668D01*
X151371827Y-111728949D01*
X151236231Y-111472749D01*
X151141060Y-111328334D01*
X151017783Y-111159232D01*
X150857340Y-110909362D01*
X150756772Y-110740384D01*
X150555497Y-110264540D01*
X150518397Y-109814101D01*
X150644796Y-109375764D01*
X150683657Y-109299343D01*
X150819010Y-109012859D01*
X150956384Y-108666719D01*
X151016212Y-108492000D01*
X151124156Y-108170557D01*
X151236561Y-107864086D01*
X151290544Y-107730000D01*
X151390502Y-107475125D01*
X151506108Y-107151283D01*
X151567186Y-106968000D01*
X151642473Y-106753024D01*
X151742164Y-106505892D01*
X151875883Y-106206272D01*
X152053251Y-105833833D01*
X152283892Y-105368243D01*
X152577430Y-104789172D01*
X152849536Y-104258667D01*
X153140265Y-103681259D01*
X153356343Y-103224516D01*
X153494004Y-102896796D01*
X153549482Y-102706454D01*
X153549674Y-102704639D01*
X153480545Y-102640504D01*
X153292479Y-102542766D01*
X153034719Y-102435935D01*
X152729074Y-102313305D01*
X152461987Y-102192812D01*
X152315052Y-102114441D01*
X152090559Y-102009041D01*
X151824912Y-101929604D01*
X151821334Y-101928868D01*
X151598808Y-101870258D01*
X151449219Y-101807433D01*
X151440334Y-101801082D01*
X151330774Y-101745349D01*
X151098157Y-101645542D01*
X150778178Y-101516504D01*
X150457891Y-101392541D01*
X149989727Y-101208006D01*
X149480395Y-100996690D01*
X149009508Y-100792010D01*
X148806891Y-100699582D01*
X148343870Y-100493674D01*
X147795853Y-100269867D01*
X147142889Y-100020515D01*
X146365027Y-99737973D01*
X145556530Y-99454140D01*
X145241866Y-99336677D01*
X144984014Y-99225138D01*
X144830442Y-99140406D01*
X144816470Y-99128565D01*
X144669641Y-99034202D01*
X144442203Y-98936230D01*
X144392607Y-98919239D01*
X144121623Y-98821485D01*
X143797964Y-98692088D01*
X143651000Y-98629214D01*
X143310835Y-98512730D01*
X142912171Y-98447306D01*
X142508000Y-98424461D01*
X142071708Y-98400816D01*
X141788845Y-98350357D01*
X141644431Y-98263919D01*
X141623484Y-98132338D01*
X141711022Y-97946450D01*
X141715375Y-97939615D01*
X141853273Y-97739227D01*
X141969834Y-97593121D01*
X141971637Y-97591218D01*
X142035848Y-97452903D01*
X142095450Y-97207403D01*
X142126494Y-96998551D01*
X142224263Y-96552299D01*
X142414569Y-96051378D01*
X142486887Y-95899646D01*
X142793254Y-95287626D01*
X142542313Y-94968313D01*
X142353119Y-94717563D01*
X142182876Y-94475894D01*
X142140753Y-94411616D01*
X141993753Y-94230583D01*
X141849058Y-94124613D01*
X141846900Y-94123833D01*
X141681572Y-94031801D01*
X141506360Y-93895550D01*
X141326128Y-93780863D01*
X141078810Y-93725677D01*
X140828303Y-93714132D01*
X140545341Y-93701313D01*
X140325456Y-93672042D01*
X140242444Y-93645635D01*
X140179003Y-93519814D01*
X140149502Y-93272059D01*
X140150188Y-92945521D01*
X140177306Y-92583351D01*
X140227102Y-92228698D01*
X140295822Y-91924714D01*
X140379712Y-91714550D01*
X140414450Y-91668598D01*
X140544608Y-91603546D01*
X140765227Y-91606061D01*
G36*
X164014477Y-118906328D02*
X164273569Y-119026812D01*
X164591289Y-119239188D01*
X164919658Y-119503780D01*
X165210701Y-119780914D01*
X165416443Y-120030916D01*
X165456486Y-120098820D01*
X165646266Y-120653340D01*
X165679519Y-121251411D01*
X165621033Y-121628373D01*
X165399302Y-122274691D01*
X165066767Y-122794104D01*
X164621018Y-123189803D01*
X164310283Y-123363589D01*
X164004390Y-123488065D01*
X163736916Y-123541250D01*
X163437752Y-123529604D01*
X163109635Y-123474243D01*
X162606248Y-123318311D01*
X162171829Y-123074749D01*
X161839614Y-122767421D01*
X161643235Y-122421387D01*
X161512490Y-121861782D01*
X161467846Y-121272358D01*
X161489640Y-120941376D01*
X161916078Y-120941376D01*
X161921379Y-121444548D01*
X162001345Y-121920298D01*
X162144352Y-122323499D01*
X162338774Y-122609022D01*
X162347939Y-122617811D01*
X162635557Y-122815459D01*
X163019001Y-122985581D01*
X163424761Y-123100464D01*
X163717000Y-123133980D01*
X164049341Y-123084285D01*
X164383865Y-122953212D01*
X164394334Y-122947441D01*
X164665533Y-122742202D01*
X164887100Y-122439272D01*
X164965257Y-122292667D01*
X165198344Y-121686518D01*
X165269539Y-121129383D01*
X165179437Y-120623164D01*
X164928632Y-120169768D01*
X164517720Y-119771098D01*
X164094501Y-119503633D01*
X163809726Y-119358546D01*
X163612384Y-119286318D01*
X163443465Y-119274797D01*
X163243957Y-119311827D01*
X163207358Y-119320915D01*
X162711092Y-119495097D01*
X162349446Y-119745001D01*
X162105706Y-120091599D01*
X161963161Y-120555863D01*
X161916078Y-120941376D01*
X161489640Y-120941376D01*
X161505756Y-120696642D01*
X161622672Y-120178162D01*
X161815048Y-119760448D01*
X161865972Y-119687933D01*
X162147440Y-119421353D01*
X162535739Y-119188409D01*
X162980259Y-119007511D01*
X163430393Y-118897071D01*
X163835530Y-118875499D01*
X164014477Y-118906328D01*
X164014477Y-118906328D01*
G37*
X164014477Y-118906328D02*
X164273569Y-119026812D01*
X164591289Y-119239188D01*
X164919658Y-119503780D01*
X165210701Y-119780914D01*
X165416443Y-120030916D01*
X165456486Y-120098820D01*
X165646266Y-120653340D01*
X165679519Y-121251411D01*
X165621033Y-121628373D01*
X165399302Y-122274691D01*
X165066767Y-122794104D01*
X164621018Y-123189803D01*
X164310283Y-123363589D01*
X164004390Y-123488065D01*
X163736916Y-123541250D01*
X163437752Y-123529604D01*
X163109635Y-123474243D01*
X162606248Y-123318311D01*
X162171829Y-123074749D01*
X161839614Y-122767421D01*
X161643235Y-122421387D01*
X161512490Y-121861782D01*
X161467846Y-121272358D01*
X161489640Y-120941376D01*
X161916078Y-120941376D01*
X161921379Y-121444548D01*
X162001345Y-121920298D01*
X162144352Y-122323499D01*
X162338774Y-122609022D01*
X162347939Y-122617811D01*
X162635557Y-122815459D01*
X163019001Y-122985581D01*
X163424761Y-123100464D01*
X163717000Y-123133980D01*
X164049341Y-123084285D01*
X164383865Y-122953212D01*
X164394334Y-122947441D01*
X164665533Y-122742202D01*
X164887100Y-122439272D01*
X164965257Y-122292667D01*
X165198344Y-121686518D01*
X165269539Y-121129383D01*
X165179437Y-120623164D01*
X164928632Y-120169768D01*
X164517720Y-119771098D01*
X164094501Y-119503633D01*
X163809726Y-119358546D01*
X163612384Y-119286318D01*
X163443465Y-119274797D01*
X163243957Y-119311827D01*
X163207358Y-119320915D01*
X162711092Y-119495097D01*
X162349446Y-119745001D01*
X162105706Y-120091599D01*
X161963161Y-120555863D01*
X161916078Y-120941376D01*
X161489640Y-120941376D01*
X161505756Y-120696642D01*
X161622672Y-120178162D01*
X161815048Y-119760448D01*
X161865972Y-119687933D01*
X162147440Y-119421353D01*
X162535739Y-119188409D01*
X162980259Y-119007511D01*
X163430393Y-118897071D01*
X163835530Y-118875499D01*
X164014477Y-118906328D01*
G36*
X150343269Y-114984278D02*
X150538690Y-115130383D01*
X150636000Y-115223000D01*
X150903154Y-115440572D01*
X151139308Y-115519299D01*
X151143676Y-115519334D01*
X151293387Y-115540529D01*
X151354033Y-115637812D01*
X151364134Y-115810627D01*
X151410212Y-116056315D01*
X151535047Y-116398133D01*
X151718537Y-116794730D01*
X151940583Y-117204755D01*
X152181082Y-117586857D01*
X152321217Y-117779530D01*
X152491953Y-118020533D01*
X152547318Y-118160099D01*
X152511641Y-118209793D01*
X152416994Y-118263047D01*
X152250202Y-118387801D01*
X151997144Y-118595552D01*
X151643698Y-118897798D01*
X151313334Y-119185452D01*
X150929706Y-119500111D01*
X150633910Y-119687944D01*
X150407090Y-119753622D01*
X150230391Y-119701815D01*
X150084956Y-119537196D01*
X150060562Y-119495800D01*
X149928294Y-119318453D01*
X149790668Y-119279044D01*
X149747000Y-119288546D01*
X149549275Y-119334911D01*
X149290731Y-119382401D01*
X149260167Y-119387227D01*
X149032356Y-119399057D01*
X148950460Y-119337009D01*
X149012998Y-119194454D01*
X149175500Y-119008220D01*
X149316112Y-118867872D01*
X149386276Y-118805971D01*
X149387901Y-118808594D01*
X149415071Y-118909235D01*
X149535723Y-119015846D01*
X149685101Y-119074119D01*
X149705975Y-119075334D01*
X149863695Y-119000160D01*
X149949349Y-118797166D01*
X149958667Y-118678350D01*
X149904373Y-118588558D01*
X149830620Y-118598353D01*
X149743227Y-118600615D01*
X149744343Y-118483362D01*
X149753060Y-118446333D01*
X149741151Y-118271519D01*
X149661259Y-117999932D01*
X149532317Y-117671456D01*
X149373259Y-117325973D01*
X149203020Y-117003368D01*
X149040532Y-116743525D01*
X148904729Y-116586326D01*
X148857432Y-116559717D01*
X148735957Y-116456158D01*
X148704470Y-116269307D01*
X148751218Y-116051238D01*
X148864450Y-115854020D01*
X149032414Y-115729726D01*
X149045781Y-115725145D01*
X149191233Y-115643941D01*
X149409906Y-115483167D01*
X149628425Y-115300184D01*
X149866279Y-115108032D01*
X150074220Y-114973220D01*
X150198884Y-114926667D01*
X150343269Y-114984278D01*
X150343269Y-114984278D01*
G37*
X150343269Y-114984278D02*
X150538690Y-115130383D01*
X150636000Y-115223000D01*
X150903154Y-115440572D01*
X151139308Y-115519299D01*
X151143676Y-115519334D01*
X151293387Y-115540529D01*
X151354033Y-115637812D01*
X151364134Y-115810627D01*
X151410212Y-116056315D01*
X151535047Y-116398133D01*
X151718537Y-116794730D01*
X151940583Y-117204755D01*
X152181082Y-117586857D01*
X152321217Y-117779530D01*
X152491953Y-118020533D01*
X152547318Y-118160099D01*
X152511641Y-118209793D01*
X152416994Y-118263047D01*
X152250202Y-118387801D01*
X151997144Y-118595552D01*
X151643698Y-118897798D01*
X151313334Y-119185452D01*
X150929706Y-119500111D01*
X150633910Y-119687944D01*
X150407090Y-119753622D01*
X150230391Y-119701815D01*
X150084956Y-119537196D01*
X150060562Y-119495800D01*
X149928294Y-119318453D01*
X149790668Y-119279044D01*
X149747000Y-119288546D01*
X149549275Y-119334911D01*
X149290731Y-119382401D01*
X149260167Y-119387227D01*
X149032356Y-119399057D01*
X148950460Y-119337009D01*
X149012998Y-119194454D01*
X149175500Y-119008220D01*
X149316112Y-118867872D01*
X149386276Y-118805971D01*
X149387901Y-118808594D01*
X149415071Y-118909235D01*
X149535723Y-119015846D01*
X149685101Y-119074119D01*
X149705975Y-119075334D01*
X149863695Y-119000160D01*
X149949349Y-118797166D01*
X149958667Y-118678350D01*
X149904373Y-118588558D01*
X149830620Y-118598353D01*
X149743227Y-118600615D01*
X149744343Y-118483362D01*
X149753060Y-118446333D01*
X149741151Y-118271519D01*
X149661259Y-117999932D01*
X149532317Y-117671456D01*
X149373259Y-117325973D01*
X149203020Y-117003368D01*
X149040532Y-116743525D01*
X148904729Y-116586326D01*
X148857432Y-116559717D01*
X148735957Y-116456158D01*
X148704470Y-116269307D01*
X148751218Y-116051238D01*
X148864450Y-115854020D01*
X149032414Y-115729726D01*
X149045781Y-115725145D01*
X149191233Y-115643941D01*
X149409906Y-115483167D01*
X149628425Y-115300184D01*
X149866279Y-115108032D01*
X150074220Y-114973220D01*
X150198884Y-114926667D01*
X150343269Y-114984278D01*
G36*
X131753239Y-96321219D02*
X131932812Y-96384142D01*
X132205382Y-96508899D01*
X132593559Y-96704111D01*
X132797458Y-96809680D01*
X133319429Y-97090986D01*
X133728679Y-97337460D01*
X134069049Y-97578787D01*
X134384378Y-97844650D01*
X134538463Y-97988496D01*
X134811497Y-98239485D01*
X135048697Y-98438532D01*
X135218632Y-98560287D01*
X135279296Y-98586000D01*
X135384932Y-98650527D01*
X135396000Y-98697993D01*
X135465821Y-98797530D01*
X135643845Y-98926895D01*
X135773820Y-98998677D01*
X136024824Y-99110118D01*
X136213757Y-99142350D01*
X136422327Y-99105617D01*
X136484177Y-99087739D01*
X136758870Y-99042639D01*
X137050235Y-99050689D01*
X137303590Y-99103886D01*
X137464257Y-99194226D01*
X137489046Y-99234803D01*
X137428079Y-99291971D01*
X137223964Y-99345182D01*
X136902884Y-99391015D01*
X136491022Y-99426051D01*
X136014564Y-99446870D01*
X135840500Y-99450126D01*
X135530828Y-99466701D01*
X135351816Y-99503355D01*
X135315492Y-99554193D01*
X135433885Y-99613318D01*
X135480667Y-99626532D01*
X135618160Y-99705268D01*
X135650000Y-99773145D01*
X135600926Y-99818064D01*
X135446415Y-99742068D01*
X135441312Y-99738738D01*
X135232580Y-99637281D01*
X135069990Y-99602000D01*
X134879909Y-99563597D01*
X134664845Y-99475522D01*
X134451575Y-99385481D01*
X134285105Y-99348522D01*
X134145159Y-99315475D01*
X133900237Y-99228554D01*
X133778297Y-99178667D01*
X135480667Y-99178667D01*
X135511645Y-99248357D01*
X135537111Y-99235111D01*
X135547244Y-99134632D01*
X135537111Y-99122222D01*
X135486777Y-99133845D01*
X135480667Y-99178667D01*
X133778297Y-99178667D01*
X133598909Y-99105278D01*
X133543316Y-99080972D01*
X133221468Y-98928852D01*
X133024818Y-98804565D01*
X132918288Y-98681302D01*
X132875755Y-98570813D01*
X132726765Y-98322882D01*
X132455535Y-98114662D01*
X132098317Y-97901643D01*
X131232531Y-98730655D01*
X130866889Y-99081079D01*
X130495862Y-99437199D01*
X130160783Y-99759313D01*
X129902981Y-100007718D01*
X129884742Y-100025334D01*
X129402739Y-100491000D01*
X129347377Y-101591667D01*
X129313438Y-102123520D01*
X129264734Y-102705243D01*
X129208409Y-103257974D01*
X129163859Y-103617672D01*
X129035703Y-104543010D01*
X129543957Y-105051263D01*
X130052210Y-105559517D01*
X130226438Y-105353592D01*
X130400667Y-105147667D01*
X130570000Y-105347547D01*
X130693706Y-105558078D01*
X130739334Y-105749713D01*
X130781536Y-105907912D01*
X130856686Y-105952000D01*
X130962537Y-106022370D01*
X131084328Y-106198177D01*
X131120158Y-106269500D01*
X131238912Y-106462868D01*
X131433546Y-106714001D01*
X131674163Y-106991293D01*
X131930868Y-107263136D01*
X132173765Y-107497923D01*
X132372960Y-107664046D01*
X132498556Y-107729899D01*
X132501559Y-107730000D01*
X132627368Y-107674739D01*
X132837701Y-107527568D01*
X133101330Y-107316402D01*
X133387030Y-107069157D01*
X133663574Y-106813751D01*
X133899735Y-106578098D01*
X134064285Y-106390116D01*
X134126000Y-106277774D01*
X134193077Y-106205551D01*
X134368189Y-106078325D01*
X134591667Y-105936966D01*
X134832700Y-105776908D01*
X135000962Y-105634817D01*
X135057334Y-105549124D01*
X135131117Y-105425243D01*
X135312984Y-105343676D01*
X135543712Y-105320622D01*
X135741223Y-105362049D01*
X136002402Y-105414052D01*
X136329950Y-105403027D01*
X136352294Y-105399847D01*
X136707519Y-105376136D01*
X136958463Y-105420958D01*
X137081106Y-105528577D01*
X137089334Y-105575842D01*
X137062146Y-105645112D01*
X136973656Y-105762332D01*
X136813471Y-105937917D01*
X136571197Y-106182277D01*
X136236443Y-106505826D01*
X135798815Y-106918977D01*
X135247920Y-107432141D01*
X135096792Y-107572177D01*
X134731434Y-107910747D01*
X134345899Y-108268517D01*
X133992975Y-108596476D01*
X133784459Y-108790585D01*
X133237000Y-109300836D01*
X133279334Y-109933585D01*
X133321667Y-110566334D01*
X133900675Y-110591540D01*
X134213987Y-110612774D01*
X134384893Y-110647000D01*
X134440219Y-110701387D01*
X134434598Y-110734236D01*
X134449169Y-110858557D01*
X134490590Y-110888947D01*
X134542153Y-110950703D01*
X134475250Y-111042584D01*
X134372222Y-111112768D01*
X134320028Y-111053167D01*
X134215993Y-110949064D01*
X134060986Y-110955827D01*
X133906342Y-111049385D01*
X133803395Y-111205669D01*
X133787334Y-111302934D01*
X133834871Y-111433509D01*
X133950045Y-111433726D01*
X134088577Y-111307300D01*
X134198670Y-111203285D01*
X134253844Y-111236860D01*
X134240071Y-111381293D01*
X134193833Y-111507892D01*
X134081117Y-111700780D01*
X133918774Y-111912868D01*
X133748175Y-112096879D01*
X133610690Y-112205538D01*
X133573001Y-112217334D01*
X133547550Y-112147652D01*
X133568101Y-112005667D01*
X133621226Y-111794000D01*
X132963447Y-111799951D01*
X132590635Y-111812280D01*
X132315264Y-111837786D01*
X132150271Y-111870571D01*
X132108593Y-111904735D01*
X132203165Y-111934380D01*
X132446926Y-111953608D01*
X132618170Y-111957383D01*
X132934085Y-111969662D01*
X133179474Y-111996766D01*
X133309352Y-112033307D01*
X133317409Y-112041111D01*
X133289942Y-112114863D01*
X133129197Y-112167974D01*
X132870498Y-112195525D01*
X132549170Y-112192600D01*
X132352243Y-112175493D01*
X131857934Y-112118122D01*
X130727134Y-113030831D01*
X129885006Y-113712915D01*
X129108744Y-114346396D01*
X128409021Y-114922376D01*
X127796510Y-115431960D01*
X127281883Y-115866253D01*
X126875814Y-116216358D01*
X126588975Y-116473380D01*
X126527540Y-116531225D01*
X126474489Y-116608133D01*
X126442601Y-116735365D01*
X126430169Y-116942278D01*
X126435489Y-117258225D01*
X126456853Y-117712559D01*
X126457830Y-117730598D01*
X126516348Y-118807080D01*
X126278341Y-119067611D01*
X126091623Y-119234423D01*
X125874283Y-119329015D01*
X125567519Y-119381080D01*
X125291311Y-119405015D01*
X125124310Y-119387867D01*
X125008286Y-119313847D01*
X124913577Y-119203754D01*
X124772167Y-118954469D01*
X124769332Y-118945603D01*
X125094394Y-118945603D01*
X125188406Y-119065769D01*
X125328929Y-119149336D01*
X125392182Y-119160000D01*
X125464380Y-119138018D01*
X125416737Y-119053007D01*
X125341834Y-118974204D01*
X125197127Y-118861369D01*
X125101669Y-118843063D01*
X125099287Y-118845158D01*
X125094394Y-118945603D01*
X124769332Y-118945603D01*
X124681738Y-118671724D01*
X124680499Y-118664578D01*
X124632416Y-118408657D01*
X124585174Y-118200751D01*
X124581625Y-118187724D01*
X124541652Y-118075167D01*
X124502217Y-118112742D01*
X124464746Y-118208891D01*
X124378321Y-118355331D01*
X124307395Y-118398000D01*
X124225083Y-118343310D01*
X124256770Y-118196751D01*
X124395143Y-117984593D01*
X124436316Y-117935041D01*
X124588484Y-117693921D01*
X124609468Y-117511708D01*
X124599136Y-117315335D01*
X124630233Y-117060176D01*
X124637776Y-117024666D01*
X124669164Y-116781036D01*
X124618898Y-116638842D01*
X124591520Y-116612132D01*
X124491317Y-116485899D01*
X124511498Y-116350462D01*
X124663341Y-116180730D01*
X124854067Y-116028033D01*
X125073930Y-115844039D01*
X125232511Y-115675729D01*
X125281056Y-115595422D01*
X125375319Y-115449942D01*
X125550130Y-115274769D01*
X125599489Y-115234180D01*
X125892437Y-115001867D01*
X126291244Y-114682626D01*
X126772282Y-114295623D01*
X127311921Y-113860027D01*
X127886535Y-113395004D01*
X128472493Y-112919721D01*
X129046168Y-112453344D01*
X129583931Y-112015042D01*
X130062154Y-111623981D01*
X130457208Y-111299329D01*
X130745464Y-111060251D01*
X130760500Y-111047661D01*
X131501334Y-110426843D01*
X131498982Y-109903922D01*
X131488651Y-109600308D01*
X131446898Y-109403153D01*
X131352483Y-109249889D01*
X131235257Y-109127000D01*
X131005710Y-108886073D01*
X130786630Y-108629433D01*
X130761893Y-108597834D01*
X130600258Y-108423897D01*
X130458100Y-108328743D01*
X130427954Y-108322667D01*
X130344916Y-108283805D01*
X130351966Y-108248304D01*
X130318435Y-108157498D01*
X130186182Y-107991575D01*
X129988330Y-107790813D01*
X129706505Y-107511763D01*
X129418507Y-107202681D01*
X129259836Y-107018510D01*
X129005282Y-106754114D01*
X128797255Y-106635257D01*
X128749835Y-106629334D01*
X128550246Y-106576053D01*
X128453334Y-106502334D01*
X128275602Y-106410991D01*
X127944071Y-106375727D01*
X127895612Y-106375334D01*
X127636424Y-106362880D01*
X127458154Y-106308709D01*
X127348668Y-106187611D01*
X127332248Y-106121334D01*
X127606667Y-106121334D01*
X127637645Y-106191024D01*
X127663111Y-106177778D01*
X127673244Y-106077298D01*
X127663111Y-106064889D01*
X127612777Y-106076511D01*
X127606667Y-106121334D01*
X127332248Y-106121334D01*
X127295836Y-105974372D01*
X127293146Y-105867334D01*
X127437334Y-105867334D01*
X127468312Y-105937024D01*
X127493778Y-105923778D01*
X127503911Y-105823298D01*
X127493778Y-105810889D01*
X127443444Y-105822511D01*
X127437334Y-105867334D01*
X127293146Y-105867334D01*
X127287527Y-105643779D01*
X127291230Y-105571000D01*
X127522000Y-105571000D01*
X127564334Y-105613334D01*
X127606667Y-105571000D01*
X127564334Y-105528667D01*
X127522000Y-105571000D01*
X127291230Y-105571000D01*
X127299849Y-105401667D01*
X127437334Y-105401667D01*
X127479667Y-105444000D01*
X127522000Y-105401667D01*
X127479667Y-105359334D01*
X127437334Y-105401667D01*
X127299849Y-105401667D01*
X127311609Y-105170622D01*
X127312129Y-105162702D01*
X127340571Y-104793175D01*
X127371931Y-104485904D01*
X127401693Y-104280891D01*
X127418506Y-104220634D01*
X127447564Y-104161465D01*
X127472827Y-104069536D01*
X127498522Y-103916109D01*
X127528876Y-103672449D01*
X127568116Y-103309819D01*
X127604558Y-102955859D01*
X127648105Y-102590047D01*
X127696051Y-102284658D01*
X127741274Y-102081129D01*
X127764614Y-102024526D01*
X127820531Y-101889036D01*
X127876406Y-101654065D01*
X127897602Y-101527537D01*
X127922926Y-101270824D01*
X127898193Y-101133531D01*
X127823616Y-101073978D01*
X127708147Y-100983389D01*
X127691334Y-100933108D01*
X127639799Y-100806785D01*
X127543167Y-100675797D01*
X127452728Y-100540338D01*
X127495212Y-100473650D01*
X127500834Y-100471575D01*
X127592134Y-100366497D01*
X127606667Y-100287037D01*
X127665083Y-100132556D01*
X127807606Y-99952334D01*
X127826378Y-99934259D01*
X128018782Y-99718775D01*
X128167219Y-99496167D01*
X128280667Y-99332325D01*
X128384474Y-99263340D01*
X128385229Y-99263334D01*
X128486158Y-99208382D01*
X128674747Y-99061288D01*
X128917969Y-98848688D01*
X129041284Y-98734167D01*
X129384655Y-98415046D01*
X129770192Y-98065553D01*
X130120378Y-97755869D01*
X130154084Y-97726668D01*
X130483170Y-97410490D01*
X130760372Y-97084808D01*
X130921703Y-96837668D01*
X131074160Y-96583002D01*
X131204474Y-96463066D01*
X131310199Y-96445695D01*
X131498801Y-96408682D01*
X131582642Y-96346379D01*
X131644053Y-96311506D01*
X131753239Y-96321219D01*
X131753239Y-96321219D01*
G37*
X131753239Y-96321219D02*
X131932812Y-96384142D01*
X132205382Y-96508899D01*
X132593559Y-96704111D01*
X132797458Y-96809680D01*
X133319429Y-97090986D01*
X133728679Y-97337460D01*
X134069049Y-97578787D01*
X134384378Y-97844650D01*
X134538463Y-97988496D01*
X134811497Y-98239485D01*
X135048697Y-98438532D01*
X135218632Y-98560287D01*
X135279296Y-98586000D01*
X135384932Y-98650527D01*
X135396000Y-98697993D01*
X135465821Y-98797530D01*
X135643845Y-98926895D01*
X135773820Y-98998677D01*
X136024824Y-99110118D01*
X136213757Y-99142350D01*
X136422327Y-99105617D01*
X136484177Y-99087739D01*
X136758870Y-99042639D01*
X137050235Y-99050689D01*
X137303590Y-99103886D01*
X137464257Y-99194226D01*
X137489046Y-99234803D01*
X137428079Y-99291971D01*
X137223964Y-99345182D01*
X136902884Y-99391015D01*
X136491022Y-99426051D01*
X136014564Y-99446870D01*
X135840500Y-99450126D01*
X135530828Y-99466701D01*
X135351816Y-99503355D01*
X135315492Y-99554193D01*
X135433885Y-99613318D01*
X135480667Y-99626532D01*
X135618160Y-99705268D01*
X135650000Y-99773145D01*
X135600926Y-99818064D01*
X135446415Y-99742068D01*
X135441312Y-99738738D01*
X135232580Y-99637281D01*
X135069990Y-99602000D01*
X134879909Y-99563597D01*
X134664845Y-99475522D01*
X134451575Y-99385481D01*
X134285105Y-99348522D01*
X134145159Y-99315475D01*
X133900237Y-99228554D01*
X133778297Y-99178667D01*
X135480667Y-99178667D01*
X135511645Y-99248357D01*
X135537111Y-99235111D01*
X135547244Y-99134632D01*
X135537111Y-99122222D01*
X135486777Y-99133845D01*
X135480667Y-99178667D01*
X133778297Y-99178667D01*
X133598909Y-99105278D01*
X133543316Y-99080972D01*
X133221468Y-98928852D01*
X133024818Y-98804565D01*
X132918288Y-98681302D01*
X132875755Y-98570813D01*
X132726765Y-98322882D01*
X132455535Y-98114662D01*
X132098317Y-97901643D01*
X131232531Y-98730655D01*
X130866889Y-99081079D01*
X130495862Y-99437199D01*
X130160783Y-99759313D01*
X129902981Y-100007718D01*
X129884742Y-100025334D01*
X129402739Y-100491000D01*
X129347377Y-101591667D01*
X129313438Y-102123520D01*
X129264734Y-102705243D01*
X129208409Y-103257974D01*
X129163859Y-103617672D01*
X129035703Y-104543010D01*
X129543957Y-105051263D01*
X130052210Y-105559517D01*
X130226438Y-105353592D01*
X130400667Y-105147667D01*
X130570000Y-105347547D01*
X130693706Y-105558078D01*
X130739334Y-105749713D01*
X130781536Y-105907912D01*
X130856686Y-105952000D01*
X130962537Y-106022370D01*
X131084328Y-106198177D01*
X131120158Y-106269500D01*
X131238912Y-106462868D01*
X131433546Y-106714001D01*
X131674163Y-106991293D01*
X131930868Y-107263136D01*
X132173765Y-107497923D01*
X132372960Y-107664046D01*
X132498556Y-107729899D01*
X132501559Y-107730000D01*
X132627368Y-107674739D01*
X132837701Y-107527568D01*
X133101330Y-107316402D01*
X133387030Y-107069157D01*
X133663574Y-106813751D01*
X133899735Y-106578098D01*
X134064285Y-106390116D01*
X134126000Y-106277774D01*
X134193077Y-106205551D01*
X134368189Y-106078325D01*
X134591667Y-105936966D01*
X134832700Y-105776908D01*
X135000962Y-105634817D01*
X135057334Y-105549124D01*
X135131117Y-105425243D01*
X135312984Y-105343676D01*
X135543712Y-105320622D01*
X135741223Y-105362049D01*
X136002402Y-105414052D01*
X136329950Y-105403027D01*
X136352294Y-105399847D01*
X136707519Y-105376136D01*
X136958463Y-105420958D01*
X137081106Y-105528577D01*
X137089334Y-105575842D01*
X137062146Y-105645112D01*
X136973656Y-105762332D01*
X136813471Y-105937917D01*
X136571197Y-106182277D01*
X136236443Y-106505826D01*
X135798815Y-106918977D01*
X135247920Y-107432141D01*
X135096792Y-107572177D01*
X134731434Y-107910747D01*
X134345899Y-108268517D01*
X133992975Y-108596476D01*
X133784459Y-108790585D01*
X133237000Y-109300836D01*
X133279334Y-109933585D01*
X133321667Y-110566334D01*
X133900675Y-110591540D01*
X134213987Y-110612774D01*
X134384893Y-110647000D01*
X134440219Y-110701387D01*
X134434598Y-110734236D01*
X134449169Y-110858557D01*
X134490590Y-110888947D01*
X134542153Y-110950703D01*
X134475250Y-111042584D01*
X134372222Y-111112768D01*
X134320028Y-111053167D01*
X134215993Y-110949064D01*
X134060986Y-110955827D01*
X133906342Y-111049385D01*
X133803395Y-111205669D01*
X133787334Y-111302934D01*
X133834871Y-111433509D01*
X133950045Y-111433726D01*
X134088577Y-111307300D01*
X134198670Y-111203285D01*
X134253844Y-111236860D01*
X134240071Y-111381293D01*
X134193833Y-111507892D01*
X134081117Y-111700780D01*
X133918774Y-111912868D01*
X133748175Y-112096879D01*
X133610690Y-112205538D01*
X133573001Y-112217334D01*
X133547550Y-112147652D01*
X133568101Y-112005667D01*
X133621226Y-111794000D01*
X132963447Y-111799951D01*
X132590635Y-111812280D01*
X132315264Y-111837786D01*
X132150271Y-111870571D01*
X132108593Y-111904735D01*
X132203165Y-111934380D01*
X132446926Y-111953608D01*
X132618170Y-111957383D01*
X132934085Y-111969662D01*
X133179474Y-111996766D01*
X133309352Y-112033307D01*
X133317409Y-112041111D01*
X133289942Y-112114863D01*
X133129197Y-112167974D01*
X132870498Y-112195525D01*
X132549170Y-112192600D01*
X132352243Y-112175493D01*
X131857934Y-112118122D01*
X130727134Y-113030831D01*
X129885006Y-113712915D01*
X129108744Y-114346396D01*
X128409021Y-114922376D01*
X127796510Y-115431960D01*
X127281883Y-115866253D01*
X126875814Y-116216358D01*
X126588975Y-116473380D01*
X126527540Y-116531225D01*
X126474489Y-116608133D01*
X126442601Y-116735365D01*
X126430169Y-116942278D01*
X126435489Y-117258225D01*
X126456853Y-117712559D01*
X126457830Y-117730598D01*
X126516348Y-118807080D01*
X126278341Y-119067611D01*
X126091623Y-119234423D01*
X125874283Y-119329015D01*
X125567519Y-119381080D01*
X125291311Y-119405015D01*
X125124310Y-119387867D01*
X125008286Y-119313847D01*
X124913577Y-119203754D01*
X124772167Y-118954469D01*
X124769332Y-118945603D01*
X125094394Y-118945603D01*
X125188406Y-119065769D01*
X125328929Y-119149336D01*
X125392182Y-119160000D01*
X125464380Y-119138018D01*
X125416737Y-119053007D01*
X125341834Y-118974204D01*
X125197127Y-118861369D01*
X125101669Y-118843063D01*
X125099287Y-118845158D01*
X125094394Y-118945603D01*
X124769332Y-118945603D01*
X124681738Y-118671724D01*
X124680499Y-118664578D01*
X124632416Y-118408657D01*
X124585174Y-118200751D01*
X124581625Y-118187724D01*
X124541652Y-118075167D01*
X124502217Y-118112742D01*
X124464746Y-118208891D01*
X124378321Y-118355331D01*
X124307395Y-118398000D01*
X124225083Y-118343310D01*
X124256770Y-118196751D01*
X124395143Y-117984593D01*
X124436316Y-117935041D01*
X124588484Y-117693921D01*
X124609468Y-117511708D01*
X124599136Y-117315335D01*
X124630233Y-117060176D01*
X124637776Y-117024666D01*
X124669164Y-116781036D01*
X124618898Y-116638842D01*
X124591520Y-116612132D01*
X124491317Y-116485899D01*
X124511498Y-116350462D01*
X124663341Y-116180730D01*
X124854067Y-116028033D01*
X125073930Y-115844039D01*
X125232511Y-115675729D01*
X125281056Y-115595422D01*
X125375319Y-115449942D01*
X125550130Y-115274769D01*
X125599489Y-115234180D01*
X125892437Y-115001867D01*
X126291244Y-114682626D01*
X126772282Y-114295623D01*
X127311921Y-113860027D01*
X127886535Y-113395004D01*
X128472493Y-112919721D01*
X129046168Y-112453344D01*
X129583931Y-112015042D01*
X130062154Y-111623981D01*
X130457208Y-111299329D01*
X130745464Y-111060251D01*
X130760500Y-111047661D01*
X131501334Y-110426843D01*
X131498982Y-109903922D01*
X131488651Y-109600308D01*
X131446898Y-109403153D01*
X131352483Y-109249889D01*
X131235257Y-109127000D01*
X131005710Y-108886073D01*
X130786630Y-108629433D01*
X130761893Y-108597834D01*
X130600258Y-108423897D01*
X130458100Y-108328743D01*
X130427954Y-108322667D01*
X130344916Y-108283805D01*
X130351966Y-108248304D01*
X130318435Y-108157498D01*
X130186182Y-107991575D01*
X129988330Y-107790813D01*
X129706505Y-107511763D01*
X129418507Y-107202681D01*
X129259836Y-107018510D01*
X129005282Y-106754114D01*
X128797255Y-106635257D01*
X128749835Y-106629334D01*
X128550246Y-106576053D01*
X128453334Y-106502334D01*
X128275602Y-106410991D01*
X127944071Y-106375727D01*
X127895612Y-106375334D01*
X127636424Y-106362880D01*
X127458154Y-106308709D01*
X127348668Y-106187611D01*
X127332248Y-106121334D01*
X127606667Y-106121334D01*
X127637645Y-106191024D01*
X127663111Y-106177778D01*
X127673244Y-106077298D01*
X127663111Y-106064889D01*
X127612777Y-106076511D01*
X127606667Y-106121334D01*
X127332248Y-106121334D01*
X127295836Y-105974372D01*
X127293146Y-105867334D01*
X127437334Y-105867334D01*
X127468312Y-105937024D01*
X127493778Y-105923778D01*
X127503911Y-105823298D01*
X127493778Y-105810889D01*
X127443444Y-105822511D01*
X127437334Y-105867334D01*
X127293146Y-105867334D01*
X127287527Y-105643779D01*
X127291230Y-105571000D01*
X127522000Y-105571000D01*
X127564334Y-105613334D01*
X127606667Y-105571000D01*
X127564334Y-105528667D01*
X127522000Y-105571000D01*
X127291230Y-105571000D01*
X127299849Y-105401667D01*
X127437334Y-105401667D01*
X127479667Y-105444000D01*
X127522000Y-105401667D01*
X127479667Y-105359334D01*
X127437334Y-105401667D01*
X127299849Y-105401667D01*
X127311609Y-105170622D01*
X127312129Y-105162702D01*
X127340571Y-104793175D01*
X127371931Y-104485904D01*
X127401693Y-104280891D01*
X127418506Y-104220634D01*
X127447564Y-104161465D01*
X127472827Y-104069536D01*
X127498522Y-103916109D01*
X127528876Y-103672449D01*
X127568116Y-103309819D01*
X127604558Y-102955859D01*
X127648105Y-102590047D01*
X127696051Y-102284658D01*
X127741274Y-102081129D01*
X127764614Y-102024526D01*
X127820531Y-101889036D01*
X127876406Y-101654065D01*
X127897602Y-101527537D01*
X127922926Y-101270824D01*
X127898193Y-101133531D01*
X127823616Y-101073978D01*
X127708147Y-100983389D01*
X127691334Y-100933108D01*
X127639799Y-100806785D01*
X127543167Y-100675797D01*
X127452728Y-100540338D01*
X127495212Y-100473650D01*
X127500834Y-100471575D01*
X127592134Y-100366497D01*
X127606667Y-100287037D01*
X127665083Y-100132556D01*
X127807606Y-99952334D01*
X127826378Y-99934259D01*
X128018782Y-99718775D01*
X128167219Y-99496167D01*
X128280667Y-99332325D01*
X128384474Y-99263340D01*
X128385229Y-99263334D01*
X128486158Y-99208382D01*
X128674747Y-99061288D01*
X128917969Y-98848688D01*
X129041284Y-98734167D01*
X129384655Y-98415046D01*
X129770192Y-98065553D01*
X130120378Y-97755869D01*
X130154084Y-97726668D01*
X130483170Y-97410490D01*
X130760372Y-97084808D01*
X130921703Y-96837668D01*
X131074160Y-96583002D01*
X131204474Y-96463066D01*
X131310199Y-96445695D01*
X131498801Y-96408682D01*
X131582642Y-96346379D01*
X131644053Y-96311506D01*
X131753239Y-96321219D01*
G36*
X139367557Y-101294615D02*
X139400782Y-101316500D01*
X139441239Y-101363032D01*
X139475167Y-101448584D01*
X139504026Y-101590603D01*
X139529276Y-101806538D01*
X139552378Y-102113837D01*
X139574791Y-102529947D01*
X139597977Y-103072316D01*
X139623396Y-103758392D01*
X139636399Y-104131667D01*
X139661669Y-104799364D01*
X139689507Y-105418127D01*
X139718590Y-105966184D01*
X139747595Y-106421763D01*
X139775197Y-106763093D01*
X139800074Y-106968403D01*
X139811640Y-107014493D01*
X139869350Y-107151111D01*
X139961607Y-107392075D01*
X140093275Y-107750668D01*
X140269217Y-108240177D01*
X140494299Y-108873885D01*
X140545970Y-109020034D01*
X140652742Y-109257878D01*
X140762203Y-109400591D01*
X140810433Y-109422201D01*
X140884966Y-109451082D01*
X140840028Y-109516505D01*
X140809032Y-109622691D01*
X140856629Y-109821645D01*
X140984941Y-110130339D01*
X141093255Y-110374540D01*
X141251172Y-110740276D01*
X141443776Y-111192522D01*
X141656150Y-111696252D01*
X141873377Y-112216441D01*
X141873748Y-112217334D01*
X142156806Y-112898555D01*
X142382754Y-113439397D01*
X142559841Y-113855691D01*
X142696315Y-114163270D01*
X142800426Y-114377965D01*
X142880422Y-114515610D01*
X142944551Y-114592034D01*
X143001062Y-114623072D01*
X143058203Y-114624555D01*
X143121782Y-114612778D01*
X143254535Y-114606449D01*
X143349614Y-114666133D01*
X143422827Y-114819882D01*
X143489980Y-115095747D01*
X143537194Y-115350000D01*
X143637335Y-116058985D01*
X143674335Y-116675395D01*
X143647870Y-117177144D01*
X143568913Y-117514029D01*
X143442438Y-117760217D01*
X143272432Y-117988469D01*
X143097034Y-118155983D01*
X142954382Y-118219959D01*
X142941082Y-118218609D01*
X142835123Y-118194801D01*
X142621411Y-118144979D01*
X142466028Y-118108307D01*
X142073362Y-117945258D01*
X141810503Y-117673564D01*
X141678243Y-117294255D01*
X141661334Y-117061253D01*
X141620729Y-116732243D01*
X141520218Y-116397792D01*
X141491234Y-116332940D01*
X141408964Y-116151735D01*
X141275334Y-115842268D01*
X141102454Y-115433264D01*
X140902434Y-114953451D01*
X140687382Y-114431554D01*
X140612873Y-114249334D01*
X140372037Y-113660198D01*
X140120775Y-113047398D01*
X139877234Y-112455065D01*
X139659560Y-111927329D01*
X139485902Y-111508324D01*
X139472988Y-111477303D01*
X139315787Y-111083673D01*
X139191221Y-110740310D01*
X139110307Y-110480064D01*
X139084061Y-110335787D01*
X139086219Y-110324053D01*
X139066529Y-110181563D01*
X138978036Y-110054232D01*
X138835274Y-109891656D01*
X138662275Y-109667858D01*
X138490776Y-109427778D01*
X138352517Y-109216352D01*
X138279236Y-109078520D01*
X138274667Y-109058346D01*
X138240988Y-108950594D01*
X138153305Y-108739238D01*
X138048106Y-108507742D01*
X137867071Y-107964983D01*
X137771831Y-107305219D01*
X137764768Y-106558806D01*
X137837697Y-105825000D01*
X137898913Y-105214056D01*
X137917454Y-104479229D01*
X137902271Y-103793000D01*
X137882460Y-103304027D01*
X137863110Y-102955355D01*
X137838789Y-102718056D01*
X137804068Y-102563199D01*
X137753516Y-102461855D01*
X137681701Y-102385096D01*
X137629863Y-102341813D01*
X137445281Y-102223333D01*
X137212550Y-102141332D01*
X136900094Y-102090228D01*
X136476335Y-102064437D01*
X136026016Y-102058265D01*
X135590326Y-102046705D01*
X135296681Y-102010897D01*
X135119057Y-101947273D01*
X135094682Y-101930524D01*
X134995189Y-101840669D01*
X134997638Y-101761811D01*
X135113558Y-101640615D01*
X135167888Y-101591858D01*
X135290140Y-101497082D01*
X135430336Y-101427538D01*
X135611810Y-101381510D01*
X135857895Y-101357284D01*
X136191925Y-101353145D01*
X136637235Y-101367379D01*
X137217158Y-101398269D01*
X137537441Y-101417718D01*
X137948397Y-101437497D01*
X138228020Y-101434223D01*
X138413096Y-101405072D01*
X138540413Y-101347223D01*
X138551114Y-101339941D01*
X138810672Y-101235414D01*
X139110718Y-101219535D01*
X139367557Y-101294615D01*
X139367557Y-101294615D01*
G37*
X139367557Y-101294615D02*
X139400782Y-101316500D01*
X139441239Y-101363032D01*
X139475167Y-101448584D01*
X139504026Y-101590603D01*
X139529276Y-101806538D01*
X139552378Y-102113837D01*
X139574791Y-102529947D01*
X139597977Y-103072316D01*
X139623396Y-103758392D01*
X139636399Y-104131667D01*
X139661669Y-104799364D01*
X139689507Y-105418127D01*
X139718590Y-105966184D01*
X139747595Y-106421763D01*
X139775197Y-106763093D01*
X139800074Y-106968403D01*
X139811640Y-107014493D01*
X139869350Y-107151111D01*
X139961607Y-107392075D01*
X140093275Y-107750668D01*
X140269217Y-108240177D01*
X140494299Y-108873885D01*
X140545970Y-109020034D01*
X140652742Y-109257878D01*
X140762203Y-109400591D01*
X140810433Y-109422201D01*
X140884966Y-109451082D01*
X140840028Y-109516505D01*
X140809032Y-109622691D01*
X140856629Y-109821645D01*
X140984941Y-110130339D01*
X141093255Y-110374540D01*
X141251172Y-110740276D01*
X141443776Y-111192522D01*
X141656150Y-111696252D01*
X141873377Y-112216441D01*
X141873748Y-112217334D01*
X142156806Y-112898555D01*
X142382754Y-113439397D01*
X142559841Y-113855691D01*
X142696315Y-114163270D01*
X142800426Y-114377965D01*
X142880422Y-114515610D01*
X142944551Y-114592034D01*
X143001062Y-114623072D01*
X143058203Y-114624555D01*
X143121782Y-114612778D01*
X143254535Y-114606449D01*
X143349614Y-114666133D01*
X143422827Y-114819882D01*
X143489980Y-115095747D01*
X143537194Y-115350000D01*
X143637335Y-116058985D01*
X143674335Y-116675395D01*
X143647870Y-117177144D01*
X143568913Y-117514029D01*
X143442438Y-117760217D01*
X143272432Y-117988469D01*
X143097034Y-118155983D01*
X142954382Y-118219959D01*
X142941082Y-118218609D01*
X142835123Y-118194801D01*
X142621411Y-118144979D01*
X142466028Y-118108307D01*
X142073362Y-117945258D01*
X141810503Y-117673564D01*
X141678243Y-117294255D01*
X141661334Y-117061253D01*
X141620729Y-116732243D01*
X141520218Y-116397792D01*
X141491234Y-116332940D01*
X141408964Y-116151735D01*
X141275334Y-115842268D01*
X141102454Y-115433264D01*
X140902434Y-114953451D01*
X140687382Y-114431554D01*
X140612873Y-114249334D01*
X140372037Y-113660198D01*
X140120775Y-113047398D01*
X139877234Y-112455065D01*
X139659560Y-111927329D01*
X139485902Y-111508324D01*
X139472988Y-111477303D01*
X139315787Y-111083673D01*
X139191221Y-110740310D01*
X139110307Y-110480064D01*
X139084061Y-110335787D01*
X139086219Y-110324053D01*
X139066529Y-110181563D01*
X138978036Y-110054232D01*
X138835274Y-109891656D01*
X138662275Y-109667858D01*
X138490776Y-109427778D01*
X138352517Y-109216352D01*
X138279236Y-109078520D01*
X138274667Y-109058346D01*
X138240988Y-108950594D01*
X138153305Y-108739238D01*
X138048106Y-108507742D01*
X137867071Y-107964983D01*
X137771831Y-107305219D01*
X137764768Y-106558806D01*
X137837697Y-105825000D01*
X137898913Y-105214056D01*
X137917454Y-104479229D01*
X137902271Y-103793000D01*
X137882460Y-103304027D01*
X137863110Y-102955355D01*
X137838789Y-102718056D01*
X137804068Y-102563199D01*
X137753516Y-102461855D01*
X137681701Y-102385096D01*
X137629863Y-102341813D01*
X137445281Y-102223333D01*
X137212550Y-102141332D01*
X136900094Y-102090228D01*
X136476335Y-102064437D01*
X136026016Y-102058265D01*
X135590326Y-102046705D01*
X135296681Y-102010897D01*
X135119057Y-101947273D01*
X135094682Y-101930524D01*
X134995189Y-101840669D01*
X134997638Y-101761811D01*
X135113558Y-101640615D01*
X135167888Y-101591858D01*
X135290140Y-101497082D01*
X135430336Y-101427538D01*
X135611810Y-101381510D01*
X135857895Y-101357284D01*
X136191925Y-101353145D01*
X136637235Y-101367379D01*
X137217158Y-101398269D01*
X137537441Y-101417718D01*
X137948397Y-101437497D01*
X138228020Y-101434223D01*
X138413096Y-101405072D01*
X138540413Y-101347223D01*
X138551114Y-101339941D01*
X138810672Y-101235414D01*
X139110718Y-101219535D01*
X139367557Y-101294615D01*
G36*
X140363111Y-115970889D02*
X140373244Y-116071369D01*
X140363111Y-116083778D01*
X140312777Y-116072156D01*
X140306667Y-116027334D01*
X140337645Y-115957643D01*
X140363111Y-115970889D01*
X140363111Y-115970889D01*
G37*
X140363111Y-115970889D02*
X140373244Y-116071369D01*
X140363111Y-116083778D01*
X140312777Y-116072156D01*
X140306667Y-116027334D01*
X140337645Y-115957643D01*
X140363111Y-115970889D01*
G36*
X144318014Y-102362116D02*
X144548924Y-102544490D01*
X144553479Y-102549293D01*
X144785873Y-102749249D01*
X145121891Y-102961025D01*
X145576192Y-103191998D01*
X146163436Y-103449543D01*
X146898284Y-103741039D01*
X146995334Y-103777987D01*
X147460158Y-103956033D01*
X147905144Y-104129611D01*
X148289396Y-104282553D01*
X148572016Y-104398688D01*
X148646334Y-104430723D01*
X148971110Y-104543813D01*
X149309739Y-104616315D01*
X149445785Y-104628748D01*
X149659689Y-104646165D01*
X149816095Y-104704795D01*
X149966604Y-104836843D01*
X150162818Y-105074509D01*
X150165452Y-105077868D01*
X150363812Y-105304580D01*
X150543532Y-105465155D01*
X150657167Y-105522368D01*
X150783126Y-105542301D01*
X150805334Y-105559355D01*
X150775353Y-105646480D01*
X150695827Y-105850114D01*
X150582381Y-106130479D01*
X150551334Y-106206000D01*
X150430921Y-106509343D01*
X150341388Y-106756504D01*
X150298829Y-106902472D01*
X150297366Y-106916145D01*
X150262182Y-107035942D01*
X150170140Y-107257395D01*
X150048006Y-107518334D01*
X149944486Y-107740621D01*
X149788537Y-108090347D01*
X149592731Y-108538591D01*
X149369641Y-109056431D01*
X149131842Y-109614946D01*
X148980559Y-109973667D01*
X148752233Y-110513622D01*
X148542007Y-111004039D01*
X148359719Y-111422503D01*
X148215207Y-111746599D01*
X148118312Y-111953913D01*
X148082433Y-112019748D01*
X148085374Y-112134778D01*
X148202722Y-112353425D01*
X148438108Y-112682307D01*
X148464882Y-112717120D01*
X148704037Y-113043347D01*
X148839849Y-113275006D01*
X148886630Y-113439314D01*
X148880473Y-113507373D01*
X148769099Y-113772989D01*
X148589529Y-113896194D01*
X148467660Y-113910667D01*
X148269419Y-113980279D01*
X148023989Y-114173213D01*
X147948860Y-114249194D01*
X147755084Y-114437406D01*
X147596473Y-114560379D01*
X147532001Y-114587861D01*
X147433986Y-114529090D01*
X147256097Y-114371965D01*
X147030078Y-114145469D01*
X146929388Y-114037667D01*
X146693008Y-113790881D01*
X146491962Y-113601350D01*
X146357846Y-113498042D01*
X146329220Y-113487334D01*
X146248356Y-113417464D01*
X146233334Y-113336839D01*
X146186199Y-113150399D01*
X146112747Y-113014183D01*
X146061782Y-112917406D01*
X146060571Y-112808245D01*
X146120730Y-112650201D01*
X146253874Y-112406774D01*
X146366747Y-112216039D01*
X146536425Y-111924745D01*
X146666027Y-111687519D01*
X146735159Y-111542297D01*
X146741334Y-111519164D01*
X146774948Y-111412133D01*
X146863323Y-111197749D01*
X146987760Y-110921230D01*
X146995334Y-110905000D01*
X147121588Y-110622962D01*
X147212525Y-110396939D01*
X147249258Y-110274022D01*
X147249334Y-110271651D01*
X147285235Y-110159179D01*
X147380987Y-109936982D01*
X147518661Y-109645749D01*
X147577315Y-109527287D01*
X147786680Y-109084288D01*
X147981382Y-108626308D01*
X148147750Y-108190294D01*
X148272114Y-107813192D01*
X148340805Y-107531950D01*
X148350000Y-107438988D01*
X148397821Y-107241733D01*
X148467891Y-107144893D01*
X148585828Y-106996914D01*
X148684415Y-106808932D01*
X148735513Y-106625468D01*
X148702036Y-106453927D01*
X148605597Y-106270053D01*
X148535430Y-106172390D01*
X148433515Y-106075730D01*
X148285031Y-105973394D01*
X148075158Y-105858702D01*
X147789075Y-105724976D01*
X147411962Y-105565536D01*
X146928998Y-105373703D01*
X146325363Y-105142797D01*
X145586237Y-104866139D01*
X145048000Y-104666696D01*
X144627587Y-104506571D01*
X144257204Y-104356657D01*
X143969636Y-104230879D01*
X143797669Y-104143161D01*
X143771333Y-104124458D01*
X143598514Y-104024698D01*
X143500411Y-104004667D01*
X143356626Y-103959516D01*
X143135072Y-103843606D01*
X142975951Y-103743345D01*
X142745189Y-103595372D01*
X142579388Y-103530632D01*
X142404842Y-103535169D01*
X142166849Y-103590152D01*
X141906572Y-103648360D01*
X141740167Y-103649416D01*
X141599842Y-103586551D01*
X141512643Y-103524837D01*
X141353225Y-103361875D01*
X141280743Y-103201035D01*
X141280334Y-103191196D01*
X141303072Y-103106055D01*
X141393739Y-103048092D01*
X141586012Y-103005346D01*
X141913568Y-102965857D01*
X141915334Y-102965675D01*
X142251857Y-102921241D01*
X142542092Y-102865548D01*
X142727145Y-102810063D01*
X142735769Y-102805912D01*
X142952621Y-102753974D01*
X143185026Y-102764239D01*
X143481744Y-102748746D01*
X143774161Y-102616685D01*
X143972707Y-102419199D01*
X144117864Y-102318543D01*
X144318014Y-102362116D01*
X144318014Y-102362116D01*
G37*
X144318014Y-102362116D02*
X144548924Y-102544490D01*
X144553479Y-102549293D01*
X144785873Y-102749249D01*
X145121891Y-102961025D01*
X145576192Y-103191998D01*
X146163436Y-103449543D01*
X146898284Y-103741039D01*
X146995334Y-103777987D01*
X147460158Y-103956033D01*
X147905144Y-104129611D01*
X148289396Y-104282553D01*
X148572016Y-104398688D01*
X148646334Y-104430723D01*
X148971110Y-104543813D01*
X149309739Y-104616315D01*
X149445785Y-104628748D01*
X149659689Y-104646165D01*
X149816095Y-104704795D01*
X149966604Y-104836843D01*
X150162818Y-105074509D01*
X150165452Y-105077868D01*
X150363812Y-105304580D01*
X150543532Y-105465155D01*
X150657167Y-105522368D01*
X150783126Y-105542301D01*
X150805334Y-105559355D01*
X150775353Y-105646480D01*
X150695827Y-105850114D01*
X150582381Y-106130479D01*
X150551334Y-106206000D01*
X150430921Y-106509343D01*
X150341388Y-106756504D01*
X150298829Y-106902472D01*
X150297366Y-106916145D01*
X150262182Y-107035942D01*
X150170140Y-107257395D01*
X150048006Y-107518334D01*
X149944486Y-107740621D01*
X149788537Y-108090347D01*
X149592731Y-108538591D01*
X149369641Y-109056431D01*
X149131842Y-109614946D01*
X148980559Y-109973667D01*
X148752233Y-110513622D01*
X148542007Y-111004039D01*
X148359719Y-111422503D01*
X148215207Y-111746599D01*
X148118312Y-111953913D01*
X148082433Y-112019748D01*
X148085374Y-112134778D01*
X148202722Y-112353425D01*
X148438108Y-112682307D01*
X148464882Y-112717120D01*
X148704037Y-113043347D01*
X148839849Y-113275006D01*
X148886630Y-113439314D01*
X148880473Y-113507373D01*
X148769099Y-113772989D01*
X148589529Y-113896194D01*
X148467660Y-113910667D01*
X148269419Y-113980279D01*
X148023989Y-114173213D01*
X147948860Y-114249194D01*
X147755084Y-114437406D01*
X147596473Y-114560379D01*
X147532001Y-114587861D01*
X147433986Y-114529090D01*
X147256097Y-114371965D01*
X147030078Y-114145469D01*
X146929388Y-114037667D01*
X146693008Y-113790881D01*
X146491962Y-113601350D01*
X146357846Y-113498042D01*
X146329220Y-113487334D01*
X146248356Y-113417464D01*
X146233334Y-113336839D01*
X146186199Y-113150399D01*
X146112747Y-113014183D01*
X146061782Y-112917406D01*
X146060571Y-112808245D01*
X146120730Y-112650201D01*
X146253874Y-112406774D01*
X146366747Y-112216039D01*
X146536425Y-111924745D01*
X146666027Y-111687519D01*
X146735159Y-111542297D01*
X146741334Y-111519164D01*
X146774948Y-111412133D01*
X146863323Y-111197749D01*
X146987760Y-110921230D01*
X146995334Y-110905000D01*
X147121588Y-110622962D01*
X147212525Y-110396939D01*
X147249258Y-110274022D01*
X147249334Y-110271651D01*
X147285235Y-110159179D01*
X147380987Y-109936982D01*
X147518661Y-109645749D01*
X147577315Y-109527287D01*
X147786680Y-109084288D01*
X147981382Y-108626308D01*
X148147750Y-108190294D01*
X148272114Y-107813192D01*
X148340805Y-107531950D01*
X148350000Y-107438988D01*
X148397821Y-107241733D01*
X148467891Y-107144893D01*
X148585828Y-106996914D01*
X148684415Y-106808932D01*
X148735513Y-106625468D01*
X148702036Y-106453927D01*
X148605597Y-106270053D01*
X148535430Y-106172390D01*
X148433515Y-106075730D01*
X148285031Y-105973394D01*
X148075158Y-105858702D01*
X147789075Y-105724976D01*
X147411962Y-105565536D01*
X146928998Y-105373703D01*
X146325363Y-105142797D01*
X145586237Y-104866139D01*
X145048000Y-104666696D01*
X144627587Y-104506571D01*
X144257204Y-104356657D01*
X143969636Y-104230879D01*
X143797669Y-104143161D01*
X143771333Y-104124458D01*
X143598514Y-104024698D01*
X143500411Y-104004667D01*
X143356626Y-103959516D01*
X143135072Y-103843606D01*
X142975951Y-103743345D01*
X142745189Y-103595372D01*
X142579388Y-103530632D01*
X142404842Y-103535169D01*
X142166849Y-103590152D01*
X141906572Y-103648360D01*
X141740167Y-103649416D01*
X141599842Y-103586551D01*
X141512643Y-103524837D01*
X141353225Y-103361875D01*
X141280743Y-103201035D01*
X141280334Y-103191196D01*
X141303072Y-103106055D01*
X141393739Y-103048092D01*
X141586012Y-103005346D01*
X141913568Y-102965857D01*
X141915334Y-102965675D01*
X142251857Y-102921241D01*
X142542092Y-102865548D01*
X142727145Y-102810063D01*
X142735769Y-102805912D01*
X142952621Y-102753974D01*
X143185026Y-102764239D01*
X143481744Y-102748746D01*
X143774161Y-102616685D01*
X143972707Y-102419199D01*
X144117864Y-102318543D01*
X144318014Y-102362116D01*
G36*
X133504230Y-112438537D02*
X133491000Y-112471334D01*
X133414918Y-112552104D01*
X133401337Y-112556000D01*
X133364971Y-112490494D01*
X133364000Y-112471334D01*
X133429088Y-112389920D01*
X133453664Y-112386667D01*
X133504230Y-112438537D01*
X133504230Y-112438537D01*
G37*
X133504230Y-112438537D02*
X133491000Y-112471334D01*
X133414918Y-112552104D01*
X133401337Y-112556000D01*
X133364971Y-112490494D01*
X133364000Y-112471334D01*
X133429088Y-112389920D01*
X133453664Y-112386667D01*
X133504230Y-112438537D01*
G36*
X135142000Y-111921000D02*
X135099667Y-111963334D01*
X135057334Y-111921000D01*
X135099667Y-111878667D01*
X135142000Y-111921000D01*
X135142000Y-111921000D01*
G37*
X135142000Y-111921000D02*
X135099667Y-111963334D01*
X135057334Y-111921000D01*
X135099667Y-111878667D01*
X135142000Y-111921000D01*
G36*
X134013111Y-111060222D02*
X134023244Y-111160702D01*
X134013111Y-111173111D01*
X133962777Y-111161489D01*
X133956667Y-111116667D01*
X133987645Y-111046977D01*
X134013111Y-111060222D01*
X134013111Y-111060222D01*
G37*
X134013111Y-111060222D02*
X134023244Y-111160702D01*
X134013111Y-111173111D01*
X133962777Y-111161489D01*
X133956667Y-111116667D01*
X133987645Y-111046977D01*
X134013111Y-111060222D01*
G36*
X135620896Y-110999203D02*
X135607667Y-111032000D01*
X135531585Y-111112771D01*
X135518003Y-111116667D01*
X135481638Y-111051161D01*
X135480667Y-111032000D01*
X135545755Y-110950587D01*
X135570330Y-110947334D01*
X135620896Y-110999203D01*
X135620896Y-110999203D01*
G37*
X135620896Y-110999203D02*
X135607667Y-111032000D01*
X135531585Y-111112771D01*
X135518003Y-111116667D01*
X135481638Y-111051161D01*
X135480667Y-111032000D01*
X135545755Y-110950587D01*
X135570330Y-110947334D01*
X135620896Y-110999203D01*
G36*
X127156504Y-109068792D02*
X127166597Y-109201116D01*
X127149820Y-109231070D01*
X127111338Y-109205819D01*
X127105351Y-109119945D01*
X127126028Y-109029602D01*
X127156504Y-109068792D01*
X127156504Y-109068792D01*
G37*
X127156504Y-109068792D02*
X127166597Y-109201116D01*
X127149820Y-109231070D01*
X127111338Y-109205819D01*
X127105351Y-109119945D01*
X127126028Y-109029602D01*
X127156504Y-109068792D01*
G36*
X124953778Y-108858889D02*
X124963911Y-108959369D01*
X124953778Y-108971778D01*
X124903444Y-108960156D01*
X124897334Y-108915334D01*
X124928312Y-108845643D01*
X124953778Y-108858889D01*
X124953778Y-108858889D01*
G37*
X124953778Y-108858889D02*
X124963911Y-108959369D01*
X124953778Y-108971778D01*
X124903444Y-108960156D01*
X124897334Y-108915334D01*
X124928312Y-108845643D01*
X124953778Y-108858889D01*
G36*
X132292140Y-98867590D02*
X132412649Y-98916415D01*
X132584898Y-98988047D01*
X132835200Y-99073485D01*
X132916562Y-99098330D01*
X133188730Y-99212344D01*
X133419145Y-99363767D01*
X133460487Y-99402915D01*
X133652783Y-99544739D01*
X133844425Y-99602000D01*
X134001781Y-99647448D01*
X134041334Y-99725020D01*
X134115059Y-99815749D01*
X134297529Y-99911808D01*
X134530686Y-99989365D01*
X134756471Y-100024589D01*
X134771800Y-100024861D01*
X134900779Y-100084142D01*
X134974025Y-100153970D01*
X135147768Y-100244385D01*
X135344226Y-100234369D01*
X135605614Y-100221090D01*
X135903642Y-100251399D01*
X135946334Y-100259935D01*
X136224771Y-100291240D01*
X136472276Y-100231628D01*
X136609186Y-100167503D01*
X136799469Y-100083931D01*
X136992071Y-100041924D01*
X137241053Y-100035890D01*
X137600476Y-100060237D01*
X137625186Y-100062405D01*
X137986795Y-100090970D01*
X138456153Y-100123220D01*
X138971849Y-100155149D01*
X139460000Y-100182112D01*
X139890407Y-100208942D01*
X140264821Y-100241202D01*
X140548101Y-100275218D01*
X140705111Y-100307316D01*
X140719311Y-100313813D01*
X140758427Y-100367741D01*
X140786601Y-100486226D01*
X140804712Y-100688973D01*
X140813641Y-100995687D01*
X140814267Y-101426076D01*
X140807469Y-101999844D01*
X140803978Y-102210723D01*
X140772334Y-104034502D01*
X141026334Y-104107829D01*
X141215489Y-104138664D01*
X141526011Y-104164105D01*
X141909946Y-104180975D01*
X142207257Y-104186044D01*
X142775889Y-104201719D01*
X143180631Y-104241738D01*
X143420349Y-104305886D01*
X143493909Y-104393946D01*
X143480911Y-104429223D01*
X143375025Y-104473426D01*
X143334428Y-104457825D01*
X143276087Y-104460306D01*
X143291941Y-104532389D01*
X143278676Y-104643943D01*
X143117621Y-104708744D01*
X143115829Y-104709098D01*
X142922898Y-104718655D01*
X142815963Y-104682883D01*
X142699752Y-104665175D01*
X142481199Y-104696559D01*
X142317017Y-104738606D01*
X142043481Y-104809146D01*
X141845137Y-104818976D01*
X141638802Y-104767304D01*
X141540557Y-104731210D01*
X141263896Y-104646116D01*
X141009273Y-104600032D01*
X140955364Y-104597334D01*
X140814671Y-104607655D01*
X140749668Y-104668315D01*
X140737224Y-104823857D01*
X140746528Y-104999500D01*
X140772334Y-105401667D01*
X141731625Y-105444000D01*
X142127278Y-105455056D01*
X142467223Y-105452691D01*
X142711816Y-105437923D01*
X142815558Y-105416146D01*
X142979624Y-105402352D01*
X143117836Y-105515868D01*
X143184345Y-105715854D01*
X143185334Y-105745513D01*
X143161098Y-105871037D01*
X143059595Y-105944278D01*
X142837634Y-105993618D01*
X142798604Y-105999618D01*
X142532219Y-106019623D01*
X142164805Y-106021699D01*
X141763704Y-106005951D01*
X141647261Y-105997797D01*
X141279611Y-105972254D01*
X141040527Y-105968623D01*
X140890089Y-105991913D01*
X140788375Y-106047132D01*
X140718358Y-106114325D01*
X140504636Y-106262258D01*
X140291161Y-106276824D01*
X140172662Y-106207462D01*
X140145294Y-106095732D01*
X140126418Y-105841954D01*
X140115823Y-105473189D01*
X140113296Y-105016499D01*
X140118625Y-104498945D01*
X140131597Y-103947588D01*
X140152001Y-103389489D01*
X140179624Y-102851711D01*
X140201563Y-102523000D01*
X140221686Y-102014981D01*
X140206096Y-101565476D01*
X140157971Y-101206634D01*
X140080487Y-100970599D01*
X140043016Y-100918793D01*
X139956253Y-100896948D01*
X139731352Y-100870176D01*
X139362845Y-100838066D01*
X138845261Y-100800210D01*
X138173130Y-100756199D01*
X137340983Y-100705623D01*
X136686223Y-100667576D01*
X136403008Y-100662833D01*
X136193392Y-100680720D01*
X136109726Y-100712279D01*
X136005230Y-100755132D01*
X135789014Y-100782303D01*
X135630503Y-100787334D01*
X135263029Y-100824182D01*
X135042490Y-100927767D01*
X134884149Y-101020498D01*
X134703407Y-100984200D01*
X134684511Y-100975798D01*
X134465229Y-100920294D01*
X134314791Y-100927046D01*
X134118386Y-100893514D01*
X133852783Y-100711383D01*
X133831732Y-100693123D01*
X133604402Y-100520311D01*
X133308441Y-100348187D01*
X132913251Y-100160949D01*
X132388236Y-99942795D01*
X132348000Y-99926817D01*
X132247564Y-99900335D01*
X132144479Y-99918083D01*
X132012311Y-99997583D01*
X131824628Y-100156354D01*
X131554999Y-100411916D01*
X131424987Y-100538608D01*
X130713641Y-101234261D01*
X130679597Y-102360046D01*
X130667260Y-102816929D01*
X130664929Y-103133671D01*
X130675939Y-103339333D01*
X130703622Y-103462975D01*
X130751315Y-103533659D01*
X130819443Y-103578895D01*
X130956227Y-103692990D01*
X130993334Y-103778351D01*
X131050032Y-103889766D01*
X131197579Y-104073093D01*
X131372840Y-104257201D01*
X131752346Y-104629658D01*
X131944340Y-104454233D01*
X132086629Y-104338886D01*
X132310027Y-104173218D01*
X132577023Y-103983189D01*
X132850106Y-103794762D01*
X133091768Y-103633897D01*
X133264499Y-103526556D01*
X133327854Y-103496667D01*
X133405683Y-103446827D01*
X133583560Y-103312986D01*
X133830715Y-103118659D01*
X133986790Y-102993091D01*
X134607908Y-102489515D01*
X135277121Y-102560180D01*
X135630819Y-102606206D01*
X135947490Y-102662556D01*
X136165557Y-102718040D01*
X136184679Y-102725089D01*
X136409506Y-102780024D01*
X136713943Y-102813991D01*
X136878182Y-102819334D01*
X137142239Y-102834561D01*
X137331593Y-102873665D01*
X137387959Y-102907709D01*
X137390920Y-103043158D01*
X137273928Y-103167449D01*
X137083460Y-103238209D01*
X137020563Y-103242667D01*
X136816803Y-103259760D01*
X136525148Y-103303700D01*
X136317578Y-103342969D01*
X136084551Y-103386131D01*
X135889271Y-103401751D01*
X135687432Y-103384274D01*
X135434726Y-103328142D01*
X135086844Y-103227798D01*
X134870323Y-103161458D01*
X134702922Y-103136723D01*
X134541306Y-103194149D01*
X134325787Y-103355092D01*
X134323306Y-103357172D01*
X133919629Y-103701570D01*
X133636653Y-103957678D01*
X133460195Y-104139578D01*
X133376072Y-104261354D01*
X133364000Y-104309716D01*
X133293315Y-104417157D01*
X133120033Y-104528584D01*
X133088834Y-104542580D01*
X132849941Y-104675599D01*
X132589226Y-104865127D01*
X132517334Y-104926763D01*
X132221000Y-105194095D01*
X132420069Y-105360724D01*
X132557287Y-105464649D01*
X132660680Y-105475625D01*
X132802472Y-105389952D01*
X132873116Y-105337510D01*
X133077596Y-105170288D01*
X133332447Y-104942824D01*
X133499145Y-104784997D01*
X133933994Y-104433609D01*
X134420643Y-104188520D01*
X134984280Y-104042881D01*
X135650095Y-103989843D01*
X136335018Y-104013917D01*
X136700599Y-104041538D01*
X136996410Y-104064426D01*
X137186332Y-104079755D01*
X137237500Y-104084575D01*
X137254900Y-104160028D01*
X137258667Y-104254830D01*
X137213966Y-104376621D01*
X137054644Y-104447885D01*
X136941167Y-104469409D01*
X136675097Y-104519235D01*
X136339544Y-104593370D01*
X136138112Y-104642579D01*
X135804840Y-104712870D01*
X135479755Y-104757845D01*
X135323817Y-104766667D01*
X135057504Y-104807187D01*
X134731512Y-104937756D01*
X134386503Y-105126500D01*
X134045602Y-105327871D01*
X133708992Y-105526389D01*
X133443098Y-105682882D01*
X133417354Y-105698000D01*
X133123257Y-105883525D01*
X132830795Y-106087343D01*
X132757899Y-106142500D01*
X132560627Y-106283692D01*
X132414623Y-106365980D01*
X132382342Y-106374651D01*
X132305538Y-106313958D01*
X132134659Y-106144748D01*
X131887422Y-105885689D01*
X131581547Y-105555449D01*
X131234751Y-105172695D01*
X131124495Y-105049425D01*
X130727660Y-104602504D01*
X130428758Y-104258403D01*
X130211906Y-103994563D01*
X130061221Y-103788426D01*
X129960821Y-103617431D01*
X129894824Y-103459022D01*
X129847345Y-103290638D01*
X129828459Y-103208607D01*
X129770106Y-102870222D01*
X129720269Y-102444863D01*
X129688267Y-102014884D01*
X129685043Y-101941349D01*
X129673682Y-101581064D01*
X129679808Y-101344966D01*
X129713853Y-101188057D01*
X129786250Y-101065337D01*
X129907431Y-100931806D01*
X129922747Y-100916010D01*
X130086379Y-100741580D01*
X130327318Y-100477524D01*
X130611332Y-100161624D01*
X130789200Y-99961401D01*
X131670667Y-99961401D01*
X131721650Y-99987207D01*
X131797667Y-99940667D01*
X131904390Y-99813181D01*
X131924667Y-99750600D01*
X131873684Y-99724793D01*
X131797667Y-99771334D01*
X131690944Y-99898819D01*
X131670667Y-99961401D01*
X130789200Y-99961401D01*
X130866334Y-99874574D01*
X131136247Y-99576858D01*
X131371738Y-99331847D01*
X131547632Y-99164751D01*
X131638752Y-99100778D01*
X131639133Y-99100746D01*
X131768978Y-99035778D01*
X131840000Y-98967000D01*
X132035056Y-98853464D01*
X132292140Y-98867590D01*
X132292140Y-98867590D01*
G37*
X132292140Y-98867590D02*
X132412649Y-98916415D01*
X132584898Y-98988047D01*
X132835200Y-99073485D01*
X132916562Y-99098330D01*
X133188730Y-99212344D01*
X133419145Y-99363767D01*
X133460487Y-99402915D01*
X133652783Y-99544739D01*
X133844425Y-99602000D01*
X134001781Y-99647448D01*
X134041334Y-99725020D01*
X134115059Y-99815749D01*
X134297529Y-99911808D01*
X134530686Y-99989365D01*
X134756471Y-100024589D01*
X134771800Y-100024861D01*
X134900779Y-100084142D01*
X134974025Y-100153970D01*
X135147768Y-100244385D01*
X135344226Y-100234369D01*
X135605614Y-100221090D01*
X135903642Y-100251399D01*
X135946334Y-100259935D01*
X136224771Y-100291240D01*
X136472276Y-100231628D01*
X136609186Y-100167503D01*
X136799469Y-100083931D01*
X136992071Y-100041924D01*
X137241053Y-100035890D01*
X137600476Y-100060237D01*
X137625186Y-100062405D01*
X137986795Y-100090970D01*
X138456153Y-100123220D01*
X138971849Y-100155149D01*
X139460000Y-100182112D01*
X139890407Y-100208942D01*
X140264821Y-100241202D01*
X140548101Y-100275218D01*
X140705111Y-100307316D01*
X140719311Y-100313813D01*
X140758427Y-100367741D01*
X140786601Y-100486226D01*
X140804712Y-100688973D01*
X140813641Y-100995687D01*
X140814267Y-101426076D01*
X140807469Y-101999844D01*
X140803978Y-102210723D01*
X140772334Y-104034502D01*
X141026334Y-104107829D01*
X141215489Y-104138664D01*
X141526011Y-104164105D01*
X141909946Y-104180975D01*
X142207257Y-104186044D01*
X142775889Y-104201719D01*
X143180631Y-104241738D01*
X143420349Y-104305886D01*
X143493909Y-104393946D01*
X143480911Y-104429223D01*
X143375025Y-104473426D01*
X143334428Y-104457825D01*
X143276087Y-104460306D01*
X143291941Y-104532389D01*
X143278676Y-104643943D01*
X143117621Y-104708744D01*
X143115829Y-104709098D01*
X142922898Y-104718655D01*
X142815963Y-104682883D01*
X142699752Y-104665175D01*
X142481199Y-104696559D01*
X142317017Y-104738606D01*
X142043481Y-104809146D01*
X141845137Y-104818976D01*
X141638802Y-104767304D01*
X141540557Y-104731210D01*
X141263896Y-104646116D01*
X141009273Y-104600032D01*
X140955364Y-104597334D01*
X140814671Y-104607655D01*
X140749668Y-104668315D01*
X140737224Y-104823857D01*
X140746528Y-104999500D01*
X140772334Y-105401667D01*
X141731625Y-105444000D01*
X142127278Y-105455056D01*
X142467223Y-105452691D01*
X142711816Y-105437923D01*
X142815558Y-105416146D01*
X142979624Y-105402352D01*
X143117836Y-105515868D01*
X143184345Y-105715854D01*
X143185334Y-105745513D01*
X143161098Y-105871037D01*
X143059595Y-105944278D01*
X142837634Y-105993618D01*
X142798604Y-105999618D01*
X142532219Y-106019623D01*
X142164805Y-106021699D01*
X141763704Y-106005951D01*
X141647261Y-105997797D01*
X141279611Y-105972254D01*
X141040527Y-105968623D01*
X140890089Y-105991913D01*
X140788375Y-106047132D01*
X140718358Y-106114325D01*
X140504636Y-106262258D01*
X140291161Y-106276824D01*
X140172662Y-106207462D01*
X140145294Y-106095732D01*
X140126418Y-105841954D01*
X140115823Y-105473189D01*
X140113296Y-105016499D01*
X140118625Y-104498945D01*
X140131597Y-103947588D01*
X140152001Y-103389489D01*
X140179624Y-102851711D01*
X140201563Y-102523000D01*
X140221686Y-102014981D01*
X140206096Y-101565476D01*
X140157971Y-101206634D01*
X140080487Y-100970599D01*
X140043016Y-100918793D01*
X139956253Y-100896948D01*
X139731352Y-100870176D01*
X139362845Y-100838066D01*
X138845261Y-100800210D01*
X138173130Y-100756199D01*
X137340983Y-100705623D01*
X136686223Y-100667576D01*
X136403008Y-100662833D01*
X136193392Y-100680720D01*
X136109726Y-100712279D01*
X136005230Y-100755132D01*
X135789014Y-100782303D01*
X135630503Y-100787334D01*
X135263029Y-100824182D01*
X135042490Y-100927767D01*
X134884149Y-101020498D01*
X134703407Y-100984200D01*
X134684511Y-100975798D01*
X134465229Y-100920294D01*
X134314791Y-100927046D01*
X134118386Y-100893514D01*
X133852783Y-100711383D01*
X133831732Y-100693123D01*
X133604402Y-100520311D01*
X133308441Y-100348187D01*
X132913251Y-100160949D01*
X132388236Y-99942795D01*
X132348000Y-99926817D01*
X132247564Y-99900335D01*
X132144479Y-99918083D01*
X132012311Y-99997583D01*
X131824628Y-100156354D01*
X131554999Y-100411916D01*
X131424987Y-100538608D01*
X130713641Y-101234261D01*
X130679597Y-102360046D01*
X130667260Y-102816929D01*
X130664929Y-103133671D01*
X130675939Y-103339333D01*
X130703622Y-103462975D01*
X130751315Y-103533659D01*
X130819443Y-103578895D01*
X130956227Y-103692990D01*
X130993334Y-103778351D01*
X131050032Y-103889766D01*
X131197579Y-104073093D01*
X131372840Y-104257201D01*
X131752346Y-104629658D01*
X131944340Y-104454233D01*
X132086629Y-104338886D01*
X132310027Y-104173218D01*
X132577023Y-103983189D01*
X132850106Y-103794762D01*
X133091768Y-103633897D01*
X133264499Y-103526556D01*
X133327854Y-103496667D01*
X133405683Y-103446827D01*
X133583560Y-103312986D01*
X133830715Y-103118659D01*
X133986790Y-102993091D01*
X134607908Y-102489515D01*
X135277121Y-102560180D01*
X135630819Y-102606206D01*
X135947490Y-102662556D01*
X136165557Y-102718040D01*
X136184679Y-102725089D01*
X136409506Y-102780024D01*
X136713943Y-102813991D01*
X136878182Y-102819334D01*
X137142239Y-102834561D01*
X137331593Y-102873665D01*
X137387959Y-102907709D01*
X137390920Y-103043158D01*
X137273928Y-103167449D01*
X137083460Y-103238209D01*
X137020563Y-103242667D01*
X136816803Y-103259760D01*
X136525148Y-103303700D01*
X136317578Y-103342969D01*
X136084551Y-103386131D01*
X135889271Y-103401751D01*
X135687432Y-103384274D01*
X135434726Y-103328142D01*
X135086844Y-103227798D01*
X134870323Y-103161458D01*
X134702922Y-103136723D01*
X134541306Y-103194149D01*
X134325787Y-103355092D01*
X134323306Y-103357172D01*
X133919629Y-103701570D01*
X133636653Y-103957678D01*
X133460195Y-104139578D01*
X133376072Y-104261354D01*
X133364000Y-104309716D01*
X133293315Y-104417157D01*
X133120033Y-104528584D01*
X133088834Y-104542580D01*
X132849941Y-104675599D01*
X132589226Y-104865127D01*
X132517334Y-104926763D01*
X132221000Y-105194095D01*
X132420069Y-105360724D01*
X132557287Y-105464649D01*
X132660680Y-105475625D01*
X132802472Y-105389952D01*
X132873116Y-105337510D01*
X133077596Y-105170288D01*
X133332447Y-104942824D01*
X133499145Y-104784997D01*
X133933994Y-104433609D01*
X134420643Y-104188520D01*
X134984280Y-104042881D01*
X135650095Y-103989843D01*
X136335018Y-104013917D01*
X136700599Y-104041538D01*
X136996410Y-104064426D01*
X137186332Y-104079755D01*
X137237500Y-104084575D01*
X137254900Y-104160028D01*
X137258667Y-104254830D01*
X137213966Y-104376621D01*
X137054644Y-104447885D01*
X136941167Y-104469409D01*
X136675097Y-104519235D01*
X136339544Y-104593370D01*
X136138112Y-104642579D01*
X135804840Y-104712870D01*
X135479755Y-104757845D01*
X135323817Y-104766667D01*
X135057504Y-104807187D01*
X134731512Y-104937756D01*
X134386503Y-105126500D01*
X134045602Y-105327871D01*
X133708992Y-105526389D01*
X133443098Y-105682882D01*
X133417354Y-105698000D01*
X133123257Y-105883525D01*
X132830795Y-106087343D01*
X132757899Y-106142500D01*
X132560627Y-106283692D01*
X132414623Y-106365980D01*
X132382342Y-106374651D01*
X132305538Y-106313958D01*
X132134659Y-106144748D01*
X131887422Y-105885689D01*
X131581547Y-105555449D01*
X131234751Y-105172695D01*
X131124495Y-105049425D01*
X130727660Y-104602504D01*
X130428758Y-104258403D01*
X130211906Y-103994563D01*
X130061221Y-103788426D01*
X129960821Y-103617431D01*
X129894824Y-103459022D01*
X129847345Y-103290638D01*
X129828459Y-103208607D01*
X129770106Y-102870222D01*
X129720269Y-102444863D01*
X129688267Y-102014884D01*
X129685043Y-101941349D01*
X129673682Y-101581064D01*
X129679808Y-101344966D01*
X129713853Y-101188057D01*
X129786250Y-101065337D01*
X129907431Y-100931806D01*
X129922747Y-100916010D01*
X130086379Y-100741580D01*
X130327318Y-100477524D01*
X130611332Y-100161624D01*
X130789200Y-99961401D01*
X131670667Y-99961401D01*
X131721650Y-99987207D01*
X131797667Y-99940667D01*
X131904390Y-99813181D01*
X131924667Y-99750600D01*
X131873684Y-99724793D01*
X131797667Y-99771334D01*
X131690944Y-99898819D01*
X131670667Y-99961401D01*
X130789200Y-99961401D01*
X130866334Y-99874574D01*
X131136247Y-99576858D01*
X131371738Y-99331847D01*
X131547632Y-99164751D01*
X131638752Y-99100778D01*
X131639133Y-99100746D01*
X131768978Y-99035778D01*
X131840000Y-98967000D01*
X132035056Y-98853464D01*
X132292140Y-98867590D01*
G36*
X151285111Y-104456222D02*
X151273489Y-104506557D01*
X151228667Y-104512667D01*
X151158977Y-104481689D01*
X151172222Y-104456222D01*
X151272702Y-104446089D01*
X151285111Y-104456222D01*
X151285111Y-104456222D01*
G37*
X151285111Y-104456222D02*
X151273489Y-104506557D01*
X151228667Y-104512667D01*
X151158977Y-104481689D01*
X151172222Y-104456222D01*
X151272702Y-104446089D01*
X151285111Y-104456222D01*
G36*
X142770352Y-101722126D02*
X143000992Y-101734559D01*
X143125840Y-101763952D01*
X143176647Y-101816998D01*
X143185334Y-101885021D01*
X143117023Y-102054153D01*
X143013576Y-102143297D01*
X142753107Y-102226647D01*
X142404038Y-102269607D01*
X142043308Y-102267441D01*
X141763185Y-102220285D01*
X141539462Y-102111728D01*
X141427690Y-101974649D01*
X141448314Y-101842106D01*
X141500829Y-101796085D01*
X141634077Y-101762900D01*
X141891492Y-101736956D01*
X142227942Y-101722063D01*
X142402167Y-101719963D01*
X142770352Y-101722126D01*
X142770352Y-101722126D01*
G37*
X142770352Y-101722126D02*
X143000992Y-101734559D01*
X143125840Y-101763952D01*
X143176647Y-101816998D01*
X143185334Y-101885021D01*
X143117023Y-102054153D01*
X143013576Y-102143297D01*
X142753107Y-102226647D01*
X142404038Y-102269607D01*
X142043308Y-102267441D01*
X141763185Y-102220285D01*
X141539462Y-102111728D01*
X141427690Y-101974649D01*
X141448314Y-101842106D01*
X141500829Y-101796085D01*
X141634077Y-101762900D01*
X141891492Y-101736956D01*
X142227942Y-101722063D01*
X142402167Y-101719963D01*
X142770352Y-101722126D01*
G36*
X141891137Y-100401506D02*
X142228634Y-100416529D01*
X142465667Y-100431513D01*
X142852457Y-100461713D01*
X143100301Y-100492126D01*
X143239409Y-100530763D01*
X143299987Y-100585638D01*
X143312334Y-100656092D01*
X143291074Y-100740213D01*
X143206193Y-100802373D01*
X143026039Y-100854519D01*
X142718960Y-100908593D01*
X142592667Y-100927671D01*
X142141202Y-100991247D01*
X141828882Y-101025999D01*
X141628238Y-101033320D01*
X141511800Y-101014602D01*
X141463778Y-100984889D01*
X141413227Y-100850168D01*
X141411964Y-100654824D01*
X141453080Y-100479597D01*
X141513167Y-100407690D01*
X141638696Y-100398210D01*
X141891137Y-100401506D01*
X141891137Y-100401506D01*
G37*
X141891137Y-100401506D02*
X142228634Y-100416529D01*
X142465667Y-100431513D01*
X142852457Y-100461713D01*
X143100301Y-100492126D01*
X143239409Y-100530763D01*
X143299987Y-100585638D01*
X143312334Y-100656092D01*
X143291074Y-100740213D01*
X143206193Y-100802373D01*
X143026039Y-100854519D01*
X142718960Y-100908593D01*
X142592667Y-100927671D01*
X142141202Y-100991247D01*
X141828882Y-101025999D01*
X141628238Y-101033320D01*
X141511800Y-101014602D01*
X141463778Y-100984889D01*
X141413227Y-100850168D01*
X141411964Y-100654824D01*
X141453080Y-100479597D01*
X141513167Y-100407690D01*
X141638696Y-100398210D01*
X141891137Y-100401506D01*
G36*
X114440287Y-66118814D02*
X114525792Y-66282252D01*
X114531572Y-66306834D01*
X114674023Y-66908358D01*
X114819017Y-67413767D01*
X114989658Y-67895022D01*
X115209053Y-68424087D01*
X115217820Y-68444176D01*
X115420164Y-68920130D01*
X115638328Y-69454049D01*
X115838018Y-69961254D01*
X115920945Y-70180334D01*
X116106425Y-70655193D01*
X116327929Y-71186043D01*
X116546797Y-71681145D01*
X116616725Y-71831334D01*
X116798683Y-72234507D01*
X116969168Y-72646152D01*
X117102453Y-73002719D01*
X117148045Y-73143667D01*
X117254751Y-73461721D01*
X117406574Y-73860479D01*
X117575674Y-74267831D01*
X117626323Y-74382516D01*
X117769260Y-74710343D01*
X117880725Y-74984384D01*
X117945047Y-75165167D01*
X117954667Y-75209698D01*
X117984792Y-75333027D01*
X118063576Y-75561630D01*
X118168123Y-75831351D01*
X118284660Y-76134472D01*
X118375798Y-76401288D01*
X118417848Y-76556675D01*
X118489082Y-76768772D01*
X118555820Y-76879226D01*
X118612465Y-77010125D01*
X118559347Y-77183997D01*
X118539867Y-77221617D01*
X118460363Y-77449830D01*
X118447095Y-77631360D01*
X118401719Y-77855700D01*
X118242338Y-78031462D01*
X118038991Y-78096667D01*
X117884292Y-78167044D01*
X117832751Y-78249980D01*
X117729505Y-78376337D01*
X117527839Y-78511872D01*
X117436469Y-78556664D01*
X117088846Y-78710035D01*
X116886779Y-78474875D01*
X116746147Y-78325953D01*
X116651580Y-78294954D01*
X116544869Y-78366382D01*
X116529856Y-78379857D01*
X116372297Y-78488908D01*
X116275833Y-78520000D01*
X116208590Y-78598418D01*
X116165829Y-78811071D01*
X116151943Y-79124055D01*
X116162455Y-79394840D01*
X116200559Y-79546253D01*
X116296507Y-79823512D01*
X116439285Y-80197763D01*
X116617878Y-80640151D01*
X116821270Y-81121821D01*
X116824968Y-81130390D01*
X117019481Y-81598974D01*
X117253792Y-82192726D01*
X117514548Y-82876040D01*
X117788398Y-83613308D01*
X118061987Y-84368923D01*
X118321963Y-85107280D01*
X118386086Y-85293217D01*
X118775537Y-86427369D01*
X119155948Y-87534027D01*
X119523274Y-88601490D01*
X119873468Y-89618057D01*
X120202487Y-90572027D01*
X120506285Y-91451699D01*
X120780816Y-92245371D01*
X121022037Y-92941342D01*
X121225900Y-93527912D01*
X121388362Y-93993379D01*
X121505378Y-94326042D01*
X121572901Y-94514200D01*
X121583862Y-94543167D01*
X121633643Y-94715193D01*
X121593734Y-94774768D01*
X121577056Y-94776000D01*
X121548634Y-94815495D01*
X121611942Y-94881834D01*
X121705042Y-95013767D01*
X121819275Y-95252777D01*
X121932501Y-95542229D01*
X122022581Y-95825488D01*
X122067376Y-96045920D01*
X122067482Y-96047161D01*
X122111786Y-96209424D01*
X122203668Y-96423061D01*
X122206238Y-96428161D01*
X122287658Y-96616979D01*
X122402078Y-96918149D01*
X122531280Y-97282621D01*
X122606740Y-97506500D01*
X122726417Y-97849737D01*
X122833841Y-98123178D01*
X122914971Y-98292957D01*
X122949003Y-98332000D01*
X123044465Y-98401040D01*
X123179963Y-98575583D01*
X123325933Y-98806762D01*
X123452811Y-99045712D01*
X123531032Y-99243566D01*
X123542667Y-99313258D01*
X123529066Y-99539639D01*
X123469199Y-99678910D01*
X123334468Y-99742927D01*
X123096278Y-99743544D01*
X122726031Y-99692617D01*
X122655657Y-99680984D01*
X122344130Y-99600740D01*
X122138783Y-99459504D01*
X121996170Y-99216410D01*
X121917079Y-98986242D01*
X121842740Y-98780562D01*
X121756854Y-98701335D01*
X121611741Y-98709578D01*
X121585502Y-98715160D01*
X121430941Y-98729818D01*
X121321658Y-98665741D01*
X121209114Y-98488266D01*
X121174574Y-98421711D01*
X121055868Y-98164451D01*
X120913508Y-97820947D01*
X120778207Y-97465326D01*
X120777549Y-97463502D01*
X120646268Y-97118421D01*
X120511539Y-96794956D01*
X120401784Y-96561224D01*
X120398609Y-96555254D01*
X120296224Y-96335382D01*
X120242858Y-96164969D01*
X120240667Y-96141111D01*
X120205861Y-96016376D01*
X120112463Y-95780190D01*
X119977000Y-95472860D01*
X119892979Y-95293190D01*
X119708359Y-94893852D01*
X119524482Y-94475647D01*
X119373814Y-94112943D01*
X119340579Y-94027742D01*
X119205106Y-93689874D01*
X119063247Y-93362706D01*
X118968590Y-93163262D01*
X118876275Y-92939869D01*
X118763570Y-92604750D01*
X118647668Y-92211289D01*
X118582428Y-91964187D01*
X118378560Y-91290093D01*
X118099883Y-90621428D01*
X117868489Y-90161667D01*
X117647256Y-89727498D01*
X117431645Y-89273229D01*
X117249272Y-88858705D01*
X117145656Y-88595334D01*
X117012560Y-88241386D01*
X116875804Y-87905150D01*
X116763339Y-87655123D01*
X116756066Y-87640576D01*
X116665090Y-87429348D01*
X116610391Y-87283000D01*
X118632000Y-87283000D01*
X118674334Y-87325334D01*
X118716667Y-87283000D01*
X118674334Y-87240667D01*
X118632000Y-87283000D01*
X116610391Y-87283000D01*
X116543284Y-87103457D01*
X116407851Y-86710615D01*
X116298249Y-86370576D01*
X116166875Y-85961839D01*
X116038150Y-85583831D01*
X115928271Y-85282899D01*
X115862580Y-85124000D01*
X115755326Y-84793017D01*
X115738639Y-84481983D01*
X115811288Y-84240188D01*
X115886767Y-84156099D01*
X116004918Y-84007786D01*
X116114774Y-83773227D01*
X116139275Y-83698882D01*
X116195963Y-83475994D01*
X116189381Y-83362505D01*
X116115039Y-83309013D01*
X116103459Y-83304980D01*
X116034307Y-83260694D01*
X115954593Y-83161267D01*
X115856562Y-82990216D01*
X115732457Y-82731060D01*
X115574521Y-82367316D01*
X115374998Y-81882504D01*
X115126132Y-81260140D01*
X115046952Y-81060000D01*
X114528653Y-79747667D01*
X114550205Y-78435334D01*
X114551082Y-77852765D01*
X114537931Y-77208379D01*
X114513044Y-76576464D01*
X114478714Y-76031309D01*
X114474474Y-75980000D01*
X114439182Y-75549058D01*
X114410947Y-75172710D01*
X114392237Y-74886334D01*
X114385518Y-74725309D01*
X114385909Y-74710000D01*
X114398473Y-74379558D01*
X114402333Y-73908996D01*
X114398380Y-73327258D01*
X114387506Y-72663284D01*
X114370602Y-71946017D01*
X114348561Y-71204399D01*
X114322273Y-70467371D01*
X114292632Y-69763877D01*
X114260528Y-69122857D01*
X114226854Y-68573254D01*
X114192500Y-68144010D01*
X114179837Y-68021852D01*
X114132492Y-67567514D01*
X114093973Y-67128564D01*
X114068442Y-66757180D01*
X114060000Y-66519019D01*
X114066166Y-66259734D01*
X114097973Y-66127389D01*
X114175388Y-66079685D01*
X114270054Y-66074000D01*
X114440287Y-66118814D01*
X114440287Y-66118814D01*
G37*
X114440287Y-66118814D02*
X114525792Y-66282252D01*
X114531572Y-66306834D01*
X114674023Y-66908358D01*
X114819017Y-67413767D01*
X114989658Y-67895022D01*
X115209053Y-68424087D01*
X115217820Y-68444176D01*
X115420164Y-68920130D01*
X115638328Y-69454049D01*
X115838018Y-69961254D01*
X115920945Y-70180334D01*
X116106425Y-70655193D01*
X116327929Y-71186043D01*
X116546797Y-71681145D01*
X116616725Y-71831334D01*
X116798683Y-72234507D01*
X116969168Y-72646152D01*
X117102453Y-73002719D01*
X117148045Y-73143667D01*
X117254751Y-73461721D01*
X117406574Y-73860479D01*
X117575674Y-74267831D01*
X117626323Y-74382516D01*
X117769260Y-74710343D01*
X117880725Y-74984384D01*
X117945047Y-75165167D01*
X117954667Y-75209698D01*
X117984792Y-75333027D01*
X118063576Y-75561630D01*
X118168123Y-75831351D01*
X118284660Y-76134472D01*
X118375798Y-76401288D01*
X118417848Y-76556675D01*
X118489082Y-76768772D01*
X118555820Y-76879226D01*
X118612465Y-77010125D01*
X118559347Y-77183997D01*
X118539867Y-77221617D01*
X118460363Y-77449830D01*
X118447095Y-77631360D01*
X118401719Y-77855700D01*
X118242338Y-78031462D01*
X118038991Y-78096667D01*
X117884292Y-78167044D01*
X117832751Y-78249980D01*
X117729505Y-78376337D01*
X117527839Y-78511872D01*
X117436469Y-78556664D01*
X117088846Y-78710035D01*
X116886779Y-78474875D01*
X116746147Y-78325953D01*
X116651580Y-78294954D01*
X116544869Y-78366382D01*
X116529856Y-78379857D01*
X116372297Y-78488908D01*
X116275833Y-78520000D01*
X116208590Y-78598418D01*
X116165829Y-78811071D01*
X116151943Y-79124055D01*
X116162455Y-79394840D01*
X116200559Y-79546253D01*
X116296507Y-79823512D01*
X116439285Y-80197763D01*
X116617878Y-80640151D01*
X116821270Y-81121821D01*
X116824968Y-81130390D01*
X117019481Y-81598974D01*
X117253792Y-82192726D01*
X117514548Y-82876040D01*
X117788398Y-83613308D01*
X118061987Y-84368923D01*
X118321963Y-85107280D01*
X118386086Y-85293217D01*
X118775537Y-86427369D01*
X119155948Y-87534027D01*
X119523274Y-88601490D01*
X119873468Y-89618057D01*
X120202487Y-90572027D01*
X120506285Y-91451699D01*
X120780816Y-92245371D01*
X121022037Y-92941342D01*
X121225900Y-93527912D01*
X121388362Y-93993379D01*
X121505378Y-94326042D01*
X121572901Y-94514200D01*
X121583862Y-94543167D01*
X121633643Y-94715193D01*
X121593734Y-94774768D01*
X121577056Y-94776000D01*
X121548634Y-94815495D01*
X121611942Y-94881834D01*
X121705042Y-95013767D01*
X121819275Y-95252777D01*
X121932501Y-95542229D01*
X122022581Y-95825488D01*
X122067376Y-96045920D01*
X122067482Y-96047161D01*
X122111786Y-96209424D01*
X122203668Y-96423061D01*
X122206238Y-96428161D01*
X122287658Y-96616979D01*
X122402078Y-96918149D01*
X122531280Y-97282621D01*
X122606740Y-97506500D01*
X122726417Y-97849737D01*
X122833841Y-98123178D01*
X122914971Y-98292957D01*
X122949003Y-98332000D01*
X123044465Y-98401040D01*
X123179963Y-98575583D01*
X123325933Y-98806762D01*
X123452811Y-99045712D01*
X123531032Y-99243566D01*
X123542667Y-99313258D01*
X123529066Y-99539639D01*
X123469199Y-99678910D01*
X123334468Y-99742927D01*
X123096278Y-99743544D01*
X122726031Y-99692617D01*
X122655657Y-99680984D01*
X122344130Y-99600740D01*
X122138783Y-99459504D01*
X121996170Y-99216410D01*
X121917079Y-98986242D01*
X121842740Y-98780562D01*
X121756854Y-98701335D01*
X121611741Y-98709578D01*
X121585502Y-98715160D01*
X121430941Y-98729818D01*
X121321658Y-98665741D01*
X121209114Y-98488266D01*
X121174574Y-98421711D01*
X121055868Y-98164451D01*
X120913508Y-97820947D01*
X120778207Y-97465326D01*
X120777549Y-97463502D01*
X120646268Y-97118421D01*
X120511539Y-96794956D01*
X120401784Y-96561224D01*
X120398609Y-96555254D01*
X120296224Y-96335382D01*
X120242858Y-96164969D01*
X120240667Y-96141111D01*
X120205861Y-96016376D01*
X120112463Y-95780190D01*
X119977000Y-95472860D01*
X119892979Y-95293190D01*
X119708359Y-94893852D01*
X119524482Y-94475647D01*
X119373814Y-94112943D01*
X119340579Y-94027742D01*
X119205106Y-93689874D01*
X119063247Y-93362706D01*
X118968590Y-93163262D01*
X118876275Y-92939869D01*
X118763570Y-92604750D01*
X118647668Y-92211289D01*
X118582428Y-91964187D01*
X118378560Y-91290093D01*
X118099883Y-90621428D01*
X117868489Y-90161667D01*
X117647256Y-89727498D01*
X117431645Y-89273229D01*
X117249272Y-88858705D01*
X117145656Y-88595334D01*
X117012560Y-88241386D01*
X116875804Y-87905150D01*
X116763339Y-87655123D01*
X116756066Y-87640576D01*
X116665090Y-87429348D01*
X116610391Y-87283000D01*
X118632000Y-87283000D01*
X118674334Y-87325334D01*
X118716667Y-87283000D01*
X118674334Y-87240667D01*
X118632000Y-87283000D01*
X116610391Y-87283000D01*
X116543284Y-87103457D01*
X116407851Y-86710615D01*
X116298249Y-86370576D01*
X116166875Y-85961839D01*
X116038150Y-85583831D01*
X115928271Y-85282899D01*
X115862580Y-85124000D01*
X115755326Y-84793017D01*
X115738639Y-84481983D01*
X115811288Y-84240188D01*
X115886767Y-84156099D01*
X116004918Y-84007786D01*
X116114774Y-83773227D01*
X116139275Y-83698882D01*
X116195963Y-83475994D01*
X116189381Y-83362505D01*
X116115039Y-83309013D01*
X116103459Y-83304980D01*
X116034307Y-83260694D01*
X115954593Y-83161267D01*
X115856562Y-82990216D01*
X115732457Y-82731060D01*
X115574521Y-82367316D01*
X115374998Y-81882504D01*
X115126132Y-81260140D01*
X115046952Y-81060000D01*
X114528653Y-79747667D01*
X114550205Y-78435334D01*
X114551082Y-77852765D01*
X114537931Y-77208379D01*
X114513044Y-76576464D01*
X114478714Y-76031309D01*
X114474474Y-75980000D01*
X114439182Y-75549058D01*
X114410947Y-75172710D01*
X114392237Y-74886334D01*
X114385518Y-74725309D01*
X114385909Y-74710000D01*
X114398473Y-74379558D01*
X114402333Y-73908996D01*
X114398380Y-73327258D01*
X114387506Y-72663284D01*
X114370602Y-71946017D01*
X114348561Y-71204399D01*
X114322273Y-70467371D01*
X114292632Y-69763877D01*
X114260528Y-69122857D01*
X114226854Y-68573254D01*
X114192500Y-68144010D01*
X114179837Y-68021852D01*
X114132492Y-67567514D01*
X114093973Y-67128564D01*
X114068442Y-66757180D01*
X114060000Y-66519019D01*
X114066166Y-66259734D01*
X114097973Y-66127389D01*
X114175388Y-66079685D01*
X114270054Y-66074000D01*
X114440287Y-66118814D01*
G36*
X142561639Y-99038798D02*
X142934270Y-99161939D01*
X142966648Y-99175658D01*
X143232951Y-99310244D01*
X143340111Y-99424122D01*
X143294952Y-99530176D01*
X143190900Y-99599021D01*
X143005962Y-99646400D01*
X142705642Y-99670898D01*
X142342365Y-99672298D01*
X141968559Y-99650384D01*
X141639232Y-99605440D01*
X141381209Y-99542678D01*
X141261914Y-99468876D01*
X141251282Y-99359453D01*
X141269558Y-99303218D01*
X141389020Y-99198925D01*
X141512851Y-99185376D01*
X141733073Y-99167174D01*
X141942012Y-99106810D01*
X142251323Y-99021794D01*
X142561639Y-99038798D01*
X142561639Y-99038798D01*
G37*
X142561639Y-99038798D02*
X142934270Y-99161939D01*
X142966648Y-99175658D01*
X143232951Y-99310244D01*
X143340111Y-99424122D01*
X143294952Y-99530176D01*
X143190900Y-99599021D01*
X143005962Y-99646400D01*
X142705642Y-99670898D01*
X142342365Y-99672298D01*
X141968559Y-99650384D01*
X141639232Y-99605440D01*
X141381209Y-99542678D01*
X141261914Y-99468876D01*
X141251282Y-99359453D01*
X141269558Y-99303218D01*
X141389020Y-99198925D01*
X141512851Y-99185376D01*
X141733073Y-99167174D01*
X141942012Y-99106810D01*
X142251323Y-99021794D01*
X142561639Y-99038798D01*
G36*
X166196913Y-69053593D02*
X166511000Y-69079667D01*
X166485689Y-69540800D01*
X166449453Y-69826794D01*
X166373281Y-70210960D01*
X166270402Y-70630698D01*
X166210522Y-70842977D01*
X166101943Y-71251619D01*
X166017096Y-71653034D01*
X165967840Y-71986836D01*
X165960216Y-72117511D01*
X165946819Y-72353020D01*
X165911014Y-72689168D01*
X165858837Y-73087233D01*
X165796325Y-73508490D01*
X165729516Y-73914216D01*
X165664448Y-74265687D01*
X165607158Y-74524180D01*
X165565695Y-74647940D01*
X165542043Y-74701494D01*
X165520870Y-74792607D01*
X165500609Y-74940319D01*
X165479693Y-75163672D01*
X165456556Y-75481706D01*
X165429630Y-75913462D01*
X165397349Y-76477980D01*
X165362004Y-77123000D01*
X165332250Y-77656594D01*
X165302733Y-78157987D01*
X165275620Y-78592367D01*
X165253078Y-78924924D01*
X165238084Y-79112667D01*
X165211258Y-79447146D01*
X165189456Y-79814027D01*
X165185184Y-79911654D01*
X165120393Y-80310813D01*
X164979829Y-80673654D01*
X164874675Y-80901632D01*
X164743223Y-81239807D01*
X164605215Y-81635424D01*
X164520718Y-81900443D01*
X164364660Y-82375393D01*
X164176826Y-82894856D01*
X163988646Y-83373426D01*
X163914881Y-83546660D01*
X163760816Y-83906417D01*
X163671407Y-84149818D01*
X163638095Y-84313199D01*
X163652323Y-84432894D01*
X163687362Y-84512722D01*
X163736937Y-84632793D01*
X163720210Y-84737700D01*
X163616001Y-84868638D01*
X163403133Y-85066801D01*
X163401975Y-85067838D01*
X163167625Y-85317560D01*
X162938817Y-85627897D01*
X162744515Y-85951390D01*
X162613679Y-86240582D01*
X162574000Y-86424590D01*
X162543158Y-86553986D01*
X162459321Y-86805418D01*
X162335522Y-87144991D01*
X162184794Y-87538811D01*
X162020169Y-87952985D01*
X161854681Y-88353617D01*
X161701363Y-88706815D01*
X161668961Y-88778280D01*
X161560880Y-89052813D01*
X161502229Y-89281082D01*
X161502282Y-89395318D01*
X161488512Y-89537930D01*
X161425413Y-89582860D01*
X161323011Y-89682304D01*
X161181705Y-89893071D01*
X161026543Y-90169692D01*
X160882575Y-90466698D01*
X160774850Y-90738620D01*
X160756716Y-90796667D01*
X160691819Y-90981340D01*
X160581570Y-91259107D01*
X160454651Y-91558667D01*
X160071518Y-92442639D01*
X159754986Y-93190969D01*
X159498124Y-93820547D01*
X159293997Y-94348263D01*
X159176024Y-94673955D01*
X158993205Y-95172033D01*
X158769745Y-95743599D01*
X158526759Y-96337644D01*
X158285365Y-96903158D01*
X158066680Y-97389131D01*
X157959618Y-97612334D01*
X157830012Y-97896535D01*
X157729812Y-98157362D01*
X157697244Y-98268500D01*
X157637984Y-98436887D01*
X157576001Y-98501334D01*
X157456734Y-98565137D01*
X157279602Y-98730033D01*
X157080715Y-98956247D01*
X156896180Y-99204005D01*
X156805088Y-99350501D01*
X156671726Y-99552343D01*
X156554007Y-99672270D01*
X156517369Y-99686667D01*
X156408039Y-99638374D01*
X156203877Y-99509890D01*
X155943073Y-99325810D01*
X155855627Y-99260495D01*
X155597280Y-99056068D01*
X155401389Y-98884204D01*
X155299956Y-98773614D01*
X155292667Y-98755441D01*
X155344311Y-98648864D01*
X155474481Y-98472573D01*
X155544014Y-98390290D01*
X155649597Y-98231655D01*
X155808857Y-97942372D01*
X156009228Y-97547633D01*
X156238144Y-97072628D01*
X156483039Y-96542548D01*
X156633022Y-96207178D01*
X156865837Y-95679639D01*
X157152459Y-95029633D01*
X157478549Y-94289709D01*
X157829769Y-93492415D01*
X158191779Y-92670300D01*
X158550241Y-91855914D01*
X158848652Y-91177667D01*
X159205655Y-90366810D01*
X159590466Y-89494124D01*
X159986371Y-88597419D01*
X160376659Y-87714507D01*
X160744621Y-86883196D01*
X161073543Y-86141299D01*
X161280989Y-85674334D01*
X161614282Y-84924340D01*
X161887522Y-84307369D01*
X162109773Y-83801857D01*
X162290100Y-83386242D01*
X162437568Y-83038961D01*
X162561242Y-82738453D01*
X162670186Y-82463153D01*
X162773465Y-82191501D01*
X162880144Y-81901932D01*
X162963271Y-81672669D01*
X163092919Y-81319848D01*
X163208578Y-81015950D01*
X163293640Y-80804103D01*
X163321932Y-80741336D01*
X163399188Y-80546386D01*
X163452901Y-80361500D01*
X163473231Y-80192871D01*
X163405747Y-80132848D01*
X163346672Y-80128667D01*
X163188218Y-80070284D01*
X163136049Y-80001667D01*
X163021200Y-79897082D01*
X162915324Y-79874667D01*
X162773535Y-79817799D01*
X162743334Y-79696275D01*
X162712760Y-79569446D01*
X162599079Y-79578535D01*
X162595167Y-79580163D01*
X162317081Y-79675726D01*
X162139002Y-79670075D01*
X162019877Y-79555673D01*
X161974350Y-79466216D01*
X161819447Y-79254120D01*
X161603945Y-79171114D01*
X161396740Y-79165039D01*
X161265900Y-79206415D01*
X161126371Y-79269264D01*
X160953494Y-79276742D01*
X160822779Y-79232638D01*
X160796000Y-79182834D01*
X160846691Y-79041140D01*
X160910126Y-78950000D01*
X160999705Y-78790481D01*
X161095070Y-78540620D01*
X161132869Y-78413905D01*
X161215731Y-78193736D01*
X161367794Y-77868534D01*
X161569457Y-77477446D01*
X161801121Y-77059618D01*
X161872313Y-76936998D01*
X162118766Y-76503881D01*
X162350934Y-76071906D01*
X162545862Y-75685389D01*
X162680597Y-75388651D01*
X162700821Y-75337330D01*
X162844213Y-75014680D01*
X163048525Y-74626630D01*
X163275364Y-74244929D01*
X163332714Y-74156455D01*
X163547092Y-73824880D01*
X163742990Y-73508129D01*
X163887979Y-73259101D01*
X163921974Y-73195219D01*
X164045865Y-72953996D01*
X164209225Y-72639665D01*
X164343836Y-72382791D01*
X164513703Y-72008397D01*
X164570811Y-71740441D01*
X164563123Y-71659524D01*
X164566298Y-71487550D01*
X164653406Y-71260636D01*
X164838054Y-70944408D01*
X164859344Y-70911285D01*
X165068599Y-70568625D01*
X165303643Y-70155077D01*
X165517936Y-69752864D01*
X165542959Y-69703479D01*
X165882825Y-69027519D01*
X166196913Y-69053593D01*
X166196913Y-69053593D01*
G37*
X166196913Y-69053593D02*
X166511000Y-69079667D01*
X166485689Y-69540800D01*
X166449453Y-69826794D01*
X166373281Y-70210960D01*
X166270402Y-70630698D01*
X166210522Y-70842977D01*
X166101943Y-71251619D01*
X166017096Y-71653034D01*
X165967840Y-71986836D01*
X165960216Y-72117511D01*
X165946819Y-72353020D01*
X165911014Y-72689168D01*
X165858837Y-73087233D01*
X165796325Y-73508490D01*
X165729516Y-73914216D01*
X165664448Y-74265687D01*
X165607158Y-74524180D01*
X165565695Y-74647940D01*
X165542043Y-74701494D01*
X165520870Y-74792607D01*
X165500609Y-74940319D01*
X165479693Y-75163672D01*
X165456556Y-75481706D01*
X165429630Y-75913462D01*
X165397349Y-76477980D01*
X165362004Y-77123000D01*
X165332250Y-77656594D01*
X165302733Y-78157987D01*
X165275620Y-78592367D01*
X165253078Y-78924924D01*
X165238084Y-79112667D01*
X165211258Y-79447146D01*
X165189456Y-79814027D01*
X165185184Y-79911654D01*
X165120393Y-80310813D01*
X164979829Y-80673654D01*
X164874675Y-80901632D01*
X164743223Y-81239807D01*
X164605215Y-81635424D01*
X164520718Y-81900443D01*
X164364660Y-82375393D01*
X164176826Y-82894856D01*
X163988646Y-83373426D01*
X163914881Y-83546660D01*
X163760816Y-83906417D01*
X163671407Y-84149818D01*
X163638095Y-84313199D01*
X163652323Y-84432894D01*
X163687362Y-84512722D01*
X163736937Y-84632793D01*
X163720210Y-84737700D01*
X163616001Y-84868638D01*
X163403133Y-85066801D01*
X163401975Y-85067838D01*
X163167625Y-85317560D01*
X162938817Y-85627897D01*
X162744515Y-85951390D01*
X162613679Y-86240582D01*
X162574000Y-86424590D01*
X162543158Y-86553986D01*
X162459321Y-86805418D01*
X162335522Y-87144991D01*
X162184794Y-87538811D01*
X162020169Y-87952985D01*
X161854681Y-88353617D01*
X161701363Y-88706815D01*
X161668961Y-88778280D01*
X161560880Y-89052813D01*
X161502229Y-89281082D01*
X161502282Y-89395318D01*
X161488512Y-89537930D01*
X161425413Y-89582860D01*
X161323011Y-89682304D01*
X161181705Y-89893071D01*
X161026543Y-90169692D01*
X160882575Y-90466698D01*
X160774850Y-90738620D01*
X160756716Y-90796667D01*
X160691819Y-90981340D01*
X160581570Y-91259107D01*
X160454651Y-91558667D01*
X160071518Y-92442639D01*
X159754986Y-93190969D01*
X159498124Y-93820547D01*
X159293997Y-94348263D01*
X159176024Y-94673955D01*
X158993205Y-95172033D01*
X158769745Y-95743599D01*
X158526759Y-96337644D01*
X158285365Y-96903158D01*
X158066680Y-97389131D01*
X157959618Y-97612334D01*
X157830012Y-97896535D01*
X157729812Y-98157362D01*
X157697244Y-98268500D01*
X157637984Y-98436887D01*
X157576001Y-98501334D01*
X157456734Y-98565137D01*
X157279602Y-98730033D01*
X157080715Y-98956247D01*
X156896180Y-99204005D01*
X156805088Y-99350501D01*
X156671726Y-99552343D01*
X156554007Y-99672270D01*
X156517369Y-99686667D01*
X156408039Y-99638374D01*
X156203877Y-99509890D01*
X155943073Y-99325810D01*
X155855627Y-99260495D01*
X155597280Y-99056068D01*
X155401389Y-98884204D01*
X155299956Y-98773614D01*
X155292667Y-98755441D01*
X155344311Y-98648864D01*
X155474481Y-98472573D01*
X155544014Y-98390290D01*
X155649597Y-98231655D01*
X155808857Y-97942372D01*
X156009228Y-97547633D01*
X156238144Y-97072628D01*
X156483039Y-96542548D01*
X156633022Y-96207178D01*
X156865837Y-95679639D01*
X157152459Y-95029633D01*
X157478549Y-94289709D01*
X157829769Y-93492415D01*
X158191779Y-92670300D01*
X158550241Y-91855914D01*
X158848652Y-91177667D01*
X159205655Y-90366810D01*
X159590466Y-89494124D01*
X159986371Y-88597419D01*
X160376659Y-87714507D01*
X160744621Y-86883196D01*
X161073543Y-86141299D01*
X161280989Y-85674334D01*
X161614282Y-84924340D01*
X161887522Y-84307369D01*
X162109773Y-83801857D01*
X162290100Y-83386242D01*
X162437568Y-83038961D01*
X162561242Y-82738453D01*
X162670186Y-82463153D01*
X162773465Y-82191501D01*
X162880144Y-81901932D01*
X162963271Y-81672669D01*
X163092919Y-81319848D01*
X163208578Y-81015950D01*
X163293640Y-80804103D01*
X163321932Y-80741336D01*
X163399188Y-80546386D01*
X163452901Y-80361500D01*
X163473231Y-80192871D01*
X163405747Y-80132848D01*
X163346672Y-80128667D01*
X163188218Y-80070284D01*
X163136049Y-80001667D01*
X163021200Y-79897082D01*
X162915324Y-79874667D01*
X162773535Y-79817799D01*
X162743334Y-79696275D01*
X162712760Y-79569446D01*
X162599079Y-79578535D01*
X162595167Y-79580163D01*
X162317081Y-79675726D01*
X162139002Y-79670075D01*
X162019877Y-79555673D01*
X161974350Y-79466216D01*
X161819447Y-79254120D01*
X161603945Y-79171114D01*
X161396740Y-79165039D01*
X161265900Y-79206415D01*
X161126371Y-79269264D01*
X160953494Y-79276742D01*
X160822779Y-79232638D01*
X160796000Y-79182834D01*
X160846691Y-79041140D01*
X160910126Y-78950000D01*
X160999705Y-78790481D01*
X161095070Y-78540620D01*
X161132869Y-78413905D01*
X161215731Y-78193736D01*
X161367794Y-77868534D01*
X161569457Y-77477446D01*
X161801121Y-77059618D01*
X161872313Y-76936998D01*
X162118766Y-76503881D01*
X162350934Y-76071906D01*
X162545862Y-75685389D01*
X162680597Y-75388651D01*
X162700821Y-75337330D01*
X162844213Y-75014680D01*
X163048525Y-74626630D01*
X163275364Y-74244929D01*
X163332714Y-74156455D01*
X163547092Y-73824880D01*
X163742990Y-73508129D01*
X163887979Y-73259101D01*
X163921974Y-73195219D01*
X164045865Y-72953996D01*
X164209225Y-72639665D01*
X164343836Y-72382791D01*
X164513703Y-72008397D01*
X164570811Y-71740441D01*
X164563123Y-71659524D01*
X164566298Y-71487550D01*
X164653406Y-71260636D01*
X164838054Y-70944408D01*
X164859344Y-70911285D01*
X165068599Y-70568625D01*
X165303643Y-70155077D01*
X165517936Y-69752864D01*
X165542959Y-69703479D01*
X165882825Y-69027519D01*
X166196913Y-69053593D01*
G36*
X148180667Y-85744889D02*
X148173466Y-86146366D01*
X148150170Y-86398064D01*
X148108237Y-86518991D01*
X148074834Y-86536696D01*
X147977799Y-86572927D01*
X147749730Y-86674318D01*
X147410899Y-86831029D01*
X146981580Y-87033219D01*
X146482045Y-87271046D01*
X145932566Y-87534670D01*
X145353416Y-87814249D01*
X144764867Y-88099943D01*
X144187193Y-88381910D01*
X143640665Y-88650311D01*
X143145557Y-88895303D01*
X142722140Y-89107046D01*
X142390688Y-89275699D01*
X142171473Y-89391421D01*
X142084768Y-89444371D01*
X142084667Y-89444510D01*
X141990966Y-89512908D01*
X141793710Y-89626404D01*
X141613682Y-89720625D01*
X141354488Y-89865022D01*
X141148742Y-90003929D01*
X141071493Y-90073595D01*
X140803409Y-90336940D01*
X140485217Y-90562969D01*
X140174233Y-90715110D01*
X139999919Y-90757362D01*
X139788036Y-90786885D01*
X139661806Y-90822762D01*
X139654156Y-90828289D01*
X139645323Y-90919144D01*
X139637033Y-91162231D01*
X139629482Y-91540449D01*
X139622866Y-92036698D01*
X139617382Y-92633875D01*
X139613224Y-93314881D01*
X139610591Y-94062614D01*
X139609710Y-94702893D01*
X139608358Y-95648221D01*
X139604958Y-96437005D01*
X139599149Y-97082023D01*
X139590568Y-97596057D01*
X139578850Y-97991886D01*
X139563634Y-98282291D01*
X139544555Y-98480051D01*
X139521252Y-98597946D01*
X139497730Y-98645032D01*
X139347360Y-98742943D01*
X139234671Y-98731541D01*
X139206000Y-98656167D01*
X139153649Y-98520336D01*
X139069692Y-98406382D01*
X139036336Y-98354729D01*
X139008893Y-98270244D01*
X138986833Y-98137672D01*
X138969626Y-97941760D01*
X138956742Y-97667256D01*
X138947651Y-97298905D01*
X138941823Y-96821454D01*
X138938728Y-96219650D01*
X138937836Y-95478240D01*
X138938545Y-94632048D01*
X138941161Y-93683165D01*
X138946365Y-92888953D01*
X138954601Y-92234763D01*
X138966309Y-91705947D01*
X138981930Y-91287855D01*
X139001907Y-90965840D01*
X139026682Y-90725253D01*
X139056695Y-90551444D01*
X139062285Y-90527748D01*
X139124856Y-90252607D01*
X139138260Y-90086810D01*
X139098462Y-89976490D01*
X139013756Y-89880053D01*
X138904261Y-89755161D01*
X138901904Y-89654964D01*
X139004894Y-89500190D01*
X139005157Y-89499836D01*
X139154559Y-89361109D01*
X139408657Y-89184265D01*
X139718588Y-89002551D01*
X139795290Y-88962198D01*
X140175530Y-88751502D01*
X140573250Y-88506902D01*
X140904382Y-88280181D01*
X140913517Y-88273367D01*
X141249314Y-88047953D01*
X141623359Y-87835303D01*
X141890561Y-87709215D01*
X142287337Y-87540833D01*
X142738457Y-87338625D01*
X143210045Y-87118964D01*
X143668225Y-86898224D01*
X144079122Y-86692778D01*
X144408861Y-86518998D01*
X144623565Y-86393258D01*
X144648392Y-86376268D01*
X145052981Y-86103178D01*
X145426963Y-85880771D01*
X145739792Y-85725327D01*
X145960920Y-85653126D01*
X146010260Y-85650471D01*
X146172667Y-85624654D01*
X146417148Y-85543253D01*
X146698962Y-85426772D01*
X146973367Y-85295717D01*
X147195625Y-85170594D01*
X147320994Y-85071906D01*
X147334000Y-85043782D01*
X147410848Y-84991508D01*
X147610821Y-84959822D01*
X147757334Y-84954667D01*
X148180667Y-84954667D01*
X148180667Y-85744889D01*
X148180667Y-85744889D01*
G37*
X148180667Y-85744889D02*
X148173466Y-86146366D01*
X148150170Y-86398064D01*
X148108237Y-86518991D01*
X148074834Y-86536696D01*
X147977799Y-86572927D01*
X147749730Y-86674318D01*
X147410899Y-86831029D01*
X146981580Y-87033219D01*
X146482045Y-87271046D01*
X145932566Y-87534670D01*
X145353416Y-87814249D01*
X144764867Y-88099943D01*
X144187193Y-88381910D01*
X143640665Y-88650311D01*
X143145557Y-88895303D01*
X142722140Y-89107046D01*
X142390688Y-89275699D01*
X142171473Y-89391421D01*
X142084768Y-89444371D01*
X142084667Y-89444510D01*
X141990966Y-89512908D01*
X141793710Y-89626404D01*
X141613682Y-89720625D01*
X141354488Y-89865022D01*
X141148742Y-90003929D01*
X141071493Y-90073595D01*
X140803409Y-90336940D01*
X140485217Y-90562969D01*
X140174233Y-90715110D01*
X139999919Y-90757362D01*
X139788036Y-90786885D01*
X139661806Y-90822762D01*
X139654156Y-90828289D01*
X139645323Y-90919144D01*
X139637033Y-91162231D01*
X139629482Y-91540449D01*
X139622866Y-92036698D01*
X139617382Y-92633875D01*
X139613224Y-93314881D01*
X139610591Y-94062614D01*
X139609710Y-94702893D01*
X139608358Y-95648221D01*
X139604958Y-96437005D01*
X139599149Y-97082023D01*
X139590568Y-97596057D01*
X139578850Y-97991886D01*
X139563634Y-98282291D01*
X139544555Y-98480051D01*
X139521252Y-98597946D01*
X139497730Y-98645032D01*
X139347360Y-98742943D01*
X139234671Y-98731541D01*
X139206000Y-98656167D01*
X139153649Y-98520336D01*
X139069692Y-98406382D01*
X139036336Y-98354729D01*
X139008893Y-98270244D01*
X138986833Y-98137672D01*
X138969626Y-97941760D01*
X138956742Y-97667256D01*
X138947651Y-97298905D01*
X138941823Y-96821454D01*
X138938728Y-96219650D01*
X138937836Y-95478240D01*
X138938545Y-94632048D01*
X138941161Y-93683165D01*
X138946365Y-92888953D01*
X138954601Y-92234763D01*
X138966309Y-91705947D01*
X138981930Y-91287855D01*
X139001907Y-90965840D01*
X139026682Y-90725253D01*
X139056695Y-90551444D01*
X139062285Y-90527748D01*
X139124856Y-90252607D01*
X139138260Y-90086810D01*
X139098462Y-89976490D01*
X139013756Y-89880053D01*
X138904261Y-89755161D01*
X138901904Y-89654964D01*
X139004894Y-89500190D01*
X139005157Y-89499836D01*
X139154559Y-89361109D01*
X139408657Y-89184265D01*
X139718588Y-89002551D01*
X139795290Y-88962198D01*
X140175530Y-88751502D01*
X140573250Y-88506902D01*
X140904382Y-88280181D01*
X140913517Y-88273367D01*
X141249314Y-88047953D01*
X141623359Y-87835303D01*
X141890561Y-87709215D01*
X142287337Y-87540833D01*
X142738457Y-87338625D01*
X143210045Y-87118964D01*
X143668225Y-86898224D01*
X144079122Y-86692778D01*
X144408861Y-86518998D01*
X144623565Y-86393258D01*
X144648392Y-86376268D01*
X145052981Y-86103178D01*
X145426963Y-85880771D01*
X145739792Y-85725327D01*
X145960920Y-85653126D01*
X146010260Y-85650471D01*
X146172667Y-85624654D01*
X146417148Y-85543253D01*
X146698962Y-85426772D01*
X146973367Y-85295717D01*
X147195625Y-85170594D01*
X147320994Y-85071906D01*
X147334000Y-85043782D01*
X147410848Y-84991508D01*
X147610821Y-84959822D01*
X147757334Y-84954667D01*
X148180667Y-84954667D01*
X148180667Y-85744889D01*
G36*
X128798211Y-88008622D02*
X129136595Y-88024882D01*
X129375369Y-88049035D01*
X129481387Y-88078672D01*
X129483445Y-88081936D01*
X129573872Y-88189329D01*
X129798587Y-88376583D01*
X130160605Y-88645994D01*
X130662947Y-88999857D01*
X130951000Y-89197788D01*
X131299863Y-89438473D01*
X131628969Y-89669859D01*
X131892951Y-89859838D01*
X132009334Y-89946841D01*
X132277043Y-90145644D01*
X132418807Y-90231576D01*
X132434546Y-90204636D01*
X132324180Y-90064821D01*
X132221000Y-89951856D01*
X132052630Y-89763870D01*
X131982910Y-89663526D01*
X132016678Y-89653928D01*
X132158771Y-89738177D01*
X132414026Y-89919378D01*
X132787281Y-90200632D01*
X133283372Y-90585042D01*
X133620248Y-90849365D01*
X134200456Y-91262971D01*
X134750540Y-91552557D01*
X135325535Y-91740462D01*
X135980480Y-91849028D01*
X136115667Y-91862277D01*
X136433978Y-91885629D01*
X136638418Y-91878074D01*
X136783264Y-91828728D01*
X136922791Y-91726702D01*
X136962334Y-91692451D01*
X137287200Y-91471756D01*
X137615315Y-91397281D01*
X137871189Y-91422938D01*
X138141982Y-91489190D01*
X138320526Y-91580392D01*
X138424194Y-91728838D01*
X138470361Y-91966820D01*
X138476400Y-92326634D01*
X138470645Y-92537173D01*
X138447284Y-92986238D01*
X138404004Y-93290423D01*
X138328318Y-93474022D01*
X138207739Y-93561325D01*
X138029783Y-93576625D01*
X137940707Y-93568145D01*
X137676793Y-93562650D01*
X137451314Y-93600423D01*
X137443623Y-93603149D01*
X137183007Y-93621129D01*
X136956557Y-93479398D01*
X136780983Y-93193966D01*
X136697580Y-93015070D01*
X136606871Y-92935522D01*
X136450357Y-92928398D01*
X136258984Y-92953746D01*
X136007967Y-93002384D01*
X135828891Y-93058678D01*
X135788080Y-93082786D01*
X135762093Y-93205405D01*
X135786729Y-93427488D01*
X135848076Y-93691944D01*
X135932226Y-93941680D01*
X136025269Y-94119605D01*
X136046806Y-94144711D01*
X136132652Y-94348104D01*
X136117315Y-94514497D01*
X136105284Y-94712969D01*
X136153043Y-94815270D01*
X136218249Y-94932440D01*
X136242667Y-95114152D01*
X136283121Y-95471394D01*
X136405467Y-95681981D01*
X136611182Y-95748277D01*
X136637724Y-95746961D01*
X136878269Y-95708881D01*
X137039443Y-95661202D01*
X137151702Y-95633526D01*
X137163891Y-95714006D01*
X137141981Y-95798886D01*
X137044589Y-96190162D01*
X137021780Y-96436953D01*
X137073217Y-96546633D01*
X137107467Y-96554000D01*
X137259140Y-96604486D01*
X137388111Y-96721211D01*
X137452727Y-96852082D01*
X137417346Y-96941585D01*
X137305827Y-96947704D01*
X137277775Y-96907657D01*
X137210328Y-96803015D01*
X137144109Y-96842007D01*
X137098602Y-96999920D01*
X137089334Y-97146667D01*
X137112439Y-97372388D01*
X137167604Y-97477834D01*
X137233602Y-97446814D01*
X137283581Y-97294834D01*
X137309725Y-97201807D01*
X137325783Y-97267218D01*
X137331803Y-97369133D01*
X137378635Y-97590771D01*
X137470334Y-97739334D01*
X137577655Y-97878173D01*
X137597334Y-97951316D01*
X137519625Y-98040599D01*
X137314299Y-98125705D01*
X137023055Y-98200087D01*
X136687592Y-98257193D01*
X136349610Y-98290477D01*
X136050808Y-98293388D01*
X135832884Y-98259377D01*
X135781668Y-98236473D01*
X135504152Y-98019421D01*
X135320857Y-97779980D01*
X135259355Y-97557093D01*
X135266249Y-97508487D01*
X135269635Y-97361929D01*
X135170874Y-97238617D01*
X135012589Y-97134026D01*
X134709786Y-96955367D01*
X134840151Y-96816600D01*
X136768406Y-96816600D01*
X136795643Y-96952515D01*
X136851073Y-97058574D01*
X136884169Y-97006347D01*
X136898254Y-96949540D01*
X136906049Y-96795649D01*
X136885151Y-96744929D01*
X136804493Y-96724749D01*
X136768406Y-96816600D01*
X134840151Y-96816600D01*
X134894897Y-96758326D01*
X134992425Y-96645596D01*
X135035470Y-96541180D01*
X135026860Y-96394290D01*
X134969424Y-96154136D01*
X134935551Y-96028475D01*
X134844200Y-95670205D01*
X134760780Y-95307522D01*
X134718540Y-95099131D01*
X134652922Y-94816764D01*
X134574001Y-94577082D01*
X134545357Y-94514569D01*
X134466609Y-94338042D01*
X134360286Y-94062678D01*
X134259095Y-93776237D01*
X134173756Y-93533083D01*
X134091275Y-93356967D01*
X133980769Y-93214684D01*
X133811352Y-93073028D01*
X133552142Y-92898794D01*
X133286905Y-92730965D01*
X132963000Y-92530654D01*
X132691353Y-92369236D01*
X132503939Y-92265300D01*
X132435425Y-92236000D01*
X132354668Y-92300580D01*
X132222691Y-92464698D01*
X132146383Y-92574667D01*
X131979398Y-92810307D01*
X131891578Y-92901844D01*
X131889883Y-92852124D01*
X131981271Y-92663993D01*
X132053573Y-92536719D01*
X132274284Y-92160104D01*
X129855809Y-90546320D01*
X129193334Y-90102707D01*
X128659928Y-89741374D01*
X128242545Y-89452535D01*
X127928137Y-89226403D01*
X127703655Y-89053189D01*
X127556053Y-88923108D01*
X127472284Y-88826372D01*
X127439298Y-88753194D01*
X127437334Y-88732185D01*
X127420240Y-88499584D01*
X127384417Y-88267250D01*
X127331500Y-88002667D01*
X128393361Y-88002667D01*
X128798211Y-88008622D01*
X128798211Y-88008622D01*
G37*
X128798211Y-88008622D02*
X129136595Y-88024882D01*
X129375369Y-88049035D01*
X129481387Y-88078672D01*
X129483445Y-88081936D01*
X129573872Y-88189329D01*
X129798587Y-88376583D01*
X130160605Y-88645994D01*
X130662947Y-88999857D01*
X130951000Y-89197788D01*
X131299863Y-89438473D01*
X131628969Y-89669859D01*
X131892951Y-89859838D01*
X132009334Y-89946841D01*
X132277043Y-90145644D01*
X132418807Y-90231576D01*
X132434546Y-90204636D01*
X132324180Y-90064821D01*
X132221000Y-89951856D01*
X132052630Y-89763870D01*
X131982910Y-89663526D01*
X132016678Y-89653928D01*
X132158771Y-89738177D01*
X132414026Y-89919378D01*
X132787281Y-90200632D01*
X133283372Y-90585042D01*
X133620248Y-90849365D01*
X134200456Y-91262971D01*
X134750540Y-91552557D01*
X135325535Y-91740462D01*
X135980480Y-91849028D01*
X136115667Y-91862277D01*
X136433978Y-91885629D01*
X136638418Y-91878074D01*
X136783264Y-91828728D01*
X136922791Y-91726702D01*
X136962334Y-91692451D01*
X137287200Y-91471756D01*
X137615315Y-91397281D01*
X137871189Y-91422938D01*
X138141982Y-91489190D01*
X138320526Y-91580392D01*
X138424194Y-91728838D01*
X138470361Y-91966820D01*
X138476400Y-92326634D01*
X138470645Y-92537173D01*
X138447284Y-92986238D01*
X138404004Y-93290423D01*
X138328318Y-93474022D01*
X138207739Y-93561325D01*
X138029783Y-93576625D01*
X137940707Y-93568145D01*
X137676793Y-93562650D01*
X137451314Y-93600423D01*
X137443623Y-93603149D01*
X137183007Y-93621129D01*
X136956557Y-93479398D01*
X136780983Y-93193966D01*
X136697580Y-93015070D01*
X136606871Y-92935522D01*
X136450357Y-92928398D01*
X136258984Y-92953746D01*
X136007967Y-93002384D01*
X135828891Y-93058678D01*
X135788080Y-93082786D01*
X135762093Y-93205405D01*
X135786729Y-93427488D01*
X135848076Y-93691944D01*
X135932226Y-93941680D01*
X136025269Y-94119605D01*
X136046806Y-94144711D01*
X136132652Y-94348104D01*
X136117315Y-94514497D01*
X136105284Y-94712969D01*
X136153043Y-94815270D01*
X136218249Y-94932440D01*
X136242667Y-95114152D01*
X136283121Y-95471394D01*
X136405467Y-95681981D01*
X136611182Y-95748277D01*
X136637724Y-95746961D01*
X136878269Y-95708881D01*
X137039443Y-95661202D01*
X137151702Y-95633526D01*
X137163891Y-95714006D01*
X137141981Y-95798886D01*
X137044589Y-96190162D01*
X137021780Y-96436953D01*
X137073217Y-96546633D01*
X137107467Y-96554000D01*
X137259140Y-96604486D01*
X137388111Y-96721211D01*
X137452727Y-96852082D01*
X137417346Y-96941585D01*
X137305827Y-96947704D01*
X137277775Y-96907657D01*
X137210328Y-96803015D01*
X137144109Y-96842007D01*
X137098602Y-96999920D01*
X137089334Y-97146667D01*
X137112439Y-97372388D01*
X137167604Y-97477834D01*
X137233602Y-97446814D01*
X137283581Y-97294834D01*
X137309725Y-97201807D01*
X137325783Y-97267218D01*
X137331803Y-97369133D01*
X137378635Y-97590771D01*
X137470334Y-97739334D01*
X137577655Y-97878173D01*
X137597334Y-97951316D01*
X137519625Y-98040599D01*
X137314299Y-98125705D01*
X137023055Y-98200087D01*
X136687592Y-98257193D01*
X136349610Y-98290477D01*
X136050808Y-98293388D01*
X135832884Y-98259377D01*
X135781668Y-98236473D01*
X135504152Y-98019421D01*
X135320857Y-97779980D01*
X135259355Y-97557093D01*
X135266249Y-97508487D01*
X135269635Y-97361929D01*
X135170874Y-97238617D01*
X135012589Y-97134026D01*
X134709786Y-96955367D01*
X134840151Y-96816600D01*
X136768406Y-96816600D01*
X136795643Y-96952515D01*
X136851073Y-97058574D01*
X136884169Y-97006347D01*
X136898254Y-96949540D01*
X136906049Y-96795649D01*
X136885151Y-96744929D01*
X136804493Y-96724749D01*
X136768406Y-96816600D01*
X134840151Y-96816600D01*
X134894897Y-96758326D01*
X134992425Y-96645596D01*
X135035470Y-96541180D01*
X135026860Y-96394290D01*
X134969424Y-96154136D01*
X134935551Y-96028475D01*
X134844200Y-95670205D01*
X134760780Y-95307522D01*
X134718540Y-95099131D01*
X134652922Y-94816764D01*
X134574001Y-94577082D01*
X134545357Y-94514569D01*
X134466609Y-94338042D01*
X134360286Y-94062678D01*
X134259095Y-93776237D01*
X134173756Y-93533083D01*
X134091275Y-93356967D01*
X133980769Y-93214684D01*
X133811352Y-93073028D01*
X133552142Y-92898794D01*
X133286905Y-92730965D01*
X132963000Y-92530654D01*
X132691353Y-92369236D01*
X132503939Y-92265300D01*
X132435425Y-92236000D01*
X132354668Y-92300580D01*
X132222691Y-92464698D01*
X132146383Y-92574667D01*
X131979398Y-92810307D01*
X131891578Y-92901844D01*
X131889883Y-92852124D01*
X131981271Y-92663993D01*
X132053573Y-92536719D01*
X132274284Y-92160104D01*
X129855809Y-90546320D01*
X129193334Y-90102707D01*
X128659928Y-89741374D01*
X128242545Y-89452535D01*
X127928137Y-89226403D01*
X127703655Y-89053189D01*
X127556053Y-88923108D01*
X127472284Y-88826372D01*
X127439298Y-88753194D01*
X127437334Y-88732185D01*
X127420240Y-88499584D01*
X127384417Y-88267250D01*
X127331500Y-88002667D01*
X128393361Y-88002667D01*
X128798211Y-88008622D01*
G36*
X137851334Y-95495667D02*
X137809000Y-95538000D01*
X137766667Y-95495667D01*
X137809000Y-95453334D01*
X137851334Y-95495667D01*
X137851334Y-95495667D01*
G37*
X137851334Y-95495667D02*
X137809000Y-95538000D01*
X137766667Y-95495667D01*
X137809000Y-95453334D01*
X137851334Y-95495667D01*
G36*
X137748838Y-95251036D02*
X137809059Y-95345927D01*
X137721565Y-95378280D01*
X137706505Y-95379472D01*
X137495723Y-95397284D01*
X137361246Y-95410402D01*
X137221898Y-95393080D01*
X137201025Y-95336096D01*
X137301285Y-95263929D01*
X137393544Y-95256748D01*
X137547696Y-95237396D01*
X137596098Y-95202618D01*
X137678581Y-95196313D01*
X137748838Y-95251036D01*
X137748838Y-95251036D01*
G37*
X137748838Y-95251036D02*
X137809059Y-95345927D01*
X137721565Y-95378280D01*
X137706505Y-95379472D01*
X137495723Y-95397284D01*
X137361246Y-95410402D01*
X137221898Y-95393080D01*
X137201025Y-95336096D01*
X137301285Y-95263929D01*
X137393544Y-95256748D01*
X137547696Y-95237396D01*
X137596098Y-95202618D01*
X137678581Y-95196313D01*
X137748838Y-95251036D01*
G36*
X135477180Y-90346473D02*
X135493001Y-90485641D01*
X135392355Y-90654285D01*
X135254121Y-90748869D01*
X135187440Y-90717027D01*
X135162264Y-90561620D01*
X135217041Y-90393449D01*
X135320978Y-90293504D01*
X135350314Y-90288667D01*
X135477180Y-90346473D01*
X135477180Y-90346473D01*
G37*
X135477180Y-90346473D02*
X135493001Y-90485641D01*
X135392355Y-90654285D01*
X135254121Y-90748869D01*
X135187440Y-90717027D01*
X135162264Y-90561620D01*
X135217041Y-90393449D01*
X135320978Y-90293504D01*
X135350314Y-90288667D01*
X135477180Y-90346473D01*
G36*
X132038160Y-85148572D02*
X132346974Y-85222017D01*
X132495230Y-85343932D01*
X132493470Y-85487399D01*
X132514691Y-85594614D01*
X132652322Y-85754651D01*
X132919078Y-85981089D01*
X133051213Y-86083028D01*
X133364819Y-86312187D01*
X133665939Y-86517643D01*
X133902698Y-86664426D01*
X133956667Y-86693430D01*
X134198219Y-86846028D01*
X134464344Y-87058886D01*
X134567613Y-87155530D01*
X134810248Y-87365011D01*
X135128776Y-87598344D01*
X135414280Y-87780696D01*
X135762799Y-88019753D01*
X136119913Y-88319311D01*
X136349853Y-88551071D01*
X136753373Y-89009721D01*
X136358735Y-89649194D01*
X136177975Y-89932673D01*
X136028271Y-90150041D01*
X135932407Y-90268972D01*
X135912883Y-90281760D01*
X135808362Y-90246298D01*
X135616361Y-90167730D01*
X135573668Y-90149281D01*
X135310265Y-90010655D01*
X135036407Y-89832807D01*
X134996856Y-89803421D01*
X134815704Y-89681523D01*
X134522246Y-89502265D01*
X134153738Y-89287692D01*
X133747435Y-89059850D01*
X133651365Y-89007239D01*
X133052826Y-88669836D01*
X132575512Y-88370887D01*
X132184433Y-88083492D01*
X131844601Y-87780753D01*
X131521026Y-87435770D01*
X131359628Y-87245360D01*
X130908667Y-86699720D01*
X130908667Y-85124000D01*
X131569818Y-85124000D01*
X132038160Y-85148572D01*
X132038160Y-85148572D01*
G37*
X132038160Y-85148572D02*
X132346974Y-85222017D01*
X132495230Y-85343932D01*
X132493470Y-85487399D01*
X132514691Y-85594614D01*
X132652322Y-85754651D01*
X132919078Y-85981089D01*
X133051213Y-86083028D01*
X133364819Y-86312187D01*
X133665939Y-86517643D01*
X133902698Y-86664426D01*
X133956667Y-86693430D01*
X134198219Y-86846028D01*
X134464344Y-87058886D01*
X134567613Y-87155530D01*
X134810248Y-87365011D01*
X135128776Y-87598344D01*
X135414280Y-87780696D01*
X135762799Y-88019753D01*
X136119913Y-88319311D01*
X136349853Y-88551071D01*
X136753373Y-89009721D01*
X136358735Y-89649194D01*
X136177975Y-89932673D01*
X136028271Y-90150041D01*
X135932407Y-90268972D01*
X135912883Y-90281760D01*
X135808362Y-90246298D01*
X135616361Y-90167730D01*
X135573668Y-90149281D01*
X135310265Y-90010655D01*
X135036407Y-89832807D01*
X134996856Y-89803421D01*
X134815704Y-89681523D01*
X134522246Y-89502265D01*
X134153738Y-89287692D01*
X133747435Y-89059850D01*
X133651365Y-89007239D01*
X133052826Y-88669836D01*
X132575512Y-88370887D01*
X132184433Y-88083492D01*
X131844601Y-87780753D01*
X131521026Y-87435770D01*
X131359628Y-87245360D01*
X130908667Y-86699720D01*
X130908667Y-85124000D01*
X131569818Y-85124000D01*
X132038160Y-85148572D01*
G36*
X131586000Y-89399667D02*
X131543667Y-89442000D01*
X131501334Y-89399667D01*
X131543667Y-89357334D01*
X131586000Y-89399667D01*
X131586000Y-89399667D01*
G37*
X131586000Y-89399667D02*
X131543667Y-89442000D01*
X131501334Y-89399667D01*
X131543667Y-89357334D01*
X131586000Y-89399667D01*
G36*
X162027020Y-66302151D02*
X162116809Y-66457826D01*
X162065697Y-66667234D01*
X162004570Y-66863296D01*
X161977617Y-67105601D01*
X161945220Y-67375179D01*
X161870363Y-67674663D01*
X161854635Y-67721167D01*
X161785776Y-67977966D01*
X161806082Y-68134997D01*
X161827834Y-68167412D01*
X161864396Y-68282673D01*
X161842553Y-68491905D01*
X161758793Y-68823777D01*
X161739192Y-68890912D01*
X161563748Y-69622896D01*
X161432566Y-70465251D01*
X161353910Y-71362886D01*
X161346829Y-71506216D01*
X161313398Y-71936844D01*
X161254314Y-72421336D01*
X161188919Y-72818549D01*
X161140101Y-73140441D01*
X161092151Y-73582980D01*
X161049406Y-74097518D01*
X161016201Y-74635403D01*
X161005245Y-74879334D01*
X160956806Y-75730269D01*
X160884153Y-76414179D01*
X160788177Y-76927834D01*
X160700144Y-77350793D01*
X160630081Y-77815464D01*
X160595178Y-78192436D01*
X160572832Y-78519993D01*
X160534424Y-78727932D01*
X160463073Y-78865963D01*
X160341899Y-78983800D01*
X160320622Y-79001015D01*
X160076330Y-79144878D01*
X159842856Y-79198242D01*
X159675462Y-79148971D01*
X159670090Y-79143868D01*
X159662401Y-79036744D01*
X159705172Y-78924950D01*
X159760061Y-78779009D01*
X159754899Y-78720677D01*
X159657381Y-78698146D01*
X159435867Y-78674542D01*
X159135595Y-78654524D01*
X159091872Y-78652368D01*
X158611441Y-78609213D01*
X158255803Y-78533479D01*
X158041789Y-78429636D01*
X157989713Y-78359844D01*
X157882542Y-78291533D01*
X157642507Y-78258734D01*
X157302681Y-78263214D01*
X156922500Y-78302893D01*
X156627487Y-78329473D01*
X156489763Y-78301747D01*
X156478000Y-78276041D01*
X156420357Y-78227506D01*
X156256035Y-78269916D01*
X156022430Y-78308847D01*
X155932611Y-78270103D01*
X155872972Y-78132796D01*
X155856920Y-77906812D01*
X155882280Y-77666507D01*
X155946882Y-77486239D01*
X155955878Y-77473790D01*
X156023735Y-77347106D01*
X156123871Y-77114462D01*
X156218588Y-76869000D01*
X156365910Y-76517271D01*
X156543551Y-76160779D01*
X156652812Y-75973165D01*
X156830741Y-75653172D01*
X156998073Y-75286130D01*
X157058574Y-75126499D01*
X157171692Y-74836543D01*
X157335478Y-74463620D01*
X157520441Y-74073923D01*
X157583609Y-73948000D01*
X157740236Y-73630377D01*
X157859339Y-73368573D01*
X157924743Y-73199259D01*
X157931862Y-73158427D01*
X157969055Y-73053824D01*
X158084849Y-72885383D01*
X158114515Y-72849107D01*
X158212253Y-72703212D01*
X158370626Y-72431879D01*
X158575182Y-72061447D01*
X158811467Y-71618251D01*
X159065029Y-71128630D01*
X159144809Y-70971681D01*
X159397952Y-70475182D01*
X159634440Y-70018384D01*
X159840606Y-69627136D01*
X160002782Y-69327285D01*
X160107302Y-69144683D01*
X160126488Y-69115022D01*
X160321916Y-68815801D01*
X160537300Y-68454815D01*
X160751316Y-68071682D01*
X160942641Y-67706017D01*
X161089952Y-67397438D01*
X161171926Y-67185560D01*
X161177934Y-67161522D01*
X161250889Y-66927131D01*
X161343417Y-66754127D01*
X161345742Y-66751334D01*
X161458840Y-66565459D01*
X161511358Y-66433834D01*
X161614218Y-66284140D01*
X161808647Y-66243334D01*
X162027020Y-66302151D01*
X162027020Y-66302151D01*
G37*
X162027020Y-66302151D02*
X162116809Y-66457826D01*
X162065697Y-66667234D01*
X162004570Y-66863296D01*
X161977617Y-67105601D01*
X161945220Y-67375179D01*
X161870363Y-67674663D01*
X161854635Y-67721167D01*
X161785776Y-67977966D01*
X161806082Y-68134997D01*
X161827834Y-68167412D01*
X161864396Y-68282673D01*
X161842553Y-68491905D01*
X161758793Y-68823777D01*
X161739192Y-68890912D01*
X161563748Y-69622896D01*
X161432566Y-70465251D01*
X161353910Y-71362886D01*
X161346829Y-71506216D01*
X161313398Y-71936844D01*
X161254314Y-72421336D01*
X161188919Y-72818549D01*
X161140101Y-73140441D01*
X161092151Y-73582980D01*
X161049406Y-74097518D01*
X161016201Y-74635403D01*
X161005245Y-74879334D01*
X160956806Y-75730269D01*
X160884153Y-76414179D01*
X160788177Y-76927834D01*
X160700144Y-77350793D01*
X160630081Y-77815464D01*
X160595178Y-78192436D01*
X160572832Y-78519993D01*
X160534424Y-78727932D01*
X160463073Y-78865963D01*
X160341899Y-78983800D01*
X160320622Y-79001015D01*
X160076330Y-79144878D01*
X159842856Y-79198242D01*
X159675462Y-79148971D01*
X159670090Y-79143868D01*
X159662401Y-79036744D01*
X159705172Y-78924950D01*
X159760061Y-78779009D01*
X159754899Y-78720677D01*
X159657381Y-78698146D01*
X159435867Y-78674542D01*
X159135595Y-78654524D01*
X159091872Y-78652368D01*
X158611441Y-78609213D01*
X158255803Y-78533479D01*
X158041789Y-78429636D01*
X157989713Y-78359844D01*
X157882542Y-78291533D01*
X157642507Y-78258734D01*
X157302681Y-78263214D01*
X156922500Y-78302893D01*
X156627487Y-78329473D01*
X156489763Y-78301747D01*
X156478000Y-78276041D01*
X156420357Y-78227506D01*
X156256035Y-78269916D01*
X156022430Y-78308847D01*
X155932611Y-78270103D01*
X155872972Y-78132796D01*
X155856920Y-77906812D01*
X155882280Y-77666507D01*
X155946882Y-77486239D01*
X155955878Y-77473790D01*
X156023735Y-77347106D01*
X156123871Y-77114462D01*
X156218588Y-76869000D01*
X156365910Y-76517271D01*
X156543551Y-76160779D01*
X156652812Y-75973165D01*
X156830741Y-75653172D01*
X156998073Y-75286130D01*
X157058574Y-75126499D01*
X157171692Y-74836543D01*
X157335478Y-74463620D01*
X157520441Y-74073923D01*
X157583609Y-73948000D01*
X157740236Y-73630377D01*
X157859339Y-73368573D01*
X157924743Y-73199259D01*
X157931862Y-73158427D01*
X157969055Y-73053824D01*
X158084849Y-72885383D01*
X158114515Y-72849107D01*
X158212253Y-72703212D01*
X158370626Y-72431879D01*
X158575182Y-72061447D01*
X158811467Y-71618251D01*
X159065029Y-71128630D01*
X159144809Y-70971681D01*
X159397952Y-70475182D01*
X159634440Y-70018384D01*
X159840606Y-69627136D01*
X160002782Y-69327285D01*
X160107302Y-69144683D01*
X160126488Y-69115022D01*
X160321916Y-68815801D01*
X160537300Y-68454815D01*
X160751316Y-68071682D01*
X160942641Y-67706017D01*
X161089952Y-67397438D01*
X161171926Y-67185560D01*
X161177934Y-67161522D01*
X161250889Y-66927131D01*
X161343417Y-66754127D01*
X161345742Y-66751334D01*
X161458840Y-66565459D01*
X161511358Y-66433834D01*
X161614218Y-66284140D01*
X161808647Y-66243334D01*
X162027020Y-66302151D01*
G36*
X116684667Y-78477667D02*
X116642334Y-78520000D01*
X116600000Y-78477667D01*
X116642334Y-78435334D01*
X116684667Y-78477667D01*
X116684667Y-78477667D01*
G37*
X116684667Y-78477667D02*
X116642334Y-78520000D01*
X116600000Y-78477667D01*
X116642334Y-78435334D01*
X116684667Y-78477667D01*
G36*
X158034735Y-65245369D02*
X158008096Y-65544232D01*
X157952934Y-65812458D01*
X157929920Y-65880369D01*
X157862681Y-66069910D01*
X157767059Y-66367852D01*
X157660410Y-66719559D01*
X157626365Y-66836000D01*
X157528644Y-67187882D01*
X157480039Y-67413768D01*
X157476958Y-67548586D01*
X157515810Y-67627260D01*
X157542560Y-67651042D01*
X157620481Y-67756059D01*
X157599603Y-67917087D01*
X157573639Y-67989709D01*
X157524449Y-68157194D01*
X157451826Y-68454773D01*
X157364058Y-68846204D01*
X157269435Y-69295245D01*
X157227514Y-69503000D01*
X157119045Y-70010045D01*
X156992415Y-70540794D01*
X156856433Y-71064076D01*
X156719907Y-71548719D01*
X156591645Y-71963549D01*
X156480455Y-72277395D01*
X156395147Y-72459084D01*
X156390167Y-72466334D01*
X156312185Y-72643894D01*
X156228510Y-72945316D01*
X156147842Y-73325740D01*
X156078880Y-73740308D01*
X156030324Y-74144161D01*
X156012511Y-74413667D01*
X155980882Y-74833434D01*
X155920205Y-75276744D01*
X155845641Y-75638939D01*
X155770092Y-75976487D01*
X155760515Y-76166906D01*
X155793484Y-76217495D01*
X155872151Y-76321946D01*
X155886772Y-76519573D01*
X155844075Y-76749719D01*
X155750791Y-76951726D01*
X155706005Y-77005996D01*
X155550484Y-77217988D01*
X155467665Y-77408162D01*
X155334164Y-77617492D01*
X155133108Y-77721843D01*
X154910940Y-77844473D01*
X154757522Y-78014182D01*
X154755495Y-78018177D01*
X154622524Y-78171591D01*
X154446780Y-78252644D01*
X154291192Y-78239809D01*
X154242048Y-78193816D01*
X154225628Y-78052300D01*
X154246396Y-77968762D01*
X154254509Y-77832792D01*
X154143288Y-77748621D01*
X153897642Y-77711291D01*
X153502482Y-77715844D01*
X153480131Y-77716998D01*
X153161406Y-77721184D01*
X152910792Y-77700868D01*
X152780485Y-77661287D01*
X152640943Y-77613338D01*
X152587042Y-77628708D01*
X152445247Y-77638441D01*
X152392834Y-77614830D01*
X152229069Y-77561103D01*
X152075334Y-77546334D01*
X151914592Y-77511608D01*
X151869998Y-77380358D01*
X151870389Y-77355834D01*
X151848022Y-77224149D01*
X151736358Y-77172076D01*
X151595223Y-77165334D01*
X151381838Y-77134791D01*
X151313335Y-77039006D01*
X151313334Y-77038334D01*
X151247896Y-76943657D01*
X151040243Y-76911442D01*
X151021997Y-76911334D01*
X150813411Y-76891997D01*
X150690752Y-76844767D01*
X150685351Y-76838021D01*
X150577719Y-76796752D01*
X150427407Y-76805357D01*
X150233628Y-76794061D01*
X150157534Y-76678826D01*
X150203612Y-76481649D01*
X150322545Y-76291256D01*
X150498714Y-76025116D01*
X150646811Y-75744986D01*
X150659701Y-75715201D01*
X150803251Y-75482120D01*
X151021527Y-75238586D01*
X151123574Y-75149512D01*
X151371756Y-74900018D01*
X151591362Y-74593121D01*
X151650977Y-74481597D01*
X151804782Y-74187164D01*
X152005708Y-73844302D01*
X152153385Y-73613333D01*
X152324657Y-73340755D01*
X152541409Y-72970993D01*
X152772629Y-72557934D01*
X152939262Y-72247626D01*
X153183355Y-71798937D01*
X153459713Y-71315657D01*
X153727246Y-70868660D01*
X153871874Y-70638959D01*
X154109798Y-70268582D01*
X154350025Y-69889286D01*
X154553058Y-69563611D01*
X154616038Y-69460667D01*
X155035074Y-68772296D01*
X155382670Y-68208136D01*
X155673078Y-67746349D01*
X155920553Y-67365099D01*
X156139348Y-67042546D01*
X156343716Y-66756853D01*
X156547911Y-66486182D01*
X156607739Y-66409161D01*
X156867167Y-66055701D01*
X157096033Y-65705038D01*
X157264914Y-65404277D01*
X157330640Y-65251810D01*
X157420751Y-65010636D01*
X157509069Y-64890667D01*
X157639439Y-64850040D01*
X157755309Y-64846334D01*
X158044334Y-64846334D01*
X158034735Y-65245369D01*
X158034735Y-65245369D01*
G37*
X158034735Y-65245369D02*
X158008096Y-65544232D01*
X157952934Y-65812458D01*
X157929920Y-65880369D01*
X157862681Y-66069910D01*
X157767059Y-66367852D01*
X157660410Y-66719559D01*
X157626365Y-66836000D01*
X157528644Y-67187882D01*
X157480039Y-67413768D01*
X157476958Y-67548586D01*
X157515810Y-67627260D01*
X157542560Y-67651042D01*
X157620481Y-67756059D01*
X157599603Y-67917087D01*
X157573639Y-67989709D01*
X157524449Y-68157194D01*
X157451826Y-68454773D01*
X157364058Y-68846204D01*
X157269435Y-69295245D01*
X157227514Y-69503000D01*
X157119045Y-70010045D01*
X156992415Y-70540794D01*
X156856433Y-71064076D01*
X156719907Y-71548719D01*
X156591645Y-71963549D01*
X156480455Y-72277395D01*
X156395147Y-72459084D01*
X156390167Y-72466334D01*
X156312185Y-72643894D01*
X156228510Y-72945316D01*
X156147842Y-73325740D01*
X156078880Y-73740308D01*
X156030324Y-74144161D01*
X156012511Y-74413667D01*
X155980882Y-74833434D01*
X155920205Y-75276744D01*
X155845641Y-75638939D01*
X155770092Y-75976487D01*
X155760515Y-76166906D01*
X155793484Y-76217495D01*
X155872151Y-76321946D01*
X155886772Y-76519573D01*
X155844075Y-76749719D01*
X155750791Y-76951726D01*
X155706005Y-77005996D01*
X155550484Y-77217988D01*
X155467665Y-77408162D01*
X155334164Y-77617492D01*
X155133108Y-77721843D01*
X154910940Y-77844473D01*
X154757522Y-78014182D01*
X154755495Y-78018177D01*
X154622524Y-78171591D01*
X154446780Y-78252644D01*
X154291192Y-78239809D01*
X154242048Y-78193816D01*
X154225628Y-78052300D01*
X154246396Y-77968762D01*
X154254509Y-77832792D01*
X154143288Y-77748621D01*
X153897642Y-77711291D01*
X153502482Y-77715844D01*
X153480131Y-77716998D01*
X153161406Y-77721184D01*
X152910792Y-77700868D01*
X152780485Y-77661287D01*
X152640943Y-77613338D01*
X152587042Y-77628708D01*
X152445247Y-77638441D01*
X152392834Y-77614830D01*
X152229069Y-77561103D01*
X152075334Y-77546334D01*
X151914592Y-77511608D01*
X151869998Y-77380358D01*
X151870389Y-77355834D01*
X151848022Y-77224149D01*
X151736358Y-77172076D01*
X151595223Y-77165334D01*
X151381838Y-77134791D01*
X151313335Y-77039006D01*
X151313334Y-77038334D01*
X151247896Y-76943657D01*
X151040243Y-76911442D01*
X151021997Y-76911334D01*
X150813411Y-76891997D01*
X150690752Y-76844767D01*
X150685351Y-76838021D01*
X150577719Y-76796752D01*
X150427407Y-76805357D01*
X150233628Y-76794061D01*
X150157534Y-76678826D01*
X150203612Y-76481649D01*
X150322545Y-76291256D01*
X150498714Y-76025116D01*
X150646811Y-75744986D01*
X150659701Y-75715201D01*
X150803251Y-75482120D01*
X151021527Y-75238586D01*
X151123574Y-75149512D01*
X151371756Y-74900018D01*
X151591362Y-74593121D01*
X151650977Y-74481597D01*
X151804782Y-74187164D01*
X152005708Y-73844302D01*
X152153385Y-73613333D01*
X152324657Y-73340755D01*
X152541409Y-72970993D01*
X152772629Y-72557934D01*
X152939262Y-72247626D01*
X153183355Y-71798937D01*
X153459713Y-71315657D01*
X153727246Y-70868660D01*
X153871874Y-70638959D01*
X154109798Y-70268582D01*
X154350025Y-69889286D01*
X154553058Y-69563611D01*
X154616038Y-69460667D01*
X155035074Y-68772296D01*
X155382670Y-68208136D01*
X155673078Y-67746349D01*
X155920553Y-67365099D01*
X156139348Y-67042546D01*
X156343716Y-66756853D01*
X156547911Y-66486182D01*
X156607739Y-66409161D01*
X156867167Y-66055701D01*
X157096033Y-65705038D01*
X157264914Y-65404277D01*
X157330640Y-65251810D01*
X157420751Y-65010636D01*
X157509069Y-64890667D01*
X157639439Y-64850040D01*
X157755309Y-64846334D01*
X158044334Y-64846334D01*
X158034735Y-65245369D01*
G36*
X119191926Y-64726909D02*
X119285377Y-64767590D01*
X119289147Y-64868307D01*
X119275586Y-64926933D01*
X119280661Y-65104196D01*
X119340948Y-65399715D01*
X119444421Y-65776334D01*
X119579050Y-66196900D01*
X119732809Y-66624256D01*
X119893668Y-67021248D01*
X120049601Y-67350722D01*
X120076129Y-67399830D01*
X120249862Y-67743805D01*
X120416586Y-68121849D01*
X120481245Y-68288830D01*
X120655812Y-68763452D01*
X120839529Y-69247175D01*
X121018294Y-69704335D01*
X121178006Y-70099272D01*
X121304565Y-70396324D01*
X121367376Y-70529831D01*
X121432932Y-70684889D01*
X121540834Y-70972516D01*
X121680955Y-71364280D01*
X121843169Y-71831753D01*
X122017348Y-72346505D01*
X122058673Y-72470510D01*
X122260548Y-73055387D01*
X122481696Y-73657838D01*
X122704609Y-74232678D01*
X122911780Y-74734718D01*
X123080810Y-75108727D01*
X123296713Y-75571362D01*
X123436335Y-75918776D01*
X123510170Y-76181159D01*
X123528714Y-76388699D01*
X123528449Y-76396397D01*
X123504922Y-76596659D01*
X123461905Y-76691773D01*
X123444406Y-76691265D01*
X123330256Y-76701855D01*
X123188752Y-76777017D01*
X123017923Y-76857806D01*
X122888682Y-76810911D01*
X122757246Y-76760492D01*
X122675479Y-76813322D01*
X122510928Y-76897870D01*
X122416085Y-76911334D01*
X122252439Y-76974003D01*
X122088207Y-77123000D01*
X121921839Y-77273030D01*
X121758522Y-77334667D01*
X121624572Y-77384885D01*
X121595334Y-77451300D01*
X121535502Y-77596451D01*
X121455360Y-77684133D01*
X121352802Y-77752002D01*
X121213142Y-77798340D01*
X120992231Y-77833112D01*
X120649889Y-77865951D01*
X120458129Y-77902100D01*
X120360611Y-77948500D01*
X120218552Y-78007078D01*
X120109975Y-77921359D01*
X119989558Y-77870808D01*
X119759680Y-77880552D01*
X119742403Y-77883355D01*
X119430850Y-77935992D01*
X119310304Y-77402496D01*
X119232279Y-77039981D01*
X119194506Y-76802547D01*
X119194551Y-76651409D01*
X119229976Y-76547785D01*
X119254225Y-76509936D01*
X119286570Y-76368789D01*
X119283303Y-76131200D01*
X119268314Y-76001936D01*
X119242333Y-75773835D01*
X119211686Y-75418356D01*
X119179554Y-74977270D01*
X119149119Y-74492350D01*
X119137662Y-74286667D01*
X119080152Y-73225193D01*
X119029073Y-72316078D01*
X118983200Y-71542523D01*
X118941308Y-70887728D01*
X118902170Y-70334892D01*
X118864562Y-69867214D01*
X118827258Y-69467896D01*
X118789032Y-69120135D01*
X118748660Y-68807133D01*
X118726976Y-68656334D01*
X118678540Y-68258383D01*
X118639457Y-67797296D01*
X118610412Y-67304406D01*
X118592092Y-66811047D01*
X118585183Y-66348553D01*
X118590373Y-65948257D01*
X118608347Y-65641493D01*
X118639791Y-65459595D01*
X118656272Y-65428839D01*
X118681426Y-65315061D01*
X118670986Y-65105639D01*
X118662430Y-65044972D01*
X118610358Y-64719334D01*
X118969024Y-64719334D01*
X119191926Y-64726909D01*
X119191926Y-64726909D01*
G37*
X119191926Y-64726909D02*
X119285377Y-64767590D01*
X119289147Y-64868307D01*
X119275586Y-64926933D01*
X119280661Y-65104196D01*
X119340948Y-65399715D01*
X119444421Y-65776334D01*
X119579050Y-66196900D01*
X119732809Y-66624256D01*
X119893668Y-67021248D01*
X120049601Y-67350722D01*
X120076129Y-67399830D01*
X120249862Y-67743805D01*
X120416586Y-68121849D01*
X120481245Y-68288830D01*
X120655812Y-68763452D01*
X120839529Y-69247175D01*
X121018294Y-69704335D01*
X121178006Y-70099272D01*
X121304565Y-70396324D01*
X121367376Y-70529831D01*
X121432932Y-70684889D01*
X121540834Y-70972516D01*
X121680955Y-71364280D01*
X121843169Y-71831753D01*
X122017348Y-72346505D01*
X122058673Y-72470510D01*
X122260548Y-73055387D01*
X122481696Y-73657838D01*
X122704609Y-74232678D01*
X122911780Y-74734718D01*
X123080810Y-75108727D01*
X123296713Y-75571362D01*
X123436335Y-75918776D01*
X123510170Y-76181159D01*
X123528714Y-76388699D01*
X123528449Y-76396397D01*
X123504922Y-76596659D01*
X123461905Y-76691773D01*
X123444406Y-76691265D01*
X123330256Y-76701855D01*
X123188752Y-76777017D01*
X123017923Y-76857806D01*
X122888682Y-76810911D01*
X122757246Y-76760492D01*
X122675479Y-76813322D01*
X122510928Y-76897870D01*
X122416085Y-76911334D01*
X122252439Y-76974003D01*
X122088207Y-77123000D01*
X121921839Y-77273030D01*
X121758522Y-77334667D01*
X121624572Y-77384885D01*
X121595334Y-77451300D01*
X121535502Y-77596451D01*
X121455360Y-77684133D01*
X121352802Y-77752002D01*
X121213142Y-77798340D01*
X120992231Y-77833112D01*
X120649889Y-77865951D01*
X120458129Y-77902100D01*
X120360611Y-77948500D01*
X120218552Y-78007078D01*
X120109975Y-77921359D01*
X119989558Y-77870808D01*
X119759680Y-77880552D01*
X119742403Y-77883355D01*
X119430850Y-77935992D01*
X119310304Y-77402496D01*
X119232279Y-77039981D01*
X119194506Y-76802547D01*
X119194551Y-76651409D01*
X119229976Y-76547785D01*
X119254225Y-76509936D01*
X119286570Y-76368789D01*
X119283303Y-76131200D01*
X119268314Y-76001936D01*
X119242333Y-75773835D01*
X119211686Y-75418356D01*
X119179554Y-74977270D01*
X119149119Y-74492350D01*
X119137662Y-74286667D01*
X119080152Y-73225193D01*
X119029073Y-72316078D01*
X118983200Y-71542523D01*
X118941308Y-70887728D01*
X118902170Y-70334892D01*
X118864562Y-69867214D01*
X118827258Y-69467896D01*
X118789032Y-69120135D01*
X118748660Y-68807133D01*
X118726976Y-68656334D01*
X118678540Y-68258383D01*
X118639457Y-67797296D01*
X118610412Y-67304406D01*
X118592092Y-66811047D01*
X118585183Y-66348553D01*
X118590373Y-65948257D01*
X118608347Y-65641493D01*
X118639791Y-65459595D01*
X118656272Y-65428839D01*
X118681426Y-65315061D01*
X118670986Y-65105639D01*
X118662430Y-65044972D01*
X118610358Y-64719334D01*
X118969024Y-64719334D01*
X119191926Y-64726909D01*
G36*
X123511917Y-63395014D02*
X123542667Y-63515792D01*
X123580487Y-63714433D01*
X123681487Y-64018298D01*
X123826974Y-64385618D01*
X123998255Y-64774624D01*
X124176636Y-65143547D01*
X124343426Y-65450618D01*
X124479932Y-65654068D01*
X124517021Y-65693000D01*
X124593855Y-65806526D01*
X124718765Y-66040893D01*
X124875274Y-66360399D01*
X125046905Y-66729338D01*
X125217182Y-67112007D01*
X125369628Y-67472701D01*
X125487766Y-67775716D01*
X125518512Y-67863177D01*
X125600214Y-68064677D01*
X125737935Y-68360557D01*
X125917534Y-68724356D01*
X126124873Y-69129612D01*
X126345810Y-69549863D01*
X126566208Y-69958648D01*
X126771926Y-70329504D01*
X126948824Y-70635970D01*
X127082763Y-70851585D01*
X127159604Y-70949886D01*
X127169321Y-70952597D01*
X127226296Y-71010882D01*
X127341799Y-71193943D01*
X127499859Y-71474491D01*
X127684504Y-71825238D01*
X127714083Y-71883355D01*
X127912959Y-72280606D01*
X128040329Y-72551735D01*
X128103906Y-72720280D01*
X128111403Y-72809779D01*
X128070534Y-72843770D01*
X128029970Y-72847334D01*
X127911790Y-72873573D01*
X127893861Y-72984810D01*
X127913062Y-73080167D01*
X128023310Y-73369554D01*
X128175784Y-73512052D01*
X128244481Y-73524667D01*
X128339774Y-73595041D01*
X128466095Y-73775476D01*
X128546937Y-73926834D01*
X128699875Y-74227822D01*
X128890794Y-74580844D01*
X129023649Y-74814873D01*
X129177071Y-75096557D01*
X129244873Y-75282704D01*
X129239505Y-75415822D01*
X129215848Y-75471040D01*
X129124290Y-75594018D01*
X128995520Y-75634271D01*
X128780216Y-75599876D01*
X128648212Y-75563993D01*
X128447528Y-75527100D01*
X128325735Y-75581907D01*
X128257762Y-75669826D01*
X128108367Y-75815970D01*
X127898811Y-75937103D01*
X127692089Y-76004605D01*
X127552022Y-75990470D01*
X127474033Y-75886456D01*
X127364041Y-75687862D01*
X127320734Y-75599000D01*
X127219617Y-75400707D01*
X127157576Y-75341210D01*
X127111014Y-75402000D01*
X127101476Y-75426985D01*
X126987234Y-75583879D01*
X126796562Y-75728572D01*
X126794741Y-75729580D01*
X126591189Y-75907603D01*
X126522273Y-76128123D01*
X126451015Y-76385687D01*
X126316340Y-76531821D01*
X126146152Y-76541080D01*
X126096737Y-76516185D01*
X125933338Y-76477204D01*
X125760819Y-76554848D01*
X125588942Y-76633365D01*
X125471492Y-76587987D01*
X125468719Y-76585253D01*
X125319874Y-76496019D01*
X125181303Y-76557027D01*
X125049438Y-76742535D01*
X124887499Y-76941551D01*
X124731161Y-76980508D01*
X124598722Y-76858640D01*
X124555991Y-76763167D01*
X124448757Y-76503896D01*
X124357804Y-76318667D01*
X124294788Y-76146584D01*
X124238641Y-75867312D01*
X124187601Y-75466272D01*
X124139909Y-74928889D01*
X124093804Y-74240584D01*
X124081721Y-74032667D01*
X124029396Y-73297998D01*
X123954875Y-72516145D01*
X123863264Y-71725787D01*
X123759671Y-70965604D01*
X123649201Y-70274278D01*
X123536960Y-69690489D01*
X123471485Y-69410240D01*
X123421609Y-69165945D01*
X123369791Y-68833339D01*
X123322275Y-68464915D01*
X123285305Y-68113167D01*
X123265126Y-67830588D01*
X123265991Y-67682667D01*
X123262509Y-67552344D01*
X123241942Y-67291909D01*
X123207680Y-66939343D01*
X123163928Y-66539667D01*
X123124060Y-66140553D01*
X123101761Y-65802752D01*
X123098579Y-65561653D01*
X123116062Y-65452650D01*
X123116369Y-65452324D01*
X123131366Y-65334403D01*
X123071361Y-65160360D01*
X123006814Y-64934951D01*
X122969698Y-64580153D01*
X122962656Y-64246266D01*
X122969021Y-63901762D01*
X122988118Y-63687506D01*
X123030475Y-63564425D01*
X123106621Y-63493449D01*
X123174856Y-63458729D01*
X123398741Y-63376308D01*
X123511917Y-63395014D01*
X123511917Y-63395014D01*
G37*
X123511917Y-63395014D02*
X123542667Y-63515792D01*
X123580487Y-63714433D01*
X123681487Y-64018298D01*
X123826974Y-64385618D01*
X123998255Y-64774624D01*
X124176636Y-65143547D01*
X124343426Y-65450618D01*
X124479932Y-65654068D01*
X124517021Y-65693000D01*
X124593855Y-65806526D01*
X124718765Y-66040893D01*
X124875274Y-66360399D01*
X125046905Y-66729338D01*
X125217182Y-67112007D01*
X125369628Y-67472701D01*
X125487766Y-67775716D01*
X125518512Y-67863177D01*
X125600214Y-68064677D01*
X125737935Y-68360557D01*
X125917534Y-68724356D01*
X126124873Y-69129612D01*
X126345810Y-69549863D01*
X126566208Y-69958648D01*
X126771926Y-70329504D01*
X126948824Y-70635970D01*
X127082763Y-70851585D01*
X127159604Y-70949886D01*
X127169321Y-70952597D01*
X127226296Y-71010882D01*
X127341799Y-71193943D01*
X127499859Y-71474491D01*
X127684504Y-71825238D01*
X127714083Y-71883355D01*
X127912959Y-72280606D01*
X128040329Y-72551735D01*
X128103906Y-72720280D01*
X128111403Y-72809779D01*
X128070534Y-72843770D01*
X128029970Y-72847334D01*
X127911790Y-72873573D01*
X127893861Y-72984810D01*
X127913062Y-73080167D01*
X128023310Y-73369554D01*
X128175784Y-73512052D01*
X128244481Y-73524667D01*
X128339774Y-73595041D01*
X128466095Y-73775476D01*
X128546937Y-73926834D01*
X128699875Y-74227822D01*
X128890794Y-74580844D01*
X129023649Y-74814873D01*
X129177071Y-75096557D01*
X129244873Y-75282704D01*
X129239505Y-75415822D01*
X129215848Y-75471040D01*
X129124290Y-75594018D01*
X128995520Y-75634271D01*
X128780216Y-75599876D01*
X128648212Y-75563993D01*
X128447528Y-75527100D01*
X128325735Y-75581907D01*
X128257762Y-75669826D01*
X128108367Y-75815970D01*
X127898811Y-75937103D01*
X127692089Y-76004605D01*
X127552022Y-75990470D01*
X127474033Y-75886456D01*
X127364041Y-75687862D01*
X127320734Y-75599000D01*
X127219617Y-75400707D01*
X127157576Y-75341210D01*
X127111014Y-75402000D01*
X127101476Y-75426985D01*
X126987234Y-75583879D01*
X126796562Y-75728572D01*
X126794741Y-75729580D01*
X126591189Y-75907603D01*
X126522273Y-76128123D01*
X126451015Y-76385687D01*
X126316340Y-76531821D01*
X126146152Y-76541080D01*
X126096737Y-76516185D01*
X125933338Y-76477204D01*
X125760819Y-76554848D01*
X125588942Y-76633365D01*
X125471492Y-76587987D01*
X125468719Y-76585253D01*
X125319874Y-76496019D01*
X125181303Y-76557027D01*
X125049438Y-76742535D01*
X124887499Y-76941551D01*
X124731161Y-76980508D01*
X124598722Y-76858640D01*
X124555991Y-76763167D01*
X124448757Y-76503896D01*
X124357804Y-76318667D01*
X124294788Y-76146584D01*
X124238641Y-75867312D01*
X124187601Y-75466272D01*
X124139909Y-74928889D01*
X124093804Y-74240584D01*
X124081721Y-74032667D01*
X124029396Y-73297998D01*
X123954875Y-72516145D01*
X123863264Y-71725787D01*
X123759671Y-70965604D01*
X123649201Y-70274278D01*
X123536960Y-69690489D01*
X123471485Y-69410240D01*
X123421609Y-69165945D01*
X123369791Y-68833339D01*
X123322275Y-68464915D01*
X123285305Y-68113167D01*
X123265126Y-67830588D01*
X123265991Y-67682667D01*
X123262509Y-67552344D01*
X123241942Y-67291909D01*
X123207680Y-66939343D01*
X123163928Y-66539667D01*
X123124060Y-66140553D01*
X123101761Y-65802752D01*
X123098579Y-65561653D01*
X123116062Y-65452650D01*
X123116369Y-65452324D01*
X123131366Y-65334403D01*
X123071361Y-65160360D01*
X123006814Y-64934951D01*
X122969698Y-64580153D01*
X122962656Y-64246266D01*
X122969021Y-63901762D01*
X122988118Y-63687506D01*
X123030475Y-63564425D01*
X123106621Y-63493449D01*
X123174856Y-63458729D01*
X123398741Y-63376308D01*
X123511917Y-63395014D01*
G36*
X139824737Y-74079606D02*
X140084643Y-74283550D01*
X140126545Y-74329648D01*
X140275364Y-74520598D01*
X140352331Y-74662836D01*
X140353875Y-74702113D01*
X140383124Y-74796163D01*
X140506048Y-74951048D01*
X140563677Y-75009218D01*
X140723553Y-75197099D01*
X140809791Y-75366017D01*
X140814667Y-75400195D01*
X140741578Y-75571747D01*
X140548698Y-75678756D01*
X140275609Y-75713901D01*
X139961891Y-75669860D01*
X139756334Y-75595942D01*
X139537826Y-75534410D01*
X139223697Y-75490817D01*
X138930834Y-75475819D01*
X138623248Y-75461600D01*
X138422043Y-75427171D01*
X138359334Y-75383984D01*
X138412875Y-75269278D01*
X138544767Y-75099906D01*
X138575398Y-75066484D01*
X138753773Y-74860015D01*
X138964021Y-74593445D01*
X139065803Y-74456000D01*
X139326503Y-74164498D01*
X139575753Y-74039478D01*
X139824737Y-74079606D01*
X139824737Y-74079606D01*
G37*
X139824737Y-74079606D02*
X140084643Y-74283550D01*
X140126545Y-74329648D01*
X140275364Y-74520598D01*
X140352331Y-74662836D01*
X140353875Y-74702113D01*
X140383124Y-74796163D01*
X140506048Y-74951048D01*
X140563677Y-75009218D01*
X140723553Y-75197099D01*
X140809791Y-75366017D01*
X140814667Y-75400195D01*
X140741578Y-75571747D01*
X140548698Y-75678756D01*
X140275609Y-75713901D01*
X139961891Y-75669860D01*
X139756334Y-75595942D01*
X139537826Y-75534410D01*
X139223697Y-75490817D01*
X138930834Y-75475819D01*
X138623248Y-75461600D01*
X138422043Y-75427171D01*
X138359334Y-75383984D01*
X138412875Y-75269278D01*
X138544767Y-75099906D01*
X138575398Y-75066484D01*
X138753773Y-74860015D01*
X138964021Y-74593445D01*
X139065803Y-74456000D01*
X139326503Y-74164498D01*
X139575753Y-74039478D01*
X139824737Y-74079606D01*
G36*
X113890667Y-66624334D02*
X113848334Y-66666667D01*
X113806000Y-66624334D01*
X113848334Y-66582000D01*
X113890667Y-66624334D01*
X113890667Y-66624334D01*
G37*
X113890667Y-66624334D02*
X113848334Y-66666667D01*
X113806000Y-66624334D01*
X113848334Y-66582000D01*
X113890667Y-66624334D01*
G36*
X130928051Y-60842462D02*
X131238596Y-60879982D01*
X131455506Y-60957946D01*
X131654221Y-61107467D01*
X131719371Y-61168804D01*
X132123055Y-61647234D01*
X132403344Y-62167363D01*
X132557817Y-62704031D01*
X132584053Y-63232082D01*
X132479629Y-63726358D01*
X132242125Y-64161701D01*
X132029306Y-64388943D01*
X131580000Y-64697198D01*
X131066665Y-64909036D01*
X130540151Y-65009576D01*
X130051304Y-64983938D01*
X130019667Y-64977001D01*
X129735740Y-64888799D01*
X129496093Y-64751218D01*
X129255222Y-64531213D01*
X129001621Y-64237684D01*
X128616748Y-63716027D01*
X128377733Y-63275350D01*
X128285230Y-62916889D01*
X128284000Y-62876616D01*
X128301058Y-62804267D01*
X128846532Y-62804267D01*
X128920282Y-63126445D01*
X129119302Y-63476305D01*
X129400329Y-63823407D01*
X129755502Y-64187108D01*
X130069633Y-64414958D01*
X130381683Y-64520345D01*
X130730615Y-64516661D01*
X131140946Y-64421607D01*
X131568826Y-64221260D01*
X131873376Y-63923573D01*
X132041849Y-63551228D01*
X132061497Y-63126904D01*
X132005482Y-62883352D01*
X131787686Y-62411816D01*
X131473784Y-61988061D01*
X131106879Y-61668386D01*
X131046694Y-61630986D01*
X130761914Y-61500236D01*
X130478477Y-61428294D01*
X130245390Y-61422491D01*
X130111661Y-61490156D01*
X130111092Y-61491064D01*
X130002013Y-61560890D01*
X129830929Y-61613552D01*
X129538598Y-61738092D01*
X129244644Y-61963691D01*
X129005881Y-62238263D01*
X128886440Y-62479400D01*
X128846532Y-62804267D01*
X128301058Y-62804267D01*
X128354269Y-62578589D01*
X128549528Y-62231535D01*
X128846459Y-61868146D01*
X129221739Y-61521111D01*
X129288442Y-61468560D01*
X129716236Y-61162147D01*
X130075195Y-60965534D01*
X130409054Y-60862022D01*
X130761544Y-60834911D01*
X130928051Y-60842462D01*
X130928051Y-60842462D01*
G37*
X130928051Y-60842462D02*
X131238596Y-60879982D01*
X131455506Y-60957946D01*
X131654221Y-61107467D01*
X131719371Y-61168804D01*
X132123055Y-61647234D01*
X132403344Y-62167363D01*
X132557817Y-62704031D01*
X132584053Y-63232082D01*
X132479629Y-63726358D01*
X132242125Y-64161701D01*
X132029306Y-64388943D01*
X131580000Y-64697198D01*
X131066665Y-64909036D01*
X130540151Y-65009576D01*
X130051304Y-64983938D01*
X130019667Y-64977001D01*
X129735740Y-64888799D01*
X129496093Y-64751218D01*
X129255222Y-64531213D01*
X129001621Y-64237684D01*
X128616748Y-63716027D01*
X128377733Y-63275350D01*
X128285230Y-62916889D01*
X128284000Y-62876616D01*
X128301058Y-62804267D01*
X128846532Y-62804267D01*
X128920282Y-63126445D01*
X129119302Y-63476305D01*
X129400329Y-63823407D01*
X129755502Y-64187108D01*
X130069633Y-64414958D01*
X130381683Y-64520345D01*
X130730615Y-64516661D01*
X131140946Y-64421607D01*
X131568826Y-64221260D01*
X131873376Y-63923573D01*
X132041849Y-63551228D01*
X132061497Y-63126904D01*
X132005482Y-62883352D01*
X131787686Y-62411816D01*
X131473784Y-61988061D01*
X131106879Y-61668386D01*
X131046694Y-61630986D01*
X130761914Y-61500236D01*
X130478477Y-61428294D01*
X130245390Y-61422491D01*
X130111661Y-61490156D01*
X130111092Y-61491064D01*
X130002013Y-61560890D01*
X129830929Y-61613552D01*
X129538598Y-61738092D01*
X129244644Y-61963691D01*
X129005881Y-62238263D01*
X128886440Y-62479400D01*
X128846532Y-62804267D01*
X128301058Y-62804267D01*
X128354269Y-62578589D01*
X128549528Y-62231535D01*
X128846459Y-61868146D01*
X129221739Y-61521111D01*
X129288442Y-61468560D01*
X129716236Y-61162147D01*
X130075195Y-60965534D01*
X130409054Y-60862022D01*
X130761544Y-60834911D01*
X130928051Y-60842462D01*
G36*
X163458067Y-55861927D02*
X163463000Y-55914000D01*
X163340498Y-55991904D01*
X163288670Y-55998667D01*
X163179243Y-55951328D01*
X163166667Y-55914000D01*
X163237793Y-55845875D01*
X163340997Y-55829334D01*
X163458067Y-55861927D01*
X163458067Y-55861927D01*
G37*
X163458067Y-55861927D02*
X163463000Y-55914000D01*
X163340498Y-55991904D01*
X163288670Y-55998667D01*
X163179243Y-55951328D01*
X163166667Y-55914000D01*
X163237793Y-55845875D01*
X163340997Y-55829334D01*
X163458067Y-55861927D01*
G36*
X163921171Y-120366385D02*
X164205787Y-120468776D01*
X164391519Y-120596223D01*
X164494751Y-120817873D01*
X164525268Y-121129946D01*
X164489848Y-121473351D01*
X164395270Y-121788997D01*
X164248312Y-122017792D01*
X164226174Y-122037692D01*
X164068660Y-122103858D01*
X163820045Y-122147496D01*
X163539913Y-122165636D01*
X163287847Y-122155307D01*
X163123431Y-122113540D01*
X163099660Y-122093856D01*
X162914142Y-121741105D01*
X162843539Y-121356273D01*
X162881237Y-120979448D01*
X163020627Y-120650718D01*
X163255097Y-120410170D01*
X163388606Y-120341854D01*
X163622906Y-120317516D01*
X163921171Y-120366385D01*
X163921171Y-120366385D01*
G37*
X163921171Y-120366385D02*
X164205787Y-120468776D01*
X164391519Y-120596223D01*
X164494751Y-120817873D01*
X164525268Y-121129946D01*
X164489848Y-121473351D01*
X164395270Y-121788997D01*
X164248312Y-122017792D01*
X164226174Y-122037692D01*
X164068660Y-122103858D01*
X163820045Y-122147496D01*
X163539913Y-122165636D01*
X163287847Y-122155307D01*
X163123431Y-122113540D01*
X163099660Y-122093856D01*
X162914142Y-121741105D01*
X162843539Y-121356273D01*
X162881237Y-120979448D01*
X163020627Y-120650718D01*
X163255097Y-120410170D01*
X163388606Y-120341854D01*
X163622906Y-120317516D01*
X163921171Y-120366385D01*
G36*
X130766172Y-62188653D02*
X130884591Y-62340021D01*
X131054601Y-62706135D01*
X131072054Y-63053733D01*
X130938410Y-63357904D01*
X130817504Y-63484141D01*
X130532999Y-63668467D01*
X130297843Y-63693299D01*
X130100045Y-63556978D01*
X129979054Y-63368040D01*
X129830305Y-62970474D01*
X129830059Y-62635608D01*
X129979903Y-62341947D01*
X130061448Y-62251526D01*
X130316274Y-62063932D01*
X130547493Y-62042578D01*
X130766172Y-62188653D01*
X130766172Y-62188653D01*
G37*
X130766172Y-62188653D02*
X130884591Y-62340021D01*
X131054601Y-62706135D01*
X131072054Y-63053733D01*
X130938410Y-63357904D01*
X130817504Y-63484141D01*
X130532999Y-63668467D01*
X130297843Y-63693299D01*
X130100045Y-63556978D01*
X129979054Y-63368040D01*
X129830305Y-62970474D01*
X129830059Y-62635608D01*
X129979903Y-62341947D01*
X130061448Y-62251526D01*
X130316274Y-62063932D01*
X130547493Y-62042578D01*
X130766172Y-62188653D01*
D13*
X110995000Y-79802000D03*
X110986000Y-79238000D03*
X114689000Y-79784000D03*
X114555000Y-79301000D03*
X138369000Y-121139000D03*
X139366000Y-121429000D03*
X137840000Y-121325000D03*
X138926000Y-121147000D03*
X137861000Y-127986000D03*
X138348000Y-127986000D03*
X138835000Y-127986000D03*
X139322000Y-127986000D03*
X167934000Y-80745000D03*
X167941000Y-80250000D03*
X165120000Y-80293000D03*
X164947000Y-80781000D03*
M02*
