G04 #@! TF.FileFunction,Profile,NP*
%FSLAX46Y46*%
G04 Gerber Fmt 4.6, Leading zero omitted, Abs format (unit mm)*
G04 Created by KiCad (PCBNEW 4.0.7-e2-6376~58~ubuntu16.04.1) date Tue Feb 27 00:45:11 2018*
%MOMM*%
%LPD*%
G01*
G04 APERTURE LIST*
%ADD10C,0.020000*%
%ADD11C,0.150000*%
G04 APERTURE END LIST*
D10*
D11*
X138735000Y-74709000D02*
X139561000Y-73828000D01*
X140256000Y-74706000D02*
X139569000Y-73859000D01*
X138691000Y-75584000D02*
X138307000Y-75217000D01*
X139122000Y-75153000D02*
X138691000Y-75584000D01*
X138738000Y-74722000D02*
X139122000Y-75153000D01*
X140512000Y-75664000D02*
X140767000Y-75313000D01*
X140000000Y-75393000D02*
X140512000Y-75664000D01*
X140240000Y-74706000D02*
X140000000Y-75393000D01*
X152216000Y-109984000D02*
X155456000Y-102324000D01*
X156073000Y-99823000D02*
X156581000Y-99823000D01*
X155217000Y-101695000D02*
X156073000Y-99823000D01*
X155458000Y-102337000D02*
X155217000Y-101695000D01*
X125162000Y-108767000D02*
X122780000Y-102156000D01*
X123291000Y-101405000D02*
X122777000Y-102158000D01*
X122880000Y-100189000D02*
X123291000Y-101405000D01*
X122031000Y-100056000D02*
X122880000Y-100189000D01*
X171500000Y-60000000D02*
X170000000Y-60000000D01*
X171500000Y-130000000D02*
X171500000Y-60000000D01*
X108000000Y-130000000D02*
X171500000Y-130000000D01*
X108000000Y-60000000D02*
X108000000Y-130000000D01*
X170000000Y-60000000D02*
X108000000Y-60000000D01*
X111000000Y-79000000D02*
X111000000Y-62000000D01*
X168000000Y-80000000D02*
X168000000Y-62000000D01*
X114900000Y-80000000D02*
X111000000Y-80000000D01*
X114600000Y-79000000D02*
X111000000Y-79000000D01*
X164600000Y-81000000D02*
X168000000Y-81000000D01*
X165100000Y-80000000D02*
X168000000Y-80000000D01*
X139600000Y-121800000D02*
X139600000Y-121500000D01*
X137600000Y-121700000D02*
X137600000Y-121400000D01*
X136200000Y-128000000D02*
X137600000Y-128000000D01*
X140500000Y-128000000D02*
X139600000Y-128000000D01*
X111000000Y-128000000D02*
X136200000Y-128000000D01*
X139600000Y-121731000D02*
X139600000Y-127977000D01*
X137600000Y-128000000D02*
X137600000Y-121702000D01*
X168000000Y-62000000D02*
X111000000Y-62000000D01*
X168000000Y-128000000D02*
X168000000Y-81000000D01*
X140500000Y-128000000D02*
X168000000Y-128000000D01*
X111000000Y-80000000D02*
X111000000Y-128000000D01*
X117158000Y-125793000D02*
X125138000Y-108784000D01*
X137600000Y-121400000D02*
X117158000Y-125793000D01*
X159174000Y-127286000D02*
X139600000Y-121500000D01*
X152195000Y-109971000D02*
X159174000Y-127286000D01*
X164600000Y-81000000D02*
X156543000Y-99837000D01*
X166169000Y-68752000D02*
X165101000Y-80019000D01*
X160381000Y-79955000D02*
X166169000Y-68752000D01*
X161683000Y-66106000D02*
X160381000Y-79955000D01*
X155273000Y-79099000D02*
X161683000Y-66106000D01*
X158048000Y-64534000D02*
X155273000Y-79099000D01*
X146601000Y-82086000D02*
X158048000Y-64534000D01*
X140799000Y-75313000D02*
X146601000Y-82086000D01*
X132839000Y-81766000D02*
X138303000Y-75212000D01*
X123054000Y-63516000D02*
X132839000Y-81766000D01*
X124220000Y-77774000D02*
X123054000Y-63516000D01*
X118590000Y-64406000D02*
X124220000Y-77774000D01*
X119124000Y-77993000D02*
X118590000Y-64406000D01*
X114062000Y-65872000D02*
X119124000Y-77993000D01*
X114600000Y-79000000D02*
X114062000Y-65872000D01*
X122022000Y-100067000D02*
X114900000Y-80000000D01*
M02*
