G04 #@! TF.FileFunction,Soldermask,Top*
%FSLAX46Y46*%
G04 Gerber Fmt 4.6, Leading zero omitted, Abs format (unit mm)*
G04 Created by KiCad (PCBNEW 4.0.7-e2-6376~58~ubuntu16.04.1) date Tue Feb 27 03:11:23 2018*
%MOMM*%
%LPD*%
G01*
G04 APERTURE LIST*
%ADD10C,0.020000*%
%ADD11C,0.200000*%
%ADD12C,0.010000*%
%ADD13C,0.700000*%
G04 APERTURE END LIST*
D10*
D11*
X139600000Y-128000000D02*
X140500000Y-128000000D01*
X140400000Y-128000000D02*
X140500000Y-128000000D01*
X139600000Y-128000000D02*
X140400000Y-128000000D01*
D12*
G36*
X140745227Y-91606061D02*
X140897222Y-91630393D01*
X141264995Y-91742775D01*
X141556815Y-91915704D01*
X141740560Y-92124263D01*
X141787083Y-92320667D01*
X141811415Y-92485366D01*
X141944674Y-92613838D01*
X142064667Y-92680060D01*
X142272758Y-92813935D01*
X142540858Y-93026863D01*
X142813189Y-93274334D01*
X142829858Y-93290703D01*
X143099048Y-93534787D01*
X143367198Y-93742437D01*
X143579389Y-93871408D01*
X143591858Y-93876875D01*
X143964311Y-94108267D01*
X144241921Y-94430954D01*
X144387166Y-94800281D01*
X144400136Y-95023359D01*
X144360476Y-95303250D01*
X144261190Y-95679381D01*
X144191832Y-95900947D01*
X144041790Y-96364120D01*
X143942747Y-96692344D01*
X143897490Y-96912994D01*
X143908804Y-97053447D01*
X143979476Y-97141079D01*
X144112291Y-97203264D01*
X144310036Y-97267380D01*
X144331602Y-97274339D01*
X144604289Y-97359407D01*
X144814503Y-97418787D01*
X144901000Y-97437305D01*
X145014283Y-97474720D01*
X145234048Y-97568038D01*
X145515065Y-97697938D01*
X145546802Y-97713163D01*
X145916947Y-97875103D01*
X146314969Y-98024429D01*
X146605136Y-98114702D01*
X147289155Y-98309913D01*
X147990122Y-98535832D01*
X148669555Y-98778220D01*
X149288973Y-99022840D01*
X149809897Y-99255456D01*
X150108000Y-99410723D01*
X150353641Y-99537174D01*
X150674115Y-99684381D01*
X150901568Y-99780282D01*
X151161073Y-99890987D01*
X151277760Y-99961303D01*
X151269170Y-100005226D01*
X151208657Y-100025336D01*
X151195490Y-100059745D01*
X151295800Y-100134118D01*
X151518147Y-100252663D01*
X151871086Y-100419587D01*
X152363177Y-100639097D01*
X153002978Y-100915401D01*
X153124423Y-100967205D01*
X153810608Y-101256389D01*
X154354144Y-101478200D01*
X154765945Y-101636628D01*
X155056924Y-101735663D01*
X155237995Y-101779292D01*
X155320071Y-101771506D01*
X155321373Y-101770260D01*
X155391505Y-101655433D01*
X155506558Y-101422419D01*
X155647974Y-101110020D01*
X155740883Y-100893167D01*
X155913965Y-100503205D01*
X156048652Y-100256059D01*
X156156578Y-100132769D01*
X156221344Y-100110000D01*
X156349286Y-100144216D01*
X156373334Y-100184085D01*
X156341962Y-100299276D01*
X156257257Y-100535068D01*
X156133332Y-100856742D01*
X155984297Y-101229577D01*
X155824267Y-101618854D01*
X155667354Y-101989852D01*
X155527671Y-102307852D01*
X155419330Y-102538134D01*
X155405423Y-102565334D01*
X155329737Y-102724301D01*
X155195772Y-103020460D01*
X155011668Y-103435242D01*
X154785565Y-103950075D01*
X154525604Y-104546388D01*
X154239924Y-105205611D01*
X153936666Y-105909173D01*
X153791041Y-106248334D01*
X153486092Y-106958452D01*
X153198400Y-107626468D01*
X152935540Y-108234934D01*
X152705084Y-108766404D01*
X152514607Y-109203432D01*
X152371681Y-109528573D01*
X152283881Y-109724379D01*
X152262738Y-109768878D01*
X152210687Y-109899663D01*
X152211295Y-110027238D01*
X152278803Y-110184299D01*
X152427451Y-110403541D01*
X152671478Y-110717658D01*
X152681412Y-110730132D01*
X152825860Y-110920512D01*
X152871852Y-111029414D01*
X152829416Y-111105380D01*
X152768776Y-111153081D01*
X152701549Y-111214487D01*
X152681779Y-111291341D01*
X152719714Y-111414635D01*
X152825599Y-111615359D01*
X153009680Y-111924503D01*
X153040758Y-111975702D01*
X153243401Y-112314428D01*
X153426658Y-112635039D01*
X153598848Y-112956422D01*
X153768287Y-113297461D01*
X153943294Y-113677040D01*
X154132185Y-114114046D01*
X154343279Y-114627362D01*
X154584893Y-115235874D01*
X154865345Y-115958468D01*
X155192952Y-116814027D01*
X155328646Y-117170334D01*
X155491792Y-117587567D01*
X155669469Y-118023765D01*
X155829884Y-118401312D01*
X155868939Y-118489420D01*
X155993911Y-118790450D01*
X156083656Y-119050485D01*
X156119297Y-119214625D01*
X156119334Y-119217619D01*
X156129582Y-119346420D01*
X156166471Y-119500569D01*
X156239216Y-119701332D01*
X156357029Y-119969978D01*
X156529127Y-120327773D01*
X156764723Y-120795984D01*
X157011469Y-121276667D01*
X157256765Y-121764536D01*
X157486100Y-122243567D01*
X157682625Y-122676837D01*
X157829494Y-123027424D01*
X157900051Y-123224000D01*
X158052506Y-123685171D01*
X158232951Y-124169460D01*
X158428511Y-124648448D01*
X158626310Y-125093712D01*
X158813471Y-125476830D01*
X158977118Y-125769381D01*
X159104375Y-125942942D01*
X159146167Y-125974577D01*
X159290323Y-126065724D01*
X159340195Y-126150672D01*
X159273167Y-126187502D01*
X159208410Y-126257406D01*
X159195938Y-126426610D01*
X159230687Y-126635090D01*
X159307588Y-126822821D01*
X159329527Y-126855201D01*
X159427426Y-127016661D01*
X159421602Y-127160880D01*
X159360612Y-127299422D01*
X159236044Y-127466013D01*
X159101935Y-127533989D01*
X159097632Y-127533853D01*
X158968945Y-127507094D01*
X158711560Y-127439064D01*
X158358424Y-127338950D01*
X158043001Y-127245667D01*
X158828667Y-127245667D01*
X158871000Y-127288000D01*
X158913334Y-127245667D01*
X158871000Y-127203334D01*
X158828667Y-127245667D01*
X158043001Y-127245667D01*
X157942479Y-127215939D01*
X157770334Y-127163737D01*
X157229819Y-126998434D01*
X156634528Y-126815983D01*
X156056732Y-126638556D01*
X155569000Y-126488415D01*
X155148559Y-126363253D01*
X154758122Y-126255110D01*
X154441655Y-126175661D01*
X154245150Y-126136831D01*
X154045151Y-126094549D01*
X153729397Y-126007865D01*
X153341541Y-125889488D01*
X152932817Y-125754725D01*
X152634095Y-125653693D01*
X152304988Y-125545025D01*
X151931337Y-125424330D01*
X151498986Y-125287214D01*
X150993776Y-125129284D01*
X150401551Y-124946149D01*
X149708152Y-124733415D01*
X148899423Y-124486689D01*
X147961204Y-124201580D01*
X146879340Y-123873693D01*
X146509667Y-123761793D01*
X145279313Y-123388995D01*
X144119244Y-123036569D01*
X143045713Y-122709482D01*
X142074976Y-122412702D01*
X141223287Y-122151193D01*
X140506900Y-121929922D01*
X140117334Y-121808724D01*
X139741212Y-121689781D01*
X139427612Y-121592405D01*
X139156068Y-121517685D01*
X138906116Y-121466710D01*
X138657293Y-121440570D01*
X138389133Y-121440354D01*
X138081175Y-121467150D01*
X137712952Y-121522048D01*
X137264001Y-121606138D01*
X136713859Y-121720508D01*
X136042060Y-121866248D01*
X135228141Y-122044446D01*
X135079667Y-122076848D01*
X134454882Y-122212957D01*
X133794419Y-122356650D01*
X133148912Y-122496923D01*
X132568997Y-122622773D01*
X132116334Y-122720813D01*
X131667486Y-122819142D01*
X131258308Y-122911105D01*
X130927087Y-122987932D01*
X130712112Y-123040854D01*
X130677000Y-123050472D01*
X130504344Y-123093936D01*
X130203227Y-123163327D01*
X129811011Y-123250277D01*
X129365059Y-123346417D01*
X129195334Y-123382344D01*
X128276559Y-123576970D01*
X127405090Y-123763790D01*
X126595661Y-123939502D01*
X125863008Y-124100805D01*
X125221866Y-124244396D01*
X124686969Y-124366975D01*
X124273052Y-124465240D01*
X123994850Y-124535890D01*
X123867099Y-124575623D01*
X123865225Y-124576577D01*
X123707277Y-124628278D01*
X123454136Y-124680375D01*
X123311000Y-124701889D01*
X122908088Y-124764054D01*
X122486384Y-124844881D01*
X122090520Y-124934158D01*
X121765128Y-125021679D01*
X121554839Y-125097234D01*
X121533000Y-125108578D01*
X121349865Y-125177482D01*
X121079234Y-125241807D01*
X120940334Y-125265019D01*
X120151265Y-125383905D01*
X119489841Y-125500270D01*
X118914671Y-125621655D01*
X118701092Y-125672904D01*
X118310149Y-125761821D01*
X117906900Y-125840524D01*
X117587949Y-125890661D01*
X117114231Y-125949567D01*
X117106512Y-125678078D01*
X117136971Y-125521809D01*
X117235732Y-125245781D01*
X117405477Y-124843855D01*
X117648888Y-124309889D01*
X117968644Y-123637744D01*
X118246828Y-123066461D01*
X118599804Y-122346816D01*
X118989168Y-121552731D01*
X119391756Y-120731464D01*
X119784403Y-119930273D01*
X120143947Y-119196418D01*
X120389850Y-118694334D01*
X120648967Y-118165821D01*
X120968647Y-117514859D01*
X121334440Y-116770811D01*
X121731898Y-115963039D01*
X122146571Y-115120906D01*
X122564009Y-114273774D01*
X122969762Y-113451007D01*
X123098063Y-113191000D01*
X123553203Y-112269706D01*
X123939608Y-111487970D01*
X124262457Y-110833002D01*
X124526931Y-110292012D01*
X124738211Y-109852210D01*
X124901477Y-109500804D01*
X125021908Y-109225005D01*
X125104686Y-109012021D01*
X125154991Y-108849064D01*
X125178003Y-108723342D01*
X125178902Y-108622064D01*
X125162869Y-108532441D01*
X125135084Y-108441682D01*
X125100728Y-108336997D01*
X125085244Y-108284588D01*
X125019747Y-108076752D01*
X124903407Y-107734825D01*
X124744915Y-107283238D01*
X124552964Y-106746423D01*
X124336244Y-106148812D01*
X124103447Y-105514836D01*
X124014505Y-105274667D01*
X123775325Y-104628220D01*
X123546078Y-104004645D01*
X123335988Y-103429337D01*
X123154281Y-102927689D01*
X123010183Y-102525097D01*
X122912918Y-102246954D01*
X122891854Y-102184334D01*
X122762791Y-101807443D01*
X122622432Y-101419367D01*
X122516848Y-101144032D01*
X122399448Y-100837452D01*
X122350299Y-100654383D01*
X122368401Y-100563813D01*
X122452753Y-100534727D01*
X122497140Y-100533334D01*
X122612397Y-100586345D01*
X122737300Y-100759866D01*
X122887423Y-101075631D01*
X122889855Y-101081346D01*
X123122764Y-101629358D01*
X123493435Y-101594611D01*
X123761275Y-101561673D01*
X123977478Y-101521862D01*
X124020871Y-101510109D01*
X124289772Y-101503460D01*
X124521274Y-101632757D01*
X124660141Y-101865555D01*
X124665883Y-101888985D01*
X124731498Y-102106459D01*
X124843790Y-102406287D01*
X124958198Y-102677229D01*
X125108451Y-103043445D01*
X125264694Y-103471812D01*
X125375909Y-103814167D01*
X125474344Y-104107523D01*
X125567512Y-104324557D01*
X125637775Y-104425300D01*
X125646767Y-104428000D01*
X125696568Y-104479292D01*
X125684813Y-104507577D01*
X125692939Y-104624880D01*
X125775237Y-104814458D01*
X125802428Y-104861428D01*
X125901493Y-105052653D01*
X125936553Y-105180444D01*
X125932769Y-105194689D01*
X125941279Y-105297534D01*
X125997156Y-105515326D01*
X126088876Y-105804251D01*
X126106490Y-105855248D01*
X126210731Y-106187068D01*
X126285932Y-106490269D01*
X126316582Y-106701825D01*
X126316667Y-106709276D01*
X126352500Y-106951299D01*
X126446994Y-107285259D01*
X126580638Y-107652881D01*
X126733922Y-107995891D01*
X126771783Y-108068667D01*
X126910202Y-108390989D01*
X126946526Y-108691513D01*
X126878040Y-109019982D01*
X126702028Y-109426140D01*
X126697134Y-109435911D01*
X126554077Y-109746953D01*
X126449059Y-110024827D01*
X126402127Y-110215555D01*
X126401334Y-110232324D01*
X126370152Y-110389171D01*
X126312030Y-110439334D01*
X126246471Y-110515646D01*
X126112518Y-110744745D01*
X125910050Y-111126875D01*
X125638944Y-111662279D01*
X125299079Y-112351203D01*
X124890333Y-113193890D01*
X124412585Y-114190584D01*
X123865714Y-115341529D01*
X123801598Y-115477000D01*
X123600897Y-115897909D01*
X123338221Y-116443696D01*
X123026653Y-117087451D01*
X122679274Y-117802262D01*
X122309168Y-118561218D01*
X121929417Y-119337409D01*
X121553105Y-120103923D01*
X121481288Y-120249873D01*
X121142927Y-120938921D01*
X120828955Y-121581554D01*
X120547075Y-122161767D01*
X120304988Y-122663557D01*
X120110397Y-123070919D01*
X119971004Y-123367849D01*
X119894511Y-123538342D01*
X119882000Y-123573040D01*
X119899847Y-123617322D01*
X119965904Y-123635315D01*
X120098945Y-123622985D01*
X120317745Y-123576300D01*
X120641079Y-123491228D01*
X121087721Y-123363737D01*
X121676446Y-123189793D01*
X121702334Y-123182075D01*
X122045181Y-123089938D01*
X122499649Y-122982031D01*
X123010399Y-122870831D01*
X123522089Y-122768813D01*
X123600828Y-122754087D01*
X124070961Y-122660808D01*
X124513637Y-122561686D01*
X124886433Y-122466993D01*
X125146926Y-122386998D01*
X125195347Y-122368040D01*
X125454968Y-122271567D01*
X125675134Y-122214573D01*
X125738558Y-122208000D01*
X125879119Y-122188731D01*
X126149498Y-122135787D01*
X126515211Y-122056461D01*
X126941776Y-121958050D01*
X127107372Y-121918443D01*
X127585763Y-121806617D01*
X128053113Y-121703904D01*
X128461951Y-121620315D01*
X128764809Y-121565860D01*
X128813754Y-121558610D01*
X129121375Y-121502060D01*
X129290003Y-121431491D01*
X129348745Y-121342155D01*
X129313034Y-121178580D01*
X129187669Y-120958265D01*
X129011773Y-120734426D01*
X128824469Y-120560280D01*
X128734429Y-120506536D01*
X128512091Y-120392144D01*
X128401281Y-120324369D01*
X128269753Y-120260828D01*
X128207244Y-120314970D01*
X128203726Y-120324167D01*
X128098875Y-120431968D01*
X127933540Y-120425333D01*
X127742022Y-120330147D01*
X127558623Y-120172293D01*
X127417643Y-119977654D01*
X127353385Y-119772114D01*
X127358038Y-119686016D01*
X127348352Y-119457310D01*
X127280924Y-119256368D01*
X127164284Y-118898376D01*
X127188753Y-118715500D01*
X127931284Y-118715500D01*
X127941574Y-118866101D01*
X127971595Y-118860782D01*
X128010000Y-118779000D01*
X128071548Y-118615033D01*
X128088716Y-118546167D01*
X128030319Y-118484560D01*
X128010000Y-118482667D01*
X127950474Y-118555562D01*
X127931284Y-118715500D01*
X127188753Y-118715500D01*
X127208975Y-118564375D01*
X127418305Y-118236228D01*
X127478764Y-118171195D01*
X127704989Y-117890159D01*
X127799535Y-117633305D01*
X127805324Y-117568603D01*
X127861019Y-117361917D01*
X127988526Y-117129781D01*
X128149551Y-116925771D01*
X128305797Y-116803464D01*
X128362333Y-116789334D01*
X128442356Y-116856839D01*
X128548829Y-117021568D01*
X128560456Y-117043570D01*
X128631574Y-117207398D01*
X128648189Y-117361705D01*
X128609996Y-117570825D01*
X128557077Y-117761672D01*
X128470402Y-118023265D01*
X128387988Y-118212414D01*
X128343114Y-118274432D01*
X128263519Y-118363990D01*
X128339126Y-118425705D01*
X128556669Y-118448800D01*
X128557773Y-118448800D01*
X128767659Y-118419951D01*
X128888634Y-118348942D01*
X128893782Y-118338734D01*
X128979873Y-118239536D01*
X129120001Y-118272343D01*
X129325005Y-118442685D01*
X129525313Y-118661077D01*
X129811955Y-118951607D01*
X130153400Y-119239226D01*
X130371980Y-119393842D01*
X130683167Y-119604342D01*
X130989619Y-119833038D01*
X131164077Y-119977473D01*
X131376333Y-120142592D01*
X131559510Y-120244651D01*
X131624760Y-120260667D01*
X131712754Y-120247300D01*
X131666985Y-120186234D01*
X131603349Y-120136360D01*
X131507219Y-120041581D01*
X131542400Y-120012015D01*
X131685168Y-120044770D01*
X131911801Y-120136953D01*
X132013873Y-120186407D01*
X132259066Y-120311774D01*
X132379547Y-120390390D01*
X132400629Y-120454026D01*
X132347626Y-120534452D01*
X132318899Y-120569234D01*
X132256552Y-120661316D01*
X132303130Y-120685519D01*
X132486408Y-120656011D01*
X132488288Y-120655639D01*
X132708795Y-120637251D01*
X132861156Y-120668711D01*
X132869288Y-120674412D01*
X133003502Y-120701905D01*
X133263324Y-120690867D01*
X133555667Y-120651840D01*
X134148334Y-120553575D01*
X134151792Y-120472334D01*
X139863334Y-120472334D01*
X139905667Y-120514667D01*
X139948000Y-120472334D01*
X139905667Y-120430000D01*
X139863334Y-120472334D01*
X134151792Y-120472334D01*
X134198724Y-119369954D01*
X134220498Y-118898950D01*
X134244251Y-118451618D01*
X134262004Y-118161230D01*
X134465724Y-118161230D01*
X134466410Y-118338680D01*
X134486408Y-118360033D01*
X134538842Y-118238412D01*
X134539975Y-118235481D01*
X134575216Y-118049160D01*
X134544911Y-117956378D01*
X134493421Y-117975640D01*
X134466748Y-118129090D01*
X134465724Y-118161230D01*
X134262004Y-118161230D01*
X134267351Y-118073771D01*
X134287162Y-117811221D01*
X134290125Y-117780244D01*
X134300702Y-117534688D01*
X134281439Y-117367390D01*
X134260590Y-117330555D01*
X134225301Y-117225481D01*
X134242030Y-117079832D01*
X134238987Y-116844849D01*
X134149498Y-116568161D01*
X134066454Y-116325005D01*
X134045899Y-116113467D01*
X134051298Y-116081974D01*
X134224103Y-115488575D01*
X134383738Y-115084677D01*
X135364091Y-115084677D01*
X135385734Y-115270878D01*
X135410770Y-115392334D01*
X135477028Y-115617973D01*
X135543979Y-115754623D01*
X135570289Y-115773334D01*
X135609778Y-115707576D01*
X135597393Y-115625167D01*
X135544232Y-115429989D01*
X135497842Y-115244167D01*
X135439145Y-115076018D01*
X135382342Y-115011334D01*
X135364091Y-115084677D01*
X134383738Y-115084677D01*
X134402057Y-115038329D01*
X134581179Y-114738991D01*
X134757490Y-114598317D01*
X134817835Y-114588000D01*
X134963918Y-114528376D01*
X135037333Y-114461000D01*
X135236814Y-114343133D01*
X135513788Y-114340412D01*
X135829422Y-114444931D01*
X136144883Y-114648783D01*
X136201500Y-114698006D01*
X136293043Y-114798039D01*
X136349452Y-114921505D01*
X136378850Y-115108990D01*
X136389356Y-115401080D01*
X136389980Y-115639925D01*
X136380510Y-116023889D01*
X136357037Y-116378496D01*
X136323979Y-116644133D01*
X136311063Y-116704667D01*
X136176284Y-117153225D01*
X136033798Y-117502902D01*
X135896308Y-117724344D01*
X135851660Y-117766163D01*
X135796151Y-117831262D01*
X135757562Y-117949554D01*
X135733053Y-118147934D01*
X135719783Y-118453295D01*
X135714915Y-118892532D01*
X135714667Y-119063501D01*
X135720288Y-119598295D01*
X135737531Y-119971299D01*
X135766959Y-120189695D01*
X135809020Y-120260667D01*
X135920605Y-120242529D01*
X136166281Y-120192507D01*
X136515231Y-120117187D01*
X136936639Y-120023156D01*
X137184853Y-119966602D01*
X137659382Y-119860427D01*
X138104217Y-119765825D01*
X138480090Y-119690796D01*
X138747729Y-119643341D01*
X138821010Y-119633266D01*
X139097990Y-119578129D01*
X139334055Y-119491471D01*
X139371343Y-119470480D01*
X139596017Y-119352454D01*
X139755224Y-119290833D01*
X139863718Y-119269672D01*
X139917080Y-119314861D01*
X139931117Y-119462966D01*
X139924558Y-119682494D01*
X139905667Y-120130288D01*
X140244334Y-120179492D01*
X140539273Y-120247432D01*
X140811292Y-120348270D01*
X140837000Y-120361094D01*
X141029601Y-120442099D01*
X141334584Y-120549087D01*
X141700666Y-120664596D01*
X141895334Y-120721433D01*
X142329563Y-120849344D01*
X142784103Y-120991083D01*
X143180255Y-121121893D01*
X143286466Y-121159052D01*
X143524659Y-121239052D01*
X143897311Y-121357798D01*
X144376318Y-121506634D01*
X144933575Y-121676905D01*
X145540977Y-121859956D01*
X146165133Y-122045571D01*
X146927782Y-122271121D01*
X147793630Y-122527729D01*
X148703662Y-122797868D01*
X149598861Y-123064015D01*
X150420211Y-123308645D01*
X150763692Y-123411126D01*
X151359092Y-123586759D01*
X151900867Y-123742483D01*
X152368125Y-123872619D01*
X152739972Y-123971490D01*
X152995514Y-124033419D01*
X153113859Y-124052729D01*
X153119062Y-124051161D01*
X153115047Y-123953061D01*
X153051055Y-123756337D01*
X152992537Y-123617886D01*
X152890650Y-123377766D01*
X152827466Y-123197158D01*
X152817334Y-123145592D01*
X152745782Y-123063333D01*
X152583529Y-123000810D01*
X152409179Y-122980911D01*
X152325461Y-123002366D01*
X152224564Y-122991238D01*
X152082743Y-122848110D01*
X151891285Y-122562883D01*
X151773326Y-122362257D01*
X151619064Y-122071001D01*
X151555644Y-121859054D01*
X151597630Y-121694782D01*
X151759587Y-121546549D01*
X152056078Y-121382721D01*
X152272007Y-121279100D01*
X152593042Y-121131111D01*
X152856423Y-121015515D01*
X153024812Y-120948409D01*
X153063218Y-120938000D01*
X153163789Y-120881554D01*
X153283000Y-120768667D01*
X153460752Y-120640062D01*
X153646925Y-120599266D01*
X153788249Y-120647385D01*
X153833334Y-120757249D01*
X153883745Y-120933486D01*
X154002667Y-121130437D01*
X154121834Y-121317376D01*
X154171995Y-121466470D01*
X154172000Y-121467399D01*
X154230296Y-121611840D01*
X154341334Y-121742334D01*
X154477042Y-121894173D01*
X154500450Y-121984390D01*
X154411657Y-121986011D01*
X154340550Y-121953581D01*
X154226595Y-121908428D01*
X154186589Y-121966385D01*
X154192384Y-122141051D01*
X154187889Y-122338398D01*
X154111976Y-122425493D01*
X154023834Y-122446671D01*
X153868831Y-122503821D01*
X153852426Y-122623594D01*
X153973217Y-122824420D01*
X153993106Y-122850076D01*
X154118254Y-123074742D01*
X154207912Y-123348298D01*
X154212556Y-123371430D01*
X154285373Y-123631649D01*
X154406641Y-123950483D01*
X154490897Y-124136294D01*
X154709560Y-124582921D01*
X155562613Y-124842043D01*
X155964068Y-124966141D01*
X156346327Y-125088043D01*
X156654031Y-125189927D01*
X156777388Y-125233139D01*
X157002050Y-125303513D01*
X157152829Y-125329204D01*
X157181682Y-125322540D01*
X157175383Y-125227538D01*
X157112966Y-125030489D01*
X157052310Y-124878833D01*
X156942971Y-124608852D01*
X156804125Y-124245322D01*
X156661074Y-123854910D01*
X156622005Y-123745016D01*
X156483953Y-123405227D01*
X156280200Y-122969531D01*
X156034505Y-122485797D01*
X155770627Y-122001892D01*
X155669990Y-121827000D01*
X155341058Y-121255132D01*
X155096146Y-120804602D01*
X154925927Y-120455468D01*
X154821074Y-120187788D01*
X154772261Y-119981618D01*
X154765942Y-119893938D01*
X154737220Y-119761386D01*
X154657783Y-119494850D01*
X154536306Y-119118923D01*
X154381465Y-118658200D01*
X154201936Y-118137273D01*
X154006394Y-117580735D01*
X153803514Y-117013178D01*
X153601974Y-116459198D01*
X153410448Y-115943385D01*
X153237613Y-115490334D01*
X153092143Y-115124637D01*
X153037106Y-114993220D01*
X152907052Y-114766002D01*
X152757034Y-114604156D01*
X152727340Y-114585149D01*
X152610497Y-114487215D01*
X152643200Y-114382117D01*
X152674506Y-114266489D01*
X152627521Y-114064577D01*
X152508097Y-113774188D01*
X152340570Y-113433091D01*
X152157941Y-113134531D01*
X151916598Y-112810260D01*
X151798432Y-112663668D01*
X151723405Y-112535735D01*
X151610020Y-112302478D01*
X151488979Y-112028668D01*
X151351827Y-111728949D01*
X151216231Y-111472749D01*
X151121060Y-111328334D01*
X150997783Y-111159232D01*
X150837340Y-110909362D01*
X150736772Y-110740384D01*
X150535497Y-110264540D01*
X150498397Y-109814101D01*
X150624796Y-109375764D01*
X150663657Y-109299343D01*
X150799010Y-109012859D01*
X150936384Y-108666719D01*
X150996212Y-108492000D01*
X151104156Y-108170557D01*
X151216561Y-107864086D01*
X151270544Y-107730000D01*
X151370502Y-107475125D01*
X151486108Y-107151283D01*
X151547186Y-106968000D01*
X151622473Y-106753024D01*
X151722164Y-106505892D01*
X151855883Y-106206272D01*
X152033251Y-105833833D01*
X152263892Y-105368243D01*
X152557430Y-104789172D01*
X152829536Y-104258667D01*
X153120265Y-103681259D01*
X153336343Y-103224516D01*
X153474004Y-102896796D01*
X153529482Y-102706454D01*
X153529674Y-102704639D01*
X153460545Y-102640504D01*
X153272479Y-102542766D01*
X153014719Y-102435935D01*
X152709074Y-102313305D01*
X152441987Y-102192812D01*
X152295052Y-102114441D01*
X152070559Y-102009041D01*
X151804912Y-101929604D01*
X151801334Y-101928868D01*
X151578808Y-101870258D01*
X151429219Y-101807433D01*
X151420334Y-101801082D01*
X151310774Y-101745349D01*
X151078157Y-101645542D01*
X150758178Y-101516504D01*
X150437891Y-101392541D01*
X149969727Y-101208006D01*
X149460395Y-100996690D01*
X148989508Y-100792010D01*
X148786891Y-100699582D01*
X148323870Y-100493674D01*
X147775853Y-100269867D01*
X147122889Y-100020515D01*
X146345027Y-99737973D01*
X145536530Y-99454140D01*
X145221866Y-99336677D01*
X144964014Y-99225138D01*
X144810442Y-99140406D01*
X144796470Y-99128565D01*
X144649641Y-99034202D01*
X144422203Y-98936230D01*
X144372607Y-98919239D01*
X144101623Y-98821485D01*
X143777964Y-98692088D01*
X143631000Y-98629214D01*
X143290835Y-98512730D01*
X142892171Y-98447306D01*
X142488000Y-98424461D01*
X142051708Y-98400816D01*
X141768845Y-98350357D01*
X141624431Y-98263919D01*
X141603484Y-98132338D01*
X141691022Y-97946450D01*
X141695375Y-97939615D01*
X141833273Y-97739227D01*
X141949834Y-97593121D01*
X141951637Y-97591218D01*
X142015848Y-97452903D01*
X142075450Y-97207403D01*
X142106494Y-96998551D01*
X142204263Y-96552299D01*
X142394569Y-96051378D01*
X142466887Y-95899646D01*
X142773254Y-95287626D01*
X142522313Y-94968313D01*
X142333119Y-94717563D01*
X142162876Y-94475894D01*
X142120753Y-94411616D01*
X141973753Y-94230583D01*
X141829058Y-94124613D01*
X141826900Y-94123833D01*
X141661572Y-94031801D01*
X141486360Y-93895550D01*
X141306128Y-93780863D01*
X141058810Y-93725677D01*
X140808303Y-93714132D01*
X140525341Y-93701313D01*
X140305456Y-93672042D01*
X140222444Y-93645635D01*
X140159003Y-93519814D01*
X140129502Y-93272059D01*
X140130188Y-92945521D01*
X140157306Y-92583351D01*
X140207102Y-92228698D01*
X140275822Y-91924714D01*
X140359712Y-91714550D01*
X140394450Y-91668598D01*
X140524608Y-91603546D01*
X140745227Y-91606061D01*
X140745227Y-91606061D01*
G37*
X140745227Y-91606061D02*
X140897222Y-91630393D01*
X141264995Y-91742775D01*
X141556815Y-91915704D01*
X141740560Y-92124263D01*
X141787083Y-92320667D01*
X141811415Y-92485366D01*
X141944674Y-92613838D01*
X142064667Y-92680060D01*
X142272758Y-92813935D01*
X142540858Y-93026863D01*
X142813189Y-93274334D01*
X142829858Y-93290703D01*
X143099048Y-93534787D01*
X143367198Y-93742437D01*
X143579389Y-93871408D01*
X143591858Y-93876875D01*
X143964311Y-94108267D01*
X144241921Y-94430954D01*
X144387166Y-94800281D01*
X144400136Y-95023359D01*
X144360476Y-95303250D01*
X144261190Y-95679381D01*
X144191832Y-95900947D01*
X144041790Y-96364120D01*
X143942747Y-96692344D01*
X143897490Y-96912994D01*
X143908804Y-97053447D01*
X143979476Y-97141079D01*
X144112291Y-97203264D01*
X144310036Y-97267380D01*
X144331602Y-97274339D01*
X144604289Y-97359407D01*
X144814503Y-97418787D01*
X144901000Y-97437305D01*
X145014283Y-97474720D01*
X145234048Y-97568038D01*
X145515065Y-97697938D01*
X145546802Y-97713163D01*
X145916947Y-97875103D01*
X146314969Y-98024429D01*
X146605136Y-98114702D01*
X147289155Y-98309913D01*
X147990122Y-98535832D01*
X148669555Y-98778220D01*
X149288973Y-99022840D01*
X149809897Y-99255456D01*
X150108000Y-99410723D01*
X150353641Y-99537174D01*
X150674115Y-99684381D01*
X150901568Y-99780282D01*
X151161073Y-99890987D01*
X151277760Y-99961303D01*
X151269170Y-100005226D01*
X151208657Y-100025336D01*
X151195490Y-100059745D01*
X151295800Y-100134118D01*
X151518147Y-100252663D01*
X151871086Y-100419587D01*
X152363177Y-100639097D01*
X153002978Y-100915401D01*
X153124423Y-100967205D01*
X153810608Y-101256389D01*
X154354144Y-101478200D01*
X154765945Y-101636628D01*
X155056924Y-101735663D01*
X155237995Y-101779292D01*
X155320071Y-101771506D01*
X155321373Y-101770260D01*
X155391505Y-101655433D01*
X155506558Y-101422419D01*
X155647974Y-101110020D01*
X155740883Y-100893167D01*
X155913965Y-100503205D01*
X156048652Y-100256059D01*
X156156578Y-100132769D01*
X156221344Y-100110000D01*
X156349286Y-100144216D01*
X156373334Y-100184085D01*
X156341962Y-100299276D01*
X156257257Y-100535068D01*
X156133332Y-100856742D01*
X155984297Y-101229577D01*
X155824267Y-101618854D01*
X155667354Y-101989852D01*
X155527671Y-102307852D01*
X155419330Y-102538134D01*
X155405423Y-102565334D01*
X155329737Y-102724301D01*
X155195772Y-103020460D01*
X155011668Y-103435242D01*
X154785565Y-103950075D01*
X154525604Y-104546388D01*
X154239924Y-105205611D01*
X153936666Y-105909173D01*
X153791041Y-106248334D01*
X153486092Y-106958452D01*
X153198400Y-107626468D01*
X152935540Y-108234934D01*
X152705084Y-108766404D01*
X152514607Y-109203432D01*
X152371681Y-109528573D01*
X152283881Y-109724379D01*
X152262738Y-109768878D01*
X152210687Y-109899663D01*
X152211295Y-110027238D01*
X152278803Y-110184299D01*
X152427451Y-110403541D01*
X152671478Y-110717658D01*
X152681412Y-110730132D01*
X152825860Y-110920512D01*
X152871852Y-111029414D01*
X152829416Y-111105380D01*
X152768776Y-111153081D01*
X152701549Y-111214487D01*
X152681779Y-111291341D01*
X152719714Y-111414635D01*
X152825599Y-111615359D01*
X153009680Y-111924503D01*
X153040758Y-111975702D01*
X153243401Y-112314428D01*
X153426658Y-112635039D01*
X153598848Y-112956422D01*
X153768287Y-113297461D01*
X153943294Y-113677040D01*
X154132185Y-114114046D01*
X154343279Y-114627362D01*
X154584893Y-115235874D01*
X154865345Y-115958468D01*
X155192952Y-116814027D01*
X155328646Y-117170334D01*
X155491792Y-117587567D01*
X155669469Y-118023765D01*
X155829884Y-118401312D01*
X155868939Y-118489420D01*
X155993911Y-118790450D01*
X156083656Y-119050485D01*
X156119297Y-119214625D01*
X156119334Y-119217619D01*
X156129582Y-119346420D01*
X156166471Y-119500569D01*
X156239216Y-119701332D01*
X156357029Y-119969978D01*
X156529127Y-120327773D01*
X156764723Y-120795984D01*
X157011469Y-121276667D01*
X157256765Y-121764536D01*
X157486100Y-122243567D01*
X157682625Y-122676837D01*
X157829494Y-123027424D01*
X157900051Y-123224000D01*
X158052506Y-123685171D01*
X158232951Y-124169460D01*
X158428511Y-124648448D01*
X158626310Y-125093712D01*
X158813471Y-125476830D01*
X158977118Y-125769381D01*
X159104375Y-125942942D01*
X159146167Y-125974577D01*
X159290323Y-126065724D01*
X159340195Y-126150672D01*
X159273167Y-126187502D01*
X159208410Y-126257406D01*
X159195938Y-126426610D01*
X159230687Y-126635090D01*
X159307588Y-126822821D01*
X159329527Y-126855201D01*
X159427426Y-127016661D01*
X159421602Y-127160880D01*
X159360612Y-127299422D01*
X159236044Y-127466013D01*
X159101935Y-127533989D01*
X159097632Y-127533853D01*
X158968945Y-127507094D01*
X158711560Y-127439064D01*
X158358424Y-127338950D01*
X158043001Y-127245667D01*
X158828667Y-127245667D01*
X158871000Y-127288000D01*
X158913334Y-127245667D01*
X158871000Y-127203334D01*
X158828667Y-127245667D01*
X158043001Y-127245667D01*
X157942479Y-127215939D01*
X157770334Y-127163737D01*
X157229819Y-126998434D01*
X156634528Y-126815983D01*
X156056732Y-126638556D01*
X155569000Y-126488415D01*
X155148559Y-126363253D01*
X154758122Y-126255110D01*
X154441655Y-126175661D01*
X154245150Y-126136831D01*
X154045151Y-126094549D01*
X153729397Y-126007865D01*
X153341541Y-125889488D01*
X152932817Y-125754725D01*
X152634095Y-125653693D01*
X152304988Y-125545025D01*
X151931337Y-125424330D01*
X151498986Y-125287214D01*
X150993776Y-125129284D01*
X150401551Y-124946149D01*
X149708152Y-124733415D01*
X148899423Y-124486689D01*
X147961204Y-124201580D01*
X146879340Y-123873693D01*
X146509667Y-123761793D01*
X145279313Y-123388995D01*
X144119244Y-123036569D01*
X143045713Y-122709482D01*
X142074976Y-122412702D01*
X141223287Y-122151193D01*
X140506900Y-121929922D01*
X140117334Y-121808724D01*
X139741212Y-121689781D01*
X139427612Y-121592405D01*
X139156068Y-121517685D01*
X138906116Y-121466710D01*
X138657293Y-121440570D01*
X138389133Y-121440354D01*
X138081175Y-121467150D01*
X137712952Y-121522048D01*
X137264001Y-121606138D01*
X136713859Y-121720508D01*
X136042060Y-121866248D01*
X135228141Y-122044446D01*
X135079667Y-122076848D01*
X134454882Y-122212957D01*
X133794419Y-122356650D01*
X133148912Y-122496923D01*
X132568997Y-122622773D01*
X132116334Y-122720813D01*
X131667486Y-122819142D01*
X131258308Y-122911105D01*
X130927087Y-122987932D01*
X130712112Y-123040854D01*
X130677000Y-123050472D01*
X130504344Y-123093936D01*
X130203227Y-123163327D01*
X129811011Y-123250277D01*
X129365059Y-123346417D01*
X129195334Y-123382344D01*
X128276559Y-123576970D01*
X127405090Y-123763790D01*
X126595661Y-123939502D01*
X125863008Y-124100805D01*
X125221866Y-124244396D01*
X124686969Y-124366975D01*
X124273052Y-124465240D01*
X123994850Y-124535890D01*
X123867099Y-124575623D01*
X123865225Y-124576577D01*
X123707277Y-124628278D01*
X123454136Y-124680375D01*
X123311000Y-124701889D01*
X122908088Y-124764054D01*
X122486384Y-124844881D01*
X122090520Y-124934158D01*
X121765128Y-125021679D01*
X121554839Y-125097234D01*
X121533000Y-125108578D01*
X121349865Y-125177482D01*
X121079234Y-125241807D01*
X120940334Y-125265019D01*
X120151265Y-125383905D01*
X119489841Y-125500270D01*
X118914671Y-125621655D01*
X118701092Y-125672904D01*
X118310149Y-125761821D01*
X117906900Y-125840524D01*
X117587949Y-125890661D01*
X117114231Y-125949567D01*
X117106512Y-125678078D01*
X117136971Y-125521809D01*
X117235732Y-125245781D01*
X117405477Y-124843855D01*
X117648888Y-124309889D01*
X117968644Y-123637744D01*
X118246828Y-123066461D01*
X118599804Y-122346816D01*
X118989168Y-121552731D01*
X119391756Y-120731464D01*
X119784403Y-119930273D01*
X120143947Y-119196418D01*
X120389850Y-118694334D01*
X120648967Y-118165821D01*
X120968647Y-117514859D01*
X121334440Y-116770811D01*
X121731898Y-115963039D01*
X122146571Y-115120906D01*
X122564009Y-114273774D01*
X122969762Y-113451007D01*
X123098063Y-113191000D01*
X123553203Y-112269706D01*
X123939608Y-111487970D01*
X124262457Y-110833002D01*
X124526931Y-110292012D01*
X124738211Y-109852210D01*
X124901477Y-109500804D01*
X125021908Y-109225005D01*
X125104686Y-109012021D01*
X125154991Y-108849064D01*
X125178003Y-108723342D01*
X125178902Y-108622064D01*
X125162869Y-108532441D01*
X125135084Y-108441682D01*
X125100728Y-108336997D01*
X125085244Y-108284588D01*
X125019747Y-108076752D01*
X124903407Y-107734825D01*
X124744915Y-107283238D01*
X124552964Y-106746423D01*
X124336244Y-106148812D01*
X124103447Y-105514836D01*
X124014505Y-105274667D01*
X123775325Y-104628220D01*
X123546078Y-104004645D01*
X123335988Y-103429337D01*
X123154281Y-102927689D01*
X123010183Y-102525097D01*
X122912918Y-102246954D01*
X122891854Y-102184334D01*
X122762791Y-101807443D01*
X122622432Y-101419367D01*
X122516848Y-101144032D01*
X122399448Y-100837452D01*
X122350299Y-100654383D01*
X122368401Y-100563813D01*
X122452753Y-100534727D01*
X122497140Y-100533334D01*
X122612397Y-100586345D01*
X122737300Y-100759866D01*
X122887423Y-101075631D01*
X122889855Y-101081346D01*
X123122764Y-101629358D01*
X123493435Y-101594611D01*
X123761275Y-101561673D01*
X123977478Y-101521862D01*
X124020871Y-101510109D01*
X124289772Y-101503460D01*
X124521274Y-101632757D01*
X124660141Y-101865555D01*
X124665883Y-101888985D01*
X124731498Y-102106459D01*
X124843790Y-102406287D01*
X124958198Y-102677229D01*
X125108451Y-103043445D01*
X125264694Y-103471812D01*
X125375909Y-103814167D01*
X125474344Y-104107523D01*
X125567512Y-104324557D01*
X125637775Y-104425300D01*
X125646767Y-104428000D01*
X125696568Y-104479292D01*
X125684813Y-104507577D01*
X125692939Y-104624880D01*
X125775237Y-104814458D01*
X125802428Y-104861428D01*
X125901493Y-105052653D01*
X125936553Y-105180444D01*
X125932769Y-105194689D01*
X125941279Y-105297534D01*
X125997156Y-105515326D01*
X126088876Y-105804251D01*
X126106490Y-105855248D01*
X126210731Y-106187068D01*
X126285932Y-106490269D01*
X126316582Y-106701825D01*
X126316667Y-106709276D01*
X126352500Y-106951299D01*
X126446994Y-107285259D01*
X126580638Y-107652881D01*
X126733922Y-107995891D01*
X126771783Y-108068667D01*
X126910202Y-108390989D01*
X126946526Y-108691513D01*
X126878040Y-109019982D01*
X126702028Y-109426140D01*
X126697134Y-109435911D01*
X126554077Y-109746953D01*
X126449059Y-110024827D01*
X126402127Y-110215555D01*
X126401334Y-110232324D01*
X126370152Y-110389171D01*
X126312030Y-110439334D01*
X126246471Y-110515646D01*
X126112518Y-110744745D01*
X125910050Y-111126875D01*
X125638944Y-111662279D01*
X125299079Y-112351203D01*
X124890333Y-113193890D01*
X124412585Y-114190584D01*
X123865714Y-115341529D01*
X123801598Y-115477000D01*
X123600897Y-115897909D01*
X123338221Y-116443696D01*
X123026653Y-117087451D01*
X122679274Y-117802262D01*
X122309168Y-118561218D01*
X121929417Y-119337409D01*
X121553105Y-120103923D01*
X121481288Y-120249873D01*
X121142927Y-120938921D01*
X120828955Y-121581554D01*
X120547075Y-122161767D01*
X120304988Y-122663557D01*
X120110397Y-123070919D01*
X119971004Y-123367849D01*
X119894511Y-123538342D01*
X119882000Y-123573040D01*
X119899847Y-123617322D01*
X119965904Y-123635315D01*
X120098945Y-123622985D01*
X120317745Y-123576300D01*
X120641079Y-123491228D01*
X121087721Y-123363737D01*
X121676446Y-123189793D01*
X121702334Y-123182075D01*
X122045181Y-123089938D01*
X122499649Y-122982031D01*
X123010399Y-122870831D01*
X123522089Y-122768813D01*
X123600828Y-122754087D01*
X124070961Y-122660808D01*
X124513637Y-122561686D01*
X124886433Y-122466993D01*
X125146926Y-122386998D01*
X125195347Y-122368040D01*
X125454968Y-122271567D01*
X125675134Y-122214573D01*
X125738558Y-122208000D01*
X125879119Y-122188731D01*
X126149498Y-122135787D01*
X126515211Y-122056461D01*
X126941776Y-121958050D01*
X127107372Y-121918443D01*
X127585763Y-121806617D01*
X128053113Y-121703904D01*
X128461951Y-121620315D01*
X128764809Y-121565860D01*
X128813754Y-121558610D01*
X129121375Y-121502060D01*
X129290003Y-121431491D01*
X129348745Y-121342155D01*
X129313034Y-121178580D01*
X129187669Y-120958265D01*
X129011773Y-120734426D01*
X128824469Y-120560280D01*
X128734429Y-120506536D01*
X128512091Y-120392144D01*
X128401281Y-120324369D01*
X128269753Y-120260828D01*
X128207244Y-120314970D01*
X128203726Y-120324167D01*
X128098875Y-120431968D01*
X127933540Y-120425333D01*
X127742022Y-120330147D01*
X127558623Y-120172293D01*
X127417643Y-119977654D01*
X127353385Y-119772114D01*
X127358038Y-119686016D01*
X127348352Y-119457310D01*
X127280924Y-119256368D01*
X127164284Y-118898376D01*
X127188753Y-118715500D01*
X127931284Y-118715500D01*
X127941574Y-118866101D01*
X127971595Y-118860782D01*
X128010000Y-118779000D01*
X128071548Y-118615033D01*
X128088716Y-118546167D01*
X128030319Y-118484560D01*
X128010000Y-118482667D01*
X127950474Y-118555562D01*
X127931284Y-118715500D01*
X127188753Y-118715500D01*
X127208975Y-118564375D01*
X127418305Y-118236228D01*
X127478764Y-118171195D01*
X127704989Y-117890159D01*
X127799535Y-117633305D01*
X127805324Y-117568603D01*
X127861019Y-117361917D01*
X127988526Y-117129781D01*
X128149551Y-116925771D01*
X128305797Y-116803464D01*
X128362333Y-116789334D01*
X128442356Y-116856839D01*
X128548829Y-117021568D01*
X128560456Y-117043570D01*
X128631574Y-117207398D01*
X128648189Y-117361705D01*
X128609996Y-117570825D01*
X128557077Y-117761672D01*
X128470402Y-118023265D01*
X128387988Y-118212414D01*
X128343114Y-118274432D01*
X128263519Y-118363990D01*
X128339126Y-118425705D01*
X128556669Y-118448800D01*
X128557773Y-118448800D01*
X128767659Y-118419951D01*
X128888634Y-118348942D01*
X128893782Y-118338734D01*
X128979873Y-118239536D01*
X129120001Y-118272343D01*
X129325005Y-118442685D01*
X129525313Y-118661077D01*
X129811955Y-118951607D01*
X130153400Y-119239226D01*
X130371980Y-119393842D01*
X130683167Y-119604342D01*
X130989619Y-119833038D01*
X131164077Y-119977473D01*
X131376333Y-120142592D01*
X131559510Y-120244651D01*
X131624760Y-120260667D01*
X131712754Y-120247300D01*
X131666985Y-120186234D01*
X131603349Y-120136360D01*
X131507219Y-120041581D01*
X131542400Y-120012015D01*
X131685168Y-120044770D01*
X131911801Y-120136953D01*
X132013873Y-120186407D01*
X132259066Y-120311774D01*
X132379547Y-120390390D01*
X132400629Y-120454026D01*
X132347626Y-120534452D01*
X132318899Y-120569234D01*
X132256552Y-120661316D01*
X132303130Y-120685519D01*
X132486408Y-120656011D01*
X132488288Y-120655639D01*
X132708795Y-120637251D01*
X132861156Y-120668711D01*
X132869288Y-120674412D01*
X133003502Y-120701905D01*
X133263324Y-120690867D01*
X133555667Y-120651840D01*
X134148334Y-120553575D01*
X134151792Y-120472334D01*
X139863334Y-120472334D01*
X139905667Y-120514667D01*
X139948000Y-120472334D01*
X139905667Y-120430000D01*
X139863334Y-120472334D01*
X134151792Y-120472334D01*
X134198724Y-119369954D01*
X134220498Y-118898950D01*
X134244251Y-118451618D01*
X134262004Y-118161230D01*
X134465724Y-118161230D01*
X134466410Y-118338680D01*
X134486408Y-118360033D01*
X134538842Y-118238412D01*
X134539975Y-118235481D01*
X134575216Y-118049160D01*
X134544911Y-117956378D01*
X134493421Y-117975640D01*
X134466748Y-118129090D01*
X134465724Y-118161230D01*
X134262004Y-118161230D01*
X134267351Y-118073771D01*
X134287162Y-117811221D01*
X134290125Y-117780244D01*
X134300702Y-117534688D01*
X134281439Y-117367390D01*
X134260590Y-117330555D01*
X134225301Y-117225481D01*
X134242030Y-117079832D01*
X134238987Y-116844849D01*
X134149498Y-116568161D01*
X134066454Y-116325005D01*
X134045899Y-116113467D01*
X134051298Y-116081974D01*
X134224103Y-115488575D01*
X134383738Y-115084677D01*
X135364091Y-115084677D01*
X135385734Y-115270878D01*
X135410770Y-115392334D01*
X135477028Y-115617973D01*
X135543979Y-115754623D01*
X135570289Y-115773334D01*
X135609778Y-115707576D01*
X135597393Y-115625167D01*
X135544232Y-115429989D01*
X135497842Y-115244167D01*
X135439145Y-115076018D01*
X135382342Y-115011334D01*
X135364091Y-115084677D01*
X134383738Y-115084677D01*
X134402057Y-115038329D01*
X134581179Y-114738991D01*
X134757490Y-114598317D01*
X134817835Y-114588000D01*
X134963918Y-114528376D01*
X135037333Y-114461000D01*
X135236814Y-114343133D01*
X135513788Y-114340412D01*
X135829422Y-114444931D01*
X136144883Y-114648783D01*
X136201500Y-114698006D01*
X136293043Y-114798039D01*
X136349452Y-114921505D01*
X136378850Y-115108990D01*
X136389356Y-115401080D01*
X136389980Y-115639925D01*
X136380510Y-116023889D01*
X136357037Y-116378496D01*
X136323979Y-116644133D01*
X136311063Y-116704667D01*
X136176284Y-117153225D01*
X136033798Y-117502902D01*
X135896308Y-117724344D01*
X135851660Y-117766163D01*
X135796151Y-117831262D01*
X135757562Y-117949554D01*
X135733053Y-118147934D01*
X135719783Y-118453295D01*
X135714915Y-118892532D01*
X135714667Y-119063501D01*
X135720288Y-119598295D01*
X135737531Y-119971299D01*
X135766959Y-120189695D01*
X135809020Y-120260667D01*
X135920605Y-120242529D01*
X136166281Y-120192507D01*
X136515231Y-120117187D01*
X136936639Y-120023156D01*
X137184853Y-119966602D01*
X137659382Y-119860427D01*
X138104217Y-119765825D01*
X138480090Y-119690796D01*
X138747729Y-119643341D01*
X138821010Y-119633266D01*
X139097990Y-119578129D01*
X139334055Y-119491471D01*
X139371343Y-119470480D01*
X139596017Y-119352454D01*
X139755224Y-119290833D01*
X139863718Y-119269672D01*
X139917080Y-119314861D01*
X139931117Y-119462966D01*
X139924558Y-119682494D01*
X139905667Y-120130288D01*
X140244334Y-120179492D01*
X140539273Y-120247432D01*
X140811292Y-120348270D01*
X140837000Y-120361094D01*
X141029601Y-120442099D01*
X141334584Y-120549087D01*
X141700666Y-120664596D01*
X141895334Y-120721433D01*
X142329563Y-120849344D01*
X142784103Y-120991083D01*
X143180255Y-121121893D01*
X143286466Y-121159052D01*
X143524659Y-121239052D01*
X143897311Y-121357798D01*
X144376318Y-121506634D01*
X144933575Y-121676905D01*
X145540977Y-121859956D01*
X146165133Y-122045571D01*
X146927782Y-122271121D01*
X147793630Y-122527729D01*
X148703662Y-122797868D01*
X149598861Y-123064015D01*
X150420211Y-123308645D01*
X150763692Y-123411126D01*
X151359092Y-123586759D01*
X151900867Y-123742483D01*
X152368125Y-123872619D01*
X152739972Y-123971490D01*
X152995514Y-124033419D01*
X153113859Y-124052729D01*
X153119062Y-124051161D01*
X153115047Y-123953061D01*
X153051055Y-123756337D01*
X152992537Y-123617886D01*
X152890650Y-123377766D01*
X152827466Y-123197158D01*
X152817334Y-123145592D01*
X152745782Y-123063333D01*
X152583529Y-123000810D01*
X152409179Y-122980911D01*
X152325461Y-123002366D01*
X152224564Y-122991238D01*
X152082743Y-122848110D01*
X151891285Y-122562883D01*
X151773326Y-122362257D01*
X151619064Y-122071001D01*
X151555644Y-121859054D01*
X151597630Y-121694782D01*
X151759587Y-121546549D01*
X152056078Y-121382721D01*
X152272007Y-121279100D01*
X152593042Y-121131111D01*
X152856423Y-121015515D01*
X153024812Y-120948409D01*
X153063218Y-120938000D01*
X153163789Y-120881554D01*
X153283000Y-120768667D01*
X153460752Y-120640062D01*
X153646925Y-120599266D01*
X153788249Y-120647385D01*
X153833334Y-120757249D01*
X153883745Y-120933486D01*
X154002667Y-121130437D01*
X154121834Y-121317376D01*
X154171995Y-121466470D01*
X154172000Y-121467399D01*
X154230296Y-121611840D01*
X154341334Y-121742334D01*
X154477042Y-121894173D01*
X154500450Y-121984390D01*
X154411657Y-121986011D01*
X154340550Y-121953581D01*
X154226595Y-121908428D01*
X154186589Y-121966385D01*
X154192384Y-122141051D01*
X154187889Y-122338398D01*
X154111976Y-122425493D01*
X154023834Y-122446671D01*
X153868831Y-122503821D01*
X153852426Y-122623594D01*
X153973217Y-122824420D01*
X153993106Y-122850076D01*
X154118254Y-123074742D01*
X154207912Y-123348298D01*
X154212556Y-123371430D01*
X154285373Y-123631649D01*
X154406641Y-123950483D01*
X154490897Y-124136294D01*
X154709560Y-124582921D01*
X155562613Y-124842043D01*
X155964068Y-124966141D01*
X156346327Y-125088043D01*
X156654031Y-125189927D01*
X156777388Y-125233139D01*
X157002050Y-125303513D01*
X157152829Y-125329204D01*
X157181682Y-125322540D01*
X157175383Y-125227538D01*
X157112966Y-125030489D01*
X157052310Y-124878833D01*
X156942971Y-124608852D01*
X156804125Y-124245322D01*
X156661074Y-123854910D01*
X156622005Y-123745016D01*
X156483953Y-123405227D01*
X156280200Y-122969531D01*
X156034505Y-122485797D01*
X155770627Y-122001892D01*
X155669990Y-121827000D01*
X155341058Y-121255132D01*
X155096146Y-120804602D01*
X154925927Y-120455468D01*
X154821074Y-120187788D01*
X154772261Y-119981618D01*
X154765942Y-119893938D01*
X154737220Y-119761386D01*
X154657783Y-119494850D01*
X154536306Y-119118923D01*
X154381465Y-118658200D01*
X154201936Y-118137273D01*
X154006394Y-117580735D01*
X153803514Y-117013178D01*
X153601974Y-116459198D01*
X153410448Y-115943385D01*
X153237613Y-115490334D01*
X153092143Y-115124637D01*
X153037106Y-114993220D01*
X152907052Y-114766002D01*
X152757034Y-114604156D01*
X152727340Y-114585149D01*
X152610497Y-114487215D01*
X152643200Y-114382117D01*
X152674506Y-114266489D01*
X152627521Y-114064577D01*
X152508097Y-113774188D01*
X152340570Y-113433091D01*
X152157941Y-113134531D01*
X151916598Y-112810260D01*
X151798432Y-112663668D01*
X151723405Y-112535735D01*
X151610020Y-112302478D01*
X151488979Y-112028668D01*
X151351827Y-111728949D01*
X151216231Y-111472749D01*
X151121060Y-111328334D01*
X150997783Y-111159232D01*
X150837340Y-110909362D01*
X150736772Y-110740384D01*
X150535497Y-110264540D01*
X150498397Y-109814101D01*
X150624796Y-109375764D01*
X150663657Y-109299343D01*
X150799010Y-109012859D01*
X150936384Y-108666719D01*
X150996212Y-108492000D01*
X151104156Y-108170557D01*
X151216561Y-107864086D01*
X151270544Y-107730000D01*
X151370502Y-107475125D01*
X151486108Y-107151283D01*
X151547186Y-106968000D01*
X151622473Y-106753024D01*
X151722164Y-106505892D01*
X151855883Y-106206272D01*
X152033251Y-105833833D01*
X152263892Y-105368243D01*
X152557430Y-104789172D01*
X152829536Y-104258667D01*
X153120265Y-103681259D01*
X153336343Y-103224516D01*
X153474004Y-102896796D01*
X153529482Y-102706454D01*
X153529674Y-102704639D01*
X153460545Y-102640504D01*
X153272479Y-102542766D01*
X153014719Y-102435935D01*
X152709074Y-102313305D01*
X152441987Y-102192812D01*
X152295052Y-102114441D01*
X152070559Y-102009041D01*
X151804912Y-101929604D01*
X151801334Y-101928868D01*
X151578808Y-101870258D01*
X151429219Y-101807433D01*
X151420334Y-101801082D01*
X151310774Y-101745349D01*
X151078157Y-101645542D01*
X150758178Y-101516504D01*
X150437891Y-101392541D01*
X149969727Y-101208006D01*
X149460395Y-100996690D01*
X148989508Y-100792010D01*
X148786891Y-100699582D01*
X148323870Y-100493674D01*
X147775853Y-100269867D01*
X147122889Y-100020515D01*
X146345027Y-99737973D01*
X145536530Y-99454140D01*
X145221866Y-99336677D01*
X144964014Y-99225138D01*
X144810442Y-99140406D01*
X144796470Y-99128565D01*
X144649641Y-99034202D01*
X144422203Y-98936230D01*
X144372607Y-98919239D01*
X144101623Y-98821485D01*
X143777964Y-98692088D01*
X143631000Y-98629214D01*
X143290835Y-98512730D01*
X142892171Y-98447306D01*
X142488000Y-98424461D01*
X142051708Y-98400816D01*
X141768845Y-98350357D01*
X141624431Y-98263919D01*
X141603484Y-98132338D01*
X141691022Y-97946450D01*
X141695375Y-97939615D01*
X141833273Y-97739227D01*
X141949834Y-97593121D01*
X141951637Y-97591218D01*
X142015848Y-97452903D01*
X142075450Y-97207403D01*
X142106494Y-96998551D01*
X142204263Y-96552299D01*
X142394569Y-96051378D01*
X142466887Y-95899646D01*
X142773254Y-95287626D01*
X142522313Y-94968313D01*
X142333119Y-94717563D01*
X142162876Y-94475894D01*
X142120753Y-94411616D01*
X141973753Y-94230583D01*
X141829058Y-94124613D01*
X141826900Y-94123833D01*
X141661572Y-94031801D01*
X141486360Y-93895550D01*
X141306128Y-93780863D01*
X141058810Y-93725677D01*
X140808303Y-93714132D01*
X140525341Y-93701313D01*
X140305456Y-93672042D01*
X140222444Y-93645635D01*
X140159003Y-93519814D01*
X140129502Y-93272059D01*
X140130188Y-92945521D01*
X140157306Y-92583351D01*
X140207102Y-92228698D01*
X140275822Y-91924714D01*
X140359712Y-91714550D01*
X140394450Y-91668598D01*
X140524608Y-91603546D01*
X140745227Y-91606061D01*
G36*
X163994477Y-118906328D02*
X164253569Y-119026812D01*
X164571289Y-119239188D01*
X164899658Y-119503780D01*
X165190701Y-119780914D01*
X165396443Y-120030916D01*
X165436486Y-120098820D01*
X165626266Y-120653340D01*
X165659519Y-121251411D01*
X165601033Y-121628373D01*
X165379302Y-122274691D01*
X165046767Y-122794104D01*
X164601018Y-123189803D01*
X164290283Y-123363589D01*
X163984390Y-123488065D01*
X163716916Y-123541250D01*
X163417752Y-123529604D01*
X163089635Y-123474243D01*
X162586248Y-123318311D01*
X162151829Y-123074749D01*
X161819614Y-122767421D01*
X161623235Y-122421387D01*
X161492490Y-121861782D01*
X161447846Y-121272358D01*
X161469640Y-120941376D01*
X161896078Y-120941376D01*
X161901379Y-121444548D01*
X161981345Y-121920298D01*
X162124352Y-122323499D01*
X162318774Y-122609022D01*
X162327939Y-122617811D01*
X162615557Y-122815459D01*
X162999001Y-122985581D01*
X163404761Y-123100464D01*
X163697000Y-123133980D01*
X164029341Y-123084285D01*
X164363865Y-122953212D01*
X164374334Y-122947441D01*
X164645533Y-122742202D01*
X164867100Y-122439272D01*
X164945257Y-122292667D01*
X165178344Y-121686518D01*
X165249539Y-121129383D01*
X165159437Y-120623164D01*
X164908632Y-120169768D01*
X164497720Y-119771098D01*
X164074501Y-119503633D01*
X163789726Y-119358546D01*
X163592384Y-119286318D01*
X163423465Y-119274797D01*
X163223957Y-119311827D01*
X163187358Y-119320915D01*
X162691092Y-119495097D01*
X162329446Y-119745001D01*
X162085706Y-120091599D01*
X161943161Y-120555863D01*
X161896078Y-120941376D01*
X161469640Y-120941376D01*
X161485756Y-120696642D01*
X161602672Y-120178162D01*
X161795048Y-119760448D01*
X161845972Y-119687933D01*
X162127440Y-119421353D01*
X162515739Y-119188409D01*
X162960259Y-119007511D01*
X163410393Y-118897071D01*
X163815530Y-118875499D01*
X163994477Y-118906328D01*
X163994477Y-118906328D01*
G37*
X163994477Y-118906328D02*
X164253569Y-119026812D01*
X164571289Y-119239188D01*
X164899658Y-119503780D01*
X165190701Y-119780914D01*
X165396443Y-120030916D01*
X165436486Y-120098820D01*
X165626266Y-120653340D01*
X165659519Y-121251411D01*
X165601033Y-121628373D01*
X165379302Y-122274691D01*
X165046767Y-122794104D01*
X164601018Y-123189803D01*
X164290283Y-123363589D01*
X163984390Y-123488065D01*
X163716916Y-123541250D01*
X163417752Y-123529604D01*
X163089635Y-123474243D01*
X162586248Y-123318311D01*
X162151829Y-123074749D01*
X161819614Y-122767421D01*
X161623235Y-122421387D01*
X161492490Y-121861782D01*
X161447846Y-121272358D01*
X161469640Y-120941376D01*
X161896078Y-120941376D01*
X161901379Y-121444548D01*
X161981345Y-121920298D01*
X162124352Y-122323499D01*
X162318774Y-122609022D01*
X162327939Y-122617811D01*
X162615557Y-122815459D01*
X162999001Y-122985581D01*
X163404761Y-123100464D01*
X163697000Y-123133980D01*
X164029341Y-123084285D01*
X164363865Y-122953212D01*
X164374334Y-122947441D01*
X164645533Y-122742202D01*
X164867100Y-122439272D01*
X164945257Y-122292667D01*
X165178344Y-121686518D01*
X165249539Y-121129383D01*
X165159437Y-120623164D01*
X164908632Y-120169768D01*
X164497720Y-119771098D01*
X164074501Y-119503633D01*
X163789726Y-119358546D01*
X163592384Y-119286318D01*
X163423465Y-119274797D01*
X163223957Y-119311827D01*
X163187358Y-119320915D01*
X162691092Y-119495097D01*
X162329446Y-119745001D01*
X162085706Y-120091599D01*
X161943161Y-120555863D01*
X161896078Y-120941376D01*
X161469640Y-120941376D01*
X161485756Y-120696642D01*
X161602672Y-120178162D01*
X161795048Y-119760448D01*
X161845972Y-119687933D01*
X162127440Y-119421353D01*
X162515739Y-119188409D01*
X162960259Y-119007511D01*
X163410393Y-118897071D01*
X163815530Y-118875499D01*
X163994477Y-118906328D01*
G36*
X150323269Y-114984278D02*
X150518690Y-115130383D01*
X150616000Y-115223000D01*
X150883154Y-115440572D01*
X151119308Y-115519299D01*
X151123676Y-115519334D01*
X151273387Y-115540529D01*
X151334033Y-115637812D01*
X151344134Y-115810627D01*
X151390212Y-116056315D01*
X151515047Y-116398133D01*
X151698537Y-116794730D01*
X151920583Y-117204755D01*
X152161082Y-117586857D01*
X152301217Y-117779530D01*
X152471953Y-118020533D01*
X152527318Y-118160099D01*
X152491641Y-118209793D01*
X152396994Y-118263047D01*
X152230202Y-118387801D01*
X151977144Y-118595552D01*
X151623698Y-118897798D01*
X151293334Y-119185452D01*
X150909706Y-119500111D01*
X150613910Y-119687944D01*
X150387090Y-119753622D01*
X150210391Y-119701815D01*
X150064956Y-119537196D01*
X150040562Y-119495800D01*
X149908294Y-119318453D01*
X149770668Y-119279044D01*
X149727000Y-119288546D01*
X149529275Y-119334911D01*
X149270731Y-119382401D01*
X149240167Y-119387227D01*
X149012356Y-119399057D01*
X148930460Y-119337009D01*
X148992998Y-119194454D01*
X149155500Y-119008220D01*
X149296112Y-118867872D01*
X149366276Y-118805971D01*
X149367901Y-118808594D01*
X149395071Y-118909235D01*
X149515723Y-119015846D01*
X149665101Y-119074119D01*
X149685975Y-119075334D01*
X149843695Y-119000160D01*
X149929349Y-118797166D01*
X149938667Y-118678350D01*
X149884373Y-118588558D01*
X149810620Y-118598353D01*
X149723227Y-118600615D01*
X149724343Y-118483362D01*
X149733060Y-118446333D01*
X149721151Y-118271519D01*
X149641259Y-117999932D01*
X149512317Y-117671456D01*
X149353259Y-117325973D01*
X149183020Y-117003368D01*
X149020532Y-116743525D01*
X148884729Y-116586326D01*
X148837432Y-116559717D01*
X148715957Y-116456158D01*
X148684470Y-116269307D01*
X148731218Y-116051238D01*
X148844450Y-115854020D01*
X149012414Y-115729726D01*
X149025781Y-115725145D01*
X149171233Y-115643941D01*
X149389906Y-115483167D01*
X149608425Y-115300184D01*
X149846279Y-115108032D01*
X150054220Y-114973220D01*
X150178884Y-114926667D01*
X150323269Y-114984278D01*
X150323269Y-114984278D01*
G37*
X150323269Y-114984278D02*
X150518690Y-115130383D01*
X150616000Y-115223000D01*
X150883154Y-115440572D01*
X151119308Y-115519299D01*
X151123676Y-115519334D01*
X151273387Y-115540529D01*
X151334033Y-115637812D01*
X151344134Y-115810627D01*
X151390212Y-116056315D01*
X151515047Y-116398133D01*
X151698537Y-116794730D01*
X151920583Y-117204755D01*
X152161082Y-117586857D01*
X152301217Y-117779530D01*
X152471953Y-118020533D01*
X152527318Y-118160099D01*
X152491641Y-118209793D01*
X152396994Y-118263047D01*
X152230202Y-118387801D01*
X151977144Y-118595552D01*
X151623698Y-118897798D01*
X151293334Y-119185452D01*
X150909706Y-119500111D01*
X150613910Y-119687944D01*
X150387090Y-119753622D01*
X150210391Y-119701815D01*
X150064956Y-119537196D01*
X150040562Y-119495800D01*
X149908294Y-119318453D01*
X149770668Y-119279044D01*
X149727000Y-119288546D01*
X149529275Y-119334911D01*
X149270731Y-119382401D01*
X149240167Y-119387227D01*
X149012356Y-119399057D01*
X148930460Y-119337009D01*
X148992998Y-119194454D01*
X149155500Y-119008220D01*
X149296112Y-118867872D01*
X149366276Y-118805971D01*
X149367901Y-118808594D01*
X149395071Y-118909235D01*
X149515723Y-119015846D01*
X149665101Y-119074119D01*
X149685975Y-119075334D01*
X149843695Y-119000160D01*
X149929349Y-118797166D01*
X149938667Y-118678350D01*
X149884373Y-118588558D01*
X149810620Y-118598353D01*
X149723227Y-118600615D01*
X149724343Y-118483362D01*
X149733060Y-118446333D01*
X149721151Y-118271519D01*
X149641259Y-117999932D01*
X149512317Y-117671456D01*
X149353259Y-117325973D01*
X149183020Y-117003368D01*
X149020532Y-116743525D01*
X148884729Y-116586326D01*
X148837432Y-116559717D01*
X148715957Y-116456158D01*
X148684470Y-116269307D01*
X148731218Y-116051238D01*
X148844450Y-115854020D01*
X149012414Y-115729726D01*
X149025781Y-115725145D01*
X149171233Y-115643941D01*
X149389906Y-115483167D01*
X149608425Y-115300184D01*
X149846279Y-115108032D01*
X150054220Y-114973220D01*
X150178884Y-114926667D01*
X150323269Y-114984278D01*
G36*
X131733239Y-96321219D02*
X131912812Y-96384142D01*
X132185382Y-96508899D01*
X132573559Y-96704111D01*
X132777458Y-96809680D01*
X133299429Y-97090986D01*
X133708679Y-97337460D01*
X134049049Y-97578787D01*
X134364378Y-97844650D01*
X134518463Y-97988496D01*
X134791497Y-98239485D01*
X135028697Y-98438532D01*
X135198632Y-98560287D01*
X135259296Y-98586000D01*
X135364932Y-98650527D01*
X135376000Y-98697993D01*
X135445821Y-98797530D01*
X135623845Y-98926895D01*
X135753820Y-98998677D01*
X136004824Y-99110118D01*
X136193757Y-99142350D01*
X136402327Y-99105617D01*
X136464177Y-99087739D01*
X136738870Y-99042639D01*
X137030235Y-99050689D01*
X137283590Y-99103886D01*
X137444257Y-99194226D01*
X137469046Y-99234803D01*
X137408079Y-99291971D01*
X137203964Y-99345182D01*
X136882884Y-99391015D01*
X136471022Y-99426051D01*
X135994564Y-99446870D01*
X135820500Y-99450126D01*
X135510828Y-99466701D01*
X135331816Y-99503355D01*
X135295492Y-99554193D01*
X135413885Y-99613318D01*
X135460667Y-99626532D01*
X135598160Y-99705268D01*
X135630000Y-99773145D01*
X135580926Y-99818064D01*
X135426415Y-99742068D01*
X135421312Y-99738738D01*
X135212580Y-99637281D01*
X135049990Y-99602000D01*
X134859909Y-99563597D01*
X134644845Y-99475522D01*
X134431575Y-99385481D01*
X134265105Y-99348522D01*
X134125159Y-99315475D01*
X133880237Y-99228554D01*
X133758297Y-99178667D01*
X135460667Y-99178667D01*
X135491645Y-99248357D01*
X135517111Y-99235111D01*
X135527244Y-99134632D01*
X135517111Y-99122222D01*
X135466777Y-99133845D01*
X135460667Y-99178667D01*
X133758297Y-99178667D01*
X133578909Y-99105278D01*
X133523316Y-99080972D01*
X133201468Y-98928852D01*
X133004818Y-98804565D01*
X132898288Y-98681302D01*
X132855755Y-98570813D01*
X132706765Y-98322882D01*
X132435535Y-98114662D01*
X132078317Y-97901643D01*
X131212531Y-98730655D01*
X130846889Y-99081079D01*
X130475862Y-99437199D01*
X130140783Y-99759313D01*
X129882981Y-100007718D01*
X129864742Y-100025334D01*
X129382739Y-100491000D01*
X129327377Y-101591667D01*
X129293438Y-102123520D01*
X129244734Y-102705243D01*
X129188409Y-103257974D01*
X129143859Y-103617672D01*
X129015703Y-104543010D01*
X129523957Y-105051263D01*
X130032210Y-105559517D01*
X130206438Y-105353592D01*
X130380667Y-105147667D01*
X130550000Y-105347547D01*
X130673706Y-105558078D01*
X130719334Y-105749713D01*
X130761536Y-105907912D01*
X130836686Y-105952000D01*
X130942537Y-106022370D01*
X131064328Y-106198177D01*
X131100158Y-106269500D01*
X131218912Y-106462868D01*
X131413546Y-106714001D01*
X131654163Y-106991293D01*
X131910868Y-107263136D01*
X132153765Y-107497923D01*
X132352960Y-107664046D01*
X132478556Y-107729899D01*
X132481559Y-107730000D01*
X132607368Y-107674739D01*
X132817701Y-107527568D01*
X133081330Y-107316402D01*
X133367030Y-107069157D01*
X133643574Y-106813751D01*
X133879735Y-106578098D01*
X134044285Y-106390116D01*
X134106000Y-106277774D01*
X134173077Y-106205551D01*
X134348189Y-106078325D01*
X134571667Y-105936966D01*
X134812700Y-105776908D01*
X134980962Y-105634817D01*
X135037334Y-105549124D01*
X135111117Y-105425243D01*
X135292984Y-105343676D01*
X135523712Y-105320622D01*
X135721223Y-105362049D01*
X135982402Y-105414052D01*
X136309950Y-105403027D01*
X136332294Y-105399847D01*
X136687519Y-105376136D01*
X136938463Y-105420958D01*
X137061106Y-105528577D01*
X137069334Y-105575842D01*
X137042146Y-105645112D01*
X136953656Y-105762332D01*
X136793471Y-105937917D01*
X136551197Y-106182277D01*
X136216443Y-106505826D01*
X135778815Y-106918977D01*
X135227920Y-107432141D01*
X135076792Y-107572177D01*
X134711434Y-107910747D01*
X134325899Y-108268517D01*
X133972975Y-108596476D01*
X133764459Y-108790585D01*
X133217000Y-109300836D01*
X133259334Y-109933585D01*
X133301667Y-110566334D01*
X133880675Y-110591540D01*
X134193987Y-110612774D01*
X134364893Y-110647000D01*
X134420219Y-110701387D01*
X134414598Y-110734236D01*
X134429169Y-110858557D01*
X134470590Y-110888947D01*
X134522153Y-110950703D01*
X134455250Y-111042584D01*
X134352222Y-111112768D01*
X134300028Y-111053167D01*
X134195993Y-110949064D01*
X134040986Y-110955827D01*
X133886342Y-111049385D01*
X133783395Y-111205669D01*
X133767334Y-111302934D01*
X133814871Y-111433509D01*
X133930045Y-111433726D01*
X134068577Y-111307300D01*
X134178670Y-111203285D01*
X134233844Y-111236860D01*
X134220071Y-111381293D01*
X134173833Y-111507892D01*
X134061117Y-111700780D01*
X133898774Y-111912868D01*
X133728175Y-112096879D01*
X133590690Y-112205538D01*
X133553001Y-112217334D01*
X133527550Y-112147652D01*
X133548101Y-112005667D01*
X133601226Y-111794000D01*
X132943447Y-111799951D01*
X132570635Y-111812280D01*
X132295264Y-111837786D01*
X132130271Y-111870571D01*
X132088593Y-111904735D01*
X132183165Y-111934380D01*
X132426926Y-111953608D01*
X132598170Y-111957383D01*
X132914085Y-111969662D01*
X133159474Y-111996766D01*
X133289352Y-112033307D01*
X133297409Y-112041111D01*
X133269942Y-112114863D01*
X133109197Y-112167974D01*
X132850498Y-112195525D01*
X132529170Y-112192600D01*
X132332243Y-112175493D01*
X131837934Y-112118122D01*
X130707134Y-113030831D01*
X129865006Y-113712915D01*
X129088744Y-114346396D01*
X128389021Y-114922376D01*
X127776510Y-115431960D01*
X127261883Y-115866253D01*
X126855814Y-116216358D01*
X126568975Y-116473380D01*
X126507540Y-116531225D01*
X126454489Y-116608133D01*
X126422601Y-116735365D01*
X126410169Y-116942278D01*
X126415489Y-117258225D01*
X126436853Y-117712559D01*
X126437830Y-117730598D01*
X126496348Y-118807080D01*
X126258341Y-119067611D01*
X126071623Y-119234423D01*
X125854283Y-119329015D01*
X125547519Y-119381080D01*
X125271311Y-119405015D01*
X125104310Y-119387867D01*
X124988286Y-119313847D01*
X124893577Y-119203754D01*
X124752167Y-118954469D01*
X124749332Y-118945603D01*
X125074394Y-118945603D01*
X125168406Y-119065769D01*
X125308929Y-119149336D01*
X125372182Y-119160000D01*
X125444380Y-119138018D01*
X125396737Y-119053007D01*
X125321834Y-118974204D01*
X125177127Y-118861369D01*
X125081669Y-118843063D01*
X125079287Y-118845158D01*
X125074394Y-118945603D01*
X124749332Y-118945603D01*
X124661738Y-118671724D01*
X124660499Y-118664578D01*
X124612416Y-118408657D01*
X124565174Y-118200751D01*
X124561625Y-118187724D01*
X124521652Y-118075167D01*
X124482217Y-118112742D01*
X124444746Y-118208891D01*
X124358321Y-118355331D01*
X124287395Y-118398000D01*
X124205083Y-118343310D01*
X124236770Y-118196751D01*
X124375143Y-117984593D01*
X124416316Y-117935041D01*
X124568484Y-117693921D01*
X124589468Y-117511708D01*
X124579136Y-117315335D01*
X124610233Y-117060176D01*
X124617776Y-117024666D01*
X124649164Y-116781036D01*
X124598898Y-116638842D01*
X124571520Y-116612132D01*
X124471317Y-116485899D01*
X124491498Y-116350462D01*
X124643341Y-116180730D01*
X124834067Y-116028033D01*
X125053930Y-115844039D01*
X125212511Y-115675729D01*
X125261056Y-115595422D01*
X125355319Y-115449942D01*
X125530130Y-115274769D01*
X125579489Y-115234180D01*
X125872437Y-115001867D01*
X126271244Y-114682626D01*
X126752282Y-114295623D01*
X127291921Y-113860027D01*
X127866535Y-113395004D01*
X128452493Y-112919721D01*
X129026168Y-112453344D01*
X129563931Y-112015042D01*
X130042154Y-111623981D01*
X130437208Y-111299329D01*
X130725464Y-111060251D01*
X130740500Y-111047661D01*
X131481334Y-110426843D01*
X131478982Y-109903922D01*
X131468651Y-109600308D01*
X131426898Y-109403153D01*
X131332483Y-109249889D01*
X131215257Y-109127000D01*
X130985710Y-108886073D01*
X130766630Y-108629433D01*
X130741893Y-108597834D01*
X130580258Y-108423897D01*
X130438100Y-108328743D01*
X130407954Y-108322667D01*
X130324916Y-108283805D01*
X130331966Y-108248304D01*
X130298435Y-108157498D01*
X130166182Y-107991575D01*
X129968330Y-107790813D01*
X129686505Y-107511763D01*
X129398507Y-107202681D01*
X129239836Y-107018510D01*
X128985282Y-106754114D01*
X128777255Y-106635257D01*
X128729835Y-106629334D01*
X128530246Y-106576053D01*
X128433334Y-106502334D01*
X128255602Y-106410991D01*
X127924071Y-106375727D01*
X127875612Y-106375334D01*
X127616424Y-106362880D01*
X127438154Y-106308709D01*
X127328668Y-106187611D01*
X127312248Y-106121334D01*
X127586667Y-106121334D01*
X127617645Y-106191024D01*
X127643111Y-106177778D01*
X127653244Y-106077298D01*
X127643111Y-106064889D01*
X127592777Y-106076511D01*
X127586667Y-106121334D01*
X127312248Y-106121334D01*
X127275836Y-105974372D01*
X127273146Y-105867334D01*
X127417334Y-105867334D01*
X127448312Y-105937024D01*
X127473778Y-105923778D01*
X127483911Y-105823298D01*
X127473778Y-105810889D01*
X127423444Y-105822511D01*
X127417334Y-105867334D01*
X127273146Y-105867334D01*
X127267527Y-105643779D01*
X127271230Y-105571000D01*
X127502000Y-105571000D01*
X127544334Y-105613334D01*
X127586667Y-105571000D01*
X127544334Y-105528667D01*
X127502000Y-105571000D01*
X127271230Y-105571000D01*
X127279849Y-105401667D01*
X127417334Y-105401667D01*
X127459667Y-105444000D01*
X127502000Y-105401667D01*
X127459667Y-105359334D01*
X127417334Y-105401667D01*
X127279849Y-105401667D01*
X127291609Y-105170622D01*
X127292129Y-105162702D01*
X127320571Y-104793175D01*
X127351931Y-104485904D01*
X127381693Y-104280891D01*
X127398506Y-104220634D01*
X127427564Y-104161465D01*
X127452827Y-104069536D01*
X127478522Y-103916109D01*
X127508876Y-103672449D01*
X127548116Y-103309819D01*
X127584558Y-102955859D01*
X127628105Y-102590047D01*
X127676051Y-102284658D01*
X127721274Y-102081129D01*
X127744614Y-102024526D01*
X127800531Y-101889036D01*
X127856406Y-101654065D01*
X127877602Y-101527537D01*
X127902926Y-101270824D01*
X127878193Y-101133531D01*
X127803616Y-101073978D01*
X127688147Y-100983389D01*
X127671334Y-100933108D01*
X127619799Y-100806785D01*
X127523167Y-100675797D01*
X127432728Y-100540338D01*
X127475212Y-100473650D01*
X127480834Y-100471575D01*
X127572134Y-100366497D01*
X127586667Y-100287037D01*
X127645083Y-100132556D01*
X127787606Y-99952334D01*
X127806378Y-99934259D01*
X127998782Y-99718775D01*
X128147219Y-99496167D01*
X128260667Y-99332325D01*
X128364474Y-99263340D01*
X128365229Y-99263334D01*
X128466158Y-99208382D01*
X128654747Y-99061288D01*
X128897969Y-98848688D01*
X129021284Y-98734167D01*
X129364655Y-98415046D01*
X129750192Y-98065553D01*
X130100378Y-97755869D01*
X130134084Y-97726668D01*
X130463170Y-97410490D01*
X130740372Y-97084808D01*
X130901703Y-96837668D01*
X131054160Y-96583002D01*
X131184474Y-96463066D01*
X131290199Y-96445695D01*
X131478801Y-96408682D01*
X131562642Y-96346379D01*
X131624053Y-96311506D01*
X131733239Y-96321219D01*
X131733239Y-96321219D01*
G37*
X131733239Y-96321219D02*
X131912812Y-96384142D01*
X132185382Y-96508899D01*
X132573559Y-96704111D01*
X132777458Y-96809680D01*
X133299429Y-97090986D01*
X133708679Y-97337460D01*
X134049049Y-97578787D01*
X134364378Y-97844650D01*
X134518463Y-97988496D01*
X134791497Y-98239485D01*
X135028697Y-98438532D01*
X135198632Y-98560287D01*
X135259296Y-98586000D01*
X135364932Y-98650527D01*
X135376000Y-98697993D01*
X135445821Y-98797530D01*
X135623845Y-98926895D01*
X135753820Y-98998677D01*
X136004824Y-99110118D01*
X136193757Y-99142350D01*
X136402327Y-99105617D01*
X136464177Y-99087739D01*
X136738870Y-99042639D01*
X137030235Y-99050689D01*
X137283590Y-99103886D01*
X137444257Y-99194226D01*
X137469046Y-99234803D01*
X137408079Y-99291971D01*
X137203964Y-99345182D01*
X136882884Y-99391015D01*
X136471022Y-99426051D01*
X135994564Y-99446870D01*
X135820500Y-99450126D01*
X135510828Y-99466701D01*
X135331816Y-99503355D01*
X135295492Y-99554193D01*
X135413885Y-99613318D01*
X135460667Y-99626532D01*
X135598160Y-99705268D01*
X135630000Y-99773145D01*
X135580926Y-99818064D01*
X135426415Y-99742068D01*
X135421312Y-99738738D01*
X135212580Y-99637281D01*
X135049990Y-99602000D01*
X134859909Y-99563597D01*
X134644845Y-99475522D01*
X134431575Y-99385481D01*
X134265105Y-99348522D01*
X134125159Y-99315475D01*
X133880237Y-99228554D01*
X133758297Y-99178667D01*
X135460667Y-99178667D01*
X135491645Y-99248357D01*
X135517111Y-99235111D01*
X135527244Y-99134632D01*
X135517111Y-99122222D01*
X135466777Y-99133845D01*
X135460667Y-99178667D01*
X133758297Y-99178667D01*
X133578909Y-99105278D01*
X133523316Y-99080972D01*
X133201468Y-98928852D01*
X133004818Y-98804565D01*
X132898288Y-98681302D01*
X132855755Y-98570813D01*
X132706765Y-98322882D01*
X132435535Y-98114662D01*
X132078317Y-97901643D01*
X131212531Y-98730655D01*
X130846889Y-99081079D01*
X130475862Y-99437199D01*
X130140783Y-99759313D01*
X129882981Y-100007718D01*
X129864742Y-100025334D01*
X129382739Y-100491000D01*
X129327377Y-101591667D01*
X129293438Y-102123520D01*
X129244734Y-102705243D01*
X129188409Y-103257974D01*
X129143859Y-103617672D01*
X129015703Y-104543010D01*
X129523957Y-105051263D01*
X130032210Y-105559517D01*
X130206438Y-105353592D01*
X130380667Y-105147667D01*
X130550000Y-105347547D01*
X130673706Y-105558078D01*
X130719334Y-105749713D01*
X130761536Y-105907912D01*
X130836686Y-105952000D01*
X130942537Y-106022370D01*
X131064328Y-106198177D01*
X131100158Y-106269500D01*
X131218912Y-106462868D01*
X131413546Y-106714001D01*
X131654163Y-106991293D01*
X131910868Y-107263136D01*
X132153765Y-107497923D01*
X132352960Y-107664046D01*
X132478556Y-107729899D01*
X132481559Y-107730000D01*
X132607368Y-107674739D01*
X132817701Y-107527568D01*
X133081330Y-107316402D01*
X133367030Y-107069157D01*
X133643574Y-106813751D01*
X133879735Y-106578098D01*
X134044285Y-106390116D01*
X134106000Y-106277774D01*
X134173077Y-106205551D01*
X134348189Y-106078325D01*
X134571667Y-105936966D01*
X134812700Y-105776908D01*
X134980962Y-105634817D01*
X135037334Y-105549124D01*
X135111117Y-105425243D01*
X135292984Y-105343676D01*
X135523712Y-105320622D01*
X135721223Y-105362049D01*
X135982402Y-105414052D01*
X136309950Y-105403027D01*
X136332294Y-105399847D01*
X136687519Y-105376136D01*
X136938463Y-105420958D01*
X137061106Y-105528577D01*
X137069334Y-105575842D01*
X137042146Y-105645112D01*
X136953656Y-105762332D01*
X136793471Y-105937917D01*
X136551197Y-106182277D01*
X136216443Y-106505826D01*
X135778815Y-106918977D01*
X135227920Y-107432141D01*
X135076792Y-107572177D01*
X134711434Y-107910747D01*
X134325899Y-108268517D01*
X133972975Y-108596476D01*
X133764459Y-108790585D01*
X133217000Y-109300836D01*
X133259334Y-109933585D01*
X133301667Y-110566334D01*
X133880675Y-110591540D01*
X134193987Y-110612774D01*
X134364893Y-110647000D01*
X134420219Y-110701387D01*
X134414598Y-110734236D01*
X134429169Y-110858557D01*
X134470590Y-110888947D01*
X134522153Y-110950703D01*
X134455250Y-111042584D01*
X134352222Y-111112768D01*
X134300028Y-111053167D01*
X134195993Y-110949064D01*
X134040986Y-110955827D01*
X133886342Y-111049385D01*
X133783395Y-111205669D01*
X133767334Y-111302934D01*
X133814871Y-111433509D01*
X133930045Y-111433726D01*
X134068577Y-111307300D01*
X134178670Y-111203285D01*
X134233844Y-111236860D01*
X134220071Y-111381293D01*
X134173833Y-111507892D01*
X134061117Y-111700780D01*
X133898774Y-111912868D01*
X133728175Y-112096879D01*
X133590690Y-112205538D01*
X133553001Y-112217334D01*
X133527550Y-112147652D01*
X133548101Y-112005667D01*
X133601226Y-111794000D01*
X132943447Y-111799951D01*
X132570635Y-111812280D01*
X132295264Y-111837786D01*
X132130271Y-111870571D01*
X132088593Y-111904735D01*
X132183165Y-111934380D01*
X132426926Y-111953608D01*
X132598170Y-111957383D01*
X132914085Y-111969662D01*
X133159474Y-111996766D01*
X133289352Y-112033307D01*
X133297409Y-112041111D01*
X133269942Y-112114863D01*
X133109197Y-112167974D01*
X132850498Y-112195525D01*
X132529170Y-112192600D01*
X132332243Y-112175493D01*
X131837934Y-112118122D01*
X130707134Y-113030831D01*
X129865006Y-113712915D01*
X129088744Y-114346396D01*
X128389021Y-114922376D01*
X127776510Y-115431960D01*
X127261883Y-115866253D01*
X126855814Y-116216358D01*
X126568975Y-116473380D01*
X126507540Y-116531225D01*
X126454489Y-116608133D01*
X126422601Y-116735365D01*
X126410169Y-116942278D01*
X126415489Y-117258225D01*
X126436853Y-117712559D01*
X126437830Y-117730598D01*
X126496348Y-118807080D01*
X126258341Y-119067611D01*
X126071623Y-119234423D01*
X125854283Y-119329015D01*
X125547519Y-119381080D01*
X125271311Y-119405015D01*
X125104310Y-119387867D01*
X124988286Y-119313847D01*
X124893577Y-119203754D01*
X124752167Y-118954469D01*
X124749332Y-118945603D01*
X125074394Y-118945603D01*
X125168406Y-119065769D01*
X125308929Y-119149336D01*
X125372182Y-119160000D01*
X125444380Y-119138018D01*
X125396737Y-119053007D01*
X125321834Y-118974204D01*
X125177127Y-118861369D01*
X125081669Y-118843063D01*
X125079287Y-118845158D01*
X125074394Y-118945603D01*
X124749332Y-118945603D01*
X124661738Y-118671724D01*
X124660499Y-118664578D01*
X124612416Y-118408657D01*
X124565174Y-118200751D01*
X124561625Y-118187724D01*
X124521652Y-118075167D01*
X124482217Y-118112742D01*
X124444746Y-118208891D01*
X124358321Y-118355331D01*
X124287395Y-118398000D01*
X124205083Y-118343310D01*
X124236770Y-118196751D01*
X124375143Y-117984593D01*
X124416316Y-117935041D01*
X124568484Y-117693921D01*
X124589468Y-117511708D01*
X124579136Y-117315335D01*
X124610233Y-117060176D01*
X124617776Y-117024666D01*
X124649164Y-116781036D01*
X124598898Y-116638842D01*
X124571520Y-116612132D01*
X124471317Y-116485899D01*
X124491498Y-116350462D01*
X124643341Y-116180730D01*
X124834067Y-116028033D01*
X125053930Y-115844039D01*
X125212511Y-115675729D01*
X125261056Y-115595422D01*
X125355319Y-115449942D01*
X125530130Y-115274769D01*
X125579489Y-115234180D01*
X125872437Y-115001867D01*
X126271244Y-114682626D01*
X126752282Y-114295623D01*
X127291921Y-113860027D01*
X127866535Y-113395004D01*
X128452493Y-112919721D01*
X129026168Y-112453344D01*
X129563931Y-112015042D01*
X130042154Y-111623981D01*
X130437208Y-111299329D01*
X130725464Y-111060251D01*
X130740500Y-111047661D01*
X131481334Y-110426843D01*
X131478982Y-109903922D01*
X131468651Y-109600308D01*
X131426898Y-109403153D01*
X131332483Y-109249889D01*
X131215257Y-109127000D01*
X130985710Y-108886073D01*
X130766630Y-108629433D01*
X130741893Y-108597834D01*
X130580258Y-108423897D01*
X130438100Y-108328743D01*
X130407954Y-108322667D01*
X130324916Y-108283805D01*
X130331966Y-108248304D01*
X130298435Y-108157498D01*
X130166182Y-107991575D01*
X129968330Y-107790813D01*
X129686505Y-107511763D01*
X129398507Y-107202681D01*
X129239836Y-107018510D01*
X128985282Y-106754114D01*
X128777255Y-106635257D01*
X128729835Y-106629334D01*
X128530246Y-106576053D01*
X128433334Y-106502334D01*
X128255602Y-106410991D01*
X127924071Y-106375727D01*
X127875612Y-106375334D01*
X127616424Y-106362880D01*
X127438154Y-106308709D01*
X127328668Y-106187611D01*
X127312248Y-106121334D01*
X127586667Y-106121334D01*
X127617645Y-106191024D01*
X127643111Y-106177778D01*
X127653244Y-106077298D01*
X127643111Y-106064889D01*
X127592777Y-106076511D01*
X127586667Y-106121334D01*
X127312248Y-106121334D01*
X127275836Y-105974372D01*
X127273146Y-105867334D01*
X127417334Y-105867334D01*
X127448312Y-105937024D01*
X127473778Y-105923778D01*
X127483911Y-105823298D01*
X127473778Y-105810889D01*
X127423444Y-105822511D01*
X127417334Y-105867334D01*
X127273146Y-105867334D01*
X127267527Y-105643779D01*
X127271230Y-105571000D01*
X127502000Y-105571000D01*
X127544334Y-105613334D01*
X127586667Y-105571000D01*
X127544334Y-105528667D01*
X127502000Y-105571000D01*
X127271230Y-105571000D01*
X127279849Y-105401667D01*
X127417334Y-105401667D01*
X127459667Y-105444000D01*
X127502000Y-105401667D01*
X127459667Y-105359334D01*
X127417334Y-105401667D01*
X127279849Y-105401667D01*
X127291609Y-105170622D01*
X127292129Y-105162702D01*
X127320571Y-104793175D01*
X127351931Y-104485904D01*
X127381693Y-104280891D01*
X127398506Y-104220634D01*
X127427564Y-104161465D01*
X127452827Y-104069536D01*
X127478522Y-103916109D01*
X127508876Y-103672449D01*
X127548116Y-103309819D01*
X127584558Y-102955859D01*
X127628105Y-102590047D01*
X127676051Y-102284658D01*
X127721274Y-102081129D01*
X127744614Y-102024526D01*
X127800531Y-101889036D01*
X127856406Y-101654065D01*
X127877602Y-101527537D01*
X127902926Y-101270824D01*
X127878193Y-101133531D01*
X127803616Y-101073978D01*
X127688147Y-100983389D01*
X127671334Y-100933108D01*
X127619799Y-100806785D01*
X127523167Y-100675797D01*
X127432728Y-100540338D01*
X127475212Y-100473650D01*
X127480834Y-100471575D01*
X127572134Y-100366497D01*
X127586667Y-100287037D01*
X127645083Y-100132556D01*
X127787606Y-99952334D01*
X127806378Y-99934259D01*
X127998782Y-99718775D01*
X128147219Y-99496167D01*
X128260667Y-99332325D01*
X128364474Y-99263340D01*
X128365229Y-99263334D01*
X128466158Y-99208382D01*
X128654747Y-99061288D01*
X128897969Y-98848688D01*
X129021284Y-98734167D01*
X129364655Y-98415046D01*
X129750192Y-98065553D01*
X130100378Y-97755869D01*
X130134084Y-97726668D01*
X130463170Y-97410490D01*
X130740372Y-97084808D01*
X130901703Y-96837668D01*
X131054160Y-96583002D01*
X131184474Y-96463066D01*
X131290199Y-96445695D01*
X131478801Y-96408682D01*
X131562642Y-96346379D01*
X131624053Y-96311506D01*
X131733239Y-96321219D01*
G36*
X139347557Y-101294615D02*
X139380782Y-101316500D01*
X139421239Y-101363032D01*
X139455167Y-101448584D01*
X139484026Y-101590603D01*
X139509276Y-101806538D01*
X139532378Y-102113837D01*
X139554791Y-102529947D01*
X139577977Y-103072316D01*
X139603396Y-103758392D01*
X139616399Y-104131667D01*
X139641669Y-104799364D01*
X139669507Y-105418127D01*
X139698590Y-105966184D01*
X139727595Y-106421763D01*
X139755197Y-106763093D01*
X139780074Y-106968403D01*
X139791640Y-107014493D01*
X139849350Y-107151111D01*
X139941607Y-107392075D01*
X140073275Y-107750668D01*
X140249217Y-108240177D01*
X140474299Y-108873885D01*
X140525970Y-109020034D01*
X140632742Y-109257878D01*
X140742203Y-109400591D01*
X140790433Y-109422201D01*
X140864966Y-109451082D01*
X140820028Y-109516505D01*
X140789032Y-109622691D01*
X140836629Y-109821645D01*
X140964941Y-110130339D01*
X141073255Y-110374540D01*
X141231172Y-110740276D01*
X141423776Y-111192522D01*
X141636150Y-111696252D01*
X141853377Y-112216441D01*
X141853748Y-112217334D01*
X142136806Y-112898555D01*
X142362754Y-113439397D01*
X142539841Y-113855691D01*
X142676315Y-114163270D01*
X142780426Y-114377965D01*
X142860422Y-114515610D01*
X142924551Y-114592034D01*
X142981062Y-114623072D01*
X143038203Y-114624555D01*
X143101782Y-114612778D01*
X143234535Y-114606449D01*
X143329614Y-114666133D01*
X143402827Y-114819882D01*
X143469980Y-115095747D01*
X143517194Y-115350000D01*
X143617335Y-116058985D01*
X143654335Y-116675395D01*
X143627870Y-117177144D01*
X143548913Y-117514029D01*
X143422438Y-117760217D01*
X143252432Y-117988469D01*
X143077034Y-118155983D01*
X142934382Y-118219959D01*
X142921082Y-118218609D01*
X142815123Y-118194801D01*
X142601411Y-118144979D01*
X142446028Y-118108307D01*
X142053362Y-117945258D01*
X141790503Y-117673564D01*
X141658243Y-117294255D01*
X141641334Y-117061253D01*
X141600729Y-116732243D01*
X141500218Y-116397792D01*
X141471234Y-116332940D01*
X141388964Y-116151735D01*
X141255334Y-115842268D01*
X141082454Y-115433264D01*
X140882434Y-114953451D01*
X140667382Y-114431554D01*
X140592873Y-114249334D01*
X140352037Y-113660198D01*
X140100775Y-113047398D01*
X139857234Y-112455065D01*
X139639560Y-111927329D01*
X139465902Y-111508324D01*
X139452988Y-111477303D01*
X139295787Y-111083673D01*
X139171221Y-110740310D01*
X139090307Y-110480064D01*
X139064061Y-110335787D01*
X139066219Y-110324053D01*
X139046529Y-110181563D01*
X138958036Y-110054232D01*
X138815274Y-109891656D01*
X138642275Y-109667858D01*
X138470776Y-109427778D01*
X138332517Y-109216352D01*
X138259236Y-109078520D01*
X138254667Y-109058346D01*
X138220988Y-108950594D01*
X138133305Y-108739238D01*
X138028106Y-108507742D01*
X137847071Y-107964983D01*
X137751831Y-107305219D01*
X137744768Y-106558806D01*
X137817697Y-105825000D01*
X137878913Y-105214056D01*
X137897454Y-104479229D01*
X137882271Y-103793000D01*
X137862460Y-103304027D01*
X137843110Y-102955355D01*
X137818789Y-102718056D01*
X137784068Y-102563199D01*
X137733516Y-102461855D01*
X137661701Y-102385096D01*
X137609863Y-102341813D01*
X137425281Y-102223333D01*
X137192550Y-102141332D01*
X136880094Y-102090228D01*
X136456335Y-102064437D01*
X136006016Y-102058265D01*
X135570326Y-102046705D01*
X135276681Y-102010897D01*
X135099057Y-101947273D01*
X135074682Y-101930524D01*
X134975189Y-101840669D01*
X134977638Y-101761811D01*
X135093558Y-101640615D01*
X135147888Y-101591858D01*
X135270140Y-101497082D01*
X135410336Y-101427538D01*
X135591810Y-101381510D01*
X135837895Y-101357284D01*
X136171925Y-101353145D01*
X136617235Y-101367379D01*
X137197158Y-101398269D01*
X137517441Y-101417718D01*
X137928397Y-101437497D01*
X138208020Y-101434223D01*
X138393096Y-101405072D01*
X138520413Y-101347223D01*
X138531114Y-101339941D01*
X138790672Y-101235414D01*
X139090718Y-101219535D01*
X139347557Y-101294615D01*
X139347557Y-101294615D01*
G37*
X139347557Y-101294615D02*
X139380782Y-101316500D01*
X139421239Y-101363032D01*
X139455167Y-101448584D01*
X139484026Y-101590603D01*
X139509276Y-101806538D01*
X139532378Y-102113837D01*
X139554791Y-102529947D01*
X139577977Y-103072316D01*
X139603396Y-103758392D01*
X139616399Y-104131667D01*
X139641669Y-104799364D01*
X139669507Y-105418127D01*
X139698590Y-105966184D01*
X139727595Y-106421763D01*
X139755197Y-106763093D01*
X139780074Y-106968403D01*
X139791640Y-107014493D01*
X139849350Y-107151111D01*
X139941607Y-107392075D01*
X140073275Y-107750668D01*
X140249217Y-108240177D01*
X140474299Y-108873885D01*
X140525970Y-109020034D01*
X140632742Y-109257878D01*
X140742203Y-109400591D01*
X140790433Y-109422201D01*
X140864966Y-109451082D01*
X140820028Y-109516505D01*
X140789032Y-109622691D01*
X140836629Y-109821645D01*
X140964941Y-110130339D01*
X141073255Y-110374540D01*
X141231172Y-110740276D01*
X141423776Y-111192522D01*
X141636150Y-111696252D01*
X141853377Y-112216441D01*
X141853748Y-112217334D01*
X142136806Y-112898555D01*
X142362754Y-113439397D01*
X142539841Y-113855691D01*
X142676315Y-114163270D01*
X142780426Y-114377965D01*
X142860422Y-114515610D01*
X142924551Y-114592034D01*
X142981062Y-114623072D01*
X143038203Y-114624555D01*
X143101782Y-114612778D01*
X143234535Y-114606449D01*
X143329614Y-114666133D01*
X143402827Y-114819882D01*
X143469980Y-115095747D01*
X143517194Y-115350000D01*
X143617335Y-116058985D01*
X143654335Y-116675395D01*
X143627870Y-117177144D01*
X143548913Y-117514029D01*
X143422438Y-117760217D01*
X143252432Y-117988469D01*
X143077034Y-118155983D01*
X142934382Y-118219959D01*
X142921082Y-118218609D01*
X142815123Y-118194801D01*
X142601411Y-118144979D01*
X142446028Y-118108307D01*
X142053362Y-117945258D01*
X141790503Y-117673564D01*
X141658243Y-117294255D01*
X141641334Y-117061253D01*
X141600729Y-116732243D01*
X141500218Y-116397792D01*
X141471234Y-116332940D01*
X141388964Y-116151735D01*
X141255334Y-115842268D01*
X141082454Y-115433264D01*
X140882434Y-114953451D01*
X140667382Y-114431554D01*
X140592873Y-114249334D01*
X140352037Y-113660198D01*
X140100775Y-113047398D01*
X139857234Y-112455065D01*
X139639560Y-111927329D01*
X139465902Y-111508324D01*
X139452988Y-111477303D01*
X139295787Y-111083673D01*
X139171221Y-110740310D01*
X139090307Y-110480064D01*
X139064061Y-110335787D01*
X139066219Y-110324053D01*
X139046529Y-110181563D01*
X138958036Y-110054232D01*
X138815274Y-109891656D01*
X138642275Y-109667858D01*
X138470776Y-109427778D01*
X138332517Y-109216352D01*
X138259236Y-109078520D01*
X138254667Y-109058346D01*
X138220988Y-108950594D01*
X138133305Y-108739238D01*
X138028106Y-108507742D01*
X137847071Y-107964983D01*
X137751831Y-107305219D01*
X137744768Y-106558806D01*
X137817697Y-105825000D01*
X137878913Y-105214056D01*
X137897454Y-104479229D01*
X137882271Y-103793000D01*
X137862460Y-103304027D01*
X137843110Y-102955355D01*
X137818789Y-102718056D01*
X137784068Y-102563199D01*
X137733516Y-102461855D01*
X137661701Y-102385096D01*
X137609863Y-102341813D01*
X137425281Y-102223333D01*
X137192550Y-102141332D01*
X136880094Y-102090228D01*
X136456335Y-102064437D01*
X136006016Y-102058265D01*
X135570326Y-102046705D01*
X135276681Y-102010897D01*
X135099057Y-101947273D01*
X135074682Y-101930524D01*
X134975189Y-101840669D01*
X134977638Y-101761811D01*
X135093558Y-101640615D01*
X135147888Y-101591858D01*
X135270140Y-101497082D01*
X135410336Y-101427538D01*
X135591810Y-101381510D01*
X135837895Y-101357284D01*
X136171925Y-101353145D01*
X136617235Y-101367379D01*
X137197158Y-101398269D01*
X137517441Y-101417718D01*
X137928397Y-101437497D01*
X138208020Y-101434223D01*
X138393096Y-101405072D01*
X138520413Y-101347223D01*
X138531114Y-101339941D01*
X138790672Y-101235414D01*
X139090718Y-101219535D01*
X139347557Y-101294615D01*
G36*
X140343111Y-115970889D02*
X140353244Y-116071369D01*
X140343111Y-116083778D01*
X140292777Y-116072156D01*
X140286667Y-116027334D01*
X140317645Y-115957643D01*
X140343111Y-115970889D01*
X140343111Y-115970889D01*
G37*
X140343111Y-115970889D02*
X140353244Y-116071369D01*
X140343111Y-116083778D01*
X140292777Y-116072156D01*
X140286667Y-116027334D01*
X140317645Y-115957643D01*
X140343111Y-115970889D01*
G36*
X144298014Y-102362116D02*
X144528924Y-102544490D01*
X144533479Y-102549293D01*
X144765873Y-102749249D01*
X145101891Y-102961025D01*
X145556192Y-103191998D01*
X146143436Y-103449543D01*
X146878284Y-103741039D01*
X146975334Y-103777987D01*
X147440158Y-103956033D01*
X147885144Y-104129611D01*
X148269396Y-104282553D01*
X148552016Y-104398688D01*
X148626334Y-104430723D01*
X148951110Y-104543813D01*
X149289739Y-104616315D01*
X149425785Y-104628748D01*
X149639689Y-104646165D01*
X149796095Y-104704795D01*
X149946604Y-104836843D01*
X150142818Y-105074509D01*
X150145452Y-105077868D01*
X150343812Y-105304580D01*
X150523532Y-105465155D01*
X150637167Y-105522368D01*
X150763126Y-105542301D01*
X150785334Y-105559355D01*
X150755353Y-105646480D01*
X150675827Y-105850114D01*
X150562381Y-106130479D01*
X150531334Y-106206000D01*
X150410921Y-106509343D01*
X150321388Y-106756504D01*
X150278829Y-106902472D01*
X150277366Y-106916145D01*
X150242182Y-107035942D01*
X150150140Y-107257395D01*
X150028006Y-107518334D01*
X149924486Y-107740621D01*
X149768537Y-108090347D01*
X149572731Y-108538591D01*
X149349641Y-109056431D01*
X149111842Y-109614946D01*
X148960559Y-109973667D01*
X148732233Y-110513622D01*
X148522007Y-111004039D01*
X148339719Y-111422503D01*
X148195207Y-111746599D01*
X148098312Y-111953913D01*
X148062433Y-112019748D01*
X148065374Y-112134778D01*
X148182722Y-112353425D01*
X148418108Y-112682307D01*
X148444882Y-112717120D01*
X148684037Y-113043347D01*
X148819849Y-113275006D01*
X148866630Y-113439314D01*
X148860473Y-113507373D01*
X148749099Y-113772989D01*
X148569529Y-113896194D01*
X148447660Y-113910667D01*
X148249419Y-113980279D01*
X148003989Y-114173213D01*
X147928860Y-114249194D01*
X147735084Y-114437406D01*
X147576473Y-114560379D01*
X147512001Y-114587861D01*
X147413986Y-114529090D01*
X147236097Y-114371965D01*
X147010078Y-114145469D01*
X146909388Y-114037667D01*
X146673008Y-113790881D01*
X146471962Y-113601350D01*
X146337846Y-113498042D01*
X146309220Y-113487334D01*
X146228356Y-113417464D01*
X146213334Y-113336839D01*
X146166199Y-113150399D01*
X146092747Y-113014183D01*
X146041782Y-112917406D01*
X146040571Y-112808245D01*
X146100730Y-112650201D01*
X146233874Y-112406774D01*
X146346747Y-112216039D01*
X146516425Y-111924745D01*
X146646027Y-111687519D01*
X146715159Y-111542297D01*
X146721334Y-111519164D01*
X146754948Y-111412133D01*
X146843323Y-111197749D01*
X146967760Y-110921230D01*
X146975334Y-110905000D01*
X147101588Y-110622962D01*
X147192525Y-110396939D01*
X147229258Y-110274022D01*
X147229334Y-110271651D01*
X147265235Y-110159179D01*
X147360987Y-109936982D01*
X147498661Y-109645749D01*
X147557315Y-109527287D01*
X147766680Y-109084288D01*
X147961382Y-108626308D01*
X148127750Y-108190294D01*
X148252114Y-107813192D01*
X148320805Y-107531950D01*
X148330000Y-107438988D01*
X148377821Y-107241733D01*
X148447891Y-107144893D01*
X148565828Y-106996914D01*
X148664415Y-106808932D01*
X148715513Y-106625468D01*
X148682036Y-106453927D01*
X148585597Y-106270053D01*
X148515430Y-106172390D01*
X148413515Y-106075730D01*
X148265031Y-105973394D01*
X148055158Y-105858702D01*
X147769075Y-105724976D01*
X147391962Y-105565536D01*
X146908998Y-105373703D01*
X146305363Y-105142797D01*
X145566237Y-104866139D01*
X145028000Y-104666696D01*
X144607587Y-104506571D01*
X144237204Y-104356657D01*
X143949636Y-104230879D01*
X143777669Y-104143161D01*
X143751333Y-104124458D01*
X143578514Y-104024698D01*
X143480411Y-104004667D01*
X143336626Y-103959516D01*
X143115072Y-103843606D01*
X142955951Y-103743345D01*
X142725189Y-103595372D01*
X142559388Y-103530632D01*
X142384842Y-103535169D01*
X142146849Y-103590152D01*
X141886572Y-103648360D01*
X141720167Y-103649416D01*
X141579842Y-103586551D01*
X141492643Y-103524837D01*
X141333225Y-103361875D01*
X141260743Y-103201035D01*
X141260334Y-103191196D01*
X141283072Y-103106055D01*
X141373739Y-103048092D01*
X141566012Y-103005346D01*
X141893568Y-102965857D01*
X141895334Y-102965675D01*
X142231857Y-102921241D01*
X142522092Y-102865548D01*
X142707145Y-102810063D01*
X142715769Y-102805912D01*
X142932621Y-102753974D01*
X143165026Y-102764239D01*
X143461744Y-102748746D01*
X143754161Y-102616685D01*
X143952707Y-102419199D01*
X144097864Y-102318543D01*
X144298014Y-102362116D01*
X144298014Y-102362116D01*
G37*
X144298014Y-102362116D02*
X144528924Y-102544490D01*
X144533479Y-102549293D01*
X144765873Y-102749249D01*
X145101891Y-102961025D01*
X145556192Y-103191998D01*
X146143436Y-103449543D01*
X146878284Y-103741039D01*
X146975334Y-103777987D01*
X147440158Y-103956033D01*
X147885144Y-104129611D01*
X148269396Y-104282553D01*
X148552016Y-104398688D01*
X148626334Y-104430723D01*
X148951110Y-104543813D01*
X149289739Y-104616315D01*
X149425785Y-104628748D01*
X149639689Y-104646165D01*
X149796095Y-104704795D01*
X149946604Y-104836843D01*
X150142818Y-105074509D01*
X150145452Y-105077868D01*
X150343812Y-105304580D01*
X150523532Y-105465155D01*
X150637167Y-105522368D01*
X150763126Y-105542301D01*
X150785334Y-105559355D01*
X150755353Y-105646480D01*
X150675827Y-105850114D01*
X150562381Y-106130479D01*
X150531334Y-106206000D01*
X150410921Y-106509343D01*
X150321388Y-106756504D01*
X150278829Y-106902472D01*
X150277366Y-106916145D01*
X150242182Y-107035942D01*
X150150140Y-107257395D01*
X150028006Y-107518334D01*
X149924486Y-107740621D01*
X149768537Y-108090347D01*
X149572731Y-108538591D01*
X149349641Y-109056431D01*
X149111842Y-109614946D01*
X148960559Y-109973667D01*
X148732233Y-110513622D01*
X148522007Y-111004039D01*
X148339719Y-111422503D01*
X148195207Y-111746599D01*
X148098312Y-111953913D01*
X148062433Y-112019748D01*
X148065374Y-112134778D01*
X148182722Y-112353425D01*
X148418108Y-112682307D01*
X148444882Y-112717120D01*
X148684037Y-113043347D01*
X148819849Y-113275006D01*
X148866630Y-113439314D01*
X148860473Y-113507373D01*
X148749099Y-113772989D01*
X148569529Y-113896194D01*
X148447660Y-113910667D01*
X148249419Y-113980279D01*
X148003989Y-114173213D01*
X147928860Y-114249194D01*
X147735084Y-114437406D01*
X147576473Y-114560379D01*
X147512001Y-114587861D01*
X147413986Y-114529090D01*
X147236097Y-114371965D01*
X147010078Y-114145469D01*
X146909388Y-114037667D01*
X146673008Y-113790881D01*
X146471962Y-113601350D01*
X146337846Y-113498042D01*
X146309220Y-113487334D01*
X146228356Y-113417464D01*
X146213334Y-113336839D01*
X146166199Y-113150399D01*
X146092747Y-113014183D01*
X146041782Y-112917406D01*
X146040571Y-112808245D01*
X146100730Y-112650201D01*
X146233874Y-112406774D01*
X146346747Y-112216039D01*
X146516425Y-111924745D01*
X146646027Y-111687519D01*
X146715159Y-111542297D01*
X146721334Y-111519164D01*
X146754948Y-111412133D01*
X146843323Y-111197749D01*
X146967760Y-110921230D01*
X146975334Y-110905000D01*
X147101588Y-110622962D01*
X147192525Y-110396939D01*
X147229258Y-110274022D01*
X147229334Y-110271651D01*
X147265235Y-110159179D01*
X147360987Y-109936982D01*
X147498661Y-109645749D01*
X147557315Y-109527287D01*
X147766680Y-109084288D01*
X147961382Y-108626308D01*
X148127750Y-108190294D01*
X148252114Y-107813192D01*
X148320805Y-107531950D01*
X148330000Y-107438988D01*
X148377821Y-107241733D01*
X148447891Y-107144893D01*
X148565828Y-106996914D01*
X148664415Y-106808932D01*
X148715513Y-106625468D01*
X148682036Y-106453927D01*
X148585597Y-106270053D01*
X148515430Y-106172390D01*
X148413515Y-106075730D01*
X148265031Y-105973394D01*
X148055158Y-105858702D01*
X147769075Y-105724976D01*
X147391962Y-105565536D01*
X146908998Y-105373703D01*
X146305363Y-105142797D01*
X145566237Y-104866139D01*
X145028000Y-104666696D01*
X144607587Y-104506571D01*
X144237204Y-104356657D01*
X143949636Y-104230879D01*
X143777669Y-104143161D01*
X143751333Y-104124458D01*
X143578514Y-104024698D01*
X143480411Y-104004667D01*
X143336626Y-103959516D01*
X143115072Y-103843606D01*
X142955951Y-103743345D01*
X142725189Y-103595372D01*
X142559388Y-103530632D01*
X142384842Y-103535169D01*
X142146849Y-103590152D01*
X141886572Y-103648360D01*
X141720167Y-103649416D01*
X141579842Y-103586551D01*
X141492643Y-103524837D01*
X141333225Y-103361875D01*
X141260743Y-103201035D01*
X141260334Y-103191196D01*
X141283072Y-103106055D01*
X141373739Y-103048092D01*
X141566012Y-103005346D01*
X141893568Y-102965857D01*
X141895334Y-102965675D01*
X142231857Y-102921241D01*
X142522092Y-102865548D01*
X142707145Y-102810063D01*
X142715769Y-102805912D01*
X142932621Y-102753974D01*
X143165026Y-102764239D01*
X143461744Y-102748746D01*
X143754161Y-102616685D01*
X143952707Y-102419199D01*
X144097864Y-102318543D01*
X144298014Y-102362116D01*
G36*
X133484230Y-112438537D02*
X133471000Y-112471334D01*
X133394918Y-112552104D01*
X133381337Y-112556000D01*
X133344971Y-112490494D01*
X133344000Y-112471334D01*
X133409088Y-112389920D01*
X133433664Y-112386667D01*
X133484230Y-112438537D01*
X133484230Y-112438537D01*
G37*
X133484230Y-112438537D02*
X133471000Y-112471334D01*
X133394918Y-112552104D01*
X133381337Y-112556000D01*
X133344971Y-112490494D01*
X133344000Y-112471334D01*
X133409088Y-112389920D01*
X133433664Y-112386667D01*
X133484230Y-112438537D01*
G36*
X135122000Y-111921000D02*
X135079667Y-111963334D01*
X135037334Y-111921000D01*
X135079667Y-111878667D01*
X135122000Y-111921000D01*
X135122000Y-111921000D01*
G37*
X135122000Y-111921000D02*
X135079667Y-111963334D01*
X135037334Y-111921000D01*
X135079667Y-111878667D01*
X135122000Y-111921000D01*
G36*
X133993111Y-111060222D02*
X134003244Y-111160702D01*
X133993111Y-111173111D01*
X133942777Y-111161489D01*
X133936667Y-111116667D01*
X133967645Y-111046977D01*
X133993111Y-111060222D01*
X133993111Y-111060222D01*
G37*
X133993111Y-111060222D02*
X134003244Y-111160702D01*
X133993111Y-111173111D01*
X133942777Y-111161489D01*
X133936667Y-111116667D01*
X133967645Y-111046977D01*
X133993111Y-111060222D01*
G36*
X135600896Y-110999203D02*
X135587667Y-111032000D01*
X135511585Y-111112771D01*
X135498003Y-111116667D01*
X135461638Y-111051161D01*
X135460667Y-111032000D01*
X135525755Y-110950587D01*
X135550330Y-110947334D01*
X135600896Y-110999203D01*
X135600896Y-110999203D01*
G37*
X135600896Y-110999203D02*
X135587667Y-111032000D01*
X135511585Y-111112771D01*
X135498003Y-111116667D01*
X135461638Y-111051161D01*
X135460667Y-111032000D01*
X135525755Y-110950587D01*
X135550330Y-110947334D01*
X135600896Y-110999203D01*
G36*
X127136504Y-109068792D02*
X127146597Y-109201116D01*
X127129820Y-109231070D01*
X127091338Y-109205819D01*
X127085351Y-109119945D01*
X127106028Y-109029602D01*
X127136504Y-109068792D01*
X127136504Y-109068792D01*
G37*
X127136504Y-109068792D02*
X127146597Y-109201116D01*
X127129820Y-109231070D01*
X127091338Y-109205819D01*
X127085351Y-109119945D01*
X127106028Y-109029602D01*
X127136504Y-109068792D01*
G36*
X124933778Y-108858889D02*
X124943911Y-108959369D01*
X124933778Y-108971778D01*
X124883444Y-108960156D01*
X124877334Y-108915334D01*
X124908312Y-108845643D01*
X124933778Y-108858889D01*
X124933778Y-108858889D01*
G37*
X124933778Y-108858889D02*
X124943911Y-108959369D01*
X124933778Y-108971778D01*
X124883444Y-108960156D01*
X124877334Y-108915334D01*
X124908312Y-108845643D01*
X124933778Y-108858889D01*
G36*
X132272140Y-98867590D02*
X132392649Y-98916415D01*
X132564898Y-98988047D01*
X132815200Y-99073485D01*
X132896562Y-99098330D01*
X133168730Y-99212344D01*
X133399145Y-99363767D01*
X133440487Y-99402915D01*
X133632783Y-99544739D01*
X133824425Y-99602000D01*
X133981781Y-99647448D01*
X134021334Y-99725020D01*
X134095059Y-99815749D01*
X134277529Y-99911808D01*
X134510686Y-99989365D01*
X134736471Y-100024589D01*
X134751800Y-100024861D01*
X134880779Y-100084142D01*
X134954025Y-100153970D01*
X135127768Y-100244385D01*
X135324226Y-100234369D01*
X135585614Y-100221090D01*
X135883642Y-100251399D01*
X135926334Y-100259935D01*
X136204771Y-100291240D01*
X136452276Y-100231628D01*
X136589186Y-100167503D01*
X136779469Y-100083931D01*
X136972071Y-100041924D01*
X137221053Y-100035890D01*
X137580476Y-100060237D01*
X137605186Y-100062405D01*
X137966795Y-100090970D01*
X138436153Y-100123220D01*
X138951849Y-100155149D01*
X139440000Y-100182112D01*
X139870407Y-100208942D01*
X140244821Y-100241202D01*
X140528101Y-100275218D01*
X140685111Y-100307316D01*
X140699311Y-100313813D01*
X140738427Y-100367741D01*
X140766601Y-100486226D01*
X140784712Y-100688973D01*
X140793641Y-100995687D01*
X140794267Y-101426076D01*
X140787469Y-101999844D01*
X140783978Y-102210723D01*
X140752334Y-104034502D01*
X141006334Y-104107829D01*
X141195489Y-104138664D01*
X141506011Y-104164105D01*
X141889946Y-104180975D01*
X142187257Y-104186044D01*
X142755889Y-104201719D01*
X143160631Y-104241738D01*
X143400349Y-104305886D01*
X143473909Y-104393946D01*
X143460911Y-104429223D01*
X143355025Y-104473426D01*
X143314428Y-104457825D01*
X143256087Y-104460306D01*
X143271941Y-104532389D01*
X143258676Y-104643943D01*
X143097621Y-104708744D01*
X143095829Y-104709098D01*
X142902898Y-104718655D01*
X142795963Y-104682883D01*
X142679752Y-104665175D01*
X142461199Y-104696559D01*
X142297017Y-104738606D01*
X142023481Y-104809146D01*
X141825137Y-104818976D01*
X141618802Y-104767304D01*
X141520557Y-104731210D01*
X141243896Y-104646116D01*
X140989273Y-104600032D01*
X140935364Y-104597334D01*
X140794671Y-104607655D01*
X140729668Y-104668315D01*
X140717224Y-104823857D01*
X140726528Y-104999500D01*
X140752334Y-105401667D01*
X141711625Y-105444000D01*
X142107278Y-105455056D01*
X142447223Y-105452691D01*
X142691816Y-105437923D01*
X142795558Y-105416146D01*
X142959624Y-105402352D01*
X143097836Y-105515868D01*
X143164345Y-105715854D01*
X143165334Y-105745513D01*
X143141098Y-105871037D01*
X143039595Y-105944278D01*
X142817634Y-105993618D01*
X142778604Y-105999618D01*
X142512219Y-106019623D01*
X142144805Y-106021699D01*
X141743704Y-106005951D01*
X141627261Y-105997797D01*
X141259611Y-105972254D01*
X141020527Y-105968623D01*
X140870089Y-105991913D01*
X140768375Y-106047132D01*
X140698358Y-106114325D01*
X140484636Y-106262258D01*
X140271161Y-106276824D01*
X140152662Y-106207462D01*
X140125294Y-106095732D01*
X140106418Y-105841954D01*
X140095823Y-105473189D01*
X140093296Y-105016499D01*
X140098625Y-104498945D01*
X140111597Y-103947588D01*
X140132001Y-103389489D01*
X140159624Y-102851711D01*
X140181563Y-102523000D01*
X140201686Y-102014981D01*
X140186096Y-101565476D01*
X140137971Y-101206634D01*
X140060487Y-100970599D01*
X140023016Y-100918793D01*
X139936253Y-100896948D01*
X139711352Y-100870176D01*
X139342845Y-100838066D01*
X138825261Y-100800210D01*
X138153130Y-100756199D01*
X137320983Y-100705623D01*
X136666223Y-100667576D01*
X136383008Y-100662833D01*
X136173392Y-100680720D01*
X136089726Y-100712279D01*
X135985230Y-100755132D01*
X135769014Y-100782303D01*
X135610503Y-100787334D01*
X135243029Y-100824182D01*
X135022490Y-100927767D01*
X134864149Y-101020498D01*
X134683407Y-100984200D01*
X134664511Y-100975798D01*
X134445229Y-100920294D01*
X134294791Y-100927046D01*
X134098386Y-100893514D01*
X133832783Y-100711383D01*
X133811732Y-100693123D01*
X133584402Y-100520311D01*
X133288441Y-100348187D01*
X132893251Y-100160949D01*
X132368236Y-99942795D01*
X132328000Y-99926817D01*
X132227564Y-99900335D01*
X132124479Y-99918083D01*
X131992311Y-99997583D01*
X131804628Y-100156354D01*
X131534999Y-100411916D01*
X131404987Y-100538608D01*
X130693641Y-101234261D01*
X130659597Y-102360046D01*
X130647260Y-102816929D01*
X130644929Y-103133671D01*
X130655939Y-103339333D01*
X130683622Y-103462975D01*
X130731315Y-103533659D01*
X130799443Y-103578895D01*
X130936227Y-103692990D01*
X130973334Y-103778351D01*
X131030032Y-103889766D01*
X131177579Y-104073093D01*
X131352840Y-104257201D01*
X131732346Y-104629658D01*
X131924340Y-104454233D01*
X132066629Y-104338886D01*
X132290027Y-104173218D01*
X132557023Y-103983189D01*
X132830106Y-103794762D01*
X133071768Y-103633897D01*
X133244499Y-103526556D01*
X133307854Y-103496667D01*
X133385683Y-103446827D01*
X133563560Y-103312986D01*
X133810715Y-103118659D01*
X133966790Y-102993091D01*
X134587908Y-102489515D01*
X135257121Y-102560180D01*
X135610819Y-102606206D01*
X135927490Y-102662556D01*
X136145557Y-102718040D01*
X136164679Y-102725089D01*
X136389506Y-102780024D01*
X136693943Y-102813991D01*
X136858182Y-102819334D01*
X137122239Y-102834561D01*
X137311593Y-102873665D01*
X137367959Y-102907709D01*
X137370920Y-103043158D01*
X137253928Y-103167449D01*
X137063460Y-103238209D01*
X137000563Y-103242667D01*
X136796803Y-103259760D01*
X136505148Y-103303700D01*
X136297578Y-103342969D01*
X136064551Y-103386131D01*
X135869271Y-103401751D01*
X135667432Y-103384274D01*
X135414726Y-103328142D01*
X135066844Y-103227798D01*
X134850323Y-103161458D01*
X134682922Y-103136723D01*
X134521306Y-103194149D01*
X134305787Y-103355092D01*
X134303306Y-103357172D01*
X133899629Y-103701570D01*
X133616653Y-103957678D01*
X133440195Y-104139578D01*
X133356072Y-104261354D01*
X133344000Y-104309716D01*
X133273315Y-104417157D01*
X133100033Y-104528584D01*
X133068834Y-104542580D01*
X132829941Y-104675599D01*
X132569226Y-104865127D01*
X132497334Y-104926763D01*
X132201000Y-105194095D01*
X132400069Y-105360724D01*
X132537287Y-105464649D01*
X132640680Y-105475625D01*
X132782472Y-105389952D01*
X132853116Y-105337510D01*
X133057596Y-105170288D01*
X133312447Y-104942824D01*
X133479145Y-104784997D01*
X133913994Y-104433609D01*
X134400643Y-104188520D01*
X134964280Y-104042881D01*
X135630095Y-103989843D01*
X136315018Y-104013917D01*
X136680599Y-104041538D01*
X136976410Y-104064426D01*
X137166332Y-104079755D01*
X137217500Y-104084575D01*
X137234900Y-104160028D01*
X137238667Y-104254830D01*
X137193966Y-104376621D01*
X137034644Y-104447885D01*
X136921167Y-104469409D01*
X136655097Y-104519235D01*
X136319544Y-104593370D01*
X136118112Y-104642579D01*
X135784840Y-104712870D01*
X135459755Y-104757845D01*
X135303817Y-104766667D01*
X135037504Y-104807187D01*
X134711512Y-104937756D01*
X134366503Y-105126500D01*
X134025602Y-105327871D01*
X133688992Y-105526389D01*
X133423098Y-105682882D01*
X133397354Y-105698000D01*
X133103257Y-105883525D01*
X132810795Y-106087343D01*
X132737899Y-106142500D01*
X132540627Y-106283692D01*
X132394623Y-106365980D01*
X132362342Y-106374651D01*
X132285538Y-106313958D01*
X132114659Y-106144748D01*
X131867422Y-105885689D01*
X131561547Y-105555449D01*
X131214751Y-105172695D01*
X131104495Y-105049425D01*
X130707660Y-104602504D01*
X130408758Y-104258403D01*
X130191906Y-103994563D01*
X130041221Y-103788426D01*
X129940821Y-103617431D01*
X129874824Y-103459022D01*
X129827345Y-103290638D01*
X129808459Y-103208607D01*
X129750106Y-102870222D01*
X129700269Y-102444863D01*
X129668267Y-102014884D01*
X129665043Y-101941349D01*
X129653682Y-101581064D01*
X129659808Y-101344966D01*
X129693853Y-101188057D01*
X129766250Y-101065337D01*
X129887431Y-100931806D01*
X129902747Y-100916010D01*
X130066379Y-100741580D01*
X130307318Y-100477524D01*
X130591332Y-100161624D01*
X130769200Y-99961401D01*
X131650667Y-99961401D01*
X131701650Y-99987207D01*
X131777667Y-99940667D01*
X131884390Y-99813181D01*
X131904667Y-99750600D01*
X131853684Y-99724793D01*
X131777667Y-99771334D01*
X131670944Y-99898819D01*
X131650667Y-99961401D01*
X130769200Y-99961401D01*
X130846334Y-99874574D01*
X131116247Y-99576858D01*
X131351738Y-99331847D01*
X131527632Y-99164751D01*
X131618752Y-99100778D01*
X131619133Y-99100746D01*
X131748978Y-99035778D01*
X131820000Y-98967000D01*
X132015056Y-98853464D01*
X132272140Y-98867590D01*
X132272140Y-98867590D01*
G37*
X132272140Y-98867590D02*
X132392649Y-98916415D01*
X132564898Y-98988047D01*
X132815200Y-99073485D01*
X132896562Y-99098330D01*
X133168730Y-99212344D01*
X133399145Y-99363767D01*
X133440487Y-99402915D01*
X133632783Y-99544739D01*
X133824425Y-99602000D01*
X133981781Y-99647448D01*
X134021334Y-99725020D01*
X134095059Y-99815749D01*
X134277529Y-99911808D01*
X134510686Y-99989365D01*
X134736471Y-100024589D01*
X134751800Y-100024861D01*
X134880779Y-100084142D01*
X134954025Y-100153970D01*
X135127768Y-100244385D01*
X135324226Y-100234369D01*
X135585614Y-100221090D01*
X135883642Y-100251399D01*
X135926334Y-100259935D01*
X136204771Y-100291240D01*
X136452276Y-100231628D01*
X136589186Y-100167503D01*
X136779469Y-100083931D01*
X136972071Y-100041924D01*
X137221053Y-100035890D01*
X137580476Y-100060237D01*
X137605186Y-100062405D01*
X137966795Y-100090970D01*
X138436153Y-100123220D01*
X138951849Y-100155149D01*
X139440000Y-100182112D01*
X139870407Y-100208942D01*
X140244821Y-100241202D01*
X140528101Y-100275218D01*
X140685111Y-100307316D01*
X140699311Y-100313813D01*
X140738427Y-100367741D01*
X140766601Y-100486226D01*
X140784712Y-100688973D01*
X140793641Y-100995687D01*
X140794267Y-101426076D01*
X140787469Y-101999844D01*
X140783978Y-102210723D01*
X140752334Y-104034502D01*
X141006334Y-104107829D01*
X141195489Y-104138664D01*
X141506011Y-104164105D01*
X141889946Y-104180975D01*
X142187257Y-104186044D01*
X142755889Y-104201719D01*
X143160631Y-104241738D01*
X143400349Y-104305886D01*
X143473909Y-104393946D01*
X143460911Y-104429223D01*
X143355025Y-104473426D01*
X143314428Y-104457825D01*
X143256087Y-104460306D01*
X143271941Y-104532389D01*
X143258676Y-104643943D01*
X143097621Y-104708744D01*
X143095829Y-104709098D01*
X142902898Y-104718655D01*
X142795963Y-104682883D01*
X142679752Y-104665175D01*
X142461199Y-104696559D01*
X142297017Y-104738606D01*
X142023481Y-104809146D01*
X141825137Y-104818976D01*
X141618802Y-104767304D01*
X141520557Y-104731210D01*
X141243896Y-104646116D01*
X140989273Y-104600032D01*
X140935364Y-104597334D01*
X140794671Y-104607655D01*
X140729668Y-104668315D01*
X140717224Y-104823857D01*
X140726528Y-104999500D01*
X140752334Y-105401667D01*
X141711625Y-105444000D01*
X142107278Y-105455056D01*
X142447223Y-105452691D01*
X142691816Y-105437923D01*
X142795558Y-105416146D01*
X142959624Y-105402352D01*
X143097836Y-105515868D01*
X143164345Y-105715854D01*
X143165334Y-105745513D01*
X143141098Y-105871037D01*
X143039595Y-105944278D01*
X142817634Y-105993618D01*
X142778604Y-105999618D01*
X142512219Y-106019623D01*
X142144805Y-106021699D01*
X141743704Y-106005951D01*
X141627261Y-105997797D01*
X141259611Y-105972254D01*
X141020527Y-105968623D01*
X140870089Y-105991913D01*
X140768375Y-106047132D01*
X140698358Y-106114325D01*
X140484636Y-106262258D01*
X140271161Y-106276824D01*
X140152662Y-106207462D01*
X140125294Y-106095732D01*
X140106418Y-105841954D01*
X140095823Y-105473189D01*
X140093296Y-105016499D01*
X140098625Y-104498945D01*
X140111597Y-103947588D01*
X140132001Y-103389489D01*
X140159624Y-102851711D01*
X140181563Y-102523000D01*
X140201686Y-102014981D01*
X140186096Y-101565476D01*
X140137971Y-101206634D01*
X140060487Y-100970599D01*
X140023016Y-100918793D01*
X139936253Y-100896948D01*
X139711352Y-100870176D01*
X139342845Y-100838066D01*
X138825261Y-100800210D01*
X138153130Y-100756199D01*
X137320983Y-100705623D01*
X136666223Y-100667576D01*
X136383008Y-100662833D01*
X136173392Y-100680720D01*
X136089726Y-100712279D01*
X135985230Y-100755132D01*
X135769014Y-100782303D01*
X135610503Y-100787334D01*
X135243029Y-100824182D01*
X135022490Y-100927767D01*
X134864149Y-101020498D01*
X134683407Y-100984200D01*
X134664511Y-100975798D01*
X134445229Y-100920294D01*
X134294791Y-100927046D01*
X134098386Y-100893514D01*
X133832783Y-100711383D01*
X133811732Y-100693123D01*
X133584402Y-100520311D01*
X133288441Y-100348187D01*
X132893251Y-100160949D01*
X132368236Y-99942795D01*
X132328000Y-99926817D01*
X132227564Y-99900335D01*
X132124479Y-99918083D01*
X131992311Y-99997583D01*
X131804628Y-100156354D01*
X131534999Y-100411916D01*
X131404987Y-100538608D01*
X130693641Y-101234261D01*
X130659597Y-102360046D01*
X130647260Y-102816929D01*
X130644929Y-103133671D01*
X130655939Y-103339333D01*
X130683622Y-103462975D01*
X130731315Y-103533659D01*
X130799443Y-103578895D01*
X130936227Y-103692990D01*
X130973334Y-103778351D01*
X131030032Y-103889766D01*
X131177579Y-104073093D01*
X131352840Y-104257201D01*
X131732346Y-104629658D01*
X131924340Y-104454233D01*
X132066629Y-104338886D01*
X132290027Y-104173218D01*
X132557023Y-103983189D01*
X132830106Y-103794762D01*
X133071768Y-103633897D01*
X133244499Y-103526556D01*
X133307854Y-103496667D01*
X133385683Y-103446827D01*
X133563560Y-103312986D01*
X133810715Y-103118659D01*
X133966790Y-102993091D01*
X134587908Y-102489515D01*
X135257121Y-102560180D01*
X135610819Y-102606206D01*
X135927490Y-102662556D01*
X136145557Y-102718040D01*
X136164679Y-102725089D01*
X136389506Y-102780024D01*
X136693943Y-102813991D01*
X136858182Y-102819334D01*
X137122239Y-102834561D01*
X137311593Y-102873665D01*
X137367959Y-102907709D01*
X137370920Y-103043158D01*
X137253928Y-103167449D01*
X137063460Y-103238209D01*
X137000563Y-103242667D01*
X136796803Y-103259760D01*
X136505148Y-103303700D01*
X136297578Y-103342969D01*
X136064551Y-103386131D01*
X135869271Y-103401751D01*
X135667432Y-103384274D01*
X135414726Y-103328142D01*
X135066844Y-103227798D01*
X134850323Y-103161458D01*
X134682922Y-103136723D01*
X134521306Y-103194149D01*
X134305787Y-103355092D01*
X134303306Y-103357172D01*
X133899629Y-103701570D01*
X133616653Y-103957678D01*
X133440195Y-104139578D01*
X133356072Y-104261354D01*
X133344000Y-104309716D01*
X133273315Y-104417157D01*
X133100033Y-104528584D01*
X133068834Y-104542580D01*
X132829941Y-104675599D01*
X132569226Y-104865127D01*
X132497334Y-104926763D01*
X132201000Y-105194095D01*
X132400069Y-105360724D01*
X132537287Y-105464649D01*
X132640680Y-105475625D01*
X132782472Y-105389952D01*
X132853116Y-105337510D01*
X133057596Y-105170288D01*
X133312447Y-104942824D01*
X133479145Y-104784997D01*
X133913994Y-104433609D01*
X134400643Y-104188520D01*
X134964280Y-104042881D01*
X135630095Y-103989843D01*
X136315018Y-104013917D01*
X136680599Y-104041538D01*
X136976410Y-104064426D01*
X137166332Y-104079755D01*
X137217500Y-104084575D01*
X137234900Y-104160028D01*
X137238667Y-104254830D01*
X137193966Y-104376621D01*
X137034644Y-104447885D01*
X136921167Y-104469409D01*
X136655097Y-104519235D01*
X136319544Y-104593370D01*
X136118112Y-104642579D01*
X135784840Y-104712870D01*
X135459755Y-104757845D01*
X135303817Y-104766667D01*
X135037504Y-104807187D01*
X134711512Y-104937756D01*
X134366503Y-105126500D01*
X134025602Y-105327871D01*
X133688992Y-105526389D01*
X133423098Y-105682882D01*
X133397354Y-105698000D01*
X133103257Y-105883525D01*
X132810795Y-106087343D01*
X132737899Y-106142500D01*
X132540627Y-106283692D01*
X132394623Y-106365980D01*
X132362342Y-106374651D01*
X132285538Y-106313958D01*
X132114659Y-106144748D01*
X131867422Y-105885689D01*
X131561547Y-105555449D01*
X131214751Y-105172695D01*
X131104495Y-105049425D01*
X130707660Y-104602504D01*
X130408758Y-104258403D01*
X130191906Y-103994563D01*
X130041221Y-103788426D01*
X129940821Y-103617431D01*
X129874824Y-103459022D01*
X129827345Y-103290638D01*
X129808459Y-103208607D01*
X129750106Y-102870222D01*
X129700269Y-102444863D01*
X129668267Y-102014884D01*
X129665043Y-101941349D01*
X129653682Y-101581064D01*
X129659808Y-101344966D01*
X129693853Y-101188057D01*
X129766250Y-101065337D01*
X129887431Y-100931806D01*
X129902747Y-100916010D01*
X130066379Y-100741580D01*
X130307318Y-100477524D01*
X130591332Y-100161624D01*
X130769200Y-99961401D01*
X131650667Y-99961401D01*
X131701650Y-99987207D01*
X131777667Y-99940667D01*
X131884390Y-99813181D01*
X131904667Y-99750600D01*
X131853684Y-99724793D01*
X131777667Y-99771334D01*
X131670944Y-99898819D01*
X131650667Y-99961401D01*
X130769200Y-99961401D01*
X130846334Y-99874574D01*
X131116247Y-99576858D01*
X131351738Y-99331847D01*
X131527632Y-99164751D01*
X131618752Y-99100778D01*
X131619133Y-99100746D01*
X131748978Y-99035778D01*
X131820000Y-98967000D01*
X132015056Y-98853464D01*
X132272140Y-98867590D01*
G36*
X151265111Y-104456222D02*
X151253489Y-104506557D01*
X151208667Y-104512667D01*
X151138977Y-104481689D01*
X151152222Y-104456222D01*
X151252702Y-104446089D01*
X151265111Y-104456222D01*
X151265111Y-104456222D01*
G37*
X151265111Y-104456222D02*
X151253489Y-104506557D01*
X151208667Y-104512667D01*
X151138977Y-104481689D01*
X151152222Y-104456222D01*
X151252702Y-104446089D01*
X151265111Y-104456222D01*
G36*
X142750352Y-101722126D02*
X142980992Y-101734559D01*
X143105840Y-101763952D01*
X143156647Y-101816998D01*
X143165334Y-101885021D01*
X143097023Y-102054153D01*
X142993576Y-102143297D01*
X142733107Y-102226647D01*
X142384038Y-102269607D01*
X142023308Y-102267441D01*
X141743185Y-102220285D01*
X141519462Y-102111728D01*
X141407690Y-101974649D01*
X141428314Y-101842106D01*
X141480829Y-101796085D01*
X141614077Y-101762900D01*
X141871492Y-101736956D01*
X142207942Y-101722063D01*
X142382167Y-101719963D01*
X142750352Y-101722126D01*
X142750352Y-101722126D01*
G37*
X142750352Y-101722126D02*
X142980992Y-101734559D01*
X143105840Y-101763952D01*
X143156647Y-101816998D01*
X143165334Y-101885021D01*
X143097023Y-102054153D01*
X142993576Y-102143297D01*
X142733107Y-102226647D01*
X142384038Y-102269607D01*
X142023308Y-102267441D01*
X141743185Y-102220285D01*
X141519462Y-102111728D01*
X141407690Y-101974649D01*
X141428314Y-101842106D01*
X141480829Y-101796085D01*
X141614077Y-101762900D01*
X141871492Y-101736956D01*
X142207942Y-101722063D01*
X142382167Y-101719963D01*
X142750352Y-101722126D01*
G36*
X141871137Y-100401506D02*
X142208634Y-100416529D01*
X142445667Y-100431513D01*
X142832457Y-100461713D01*
X143080301Y-100492126D01*
X143219409Y-100530763D01*
X143279987Y-100585638D01*
X143292334Y-100656092D01*
X143271074Y-100740213D01*
X143186193Y-100802373D01*
X143006039Y-100854519D01*
X142698960Y-100908593D01*
X142572667Y-100927671D01*
X142121202Y-100991247D01*
X141808882Y-101025999D01*
X141608238Y-101033320D01*
X141491800Y-101014602D01*
X141443778Y-100984889D01*
X141393227Y-100850168D01*
X141391964Y-100654824D01*
X141433080Y-100479597D01*
X141493167Y-100407690D01*
X141618696Y-100398210D01*
X141871137Y-100401506D01*
X141871137Y-100401506D01*
G37*
X141871137Y-100401506D02*
X142208634Y-100416529D01*
X142445667Y-100431513D01*
X142832457Y-100461713D01*
X143080301Y-100492126D01*
X143219409Y-100530763D01*
X143279987Y-100585638D01*
X143292334Y-100656092D01*
X143271074Y-100740213D01*
X143186193Y-100802373D01*
X143006039Y-100854519D01*
X142698960Y-100908593D01*
X142572667Y-100927671D01*
X142121202Y-100991247D01*
X141808882Y-101025999D01*
X141608238Y-101033320D01*
X141491800Y-101014602D01*
X141443778Y-100984889D01*
X141393227Y-100850168D01*
X141391964Y-100654824D01*
X141433080Y-100479597D01*
X141493167Y-100407690D01*
X141618696Y-100398210D01*
X141871137Y-100401506D01*
G36*
X114420287Y-66118814D02*
X114505792Y-66282252D01*
X114511572Y-66306834D01*
X114654023Y-66908358D01*
X114799017Y-67413767D01*
X114969658Y-67895022D01*
X115189053Y-68424087D01*
X115197820Y-68444176D01*
X115400164Y-68920130D01*
X115618328Y-69454049D01*
X115818018Y-69961254D01*
X115900945Y-70180334D01*
X116086425Y-70655193D01*
X116307929Y-71186043D01*
X116526797Y-71681145D01*
X116596725Y-71831334D01*
X116778683Y-72234507D01*
X116949168Y-72646152D01*
X117082453Y-73002719D01*
X117128045Y-73143667D01*
X117234751Y-73461721D01*
X117386574Y-73860479D01*
X117555674Y-74267831D01*
X117606323Y-74382516D01*
X117749260Y-74710343D01*
X117860725Y-74984384D01*
X117925047Y-75165167D01*
X117934667Y-75209698D01*
X117964792Y-75333027D01*
X118043576Y-75561630D01*
X118148123Y-75831351D01*
X118264660Y-76134472D01*
X118355798Y-76401288D01*
X118397848Y-76556675D01*
X118469082Y-76768772D01*
X118535820Y-76879226D01*
X118592465Y-77010125D01*
X118539347Y-77183997D01*
X118519867Y-77221617D01*
X118440363Y-77449830D01*
X118427095Y-77631360D01*
X118381719Y-77855700D01*
X118222338Y-78031462D01*
X118018991Y-78096667D01*
X117864292Y-78167044D01*
X117812751Y-78249980D01*
X117709505Y-78376337D01*
X117507839Y-78511872D01*
X117416469Y-78556664D01*
X117068846Y-78710035D01*
X116866779Y-78474875D01*
X116726147Y-78325953D01*
X116631580Y-78294954D01*
X116524869Y-78366382D01*
X116509856Y-78379857D01*
X116352297Y-78488908D01*
X116255833Y-78520000D01*
X116188590Y-78598418D01*
X116145829Y-78811071D01*
X116131943Y-79124055D01*
X116142455Y-79394840D01*
X116180559Y-79546253D01*
X116276507Y-79823512D01*
X116419285Y-80197763D01*
X116597878Y-80640151D01*
X116801270Y-81121821D01*
X116804968Y-81130390D01*
X116999481Y-81598974D01*
X117233792Y-82192726D01*
X117494548Y-82876040D01*
X117768398Y-83613308D01*
X118041987Y-84368923D01*
X118301963Y-85107280D01*
X118366086Y-85293217D01*
X118755537Y-86427369D01*
X119135948Y-87534027D01*
X119503274Y-88601490D01*
X119853468Y-89618057D01*
X120182487Y-90572027D01*
X120486285Y-91451699D01*
X120760816Y-92245371D01*
X121002037Y-92941342D01*
X121205900Y-93527912D01*
X121368362Y-93993379D01*
X121485378Y-94326042D01*
X121552901Y-94514200D01*
X121563862Y-94543167D01*
X121613643Y-94715193D01*
X121573734Y-94774768D01*
X121557056Y-94776000D01*
X121528634Y-94815495D01*
X121591942Y-94881834D01*
X121685042Y-95013767D01*
X121799275Y-95252777D01*
X121912501Y-95542229D01*
X122002581Y-95825488D01*
X122047376Y-96045920D01*
X122047482Y-96047161D01*
X122091786Y-96209424D01*
X122183668Y-96423061D01*
X122186238Y-96428161D01*
X122267658Y-96616979D01*
X122382078Y-96918149D01*
X122511280Y-97282621D01*
X122586740Y-97506500D01*
X122706417Y-97849737D01*
X122813841Y-98123178D01*
X122894971Y-98292957D01*
X122929003Y-98332000D01*
X123024465Y-98401040D01*
X123159963Y-98575583D01*
X123305933Y-98806762D01*
X123432811Y-99045712D01*
X123511032Y-99243566D01*
X123522667Y-99313258D01*
X123509066Y-99539639D01*
X123449199Y-99678910D01*
X123314468Y-99742927D01*
X123076278Y-99743544D01*
X122706031Y-99692617D01*
X122635657Y-99680984D01*
X122324130Y-99600740D01*
X122118783Y-99459504D01*
X121976170Y-99216410D01*
X121897079Y-98986242D01*
X121822740Y-98780562D01*
X121736854Y-98701335D01*
X121591741Y-98709578D01*
X121565502Y-98715160D01*
X121410941Y-98729818D01*
X121301658Y-98665741D01*
X121189114Y-98488266D01*
X121154574Y-98421711D01*
X121035868Y-98164451D01*
X120893508Y-97820947D01*
X120758207Y-97465326D01*
X120757549Y-97463502D01*
X120626268Y-97118421D01*
X120491539Y-96794956D01*
X120381784Y-96561224D01*
X120378609Y-96555254D01*
X120276224Y-96335382D01*
X120222858Y-96164969D01*
X120220667Y-96141111D01*
X120185861Y-96016376D01*
X120092463Y-95780190D01*
X119957000Y-95472860D01*
X119872979Y-95293190D01*
X119688359Y-94893852D01*
X119504482Y-94475647D01*
X119353814Y-94112943D01*
X119320579Y-94027742D01*
X119185106Y-93689874D01*
X119043247Y-93362706D01*
X118948590Y-93163262D01*
X118856275Y-92939869D01*
X118743570Y-92604750D01*
X118627668Y-92211289D01*
X118562428Y-91964187D01*
X118358560Y-91290093D01*
X118079883Y-90621428D01*
X117848489Y-90161667D01*
X117627256Y-89727498D01*
X117411645Y-89273229D01*
X117229272Y-88858705D01*
X117125656Y-88595334D01*
X116992560Y-88241386D01*
X116855804Y-87905150D01*
X116743339Y-87655123D01*
X116736066Y-87640576D01*
X116645090Y-87429348D01*
X116590391Y-87283000D01*
X118612000Y-87283000D01*
X118654334Y-87325334D01*
X118696667Y-87283000D01*
X118654334Y-87240667D01*
X118612000Y-87283000D01*
X116590391Y-87283000D01*
X116523284Y-87103457D01*
X116387851Y-86710615D01*
X116278249Y-86370576D01*
X116146875Y-85961839D01*
X116018150Y-85583831D01*
X115908271Y-85282899D01*
X115842580Y-85124000D01*
X115735326Y-84793017D01*
X115718639Y-84481983D01*
X115791288Y-84240188D01*
X115866767Y-84156099D01*
X115984918Y-84007786D01*
X116094774Y-83773227D01*
X116119275Y-83698882D01*
X116175963Y-83475994D01*
X116169381Y-83362505D01*
X116095039Y-83309013D01*
X116083459Y-83304980D01*
X116014307Y-83260694D01*
X115934593Y-83161267D01*
X115836562Y-82990216D01*
X115712457Y-82731060D01*
X115554521Y-82367316D01*
X115354998Y-81882504D01*
X115106132Y-81260140D01*
X115026952Y-81060000D01*
X114508653Y-79747667D01*
X114530205Y-78435334D01*
X114531082Y-77852765D01*
X114517931Y-77208379D01*
X114493044Y-76576464D01*
X114458714Y-76031309D01*
X114454474Y-75980000D01*
X114419182Y-75549058D01*
X114390947Y-75172710D01*
X114372237Y-74886334D01*
X114365518Y-74725309D01*
X114365909Y-74710000D01*
X114378473Y-74379558D01*
X114382333Y-73908996D01*
X114378380Y-73327258D01*
X114367506Y-72663284D01*
X114350602Y-71946017D01*
X114328561Y-71204399D01*
X114302273Y-70467371D01*
X114272632Y-69763877D01*
X114240528Y-69122857D01*
X114206854Y-68573254D01*
X114172500Y-68144010D01*
X114159837Y-68021852D01*
X114112492Y-67567514D01*
X114073973Y-67128564D01*
X114048442Y-66757180D01*
X114040000Y-66519019D01*
X114046166Y-66259734D01*
X114077973Y-66127389D01*
X114155388Y-66079685D01*
X114250054Y-66074000D01*
X114420287Y-66118814D01*
X114420287Y-66118814D01*
G37*
X114420287Y-66118814D02*
X114505792Y-66282252D01*
X114511572Y-66306834D01*
X114654023Y-66908358D01*
X114799017Y-67413767D01*
X114969658Y-67895022D01*
X115189053Y-68424087D01*
X115197820Y-68444176D01*
X115400164Y-68920130D01*
X115618328Y-69454049D01*
X115818018Y-69961254D01*
X115900945Y-70180334D01*
X116086425Y-70655193D01*
X116307929Y-71186043D01*
X116526797Y-71681145D01*
X116596725Y-71831334D01*
X116778683Y-72234507D01*
X116949168Y-72646152D01*
X117082453Y-73002719D01*
X117128045Y-73143667D01*
X117234751Y-73461721D01*
X117386574Y-73860479D01*
X117555674Y-74267831D01*
X117606323Y-74382516D01*
X117749260Y-74710343D01*
X117860725Y-74984384D01*
X117925047Y-75165167D01*
X117934667Y-75209698D01*
X117964792Y-75333027D01*
X118043576Y-75561630D01*
X118148123Y-75831351D01*
X118264660Y-76134472D01*
X118355798Y-76401288D01*
X118397848Y-76556675D01*
X118469082Y-76768772D01*
X118535820Y-76879226D01*
X118592465Y-77010125D01*
X118539347Y-77183997D01*
X118519867Y-77221617D01*
X118440363Y-77449830D01*
X118427095Y-77631360D01*
X118381719Y-77855700D01*
X118222338Y-78031462D01*
X118018991Y-78096667D01*
X117864292Y-78167044D01*
X117812751Y-78249980D01*
X117709505Y-78376337D01*
X117507839Y-78511872D01*
X117416469Y-78556664D01*
X117068846Y-78710035D01*
X116866779Y-78474875D01*
X116726147Y-78325953D01*
X116631580Y-78294954D01*
X116524869Y-78366382D01*
X116509856Y-78379857D01*
X116352297Y-78488908D01*
X116255833Y-78520000D01*
X116188590Y-78598418D01*
X116145829Y-78811071D01*
X116131943Y-79124055D01*
X116142455Y-79394840D01*
X116180559Y-79546253D01*
X116276507Y-79823512D01*
X116419285Y-80197763D01*
X116597878Y-80640151D01*
X116801270Y-81121821D01*
X116804968Y-81130390D01*
X116999481Y-81598974D01*
X117233792Y-82192726D01*
X117494548Y-82876040D01*
X117768398Y-83613308D01*
X118041987Y-84368923D01*
X118301963Y-85107280D01*
X118366086Y-85293217D01*
X118755537Y-86427369D01*
X119135948Y-87534027D01*
X119503274Y-88601490D01*
X119853468Y-89618057D01*
X120182487Y-90572027D01*
X120486285Y-91451699D01*
X120760816Y-92245371D01*
X121002037Y-92941342D01*
X121205900Y-93527912D01*
X121368362Y-93993379D01*
X121485378Y-94326042D01*
X121552901Y-94514200D01*
X121563862Y-94543167D01*
X121613643Y-94715193D01*
X121573734Y-94774768D01*
X121557056Y-94776000D01*
X121528634Y-94815495D01*
X121591942Y-94881834D01*
X121685042Y-95013767D01*
X121799275Y-95252777D01*
X121912501Y-95542229D01*
X122002581Y-95825488D01*
X122047376Y-96045920D01*
X122047482Y-96047161D01*
X122091786Y-96209424D01*
X122183668Y-96423061D01*
X122186238Y-96428161D01*
X122267658Y-96616979D01*
X122382078Y-96918149D01*
X122511280Y-97282621D01*
X122586740Y-97506500D01*
X122706417Y-97849737D01*
X122813841Y-98123178D01*
X122894971Y-98292957D01*
X122929003Y-98332000D01*
X123024465Y-98401040D01*
X123159963Y-98575583D01*
X123305933Y-98806762D01*
X123432811Y-99045712D01*
X123511032Y-99243566D01*
X123522667Y-99313258D01*
X123509066Y-99539639D01*
X123449199Y-99678910D01*
X123314468Y-99742927D01*
X123076278Y-99743544D01*
X122706031Y-99692617D01*
X122635657Y-99680984D01*
X122324130Y-99600740D01*
X122118783Y-99459504D01*
X121976170Y-99216410D01*
X121897079Y-98986242D01*
X121822740Y-98780562D01*
X121736854Y-98701335D01*
X121591741Y-98709578D01*
X121565502Y-98715160D01*
X121410941Y-98729818D01*
X121301658Y-98665741D01*
X121189114Y-98488266D01*
X121154574Y-98421711D01*
X121035868Y-98164451D01*
X120893508Y-97820947D01*
X120758207Y-97465326D01*
X120757549Y-97463502D01*
X120626268Y-97118421D01*
X120491539Y-96794956D01*
X120381784Y-96561224D01*
X120378609Y-96555254D01*
X120276224Y-96335382D01*
X120222858Y-96164969D01*
X120220667Y-96141111D01*
X120185861Y-96016376D01*
X120092463Y-95780190D01*
X119957000Y-95472860D01*
X119872979Y-95293190D01*
X119688359Y-94893852D01*
X119504482Y-94475647D01*
X119353814Y-94112943D01*
X119320579Y-94027742D01*
X119185106Y-93689874D01*
X119043247Y-93362706D01*
X118948590Y-93163262D01*
X118856275Y-92939869D01*
X118743570Y-92604750D01*
X118627668Y-92211289D01*
X118562428Y-91964187D01*
X118358560Y-91290093D01*
X118079883Y-90621428D01*
X117848489Y-90161667D01*
X117627256Y-89727498D01*
X117411645Y-89273229D01*
X117229272Y-88858705D01*
X117125656Y-88595334D01*
X116992560Y-88241386D01*
X116855804Y-87905150D01*
X116743339Y-87655123D01*
X116736066Y-87640576D01*
X116645090Y-87429348D01*
X116590391Y-87283000D01*
X118612000Y-87283000D01*
X118654334Y-87325334D01*
X118696667Y-87283000D01*
X118654334Y-87240667D01*
X118612000Y-87283000D01*
X116590391Y-87283000D01*
X116523284Y-87103457D01*
X116387851Y-86710615D01*
X116278249Y-86370576D01*
X116146875Y-85961839D01*
X116018150Y-85583831D01*
X115908271Y-85282899D01*
X115842580Y-85124000D01*
X115735326Y-84793017D01*
X115718639Y-84481983D01*
X115791288Y-84240188D01*
X115866767Y-84156099D01*
X115984918Y-84007786D01*
X116094774Y-83773227D01*
X116119275Y-83698882D01*
X116175963Y-83475994D01*
X116169381Y-83362505D01*
X116095039Y-83309013D01*
X116083459Y-83304980D01*
X116014307Y-83260694D01*
X115934593Y-83161267D01*
X115836562Y-82990216D01*
X115712457Y-82731060D01*
X115554521Y-82367316D01*
X115354998Y-81882504D01*
X115106132Y-81260140D01*
X115026952Y-81060000D01*
X114508653Y-79747667D01*
X114530205Y-78435334D01*
X114531082Y-77852765D01*
X114517931Y-77208379D01*
X114493044Y-76576464D01*
X114458714Y-76031309D01*
X114454474Y-75980000D01*
X114419182Y-75549058D01*
X114390947Y-75172710D01*
X114372237Y-74886334D01*
X114365518Y-74725309D01*
X114365909Y-74710000D01*
X114378473Y-74379558D01*
X114382333Y-73908996D01*
X114378380Y-73327258D01*
X114367506Y-72663284D01*
X114350602Y-71946017D01*
X114328561Y-71204399D01*
X114302273Y-70467371D01*
X114272632Y-69763877D01*
X114240528Y-69122857D01*
X114206854Y-68573254D01*
X114172500Y-68144010D01*
X114159837Y-68021852D01*
X114112492Y-67567514D01*
X114073973Y-67128564D01*
X114048442Y-66757180D01*
X114040000Y-66519019D01*
X114046166Y-66259734D01*
X114077973Y-66127389D01*
X114155388Y-66079685D01*
X114250054Y-66074000D01*
X114420287Y-66118814D01*
G36*
X142541639Y-99038798D02*
X142914270Y-99161939D01*
X142946648Y-99175658D01*
X143212951Y-99310244D01*
X143320111Y-99424122D01*
X143274952Y-99530176D01*
X143170900Y-99599021D01*
X142985962Y-99646400D01*
X142685642Y-99670898D01*
X142322365Y-99672298D01*
X141948559Y-99650384D01*
X141619232Y-99605440D01*
X141361209Y-99542678D01*
X141241914Y-99468876D01*
X141231282Y-99359453D01*
X141249558Y-99303218D01*
X141369020Y-99198925D01*
X141492851Y-99185376D01*
X141713073Y-99167174D01*
X141922012Y-99106810D01*
X142231323Y-99021794D01*
X142541639Y-99038798D01*
X142541639Y-99038798D01*
G37*
X142541639Y-99038798D02*
X142914270Y-99161939D01*
X142946648Y-99175658D01*
X143212951Y-99310244D01*
X143320111Y-99424122D01*
X143274952Y-99530176D01*
X143170900Y-99599021D01*
X142985962Y-99646400D01*
X142685642Y-99670898D01*
X142322365Y-99672298D01*
X141948559Y-99650384D01*
X141619232Y-99605440D01*
X141361209Y-99542678D01*
X141241914Y-99468876D01*
X141231282Y-99359453D01*
X141249558Y-99303218D01*
X141369020Y-99198925D01*
X141492851Y-99185376D01*
X141713073Y-99167174D01*
X141922012Y-99106810D01*
X142231323Y-99021794D01*
X142541639Y-99038798D01*
G36*
X166176913Y-69053593D02*
X166491000Y-69079667D01*
X166465689Y-69540800D01*
X166429453Y-69826794D01*
X166353281Y-70210960D01*
X166250402Y-70630698D01*
X166190522Y-70842977D01*
X166081943Y-71251619D01*
X165997096Y-71653034D01*
X165947840Y-71986836D01*
X165940216Y-72117511D01*
X165926819Y-72353020D01*
X165891014Y-72689168D01*
X165838837Y-73087233D01*
X165776325Y-73508490D01*
X165709516Y-73914216D01*
X165644448Y-74265687D01*
X165587158Y-74524180D01*
X165545695Y-74647940D01*
X165522043Y-74701494D01*
X165500870Y-74792607D01*
X165480609Y-74940319D01*
X165459693Y-75163672D01*
X165436556Y-75481706D01*
X165409630Y-75913462D01*
X165377349Y-76477980D01*
X165342004Y-77123000D01*
X165312250Y-77656594D01*
X165282733Y-78157987D01*
X165255620Y-78592367D01*
X165233078Y-78924924D01*
X165218084Y-79112667D01*
X165191258Y-79447146D01*
X165169456Y-79814027D01*
X165165184Y-79911654D01*
X165100393Y-80310813D01*
X164959829Y-80673654D01*
X164854675Y-80901632D01*
X164723223Y-81239807D01*
X164585215Y-81635424D01*
X164500718Y-81900443D01*
X164344660Y-82375393D01*
X164156826Y-82894856D01*
X163968646Y-83373426D01*
X163894881Y-83546660D01*
X163740816Y-83906417D01*
X163651407Y-84149818D01*
X163618095Y-84313199D01*
X163632323Y-84432894D01*
X163667362Y-84512722D01*
X163716937Y-84632793D01*
X163700210Y-84737700D01*
X163596001Y-84868638D01*
X163383133Y-85066801D01*
X163381975Y-85067838D01*
X163147625Y-85317560D01*
X162918817Y-85627897D01*
X162724515Y-85951390D01*
X162593679Y-86240582D01*
X162554000Y-86424590D01*
X162523158Y-86553986D01*
X162439321Y-86805418D01*
X162315522Y-87144991D01*
X162164794Y-87538811D01*
X162000169Y-87952985D01*
X161834681Y-88353617D01*
X161681363Y-88706815D01*
X161648961Y-88778280D01*
X161540880Y-89052813D01*
X161482229Y-89281082D01*
X161482282Y-89395318D01*
X161468512Y-89537930D01*
X161405413Y-89582860D01*
X161303011Y-89682304D01*
X161161705Y-89893071D01*
X161006543Y-90169692D01*
X160862575Y-90466698D01*
X160754850Y-90738620D01*
X160736716Y-90796667D01*
X160671819Y-90981340D01*
X160561570Y-91259107D01*
X160434651Y-91558667D01*
X160051518Y-92442639D01*
X159734986Y-93190969D01*
X159478124Y-93820547D01*
X159273997Y-94348263D01*
X159156024Y-94673955D01*
X158973205Y-95172033D01*
X158749745Y-95743599D01*
X158506759Y-96337644D01*
X158265365Y-96903158D01*
X158046680Y-97389131D01*
X157939618Y-97612334D01*
X157810012Y-97896535D01*
X157709812Y-98157362D01*
X157677244Y-98268500D01*
X157617984Y-98436887D01*
X157556001Y-98501334D01*
X157436734Y-98565137D01*
X157259602Y-98730033D01*
X157060715Y-98956247D01*
X156876180Y-99204005D01*
X156785088Y-99350501D01*
X156651726Y-99552343D01*
X156534007Y-99672270D01*
X156497369Y-99686667D01*
X156388039Y-99638374D01*
X156183877Y-99509890D01*
X155923073Y-99325810D01*
X155835627Y-99260495D01*
X155577280Y-99056068D01*
X155381389Y-98884204D01*
X155279956Y-98773614D01*
X155272667Y-98755441D01*
X155324311Y-98648864D01*
X155454481Y-98472573D01*
X155524014Y-98390290D01*
X155629597Y-98231655D01*
X155788857Y-97942372D01*
X155989228Y-97547633D01*
X156218144Y-97072628D01*
X156463039Y-96542548D01*
X156613022Y-96207178D01*
X156845837Y-95679639D01*
X157132459Y-95029633D01*
X157458549Y-94289709D01*
X157809769Y-93492415D01*
X158171779Y-92670300D01*
X158530241Y-91855914D01*
X158828652Y-91177667D01*
X159185655Y-90366810D01*
X159570466Y-89494124D01*
X159966371Y-88597419D01*
X160356659Y-87714507D01*
X160724621Y-86883196D01*
X161053543Y-86141299D01*
X161260989Y-85674334D01*
X161594282Y-84924340D01*
X161867522Y-84307369D01*
X162089773Y-83801857D01*
X162270100Y-83386242D01*
X162417568Y-83038961D01*
X162541242Y-82738453D01*
X162650186Y-82463153D01*
X162753465Y-82191501D01*
X162860144Y-81901932D01*
X162943271Y-81672669D01*
X163072919Y-81319848D01*
X163188578Y-81015950D01*
X163273640Y-80804103D01*
X163301932Y-80741336D01*
X163379188Y-80546386D01*
X163432901Y-80361500D01*
X163453231Y-80192871D01*
X163385747Y-80132848D01*
X163326672Y-80128667D01*
X163168218Y-80070284D01*
X163116049Y-80001667D01*
X163001200Y-79897082D01*
X162895324Y-79874667D01*
X162753535Y-79817799D01*
X162723334Y-79696275D01*
X162692760Y-79569446D01*
X162579079Y-79578535D01*
X162575167Y-79580163D01*
X162297081Y-79675726D01*
X162119002Y-79670075D01*
X161999877Y-79555673D01*
X161954350Y-79466216D01*
X161799447Y-79254120D01*
X161583945Y-79171114D01*
X161376740Y-79165039D01*
X161245900Y-79206415D01*
X161106371Y-79269264D01*
X160933494Y-79276742D01*
X160802779Y-79232638D01*
X160776000Y-79182834D01*
X160826691Y-79041140D01*
X160890126Y-78950000D01*
X160979705Y-78790481D01*
X161075070Y-78540620D01*
X161112869Y-78413905D01*
X161195731Y-78193736D01*
X161347794Y-77868534D01*
X161549457Y-77477446D01*
X161781121Y-77059618D01*
X161852313Y-76936998D01*
X162098766Y-76503881D01*
X162330934Y-76071906D01*
X162525862Y-75685389D01*
X162660597Y-75388651D01*
X162680821Y-75337330D01*
X162824213Y-75014680D01*
X163028525Y-74626630D01*
X163255364Y-74244929D01*
X163312714Y-74156455D01*
X163527092Y-73824880D01*
X163722990Y-73508129D01*
X163867979Y-73259101D01*
X163901974Y-73195219D01*
X164025865Y-72953996D01*
X164189225Y-72639665D01*
X164323836Y-72382791D01*
X164493703Y-72008397D01*
X164550811Y-71740441D01*
X164543123Y-71659524D01*
X164546298Y-71487550D01*
X164633406Y-71260636D01*
X164818054Y-70944408D01*
X164839344Y-70911285D01*
X165048599Y-70568625D01*
X165283643Y-70155077D01*
X165497936Y-69752864D01*
X165522959Y-69703479D01*
X165862825Y-69027519D01*
X166176913Y-69053593D01*
X166176913Y-69053593D01*
G37*
X166176913Y-69053593D02*
X166491000Y-69079667D01*
X166465689Y-69540800D01*
X166429453Y-69826794D01*
X166353281Y-70210960D01*
X166250402Y-70630698D01*
X166190522Y-70842977D01*
X166081943Y-71251619D01*
X165997096Y-71653034D01*
X165947840Y-71986836D01*
X165940216Y-72117511D01*
X165926819Y-72353020D01*
X165891014Y-72689168D01*
X165838837Y-73087233D01*
X165776325Y-73508490D01*
X165709516Y-73914216D01*
X165644448Y-74265687D01*
X165587158Y-74524180D01*
X165545695Y-74647940D01*
X165522043Y-74701494D01*
X165500870Y-74792607D01*
X165480609Y-74940319D01*
X165459693Y-75163672D01*
X165436556Y-75481706D01*
X165409630Y-75913462D01*
X165377349Y-76477980D01*
X165342004Y-77123000D01*
X165312250Y-77656594D01*
X165282733Y-78157987D01*
X165255620Y-78592367D01*
X165233078Y-78924924D01*
X165218084Y-79112667D01*
X165191258Y-79447146D01*
X165169456Y-79814027D01*
X165165184Y-79911654D01*
X165100393Y-80310813D01*
X164959829Y-80673654D01*
X164854675Y-80901632D01*
X164723223Y-81239807D01*
X164585215Y-81635424D01*
X164500718Y-81900443D01*
X164344660Y-82375393D01*
X164156826Y-82894856D01*
X163968646Y-83373426D01*
X163894881Y-83546660D01*
X163740816Y-83906417D01*
X163651407Y-84149818D01*
X163618095Y-84313199D01*
X163632323Y-84432894D01*
X163667362Y-84512722D01*
X163716937Y-84632793D01*
X163700210Y-84737700D01*
X163596001Y-84868638D01*
X163383133Y-85066801D01*
X163381975Y-85067838D01*
X163147625Y-85317560D01*
X162918817Y-85627897D01*
X162724515Y-85951390D01*
X162593679Y-86240582D01*
X162554000Y-86424590D01*
X162523158Y-86553986D01*
X162439321Y-86805418D01*
X162315522Y-87144991D01*
X162164794Y-87538811D01*
X162000169Y-87952985D01*
X161834681Y-88353617D01*
X161681363Y-88706815D01*
X161648961Y-88778280D01*
X161540880Y-89052813D01*
X161482229Y-89281082D01*
X161482282Y-89395318D01*
X161468512Y-89537930D01*
X161405413Y-89582860D01*
X161303011Y-89682304D01*
X161161705Y-89893071D01*
X161006543Y-90169692D01*
X160862575Y-90466698D01*
X160754850Y-90738620D01*
X160736716Y-90796667D01*
X160671819Y-90981340D01*
X160561570Y-91259107D01*
X160434651Y-91558667D01*
X160051518Y-92442639D01*
X159734986Y-93190969D01*
X159478124Y-93820547D01*
X159273997Y-94348263D01*
X159156024Y-94673955D01*
X158973205Y-95172033D01*
X158749745Y-95743599D01*
X158506759Y-96337644D01*
X158265365Y-96903158D01*
X158046680Y-97389131D01*
X157939618Y-97612334D01*
X157810012Y-97896535D01*
X157709812Y-98157362D01*
X157677244Y-98268500D01*
X157617984Y-98436887D01*
X157556001Y-98501334D01*
X157436734Y-98565137D01*
X157259602Y-98730033D01*
X157060715Y-98956247D01*
X156876180Y-99204005D01*
X156785088Y-99350501D01*
X156651726Y-99552343D01*
X156534007Y-99672270D01*
X156497369Y-99686667D01*
X156388039Y-99638374D01*
X156183877Y-99509890D01*
X155923073Y-99325810D01*
X155835627Y-99260495D01*
X155577280Y-99056068D01*
X155381389Y-98884204D01*
X155279956Y-98773614D01*
X155272667Y-98755441D01*
X155324311Y-98648864D01*
X155454481Y-98472573D01*
X155524014Y-98390290D01*
X155629597Y-98231655D01*
X155788857Y-97942372D01*
X155989228Y-97547633D01*
X156218144Y-97072628D01*
X156463039Y-96542548D01*
X156613022Y-96207178D01*
X156845837Y-95679639D01*
X157132459Y-95029633D01*
X157458549Y-94289709D01*
X157809769Y-93492415D01*
X158171779Y-92670300D01*
X158530241Y-91855914D01*
X158828652Y-91177667D01*
X159185655Y-90366810D01*
X159570466Y-89494124D01*
X159966371Y-88597419D01*
X160356659Y-87714507D01*
X160724621Y-86883196D01*
X161053543Y-86141299D01*
X161260989Y-85674334D01*
X161594282Y-84924340D01*
X161867522Y-84307369D01*
X162089773Y-83801857D01*
X162270100Y-83386242D01*
X162417568Y-83038961D01*
X162541242Y-82738453D01*
X162650186Y-82463153D01*
X162753465Y-82191501D01*
X162860144Y-81901932D01*
X162943271Y-81672669D01*
X163072919Y-81319848D01*
X163188578Y-81015950D01*
X163273640Y-80804103D01*
X163301932Y-80741336D01*
X163379188Y-80546386D01*
X163432901Y-80361500D01*
X163453231Y-80192871D01*
X163385747Y-80132848D01*
X163326672Y-80128667D01*
X163168218Y-80070284D01*
X163116049Y-80001667D01*
X163001200Y-79897082D01*
X162895324Y-79874667D01*
X162753535Y-79817799D01*
X162723334Y-79696275D01*
X162692760Y-79569446D01*
X162579079Y-79578535D01*
X162575167Y-79580163D01*
X162297081Y-79675726D01*
X162119002Y-79670075D01*
X161999877Y-79555673D01*
X161954350Y-79466216D01*
X161799447Y-79254120D01*
X161583945Y-79171114D01*
X161376740Y-79165039D01*
X161245900Y-79206415D01*
X161106371Y-79269264D01*
X160933494Y-79276742D01*
X160802779Y-79232638D01*
X160776000Y-79182834D01*
X160826691Y-79041140D01*
X160890126Y-78950000D01*
X160979705Y-78790481D01*
X161075070Y-78540620D01*
X161112869Y-78413905D01*
X161195731Y-78193736D01*
X161347794Y-77868534D01*
X161549457Y-77477446D01*
X161781121Y-77059618D01*
X161852313Y-76936998D01*
X162098766Y-76503881D01*
X162330934Y-76071906D01*
X162525862Y-75685389D01*
X162660597Y-75388651D01*
X162680821Y-75337330D01*
X162824213Y-75014680D01*
X163028525Y-74626630D01*
X163255364Y-74244929D01*
X163312714Y-74156455D01*
X163527092Y-73824880D01*
X163722990Y-73508129D01*
X163867979Y-73259101D01*
X163901974Y-73195219D01*
X164025865Y-72953996D01*
X164189225Y-72639665D01*
X164323836Y-72382791D01*
X164493703Y-72008397D01*
X164550811Y-71740441D01*
X164543123Y-71659524D01*
X164546298Y-71487550D01*
X164633406Y-71260636D01*
X164818054Y-70944408D01*
X164839344Y-70911285D01*
X165048599Y-70568625D01*
X165283643Y-70155077D01*
X165497936Y-69752864D01*
X165522959Y-69703479D01*
X165862825Y-69027519D01*
X166176913Y-69053593D01*
G36*
X148160667Y-85744889D02*
X148153466Y-86146366D01*
X148130170Y-86398064D01*
X148088237Y-86518991D01*
X148054834Y-86536696D01*
X147957799Y-86572927D01*
X147729730Y-86674318D01*
X147390899Y-86831029D01*
X146961580Y-87033219D01*
X146462045Y-87271046D01*
X145912566Y-87534670D01*
X145333416Y-87814249D01*
X144744867Y-88099943D01*
X144167193Y-88381910D01*
X143620665Y-88650311D01*
X143125557Y-88895303D01*
X142702140Y-89107046D01*
X142370688Y-89275699D01*
X142151473Y-89391421D01*
X142064768Y-89444371D01*
X142064667Y-89444510D01*
X141970966Y-89512908D01*
X141773710Y-89626404D01*
X141593682Y-89720625D01*
X141334488Y-89865022D01*
X141128742Y-90003929D01*
X141051493Y-90073595D01*
X140783409Y-90336940D01*
X140465217Y-90562969D01*
X140154233Y-90715110D01*
X139979919Y-90757362D01*
X139768036Y-90786885D01*
X139641806Y-90822762D01*
X139634156Y-90828289D01*
X139625323Y-90919144D01*
X139617033Y-91162231D01*
X139609482Y-91540449D01*
X139602866Y-92036698D01*
X139597382Y-92633875D01*
X139593224Y-93314881D01*
X139590591Y-94062614D01*
X139589710Y-94702893D01*
X139588358Y-95648221D01*
X139584958Y-96437005D01*
X139579149Y-97082023D01*
X139570568Y-97596057D01*
X139558850Y-97991886D01*
X139543634Y-98282291D01*
X139524555Y-98480051D01*
X139501252Y-98597946D01*
X139477730Y-98645032D01*
X139327360Y-98742943D01*
X139214671Y-98731541D01*
X139186000Y-98656167D01*
X139133649Y-98520336D01*
X139049692Y-98406382D01*
X139016336Y-98354729D01*
X138988893Y-98270244D01*
X138966833Y-98137672D01*
X138949626Y-97941760D01*
X138936742Y-97667256D01*
X138927651Y-97298905D01*
X138921823Y-96821454D01*
X138918728Y-96219650D01*
X138917836Y-95478240D01*
X138918545Y-94632048D01*
X138921161Y-93683165D01*
X138926365Y-92888953D01*
X138934601Y-92234763D01*
X138946309Y-91705947D01*
X138961930Y-91287855D01*
X138981907Y-90965840D01*
X139006682Y-90725253D01*
X139036695Y-90551444D01*
X139042285Y-90527748D01*
X139104856Y-90252607D01*
X139118260Y-90086810D01*
X139078462Y-89976490D01*
X138993756Y-89880053D01*
X138884261Y-89755161D01*
X138881904Y-89654964D01*
X138984894Y-89500190D01*
X138985157Y-89499836D01*
X139134559Y-89361109D01*
X139388657Y-89184265D01*
X139698588Y-89002551D01*
X139775290Y-88962198D01*
X140155530Y-88751502D01*
X140553250Y-88506902D01*
X140884382Y-88280181D01*
X140893517Y-88273367D01*
X141229314Y-88047953D01*
X141603359Y-87835303D01*
X141870561Y-87709215D01*
X142267337Y-87540833D01*
X142718457Y-87338625D01*
X143190045Y-87118964D01*
X143648225Y-86898224D01*
X144059122Y-86692778D01*
X144388861Y-86518998D01*
X144603565Y-86393258D01*
X144628392Y-86376268D01*
X145032981Y-86103178D01*
X145406963Y-85880771D01*
X145719792Y-85725327D01*
X145940920Y-85653126D01*
X145990260Y-85650471D01*
X146152667Y-85624654D01*
X146397148Y-85543253D01*
X146678962Y-85426772D01*
X146953367Y-85295717D01*
X147175625Y-85170594D01*
X147300994Y-85071906D01*
X147314000Y-85043782D01*
X147390848Y-84991508D01*
X147590821Y-84959822D01*
X147737334Y-84954667D01*
X148160667Y-84954667D01*
X148160667Y-85744889D01*
X148160667Y-85744889D01*
G37*
X148160667Y-85744889D02*
X148153466Y-86146366D01*
X148130170Y-86398064D01*
X148088237Y-86518991D01*
X148054834Y-86536696D01*
X147957799Y-86572927D01*
X147729730Y-86674318D01*
X147390899Y-86831029D01*
X146961580Y-87033219D01*
X146462045Y-87271046D01*
X145912566Y-87534670D01*
X145333416Y-87814249D01*
X144744867Y-88099943D01*
X144167193Y-88381910D01*
X143620665Y-88650311D01*
X143125557Y-88895303D01*
X142702140Y-89107046D01*
X142370688Y-89275699D01*
X142151473Y-89391421D01*
X142064768Y-89444371D01*
X142064667Y-89444510D01*
X141970966Y-89512908D01*
X141773710Y-89626404D01*
X141593682Y-89720625D01*
X141334488Y-89865022D01*
X141128742Y-90003929D01*
X141051493Y-90073595D01*
X140783409Y-90336940D01*
X140465217Y-90562969D01*
X140154233Y-90715110D01*
X139979919Y-90757362D01*
X139768036Y-90786885D01*
X139641806Y-90822762D01*
X139634156Y-90828289D01*
X139625323Y-90919144D01*
X139617033Y-91162231D01*
X139609482Y-91540449D01*
X139602866Y-92036698D01*
X139597382Y-92633875D01*
X139593224Y-93314881D01*
X139590591Y-94062614D01*
X139589710Y-94702893D01*
X139588358Y-95648221D01*
X139584958Y-96437005D01*
X139579149Y-97082023D01*
X139570568Y-97596057D01*
X139558850Y-97991886D01*
X139543634Y-98282291D01*
X139524555Y-98480051D01*
X139501252Y-98597946D01*
X139477730Y-98645032D01*
X139327360Y-98742943D01*
X139214671Y-98731541D01*
X139186000Y-98656167D01*
X139133649Y-98520336D01*
X139049692Y-98406382D01*
X139016336Y-98354729D01*
X138988893Y-98270244D01*
X138966833Y-98137672D01*
X138949626Y-97941760D01*
X138936742Y-97667256D01*
X138927651Y-97298905D01*
X138921823Y-96821454D01*
X138918728Y-96219650D01*
X138917836Y-95478240D01*
X138918545Y-94632048D01*
X138921161Y-93683165D01*
X138926365Y-92888953D01*
X138934601Y-92234763D01*
X138946309Y-91705947D01*
X138961930Y-91287855D01*
X138981907Y-90965840D01*
X139006682Y-90725253D01*
X139036695Y-90551444D01*
X139042285Y-90527748D01*
X139104856Y-90252607D01*
X139118260Y-90086810D01*
X139078462Y-89976490D01*
X138993756Y-89880053D01*
X138884261Y-89755161D01*
X138881904Y-89654964D01*
X138984894Y-89500190D01*
X138985157Y-89499836D01*
X139134559Y-89361109D01*
X139388657Y-89184265D01*
X139698588Y-89002551D01*
X139775290Y-88962198D01*
X140155530Y-88751502D01*
X140553250Y-88506902D01*
X140884382Y-88280181D01*
X140893517Y-88273367D01*
X141229314Y-88047953D01*
X141603359Y-87835303D01*
X141870561Y-87709215D01*
X142267337Y-87540833D01*
X142718457Y-87338625D01*
X143190045Y-87118964D01*
X143648225Y-86898224D01*
X144059122Y-86692778D01*
X144388861Y-86518998D01*
X144603565Y-86393258D01*
X144628392Y-86376268D01*
X145032981Y-86103178D01*
X145406963Y-85880771D01*
X145719792Y-85725327D01*
X145940920Y-85653126D01*
X145990260Y-85650471D01*
X146152667Y-85624654D01*
X146397148Y-85543253D01*
X146678962Y-85426772D01*
X146953367Y-85295717D01*
X147175625Y-85170594D01*
X147300994Y-85071906D01*
X147314000Y-85043782D01*
X147390848Y-84991508D01*
X147590821Y-84959822D01*
X147737334Y-84954667D01*
X148160667Y-84954667D01*
X148160667Y-85744889D01*
G36*
X128778211Y-88008622D02*
X129116595Y-88024882D01*
X129355369Y-88049035D01*
X129461387Y-88078672D01*
X129463445Y-88081936D01*
X129553872Y-88189329D01*
X129778587Y-88376583D01*
X130140605Y-88645994D01*
X130642947Y-88999857D01*
X130931000Y-89197788D01*
X131279863Y-89438473D01*
X131608969Y-89669859D01*
X131872951Y-89859838D01*
X131989334Y-89946841D01*
X132257043Y-90145644D01*
X132398807Y-90231576D01*
X132414546Y-90204636D01*
X132304180Y-90064821D01*
X132201000Y-89951856D01*
X132032630Y-89763870D01*
X131962910Y-89663526D01*
X131996678Y-89653928D01*
X132138771Y-89738177D01*
X132394026Y-89919378D01*
X132767281Y-90200632D01*
X133263372Y-90585042D01*
X133600248Y-90849365D01*
X134180456Y-91262971D01*
X134730540Y-91552557D01*
X135305535Y-91740462D01*
X135960480Y-91849028D01*
X136095667Y-91862277D01*
X136413978Y-91885629D01*
X136618418Y-91878074D01*
X136763264Y-91828728D01*
X136902791Y-91726702D01*
X136942334Y-91692451D01*
X137267200Y-91471756D01*
X137595315Y-91397281D01*
X137851189Y-91422938D01*
X138121982Y-91489190D01*
X138300526Y-91580392D01*
X138404194Y-91728838D01*
X138450361Y-91966820D01*
X138456400Y-92326634D01*
X138450645Y-92537173D01*
X138427284Y-92986238D01*
X138384004Y-93290423D01*
X138308318Y-93474022D01*
X138187739Y-93561325D01*
X138009783Y-93576625D01*
X137920707Y-93568145D01*
X137656793Y-93562650D01*
X137431314Y-93600423D01*
X137423623Y-93603149D01*
X137163007Y-93621129D01*
X136936557Y-93479398D01*
X136760983Y-93193966D01*
X136677580Y-93015070D01*
X136586871Y-92935522D01*
X136430357Y-92928398D01*
X136238984Y-92953746D01*
X135987967Y-93002384D01*
X135808891Y-93058678D01*
X135768080Y-93082786D01*
X135742093Y-93205405D01*
X135766729Y-93427488D01*
X135828076Y-93691944D01*
X135912226Y-93941680D01*
X136005269Y-94119605D01*
X136026806Y-94144711D01*
X136112652Y-94348104D01*
X136097315Y-94514497D01*
X136085284Y-94712969D01*
X136133043Y-94815270D01*
X136198249Y-94932440D01*
X136222667Y-95114152D01*
X136263121Y-95471394D01*
X136385467Y-95681981D01*
X136591182Y-95748277D01*
X136617724Y-95746961D01*
X136858269Y-95708881D01*
X137019443Y-95661202D01*
X137131702Y-95633526D01*
X137143891Y-95714006D01*
X137121981Y-95798886D01*
X137024589Y-96190162D01*
X137001780Y-96436953D01*
X137053217Y-96546633D01*
X137087467Y-96554000D01*
X137239140Y-96604486D01*
X137368111Y-96721211D01*
X137432727Y-96852082D01*
X137397346Y-96941585D01*
X137285827Y-96947704D01*
X137257775Y-96907657D01*
X137190328Y-96803015D01*
X137124109Y-96842007D01*
X137078602Y-96999920D01*
X137069334Y-97146667D01*
X137092439Y-97372388D01*
X137147604Y-97477834D01*
X137213602Y-97446814D01*
X137263581Y-97294834D01*
X137289725Y-97201807D01*
X137305783Y-97267218D01*
X137311803Y-97369133D01*
X137358635Y-97590771D01*
X137450334Y-97739334D01*
X137557655Y-97878173D01*
X137577334Y-97951316D01*
X137499625Y-98040599D01*
X137294299Y-98125705D01*
X137003055Y-98200087D01*
X136667592Y-98257193D01*
X136329610Y-98290477D01*
X136030808Y-98293388D01*
X135812884Y-98259377D01*
X135761668Y-98236473D01*
X135484152Y-98019421D01*
X135300857Y-97779980D01*
X135239355Y-97557093D01*
X135246249Y-97508487D01*
X135249635Y-97361929D01*
X135150874Y-97238617D01*
X134992589Y-97134026D01*
X134689786Y-96955367D01*
X134820151Y-96816600D01*
X136748406Y-96816600D01*
X136775643Y-96952515D01*
X136831073Y-97058574D01*
X136864169Y-97006347D01*
X136878254Y-96949540D01*
X136886049Y-96795649D01*
X136865151Y-96744929D01*
X136784493Y-96724749D01*
X136748406Y-96816600D01*
X134820151Y-96816600D01*
X134874897Y-96758326D01*
X134972425Y-96645596D01*
X135015470Y-96541180D01*
X135006860Y-96394290D01*
X134949424Y-96154136D01*
X134915551Y-96028475D01*
X134824200Y-95670205D01*
X134740780Y-95307522D01*
X134698540Y-95099131D01*
X134632922Y-94816764D01*
X134554001Y-94577082D01*
X134525357Y-94514569D01*
X134446609Y-94338042D01*
X134340286Y-94062678D01*
X134239095Y-93776237D01*
X134153756Y-93533083D01*
X134071275Y-93356967D01*
X133960769Y-93214684D01*
X133791352Y-93073028D01*
X133532142Y-92898794D01*
X133266905Y-92730965D01*
X132943000Y-92530654D01*
X132671353Y-92369236D01*
X132483939Y-92265300D01*
X132415425Y-92236000D01*
X132334668Y-92300580D01*
X132202691Y-92464698D01*
X132126383Y-92574667D01*
X131959398Y-92810307D01*
X131871578Y-92901844D01*
X131869883Y-92852124D01*
X131961271Y-92663993D01*
X132033573Y-92536719D01*
X132254284Y-92160104D01*
X129835809Y-90546320D01*
X129173334Y-90102707D01*
X128639928Y-89741374D01*
X128222545Y-89452535D01*
X127908137Y-89226403D01*
X127683655Y-89053189D01*
X127536053Y-88923108D01*
X127452284Y-88826372D01*
X127419298Y-88753194D01*
X127417334Y-88732185D01*
X127400240Y-88499584D01*
X127364417Y-88267250D01*
X127311500Y-88002667D01*
X128373361Y-88002667D01*
X128778211Y-88008622D01*
X128778211Y-88008622D01*
G37*
X128778211Y-88008622D02*
X129116595Y-88024882D01*
X129355369Y-88049035D01*
X129461387Y-88078672D01*
X129463445Y-88081936D01*
X129553872Y-88189329D01*
X129778587Y-88376583D01*
X130140605Y-88645994D01*
X130642947Y-88999857D01*
X130931000Y-89197788D01*
X131279863Y-89438473D01*
X131608969Y-89669859D01*
X131872951Y-89859838D01*
X131989334Y-89946841D01*
X132257043Y-90145644D01*
X132398807Y-90231576D01*
X132414546Y-90204636D01*
X132304180Y-90064821D01*
X132201000Y-89951856D01*
X132032630Y-89763870D01*
X131962910Y-89663526D01*
X131996678Y-89653928D01*
X132138771Y-89738177D01*
X132394026Y-89919378D01*
X132767281Y-90200632D01*
X133263372Y-90585042D01*
X133600248Y-90849365D01*
X134180456Y-91262971D01*
X134730540Y-91552557D01*
X135305535Y-91740462D01*
X135960480Y-91849028D01*
X136095667Y-91862277D01*
X136413978Y-91885629D01*
X136618418Y-91878074D01*
X136763264Y-91828728D01*
X136902791Y-91726702D01*
X136942334Y-91692451D01*
X137267200Y-91471756D01*
X137595315Y-91397281D01*
X137851189Y-91422938D01*
X138121982Y-91489190D01*
X138300526Y-91580392D01*
X138404194Y-91728838D01*
X138450361Y-91966820D01*
X138456400Y-92326634D01*
X138450645Y-92537173D01*
X138427284Y-92986238D01*
X138384004Y-93290423D01*
X138308318Y-93474022D01*
X138187739Y-93561325D01*
X138009783Y-93576625D01*
X137920707Y-93568145D01*
X137656793Y-93562650D01*
X137431314Y-93600423D01*
X137423623Y-93603149D01*
X137163007Y-93621129D01*
X136936557Y-93479398D01*
X136760983Y-93193966D01*
X136677580Y-93015070D01*
X136586871Y-92935522D01*
X136430357Y-92928398D01*
X136238984Y-92953746D01*
X135987967Y-93002384D01*
X135808891Y-93058678D01*
X135768080Y-93082786D01*
X135742093Y-93205405D01*
X135766729Y-93427488D01*
X135828076Y-93691944D01*
X135912226Y-93941680D01*
X136005269Y-94119605D01*
X136026806Y-94144711D01*
X136112652Y-94348104D01*
X136097315Y-94514497D01*
X136085284Y-94712969D01*
X136133043Y-94815270D01*
X136198249Y-94932440D01*
X136222667Y-95114152D01*
X136263121Y-95471394D01*
X136385467Y-95681981D01*
X136591182Y-95748277D01*
X136617724Y-95746961D01*
X136858269Y-95708881D01*
X137019443Y-95661202D01*
X137131702Y-95633526D01*
X137143891Y-95714006D01*
X137121981Y-95798886D01*
X137024589Y-96190162D01*
X137001780Y-96436953D01*
X137053217Y-96546633D01*
X137087467Y-96554000D01*
X137239140Y-96604486D01*
X137368111Y-96721211D01*
X137432727Y-96852082D01*
X137397346Y-96941585D01*
X137285827Y-96947704D01*
X137257775Y-96907657D01*
X137190328Y-96803015D01*
X137124109Y-96842007D01*
X137078602Y-96999920D01*
X137069334Y-97146667D01*
X137092439Y-97372388D01*
X137147604Y-97477834D01*
X137213602Y-97446814D01*
X137263581Y-97294834D01*
X137289725Y-97201807D01*
X137305783Y-97267218D01*
X137311803Y-97369133D01*
X137358635Y-97590771D01*
X137450334Y-97739334D01*
X137557655Y-97878173D01*
X137577334Y-97951316D01*
X137499625Y-98040599D01*
X137294299Y-98125705D01*
X137003055Y-98200087D01*
X136667592Y-98257193D01*
X136329610Y-98290477D01*
X136030808Y-98293388D01*
X135812884Y-98259377D01*
X135761668Y-98236473D01*
X135484152Y-98019421D01*
X135300857Y-97779980D01*
X135239355Y-97557093D01*
X135246249Y-97508487D01*
X135249635Y-97361929D01*
X135150874Y-97238617D01*
X134992589Y-97134026D01*
X134689786Y-96955367D01*
X134820151Y-96816600D01*
X136748406Y-96816600D01*
X136775643Y-96952515D01*
X136831073Y-97058574D01*
X136864169Y-97006347D01*
X136878254Y-96949540D01*
X136886049Y-96795649D01*
X136865151Y-96744929D01*
X136784493Y-96724749D01*
X136748406Y-96816600D01*
X134820151Y-96816600D01*
X134874897Y-96758326D01*
X134972425Y-96645596D01*
X135015470Y-96541180D01*
X135006860Y-96394290D01*
X134949424Y-96154136D01*
X134915551Y-96028475D01*
X134824200Y-95670205D01*
X134740780Y-95307522D01*
X134698540Y-95099131D01*
X134632922Y-94816764D01*
X134554001Y-94577082D01*
X134525357Y-94514569D01*
X134446609Y-94338042D01*
X134340286Y-94062678D01*
X134239095Y-93776237D01*
X134153756Y-93533083D01*
X134071275Y-93356967D01*
X133960769Y-93214684D01*
X133791352Y-93073028D01*
X133532142Y-92898794D01*
X133266905Y-92730965D01*
X132943000Y-92530654D01*
X132671353Y-92369236D01*
X132483939Y-92265300D01*
X132415425Y-92236000D01*
X132334668Y-92300580D01*
X132202691Y-92464698D01*
X132126383Y-92574667D01*
X131959398Y-92810307D01*
X131871578Y-92901844D01*
X131869883Y-92852124D01*
X131961271Y-92663993D01*
X132033573Y-92536719D01*
X132254284Y-92160104D01*
X129835809Y-90546320D01*
X129173334Y-90102707D01*
X128639928Y-89741374D01*
X128222545Y-89452535D01*
X127908137Y-89226403D01*
X127683655Y-89053189D01*
X127536053Y-88923108D01*
X127452284Y-88826372D01*
X127419298Y-88753194D01*
X127417334Y-88732185D01*
X127400240Y-88499584D01*
X127364417Y-88267250D01*
X127311500Y-88002667D01*
X128373361Y-88002667D01*
X128778211Y-88008622D01*
G36*
X137831334Y-95495667D02*
X137789000Y-95538000D01*
X137746667Y-95495667D01*
X137789000Y-95453334D01*
X137831334Y-95495667D01*
X137831334Y-95495667D01*
G37*
X137831334Y-95495667D02*
X137789000Y-95538000D01*
X137746667Y-95495667D01*
X137789000Y-95453334D01*
X137831334Y-95495667D01*
G36*
X137728838Y-95251036D02*
X137789059Y-95345927D01*
X137701565Y-95378280D01*
X137686505Y-95379472D01*
X137475723Y-95397284D01*
X137341246Y-95410402D01*
X137201898Y-95393080D01*
X137181025Y-95336096D01*
X137281285Y-95263929D01*
X137373544Y-95256748D01*
X137527696Y-95237396D01*
X137576098Y-95202618D01*
X137658581Y-95196313D01*
X137728838Y-95251036D01*
X137728838Y-95251036D01*
G37*
X137728838Y-95251036D02*
X137789059Y-95345927D01*
X137701565Y-95378280D01*
X137686505Y-95379472D01*
X137475723Y-95397284D01*
X137341246Y-95410402D01*
X137201898Y-95393080D01*
X137181025Y-95336096D01*
X137281285Y-95263929D01*
X137373544Y-95256748D01*
X137527696Y-95237396D01*
X137576098Y-95202618D01*
X137658581Y-95196313D01*
X137728838Y-95251036D01*
G36*
X135457180Y-90346473D02*
X135473001Y-90485641D01*
X135372355Y-90654285D01*
X135234121Y-90748869D01*
X135167440Y-90717027D01*
X135142264Y-90561620D01*
X135197041Y-90393449D01*
X135300978Y-90293504D01*
X135330314Y-90288667D01*
X135457180Y-90346473D01*
X135457180Y-90346473D01*
G37*
X135457180Y-90346473D02*
X135473001Y-90485641D01*
X135372355Y-90654285D01*
X135234121Y-90748869D01*
X135167440Y-90717027D01*
X135142264Y-90561620D01*
X135197041Y-90393449D01*
X135300978Y-90293504D01*
X135330314Y-90288667D01*
X135457180Y-90346473D01*
G36*
X132018160Y-85148572D02*
X132326974Y-85222017D01*
X132475230Y-85343932D01*
X132473470Y-85487399D01*
X132494691Y-85594614D01*
X132632322Y-85754651D01*
X132899078Y-85981089D01*
X133031213Y-86083028D01*
X133344819Y-86312187D01*
X133645939Y-86517643D01*
X133882698Y-86664426D01*
X133936667Y-86693430D01*
X134178219Y-86846028D01*
X134444344Y-87058886D01*
X134547613Y-87155530D01*
X134790248Y-87365011D01*
X135108776Y-87598344D01*
X135394280Y-87780696D01*
X135742799Y-88019753D01*
X136099913Y-88319311D01*
X136329853Y-88551071D01*
X136733373Y-89009721D01*
X136338735Y-89649194D01*
X136157975Y-89932673D01*
X136008271Y-90150041D01*
X135912407Y-90268972D01*
X135892883Y-90281760D01*
X135788362Y-90246298D01*
X135596361Y-90167730D01*
X135553668Y-90149281D01*
X135290265Y-90010655D01*
X135016407Y-89832807D01*
X134976856Y-89803421D01*
X134795704Y-89681523D01*
X134502246Y-89502265D01*
X134133738Y-89287692D01*
X133727435Y-89059850D01*
X133631365Y-89007239D01*
X133032826Y-88669836D01*
X132555512Y-88370887D01*
X132164433Y-88083492D01*
X131824601Y-87780753D01*
X131501026Y-87435770D01*
X131339628Y-87245360D01*
X130888667Y-86699720D01*
X130888667Y-85124000D01*
X131549818Y-85124000D01*
X132018160Y-85148572D01*
X132018160Y-85148572D01*
G37*
X132018160Y-85148572D02*
X132326974Y-85222017D01*
X132475230Y-85343932D01*
X132473470Y-85487399D01*
X132494691Y-85594614D01*
X132632322Y-85754651D01*
X132899078Y-85981089D01*
X133031213Y-86083028D01*
X133344819Y-86312187D01*
X133645939Y-86517643D01*
X133882698Y-86664426D01*
X133936667Y-86693430D01*
X134178219Y-86846028D01*
X134444344Y-87058886D01*
X134547613Y-87155530D01*
X134790248Y-87365011D01*
X135108776Y-87598344D01*
X135394280Y-87780696D01*
X135742799Y-88019753D01*
X136099913Y-88319311D01*
X136329853Y-88551071D01*
X136733373Y-89009721D01*
X136338735Y-89649194D01*
X136157975Y-89932673D01*
X136008271Y-90150041D01*
X135912407Y-90268972D01*
X135892883Y-90281760D01*
X135788362Y-90246298D01*
X135596361Y-90167730D01*
X135553668Y-90149281D01*
X135290265Y-90010655D01*
X135016407Y-89832807D01*
X134976856Y-89803421D01*
X134795704Y-89681523D01*
X134502246Y-89502265D01*
X134133738Y-89287692D01*
X133727435Y-89059850D01*
X133631365Y-89007239D01*
X133032826Y-88669836D01*
X132555512Y-88370887D01*
X132164433Y-88083492D01*
X131824601Y-87780753D01*
X131501026Y-87435770D01*
X131339628Y-87245360D01*
X130888667Y-86699720D01*
X130888667Y-85124000D01*
X131549818Y-85124000D01*
X132018160Y-85148572D01*
G36*
X131566000Y-89399667D02*
X131523667Y-89442000D01*
X131481334Y-89399667D01*
X131523667Y-89357334D01*
X131566000Y-89399667D01*
X131566000Y-89399667D01*
G37*
X131566000Y-89399667D02*
X131523667Y-89442000D01*
X131481334Y-89399667D01*
X131523667Y-89357334D01*
X131566000Y-89399667D01*
G36*
X136538069Y-79851996D02*
X136880006Y-79869902D01*
X137292528Y-79896890D01*
X137578437Y-79927518D01*
X137780285Y-79972953D01*
X137940625Y-80044363D01*
X138102010Y-80152913D01*
X138178130Y-80210571D01*
X138512772Y-80486253D01*
X138708998Y-80692538D01*
X138762667Y-80809250D01*
X138692206Y-80877206D01*
X138509452Y-80990971D01*
X138257346Y-81128711D01*
X137978832Y-81268593D01*
X137716851Y-81388781D01*
X137514347Y-81467442D01*
X137431464Y-81486098D01*
X137268570Y-81514425D01*
X137015935Y-81583902D01*
X136846671Y-81638977D01*
X136567548Y-81723785D01*
X136365405Y-81743337D01*
X136162627Y-81701477D01*
X136087356Y-81676580D01*
X135851845Y-81615335D01*
X135671477Y-81603286D01*
X135642769Y-81609963D01*
X135505437Y-81591248D01*
X135308315Y-81488586D01*
X135243566Y-81442596D01*
X135051219Y-81308898D01*
X134911308Y-81234681D01*
X134887240Y-81229334D01*
X134804825Y-81160666D01*
X134707225Y-81001527D01*
X134632438Y-80822210D01*
X134614000Y-80723846D01*
X134674190Y-80585752D01*
X134819468Y-80406041D01*
X134996900Y-80238818D01*
X135153552Y-80138190D01*
X135196291Y-80128667D01*
X135361620Y-80091623D01*
X135590646Y-79999815D01*
X135647473Y-79972008D01*
X135808342Y-79902107D01*
X135983035Y-79861072D01*
X136212595Y-79845502D01*
X136538069Y-79851996D01*
X136538069Y-79851996D01*
G37*
X136538069Y-79851996D02*
X136880006Y-79869902D01*
X137292528Y-79896890D01*
X137578437Y-79927518D01*
X137780285Y-79972953D01*
X137940625Y-80044363D01*
X138102010Y-80152913D01*
X138178130Y-80210571D01*
X138512772Y-80486253D01*
X138708998Y-80692538D01*
X138762667Y-80809250D01*
X138692206Y-80877206D01*
X138509452Y-80990971D01*
X138257346Y-81128711D01*
X137978832Y-81268593D01*
X137716851Y-81388781D01*
X137514347Y-81467442D01*
X137431464Y-81486098D01*
X137268570Y-81514425D01*
X137015935Y-81583902D01*
X136846671Y-81638977D01*
X136567548Y-81723785D01*
X136365405Y-81743337D01*
X136162627Y-81701477D01*
X136087356Y-81676580D01*
X135851845Y-81615335D01*
X135671477Y-81603286D01*
X135642769Y-81609963D01*
X135505437Y-81591248D01*
X135308315Y-81488586D01*
X135243566Y-81442596D01*
X135051219Y-81308898D01*
X134911308Y-81234681D01*
X134887240Y-81229334D01*
X134804825Y-81160666D01*
X134707225Y-81001527D01*
X134632438Y-80822210D01*
X134614000Y-80723846D01*
X134674190Y-80585752D01*
X134819468Y-80406041D01*
X134996900Y-80238818D01*
X135153552Y-80138190D01*
X135196291Y-80128667D01*
X135361620Y-80091623D01*
X135590646Y-79999815D01*
X135647473Y-79972008D01*
X135808342Y-79902107D01*
X135983035Y-79861072D01*
X136212595Y-79845502D01*
X136538069Y-79851996D01*
G36*
X142887800Y-79833790D02*
X143168191Y-79898035D01*
X143194871Y-79909057D01*
X143453864Y-80009357D01*
X143686040Y-80077880D01*
X143895888Y-80198893D01*
X144003540Y-80394791D01*
X144088821Y-80741536D01*
X144052243Y-80985438D01*
X143879715Y-81149840D01*
X143557148Y-81258088D01*
X143472090Y-81275298D01*
X143272431Y-81339658D01*
X143169230Y-81425486D01*
X143165334Y-81443857D01*
X143089446Y-81545991D01*
X142896383Y-81639270D01*
X142638043Y-81705475D01*
X142366324Y-81726387D01*
X142361000Y-81726214D01*
X142109564Y-81739788D01*
X141926056Y-81777039D01*
X141759729Y-81789851D01*
X141689939Y-81747483D01*
X141576081Y-81698040D01*
X141393852Y-81706397D01*
X141115543Y-81697908D01*
X140846801Y-81609310D01*
X140540667Y-81464039D01*
X140540667Y-80806720D01*
X140555420Y-80407202D01*
X140598465Y-80153128D01*
X140646500Y-80066975D01*
X140861527Y-79968408D01*
X141199980Y-79890003D01*
X141616847Y-79834549D01*
X142067114Y-79804836D01*
X142505770Y-79803653D01*
X142887800Y-79833790D01*
X142887800Y-79833790D01*
G37*
X142887800Y-79833790D02*
X143168191Y-79898035D01*
X143194871Y-79909057D01*
X143453864Y-80009357D01*
X143686040Y-80077880D01*
X143895888Y-80198893D01*
X144003540Y-80394791D01*
X144088821Y-80741536D01*
X144052243Y-80985438D01*
X143879715Y-81149840D01*
X143557148Y-81258088D01*
X143472090Y-81275298D01*
X143272431Y-81339658D01*
X143169230Y-81425486D01*
X143165334Y-81443857D01*
X143089446Y-81545991D01*
X142896383Y-81639270D01*
X142638043Y-81705475D01*
X142366324Y-81726387D01*
X142361000Y-81726214D01*
X142109564Y-81739788D01*
X141926056Y-81777039D01*
X141759729Y-81789851D01*
X141689939Y-81747483D01*
X141576081Y-81698040D01*
X141393852Y-81706397D01*
X141115543Y-81697908D01*
X140846801Y-81609310D01*
X140540667Y-81464039D01*
X140540667Y-80806720D01*
X140555420Y-80407202D01*
X140598465Y-80153128D01*
X140646500Y-80066975D01*
X140861527Y-79968408D01*
X141199980Y-79890003D01*
X141616847Y-79834549D01*
X142067114Y-79804836D01*
X142505770Y-79803653D01*
X142887800Y-79833790D01*
G36*
X162007020Y-66302151D02*
X162096809Y-66457826D01*
X162045697Y-66667234D01*
X161984570Y-66863296D01*
X161957617Y-67105601D01*
X161925220Y-67375179D01*
X161850363Y-67674663D01*
X161834635Y-67721167D01*
X161765776Y-67977966D01*
X161786082Y-68134997D01*
X161807834Y-68167412D01*
X161844396Y-68282673D01*
X161822553Y-68491905D01*
X161738793Y-68823777D01*
X161719192Y-68890912D01*
X161543748Y-69622896D01*
X161412566Y-70465251D01*
X161333910Y-71362886D01*
X161326829Y-71506216D01*
X161293398Y-71936844D01*
X161234314Y-72421336D01*
X161168919Y-72818549D01*
X161120101Y-73140441D01*
X161072151Y-73582980D01*
X161029406Y-74097518D01*
X160996201Y-74635403D01*
X160985245Y-74879334D01*
X160936806Y-75730269D01*
X160864153Y-76414179D01*
X160768177Y-76927834D01*
X160680144Y-77350793D01*
X160610081Y-77815464D01*
X160575178Y-78192436D01*
X160552832Y-78519993D01*
X160514424Y-78727932D01*
X160443073Y-78865963D01*
X160321899Y-78983800D01*
X160300622Y-79001015D01*
X160056330Y-79144878D01*
X159822856Y-79198242D01*
X159655462Y-79148971D01*
X159650090Y-79143868D01*
X159642401Y-79036744D01*
X159685172Y-78924950D01*
X159740061Y-78779009D01*
X159734899Y-78720677D01*
X159637381Y-78698146D01*
X159415867Y-78674542D01*
X159115595Y-78654524D01*
X159071872Y-78652368D01*
X158591441Y-78609213D01*
X158235803Y-78533479D01*
X158021789Y-78429636D01*
X157969713Y-78359844D01*
X157862542Y-78291533D01*
X157622507Y-78258734D01*
X157282681Y-78263214D01*
X156902500Y-78302893D01*
X156607487Y-78329473D01*
X156469763Y-78301747D01*
X156458000Y-78276041D01*
X156400357Y-78227506D01*
X156236035Y-78269916D01*
X156002430Y-78308847D01*
X155912611Y-78270103D01*
X155852972Y-78132796D01*
X155836920Y-77906812D01*
X155862280Y-77666507D01*
X155926882Y-77486239D01*
X155935878Y-77473790D01*
X156003735Y-77347106D01*
X156103871Y-77114462D01*
X156198588Y-76869000D01*
X156345910Y-76517271D01*
X156523551Y-76160779D01*
X156632812Y-75973165D01*
X156810741Y-75653172D01*
X156978073Y-75286130D01*
X157038574Y-75126499D01*
X157151692Y-74836543D01*
X157315478Y-74463620D01*
X157500441Y-74073923D01*
X157563609Y-73948000D01*
X157720236Y-73630377D01*
X157839339Y-73368573D01*
X157904743Y-73199259D01*
X157911862Y-73158427D01*
X157949055Y-73053824D01*
X158064849Y-72885383D01*
X158094515Y-72849107D01*
X158192253Y-72703212D01*
X158350626Y-72431879D01*
X158555182Y-72061447D01*
X158791467Y-71618251D01*
X159045029Y-71128630D01*
X159124809Y-70971681D01*
X159377952Y-70475182D01*
X159614440Y-70018384D01*
X159820606Y-69627136D01*
X159982782Y-69327285D01*
X160087302Y-69144683D01*
X160106488Y-69115022D01*
X160301916Y-68815801D01*
X160517300Y-68454815D01*
X160731316Y-68071682D01*
X160922641Y-67706017D01*
X161069952Y-67397438D01*
X161151926Y-67185560D01*
X161157934Y-67161522D01*
X161230889Y-66927131D01*
X161323417Y-66754127D01*
X161325742Y-66751334D01*
X161438840Y-66565459D01*
X161491358Y-66433834D01*
X161594218Y-66284140D01*
X161788647Y-66243334D01*
X162007020Y-66302151D01*
X162007020Y-66302151D01*
G37*
X162007020Y-66302151D02*
X162096809Y-66457826D01*
X162045697Y-66667234D01*
X161984570Y-66863296D01*
X161957617Y-67105601D01*
X161925220Y-67375179D01*
X161850363Y-67674663D01*
X161834635Y-67721167D01*
X161765776Y-67977966D01*
X161786082Y-68134997D01*
X161807834Y-68167412D01*
X161844396Y-68282673D01*
X161822553Y-68491905D01*
X161738793Y-68823777D01*
X161719192Y-68890912D01*
X161543748Y-69622896D01*
X161412566Y-70465251D01*
X161333910Y-71362886D01*
X161326829Y-71506216D01*
X161293398Y-71936844D01*
X161234314Y-72421336D01*
X161168919Y-72818549D01*
X161120101Y-73140441D01*
X161072151Y-73582980D01*
X161029406Y-74097518D01*
X160996201Y-74635403D01*
X160985245Y-74879334D01*
X160936806Y-75730269D01*
X160864153Y-76414179D01*
X160768177Y-76927834D01*
X160680144Y-77350793D01*
X160610081Y-77815464D01*
X160575178Y-78192436D01*
X160552832Y-78519993D01*
X160514424Y-78727932D01*
X160443073Y-78865963D01*
X160321899Y-78983800D01*
X160300622Y-79001015D01*
X160056330Y-79144878D01*
X159822856Y-79198242D01*
X159655462Y-79148971D01*
X159650090Y-79143868D01*
X159642401Y-79036744D01*
X159685172Y-78924950D01*
X159740061Y-78779009D01*
X159734899Y-78720677D01*
X159637381Y-78698146D01*
X159415867Y-78674542D01*
X159115595Y-78654524D01*
X159071872Y-78652368D01*
X158591441Y-78609213D01*
X158235803Y-78533479D01*
X158021789Y-78429636D01*
X157969713Y-78359844D01*
X157862542Y-78291533D01*
X157622507Y-78258734D01*
X157282681Y-78263214D01*
X156902500Y-78302893D01*
X156607487Y-78329473D01*
X156469763Y-78301747D01*
X156458000Y-78276041D01*
X156400357Y-78227506D01*
X156236035Y-78269916D01*
X156002430Y-78308847D01*
X155912611Y-78270103D01*
X155852972Y-78132796D01*
X155836920Y-77906812D01*
X155862280Y-77666507D01*
X155926882Y-77486239D01*
X155935878Y-77473790D01*
X156003735Y-77347106D01*
X156103871Y-77114462D01*
X156198588Y-76869000D01*
X156345910Y-76517271D01*
X156523551Y-76160779D01*
X156632812Y-75973165D01*
X156810741Y-75653172D01*
X156978073Y-75286130D01*
X157038574Y-75126499D01*
X157151692Y-74836543D01*
X157315478Y-74463620D01*
X157500441Y-74073923D01*
X157563609Y-73948000D01*
X157720236Y-73630377D01*
X157839339Y-73368573D01*
X157904743Y-73199259D01*
X157911862Y-73158427D01*
X157949055Y-73053824D01*
X158064849Y-72885383D01*
X158094515Y-72849107D01*
X158192253Y-72703212D01*
X158350626Y-72431879D01*
X158555182Y-72061447D01*
X158791467Y-71618251D01*
X159045029Y-71128630D01*
X159124809Y-70971681D01*
X159377952Y-70475182D01*
X159614440Y-70018384D01*
X159820606Y-69627136D01*
X159982782Y-69327285D01*
X160087302Y-69144683D01*
X160106488Y-69115022D01*
X160301916Y-68815801D01*
X160517300Y-68454815D01*
X160731316Y-68071682D01*
X160922641Y-67706017D01*
X161069952Y-67397438D01*
X161151926Y-67185560D01*
X161157934Y-67161522D01*
X161230889Y-66927131D01*
X161323417Y-66754127D01*
X161325742Y-66751334D01*
X161438840Y-66565459D01*
X161491358Y-66433834D01*
X161594218Y-66284140D01*
X161788647Y-66243334D01*
X162007020Y-66302151D01*
G36*
X116664667Y-78477667D02*
X116622334Y-78520000D01*
X116580000Y-78477667D01*
X116622334Y-78435334D01*
X116664667Y-78477667D01*
X116664667Y-78477667D01*
G37*
X116664667Y-78477667D02*
X116622334Y-78520000D01*
X116580000Y-78477667D01*
X116622334Y-78435334D01*
X116664667Y-78477667D01*
G36*
X158014735Y-65245369D02*
X157988096Y-65544232D01*
X157932934Y-65812458D01*
X157909920Y-65880369D01*
X157842681Y-66069910D01*
X157747059Y-66367852D01*
X157640410Y-66719559D01*
X157606365Y-66836000D01*
X157508644Y-67187882D01*
X157460039Y-67413768D01*
X157456958Y-67548586D01*
X157495810Y-67627260D01*
X157522560Y-67651042D01*
X157600481Y-67756059D01*
X157579603Y-67917087D01*
X157553639Y-67989709D01*
X157504449Y-68157194D01*
X157431826Y-68454773D01*
X157344058Y-68846204D01*
X157249435Y-69295245D01*
X157207514Y-69503000D01*
X157099045Y-70010045D01*
X156972415Y-70540794D01*
X156836433Y-71064076D01*
X156699907Y-71548719D01*
X156571645Y-71963549D01*
X156460455Y-72277395D01*
X156375147Y-72459084D01*
X156370167Y-72466334D01*
X156292185Y-72643894D01*
X156208510Y-72945316D01*
X156127842Y-73325740D01*
X156058880Y-73740308D01*
X156010324Y-74144161D01*
X155992511Y-74413667D01*
X155960882Y-74833434D01*
X155900205Y-75276744D01*
X155825641Y-75638939D01*
X155750092Y-75976487D01*
X155740515Y-76166906D01*
X155773484Y-76217495D01*
X155852151Y-76321946D01*
X155866772Y-76519573D01*
X155824075Y-76749719D01*
X155730791Y-76951726D01*
X155686005Y-77005996D01*
X155530484Y-77217988D01*
X155447665Y-77408162D01*
X155314164Y-77617492D01*
X155113108Y-77721843D01*
X154890940Y-77844473D01*
X154737522Y-78014182D01*
X154735495Y-78018177D01*
X154602524Y-78171591D01*
X154426780Y-78252644D01*
X154271192Y-78239809D01*
X154222048Y-78193816D01*
X154205628Y-78052300D01*
X154226396Y-77968762D01*
X154234509Y-77832792D01*
X154123288Y-77748621D01*
X153877642Y-77711291D01*
X153482482Y-77715844D01*
X153460131Y-77716998D01*
X153141406Y-77721184D01*
X152890792Y-77700868D01*
X152760485Y-77661287D01*
X152620943Y-77613338D01*
X152567042Y-77628708D01*
X152425247Y-77638441D01*
X152372834Y-77614830D01*
X152209069Y-77561103D01*
X152055334Y-77546334D01*
X151894592Y-77511608D01*
X151849998Y-77380358D01*
X151850389Y-77355834D01*
X151828022Y-77224149D01*
X151716358Y-77172076D01*
X151575223Y-77165334D01*
X151361838Y-77134791D01*
X151293335Y-77039006D01*
X151293334Y-77038334D01*
X151227896Y-76943657D01*
X151020243Y-76911442D01*
X151001997Y-76911334D01*
X150793411Y-76891997D01*
X150670752Y-76844767D01*
X150665351Y-76838021D01*
X150557719Y-76796752D01*
X150407407Y-76805357D01*
X150213628Y-76794061D01*
X150137534Y-76678826D01*
X150183612Y-76481649D01*
X150302545Y-76291256D01*
X150478714Y-76025116D01*
X150626811Y-75744986D01*
X150639701Y-75715201D01*
X150783251Y-75482120D01*
X151001527Y-75238586D01*
X151103574Y-75149512D01*
X151351756Y-74900018D01*
X151571362Y-74593121D01*
X151630977Y-74481597D01*
X151784782Y-74187164D01*
X151985708Y-73844302D01*
X152133385Y-73613333D01*
X152304657Y-73340755D01*
X152521409Y-72970993D01*
X152752629Y-72557934D01*
X152919262Y-72247626D01*
X153163355Y-71798937D01*
X153439713Y-71315657D01*
X153707246Y-70868660D01*
X153851874Y-70638959D01*
X154089798Y-70268582D01*
X154330025Y-69889286D01*
X154533058Y-69563611D01*
X154596038Y-69460667D01*
X155015074Y-68772296D01*
X155362670Y-68208136D01*
X155653078Y-67746349D01*
X155900553Y-67365099D01*
X156119348Y-67042546D01*
X156323716Y-66756853D01*
X156527911Y-66486182D01*
X156587739Y-66409161D01*
X156847167Y-66055701D01*
X157076033Y-65705038D01*
X157244914Y-65404277D01*
X157310640Y-65251810D01*
X157400751Y-65010636D01*
X157489069Y-64890667D01*
X157619439Y-64850040D01*
X157735309Y-64846334D01*
X158024334Y-64846334D01*
X158014735Y-65245369D01*
X158014735Y-65245369D01*
G37*
X158014735Y-65245369D02*
X157988096Y-65544232D01*
X157932934Y-65812458D01*
X157909920Y-65880369D01*
X157842681Y-66069910D01*
X157747059Y-66367852D01*
X157640410Y-66719559D01*
X157606365Y-66836000D01*
X157508644Y-67187882D01*
X157460039Y-67413768D01*
X157456958Y-67548586D01*
X157495810Y-67627260D01*
X157522560Y-67651042D01*
X157600481Y-67756059D01*
X157579603Y-67917087D01*
X157553639Y-67989709D01*
X157504449Y-68157194D01*
X157431826Y-68454773D01*
X157344058Y-68846204D01*
X157249435Y-69295245D01*
X157207514Y-69503000D01*
X157099045Y-70010045D01*
X156972415Y-70540794D01*
X156836433Y-71064076D01*
X156699907Y-71548719D01*
X156571645Y-71963549D01*
X156460455Y-72277395D01*
X156375147Y-72459084D01*
X156370167Y-72466334D01*
X156292185Y-72643894D01*
X156208510Y-72945316D01*
X156127842Y-73325740D01*
X156058880Y-73740308D01*
X156010324Y-74144161D01*
X155992511Y-74413667D01*
X155960882Y-74833434D01*
X155900205Y-75276744D01*
X155825641Y-75638939D01*
X155750092Y-75976487D01*
X155740515Y-76166906D01*
X155773484Y-76217495D01*
X155852151Y-76321946D01*
X155866772Y-76519573D01*
X155824075Y-76749719D01*
X155730791Y-76951726D01*
X155686005Y-77005996D01*
X155530484Y-77217988D01*
X155447665Y-77408162D01*
X155314164Y-77617492D01*
X155113108Y-77721843D01*
X154890940Y-77844473D01*
X154737522Y-78014182D01*
X154735495Y-78018177D01*
X154602524Y-78171591D01*
X154426780Y-78252644D01*
X154271192Y-78239809D01*
X154222048Y-78193816D01*
X154205628Y-78052300D01*
X154226396Y-77968762D01*
X154234509Y-77832792D01*
X154123288Y-77748621D01*
X153877642Y-77711291D01*
X153482482Y-77715844D01*
X153460131Y-77716998D01*
X153141406Y-77721184D01*
X152890792Y-77700868D01*
X152760485Y-77661287D01*
X152620943Y-77613338D01*
X152567042Y-77628708D01*
X152425247Y-77638441D01*
X152372834Y-77614830D01*
X152209069Y-77561103D01*
X152055334Y-77546334D01*
X151894592Y-77511608D01*
X151849998Y-77380358D01*
X151850389Y-77355834D01*
X151828022Y-77224149D01*
X151716358Y-77172076D01*
X151575223Y-77165334D01*
X151361838Y-77134791D01*
X151293335Y-77039006D01*
X151293334Y-77038334D01*
X151227896Y-76943657D01*
X151020243Y-76911442D01*
X151001997Y-76911334D01*
X150793411Y-76891997D01*
X150670752Y-76844767D01*
X150665351Y-76838021D01*
X150557719Y-76796752D01*
X150407407Y-76805357D01*
X150213628Y-76794061D01*
X150137534Y-76678826D01*
X150183612Y-76481649D01*
X150302545Y-76291256D01*
X150478714Y-76025116D01*
X150626811Y-75744986D01*
X150639701Y-75715201D01*
X150783251Y-75482120D01*
X151001527Y-75238586D01*
X151103574Y-75149512D01*
X151351756Y-74900018D01*
X151571362Y-74593121D01*
X151630977Y-74481597D01*
X151784782Y-74187164D01*
X151985708Y-73844302D01*
X152133385Y-73613333D01*
X152304657Y-73340755D01*
X152521409Y-72970993D01*
X152752629Y-72557934D01*
X152919262Y-72247626D01*
X153163355Y-71798937D01*
X153439713Y-71315657D01*
X153707246Y-70868660D01*
X153851874Y-70638959D01*
X154089798Y-70268582D01*
X154330025Y-69889286D01*
X154533058Y-69563611D01*
X154596038Y-69460667D01*
X155015074Y-68772296D01*
X155362670Y-68208136D01*
X155653078Y-67746349D01*
X155900553Y-67365099D01*
X156119348Y-67042546D01*
X156323716Y-66756853D01*
X156527911Y-66486182D01*
X156587739Y-66409161D01*
X156847167Y-66055701D01*
X157076033Y-65705038D01*
X157244914Y-65404277D01*
X157310640Y-65251810D01*
X157400751Y-65010636D01*
X157489069Y-64890667D01*
X157619439Y-64850040D01*
X157735309Y-64846334D01*
X158024334Y-64846334D01*
X158014735Y-65245369D01*
G36*
X119171926Y-64726909D02*
X119265377Y-64767590D01*
X119269147Y-64868307D01*
X119255586Y-64926933D01*
X119260661Y-65104196D01*
X119320948Y-65399715D01*
X119424421Y-65776334D01*
X119559050Y-66196900D01*
X119712809Y-66624256D01*
X119873668Y-67021248D01*
X120029601Y-67350722D01*
X120056129Y-67399830D01*
X120229862Y-67743805D01*
X120396586Y-68121849D01*
X120461245Y-68288830D01*
X120635812Y-68763452D01*
X120819529Y-69247175D01*
X120998294Y-69704335D01*
X121158006Y-70099272D01*
X121284565Y-70396324D01*
X121347376Y-70529831D01*
X121412932Y-70684889D01*
X121520834Y-70972516D01*
X121660955Y-71364280D01*
X121823169Y-71831753D01*
X121997348Y-72346505D01*
X122038673Y-72470510D01*
X122240548Y-73055387D01*
X122461696Y-73657838D01*
X122684609Y-74232678D01*
X122891780Y-74734718D01*
X123060810Y-75108727D01*
X123276713Y-75571362D01*
X123416335Y-75918776D01*
X123490170Y-76181159D01*
X123508714Y-76388699D01*
X123508449Y-76396397D01*
X123484922Y-76596659D01*
X123441905Y-76691773D01*
X123424406Y-76691265D01*
X123310256Y-76701855D01*
X123168752Y-76777017D01*
X122997923Y-76857806D01*
X122868682Y-76810911D01*
X122737246Y-76760492D01*
X122655479Y-76813322D01*
X122490928Y-76897870D01*
X122396085Y-76911334D01*
X122232439Y-76974003D01*
X122068207Y-77123000D01*
X121901839Y-77273030D01*
X121738522Y-77334667D01*
X121604572Y-77384885D01*
X121575334Y-77451300D01*
X121515502Y-77596451D01*
X121435360Y-77684133D01*
X121332802Y-77752002D01*
X121193142Y-77798340D01*
X120972231Y-77833112D01*
X120629889Y-77865951D01*
X120438129Y-77902100D01*
X120340611Y-77948500D01*
X120198552Y-78007078D01*
X120089975Y-77921359D01*
X119969558Y-77870808D01*
X119739680Y-77880552D01*
X119722403Y-77883355D01*
X119410850Y-77935992D01*
X119290304Y-77402496D01*
X119212279Y-77039981D01*
X119174506Y-76802547D01*
X119174551Y-76651409D01*
X119209976Y-76547785D01*
X119234225Y-76509936D01*
X119266570Y-76368789D01*
X119263303Y-76131200D01*
X119248314Y-76001936D01*
X119222333Y-75773835D01*
X119191686Y-75418356D01*
X119159554Y-74977270D01*
X119129119Y-74492350D01*
X119117662Y-74286667D01*
X119060152Y-73225193D01*
X119009073Y-72316078D01*
X118963200Y-71542523D01*
X118921308Y-70887728D01*
X118882170Y-70334892D01*
X118844562Y-69867214D01*
X118807258Y-69467896D01*
X118769032Y-69120135D01*
X118728660Y-68807133D01*
X118706976Y-68656334D01*
X118658540Y-68258383D01*
X118619457Y-67797296D01*
X118590412Y-67304406D01*
X118572092Y-66811047D01*
X118565183Y-66348553D01*
X118570373Y-65948257D01*
X118588347Y-65641493D01*
X118619791Y-65459595D01*
X118636272Y-65428839D01*
X118661426Y-65315061D01*
X118650986Y-65105639D01*
X118642430Y-65044972D01*
X118590358Y-64719334D01*
X118949024Y-64719334D01*
X119171926Y-64726909D01*
X119171926Y-64726909D01*
G37*
X119171926Y-64726909D02*
X119265377Y-64767590D01*
X119269147Y-64868307D01*
X119255586Y-64926933D01*
X119260661Y-65104196D01*
X119320948Y-65399715D01*
X119424421Y-65776334D01*
X119559050Y-66196900D01*
X119712809Y-66624256D01*
X119873668Y-67021248D01*
X120029601Y-67350722D01*
X120056129Y-67399830D01*
X120229862Y-67743805D01*
X120396586Y-68121849D01*
X120461245Y-68288830D01*
X120635812Y-68763452D01*
X120819529Y-69247175D01*
X120998294Y-69704335D01*
X121158006Y-70099272D01*
X121284565Y-70396324D01*
X121347376Y-70529831D01*
X121412932Y-70684889D01*
X121520834Y-70972516D01*
X121660955Y-71364280D01*
X121823169Y-71831753D01*
X121997348Y-72346505D01*
X122038673Y-72470510D01*
X122240548Y-73055387D01*
X122461696Y-73657838D01*
X122684609Y-74232678D01*
X122891780Y-74734718D01*
X123060810Y-75108727D01*
X123276713Y-75571362D01*
X123416335Y-75918776D01*
X123490170Y-76181159D01*
X123508714Y-76388699D01*
X123508449Y-76396397D01*
X123484922Y-76596659D01*
X123441905Y-76691773D01*
X123424406Y-76691265D01*
X123310256Y-76701855D01*
X123168752Y-76777017D01*
X122997923Y-76857806D01*
X122868682Y-76810911D01*
X122737246Y-76760492D01*
X122655479Y-76813322D01*
X122490928Y-76897870D01*
X122396085Y-76911334D01*
X122232439Y-76974003D01*
X122068207Y-77123000D01*
X121901839Y-77273030D01*
X121738522Y-77334667D01*
X121604572Y-77384885D01*
X121575334Y-77451300D01*
X121515502Y-77596451D01*
X121435360Y-77684133D01*
X121332802Y-77752002D01*
X121193142Y-77798340D01*
X120972231Y-77833112D01*
X120629889Y-77865951D01*
X120438129Y-77902100D01*
X120340611Y-77948500D01*
X120198552Y-78007078D01*
X120089975Y-77921359D01*
X119969558Y-77870808D01*
X119739680Y-77880552D01*
X119722403Y-77883355D01*
X119410850Y-77935992D01*
X119290304Y-77402496D01*
X119212279Y-77039981D01*
X119174506Y-76802547D01*
X119174551Y-76651409D01*
X119209976Y-76547785D01*
X119234225Y-76509936D01*
X119266570Y-76368789D01*
X119263303Y-76131200D01*
X119248314Y-76001936D01*
X119222333Y-75773835D01*
X119191686Y-75418356D01*
X119159554Y-74977270D01*
X119129119Y-74492350D01*
X119117662Y-74286667D01*
X119060152Y-73225193D01*
X119009073Y-72316078D01*
X118963200Y-71542523D01*
X118921308Y-70887728D01*
X118882170Y-70334892D01*
X118844562Y-69867214D01*
X118807258Y-69467896D01*
X118769032Y-69120135D01*
X118728660Y-68807133D01*
X118706976Y-68656334D01*
X118658540Y-68258383D01*
X118619457Y-67797296D01*
X118590412Y-67304406D01*
X118572092Y-66811047D01*
X118565183Y-66348553D01*
X118570373Y-65948257D01*
X118588347Y-65641493D01*
X118619791Y-65459595D01*
X118636272Y-65428839D01*
X118661426Y-65315061D01*
X118650986Y-65105639D01*
X118642430Y-65044972D01*
X118590358Y-64719334D01*
X118949024Y-64719334D01*
X119171926Y-64726909D01*
G36*
X123491917Y-63395014D02*
X123522667Y-63515792D01*
X123560487Y-63714433D01*
X123661487Y-64018298D01*
X123806974Y-64385618D01*
X123978255Y-64774624D01*
X124156636Y-65143547D01*
X124323426Y-65450618D01*
X124459932Y-65654068D01*
X124497021Y-65693000D01*
X124573855Y-65806526D01*
X124698765Y-66040893D01*
X124855274Y-66360399D01*
X125026905Y-66729338D01*
X125197182Y-67112007D01*
X125349628Y-67472701D01*
X125467766Y-67775716D01*
X125498512Y-67863177D01*
X125580214Y-68064677D01*
X125717935Y-68360557D01*
X125897534Y-68724356D01*
X126104873Y-69129612D01*
X126325810Y-69549863D01*
X126546208Y-69958648D01*
X126751926Y-70329504D01*
X126928824Y-70635970D01*
X127062763Y-70851585D01*
X127139604Y-70949886D01*
X127149321Y-70952597D01*
X127206296Y-71010882D01*
X127321799Y-71193943D01*
X127479859Y-71474491D01*
X127664504Y-71825238D01*
X127694083Y-71883355D01*
X127892959Y-72280606D01*
X128020329Y-72551735D01*
X128083906Y-72720280D01*
X128091403Y-72809779D01*
X128050534Y-72843770D01*
X128009970Y-72847334D01*
X127891790Y-72873573D01*
X127873861Y-72984810D01*
X127893062Y-73080167D01*
X128003310Y-73369554D01*
X128155784Y-73512052D01*
X128224481Y-73524667D01*
X128319774Y-73595041D01*
X128446095Y-73775476D01*
X128526937Y-73926834D01*
X128679875Y-74227822D01*
X128870794Y-74580844D01*
X129003649Y-74814873D01*
X129157071Y-75096557D01*
X129224873Y-75282704D01*
X129219505Y-75415822D01*
X129195848Y-75471040D01*
X129104290Y-75594018D01*
X128975520Y-75634271D01*
X128760216Y-75599876D01*
X128628212Y-75563993D01*
X128427528Y-75527100D01*
X128305735Y-75581907D01*
X128237762Y-75669826D01*
X128088367Y-75815970D01*
X127878811Y-75937103D01*
X127672089Y-76004605D01*
X127532022Y-75990470D01*
X127454033Y-75886456D01*
X127344041Y-75687862D01*
X127300734Y-75599000D01*
X127199617Y-75400707D01*
X127137576Y-75341210D01*
X127091014Y-75402000D01*
X127081476Y-75426985D01*
X126967234Y-75583879D01*
X126776562Y-75728572D01*
X126774741Y-75729580D01*
X126571189Y-75907603D01*
X126502273Y-76128123D01*
X126431015Y-76385687D01*
X126296340Y-76531821D01*
X126126152Y-76541080D01*
X126076737Y-76516185D01*
X125913338Y-76477204D01*
X125740819Y-76554848D01*
X125568942Y-76633365D01*
X125451492Y-76587987D01*
X125448719Y-76585253D01*
X125299874Y-76496019D01*
X125161303Y-76557027D01*
X125029438Y-76742535D01*
X124867499Y-76941551D01*
X124711161Y-76980508D01*
X124578722Y-76858640D01*
X124535991Y-76763167D01*
X124428757Y-76503896D01*
X124337804Y-76318667D01*
X124274788Y-76146584D01*
X124218641Y-75867312D01*
X124167601Y-75466272D01*
X124119909Y-74928889D01*
X124073804Y-74240584D01*
X124061721Y-74032667D01*
X124009396Y-73297998D01*
X123934875Y-72516145D01*
X123843264Y-71725787D01*
X123739671Y-70965604D01*
X123629201Y-70274278D01*
X123516960Y-69690489D01*
X123451485Y-69410240D01*
X123401609Y-69165945D01*
X123349791Y-68833339D01*
X123302275Y-68464915D01*
X123265305Y-68113167D01*
X123245126Y-67830588D01*
X123245991Y-67682667D01*
X123242509Y-67552344D01*
X123221942Y-67291909D01*
X123187680Y-66939343D01*
X123143928Y-66539667D01*
X123104060Y-66140553D01*
X123081761Y-65802752D01*
X123078579Y-65561653D01*
X123096062Y-65452650D01*
X123096369Y-65452324D01*
X123111366Y-65334403D01*
X123051361Y-65160360D01*
X122986814Y-64934951D01*
X122949698Y-64580153D01*
X122942656Y-64246266D01*
X122949021Y-63901762D01*
X122968118Y-63687506D01*
X123010475Y-63564425D01*
X123086621Y-63493449D01*
X123154856Y-63458729D01*
X123378741Y-63376308D01*
X123491917Y-63395014D01*
X123491917Y-63395014D01*
G37*
X123491917Y-63395014D02*
X123522667Y-63515792D01*
X123560487Y-63714433D01*
X123661487Y-64018298D01*
X123806974Y-64385618D01*
X123978255Y-64774624D01*
X124156636Y-65143547D01*
X124323426Y-65450618D01*
X124459932Y-65654068D01*
X124497021Y-65693000D01*
X124573855Y-65806526D01*
X124698765Y-66040893D01*
X124855274Y-66360399D01*
X125026905Y-66729338D01*
X125197182Y-67112007D01*
X125349628Y-67472701D01*
X125467766Y-67775716D01*
X125498512Y-67863177D01*
X125580214Y-68064677D01*
X125717935Y-68360557D01*
X125897534Y-68724356D01*
X126104873Y-69129612D01*
X126325810Y-69549863D01*
X126546208Y-69958648D01*
X126751926Y-70329504D01*
X126928824Y-70635970D01*
X127062763Y-70851585D01*
X127139604Y-70949886D01*
X127149321Y-70952597D01*
X127206296Y-71010882D01*
X127321799Y-71193943D01*
X127479859Y-71474491D01*
X127664504Y-71825238D01*
X127694083Y-71883355D01*
X127892959Y-72280606D01*
X128020329Y-72551735D01*
X128083906Y-72720280D01*
X128091403Y-72809779D01*
X128050534Y-72843770D01*
X128009970Y-72847334D01*
X127891790Y-72873573D01*
X127873861Y-72984810D01*
X127893062Y-73080167D01*
X128003310Y-73369554D01*
X128155784Y-73512052D01*
X128224481Y-73524667D01*
X128319774Y-73595041D01*
X128446095Y-73775476D01*
X128526937Y-73926834D01*
X128679875Y-74227822D01*
X128870794Y-74580844D01*
X129003649Y-74814873D01*
X129157071Y-75096557D01*
X129224873Y-75282704D01*
X129219505Y-75415822D01*
X129195848Y-75471040D01*
X129104290Y-75594018D01*
X128975520Y-75634271D01*
X128760216Y-75599876D01*
X128628212Y-75563993D01*
X128427528Y-75527100D01*
X128305735Y-75581907D01*
X128237762Y-75669826D01*
X128088367Y-75815970D01*
X127878811Y-75937103D01*
X127672089Y-76004605D01*
X127532022Y-75990470D01*
X127454033Y-75886456D01*
X127344041Y-75687862D01*
X127300734Y-75599000D01*
X127199617Y-75400707D01*
X127137576Y-75341210D01*
X127091014Y-75402000D01*
X127081476Y-75426985D01*
X126967234Y-75583879D01*
X126776562Y-75728572D01*
X126774741Y-75729580D01*
X126571189Y-75907603D01*
X126502273Y-76128123D01*
X126431015Y-76385687D01*
X126296340Y-76531821D01*
X126126152Y-76541080D01*
X126076737Y-76516185D01*
X125913338Y-76477204D01*
X125740819Y-76554848D01*
X125568942Y-76633365D01*
X125451492Y-76587987D01*
X125448719Y-76585253D01*
X125299874Y-76496019D01*
X125161303Y-76557027D01*
X125029438Y-76742535D01*
X124867499Y-76941551D01*
X124711161Y-76980508D01*
X124578722Y-76858640D01*
X124535991Y-76763167D01*
X124428757Y-76503896D01*
X124337804Y-76318667D01*
X124274788Y-76146584D01*
X124218641Y-75867312D01*
X124167601Y-75466272D01*
X124119909Y-74928889D01*
X124073804Y-74240584D01*
X124061721Y-74032667D01*
X124009396Y-73297998D01*
X123934875Y-72516145D01*
X123843264Y-71725787D01*
X123739671Y-70965604D01*
X123629201Y-70274278D01*
X123516960Y-69690489D01*
X123451485Y-69410240D01*
X123401609Y-69165945D01*
X123349791Y-68833339D01*
X123302275Y-68464915D01*
X123265305Y-68113167D01*
X123245126Y-67830588D01*
X123245991Y-67682667D01*
X123242509Y-67552344D01*
X123221942Y-67291909D01*
X123187680Y-66939343D01*
X123143928Y-66539667D01*
X123104060Y-66140553D01*
X123081761Y-65802752D01*
X123078579Y-65561653D01*
X123096062Y-65452650D01*
X123096369Y-65452324D01*
X123111366Y-65334403D01*
X123051361Y-65160360D01*
X122986814Y-64934951D01*
X122949698Y-64580153D01*
X122942656Y-64246266D01*
X122949021Y-63901762D01*
X122968118Y-63687506D01*
X123010475Y-63564425D01*
X123086621Y-63493449D01*
X123154856Y-63458729D01*
X123378741Y-63376308D01*
X123491917Y-63395014D01*
G36*
X139804737Y-74079606D02*
X140064643Y-74283550D01*
X140106545Y-74329648D01*
X140255364Y-74520598D01*
X140332331Y-74662836D01*
X140333875Y-74702113D01*
X140363124Y-74796163D01*
X140486048Y-74951048D01*
X140543677Y-75009218D01*
X140703553Y-75197099D01*
X140789791Y-75366017D01*
X140794667Y-75400195D01*
X140721578Y-75571747D01*
X140528698Y-75678756D01*
X140255609Y-75713901D01*
X139941891Y-75669860D01*
X139736334Y-75595942D01*
X139517826Y-75534410D01*
X139203697Y-75490817D01*
X138910834Y-75475819D01*
X138603248Y-75461600D01*
X138402043Y-75427171D01*
X138339334Y-75383984D01*
X138392875Y-75269278D01*
X138524767Y-75099906D01*
X138555398Y-75066484D01*
X138733773Y-74860015D01*
X138944021Y-74593445D01*
X139045803Y-74456000D01*
X139306503Y-74164498D01*
X139555753Y-74039478D01*
X139804737Y-74079606D01*
X139804737Y-74079606D01*
G37*
X139804737Y-74079606D02*
X140064643Y-74283550D01*
X140106545Y-74329648D01*
X140255364Y-74520598D01*
X140332331Y-74662836D01*
X140333875Y-74702113D01*
X140363124Y-74796163D01*
X140486048Y-74951048D01*
X140543677Y-75009218D01*
X140703553Y-75197099D01*
X140789791Y-75366017D01*
X140794667Y-75400195D01*
X140721578Y-75571747D01*
X140528698Y-75678756D01*
X140255609Y-75713901D01*
X139941891Y-75669860D01*
X139736334Y-75595942D01*
X139517826Y-75534410D01*
X139203697Y-75490817D01*
X138910834Y-75475819D01*
X138603248Y-75461600D01*
X138402043Y-75427171D01*
X138339334Y-75383984D01*
X138392875Y-75269278D01*
X138524767Y-75099906D01*
X138555398Y-75066484D01*
X138733773Y-74860015D01*
X138944021Y-74593445D01*
X139045803Y-74456000D01*
X139306503Y-74164498D01*
X139555753Y-74039478D01*
X139804737Y-74079606D01*
G36*
X113870667Y-66624334D02*
X113828334Y-66666667D01*
X113786000Y-66624334D01*
X113828334Y-66582000D01*
X113870667Y-66624334D01*
X113870667Y-66624334D01*
G37*
X113870667Y-66624334D02*
X113828334Y-66666667D01*
X113786000Y-66624334D01*
X113828334Y-66582000D01*
X113870667Y-66624334D01*
G36*
X130908051Y-60842462D02*
X131218596Y-60879982D01*
X131435506Y-60957946D01*
X131634221Y-61107467D01*
X131699371Y-61168804D01*
X132103055Y-61647234D01*
X132383344Y-62167363D01*
X132537817Y-62704031D01*
X132564053Y-63232082D01*
X132459629Y-63726358D01*
X132222125Y-64161701D01*
X132009306Y-64388943D01*
X131560000Y-64697198D01*
X131046665Y-64909036D01*
X130520151Y-65009576D01*
X130031304Y-64983938D01*
X129999667Y-64977001D01*
X129715740Y-64888799D01*
X129476093Y-64751218D01*
X129235222Y-64531213D01*
X128981621Y-64237684D01*
X128596748Y-63716027D01*
X128357733Y-63275350D01*
X128265230Y-62916889D01*
X128264000Y-62876616D01*
X128281058Y-62804267D01*
X128826532Y-62804267D01*
X128900282Y-63126445D01*
X129099302Y-63476305D01*
X129380329Y-63823407D01*
X129735502Y-64187108D01*
X130049633Y-64414958D01*
X130361683Y-64520345D01*
X130710615Y-64516661D01*
X131120946Y-64421607D01*
X131548826Y-64221260D01*
X131853376Y-63923573D01*
X132021849Y-63551228D01*
X132041497Y-63126904D01*
X131985482Y-62883352D01*
X131767686Y-62411816D01*
X131453784Y-61988061D01*
X131086879Y-61668386D01*
X131026694Y-61630986D01*
X130741914Y-61500236D01*
X130458477Y-61428294D01*
X130225390Y-61422491D01*
X130091661Y-61490156D01*
X130091092Y-61491064D01*
X129982013Y-61560890D01*
X129810929Y-61613552D01*
X129518598Y-61738092D01*
X129224644Y-61963691D01*
X128985881Y-62238263D01*
X128866440Y-62479400D01*
X128826532Y-62804267D01*
X128281058Y-62804267D01*
X128334269Y-62578589D01*
X128529528Y-62231535D01*
X128826459Y-61868146D01*
X129201739Y-61521111D01*
X129268442Y-61468560D01*
X129696236Y-61162147D01*
X130055195Y-60965534D01*
X130389054Y-60862022D01*
X130741544Y-60834911D01*
X130908051Y-60842462D01*
X130908051Y-60842462D01*
G37*
X130908051Y-60842462D02*
X131218596Y-60879982D01*
X131435506Y-60957946D01*
X131634221Y-61107467D01*
X131699371Y-61168804D01*
X132103055Y-61647234D01*
X132383344Y-62167363D01*
X132537817Y-62704031D01*
X132564053Y-63232082D01*
X132459629Y-63726358D01*
X132222125Y-64161701D01*
X132009306Y-64388943D01*
X131560000Y-64697198D01*
X131046665Y-64909036D01*
X130520151Y-65009576D01*
X130031304Y-64983938D01*
X129999667Y-64977001D01*
X129715740Y-64888799D01*
X129476093Y-64751218D01*
X129235222Y-64531213D01*
X128981621Y-64237684D01*
X128596748Y-63716027D01*
X128357733Y-63275350D01*
X128265230Y-62916889D01*
X128264000Y-62876616D01*
X128281058Y-62804267D01*
X128826532Y-62804267D01*
X128900282Y-63126445D01*
X129099302Y-63476305D01*
X129380329Y-63823407D01*
X129735502Y-64187108D01*
X130049633Y-64414958D01*
X130361683Y-64520345D01*
X130710615Y-64516661D01*
X131120946Y-64421607D01*
X131548826Y-64221260D01*
X131853376Y-63923573D01*
X132021849Y-63551228D01*
X132041497Y-63126904D01*
X131985482Y-62883352D01*
X131767686Y-62411816D01*
X131453784Y-61988061D01*
X131086879Y-61668386D01*
X131026694Y-61630986D01*
X130741914Y-61500236D01*
X130458477Y-61428294D01*
X130225390Y-61422491D01*
X130091661Y-61490156D01*
X130091092Y-61491064D01*
X129982013Y-61560890D01*
X129810929Y-61613552D01*
X129518598Y-61738092D01*
X129224644Y-61963691D01*
X128985881Y-62238263D01*
X128866440Y-62479400D01*
X128826532Y-62804267D01*
X128281058Y-62804267D01*
X128334269Y-62578589D01*
X128529528Y-62231535D01*
X128826459Y-61868146D01*
X129201739Y-61521111D01*
X129268442Y-61468560D01*
X129696236Y-61162147D01*
X130055195Y-60965534D01*
X130389054Y-60862022D01*
X130741544Y-60834911D01*
X130908051Y-60842462D01*
G36*
X163438067Y-55861927D02*
X163443000Y-55914000D01*
X163320498Y-55991904D01*
X163268670Y-55998667D01*
X163159243Y-55951328D01*
X163146667Y-55914000D01*
X163217793Y-55845875D01*
X163320997Y-55829334D01*
X163438067Y-55861927D01*
X163438067Y-55861927D01*
G37*
X163438067Y-55861927D02*
X163443000Y-55914000D01*
X163320498Y-55991904D01*
X163268670Y-55998667D01*
X163159243Y-55951328D01*
X163146667Y-55914000D01*
X163217793Y-55845875D01*
X163320997Y-55829334D01*
X163438067Y-55861927D01*
G36*
X163901171Y-120366385D02*
X164185787Y-120468776D01*
X164371519Y-120596223D01*
X164474751Y-120817873D01*
X164505268Y-121129946D01*
X164469848Y-121473351D01*
X164375270Y-121788997D01*
X164228312Y-122017792D01*
X164206174Y-122037692D01*
X164048660Y-122103858D01*
X163800045Y-122147496D01*
X163519913Y-122165636D01*
X163267847Y-122155307D01*
X163103431Y-122113540D01*
X163079660Y-122093856D01*
X162894142Y-121741105D01*
X162823539Y-121356273D01*
X162861237Y-120979448D01*
X163000627Y-120650718D01*
X163235097Y-120410170D01*
X163368606Y-120341854D01*
X163602906Y-120317516D01*
X163901171Y-120366385D01*
X163901171Y-120366385D01*
G37*
X163901171Y-120366385D02*
X164185787Y-120468776D01*
X164371519Y-120596223D01*
X164474751Y-120817873D01*
X164505268Y-121129946D01*
X164469848Y-121473351D01*
X164375270Y-121788997D01*
X164228312Y-122017792D01*
X164206174Y-122037692D01*
X164048660Y-122103858D01*
X163800045Y-122147496D01*
X163519913Y-122165636D01*
X163267847Y-122155307D01*
X163103431Y-122113540D01*
X163079660Y-122093856D01*
X162894142Y-121741105D01*
X162823539Y-121356273D01*
X162861237Y-120979448D01*
X163000627Y-120650718D01*
X163235097Y-120410170D01*
X163368606Y-120341854D01*
X163602906Y-120317516D01*
X163901171Y-120366385D01*
G36*
X130746172Y-62188653D02*
X130864591Y-62340021D01*
X131034601Y-62706135D01*
X131052054Y-63053733D01*
X130918410Y-63357904D01*
X130797504Y-63484141D01*
X130512999Y-63668467D01*
X130277843Y-63693299D01*
X130080045Y-63556978D01*
X129959054Y-63368040D01*
X129810305Y-62970474D01*
X129810059Y-62635608D01*
X129959903Y-62341947D01*
X130041448Y-62251526D01*
X130296274Y-62063932D01*
X130527493Y-62042578D01*
X130746172Y-62188653D01*
X130746172Y-62188653D01*
G37*
X130746172Y-62188653D02*
X130864591Y-62340021D01*
X131034601Y-62706135D01*
X131052054Y-63053733D01*
X130918410Y-63357904D01*
X130797504Y-63484141D01*
X130512999Y-63668467D01*
X130277843Y-63693299D01*
X130080045Y-63556978D01*
X129959054Y-63368040D01*
X129810305Y-62970474D01*
X129810059Y-62635608D01*
X129959903Y-62341947D01*
X130041448Y-62251526D01*
X130296274Y-62063932D01*
X130527493Y-62042578D01*
X130746172Y-62188653D01*
D13*
X165029000Y-80497000D03*
X167667000Y-80479000D03*
X111006000Y-79927000D03*
X111006000Y-79517000D03*
X111017000Y-79139000D03*
X114729000Y-79873000D03*
X114664000Y-79517000D03*
X114556000Y-79193000D03*
X138369000Y-121139000D03*
X139366000Y-121429000D03*
X137840000Y-121325000D03*
X138926000Y-121147000D03*
X137861000Y-127986000D03*
X138348000Y-127986000D03*
X138835000Y-127986000D03*
X139322000Y-127986000D03*
X167943000Y-80755000D03*
X167923000Y-80213000D03*
X165237000Y-80155000D03*
X164849000Y-80868000D03*
M02*
