G04 #@! TF.GenerationSoftware,KiCad,Pcbnew,5.0.0-fee4fd1~66~ubuntu16.04.1*
G04 #@! TF.CreationDate,2018-08-14T01:20:48+01:00*
G04 #@! TF.ProjectId,maulwurf,6D61756C777572662E6B696361645F70,rev?*
G04 #@! TF.SameCoordinates,Original*
G04 #@! TF.FileFunction,Legend,Top*
G04 #@! TF.FilePolarity,Positive*
%FSLAX46Y46*%
G04 Gerber Fmt 4.6, Leading zero omitted, Abs format (unit mm)*
G04 Created by KiCad (PCBNEW 5.0.0-fee4fd1~66~ubuntu16.04.1) date Tue Aug 14 01:20:48 2018*
%MOMM*%
%LPD*%
G01*
G04 APERTURE LIST*
%ADD10C,0.010000*%
G04 APERTURE END LIST*
D10*
G04 #@! TO.C,G\002A\002A\002A*
G36*
X150988055Y-67445359D02*
X151029719Y-67402366D01*
X151072712Y-67444029D01*
X151031049Y-67487021D01*
X150988055Y-67445359D01*
X150988055Y-67445359D01*
G37*
X150988055Y-67445359D02*
X151029719Y-67402366D01*
X151072712Y-67444029D01*
X151031049Y-67487021D01*
X150988055Y-67445359D01*
G36*
X139141504Y-67970168D02*
X139183167Y-67927174D01*
X139226161Y-67968838D01*
X139184497Y-68011831D01*
X139141504Y-67970168D01*
X139141504Y-67970168D01*
G37*
X139141504Y-67970168D02*
X139183167Y-67927174D01*
X139226161Y-67968838D01*
X139184497Y-68011831D01*
X139141504Y-67970168D01*
G36*
X154051638Y-68413357D02*
X154093302Y-68370365D01*
X154136294Y-68412028D01*
X154094631Y-68455020D01*
X154051638Y-68413357D01*
X154051638Y-68413357D01*
G37*
X154051638Y-68413357D02*
X154093302Y-68370365D01*
X154136294Y-68412028D01*
X154094631Y-68455020D01*
X154051638Y-68413357D01*
G36*
X138430646Y-69434958D02*
X138418936Y-69334651D01*
X138428873Y-69322083D01*
X138479384Y-69332914D01*
X138486198Y-69377635D01*
X138456318Y-69447803D01*
X138430646Y-69434958D01*
X138430646Y-69434958D01*
G37*
X138430646Y-69434958D02*
X138418936Y-69334651D01*
X138428873Y-69322083D01*
X138479384Y-69332914D01*
X138486198Y-69377635D01*
X138456318Y-69447803D01*
X138430646Y-69434958D01*
G36*
X117410683Y-74577212D02*
X117029501Y-74516243D01*
X116635523Y-74408568D01*
X116293679Y-74271236D01*
X116100470Y-74150716D01*
X115935250Y-73958911D01*
X115742005Y-73657491D01*
X115547696Y-73297003D01*
X115379281Y-72927989D01*
X115263720Y-72600996D01*
X115253740Y-72563231D01*
X115198597Y-71999237D01*
X115304719Y-71408183D01*
X115569141Y-70804247D01*
X115650714Y-70667128D01*
X115867529Y-70358099D01*
X116095773Y-70138505D01*
X116403808Y-69945639D01*
X116482901Y-69903769D01*
X116758098Y-69768488D01*
X116979397Y-69673697D01*
X117100099Y-69639342D01*
X117101695Y-69639456D01*
X117234471Y-69655112D01*
X117469739Y-69684847D01*
X117620208Y-69704378D01*
X118028971Y-69798295D01*
X118457069Y-69961162D01*
X118829071Y-70161611D01*
X118969914Y-70265658D01*
X119207844Y-70560175D01*
X119394926Y-70975299D01*
X119511663Y-71465230D01*
X119524987Y-71569385D01*
X119542303Y-71925133D01*
X119533593Y-72237239D01*
X118949971Y-72246407D01*
X118939538Y-71652833D01*
X118868246Y-71197850D01*
X118729414Y-70859620D01*
X118516363Y-70616302D01*
X118432817Y-70555827D01*
X118240860Y-70447604D01*
X118058394Y-70401672D01*
X117817018Y-70407219D01*
X117629803Y-70428887D01*
X117328885Y-70478557D01*
X117079151Y-70538342D01*
X116965722Y-70580629D01*
X116857251Y-70624609D01*
X116868956Y-70565450D01*
X116848199Y-70531748D01*
X116712790Y-70581755D01*
X116663311Y-70607242D01*
X116409446Y-70815196D01*
X116169458Y-71133088D01*
X115979286Y-71502967D01*
X115874871Y-71866882D01*
X115872792Y-71881969D01*
X115879377Y-72255409D01*
X115989726Y-72724099D01*
X116013279Y-72797695D01*
X116119892Y-73101066D01*
X116223188Y-73297414D01*
X116368321Y-73441969D01*
X116600437Y-73589955D01*
X116713852Y-73654629D01*
X117091267Y-73843362D01*
X117398064Y-73922670D01*
X117691371Y-73894287D01*
X118028310Y-73759942D01*
X118148546Y-73698118D01*
X118487707Y-73494708D01*
X118714830Y-73285029D01*
X118852613Y-73027965D01*
X118923751Y-72682404D01*
X118949971Y-72246407D01*
X119533593Y-72237239D01*
X119530509Y-72347733D01*
X119494613Y-72791222D01*
X119439621Y-73209635D01*
X119370541Y-73557012D01*
X119292380Y-73787388D01*
X119281173Y-73807401D01*
X119128688Y-73955750D01*
X118859974Y-74127264D01*
X118521756Y-74299072D01*
X118160762Y-74448300D01*
X117823715Y-74552079D01*
X117714143Y-74574427D01*
X117410683Y-74577212D01*
X117410683Y-74577212D01*
G37*
X117410683Y-74577212D02*
X117029501Y-74516243D01*
X116635523Y-74408568D01*
X116293679Y-74271236D01*
X116100470Y-74150716D01*
X115935250Y-73958911D01*
X115742005Y-73657491D01*
X115547696Y-73297003D01*
X115379281Y-72927989D01*
X115263720Y-72600996D01*
X115253740Y-72563231D01*
X115198597Y-71999237D01*
X115304719Y-71408183D01*
X115569141Y-70804247D01*
X115650714Y-70667128D01*
X115867529Y-70358099D01*
X116095773Y-70138505D01*
X116403808Y-69945639D01*
X116482901Y-69903769D01*
X116758098Y-69768488D01*
X116979397Y-69673697D01*
X117100099Y-69639342D01*
X117101695Y-69639456D01*
X117234471Y-69655112D01*
X117469739Y-69684847D01*
X117620208Y-69704378D01*
X118028971Y-69798295D01*
X118457069Y-69961162D01*
X118829071Y-70161611D01*
X118969914Y-70265658D01*
X119207844Y-70560175D01*
X119394926Y-70975299D01*
X119511663Y-71465230D01*
X119524987Y-71569385D01*
X119542303Y-71925133D01*
X119533593Y-72237239D01*
X118949971Y-72246407D01*
X118939538Y-71652833D01*
X118868246Y-71197850D01*
X118729414Y-70859620D01*
X118516363Y-70616302D01*
X118432817Y-70555827D01*
X118240860Y-70447604D01*
X118058394Y-70401672D01*
X117817018Y-70407219D01*
X117629803Y-70428887D01*
X117328885Y-70478557D01*
X117079151Y-70538342D01*
X116965722Y-70580629D01*
X116857251Y-70624609D01*
X116868956Y-70565450D01*
X116848199Y-70531748D01*
X116712790Y-70581755D01*
X116663311Y-70607242D01*
X116409446Y-70815196D01*
X116169458Y-71133088D01*
X115979286Y-71502967D01*
X115874871Y-71866882D01*
X115872792Y-71881969D01*
X115879377Y-72255409D01*
X115989726Y-72724099D01*
X116013279Y-72797695D01*
X116119892Y-73101066D01*
X116223188Y-73297414D01*
X116368321Y-73441969D01*
X116600437Y-73589955D01*
X116713852Y-73654629D01*
X117091267Y-73843362D01*
X117398064Y-73922670D01*
X117691371Y-73894287D01*
X118028310Y-73759942D01*
X118148546Y-73698118D01*
X118487707Y-73494708D01*
X118714830Y-73285029D01*
X118852613Y-73027965D01*
X118923751Y-72682404D01*
X118949971Y-72246407D01*
X119533593Y-72237239D01*
X119530509Y-72347733D01*
X119494613Y-72791222D01*
X119439621Y-73209635D01*
X119370541Y-73557012D01*
X119292380Y-73787388D01*
X119281173Y-73807401D01*
X119128688Y-73955750D01*
X118859974Y-74127264D01*
X118521756Y-74299072D01*
X118160762Y-74448300D01*
X117823715Y-74552079D01*
X117714143Y-74574427D01*
X117410683Y-74577212D01*
G36*
X128066884Y-75532857D02*
X127980313Y-75439253D01*
X127834123Y-75210167D01*
X127638220Y-74864522D01*
X127402507Y-74421240D01*
X127136890Y-73899241D01*
X126851274Y-73317448D01*
X126555564Y-72694783D01*
X126362930Y-72277749D01*
X126180023Y-71883587D01*
X126015515Y-71540774D01*
X125885099Y-71281187D01*
X125804466Y-71136702D01*
X125794352Y-71122795D01*
X125763916Y-70971765D01*
X125859589Y-70782853D01*
X126055489Y-70592823D01*
X126252826Y-70471579D01*
X126461148Y-70377608D01*
X126605794Y-70328229D01*
X126622320Y-70326101D01*
X126727668Y-70288245D01*
X126943017Y-70188150D01*
X127229490Y-70044262D01*
X127360554Y-69975795D01*
X127666930Y-69819569D01*
X127920489Y-69700639D01*
X128081525Y-69637210D01*
X128111679Y-69631478D01*
X128240381Y-69676172D01*
X128432319Y-69778564D01*
X128450598Y-69789714D01*
X128665937Y-69892236D01*
X128973366Y-70003045D01*
X129246804Y-70082214D01*
X129554737Y-70178082D01*
X129767864Y-70279868D01*
X129843387Y-70353835D01*
X129918642Y-70495074D01*
X130058324Y-70713125D01*
X130162644Y-70863225D01*
X130331168Y-71134601D01*
X130517708Y-71490391D01*
X130683084Y-71855629D01*
X130689396Y-71871075D01*
X130823418Y-72185364D01*
X130946734Y-72447806D01*
X131036534Y-72610442D01*
X131049077Y-72627519D01*
X131159790Y-72811484D01*
X131213319Y-72942478D01*
X131293399Y-73089131D01*
X131362366Y-73130660D01*
X131415942Y-73191297D01*
X131405235Y-73252668D01*
X131434301Y-73375439D01*
X131525912Y-73425832D01*
X131650864Y-73484006D01*
X131679741Y-73579672D01*
X131611238Y-73749943D01*
X131508301Y-73927390D01*
X131375097Y-74120414D01*
X131250848Y-74197533D01*
X131069296Y-74194554D01*
X131025506Y-74188288D01*
X130754093Y-74125458D01*
X130645971Y-74040594D01*
X130695977Y-73928904D01*
X130721110Y-73905807D01*
X130836390Y-73770336D01*
X130813575Y-73698943D01*
X130680303Y-73709311D01*
X130521431Y-73692361D01*
X130443750Y-73573744D01*
X130472081Y-73411467D01*
X130523315Y-73342423D01*
X130578995Y-73261469D01*
X130588304Y-73151758D01*
X130544843Y-72975465D01*
X130442217Y-72694767D01*
X130392296Y-72567784D01*
X130194796Y-72077066D01*
X130044453Y-71723785D01*
X129930515Y-71486252D01*
X129842230Y-71342779D01*
X129768849Y-71271678D01*
X129743744Y-71259524D01*
X129636345Y-71159308D01*
X129520899Y-70967353D01*
X129503976Y-70930370D01*
X129412124Y-70767110D01*
X129276706Y-70644071D01*
X129054608Y-70530897D01*
X128793053Y-70429791D01*
X128383447Y-70294623D01*
X128066893Y-70238010D01*
X127784645Y-70263482D01*
X127477951Y-70374565D01*
X127176574Y-70526874D01*
X126799839Y-70728836D01*
X126553952Y-70879683D01*
X126424990Y-71016138D01*
X126399035Y-71174928D01*
X126462164Y-71392780D01*
X126600456Y-71706415D01*
X126670937Y-71860817D01*
X126918223Y-72393973D01*
X127178911Y-72934329D01*
X127441480Y-73460153D01*
X127694404Y-73949715D01*
X127926162Y-74381279D01*
X128125230Y-74733114D01*
X128280083Y-74983488D01*
X128379201Y-75110667D01*
X128400226Y-75122182D01*
X128481702Y-75179475D01*
X128470923Y-75308343D01*
X128380207Y-75447181D01*
X128326631Y-75490201D01*
X128151038Y-75543602D01*
X128066884Y-75532857D01*
X128066884Y-75532857D01*
G37*
X128066884Y-75532857D02*
X127980313Y-75439253D01*
X127834123Y-75210167D01*
X127638220Y-74864522D01*
X127402507Y-74421240D01*
X127136890Y-73899241D01*
X126851274Y-73317448D01*
X126555564Y-72694783D01*
X126362930Y-72277749D01*
X126180023Y-71883587D01*
X126015515Y-71540774D01*
X125885099Y-71281187D01*
X125804466Y-71136702D01*
X125794352Y-71122795D01*
X125763916Y-70971765D01*
X125859589Y-70782853D01*
X126055489Y-70592823D01*
X126252826Y-70471579D01*
X126461148Y-70377608D01*
X126605794Y-70328229D01*
X126622320Y-70326101D01*
X126727668Y-70288245D01*
X126943017Y-70188150D01*
X127229490Y-70044262D01*
X127360554Y-69975795D01*
X127666930Y-69819569D01*
X127920489Y-69700639D01*
X128081525Y-69637210D01*
X128111679Y-69631478D01*
X128240381Y-69676172D01*
X128432319Y-69778564D01*
X128450598Y-69789714D01*
X128665937Y-69892236D01*
X128973366Y-70003045D01*
X129246804Y-70082214D01*
X129554737Y-70178082D01*
X129767864Y-70279868D01*
X129843387Y-70353835D01*
X129918642Y-70495074D01*
X130058324Y-70713125D01*
X130162644Y-70863225D01*
X130331168Y-71134601D01*
X130517708Y-71490391D01*
X130683084Y-71855629D01*
X130689396Y-71871075D01*
X130823418Y-72185364D01*
X130946734Y-72447806D01*
X131036534Y-72610442D01*
X131049077Y-72627519D01*
X131159790Y-72811484D01*
X131213319Y-72942478D01*
X131293399Y-73089131D01*
X131362366Y-73130660D01*
X131415942Y-73191297D01*
X131405235Y-73252668D01*
X131434301Y-73375439D01*
X131525912Y-73425832D01*
X131650864Y-73484006D01*
X131679741Y-73579672D01*
X131611238Y-73749943D01*
X131508301Y-73927390D01*
X131375097Y-74120414D01*
X131250848Y-74197533D01*
X131069296Y-74194554D01*
X131025506Y-74188288D01*
X130754093Y-74125458D01*
X130645971Y-74040594D01*
X130695977Y-73928904D01*
X130721110Y-73905807D01*
X130836390Y-73770336D01*
X130813575Y-73698943D01*
X130680303Y-73709311D01*
X130521431Y-73692361D01*
X130443750Y-73573744D01*
X130472081Y-73411467D01*
X130523315Y-73342423D01*
X130578995Y-73261469D01*
X130588304Y-73151758D01*
X130544843Y-72975465D01*
X130442217Y-72694767D01*
X130392296Y-72567784D01*
X130194796Y-72077066D01*
X130044453Y-71723785D01*
X129930515Y-71486252D01*
X129842230Y-71342779D01*
X129768849Y-71271678D01*
X129743744Y-71259524D01*
X129636345Y-71159308D01*
X129520899Y-70967353D01*
X129503976Y-70930370D01*
X129412124Y-70767110D01*
X129276706Y-70644071D01*
X129054608Y-70530897D01*
X128793053Y-70429791D01*
X128383447Y-70294623D01*
X128066893Y-70238010D01*
X127784645Y-70263482D01*
X127477951Y-70374565D01*
X127176574Y-70526874D01*
X126799839Y-70728836D01*
X126553952Y-70879683D01*
X126424990Y-71016138D01*
X126399035Y-71174928D01*
X126462164Y-71392780D01*
X126600456Y-71706415D01*
X126670937Y-71860817D01*
X126918223Y-72393973D01*
X127178911Y-72934329D01*
X127441480Y-73460153D01*
X127694404Y-73949715D01*
X127926162Y-74381279D01*
X128125230Y-74733114D01*
X128280083Y-74983488D01*
X128379201Y-75110667D01*
X128400226Y-75122182D01*
X128481702Y-75179475D01*
X128470923Y-75308343D01*
X128380207Y-75447181D01*
X128326631Y-75490201D01*
X128151038Y-75543602D01*
X128066884Y-75532857D01*
G36*
X133503542Y-74207649D02*
X133378112Y-74058062D01*
X133244137Y-73818915D01*
X133104593Y-73576204D01*
X132978964Y-73410099D01*
X132906593Y-73360433D01*
X132780326Y-73413244D01*
X132598171Y-73541831D01*
X132555544Y-73577640D01*
X132312514Y-73737348D01*
X132086741Y-73798613D01*
X131929049Y-73749930D01*
X131927101Y-73649871D01*
X131978442Y-73463299D01*
X132059346Y-73254508D01*
X132146090Y-73087791D01*
X132193626Y-73032925D01*
X132253713Y-72916923D01*
X132284683Y-72717120D01*
X132279963Y-72568173D01*
X132233221Y-72566871D01*
X132140093Y-72676216D01*
X131970445Y-72827734D01*
X131779272Y-72866860D01*
X131622085Y-72792282D01*
X131566437Y-72689790D01*
X131582388Y-72488905D01*
X131733523Y-72223824D01*
X131768591Y-72176938D01*
X132021639Y-71846917D01*
X131706486Y-71508909D01*
X131497496Y-71239209D01*
X131426144Y-71032281D01*
X131494103Y-70899310D01*
X131609170Y-70858551D01*
X131790365Y-70911871D01*
X132026936Y-71116293D01*
X132078977Y-71173481D01*
X132380688Y-71515341D01*
X132713315Y-71335990D01*
X133007356Y-71208389D01*
X133260364Y-71153641D01*
X133438188Y-71173411D01*
X133506676Y-71269370D01*
X133504338Y-71297350D01*
X133416321Y-71429231D01*
X133232125Y-71566459D01*
X133185211Y-71591537D01*
X133041773Y-71666045D01*
X132978882Y-71722270D01*
X133014462Y-71774738D01*
X133166435Y-71837973D01*
X133452725Y-71926501D01*
X133680921Y-71993276D01*
X134011252Y-72115589D01*
X134173419Y-72242015D01*
X134168589Y-72374960D01*
X133997920Y-72516830D01*
X133947481Y-72544656D01*
X133705434Y-72692338D01*
X133501251Y-72849205D01*
X133494247Y-72855715D01*
X133319182Y-73020584D01*
X133524126Y-73410092D01*
X133681898Y-73774066D01*
X133724723Y-74041801D01*
X133651471Y-74202137D01*
X133606904Y-74227543D01*
X133503542Y-74207649D01*
X133503542Y-74207649D01*
G37*
X133503542Y-74207649D02*
X133378112Y-74058062D01*
X133244137Y-73818915D01*
X133104593Y-73576204D01*
X132978964Y-73410099D01*
X132906593Y-73360433D01*
X132780326Y-73413244D01*
X132598171Y-73541831D01*
X132555544Y-73577640D01*
X132312514Y-73737348D01*
X132086741Y-73798613D01*
X131929049Y-73749930D01*
X131927101Y-73649871D01*
X131978442Y-73463299D01*
X132059346Y-73254508D01*
X132146090Y-73087791D01*
X132193626Y-73032925D01*
X132253713Y-72916923D01*
X132284683Y-72717120D01*
X132279963Y-72568173D01*
X132233221Y-72566871D01*
X132140093Y-72676216D01*
X131970445Y-72827734D01*
X131779272Y-72866860D01*
X131622085Y-72792282D01*
X131566437Y-72689790D01*
X131582388Y-72488905D01*
X131733523Y-72223824D01*
X131768591Y-72176938D01*
X132021639Y-71846917D01*
X131706486Y-71508909D01*
X131497496Y-71239209D01*
X131426144Y-71032281D01*
X131494103Y-70899310D01*
X131609170Y-70858551D01*
X131790365Y-70911871D01*
X132026936Y-71116293D01*
X132078977Y-71173481D01*
X132380688Y-71515341D01*
X132713315Y-71335990D01*
X133007356Y-71208389D01*
X133260364Y-71153641D01*
X133438188Y-71173411D01*
X133506676Y-71269370D01*
X133504338Y-71297350D01*
X133416321Y-71429231D01*
X133232125Y-71566459D01*
X133185211Y-71591537D01*
X133041773Y-71666045D01*
X132978882Y-71722270D01*
X133014462Y-71774738D01*
X133166435Y-71837973D01*
X133452725Y-71926501D01*
X133680921Y-71993276D01*
X134011252Y-72115589D01*
X134173419Y-72242015D01*
X134168589Y-72374960D01*
X133997920Y-72516830D01*
X133947481Y-72544656D01*
X133705434Y-72692338D01*
X133501251Y-72849205D01*
X133494247Y-72855715D01*
X133319182Y-73020584D01*
X133524126Y-73410092D01*
X133681898Y-73774066D01*
X133724723Y-74041801D01*
X133651471Y-74202137D01*
X133606904Y-74227543D01*
X133503542Y-74207649D01*
G36*
X141652492Y-83382636D02*
X141324431Y-83350011D01*
X141021535Y-83301521D01*
X140716514Y-83227879D01*
X140382081Y-83119801D01*
X139990947Y-82968001D01*
X139515825Y-82763191D01*
X138929424Y-82496088D01*
X138608580Y-82346840D01*
X138259992Y-82124361D01*
X137874937Y-81777114D01*
X137483027Y-81336236D01*
X137113873Y-80832868D01*
X137000412Y-80655627D01*
X136761856Y-80261231D01*
X136589881Y-79949053D01*
X136457838Y-79659950D01*
X136339075Y-79334786D01*
X136206939Y-78914417D01*
X136189055Y-78855219D01*
X136007178Y-78202375D01*
X135897808Y-77659965D01*
X135862077Y-77184864D01*
X135901116Y-76733948D01*
X136016061Y-76264094D01*
X136208042Y-75732179D01*
X136275428Y-75567038D01*
X136413734Y-75212753D01*
X136480378Y-74979719D01*
X136482035Y-74839062D01*
X136455538Y-74788066D01*
X136413466Y-74686264D01*
X136518011Y-74622011D01*
X136637421Y-74518774D01*
X136777577Y-74308790D01*
X136869935Y-74122467D01*
X137024291Y-73791609D01*
X137205883Y-73442280D01*
X137395037Y-73107654D01*
X137572073Y-72820903D01*
X137717316Y-72615196D01*
X137811089Y-72523707D01*
X137819375Y-72521888D01*
X137919377Y-72463248D01*
X138092708Y-72312441D01*
X138278878Y-72125910D01*
X138679435Y-71758476D01*
X139100994Y-71505611D01*
X139612388Y-71327238D01*
X139681116Y-71309424D01*
X139936995Y-71233683D01*
X140118096Y-71159121D01*
X140170045Y-71120893D01*
X140295924Y-71037731D01*
X140450744Y-71073849D01*
X140568216Y-71208517D01*
X140582633Y-71249936D01*
X140622240Y-71369339D01*
X140684009Y-71432723D01*
X140800962Y-71440786D01*
X141006119Y-71394220D01*
X141332500Y-71293721D01*
X141414498Y-71267446D01*
X141792314Y-71161725D01*
X142130070Y-71111595D01*
X142514164Y-71106772D01*
X142695405Y-71114964D01*
X143532803Y-71225582D01*
X144329212Y-71468309D01*
X145105771Y-71852673D01*
X145883612Y-72388207D01*
X146315881Y-72747343D01*
X146496731Y-72923105D01*
X146721322Y-73165307D01*
X146962067Y-73440937D01*
X147191381Y-73716985D01*
X147381680Y-73960441D01*
X147505377Y-74138295D01*
X147537878Y-74209656D01*
X147576656Y-74318214D01*
X147673236Y-74514302D01*
X147725602Y-74610741D01*
X148066214Y-75317890D01*
X148273605Y-75998202D01*
X148362960Y-76706384D01*
X148368995Y-76928954D01*
X148357942Y-77113658D01*
X147902789Y-77120809D01*
X147877799Y-76501844D01*
X147756414Y-75947938D01*
X147730690Y-75871129D01*
X147337986Y-74932405D01*
X146855638Y-74090525D01*
X146297300Y-73364453D01*
X145676631Y-72773152D01*
X145309740Y-72509758D01*
X144968699Y-72292204D01*
X144725509Y-72141963D01*
X144534477Y-72036511D01*
X144349916Y-71953325D01*
X144126136Y-71869881D01*
X143817447Y-71763653D01*
X143748436Y-71740065D01*
X143367669Y-71618522D01*
X143066014Y-71552049D01*
X142766483Y-71530098D01*
X142392087Y-71542122D01*
X142330728Y-71545827D01*
X141842082Y-71600732D01*
X141344289Y-71696923D01*
X141022009Y-71786242D01*
X140680998Y-71898341D01*
X140571190Y-71933849D01*
X139361198Y-71952857D01*
X139340543Y-71908997D01*
X139292997Y-71905274D01*
X139179167Y-71968562D01*
X139162929Y-71991024D01*
X139177312Y-72038916D01*
X139243112Y-72023044D01*
X139361198Y-71952857D01*
X140571190Y-71933849D01*
X140360774Y-72001891D01*
X140137395Y-72072375D01*
X139885428Y-72168259D01*
X139581528Y-72308594D01*
X139439611Y-72382307D01*
X139190028Y-72497175D01*
X138984538Y-72555056D01*
X138903888Y-72553101D01*
X138821755Y-72502759D01*
X138832959Y-72409433D01*
X138907774Y-72270341D01*
X138918670Y-72221409D01*
X138834071Y-72285049D01*
X138670734Y-72447054D01*
X138561681Y-72563877D01*
X138327638Y-72837595D01*
X138118747Y-73127787D01*
X137915430Y-73467949D01*
X137698103Y-73891571D01*
X137447185Y-74432150D01*
X137375189Y-74593380D01*
X137244207Y-74836006D01*
X137109035Y-75006142D01*
X137038845Y-75052423D01*
X136912793Y-75158350D01*
X136764303Y-75389116D01*
X136611292Y-75705104D01*
X136471672Y-76066699D01*
X136363360Y-76434281D01*
X136321118Y-76639599D01*
X136298092Y-77174405D01*
X136377385Y-77798761D01*
X136545879Y-78478334D01*
X136790457Y-79178784D01*
X137098001Y-79865779D01*
X137455392Y-80504982D01*
X137849513Y-81062056D01*
X138130214Y-81374859D01*
X138326355Y-81559818D01*
X138522484Y-81716814D01*
X138746360Y-81860668D01*
X139025750Y-82006201D01*
X139388416Y-82168232D01*
X139862123Y-82361582D01*
X140301739Y-82534029D01*
X141232574Y-82809395D01*
X142170072Y-82915840D01*
X143109233Y-82853311D01*
X144045055Y-82621751D01*
X144173339Y-82576636D01*
X144581500Y-82406062D01*
X144963027Y-82194162D01*
X145346265Y-81919572D01*
X145759565Y-81560924D01*
X146231272Y-81096854D01*
X146478113Y-80839522D01*
X146839645Y-80441695D01*
X147105164Y-80099343D01*
X147301844Y-79762200D01*
X147456857Y-79380003D01*
X147597374Y-78902489D01*
X147661154Y-78651085D01*
X147830777Y-77829124D01*
X147902789Y-77120809D01*
X148357942Y-77113658D01*
X148324025Y-77680360D01*
X148189084Y-78482157D01*
X147979716Y-79262756D01*
X147714412Y-79944321D01*
X147551635Y-80216205D01*
X147291599Y-80567179D01*
X146962420Y-80966608D01*
X146592211Y-81383860D01*
X146209087Y-81788301D01*
X145841162Y-82149300D01*
X145516548Y-82436221D01*
X145263363Y-82618432D01*
X145256736Y-82622202D01*
X144372877Y-83036676D01*
X143461577Y-83295512D01*
X142499864Y-83403557D01*
X141652492Y-83382636D01*
X141652492Y-83382636D01*
G37*
X141652492Y-83382636D02*
X141324431Y-83350011D01*
X141021535Y-83301521D01*
X140716514Y-83227879D01*
X140382081Y-83119801D01*
X139990947Y-82968001D01*
X139515825Y-82763191D01*
X138929424Y-82496088D01*
X138608580Y-82346840D01*
X138259992Y-82124361D01*
X137874937Y-81777114D01*
X137483027Y-81336236D01*
X137113873Y-80832868D01*
X137000412Y-80655627D01*
X136761856Y-80261231D01*
X136589881Y-79949053D01*
X136457838Y-79659950D01*
X136339075Y-79334786D01*
X136206939Y-78914417D01*
X136189055Y-78855219D01*
X136007178Y-78202375D01*
X135897808Y-77659965D01*
X135862077Y-77184864D01*
X135901116Y-76733948D01*
X136016061Y-76264094D01*
X136208042Y-75732179D01*
X136275428Y-75567038D01*
X136413734Y-75212753D01*
X136480378Y-74979719D01*
X136482035Y-74839062D01*
X136455538Y-74788066D01*
X136413466Y-74686264D01*
X136518011Y-74622011D01*
X136637421Y-74518774D01*
X136777577Y-74308790D01*
X136869935Y-74122467D01*
X137024291Y-73791609D01*
X137205883Y-73442280D01*
X137395037Y-73107654D01*
X137572073Y-72820903D01*
X137717316Y-72615196D01*
X137811089Y-72523707D01*
X137819375Y-72521888D01*
X137919377Y-72463248D01*
X138092708Y-72312441D01*
X138278878Y-72125910D01*
X138679435Y-71758476D01*
X139100994Y-71505611D01*
X139612388Y-71327238D01*
X139681116Y-71309424D01*
X139936995Y-71233683D01*
X140118096Y-71159121D01*
X140170045Y-71120893D01*
X140295924Y-71037731D01*
X140450744Y-71073849D01*
X140568216Y-71208517D01*
X140582633Y-71249936D01*
X140622240Y-71369339D01*
X140684009Y-71432723D01*
X140800962Y-71440786D01*
X141006119Y-71394220D01*
X141332500Y-71293721D01*
X141414498Y-71267446D01*
X141792314Y-71161725D01*
X142130070Y-71111595D01*
X142514164Y-71106772D01*
X142695405Y-71114964D01*
X143532803Y-71225582D01*
X144329212Y-71468309D01*
X145105771Y-71852673D01*
X145883612Y-72388207D01*
X146315881Y-72747343D01*
X146496731Y-72923105D01*
X146721322Y-73165307D01*
X146962067Y-73440937D01*
X147191381Y-73716985D01*
X147381680Y-73960441D01*
X147505377Y-74138295D01*
X147537878Y-74209656D01*
X147576656Y-74318214D01*
X147673236Y-74514302D01*
X147725602Y-74610741D01*
X148066214Y-75317890D01*
X148273605Y-75998202D01*
X148362960Y-76706384D01*
X148368995Y-76928954D01*
X148357942Y-77113658D01*
X147902789Y-77120809D01*
X147877799Y-76501844D01*
X147756414Y-75947938D01*
X147730690Y-75871129D01*
X147337986Y-74932405D01*
X146855638Y-74090525D01*
X146297300Y-73364453D01*
X145676631Y-72773152D01*
X145309740Y-72509758D01*
X144968699Y-72292204D01*
X144725509Y-72141963D01*
X144534477Y-72036511D01*
X144349916Y-71953325D01*
X144126136Y-71869881D01*
X143817447Y-71763653D01*
X143748436Y-71740065D01*
X143367669Y-71618522D01*
X143066014Y-71552049D01*
X142766483Y-71530098D01*
X142392087Y-71542122D01*
X142330728Y-71545827D01*
X141842082Y-71600732D01*
X141344289Y-71696923D01*
X141022009Y-71786242D01*
X140680998Y-71898341D01*
X140571190Y-71933849D01*
X139361198Y-71952857D01*
X139340543Y-71908997D01*
X139292997Y-71905274D01*
X139179167Y-71968562D01*
X139162929Y-71991024D01*
X139177312Y-72038916D01*
X139243112Y-72023044D01*
X139361198Y-71952857D01*
X140571190Y-71933849D01*
X140360774Y-72001891D01*
X140137395Y-72072375D01*
X139885428Y-72168259D01*
X139581528Y-72308594D01*
X139439611Y-72382307D01*
X139190028Y-72497175D01*
X138984538Y-72555056D01*
X138903888Y-72553101D01*
X138821755Y-72502759D01*
X138832959Y-72409433D01*
X138907774Y-72270341D01*
X138918670Y-72221409D01*
X138834071Y-72285049D01*
X138670734Y-72447054D01*
X138561681Y-72563877D01*
X138327638Y-72837595D01*
X138118747Y-73127787D01*
X137915430Y-73467949D01*
X137698103Y-73891571D01*
X137447185Y-74432150D01*
X137375189Y-74593380D01*
X137244207Y-74836006D01*
X137109035Y-75006142D01*
X137038845Y-75052423D01*
X136912793Y-75158350D01*
X136764303Y-75389116D01*
X136611292Y-75705104D01*
X136471672Y-76066699D01*
X136363360Y-76434281D01*
X136321118Y-76639599D01*
X136298092Y-77174405D01*
X136377385Y-77798761D01*
X136545879Y-78478334D01*
X136790457Y-79178784D01*
X137098001Y-79865779D01*
X137455392Y-80504982D01*
X137849513Y-81062056D01*
X138130214Y-81374859D01*
X138326355Y-81559818D01*
X138522484Y-81716814D01*
X138746360Y-81860668D01*
X139025750Y-82006201D01*
X139388416Y-82168232D01*
X139862123Y-82361582D01*
X140301739Y-82534029D01*
X141232574Y-82809395D01*
X142170072Y-82915840D01*
X143109233Y-82853311D01*
X144045055Y-82621751D01*
X144173339Y-82576636D01*
X144581500Y-82406062D01*
X144963027Y-82194162D01*
X145346265Y-81919572D01*
X145759565Y-81560924D01*
X146231272Y-81096854D01*
X146478113Y-80839522D01*
X146839645Y-80441695D01*
X147105164Y-80099343D01*
X147301844Y-79762200D01*
X147456857Y-79380003D01*
X147597374Y-78902489D01*
X147661154Y-78651085D01*
X147830777Y-77829124D01*
X147902789Y-77120809D01*
X148357942Y-77113658D01*
X148324025Y-77680360D01*
X148189084Y-78482157D01*
X147979716Y-79262756D01*
X147714412Y-79944321D01*
X147551635Y-80216205D01*
X147291599Y-80567179D01*
X146962420Y-80966608D01*
X146592211Y-81383860D01*
X146209087Y-81788301D01*
X145841162Y-82149300D01*
X145516548Y-82436221D01*
X145263363Y-82618432D01*
X145256736Y-82622202D01*
X144372877Y-83036676D01*
X143461577Y-83295512D01*
X142499864Y-83403557D01*
X141652492Y-83382636D01*
G36*
X156308051Y-74387155D02*
X156191614Y-74240313D01*
X156131915Y-74008270D01*
X156131235Y-73998133D01*
X156078290Y-73608500D01*
X155977940Y-73356824D01*
X155835710Y-73255977D01*
X155812053Y-73254636D01*
X155680790Y-73312180D01*
X155653913Y-73384136D01*
X155595424Y-73492928D01*
X155435741Y-73496421D01*
X155206160Y-73394772D01*
X155185173Y-73381762D01*
X155014457Y-73222629D01*
X154999589Y-73074662D01*
X155127096Y-72951305D01*
X155383508Y-72866007D01*
X155735437Y-72832455D01*
X156068551Y-72827222D01*
X156060571Y-72319284D01*
X156060630Y-72037709D01*
X156082730Y-71885339D01*
X156142811Y-71822159D01*
X156256814Y-71808150D01*
X156264232Y-71808022D01*
X156427733Y-71841952D01*
X156487300Y-71910364D01*
X156514294Y-72076771D01*
X156519726Y-72100378D01*
X156539569Y-72239012D01*
X156557833Y-72454080D01*
X156557861Y-72454518D01*
X156574997Y-72724309D01*
X156949546Y-72590085D01*
X157284655Y-72499603D01*
X157540856Y-72488900D01*
X157690126Y-72556447D01*
X157716687Y-72631977D01*
X157636842Y-72736566D01*
X157404007Y-72857983D01*
X157193472Y-72936566D01*
X156911194Y-73037028D01*
X156753409Y-73119040D01*
X156683254Y-73215516D01*
X156663869Y-73359370D01*
X156662557Y-73410630D01*
X156652091Y-73801890D01*
X156636413Y-74059448D01*
X156611960Y-74218926D01*
X156575175Y-74315946D01*
X156571433Y-74322340D01*
X156446301Y-74423073D01*
X156308051Y-74387155D01*
X156308051Y-74387155D01*
G37*
X156308051Y-74387155D02*
X156191614Y-74240313D01*
X156131915Y-74008270D01*
X156131235Y-73998133D01*
X156078290Y-73608500D01*
X155977940Y-73356824D01*
X155835710Y-73255977D01*
X155812053Y-73254636D01*
X155680790Y-73312180D01*
X155653913Y-73384136D01*
X155595424Y-73492928D01*
X155435741Y-73496421D01*
X155206160Y-73394772D01*
X155185173Y-73381762D01*
X155014457Y-73222629D01*
X154999589Y-73074662D01*
X155127096Y-72951305D01*
X155383508Y-72866007D01*
X155735437Y-72832455D01*
X156068551Y-72827222D01*
X156060571Y-72319284D01*
X156060630Y-72037709D01*
X156082730Y-71885339D01*
X156142811Y-71822159D01*
X156256814Y-71808150D01*
X156264232Y-71808022D01*
X156427733Y-71841952D01*
X156487300Y-71910364D01*
X156514294Y-72076771D01*
X156519726Y-72100378D01*
X156539569Y-72239012D01*
X156557833Y-72454080D01*
X156557861Y-72454518D01*
X156574997Y-72724309D01*
X156949546Y-72590085D01*
X157284655Y-72499603D01*
X157540856Y-72488900D01*
X157690126Y-72556447D01*
X157716687Y-72631977D01*
X157636842Y-72736566D01*
X157404007Y-72857983D01*
X157193472Y-72936566D01*
X156911194Y-73037028D01*
X156753409Y-73119040D01*
X156683254Y-73215516D01*
X156663869Y-73359370D01*
X156662557Y-73410630D01*
X156652091Y-73801890D01*
X156636413Y-74059448D01*
X156611960Y-74218926D01*
X156575175Y-74315946D01*
X156571433Y-74322340D01*
X156446301Y-74423073D01*
X156308051Y-74387155D01*
G36*
X152983240Y-72719457D02*
X152898593Y-72673270D01*
X152865706Y-72584301D01*
X152863716Y-72572385D01*
X152871431Y-72465420D01*
X152957612Y-72383080D01*
X153156219Y-72301701D01*
X153329892Y-72247522D01*
X153669773Y-72152583D01*
X153896378Y-72110824D01*
X154056092Y-72119013D01*
X154195298Y-72173913D01*
X154216745Y-72185678D01*
X154341669Y-72308550D01*
X154368130Y-72389439D01*
X154291781Y-72539558D01*
X154056022Y-72645992D01*
X153658906Y-72709453D01*
X153463857Y-72722520D01*
X153158657Y-72732622D01*
X152983240Y-72719457D01*
X152983240Y-72719457D01*
G37*
X152983240Y-72719457D02*
X152898593Y-72673270D01*
X152865706Y-72584301D01*
X152863716Y-72572385D01*
X152871431Y-72465420D01*
X152957612Y-72383080D01*
X153156219Y-72301701D01*
X153329892Y-72247522D01*
X153669773Y-72152583D01*
X153896378Y-72110824D01*
X154056092Y-72119013D01*
X154195298Y-72173913D01*
X154216745Y-72185678D01*
X154341669Y-72308550D01*
X154368130Y-72389439D01*
X154291781Y-72539558D01*
X154056022Y-72645992D01*
X153658906Y-72709453D01*
X153463857Y-72722520D01*
X153158657Y-72732622D01*
X152983240Y-72719457D01*
G36*
X159987852Y-72568073D02*
X159976142Y-72467765D01*
X159986079Y-72455198D01*
X160036590Y-72466028D01*
X160043403Y-72510748D01*
X160013523Y-72580916D01*
X159987852Y-72568073D01*
X159987852Y-72568073D01*
G37*
X159987852Y-72568073D02*
X159976142Y-72467765D01*
X159986079Y-72455198D01*
X160036590Y-72466028D01*
X160043403Y-72510748D01*
X160013523Y-72580916D01*
X159987852Y-72568073D01*
G36*
X161082551Y-73976274D02*
X161124213Y-73933280D01*
X161167207Y-73974944D01*
X161125543Y-74017937D01*
X161082551Y-73976274D01*
X161082551Y-73976274D01*
G37*
X161082551Y-73976274D02*
X161124213Y-73933280D01*
X161167207Y-73974944D01*
X161125543Y-74017937D01*
X161082551Y-73976274D01*
G36*
X129513759Y-74980259D02*
X129555423Y-74937265D01*
X129598416Y-74978929D01*
X129556753Y-75021922D01*
X129513759Y-74980259D01*
X129513759Y-74980259D01*
G37*
X129513759Y-74980259D02*
X129555423Y-74937265D01*
X129598416Y-74978929D01*
X129556753Y-75021922D01*
X129513759Y-74980259D01*
G36*
X131712568Y-82512724D02*
X131536581Y-82351955D01*
X131303614Y-82073737D01*
X131000393Y-81665411D01*
X130921949Y-81555468D01*
X130707778Y-81261385D01*
X130527171Y-81027712D01*
X130403385Y-80883726D01*
X130363119Y-80851975D01*
X130267179Y-80910731D01*
X130201608Y-80980505D01*
X130064616Y-81108656D01*
X129857522Y-81261951D01*
X129812684Y-81291369D01*
X129599155Y-81404843D01*
X129460667Y-81410960D01*
X129409848Y-81381014D01*
X129352710Y-81303025D01*
X129346127Y-81172619D01*
X129392411Y-80948267D01*
X129444552Y-80758176D01*
X129545406Y-80438573D01*
X129652165Y-80151561D01*
X129724084Y-79994074D01*
X129802690Y-79840673D01*
X129806416Y-79778176D01*
X129713887Y-79805209D01*
X129503720Y-79920395D01*
X129411071Y-79973943D01*
X129115352Y-80110796D01*
X128926260Y-80116360D01*
X128843271Y-79990467D01*
X128853183Y-79793561D01*
X128867978Y-79614850D01*
X128808723Y-79553944D01*
X128755865Y-79553657D01*
X128656808Y-79525039D01*
X128626361Y-79387455D01*
X128629532Y-79288675D01*
X128607580Y-79034112D01*
X128501191Y-78746462D01*
X128296384Y-78395293D01*
X128071848Y-78074739D01*
X127889305Y-77777158D01*
X127835995Y-77563123D01*
X127912457Y-77441739D01*
X128032839Y-77416821D01*
X128176757Y-77487332D01*
X128368587Y-77683720D01*
X128585594Y-77977966D01*
X128805048Y-78342050D01*
X128846903Y-78420158D01*
X128963186Y-78637589D01*
X129039139Y-78730759D01*
X129117827Y-78722778D01*
X129242320Y-78636755D01*
X129245817Y-78634220D01*
X129464833Y-78527068D01*
X129685480Y-78494885D01*
X129842850Y-78544585D01*
X129863351Y-78568453D01*
X129856658Y-78685409D01*
X129776974Y-78876982D01*
X129747331Y-78930153D01*
X129620613Y-79164458D01*
X129597936Y-79271899D01*
X129683980Y-79262732D01*
X129854707Y-79165492D01*
X130133550Y-79027153D01*
X130348264Y-78995337D01*
X130457991Y-79057809D01*
X130461717Y-79175689D01*
X130421328Y-79392172D01*
X130352950Y-79647613D01*
X130272713Y-79882364D01*
X130196742Y-80036775D01*
X130191397Y-80043790D01*
X130107219Y-80190589D01*
X130021605Y-80393121D01*
X129930510Y-80644538D01*
X130164498Y-80430440D01*
X130372982Y-80236727D01*
X130619385Y-80003854D01*
X130707388Y-79919708D01*
X131016287Y-79623075D01*
X130700194Y-79200066D01*
X130501617Y-78952022D01*
X130228235Y-78633711D01*
X129923989Y-78295590D01*
X129756684Y-78116584D01*
X129430977Y-77757701D01*
X129228481Y-77491592D01*
X129141858Y-77303184D01*
X129163768Y-77177407D01*
X129265225Y-77107274D01*
X129367810Y-77119874D01*
X129531441Y-77227748D01*
X129771284Y-77443038D01*
X130101343Y-77776669D01*
X130388292Y-78080176D01*
X130641736Y-78355666D01*
X130832537Y-78571004D01*
X130926825Y-78687118D01*
X131025744Y-78828803D01*
X131196178Y-79074072D01*
X131413346Y-79387219D01*
X131629392Y-79699202D01*
X131974124Y-80182443D01*
X132254559Y-80536198D01*
X132489996Y-80778237D01*
X132699733Y-80926337D01*
X132903068Y-80998270D01*
X133055747Y-81012872D01*
X133335720Y-80974025D01*
X133517011Y-80837936D01*
X133658400Y-80701895D01*
X133893170Y-80518055D01*
X134165275Y-80329710D01*
X134414715Y-80158092D01*
X134595573Y-80015133D01*
X134671612Y-79929700D01*
X134672080Y-79926002D01*
X134618208Y-79835233D01*
X134474147Y-79650812D01*
X134264640Y-79403441D01*
X134112272Y-79231411D01*
X133793466Y-78855992D01*
X133450024Y-78418103D01*
X133145706Y-77999701D01*
X133087566Y-77914267D01*
X132794326Y-77495091D01*
X132495120Y-77100716D01*
X132209032Y-76752978D01*
X131955139Y-76473711D01*
X131752523Y-76284751D01*
X131620265Y-76207932D01*
X131598007Y-76209662D01*
X131462300Y-76189233D01*
X131390612Y-76131283D01*
X131308260Y-76073715D01*
X131199335Y-76105255D01*
X131021209Y-76240685D01*
X130984418Y-76272139D01*
X130687778Y-76512588D01*
X130380962Y-76736364D01*
X130096988Y-76922223D01*
X129868876Y-77048922D01*
X129729646Y-77095217D01*
X129711464Y-77091108D01*
X129631381Y-76966323D01*
X129689900Y-76799349D01*
X129841223Y-76651440D01*
X130015549Y-76518382D01*
X130265260Y-76320141D01*
X130531206Y-76103801D01*
X130946862Y-75773287D01*
X131264765Y-75546460D01*
X131475876Y-75429511D01*
X131538260Y-75414179D01*
X131631100Y-75471104D01*
X131799204Y-75621018D01*
X131992119Y-75816773D01*
X132492164Y-76368337D01*
X132912146Y-76874649D01*
X133302357Y-77398538D01*
X133572263Y-77790777D01*
X133841507Y-78168299D01*
X134140850Y-78550886D01*
X134422325Y-78878499D01*
X134537787Y-78999376D01*
X134834276Y-79321158D01*
X135062161Y-79622979D01*
X135203809Y-79877012D01*
X135241585Y-80055429D01*
X135229488Y-80090968D01*
X135136845Y-80172395D01*
X134943073Y-80305635D01*
X134743496Y-80429579D01*
X134466789Y-80620671D01*
X134140257Y-80884668D01*
X133828035Y-81169230D01*
X133785337Y-81211519D01*
X133442987Y-81521354D01*
X133134209Y-81737405D01*
X132877360Y-81852590D01*
X132690794Y-81859832D01*
X132592869Y-81752045D01*
X132582636Y-81675493D01*
X132522365Y-81534940D01*
X132371688Y-81343560D01*
X132269146Y-81240860D01*
X132053645Y-81020619D01*
X131798305Y-80728986D01*
X131579400Y-80456048D01*
X131200824Y-79958160D01*
X131210574Y-80578863D01*
X131260116Y-81094746D01*
X131397402Y-81484466D01*
X131633098Y-81772637D01*
X131771961Y-81874383D01*
X131941379Y-82047795D01*
X132023056Y-82263911D01*
X132000670Y-82461252D01*
X131946693Y-82532532D01*
X131844847Y-82568697D01*
X131712568Y-82512724D01*
X131712568Y-82512724D01*
G37*
X131712568Y-82512724D02*
X131536581Y-82351955D01*
X131303614Y-82073737D01*
X131000393Y-81665411D01*
X130921949Y-81555468D01*
X130707778Y-81261385D01*
X130527171Y-81027712D01*
X130403385Y-80883726D01*
X130363119Y-80851975D01*
X130267179Y-80910731D01*
X130201608Y-80980505D01*
X130064616Y-81108656D01*
X129857522Y-81261951D01*
X129812684Y-81291369D01*
X129599155Y-81404843D01*
X129460667Y-81410960D01*
X129409848Y-81381014D01*
X129352710Y-81303025D01*
X129346127Y-81172619D01*
X129392411Y-80948267D01*
X129444552Y-80758176D01*
X129545406Y-80438573D01*
X129652165Y-80151561D01*
X129724084Y-79994074D01*
X129802690Y-79840673D01*
X129806416Y-79778176D01*
X129713887Y-79805209D01*
X129503720Y-79920395D01*
X129411071Y-79973943D01*
X129115352Y-80110796D01*
X128926260Y-80116360D01*
X128843271Y-79990467D01*
X128853183Y-79793561D01*
X128867978Y-79614850D01*
X128808723Y-79553944D01*
X128755865Y-79553657D01*
X128656808Y-79525039D01*
X128626361Y-79387455D01*
X128629532Y-79288675D01*
X128607580Y-79034112D01*
X128501191Y-78746462D01*
X128296384Y-78395293D01*
X128071848Y-78074739D01*
X127889305Y-77777158D01*
X127835995Y-77563123D01*
X127912457Y-77441739D01*
X128032839Y-77416821D01*
X128176757Y-77487332D01*
X128368587Y-77683720D01*
X128585594Y-77977966D01*
X128805048Y-78342050D01*
X128846903Y-78420158D01*
X128963186Y-78637589D01*
X129039139Y-78730759D01*
X129117827Y-78722778D01*
X129242320Y-78636755D01*
X129245817Y-78634220D01*
X129464833Y-78527068D01*
X129685480Y-78494885D01*
X129842850Y-78544585D01*
X129863351Y-78568453D01*
X129856658Y-78685409D01*
X129776974Y-78876982D01*
X129747331Y-78930153D01*
X129620613Y-79164458D01*
X129597936Y-79271899D01*
X129683980Y-79262732D01*
X129854707Y-79165492D01*
X130133550Y-79027153D01*
X130348264Y-78995337D01*
X130457991Y-79057809D01*
X130461717Y-79175689D01*
X130421328Y-79392172D01*
X130352950Y-79647613D01*
X130272713Y-79882364D01*
X130196742Y-80036775D01*
X130191397Y-80043790D01*
X130107219Y-80190589D01*
X130021605Y-80393121D01*
X129930510Y-80644538D01*
X130164498Y-80430440D01*
X130372982Y-80236727D01*
X130619385Y-80003854D01*
X130707388Y-79919708D01*
X131016287Y-79623075D01*
X130700194Y-79200066D01*
X130501617Y-78952022D01*
X130228235Y-78633711D01*
X129923989Y-78295590D01*
X129756684Y-78116584D01*
X129430977Y-77757701D01*
X129228481Y-77491592D01*
X129141858Y-77303184D01*
X129163768Y-77177407D01*
X129265225Y-77107274D01*
X129367810Y-77119874D01*
X129531441Y-77227748D01*
X129771284Y-77443038D01*
X130101343Y-77776669D01*
X130388292Y-78080176D01*
X130641736Y-78355666D01*
X130832537Y-78571004D01*
X130926825Y-78687118D01*
X131025744Y-78828803D01*
X131196178Y-79074072D01*
X131413346Y-79387219D01*
X131629392Y-79699202D01*
X131974124Y-80182443D01*
X132254559Y-80536198D01*
X132489996Y-80778237D01*
X132699733Y-80926337D01*
X132903068Y-80998270D01*
X133055747Y-81012872D01*
X133335720Y-80974025D01*
X133517011Y-80837936D01*
X133658400Y-80701895D01*
X133893170Y-80518055D01*
X134165275Y-80329710D01*
X134414715Y-80158092D01*
X134595573Y-80015133D01*
X134671612Y-79929700D01*
X134672080Y-79926002D01*
X134618208Y-79835233D01*
X134474147Y-79650812D01*
X134264640Y-79403441D01*
X134112272Y-79231411D01*
X133793466Y-78855992D01*
X133450024Y-78418103D01*
X133145706Y-77999701D01*
X133087566Y-77914267D01*
X132794326Y-77495091D01*
X132495120Y-77100716D01*
X132209032Y-76752978D01*
X131955139Y-76473711D01*
X131752523Y-76284751D01*
X131620265Y-76207932D01*
X131598007Y-76209662D01*
X131462300Y-76189233D01*
X131390612Y-76131283D01*
X131308260Y-76073715D01*
X131199335Y-76105255D01*
X131021209Y-76240685D01*
X130984418Y-76272139D01*
X130687778Y-76512588D01*
X130380962Y-76736364D01*
X130096988Y-76922223D01*
X129868876Y-77048922D01*
X129729646Y-77095217D01*
X129711464Y-77091108D01*
X129631381Y-76966323D01*
X129689900Y-76799349D01*
X129841223Y-76651440D01*
X130015549Y-76518382D01*
X130265260Y-76320141D01*
X130531206Y-76103801D01*
X130946862Y-75773287D01*
X131264765Y-75546460D01*
X131475876Y-75429511D01*
X131538260Y-75414179D01*
X131631100Y-75471104D01*
X131799204Y-75621018D01*
X131992119Y-75816773D01*
X132492164Y-76368337D01*
X132912146Y-76874649D01*
X133302357Y-77398538D01*
X133572263Y-77790777D01*
X133841507Y-78168299D01*
X134140850Y-78550886D01*
X134422325Y-78878499D01*
X134537787Y-78999376D01*
X134834276Y-79321158D01*
X135062161Y-79622979D01*
X135203809Y-79877012D01*
X135241585Y-80055429D01*
X135229488Y-80090968D01*
X135136845Y-80172395D01*
X134943073Y-80305635D01*
X134743496Y-80429579D01*
X134466789Y-80620671D01*
X134140257Y-80884668D01*
X133828035Y-81169230D01*
X133785337Y-81211519D01*
X133442987Y-81521354D01*
X133134209Y-81737405D01*
X132877360Y-81852590D01*
X132690794Y-81859832D01*
X132592869Y-81752045D01*
X132582636Y-81675493D01*
X132522365Y-81534940D01*
X132371688Y-81343560D01*
X132269146Y-81240860D01*
X132053645Y-81020619D01*
X131798305Y-80728986D01*
X131579400Y-80456048D01*
X131200824Y-79958160D01*
X131210574Y-80578863D01*
X131260116Y-81094746D01*
X131397402Y-81484466D01*
X131633098Y-81772637D01*
X131771961Y-81874383D01*
X131941379Y-82047795D01*
X132023056Y-82263911D01*
X132000670Y-82461252D01*
X131946693Y-82532532D01*
X131844847Y-82568697D01*
X131712568Y-82512724D01*
G36*
X115640192Y-76210711D02*
X115563843Y-76130166D01*
X115648711Y-76088834D01*
X115691427Y-76086507D01*
X115779273Y-76126788D01*
X115771586Y-76171306D01*
X115670896Y-76221735D01*
X115640192Y-76210711D01*
X115640192Y-76210711D01*
G37*
X115640192Y-76210711D02*
X115563843Y-76130166D01*
X115648711Y-76088834D01*
X115691427Y-76086507D01*
X115779273Y-76126788D01*
X115771586Y-76171306D01*
X115670896Y-76221735D01*
X115640192Y-76210711D01*
G36*
X130994142Y-77581993D02*
X131035805Y-77539000D01*
X131078797Y-77580663D01*
X131037135Y-77623657D01*
X130994142Y-77581993D01*
X130994142Y-77581993D01*
G37*
X130994142Y-77581993D02*
X131035805Y-77539000D01*
X131078797Y-77580663D01*
X131037135Y-77623657D01*
X130994142Y-77581993D01*
G36*
X160164270Y-78408022D02*
X160175101Y-78357511D01*
X160219822Y-78350698D01*
X160289990Y-78380577D01*
X160277145Y-78406249D01*
X160176838Y-78417959D01*
X160164270Y-78408022D01*
X160164270Y-78408022D01*
G37*
X160164270Y-78408022D02*
X160175101Y-78357511D01*
X160219822Y-78350698D01*
X160289990Y-78380577D01*
X160277145Y-78406249D01*
X160176838Y-78417959D01*
X160164270Y-78408022D01*
G36*
X165502419Y-80426978D02*
X165544082Y-80383986D01*
X165587076Y-80425649D01*
X165545412Y-80468641D01*
X165502419Y-80426978D01*
X165502419Y-80426978D01*
G37*
X165502419Y-80426978D02*
X165544082Y-80383986D01*
X165587076Y-80425649D01*
X165545412Y-80468641D01*
X165502419Y-80426978D01*
G36*
X134105600Y-81597616D02*
X134147263Y-81554623D01*
X134190256Y-81596286D01*
X134148593Y-81639279D01*
X134105600Y-81597616D01*
X134105600Y-81597616D01*
G37*
X134105600Y-81597616D02*
X134147263Y-81554623D01*
X134190256Y-81596286D01*
X134148593Y-81639279D01*
X134105600Y-81597616D01*
G36*
X146570013Y-82671966D02*
X146611676Y-82628973D01*
X146654669Y-82670636D01*
X146613006Y-82713630D01*
X146570013Y-82671966D01*
X146570013Y-82671966D01*
G37*
X146570013Y-82671966D02*
X146611676Y-82628973D01*
X146654669Y-82670636D01*
X146613006Y-82713630D01*
X146570013Y-82671966D01*
G36*
X141977755Y-86808608D02*
X142019418Y-86765615D01*
X142062412Y-86807278D01*
X142020748Y-86850272D01*
X141977755Y-86808608D01*
X141977755Y-86808608D01*
G37*
X141977755Y-86808608D02*
X142019418Y-86765615D01*
X142062412Y-86807278D01*
X142020748Y-86850272D01*
X141977755Y-86808608D01*
G36*
X143282455Y-95944346D02*
X142816885Y-95912393D01*
X142176864Y-95866946D01*
X141561696Y-95834218D01*
X140996294Y-95814592D01*
X140505575Y-95808452D01*
X140114451Y-95816180D01*
X139847838Y-95838159D01*
X139742880Y-95865140D01*
X139626506Y-95907583D01*
X139538083Y-95877241D01*
X139473697Y-95757040D01*
X139429429Y-95529906D01*
X139401362Y-95178766D01*
X139385580Y-94686544D01*
X139380060Y-94283634D01*
X139379209Y-93663013D01*
X139386271Y-92962521D01*
X139400018Y-92259349D01*
X139419222Y-91630693D01*
X139424230Y-91505964D01*
X139464132Y-90555976D01*
X139496619Y-89759558D01*
X139522235Y-89101133D01*
X139541529Y-88565124D01*
X139555049Y-88135956D01*
X139563343Y-87798051D01*
X139566958Y-87535834D01*
X139567204Y-87439216D01*
X139570678Y-87193577D01*
X139600828Y-87032124D01*
X139685832Y-86941400D01*
X139853867Y-86907952D01*
X140133108Y-86918323D01*
X140551735Y-86959060D01*
X140568994Y-86960843D01*
X140945769Y-87003638D01*
X141185227Y-87049318D01*
X141318774Y-87115101D01*
X141377818Y-87218205D01*
X141393766Y-87375849D01*
X141394516Y-87413420D01*
X141443924Y-87759707D01*
X141565055Y-88017161D01*
X141735373Y-88165621D01*
X141932341Y-88184926D01*
X142123456Y-88065440D01*
X142210916Y-87903601D01*
X142233978Y-87641803D01*
X142226345Y-87492253D01*
X142208986Y-87309121D01*
X142207232Y-87185186D01*
X142247298Y-87111455D01*
X142355406Y-87078935D01*
X142557773Y-87078632D01*
X142880618Y-87101553D01*
X143273892Y-87132926D01*
X143636395Y-87174959D01*
X143901886Y-87234480D01*
X144030428Y-87299736D01*
X144061896Y-87386046D01*
X144084914Y-87570481D01*
X144099861Y-87866727D01*
X144107121Y-88288466D01*
X144107099Y-88548630D01*
X143682750Y-88555297D01*
X143675311Y-88122080D01*
X143661653Y-87821229D01*
X143641753Y-87668375D01*
X143633128Y-87652627D01*
X143508809Y-87616862D01*
X143282700Y-87575944D01*
X143164021Y-87559192D01*
X142771174Y-87508572D01*
X142720086Y-87890007D01*
X142660117Y-88158892D01*
X142540389Y-88335752D01*
X142374815Y-88459709D01*
X142019783Y-88599451D01*
X141666323Y-88585777D01*
X141346737Y-88431794D01*
X141093323Y-88150608D01*
X140974668Y-87891548D01*
X140900615Y-87663576D01*
X140846563Y-87498246D01*
X140841429Y-87482707D01*
X140737013Y-87414168D01*
X140507544Y-87383704D01*
X140433848Y-87383264D01*
X140061169Y-87389118D01*
X140019176Y-88046025D01*
X140000235Y-88398031D01*
X139980547Y-88857245D01*
X139962563Y-89361575D01*
X139949822Y-89804165D01*
X139936316Y-90286965D01*
X139920159Y-90772096D01*
X139903444Y-91201024D01*
X139889208Y-91498659D01*
X139874975Y-91856273D01*
X139866364Y-92296478D01*
X139862971Y-92789729D01*
X139864388Y-93306476D01*
X139870210Y-93817171D01*
X139880035Y-94292266D01*
X139893454Y-94702213D01*
X139910064Y-95017465D01*
X139929460Y-95208471D01*
X139940632Y-95249074D01*
X140061236Y-95301603D01*
X140342877Y-95330845D01*
X140788696Y-95337090D01*
X140873978Y-95335997D01*
X141372495Y-95342890D01*
X141937811Y-95373190D01*
X142469947Y-95420991D01*
X142617170Y-95439053D01*
X142983323Y-95482949D01*
X143283727Y-95509588D01*
X143481118Y-95516228D01*
X143538777Y-95506849D01*
X143556461Y-95408735D01*
X143572054Y-95173626D01*
X143584129Y-94833861D01*
X143591260Y-94421776D01*
X143592186Y-94295936D01*
X143597021Y-93750795D01*
X143605578Y-93154056D01*
X143616595Y-92582360D01*
X143627355Y-92159691D01*
X143650713Y-91299148D01*
X143667952Y-90492805D01*
X143679051Y-89756293D01*
X143683991Y-89105245D01*
X143682750Y-88555297D01*
X144107099Y-88548630D01*
X144107073Y-88849384D01*
X144100101Y-89563165D01*
X144097972Y-89720990D01*
X144088812Y-90402338D01*
X144080177Y-91094089D01*
X144072493Y-91758261D01*
X144066187Y-92356873D01*
X144061684Y-92851944D01*
X144059776Y-93126685D01*
X144055337Y-93870718D01*
X144050364Y-94463471D01*
X144043969Y-94922996D01*
X144035262Y-95267347D01*
X144023352Y-95514574D01*
X144007351Y-95682733D01*
X143986369Y-95789875D01*
X143959515Y-95854053D01*
X143925901Y-95893319D01*
X143923332Y-95895549D01*
X143817848Y-95936637D01*
X143611706Y-95952788D01*
X143282455Y-95944346D01*
X143282455Y-95944346D01*
G37*
X143282455Y-95944346D02*
X142816885Y-95912393D01*
X142176864Y-95866946D01*
X141561696Y-95834218D01*
X140996294Y-95814592D01*
X140505575Y-95808452D01*
X140114451Y-95816180D01*
X139847838Y-95838159D01*
X139742880Y-95865140D01*
X139626506Y-95907583D01*
X139538083Y-95877241D01*
X139473697Y-95757040D01*
X139429429Y-95529906D01*
X139401362Y-95178766D01*
X139385580Y-94686544D01*
X139380060Y-94283634D01*
X139379209Y-93663013D01*
X139386271Y-92962521D01*
X139400018Y-92259349D01*
X139419222Y-91630693D01*
X139424230Y-91505964D01*
X139464132Y-90555976D01*
X139496619Y-89759558D01*
X139522235Y-89101133D01*
X139541529Y-88565124D01*
X139555049Y-88135956D01*
X139563343Y-87798051D01*
X139566958Y-87535834D01*
X139567204Y-87439216D01*
X139570678Y-87193577D01*
X139600828Y-87032124D01*
X139685832Y-86941400D01*
X139853867Y-86907952D01*
X140133108Y-86918323D01*
X140551735Y-86959060D01*
X140568994Y-86960843D01*
X140945769Y-87003638D01*
X141185227Y-87049318D01*
X141318774Y-87115101D01*
X141377818Y-87218205D01*
X141393766Y-87375849D01*
X141394516Y-87413420D01*
X141443924Y-87759707D01*
X141565055Y-88017161D01*
X141735373Y-88165621D01*
X141932341Y-88184926D01*
X142123456Y-88065440D01*
X142210916Y-87903601D01*
X142233978Y-87641803D01*
X142226345Y-87492253D01*
X142208986Y-87309121D01*
X142207232Y-87185186D01*
X142247298Y-87111455D01*
X142355406Y-87078935D01*
X142557773Y-87078632D01*
X142880618Y-87101553D01*
X143273892Y-87132926D01*
X143636395Y-87174959D01*
X143901886Y-87234480D01*
X144030428Y-87299736D01*
X144061896Y-87386046D01*
X144084914Y-87570481D01*
X144099861Y-87866727D01*
X144107121Y-88288466D01*
X144107099Y-88548630D01*
X143682750Y-88555297D01*
X143675311Y-88122080D01*
X143661653Y-87821229D01*
X143641753Y-87668375D01*
X143633128Y-87652627D01*
X143508809Y-87616862D01*
X143282700Y-87575944D01*
X143164021Y-87559192D01*
X142771174Y-87508572D01*
X142720086Y-87890007D01*
X142660117Y-88158892D01*
X142540389Y-88335752D01*
X142374815Y-88459709D01*
X142019783Y-88599451D01*
X141666323Y-88585777D01*
X141346737Y-88431794D01*
X141093323Y-88150608D01*
X140974668Y-87891548D01*
X140900615Y-87663576D01*
X140846563Y-87498246D01*
X140841429Y-87482707D01*
X140737013Y-87414168D01*
X140507544Y-87383704D01*
X140433848Y-87383264D01*
X140061169Y-87389118D01*
X140019176Y-88046025D01*
X140000235Y-88398031D01*
X139980547Y-88857245D01*
X139962563Y-89361575D01*
X139949822Y-89804165D01*
X139936316Y-90286965D01*
X139920159Y-90772096D01*
X139903444Y-91201024D01*
X139889208Y-91498659D01*
X139874975Y-91856273D01*
X139866364Y-92296478D01*
X139862971Y-92789729D01*
X139864388Y-93306476D01*
X139870210Y-93817171D01*
X139880035Y-94292266D01*
X139893454Y-94702213D01*
X139910064Y-95017465D01*
X139929460Y-95208471D01*
X139940632Y-95249074D01*
X140061236Y-95301603D01*
X140342877Y-95330845D01*
X140788696Y-95337090D01*
X140873978Y-95335997D01*
X141372495Y-95342890D01*
X141937811Y-95373190D01*
X142469947Y-95420991D01*
X142617170Y-95439053D01*
X142983323Y-95482949D01*
X143283727Y-95509588D01*
X143481118Y-95516228D01*
X143538777Y-95506849D01*
X143556461Y-95408735D01*
X143572054Y-95173626D01*
X143584129Y-94833861D01*
X143591260Y-94421776D01*
X143592186Y-94295936D01*
X143597021Y-93750795D01*
X143605578Y-93154056D01*
X143616595Y-92582360D01*
X143627355Y-92159691D01*
X143650713Y-91299148D01*
X143667952Y-90492805D01*
X143679051Y-89756293D01*
X143683991Y-89105245D01*
X143682750Y-88555297D01*
X144107099Y-88548630D01*
X144107073Y-88849384D01*
X144100101Y-89563165D01*
X144097972Y-89720990D01*
X144088812Y-90402338D01*
X144080177Y-91094089D01*
X144072493Y-91758261D01*
X144066187Y-92356873D01*
X144061684Y-92851944D01*
X144059776Y-93126685D01*
X144055337Y-93870718D01*
X144050364Y-94463471D01*
X144043969Y-94922996D01*
X144035262Y-95267347D01*
X144023352Y-95514574D01*
X144007351Y-95682733D01*
X143986369Y-95789875D01*
X143959515Y-95854053D01*
X143925901Y-95893319D01*
X143923332Y-95895549D01*
X143817848Y-95936637D01*
X143611706Y-95952788D01*
X143282455Y-95944346D01*
G36*
X129161058Y-88463573D02*
X129149348Y-88363265D01*
X129159285Y-88350698D01*
X129209795Y-88361528D01*
X129216609Y-88406249D01*
X129186729Y-88476418D01*
X129161058Y-88463573D01*
X129161058Y-88463573D01*
G37*
X129161058Y-88463573D02*
X129149348Y-88363265D01*
X129159285Y-88350698D01*
X129209795Y-88361528D01*
X129216609Y-88406249D01*
X129186729Y-88476418D01*
X129161058Y-88463573D01*
G36*
X154450147Y-88390895D02*
X154491810Y-88347903D01*
X154534804Y-88389566D01*
X154493140Y-88432559D01*
X154450147Y-88390895D01*
X154450147Y-88390895D01*
G37*
X154450147Y-88390895D02*
X154491810Y-88347903D01*
X154534804Y-88389566D01*
X154493140Y-88432559D01*
X154450147Y-88390895D01*
G36*
X118204442Y-93532853D02*
X118246105Y-93489860D01*
X118289099Y-93531523D01*
X118247435Y-93574516D01*
X118204442Y-93532853D01*
X118204442Y-93532853D01*
G37*
X118204442Y-93532853D02*
X118246105Y-93489860D01*
X118289099Y-93531523D01*
X118247435Y-93574516D01*
X118204442Y-93532853D01*
G36*
X151081644Y-94963951D02*
X151123307Y-94920957D01*
X151166299Y-94962621D01*
X151124637Y-95005613D01*
X151081644Y-94963951D01*
X151081644Y-94963951D01*
G37*
X151081644Y-94963951D02*
X151123307Y-94920957D01*
X151166299Y-94962621D01*
X151124637Y-95005613D01*
X151081644Y-94963951D01*
G36*
X154507789Y-97450442D02*
X154549453Y-97407448D01*
X154592445Y-97449112D01*
X154550782Y-97492105D01*
X154507789Y-97450442D01*
X154507789Y-97450442D01*
G37*
X154507789Y-97450442D02*
X154549453Y-97407448D01*
X154592445Y-97449112D01*
X154550782Y-97492105D01*
X154507789Y-97450442D01*
G36*
X141988353Y-102389031D02*
X141879059Y-102350593D01*
X141645747Y-102323297D01*
X141333612Y-102311841D01*
X141247515Y-102312014D01*
X140867150Y-102301032D01*
X140392799Y-102266078D01*
X139897121Y-102213263D01*
X139613185Y-102174564D01*
X139198124Y-102109489D01*
X138920717Y-102056076D01*
X138750733Y-102003892D01*
X138657942Y-101942501D01*
X138612112Y-101861470D01*
X138601239Y-101825298D01*
X138575968Y-101620138D01*
X138573882Y-101325497D01*
X138591073Y-100995018D01*
X138623639Y-100682350D01*
X138667673Y-100441140D01*
X138709781Y-100334076D01*
X138748515Y-100196534D01*
X138758433Y-99954946D01*
X138747471Y-99772861D01*
X138719855Y-99470993D01*
X138723703Y-99262808D01*
X138783843Y-99130928D01*
X138925103Y-99057977D01*
X139172312Y-99026576D01*
X139550296Y-99019351D01*
X139824031Y-99019386D01*
X140309865Y-99013825D01*
X140813435Y-98998535D01*
X141266771Y-98976039D01*
X141533502Y-98955902D01*
X141915816Y-98928343D01*
X142287964Y-98915639D01*
X142574074Y-98920258D01*
X142591425Y-98921484D01*
X142866899Y-98950792D01*
X143233042Y-99000269D01*
X143613955Y-99059600D01*
X143640313Y-99064043D01*
X144000370Y-99118374D01*
X144333268Y-99157089D01*
X144573637Y-99172743D01*
X144594638Y-99172696D01*
X144800457Y-99197771D01*
X144891209Y-99269545D01*
X144891823Y-99273874D01*
X144897020Y-99600295D01*
X144879639Y-99835008D01*
X144395967Y-99842606D01*
X144327092Y-99706461D01*
X144153271Y-99617677D01*
X143851245Y-99549838D01*
X143553146Y-99500996D01*
X143051089Y-99424072D01*
X142664549Y-99373129D01*
X142342180Y-99345337D01*
X142032635Y-99337860D01*
X141684568Y-99347867D01*
X141246634Y-99372528D01*
X141236051Y-99373185D01*
X140783096Y-99399726D01*
X140317671Y-99424291D01*
X139912388Y-99443149D01*
X139755396Y-99449258D01*
X139170612Y-99469597D01*
X139175306Y-100038277D01*
X139169573Y-100335101D01*
X139150018Y-100561664D01*
X139121677Y-100667141D01*
X139079004Y-100793765D01*
X139065037Y-101013861D01*
X139076072Y-101268125D01*
X139108405Y-101497253D01*
X139158330Y-101641945D01*
X139183906Y-101663338D01*
X139542987Y-101730897D01*
X140043544Y-101786921D01*
X140658003Y-101829685D01*
X141358793Y-101857459D01*
X142118338Y-101868517D01*
X142447185Y-101867768D01*
X143026254Y-101862983D01*
X143457740Y-101856657D01*
X143763393Y-101846436D01*
X143964961Y-101829963D01*
X144084191Y-101804880D01*
X144142834Y-101768833D01*
X144162638Y-101719464D01*
X144164941Y-101681657D01*
X144184948Y-101292621D01*
X144226193Y-100877475D01*
X144280127Y-100512962D01*
X144311912Y-100362617D01*
X144383153Y-100052521D01*
X144395967Y-99842606D01*
X144879639Y-99835008D01*
X144866415Y-100013571D01*
X144812550Y-100397091D01*
X144770812Y-100706865D01*
X144735569Y-101097080D01*
X144715894Y-101450626D01*
X144700342Y-101769509D01*
X144663281Y-101999839D01*
X144580773Y-102154962D01*
X144428881Y-102248230D01*
X144183662Y-102292990D01*
X143821181Y-102302593D01*
X143317497Y-102290387D01*
X143215867Y-102287096D01*
X142736295Y-102274441D01*
X142402890Y-102273967D01*
X142192827Y-102287119D01*
X142083280Y-102315346D01*
X142051422Y-102360094D01*
X142051419Y-102360918D01*
X142021981Y-102419537D01*
X141988353Y-102389031D01*
X141988353Y-102389031D01*
G37*
X141988353Y-102389031D02*
X141879059Y-102350593D01*
X141645747Y-102323297D01*
X141333612Y-102311841D01*
X141247515Y-102312014D01*
X140867150Y-102301032D01*
X140392799Y-102266078D01*
X139897121Y-102213263D01*
X139613185Y-102174564D01*
X139198124Y-102109489D01*
X138920717Y-102056076D01*
X138750733Y-102003892D01*
X138657942Y-101942501D01*
X138612112Y-101861470D01*
X138601239Y-101825298D01*
X138575968Y-101620138D01*
X138573882Y-101325497D01*
X138591073Y-100995018D01*
X138623639Y-100682350D01*
X138667673Y-100441140D01*
X138709781Y-100334076D01*
X138748515Y-100196534D01*
X138758433Y-99954946D01*
X138747471Y-99772861D01*
X138719855Y-99470993D01*
X138723703Y-99262808D01*
X138783843Y-99130928D01*
X138925103Y-99057977D01*
X139172312Y-99026576D01*
X139550296Y-99019351D01*
X139824031Y-99019386D01*
X140309865Y-99013825D01*
X140813435Y-98998535D01*
X141266771Y-98976039D01*
X141533502Y-98955902D01*
X141915816Y-98928343D01*
X142287964Y-98915639D01*
X142574074Y-98920258D01*
X142591425Y-98921484D01*
X142866899Y-98950792D01*
X143233042Y-99000269D01*
X143613955Y-99059600D01*
X143640313Y-99064043D01*
X144000370Y-99118374D01*
X144333268Y-99157089D01*
X144573637Y-99172743D01*
X144594638Y-99172696D01*
X144800457Y-99197771D01*
X144891209Y-99269545D01*
X144891823Y-99273874D01*
X144897020Y-99600295D01*
X144879639Y-99835008D01*
X144395967Y-99842606D01*
X144327092Y-99706461D01*
X144153271Y-99617677D01*
X143851245Y-99549838D01*
X143553146Y-99500996D01*
X143051089Y-99424072D01*
X142664549Y-99373129D01*
X142342180Y-99345337D01*
X142032635Y-99337860D01*
X141684568Y-99347867D01*
X141246634Y-99372528D01*
X141236051Y-99373185D01*
X140783096Y-99399726D01*
X140317671Y-99424291D01*
X139912388Y-99443149D01*
X139755396Y-99449258D01*
X139170612Y-99469597D01*
X139175306Y-100038277D01*
X139169573Y-100335101D01*
X139150018Y-100561664D01*
X139121677Y-100667141D01*
X139079004Y-100793765D01*
X139065037Y-101013861D01*
X139076072Y-101268125D01*
X139108405Y-101497253D01*
X139158330Y-101641945D01*
X139183906Y-101663338D01*
X139542987Y-101730897D01*
X140043544Y-101786921D01*
X140658003Y-101829685D01*
X141358793Y-101857459D01*
X142118338Y-101868517D01*
X142447185Y-101867768D01*
X143026254Y-101862983D01*
X143457740Y-101856657D01*
X143763393Y-101846436D01*
X143964961Y-101829963D01*
X144084191Y-101804880D01*
X144142834Y-101768833D01*
X144162638Y-101719464D01*
X144164941Y-101681657D01*
X144184948Y-101292621D01*
X144226193Y-100877475D01*
X144280127Y-100512962D01*
X144311912Y-100362617D01*
X144383153Y-100052521D01*
X144395967Y-99842606D01*
X144879639Y-99835008D01*
X144866415Y-100013571D01*
X144812550Y-100397091D01*
X144770812Y-100706865D01*
X144735569Y-101097080D01*
X144715894Y-101450626D01*
X144700342Y-101769509D01*
X144663281Y-101999839D01*
X144580773Y-102154962D01*
X144428881Y-102248230D01*
X144183662Y-102292990D01*
X143821181Y-102302593D01*
X143317497Y-102290387D01*
X143215867Y-102287096D01*
X142736295Y-102274441D01*
X142402890Y-102273967D01*
X142192827Y-102287119D01*
X142083280Y-102315346D01*
X142051422Y-102360094D01*
X142051419Y-102360918D01*
X142021981Y-102419537D01*
X141988353Y-102389031D01*
G36*
X141905804Y-105341736D02*
X141825016Y-105191806D01*
X141879937Y-104977629D01*
X141932508Y-104788728D01*
X141977853Y-104466013D01*
X142011789Y-104044975D01*
X142025533Y-103741982D01*
X142050519Y-103239263D01*
X142090770Y-102887835D01*
X142151552Y-102669951D01*
X142238135Y-102567864D01*
X142355785Y-102563828D01*
X142373533Y-102569543D01*
X142443709Y-102679076D01*
X142482016Y-102932705D01*
X142487173Y-103065668D01*
X142494376Y-103524223D01*
X143125841Y-103514303D01*
X143503915Y-103519584D01*
X143918074Y-103543345D01*
X144328740Y-103581123D01*
X144696336Y-103628449D01*
X144981286Y-103680859D01*
X145144012Y-103733886D01*
X145157772Y-103743595D01*
X145175600Y-103823457D01*
X145034400Y-103883000D01*
X144743391Y-103921039D01*
X144311793Y-103936394D01*
X143748826Y-103927876D01*
X143728525Y-103927188D01*
X143235592Y-103913290D01*
X142886979Y-103918755D01*
X142657851Y-103955147D01*
X142523375Y-104034025D01*
X142458715Y-104166949D01*
X142439038Y-104365481D01*
X142438545Y-104527702D01*
X142411612Y-104924766D01*
X142329378Y-105213406D01*
X142200288Y-105370724D01*
X142119380Y-105393010D01*
X141905804Y-105341736D01*
X141905804Y-105341736D01*
G37*
X141905804Y-105341736D02*
X141825016Y-105191806D01*
X141879937Y-104977629D01*
X141932508Y-104788728D01*
X141977853Y-104466013D01*
X142011789Y-104044975D01*
X142025533Y-103741982D01*
X142050519Y-103239263D01*
X142090770Y-102887835D01*
X142151552Y-102669951D01*
X142238135Y-102567864D01*
X142355785Y-102563828D01*
X142373533Y-102569543D01*
X142443709Y-102679076D01*
X142482016Y-102932705D01*
X142487173Y-103065668D01*
X142494376Y-103524223D01*
X143125841Y-103514303D01*
X143503915Y-103519584D01*
X143918074Y-103543345D01*
X144328740Y-103581123D01*
X144696336Y-103628449D01*
X144981286Y-103680859D01*
X145144012Y-103733886D01*
X145157772Y-103743595D01*
X145175600Y-103823457D01*
X145034400Y-103883000D01*
X144743391Y-103921039D01*
X144311793Y-103936394D01*
X143748826Y-103927876D01*
X143728525Y-103927188D01*
X143235592Y-103913290D01*
X142886979Y-103918755D01*
X142657851Y-103955147D01*
X142523375Y-104034025D01*
X142458715Y-104166949D01*
X142439038Y-104365481D01*
X142438545Y-104527702D01*
X142411612Y-104924766D01*
X142329378Y-105213406D01*
X142200288Y-105370724D01*
X142119380Y-105393010D01*
X141905804Y-105341736D01*
G36*
X140792096Y-105300746D02*
X140717443Y-105233297D01*
X140673408Y-105076244D01*
X140652561Y-104796085D01*
X140649269Y-104656668D01*
X140639919Y-104061417D01*
X140364665Y-104057976D01*
X139731955Y-104045151D01*
X139148274Y-104023972D01*
X138636609Y-103996019D01*
X138219943Y-103962874D01*
X137921265Y-103926116D01*
X137763559Y-103887327D01*
X137749489Y-103878135D01*
X137688658Y-103723974D01*
X137700946Y-103639974D01*
X137747957Y-103571539D01*
X137849721Y-103533723D01*
X138040926Y-103521920D01*
X138356261Y-103531523D01*
X138472674Y-103537481D01*
X138935606Y-103562301D01*
X139454601Y-103590126D01*
X139913146Y-103614712D01*
X140633508Y-103653336D01*
X140626074Y-103180127D01*
X140627133Y-102910672D01*
X140653044Y-102768994D01*
X140721550Y-102713687D01*
X140830281Y-102703593D01*
X140949950Y-102713635D01*
X141015400Y-102775410D01*
X141045669Y-102929174D01*
X141058824Y-103186897D01*
X141076688Y-103858503D01*
X141080186Y-104415551D01*
X141069657Y-104844565D01*
X141045437Y-105132068D01*
X141007865Y-105264583D01*
X141006652Y-105265905D01*
X140866036Y-105313845D01*
X140792096Y-105300746D01*
X140792096Y-105300746D01*
G37*
X140792096Y-105300746D02*
X140717443Y-105233297D01*
X140673408Y-105076244D01*
X140652561Y-104796085D01*
X140649269Y-104656668D01*
X140639919Y-104061417D01*
X140364665Y-104057976D01*
X139731955Y-104045151D01*
X139148274Y-104023972D01*
X138636609Y-103996019D01*
X138219943Y-103962874D01*
X137921265Y-103926116D01*
X137763559Y-103887327D01*
X137749489Y-103878135D01*
X137688658Y-103723974D01*
X137700946Y-103639974D01*
X137747957Y-103571539D01*
X137849721Y-103533723D01*
X138040926Y-103521920D01*
X138356261Y-103531523D01*
X138472674Y-103537481D01*
X138935606Y-103562301D01*
X139454601Y-103590126D01*
X139913146Y-103614712D01*
X140633508Y-103653336D01*
X140626074Y-103180127D01*
X140627133Y-102910672D01*
X140653044Y-102768994D01*
X140721550Y-102713687D01*
X140830281Y-102703593D01*
X140949950Y-102713635D01*
X141015400Y-102775410D01*
X141045669Y-102929174D01*
X141058824Y-103186897D01*
X141076688Y-103858503D01*
X141080186Y-104415551D01*
X141069657Y-104844565D01*
X141045437Y-105132068D01*
X141007865Y-105264583D01*
X141006652Y-105265905D01*
X140866036Y-105313845D01*
X140792096Y-105300746D01*
G36*
X146905601Y-109424662D02*
X146947264Y-109381669D01*
X146990257Y-109423332D01*
X146948593Y-109466325D01*
X146905601Y-109424662D01*
X146905601Y-109424662D01*
G37*
X146905601Y-109424662D02*
X146947264Y-109381669D01*
X146990257Y-109423332D01*
X146948593Y-109466325D01*
X146905601Y-109424662D01*
G36*
X139204544Y-109714994D02*
X139246208Y-109672001D01*
X139289201Y-109713664D01*
X139247538Y-109756658D01*
X139204544Y-109714994D01*
X139204544Y-109714994D01*
G37*
X139204544Y-109714994D02*
X139246208Y-109672001D01*
X139289201Y-109713664D01*
X139247538Y-109756658D01*
X139204544Y-109714994D01*
G36*
X120598794Y-111192756D02*
X120640457Y-111149763D01*
X120683450Y-111191427D01*
X120641787Y-111234419D01*
X120598794Y-111192756D01*
X120598794Y-111192756D01*
G37*
X120598794Y-111192756D02*
X120640457Y-111149763D01*
X120683450Y-111191427D01*
X120641787Y-111234419D01*
X120598794Y-111192756D01*
G36*
X119391998Y-114508241D02*
X119276371Y-114401255D01*
X119257130Y-114285950D01*
X119271769Y-114263781D01*
X119246026Y-114234136D01*
X119100790Y-114253105D01*
X119080419Y-114257956D01*
X118741782Y-114316389D01*
X118518232Y-114288625D01*
X118388956Y-114187788D01*
X118228713Y-114083436D01*
X117980095Y-114018614D01*
X117717253Y-114003024D01*
X117514337Y-114046373D01*
X117480126Y-114068852D01*
X117307582Y-114135869D01*
X117161773Y-114061142D01*
X117086439Y-113871407D01*
X117083731Y-113826566D01*
X117053670Y-113634885D01*
X116994483Y-113535660D01*
X116920209Y-113553441D01*
X116910872Y-113603528D01*
X116854913Y-113746602D01*
X116745834Y-113878273D01*
X116612469Y-113982194D01*
X116509980Y-113966689D01*
X116421913Y-113896487D01*
X116274555Y-113790599D01*
X116193574Y-113759933D01*
X116079115Y-113710572D01*
X115980110Y-113636424D01*
X115909860Y-113558575D01*
X115886786Y-113459659D01*
X115913373Y-113296967D01*
X115992101Y-113027789D01*
X116020746Y-112937199D01*
X116137505Y-112610581D01*
X116241712Y-112421132D01*
X116350781Y-112339361D01*
X116377629Y-112332811D01*
X116517357Y-112276589D01*
X116550497Y-112224250D01*
X116617570Y-112152263D01*
X116669732Y-112143589D01*
X116800220Y-112085448D01*
X116980200Y-111942424D01*
X117040183Y-111883738D01*
X117217361Y-111722814D01*
X117358734Y-111631748D01*
X117388684Y-111624232D01*
X117484769Y-111693759D01*
X117582669Y-111864281D01*
X117587057Y-111875147D01*
X117674275Y-112048986D01*
X117749625Y-112126316D01*
X117753006Y-112126571D01*
X117813068Y-112194327D01*
X117821064Y-112250401D01*
X117864468Y-112330961D01*
X118015243Y-112331991D01*
X118088861Y-112317745D01*
X118336765Y-112308157D01*
X118449681Y-112377701D01*
X118607251Y-112454044D01*
X118925733Y-112495870D01*
X119141207Y-112503518D01*
X119460602Y-112502518D01*
X119658261Y-112479925D01*
X119781555Y-112422958D01*
X119877849Y-112318830D01*
X119890815Y-112301219D01*
X120061592Y-112144577D01*
X120242200Y-112090384D01*
X120380588Y-112149137D01*
X120408790Y-112196750D01*
X120398753Y-112321540D01*
X120333332Y-112558075D01*
X120225257Y-112863067D01*
X120177395Y-112983647D01*
X120032734Y-113362838D01*
X119902679Y-113747587D01*
X119811973Y-114063908D01*
X119802267Y-114105460D01*
X119723367Y-114385066D01*
X119635574Y-114524288D01*
X119552715Y-114553935D01*
X119391998Y-114508241D01*
X119391998Y-114508241D01*
G37*
X119391998Y-114508241D02*
X119276371Y-114401255D01*
X119257130Y-114285950D01*
X119271769Y-114263781D01*
X119246026Y-114234136D01*
X119100790Y-114253105D01*
X119080419Y-114257956D01*
X118741782Y-114316389D01*
X118518232Y-114288625D01*
X118388956Y-114187788D01*
X118228713Y-114083436D01*
X117980095Y-114018614D01*
X117717253Y-114003024D01*
X117514337Y-114046373D01*
X117480126Y-114068852D01*
X117307582Y-114135869D01*
X117161773Y-114061142D01*
X117086439Y-113871407D01*
X117083731Y-113826566D01*
X117053670Y-113634885D01*
X116994483Y-113535660D01*
X116920209Y-113553441D01*
X116910872Y-113603528D01*
X116854913Y-113746602D01*
X116745834Y-113878273D01*
X116612469Y-113982194D01*
X116509980Y-113966689D01*
X116421913Y-113896487D01*
X116274555Y-113790599D01*
X116193574Y-113759933D01*
X116079115Y-113710572D01*
X115980110Y-113636424D01*
X115909860Y-113558575D01*
X115886786Y-113459659D01*
X115913373Y-113296967D01*
X115992101Y-113027789D01*
X116020746Y-112937199D01*
X116137505Y-112610581D01*
X116241712Y-112421132D01*
X116350781Y-112339361D01*
X116377629Y-112332811D01*
X116517357Y-112276589D01*
X116550497Y-112224250D01*
X116617570Y-112152263D01*
X116669732Y-112143589D01*
X116800220Y-112085448D01*
X116980200Y-111942424D01*
X117040183Y-111883738D01*
X117217361Y-111722814D01*
X117358734Y-111631748D01*
X117388684Y-111624232D01*
X117484769Y-111693759D01*
X117582669Y-111864281D01*
X117587057Y-111875147D01*
X117674275Y-112048986D01*
X117749625Y-112126316D01*
X117753006Y-112126571D01*
X117813068Y-112194327D01*
X117821064Y-112250401D01*
X117864468Y-112330961D01*
X118015243Y-112331991D01*
X118088861Y-112317745D01*
X118336765Y-112308157D01*
X118449681Y-112377701D01*
X118607251Y-112454044D01*
X118925733Y-112495870D01*
X119141207Y-112503518D01*
X119460602Y-112502518D01*
X119658261Y-112479925D01*
X119781555Y-112422958D01*
X119877849Y-112318830D01*
X119890815Y-112301219D01*
X120061592Y-112144577D01*
X120242200Y-112090384D01*
X120380588Y-112149137D01*
X120408790Y-112196750D01*
X120398753Y-112321540D01*
X120333332Y-112558075D01*
X120225257Y-112863067D01*
X120177395Y-112983647D01*
X120032734Y-113362838D01*
X119902679Y-113747587D01*
X119811973Y-114063908D01*
X119802267Y-114105460D01*
X119723367Y-114385066D01*
X119635574Y-114524288D01*
X119552715Y-114553935D01*
X119391998Y-114508241D01*
G36*
X138012993Y-113424685D02*
X137544919Y-113309531D01*
X137159898Y-113136812D01*
X136889887Y-112913225D01*
X136802411Y-112771996D01*
X136735637Y-112530586D01*
X136734081Y-112317468D01*
X136734208Y-112316928D01*
X136850128Y-112126712D01*
X137086902Y-111924639D01*
X137401003Y-111739519D01*
X137748907Y-111600167D01*
X137863897Y-111569093D01*
X138231313Y-111495892D01*
X138596664Y-111444526D01*
X138919555Y-111418218D01*
X139159590Y-111420188D01*
X139276376Y-111453661D01*
X139278284Y-111456263D01*
X139388368Y-111496941D01*
X139526671Y-111481086D01*
X139828164Y-111481993D01*
X140118960Y-111627053D01*
X140362676Y-111893042D01*
X140461418Y-112077664D01*
X140557445Y-112316475D01*
X140560782Y-112334967D01*
X139158603Y-112356994D01*
X139071922Y-112163811D01*
X139052773Y-112143972D01*
X138869155Y-112068249D01*
X138647158Y-112097172D01*
X138469280Y-112216802D01*
X138448846Y-112246010D01*
X138412696Y-112440863D01*
X138512048Y-112612808D01*
X138715464Y-112710586D01*
X138735729Y-112713727D01*
X138963440Y-112680595D01*
X139113420Y-112545470D01*
X139158603Y-112356994D01*
X140560782Y-112334967D01*
X140585580Y-112472344D01*
X140547697Y-112616626D01*
X140479230Y-112756023D01*
X140357869Y-112969751D01*
X140232968Y-113111430D01*
X140058648Y-113212314D01*
X139789031Y-113303664D01*
X139596019Y-113357751D01*
X139070497Y-113455495D01*
X138532170Y-113475573D01*
X138012993Y-113424685D01*
X138012993Y-113424685D01*
G37*
X138012993Y-113424685D02*
X137544919Y-113309531D01*
X137159898Y-113136812D01*
X136889887Y-112913225D01*
X136802411Y-112771996D01*
X136735637Y-112530586D01*
X136734081Y-112317468D01*
X136734208Y-112316928D01*
X136850128Y-112126712D01*
X137086902Y-111924639D01*
X137401003Y-111739519D01*
X137748907Y-111600167D01*
X137863897Y-111569093D01*
X138231313Y-111495892D01*
X138596664Y-111444526D01*
X138919555Y-111418218D01*
X139159590Y-111420188D01*
X139276376Y-111453661D01*
X139278284Y-111456263D01*
X139388368Y-111496941D01*
X139526671Y-111481086D01*
X139828164Y-111481993D01*
X140118960Y-111627053D01*
X140362676Y-111893042D01*
X140461418Y-112077664D01*
X140557445Y-112316475D01*
X140560782Y-112334967D01*
X139158603Y-112356994D01*
X139071922Y-112163811D01*
X139052773Y-112143972D01*
X138869155Y-112068249D01*
X138647158Y-112097172D01*
X138469280Y-112216802D01*
X138448846Y-112246010D01*
X138412696Y-112440863D01*
X138512048Y-112612808D01*
X138715464Y-112710586D01*
X138735729Y-112713727D01*
X138963440Y-112680595D01*
X139113420Y-112545470D01*
X139158603Y-112356994D01*
X140560782Y-112334967D01*
X140585580Y-112472344D01*
X140547697Y-112616626D01*
X140479230Y-112756023D01*
X140357869Y-112969751D01*
X140232968Y-113111430D01*
X140058648Y-113212314D01*
X139789031Y-113303664D01*
X139596019Y-113357751D01*
X139070497Y-113455495D01*
X138532170Y-113475573D01*
X138012993Y-113424685D01*
G36*
X143853969Y-113337561D02*
X143405305Y-113307141D01*
X143056974Y-113245485D01*
X142986650Y-113223271D01*
X142639277Y-113057097D01*
X142357083Y-112847072D01*
X142175572Y-112624575D01*
X142126742Y-112463433D01*
X142199103Y-112250040D01*
X142398866Y-112022190D01*
X142690849Y-111812762D01*
X142962444Y-111682399D01*
X143251417Y-111605896D01*
X143653496Y-111543720D01*
X144112758Y-111499989D01*
X144573282Y-111478827D01*
X144979149Y-111484352D01*
X145244884Y-111514199D01*
X145619549Y-111630875D01*
X145962513Y-111810827D01*
X146237235Y-112027200D01*
X146407175Y-112253142D01*
X146444209Y-112395609D01*
X144835741Y-112420877D01*
X144761698Y-112246610D01*
X144591767Y-112101519D01*
X144406476Y-112046573D01*
X144221090Y-112106755D01*
X144118315Y-112184164D01*
X144012824Y-112341740D01*
X143989179Y-112434175D01*
X144063223Y-112608443D01*
X144233154Y-112753534D01*
X144418445Y-112808479D01*
X144612312Y-112741259D01*
X144774079Y-112587831D01*
X144835741Y-112420877D01*
X146444209Y-112395609D01*
X146372058Y-112608756D01*
X146173729Y-112835371D01*
X145885603Y-113041507D01*
X145615929Y-113168474D01*
X145283946Y-113252202D01*
X144845091Y-113309011D01*
X144351165Y-113337824D01*
X143853969Y-113337561D01*
X143853969Y-113337561D01*
G37*
X143853969Y-113337561D02*
X143405305Y-113307141D01*
X143056974Y-113245485D01*
X142986650Y-113223271D01*
X142639277Y-113057097D01*
X142357083Y-112847072D01*
X142175572Y-112624575D01*
X142126742Y-112463433D01*
X142199103Y-112250040D01*
X142398866Y-112022190D01*
X142690849Y-111812762D01*
X142962444Y-111682399D01*
X143251417Y-111605896D01*
X143653496Y-111543720D01*
X144112758Y-111499989D01*
X144573282Y-111478827D01*
X144979149Y-111484352D01*
X145244884Y-111514199D01*
X145619549Y-111630875D01*
X145962513Y-111810827D01*
X146237235Y-112027200D01*
X146407175Y-112253142D01*
X146444209Y-112395609D01*
X144835741Y-112420877D01*
X144761698Y-112246610D01*
X144591767Y-112101519D01*
X144406476Y-112046573D01*
X144221090Y-112106755D01*
X144118315Y-112184164D01*
X144012824Y-112341740D01*
X143989179Y-112434175D01*
X144063223Y-112608443D01*
X144233154Y-112753534D01*
X144418445Y-112808479D01*
X144612312Y-112741259D01*
X144774079Y-112587831D01*
X144835741Y-112420877D01*
X146444209Y-112395609D01*
X146372058Y-112608756D01*
X146173729Y-112835371D01*
X145885603Y-113041507D01*
X145615929Y-113168474D01*
X145283946Y-113252202D01*
X144845091Y-113309011D01*
X144351165Y-113337824D01*
X143853969Y-113337561D01*
G36*
X124610620Y-115523646D02*
X124505850Y-115433531D01*
X124484631Y-115243289D01*
X124489445Y-115184065D01*
X124483612Y-114969539D01*
X124415232Y-114900934D01*
X124296588Y-114969676D01*
X124280957Y-115001753D01*
X124188960Y-115082884D01*
X123986481Y-115184521D01*
X123818699Y-115248959D01*
X123500576Y-115329454D01*
X123274329Y-115328467D01*
X123162350Y-115249730D01*
X123167352Y-115140438D01*
X123132052Y-115040666D01*
X122976445Y-114972514D01*
X122748412Y-114947991D01*
X122510178Y-114975602D01*
X122319488Y-114992345D01*
X122221860Y-114909956D01*
X122208163Y-114878841D01*
X122124963Y-114727060D01*
X122078691Y-114678990D01*
X121938164Y-114650698D01*
X121695491Y-114652843D01*
X121414327Y-114681439D01*
X121158323Y-114732496D01*
X121139486Y-114737825D01*
X120949552Y-114760002D01*
X120781927Y-114677887D01*
X120679414Y-114586634D01*
X120554374Y-114455408D01*
X120497263Y-114338041D01*
X120497566Y-114176560D01*
X120544771Y-113912987D01*
X120551338Y-113880405D01*
X120623825Y-113515489D01*
X120697524Y-113135369D01*
X120729051Y-112968930D01*
X120812726Y-112567969D01*
X120896260Y-112316559D01*
X120998782Y-112196012D01*
X121139420Y-112187647D01*
X121337303Y-112272780D01*
X121403819Y-112309823D01*
X121569923Y-112435460D01*
X121613048Y-112589232D01*
X121600489Y-112702000D01*
X121600468Y-112916695D01*
X121706914Y-113046969D01*
X121721322Y-113055994D01*
X121856990Y-113110839D01*
X121924984Y-113043724D01*
X121929976Y-113030756D01*
X122040724Y-112932537D01*
X122172609Y-112903913D01*
X122364749Y-112865881D01*
X122456033Y-112812008D01*
X122585352Y-112765904D01*
X122737766Y-112796284D01*
X122825151Y-112882529D01*
X122827200Y-112898853D01*
X122902123Y-112958793D01*
X123085152Y-113013936D01*
X123126693Y-113021752D01*
X123348395Y-113091389D01*
X123493989Y-113193633D01*
X123502442Y-113206209D01*
X123593316Y-113291875D01*
X123699159Y-113237287D01*
X123858917Y-113186175D01*
X124107022Y-113190509D01*
X124386499Y-113238523D01*
X124640372Y-113318447D01*
X124811666Y-113418512D01*
X124849261Y-113474860D01*
X124927774Y-113608332D01*
X125022068Y-113579469D01*
X125070954Y-113487522D01*
X125188063Y-113386365D01*
X125311154Y-113377953D01*
X125440177Y-113421028D01*
X125485626Y-113539956D01*
X125483028Y-113696268D01*
X125445500Y-113881477D01*
X125359854Y-114169060D01*
X125243029Y-114512804D01*
X125111957Y-114866493D01*
X124983573Y-115183918D01*
X124874811Y-115418863D01*
X124817917Y-115511293D01*
X124700862Y-115542555D01*
X124610620Y-115523646D01*
X124610620Y-115523646D01*
G37*
X124610620Y-115523646D02*
X124505850Y-115433531D01*
X124484631Y-115243289D01*
X124489445Y-115184065D01*
X124483612Y-114969539D01*
X124415232Y-114900934D01*
X124296588Y-114969676D01*
X124280957Y-115001753D01*
X124188960Y-115082884D01*
X123986481Y-115184521D01*
X123818699Y-115248959D01*
X123500576Y-115329454D01*
X123274329Y-115328467D01*
X123162350Y-115249730D01*
X123167352Y-115140438D01*
X123132052Y-115040666D01*
X122976445Y-114972514D01*
X122748412Y-114947991D01*
X122510178Y-114975602D01*
X122319488Y-114992345D01*
X122221860Y-114909956D01*
X122208163Y-114878841D01*
X122124963Y-114727060D01*
X122078691Y-114678990D01*
X121938164Y-114650698D01*
X121695491Y-114652843D01*
X121414327Y-114681439D01*
X121158323Y-114732496D01*
X121139486Y-114737825D01*
X120949552Y-114760002D01*
X120781927Y-114677887D01*
X120679414Y-114586634D01*
X120554374Y-114455408D01*
X120497263Y-114338041D01*
X120497566Y-114176560D01*
X120544771Y-113912987D01*
X120551338Y-113880405D01*
X120623825Y-113515489D01*
X120697524Y-113135369D01*
X120729051Y-112968930D01*
X120812726Y-112567969D01*
X120896260Y-112316559D01*
X120998782Y-112196012D01*
X121139420Y-112187647D01*
X121337303Y-112272780D01*
X121403819Y-112309823D01*
X121569923Y-112435460D01*
X121613048Y-112589232D01*
X121600489Y-112702000D01*
X121600468Y-112916695D01*
X121706914Y-113046969D01*
X121721322Y-113055994D01*
X121856990Y-113110839D01*
X121924984Y-113043724D01*
X121929976Y-113030756D01*
X122040724Y-112932537D01*
X122172609Y-112903913D01*
X122364749Y-112865881D01*
X122456033Y-112812008D01*
X122585352Y-112765904D01*
X122737766Y-112796284D01*
X122825151Y-112882529D01*
X122827200Y-112898853D01*
X122902123Y-112958793D01*
X123085152Y-113013936D01*
X123126693Y-113021752D01*
X123348395Y-113091389D01*
X123493989Y-113193633D01*
X123502442Y-113206209D01*
X123593316Y-113291875D01*
X123699159Y-113237287D01*
X123858917Y-113186175D01*
X124107022Y-113190509D01*
X124386499Y-113238523D01*
X124640372Y-113318447D01*
X124811666Y-113418512D01*
X124849261Y-113474860D01*
X124927774Y-113608332D01*
X125022068Y-113579469D01*
X125070954Y-113487522D01*
X125188063Y-113386365D01*
X125311154Y-113377953D01*
X125440177Y-113421028D01*
X125485626Y-113539956D01*
X125483028Y-113696268D01*
X125445500Y-113881477D01*
X125359854Y-114169060D01*
X125243029Y-114512804D01*
X125111957Y-114866493D01*
X124983573Y-115183918D01*
X124874811Y-115418863D01*
X124817917Y-115511293D01*
X124700862Y-115542555D01*
X124610620Y-115523646D01*
G36*
X157337319Y-117277173D02*
X157272888Y-117149797D01*
X157210683Y-116999964D01*
X157142374Y-116927128D01*
X157042666Y-116767887D01*
X157010220Y-116600044D01*
X156966552Y-116376248D01*
X156864025Y-116119579D01*
X156845070Y-116083774D01*
X156731988Y-115840531D01*
X156626424Y-115549478D01*
X156541878Y-115258583D01*
X156491843Y-115015810D01*
X156489820Y-114869126D01*
X156498684Y-114852789D01*
X156611506Y-114806458D01*
X156820801Y-114763539D01*
X156870796Y-114756637D01*
X157130447Y-114755814D01*
X157283396Y-114842835D01*
X157293822Y-114855850D01*
X157345888Y-114914054D01*
X157411293Y-114938901D01*
X157517267Y-114922029D01*
X157691042Y-114855076D01*
X157959849Y-114729678D01*
X158350920Y-114537471D01*
X158384182Y-114520999D01*
X158596383Y-114482883D01*
X158747006Y-114544095D01*
X158896261Y-114611371D01*
X158983889Y-114566899D01*
X159011189Y-114526812D01*
X159086047Y-114349651D01*
X159033301Y-114274855D01*
X159005913Y-114272864D01*
X158927210Y-114218277D01*
X158935737Y-114101423D01*
X159021370Y-113998583D01*
X159043770Y-113987616D01*
X159262187Y-113975021D01*
X159427723Y-114109541D01*
X159482258Y-114237432D01*
X159566508Y-114388435D01*
X159660276Y-114394650D01*
X159817221Y-114349019D01*
X159859730Y-114344127D01*
X159911406Y-114272894D01*
X159913453Y-114162095D01*
X159944859Y-114010034D01*
X160108707Y-113905968D01*
X160143093Y-113893407D01*
X160368683Y-113792135D01*
X160527573Y-113687509D01*
X160718787Y-113577540D01*
X160864626Y-113615573D01*
X160913747Y-113692491D01*
X161030729Y-113797171D01*
X161127383Y-113816151D01*
X161285156Y-113866963D01*
X161336989Y-113929786D01*
X161418382Y-114000999D01*
X161598992Y-113992081D01*
X161680445Y-113974134D01*
X161916617Y-113906944D01*
X162031670Y-113820776D01*
X162070313Y-113662389D01*
X162075523Y-113503682D01*
X162132836Y-113226525D01*
X162274568Y-113069725D01*
X162469545Y-113049429D01*
X162686599Y-113181785D01*
X162690153Y-113185304D01*
X162893751Y-113349250D01*
X163037309Y-113386429D01*
X163101296Y-113293902D01*
X163102447Y-113247339D01*
X163120213Y-113127206D01*
X163220038Y-113080190D01*
X163403783Y-113078376D01*
X163658661Y-113053158D01*
X163759254Y-112966945D01*
X163859645Y-112854200D01*
X163913179Y-112839477D01*
X164067050Y-112767268D01*
X164232008Y-112599760D01*
X164356893Y-112399133D01*
X164393558Y-112255594D01*
X164463725Y-112087606D01*
X164559311Y-112026357D01*
X164695110Y-111930129D01*
X164725874Y-111848680D01*
X164788368Y-111761730D01*
X164991959Y-111724415D01*
X165062594Y-111722081D01*
X165272138Y-111732798D01*
X165385307Y-111766036D01*
X165392191Y-111780411D01*
X165395406Y-111951883D01*
X165450076Y-112025964D01*
X165482360Y-112016957D01*
X165572185Y-112048241D01*
X165699376Y-112186697D01*
X165730450Y-112231621D01*
X165845638Y-112462769D01*
X165849487Y-112679768D01*
X165830860Y-112759174D01*
X165809787Y-112967331D01*
X165837980Y-113185679D01*
X165900661Y-113362860D01*
X165983049Y-113447519D01*
X166026598Y-113439371D01*
X166116063Y-113462774D01*
X166205496Y-113601942D01*
X166268586Y-113805353D01*
X166282935Y-113941287D01*
X166227304Y-114169783D01*
X166128832Y-114321037D01*
X166003388Y-114420794D01*
X165856738Y-114442079D01*
X165625937Y-114397180D01*
X165300038Y-114365519D01*
X165042468Y-114435269D01*
X164886694Y-114591675D01*
X164884097Y-114603907D01*
X163316662Y-114628530D01*
X163301471Y-114508559D01*
X163272301Y-114523381D01*
X163263842Y-114696877D01*
X163275626Y-114735021D01*
X163306691Y-114745171D01*
X163316662Y-114628530D01*
X164884097Y-114603907D01*
X164855919Y-114736615D01*
X164795532Y-114915682D01*
X164648552Y-114997010D01*
X164476470Y-114947504D01*
X164471453Y-114943563D01*
X164285613Y-114892855D01*
X164238278Y-114910422D01*
X163419340Y-114923287D01*
X163376347Y-114881624D01*
X163334684Y-114924617D01*
X163377677Y-114966280D01*
X163419340Y-114923287D01*
X164238278Y-114910422D01*
X164062460Y-114975669D01*
X163888775Y-115127042D01*
X163736548Y-115240939D01*
X163591985Y-115216243D01*
X163462412Y-115189646D01*
X163403052Y-115295409D01*
X163297077Y-115423235D01*
X163042906Y-115520756D01*
X162683694Y-115585448D01*
X162571675Y-115664995D01*
X162455106Y-115836865D01*
X162452683Y-115841696D01*
X162313792Y-116026281D01*
X162167680Y-116079673D01*
X162051122Y-115993352D01*
X162027805Y-115940103D01*
X161949727Y-115736732D01*
X161901080Y-115624555D01*
X161838511Y-115421493D01*
X161795858Y-115168357D01*
X161795724Y-115167006D01*
X161743014Y-114923497D01*
X161667268Y-114837878D01*
X161597114Y-114906779D01*
X161561184Y-115126834D01*
X161560707Y-115194658D01*
X161543348Y-115466847D01*
X161466363Y-115634919D01*
X161380648Y-115712607D01*
X161164071Y-115824669D01*
X160988401Y-115838077D01*
X160896395Y-115752603D01*
X160891467Y-115715217D01*
X160849737Y-115622172D01*
X160705298Y-115639125D01*
X160699776Y-115640930D01*
X160443161Y-115702275D01*
X160097995Y-115756569D01*
X159745017Y-115792848D01*
X159516821Y-115801590D01*
X159342862Y-115834086D01*
X159285614Y-115906898D01*
X159211013Y-116125998D01*
X158997978Y-116289113D01*
X158706719Y-116370398D01*
X158442295Y-116436337D01*
X158231118Y-116541712D01*
X158192658Y-116574563D01*
X157986102Y-116689810D01*
X157857703Y-116686228D01*
X157734351Y-116674124D01*
X157700691Y-116752077D01*
X157719826Y-116902623D01*
X157716140Y-117147991D01*
X157648823Y-117263607D01*
X157487208Y-117324497D01*
X157337319Y-117277173D01*
X157337319Y-117277173D01*
G37*
X157337319Y-117277173D02*
X157272888Y-117149797D01*
X157210683Y-116999964D01*
X157142374Y-116927128D01*
X157042666Y-116767887D01*
X157010220Y-116600044D01*
X156966552Y-116376248D01*
X156864025Y-116119579D01*
X156845070Y-116083774D01*
X156731988Y-115840531D01*
X156626424Y-115549478D01*
X156541878Y-115258583D01*
X156491843Y-115015810D01*
X156489820Y-114869126D01*
X156498684Y-114852789D01*
X156611506Y-114806458D01*
X156820801Y-114763539D01*
X156870796Y-114756637D01*
X157130447Y-114755814D01*
X157283396Y-114842835D01*
X157293822Y-114855850D01*
X157345888Y-114914054D01*
X157411293Y-114938901D01*
X157517267Y-114922029D01*
X157691042Y-114855076D01*
X157959849Y-114729678D01*
X158350920Y-114537471D01*
X158384182Y-114520999D01*
X158596383Y-114482883D01*
X158747006Y-114544095D01*
X158896261Y-114611371D01*
X158983889Y-114566899D01*
X159011189Y-114526812D01*
X159086047Y-114349651D01*
X159033301Y-114274855D01*
X159005913Y-114272864D01*
X158927210Y-114218277D01*
X158935737Y-114101423D01*
X159021370Y-113998583D01*
X159043770Y-113987616D01*
X159262187Y-113975021D01*
X159427723Y-114109541D01*
X159482258Y-114237432D01*
X159566508Y-114388435D01*
X159660276Y-114394650D01*
X159817221Y-114349019D01*
X159859730Y-114344127D01*
X159911406Y-114272894D01*
X159913453Y-114162095D01*
X159944859Y-114010034D01*
X160108707Y-113905968D01*
X160143093Y-113893407D01*
X160368683Y-113792135D01*
X160527573Y-113687509D01*
X160718787Y-113577540D01*
X160864626Y-113615573D01*
X160913747Y-113692491D01*
X161030729Y-113797171D01*
X161127383Y-113816151D01*
X161285156Y-113866963D01*
X161336989Y-113929786D01*
X161418382Y-114000999D01*
X161598992Y-113992081D01*
X161680445Y-113974134D01*
X161916617Y-113906944D01*
X162031670Y-113820776D01*
X162070313Y-113662389D01*
X162075523Y-113503682D01*
X162132836Y-113226525D01*
X162274568Y-113069725D01*
X162469545Y-113049429D01*
X162686599Y-113181785D01*
X162690153Y-113185304D01*
X162893751Y-113349250D01*
X163037309Y-113386429D01*
X163101296Y-113293902D01*
X163102447Y-113247339D01*
X163120213Y-113127206D01*
X163220038Y-113080190D01*
X163403783Y-113078376D01*
X163658661Y-113053158D01*
X163759254Y-112966945D01*
X163859645Y-112854200D01*
X163913179Y-112839477D01*
X164067050Y-112767268D01*
X164232008Y-112599760D01*
X164356893Y-112399133D01*
X164393558Y-112255594D01*
X164463725Y-112087606D01*
X164559311Y-112026357D01*
X164695110Y-111930129D01*
X164725874Y-111848680D01*
X164788368Y-111761730D01*
X164991959Y-111724415D01*
X165062594Y-111722081D01*
X165272138Y-111732798D01*
X165385307Y-111766036D01*
X165392191Y-111780411D01*
X165395406Y-111951883D01*
X165450076Y-112025964D01*
X165482360Y-112016957D01*
X165572185Y-112048241D01*
X165699376Y-112186697D01*
X165730450Y-112231621D01*
X165845638Y-112462769D01*
X165849487Y-112679768D01*
X165830860Y-112759174D01*
X165809787Y-112967331D01*
X165837980Y-113185679D01*
X165900661Y-113362860D01*
X165983049Y-113447519D01*
X166026598Y-113439371D01*
X166116063Y-113462774D01*
X166205496Y-113601942D01*
X166268586Y-113805353D01*
X166282935Y-113941287D01*
X166227304Y-114169783D01*
X166128832Y-114321037D01*
X166003388Y-114420794D01*
X165856738Y-114442079D01*
X165625937Y-114397180D01*
X165300038Y-114365519D01*
X165042468Y-114435269D01*
X164886694Y-114591675D01*
X164884097Y-114603907D01*
X163316662Y-114628530D01*
X163301471Y-114508559D01*
X163272301Y-114523381D01*
X163263842Y-114696877D01*
X163275626Y-114735021D01*
X163306691Y-114745171D01*
X163316662Y-114628530D01*
X164884097Y-114603907D01*
X164855919Y-114736615D01*
X164795532Y-114915682D01*
X164648552Y-114997010D01*
X164476470Y-114947504D01*
X164471453Y-114943563D01*
X164285613Y-114892855D01*
X164238278Y-114910422D01*
X163419340Y-114923287D01*
X163376347Y-114881624D01*
X163334684Y-114924617D01*
X163377677Y-114966280D01*
X163419340Y-114923287D01*
X164238278Y-114910422D01*
X164062460Y-114975669D01*
X163888775Y-115127042D01*
X163736548Y-115240939D01*
X163591985Y-115216243D01*
X163462412Y-115189646D01*
X163403052Y-115295409D01*
X163297077Y-115423235D01*
X163042906Y-115520756D01*
X162683694Y-115585448D01*
X162571675Y-115664995D01*
X162455106Y-115836865D01*
X162452683Y-115841696D01*
X162313792Y-116026281D01*
X162167680Y-116079673D01*
X162051122Y-115993352D01*
X162027805Y-115940103D01*
X161949727Y-115736732D01*
X161901080Y-115624555D01*
X161838511Y-115421493D01*
X161795858Y-115168357D01*
X161795724Y-115167006D01*
X161743014Y-114923497D01*
X161667268Y-114837878D01*
X161597114Y-114906779D01*
X161561184Y-115126834D01*
X161560707Y-115194658D01*
X161543348Y-115466847D01*
X161466363Y-115634919D01*
X161380648Y-115712607D01*
X161164071Y-115824669D01*
X160988401Y-115838077D01*
X160896395Y-115752603D01*
X160891467Y-115715217D01*
X160849737Y-115622172D01*
X160705298Y-115639125D01*
X160699776Y-115640930D01*
X160443161Y-115702275D01*
X160097995Y-115756569D01*
X159745017Y-115792848D01*
X159516821Y-115801590D01*
X159342862Y-115834086D01*
X159285614Y-115906898D01*
X159211013Y-116125998D01*
X158997978Y-116289113D01*
X158706719Y-116370398D01*
X158442295Y-116436337D01*
X158231118Y-116541712D01*
X158192658Y-116574563D01*
X157986102Y-116689810D01*
X157857703Y-116686228D01*
X157734351Y-116674124D01*
X157700691Y-116752077D01*
X157719826Y-116902623D01*
X157716140Y-117147991D01*
X157648823Y-117263607D01*
X157487208Y-117324497D01*
X157337319Y-117277173D01*
G36*
X129932709Y-116870690D02*
X129916905Y-116814030D01*
X129843543Y-116728563D01*
X129676824Y-116668809D01*
X129492407Y-116650105D01*
X129365950Y-116687785D01*
X129355993Y-116700334D01*
X129232843Y-116778611D01*
X129082297Y-116753144D01*
X128987467Y-116644595D01*
X128982211Y-116607409D01*
X128930924Y-116470882D01*
X128861625Y-116439950D01*
X128729862Y-116373717D01*
X128692974Y-116315584D01*
X128578069Y-116204745D01*
X128512610Y-116191401D01*
X128397552Y-116148303D01*
X128381638Y-116108781D01*
X128307078Y-116050765D01*
X128128981Y-116028094D01*
X128123362Y-116028162D01*
X127861920Y-115987572D01*
X127663524Y-115903769D01*
X127489456Y-115827597D01*
X127404102Y-115870106D01*
X127306581Y-115910581D01*
X127141671Y-115834540D01*
X126997506Y-115768116D01*
X126937131Y-115789733D01*
X126937132Y-115790813D01*
X126881723Y-115872468D01*
X126744861Y-115857863D01*
X126576870Y-115757077D01*
X126524685Y-115708194D01*
X126379584Y-115601451D01*
X126303420Y-115626992D01*
X126167694Y-115710992D01*
X125965215Y-115705248D01*
X125768371Y-115616524D01*
X125719007Y-115572372D01*
X125597535Y-115329664D01*
X125591199Y-114979812D01*
X125700134Y-114515277D01*
X125739766Y-114396410D01*
X125873745Y-114043589D01*
X125986484Y-113834662D01*
X126095337Y-113748648D01*
X126217654Y-113764566D01*
X126249301Y-113780321D01*
X126375479Y-113921357D01*
X126401286Y-114022174D01*
X126442457Y-114191892D01*
X126549988Y-114210247D01*
X126711453Y-114075763D01*
X126724470Y-114060567D01*
X126870509Y-113920677D01*
X127018584Y-113899756D01*
X127158687Y-113937903D01*
X127363665Y-114055899D01*
X127419963Y-114184599D01*
X127486434Y-114319692D01*
X127586809Y-114343048D01*
X127744513Y-114372356D01*
X127795406Y-114409661D01*
X127898170Y-114443208D01*
X128112295Y-114453046D01*
X128269843Y-114445822D01*
X128551445Y-114439492D01*
X128703277Y-114479928D01*
X128750213Y-114537741D01*
X128855846Y-114651091D01*
X128990684Y-114625715D01*
X129106727Y-114473598D01*
X129117611Y-114446016D01*
X129238683Y-114269004D01*
X129410226Y-114251510D01*
X129623528Y-114394397D01*
X129624884Y-114395709D01*
X129791742Y-114518477D01*
X129916786Y-114560477D01*
X130043953Y-114598262D01*
X130065981Y-114624777D01*
X130145147Y-114710723D01*
X130315094Y-114857303D01*
X130438526Y-114955131D01*
X130705457Y-115127882D01*
X130907387Y-115176810D01*
X130971530Y-115166491D01*
X131165853Y-115169178D01*
X131339083Y-115253687D01*
X131418516Y-115383850D01*
X131418706Y-115388962D01*
X131370990Y-115490525D01*
X131244670Y-115687062D01*
X131066958Y-115941341D01*
X130865065Y-116216137D01*
X130748065Y-116367977D01*
X130164073Y-116377151D01*
X130121081Y-116335487D01*
X130079418Y-116378481D01*
X130122410Y-116420144D01*
X130164073Y-116377151D01*
X130748065Y-116367977D01*
X130666201Y-116474218D01*
X130497577Y-116678357D01*
X130405222Y-116775578D01*
X130220188Y-116891430D01*
X130044921Y-116924532D01*
X129932709Y-116870690D01*
X129932709Y-116870690D01*
G37*
X129932709Y-116870690D02*
X129916905Y-116814030D01*
X129843543Y-116728563D01*
X129676824Y-116668809D01*
X129492407Y-116650105D01*
X129365950Y-116687785D01*
X129355993Y-116700334D01*
X129232843Y-116778611D01*
X129082297Y-116753144D01*
X128987467Y-116644595D01*
X128982211Y-116607409D01*
X128930924Y-116470882D01*
X128861625Y-116439950D01*
X128729862Y-116373717D01*
X128692974Y-116315584D01*
X128578069Y-116204745D01*
X128512610Y-116191401D01*
X128397552Y-116148303D01*
X128381638Y-116108781D01*
X128307078Y-116050765D01*
X128128981Y-116028094D01*
X128123362Y-116028162D01*
X127861920Y-115987572D01*
X127663524Y-115903769D01*
X127489456Y-115827597D01*
X127404102Y-115870106D01*
X127306581Y-115910581D01*
X127141671Y-115834540D01*
X126997506Y-115768116D01*
X126937131Y-115789733D01*
X126937132Y-115790813D01*
X126881723Y-115872468D01*
X126744861Y-115857863D01*
X126576870Y-115757077D01*
X126524685Y-115708194D01*
X126379584Y-115601451D01*
X126303420Y-115626992D01*
X126167694Y-115710992D01*
X125965215Y-115705248D01*
X125768371Y-115616524D01*
X125719007Y-115572372D01*
X125597535Y-115329664D01*
X125591199Y-114979812D01*
X125700134Y-114515277D01*
X125739766Y-114396410D01*
X125873745Y-114043589D01*
X125986484Y-113834662D01*
X126095337Y-113748648D01*
X126217654Y-113764566D01*
X126249301Y-113780321D01*
X126375479Y-113921357D01*
X126401286Y-114022174D01*
X126442457Y-114191892D01*
X126549988Y-114210247D01*
X126711453Y-114075763D01*
X126724470Y-114060567D01*
X126870509Y-113920677D01*
X127018584Y-113899756D01*
X127158687Y-113937903D01*
X127363665Y-114055899D01*
X127419963Y-114184599D01*
X127486434Y-114319692D01*
X127586809Y-114343048D01*
X127744513Y-114372356D01*
X127795406Y-114409661D01*
X127898170Y-114443208D01*
X128112295Y-114453046D01*
X128269843Y-114445822D01*
X128551445Y-114439492D01*
X128703277Y-114479928D01*
X128750213Y-114537741D01*
X128855846Y-114651091D01*
X128990684Y-114625715D01*
X129106727Y-114473598D01*
X129117611Y-114446016D01*
X129238683Y-114269004D01*
X129410226Y-114251510D01*
X129623528Y-114394397D01*
X129624884Y-114395709D01*
X129791742Y-114518477D01*
X129916786Y-114560477D01*
X130043953Y-114598262D01*
X130065981Y-114624777D01*
X130145147Y-114710723D01*
X130315094Y-114857303D01*
X130438526Y-114955131D01*
X130705457Y-115127882D01*
X130907387Y-115176810D01*
X130971530Y-115166491D01*
X131165853Y-115169178D01*
X131339083Y-115253687D01*
X131418516Y-115383850D01*
X131418706Y-115388962D01*
X131370990Y-115490525D01*
X131244670Y-115687062D01*
X131066958Y-115941341D01*
X130865065Y-116216137D01*
X130748065Y-116367977D01*
X130164073Y-116377151D01*
X130121081Y-116335487D01*
X130079418Y-116378481D01*
X130122410Y-116420144D01*
X130164073Y-116377151D01*
X130748065Y-116367977D01*
X130666201Y-116474218D01*
X130497577Y-116678357D01*
X130405222Y-116775578D01*
X130220188Y-116891430D01*
X130044921Y-116924532D01*
X129932709Y-116870690D01*
G36*
X151987484Y-118321206D02*
X151872661Y-118234221D01*
X151747491Y-118246327D01*
X151643647Y-118257676D01*
X151564407Y-118204743D01*
X151487355Y-118056354D01*
X151390076Y-117781336D01*
X151370782Y-117722411D01*
X151236048Y-117234248D01*
X151194293Y-116875380D01*
X151245060Y-116633881D01*
X151325262Y-116535906D01*
X151545788Y-116433439D01*
X151740503Y-116466014D01*
X151829208Y-116557331D01*
X151949033Y-116654315D01*
X152128889Y-116701891D01*
X152310867Y-116699415D01*
X152437063Y-116646244D01*
X152458289Y-116564321D01*
X152491955Y-116434517D01*
X152635577Y-116354129D01*
X152831309Y-116349867D01*
X152887775Y-116366026D01*
X153005385Y-116360757D01*
X153025527Y-116290165D01*
X153091645Y-116153482D01*
X153243464Y-116092639D01*
X153403439Y-116138477D01*
X153404596Y-116139399D01*
X153498871Y-116164816D01*
X153556798Y-116042187D01*
X153605917Y-115927377D01*
X153710825Y-115887744D01*
X153924206Y-115905166D01*
X153946084Y-115908272D01*
X154165243Y-115930460D01*
X154264042Y-115901398D01*
X154287822Y-115804703D01*
X154287746Y-115784836D01*
X154348799Y-115621686D01*
X154432433Y-115562192D01*
X154627970Y-115483981D01*
X154766019Y-115419829D01*
X154959210Y-115372195D01*
X155074678Y-115425582D01*
X155201741Y-115475927D01*
X155325020Y-115392075D01*
X155475258Y-115311445D01*
X155695984Y-115263362D01*
X155916927Y-115255048D01*
X156067818Y-115293730D01*
X156087751Y-115313662D01*
X156129903Y-115437657D01*
X156185786Y-115673240D01*
X156244512Y-115964467D01*
X156295193Y-116255391D01*
X156326940Y-116490068D01*
X156332337Y-116570396D01*
X156260267Y-116726093D01*
X156076275Y-116880559D01*
X155835614Y-117005608D01*
X155593536Y-117073054D01*
X155405295Y-117054711D01*
X155394457Y-117048836D01*
X155245765Y-117030837D01*
X155124647Y-117112157D01*
X155090867Y-117242015D01*
X155110902Y-117289792D01*
X155101840Y-117390127D01*
X154991583Y-117469293D01*
X154847916Y-117495158D01*
X154756433Y-117457821D01*
X154651882Y-117435749D01*
X154500893Y-117550544D01*
X154455678Y-117599016D01*
X154268882Y-117760235D01*
X154056889Y-117811945D01*
X153923695Y-117808785D01*
X153685269Y-117765906D01*
X153536798Y-117645862D01*
X153457121Y-117513148D01*
X153361463Y-117345297D01*
X153308680Y-117316980D01*
X153272908Y-117410195D01*
X153161501Y-117556390D01*
X153053782Y-117584097D01*
X152915329Y-117633623D01*
X152879779Y-117792817D01*
X152820741Y-117984778D01*
X152724551Y-118051801D01*
X152544502Y-118147181D01*
X152376388Y-118274669D01*
X152183222Y-118417612D01*
X152059636Y-118424482D01*
X151987484Y-118321206D01*
X151987484Y-118321206D01*
G37*
X151987484Y-118321206D02*
X151872661Y-118234221D01*
X151747491Y-118246327D01*
X151643647Y-118257676D01*
X151564407Y-118204743D01*
X151487355Y-118056354D01*
X151390076Y-117781336D01*
X151370782Y-117722411D01*
X151236048Y-117234248D01*
X151194293Y-116875380D01*
X151245060Y-116633881D01*
X151325262Y-116535906D01*
X151545788Y-116433439D01*
X151740503Y-116466014D01*
X151829208Y-116557331D01*
X151949033Y-116654315D01*
X152128889Y-116701891D01*
X152310867Y-116699415D01*
X152437063Y-116646244D01*
X152458289Y-116564321D01*
X152491955Y-116434517D01*
X152635577Y-116354129D01*
X152831309Y-116349867D01*
X152887775Y-116366026D01*
X153005385Y-116360757D01*
X153025527Y-116290165D01*
X153091645Y-116153482D01*
X153243464Y-116092639D01*
X153403439Y-116138477D01*
X153404596Y-116139399D01*
X153498871Y-116164816D01*
X153556798Y-116042187D01*
X153605917Y-115927377D01*
X153710825Y-115887744D01*
X153924206Y-115905166D01*
X153946084Y-115908272D01*
X154165243Y-115930460D01*
X154264042Y-115901398D01*
X154287822Y-115804703D01*
X154287746Y-115784836D01*
X154348799Y-115621686D01*
X154432433Y-115562192D01*
X154627970Y-115483981D01*
X154766019Y-115419829D01*
X154959210Y-115372195D01*
X155074678Y-115425582D01*
X155201741Y-115475927D01*
X155325020Y-115392075D01*
X155475258Y-115311445D01*
X155695984Y-115263362D01*
X155916927Y-115255048D01*
X156067818Y-115293730D01*
X156087751Y-115313662D01*
X156129903Y-115437657D01*
X156185786Y-115673240D01*
X156244512Y-115964467D01*
X156295193Y-116255391D01*
X156326940Y-116490068D01*
X156332337Y-116570396D01*
X156260267Y-116726093D01*
X156076275Y-116880559D01*
X155835614Y-117005608D01*
X155593536Y-117073054D01*
X155405295Y-117054711D01*
X155394457Y-117048836D01*
X155245765Y-117030837D01*
X155124647Y-117112157D01*
X155090867Y-117242015D01*
X155110902Y-117289792D01*
X155101840Y-117390127D01*
X154991583Y-117469293D01*
X154847916Y-117495158D01*
X154756433Y-117457821D01*
X154651882Y-117435749D01*
X154500893Y-117550544D01*
X154455678Y-117599016D01*
X154268882Y-117760235D01*
X154056889Y-117811945D01*
X153923695Y-117808785D01*
X153685269Y-117765906D01*
X153536798Y-117645862D01*
X153457121Y-117513148D01*
X153361463Y-117345297D01*
X153308680Y-117316980D01*
X153272908Y-117410195D01*
X153161501Y-117556390D01*
X153053782Y-117584097D01*
X152915329Y-117633623D01*
X152879779Y-117792817D01*
X152820741Y-117984778D01*
X152724551Y-118051801D01*
X152544502Y-118147181D01*
X152376388Y-118274669D01*
X152183222Y-118417612D01*
X152059636Y-118424482D01*
X151987484Y-118321206D01*
G36*
X141515955Y-118035639D02*
X141432039Y-118034821D01*
X140857731Y-118023017D01*
X140434459Y-117999362D01*
X140144168Y-117960948D01*
X139968796Y-117904863D01*
X139890285Y-117828196D01*
X139881719Y-117784929D01*
X139958445Y-117706420D01*
X140193056Y-117662384D01*
X140587684Y-117652741D01*
X141144461Y-117677407D01*
X141658877Y-117717416D01*
X142063231Y-117758797D01*
X142323104Y-117801427D01*
X142463284Y-117851189D01*
X142508559Y-117913967D01*
X142508816Y-117919105D01*
X142486941Y-117972011D01*
X142402294Y-118007368D01*
X142229300Y-118027925D01*
X141942379Y-118036433D01*
X141515955Y-118035639D01*
X141515955Y-118035639D01*
G37*
X141515955Y-118035639D02*
X141432039Y-118034821D01*
X140857731Y-118023017D01*
X140434459Y-117999362D01*
X140144168Y-117960948D01*
X139968796Y-117904863D01*
X139890285Y-117828196D01*
X139881719Y-117784929D01*
X139958445Y-117706420D01*
X140193056Y-117662384D01*
X140587684Y-117652741D01*
X141144461Y-117677407D01*
X141658877Y-117717416D01*
X142063231Y-117758797D01*
X142323104Y-117801427D01*
X142463284Y-117851189D01*
X142508559Y-117913967D01*
X142508816Y-117919105D01*
X142486941Y-117972011D01*
X142402294Y-118007368D01*
X142229300Y-118027925D01*
X141942379Y-118036433D01*
X141515955Y-118035639D01*
G36*
X157793919Y-117975358D02*
X157835582Y-117932364D01*
X157878575Y-117974028D01*
X157836912Y-118017020D01*
X157793919Y-117975358D01*
X157793919Y-117975358D01*
G37*
X157793919Y-117975358D02*
X157835582Y-117932364D01*
X157878575Y-117974028D01*
X157836912Y-118017020D01*
X157793919Y-117975358D01*
G36*
X149961449Y-132417885D02*
X149614285Y-132306119D01*
X149300577Y-132083844D01*
X149154432Y-131941841D01*
X148720809Y-131388849D01*
X148451134Y-130799076D01*
X148356456Y-130325997D01*
X148347019Y-129818302D01*
X148438250Y-129413356D01*
X148644169Y-129068423D01*
X148835405Y-128866127D01*
X149314156Y-128512495D01*
X149848232Y-128276136D01*
X150396573Y-128170381D01*
X150884018Y-128201062D01*
X151154685Y-128277249D01*
X151385010Y-128399405D01*
X151620935Y-128599014D01*
X151898290Y-128896069D01*
X152305153Y-129418642D01*
X152554664Y-129895075D01*
X152647264Y-130340674D01*
X152638814Y-130397575D01*
X152061807Y-130406639D01*
X152042061Y-130140051D01*
X151973721Y-129929212D01*
X151828165Y-129704094D01*
X151717505Y-129564320D01*
X151420827Y-129220551D01*
X151175049Y-128996029D01*
X150939667Y-128867457D01*
X150674175Y-128811535D01*
X150395173Y-128803713D01*
X150058118Y-128824126D01*
X149741829Y-128867484D01*
X149582579Y-128904792D01*
X149237888Y-129095305D01*
X148999152Y-129400127D01*
X148888946Y-129786182D01*
X148884675Y-129927139D01*
X148967548Y-130355072D01*
X149169979Y-130787902D01*
X149460610Y-131184981D01*
X149808082Y-131505660D01*
X150181036Y-131709290D01*
X150282478Y-131739032D01*
X150554971Y-131737895D01*
X150900702Y-131646803D01*
X151265534Y-131487381D01*
X151595333Y-131281252D01*
X151741922Y-131156056D01*
X151935915Y-130948314D01*
X152031719Y-130773105D01*
X152061554Y-130554951D01*
X152061807Y-130406639D01*
X152638814Y-130397575D01*
X152583393Y-130770744D01*
X152363491Y-131200593D01*
X151987998Y-131645523D01*
X151977664Y-131655927D01*
X151610973Y-132001133D01*
X151299528Y-132230743D01*
X150999692Y-132366618D01*
X150667830Y-132430625D01*
X150404441Y-132444211D01*
X149961449Y-132417885D01*
X149961449Y-132417885D01*
G37*
X149961449Y-132417885D02*
X149614285Y-132306119D01*
X149300577Y-132083844D01*
X149154432Y-131941841D01*
X148720809Y-131388849D01*
X148451134Y-130799076D01*
X148356456Y-130325997D01*
X148347019Y-129818302D01*
X148438250Y-129413356D01*
X148644169Y-129068423D01*
X148835405Y-128866127D01*
X149314156Y-128512495D01*
X149848232Y-128276136D01*
X150396573Y-128170381D01*
X150884018Y-128201062D01*
X151154685Y-128277249D01*
X151385010Y-128399405D01*
X151620935Y-128599014D01*
X151898290Y-128896069D01*
X152305153Y-129418642D01*
X152554664Y-129895075D01*
X152647264Y-130340674D01*
X152638814Y-130397575D01*
X152061807Y-130406639D01*
X152042061Y-130140051D01*
X151973721Y-129929212D01*
X151828165Y-129704094D01*
X151717505Y-129564320D01*
X151420827Y-129220551D01*
X151175049Y-128996029D01*
X150939667Y-128867457D01*
X150674175Y-128811535D01*
X150395173Y-128803713D01*
X150058118Y-128824126D01*
X149741829Y-128867484D01*
X149582579Y-128904792D01*
X149237888Y-129095305D01*
X148999152Y-129400127D01*
X148888946Y-129786182D01*
X148884675Y-129927139D01*
X148967548Y-130355072D01*
X149169979Y-130787902D01*
X149460610Y-131184981D01*
X149808082Y-131505660D01*
X150181036Y-131709290D01*
X150282478Y-131739032D01*
X150554971Y-131737895D01*
X150900702Y-131646803D01*
X151265534Y-131487381D01*
X151595333Y-131281252D01*
X151741922Y-131156056D01*
X151935915Y-130948314D01*
X152031719Y-130773105D01*
X152061554Y-130554951D01*
X152061807Y-130406639D01*
X152638814Y-130397575D01*
X152583393Y-130770744D01*
X152363491Y-131200593D01*
X151987998Y-131645523D01*
X151977664Y-131655927D01*
X151610973Y-132001133D01*
X151299528Y-132230743D01*
X150999692Y-132366618D01*
X150667830Y-132430625D01*
X150404441Y-132444211D01*
X149961449Y-132417885D01*
G36*
X117219869Y-73116355D02*
X116858186Y-72895063D01*
X116714005Y-72772686D01*
X116448113Y-72464422D01*
X116338115Y-72144033D01*
X116376320Y-71776400D01*
X116449021Y-71562829D01*
X116589071Y-71295132D01*
X116775061Y-71136920D01*
X117054948Y-71056693D01*
X117251924Y-71035458D01*
X117510093Y-71023032D01*
X117669896Y-71056909D01*
X117797645Y-71169103D01*
X117944395Y-71369766D01*
X118154327Y-71797609D01*
X118210398Y-72240251D01*
X118110484Y-72666247D01*
X118041118Y-72800842D01*
X117810842Y-73069234D01*
X117537257Y-73174409D01*
X117219869Y-73116355D01*
X117219869Y-73116355D01*
G37*
X117219869Y-73116355D02*
X116858186Y-72895063D01*
X116714005Y-72772686D01*
X116448113Y-72464422D01*
X116338115Y-72144033D01*
X116376320Y-71776400D01*
X116449021Y-71562829D01*
X116589071Y-71295132D01*
X116775061Y-71136920D01*
X117054948Y-71056693D01*
X117251924Y-71035458D01*
X117510093Y-71023032D01*
X117669896Y-71056909D01*
X117797645Y-71169103D01*
X117944395Y-71369766D01*
X118154327Y-71797609D01*
X118210398Y-72240251D01*
X118110484Y-72666247D01*
X118041118Y-72800842D01*
X117810842Y-73069234D01*
X117537257Y-73174409D01*
X117219869Y-73116355D01*
G36*
X138120245Y-79296859D02*
X137741733Y-79249481D01*
X137473782Y-79152629D01*
X137265314Y-78972891D01*
X137065257Y-78676858D01*
X137002020Y-78565386D01*
X136749495Y-78018477D01*
X136631584Y-77504554D01*
X136639096Y-76967201D01*
X136690634Y-76654347D01*
X136888184Y-76004628D01*
X137201174Y-75458358D01*
X137651482Y-74977849D01*
X137676192Y-74956422D01*
X138036729Y-74698663D01*
X138364166Y-74586746D01*
X138692252Y-74610936D01*
X138780524Y-74637866D01*
X138998337Y-74743048D01*
X139263860Y-74910621D01*
X139394411Y-75006630D01*
X139613844Y-75219999D01*
X139772010Y-75483866D01*
X139878086Y-75827687D01*
X139941251Y-76280911D01*
X139970244Y-76854700D01*
X139968908Y-77068892D01*
X139513140Y-77076052D01*
X139492368Y-76817835D01*
X139449096Y-76512108D01*
X139371169Y-76037367D01*
X139292525Y-75699415D01*
X139198168Y-75466313D01*
X139073101Y-75306116D01*
X138902327Y-75186888D01*
X138803245Y-75136505D01*
X138576545Y-75035563D01*
X138413694Y-74975498D01*
X138376578Y-74968113D01*
X138278118Y-75019446D01*
X138097668Y-75150853D01*
X137938984Y-75279798D01*
X137553357Y-75709560D01*
X137287751Y-76223829D01*
X137144668Y-76789026D01*
X137126610Y-77371572D01*
X137236078Y-77937891D01*
X137475574Y-78454403D01*
X137682255Y-78725916D01*
X137896896Y-78848718D01*
X138172668Y-78860296D01*
X138447423Y-78765506D01*
X138590525Y-78654911D01*
X138770432Y-78502235D01*
X138929414Y-78417996D01*
X138935253Y-78416633D01*
X139043851Y-78322053D01*
X139181142Y-78096085D01*
X139315963Y-77799720D01*
X139431461Y-77503899D01*
X139495012Y-77283707D01*
X139513140Y-77076052D01*
X139968908Y-77068892D01*
X139967748Y-77254585D01*
X139928402Y-77563870D01*
X139838942Y-77859639D01*
X139766827Y-78036921D01*
X139523743Y-78547215D01*
X139285160Y-78910060D01*
X139025901Y-79144722D01*
X138720789Y-79270464D01*
X138344651Y-79306552D01*
X138120245Y-79296859D01*
X138120245Y-79296859D01*
G37*
X138120245Y-79296859D02*
X137741733Y-79249481D01*
X137473782Y-79152629D01*
X137265314Y-78972891D01*
X137065257Y-78676858D01*
X137002020Y-78565386D01*
X136749495Y-78018477D01*
X136631584Y-77504554D01*
X136639096Y-76967201D01*
X136690634Y-76654347D01*
X136888184Y-76004628D01*
X137201174Y-75458358D01*
X137651482Y-74977849D01*
X137676192Y-74956422D01*
X138036729Y-74698663D01*
X138364166Y-74586746D01*
X138692252Y-74610936D01*
X138780524Y-74637866D01*
X138998337Y-74743048D01*
X139263860Y-74910621D01*
X139394411Y-75006630D01*
X139613844Y-75219999D01*
X139772010Y-75483866D01*
X139878086Y-75827687D01*
X139941251Y-76280911D01*
X139970244Y-76854700D01*
X139968908Y-77068892D01*
X139513140Y-77076052D01*
X139492368Y-76817835D01*
X139449096Y-76512108D01*
X139371169Y-76037367D01*
X139292525Y-75699415D01*
X139198168Y-75466313D01*
X139073101Y-75306116D01*
X138902327Y-75186888D01*
X138803245Y-75136505D01*
X138576545Y-75035563D01*
X138413694Y-74975498D01*
X138376578Y-74968113D01*
X138278118Y-75019446D01*
X138097668Y-75150853D01*
X137938984Y-75279798D01*
X137553357Y-75709560D01*
X137287751Y-76223829D01*
X137144668Y-76789026D01*
X137126610Y-77371572D01*
X137236078Y-77937891D01*
X137475574Y-78454403D01*
X137682255Y-78725916D01*
X137896896Y-78848718D01*
X138172668Y-78860296D01*
X138447423Y-78765506D01*
X138590525Y-78654911D01*
X138770432Y-78502235D01*
X138929414Y-78417996D01*
X138935253Y-78416633D01*
X139043851Y-78322053D01*
X139181142Y-78096085D01*
X139315963Y-77799720D01*
X139431461Y-77503899D01*
X139495012Y-77283707D01*
X139513140Y-77076052D01*
X139968908Y-77068892D01*
X139967748Y-77254585D01*
X139928402Y-77563870D01*
X139838942Y-77859639D01*
X139766827Y-78036921D01*
X139523743Y-78547215D01*
X139285160Y-78910060D01*
X139025901Y-79144722D01*
X138720789Y-79270464D01*
X138344651Y-79306552D01*
X138120245Y-79296859D01*
G36*
X145253312Y-79740020D02*
X145089721Y-79700953D01*
X144654979Y-79496017D01*
X144316399Y-79164002D01*
X144080958Y-78721771D01*
X143955637Y-78186191D01*
X143947416Y-77574128D01*
X144015760Y-77105896D01*
X144088863Y-76752247D01*
X144165747Y-76377574D01*
X144183829Y-76288944D01*
X144275043Y-75975890D01*
X144417690Y-75620702D01*
X144514654Y-75424307D01*
X144684179Y-75146271D01*
X144855527Y-74969872D01*
X145090278Y-74838312D01*
X145200517Y-74791656D01*
X145595957Y-74643289D01*
X145883624Y-74568754D01*
X146104427Y-74560840D01*
X146273850Y-74602495D01*
X146602156Y-74794029D01*
X146899283Y-75121427D01*
X147133854Y-75507892D01*
X147453654Y-76248338D01*
X147632400Y-76976036D01*
X147648180Y-77272638D01*
X147182733Y-77279950D01*
X147053123Y-76588295D01*
X146762274Y-75855652D01*
X146705224Y-75743291D01*
X146466636Y-75351959D01*
X146227256Y-75116464D01*
X145961241Y-75025172D01*
X145642749Y-75066449D01*
X145401230Y-75156285D01*
X145073368Y-75390841D01*
X144833715Y-75769517D01*
X144707574Y-76167898D01*
X144645658Y-76445192D01*
X144566413Y-76799469D01*
X144505068Y-77073377D01*
X144426940Y-77591280D01*
X144447935Y-78070708D01*
X144573074Y-78587071D01*
X144614007Y-78710019D01*
X144731064Y-78982831D01*
X144872737Y-79143870D01*
X145040981Y-79232543D01*
X145411888Y-79332520D01*
X145735326Y-79299511D01*
X145965014Y-79196449D01*
X146222216Y-79089990D01*
X146468241Y-79040880D01*
X146615831Y-79014695D01*
X146730801Y-78929513D01*
X146847395Y-78749505D01*
X146957228Y-78529193D01*
X147150851Y-77927841D01*
X147182733Y-77279950D01*
X147648180Y-77272638D01*
X147669464Y-77672642D01*
X147564226Y-78319807D01*
X147316061Y-78899186D01*
X147252603Y-79000236D01*
X147097603Y-79186629D01*
X146889068Y-79336780D01*
X146591828Y-79469246D01*
X146170715Y-79602583D01*
X146045053Y-79637388D01*
X145702933Y-79722026D01*
X145459432Y-79754878D01*
X145253312Y-79740020D01*
X145253312Y-79740020D01*
G37*
X145253312Y-79740020D02*
X145089721Y-79700953D01*
X144654979Y-79496017D01*
X144316399Y-79164002D01*
X144080958Y-78721771D01*
X143955637Y-78186191D01*
X143947416Y-77574128D01*
X144015760Y-77105896D01*
X144088863Y-76752247D01*
X144165747Y-76377574D01*
X144183829Y-76288944D01*
X144275043Y-75975890D01*
X144417690Y-75620702D01*
X144514654Y-75424307D01*
X144684179Y-75146271D01*
X144855527Y-74969872D01*
X145090278Y-74838312D01*
X145200517Y-74791656D01*
X145595957Y-74643289D01*
X145883624Y-74568754D01*
X146104427Y-74560840D01*
X146273850Y-74602495D01*
X146602156Y-74794029D01*
X146899283Y-75121427D01*
X147133854Y-75507892D01*
X147453654Y-76248338D01*
X147632400Y-76976036D01*
X147648180Y-77272638D01*
X147182733Y-77279950D01*
X147053123Y-76588295D01*
X146762274Y-75855652D01*
X146705224Y-75743291D01*
X146466636Y-75351959D01*
X146227256Y-75116464D01*
X145961241Y-75025172D01*
X145642749Y-75066449D01*
X145401230Y-75156285D01*
X145073368Y-75390841D01*
X144833715Y-75769517D01*
X144707574Y-76167898D01*
X144645658Y-76445192D01*
X144566413Y-76799469D01*
X144505068Y-77073377D01*
X144426940Y-77591280D01*
X144447935Y-78070708D01*
X144573074Y-78587071D01*
X144614007Y-78710019D01*
X144731064Y-78982831D01*
X144872737Y-79143870D01*
X145040981Y-79232543D01*
X145411888Y-79332520D01*
X145735326Y-79299511D01*
X145965014Y-79196449D01*
X146222216Y-79089990D01*
X146468241Y-79040880D01*
X146615831Y-79014695D01*
X146730801Y-78929513D01*
X146847395Y-78749505D01*
X146957228Y-78529193D01*
X147150851Y-77927841D01*
X147182733Y-77279950D01*
X147648180Y-77272638D01*
X147669464Y-77672642D01*
X147564226Y-78319807D01*
X147316061Y-78899186D01*
X147252603Y-79000236D01*
X147097603Y-79186629D01*
X146889068Y-79336780D01*
X146591828Y-79469246D01*
X146170715Y-79602583D01*
X146045053Y-79637388D01*
X145702933Y-79722026D01*
X145459432Y-79754878D01*
X145253312Y-79740020D01*
G36*
X140466368Y-93013780D02*
X140508032Y-92970788D01*
X140551025Y-93012451D01*
X140509362Y-93055443D01*
X140466368Y-93013780D01*
X140466368Y-93013780D01*
G37*
X140466368Y-93013780D02*
X140508032Y-92970788D01*
X140551025Y-93012451D01*
X140509362Y-93055443D01*
X140466368Y-93013780D01*
G36*
X140639671Y-93265089D02*
X140681334Y-93222097D01*
X140724327Y-93263759D01*
X140682664Y-93306752D01*
X140639671Y-93265089D01*
X140639671Y-93265089D01*
G37*
X140639671Y-93265089D02*
X140681334Y-93222097D01*
X140724327Y-93263759D01*
X140682664Y-93306752D01*
X140639671Y-93265089D01*
G36*
X150264127Y-131098380D02*
X150056786Y-130850828D01*
X149978656Y-130696570D01*
X149863586Y-130313633D01*
X149892413Y-130002828D01*
X150067984Y-129742589D01*
X150109699Y-129704362D01*
X150391273Y-129515590D01*
X150626010Y-129487067D01*
X150825925Y-129620265D01*
X150949869Y-129807279D01*
X151101893Y-130205824D01*
X151101543Y-130562382D01*
X150948574Y-130909332D01*
X150941423Y-130920235D01*
X150727212Y-131137907D01*
X150494524Y-131195681D01*
X150264127Y-131098380D01*
X150264127Y-131098380D01*
G37*
X150264127Y-131098380D02*
X150056786Y-130850828D01*
X149978656Y-130696570D01*
X149863586Y-130313633D01*
X149892413Y-130002828D01*
X150067984Y-129742589D01*
X150109699Y-129704362D01*
X150391273Y-129515590D01*
X150626010Y-129487067D01*
X150825925Y-129620265D01*
X150949869Y-129807279D01*
X151101893Y-130205824D01*
X151101543Y-130562382D01*
X150948574Y-130909332D01*
X150941423Y-130920235D01*
X150727212Y-131137907D01*
X150494524Y-131195681D01*
X150264127Y-131098380D01*
G04 #@! TD*
M02*
