G04 #@! TF.FileFunction,Soldermask,Top*
%FSLAX46Y46*%
G04 Gerber Fmt 4.6, Leading zero omitted, Abs format (unit mm)*
G04 Created by KiCad (PCBNEW 4.0.7-e2-6376~58~ubuntu16.04.1) date Tue Feb 27 16:08:47 2018*
%MOMM*%
%LPD*%
G01*
G04 APERTURE LIST*
%ADD10C,0.020000*%
%ADD11C,0.200000*%
%ADD12C,0.010000*%
%ADD13C,0.700000*%
G04 APERTURE END LIST*
D10*
D11*
X139600000Y-128000000D02*
X140500000Y-128000000D01*
X140400000Y-128000000D02*
X140500000Y-128000000D01*
X139600000Y-128000000D02*
X140400000Y-128000000D01*
D12*
G36*
X144825167Y-97468383D02*
X144994426Y-97512846D01*
X145258743Y-97613045D01*
X145562347Y-97747743D01*
X145576802Y-97754640D01*
X145947219Y-97915913D01*
X146345487Y-98064771D01*
X146635136Y-98154702D01*
X147319155Y-98349913D01*
X148020122Y-98575832D01*
X148699555Y-98818220D01*
X149318973Y-99062840D01*
X149839897Y-99295456D01*
X150138000Y-99450723D01*
X150383641Y-99577174D01*
X150704115Y-99724381D01*
X150931568Y-99820282D01*
X151191073Y-99930987D01*
X151307760Y-100001303D01*
X151299170Y-100045226D01*
X151238657Y-100065336D01*
X151225490Y-100099745D01*
X151325800Y-100174118D01*
X151548147Y-100292663D01*
X151901086Y-100459587D01*
X152393177Y-100679097D01*
X153032978Y-100955401D01*
X153154423Y-101007205D01*
X153840608Y-101296389D01*
X154384144Y-101518200D01*
X154795945Y-101676628D01*
X155086924Y-101775663D01*
X155267995Y-101819292D01*
X155350071Y-101811506D01*
X155351373Y-101810260D01*
X155421505Y-101695433D01*
X155536558Y-101462419D01*
X155677974Y-101150020D01*
X155770883Y-100933167D01*
X155943965Y-100543205D01*
X156078652Y-100296059D01*
X156186578Y-100172769D01*
X156251344Y-100150000D01*
X156379286Y-100184216D01*
X156403334Y-100224085D01*
X156371962Y-100339276D01*
X156287257Y-100575068D01*
X156163332Y-100896742D01*
X156014297Y-101269577D01*
X155854267Y-101658854D01*
X155697354Y-102029852D01*
X155557671Y-102347852D01*
X155449330Y-102578134D01*
X155435423Y-102605334D01*
X155359737Y-102764301D01*
X155225772Y-103060460D01*
X155041668Y-103475242D01*
X154815565Y-103990075D01*
X154555604Y-104586388D01*
X154269924Y-105245611D01*
X153966666Y-105949173D01*
X153821041Y-106288334D01*
X153516092Y-106998452D01*
X153228400Y-107666468D01*
X152965540Y-108274934D01*
X152735084Y-108806404D01*
X152544607Y-109243432D01*
X152401681Y-109568573D01*
X152313881Y-109764379D01*
X152292738Y-109808878D01*
X152240687Y-109939663D01*
X152241295Y-110067238D01*
X152308803Y-110224299D01*
X152457451Y-110443541D01*
X152701478Y-110757658D01*
X152711412Y-110770132D01*
X152855860Y-110960512D01*
X152901852Y-111069414D01*
X152859416Y-111145380D01*
X152798776Y-111193081D01*
X152731549Y-111254487D01*
X152711779Y-111331341D01*
X152749714Y-111454635D01*
X152855599Y-111655359D01*
X153039680Y-111964503D01*
X153070758Y-112015702D01*
X153273401Y-112354428D01*
X153456658Y-112675039D01*
X153628848Y-112996422D01*
X153798287Y-113337461D01*
X153973294Y-113717040D01*
X154162185Y-114154046D01*
X154373279Y-114667362D01*
X154614893Y-115275874D01*
X154895345Y-115998468D01*
X155222952Y-116854027D01*
X155358646Y-117210334D01*
X155521792Y-117627567D01*
X155699469Y-118063765D01*
X155859884Y-118441312D01*
X155898939Y-118529420D01*
X156023911Y-118830450D01*
X156113656Y-119090485D01*
X156149297Y-119254625D01*
X156149334Y-119257619D01*
X156159582Y-119386420D01*
X156196471Y-119540569D01*
X156269216Y-119741332D01*
X156387029Y-120009978D01*
X156559127Y-120367773D01*
X156794723Y-120835984D01*
X157041469Y-121316667D01*
X157286765Y-121804536D01*
X157516100Y-122283567D01*
X157712625Y-122716837D01*
X157859494Y-123067424D01*
X157930051Y-123264000D01*
X158082506Y-123725171D01*
X158262951Y-124209460D01*
X158458511Y-124688448D01*
X158656310Y-125133712D01*
X158843471Y-125516830D01*
X159007118Y-125809381D01*
X159134375Y-125982942D01*
X159176167Y-126014577D01*
X159320323Y-126105724D01*
X159370195Y-126190672D01*
X159303167Y-126227502D01*
X159238410Y-126297406D01*
X159225938Y-126466610D01*
X159260687Y-126675090D01*
X159337588Y-126862821D01*
X159359527Y-126895201D01*
X159457426Y-127056661D01*
X159451602Y-127200880D01*
X159390612Y-127339422D01*
X159266044Y-127506013D01*
X159131935Y-127573989D01*
X159127632Y-127573853D01*
X158998945Y-127547094D01*
X158741560Y-127479064D01*
X158388424Y-127378950D01*
X158073001Y-127285667D01*
X158858667Y-127285667D01*
X158901000Y-127328000D01*
X158943334Y-127285667D01*
X158901000Y-127243334D01*
X158858667Y-127285667D01*
X158073001Y-127285667D01*
X157972479Y-127255939D01*
X157800334Y-127203737D01*
X157259819Y-127038434D01*
X156664528Y-126855983D01*
X156086732Y-126678556D01*
X155599000Y-126528415D01*
X155178559Y-126403253D01*
X154788122Y-126295110D01*
X154471655Y-126215661D01*
X154275150Y-126176831D01*
X154075151Y-126134549D01*
X153759397Y-126047865D01*
X153371541Y-125929488D01*
X152962817Y-125794725D01*
X152664095Y-125693693D01*
X152334988Y-125585025D01*
X151961337Y-125464330D01*
X151528986Y-125327214D01*
X151023776Y-125169284D01*
X150431551Y-124986149D01*
X149738152Y-124773415D01*
X148929423Y-124526689D01*
X147991204Y-124241580D01*
X146909340Y-123913693D01*
X146539667Y-123801793D01*
X145309313Y-123428995D01*
X144149244Y-123076569D01*
X143075713Y-122749482D01*
X142104976Y-122452702D01*
X141253287Y-122191193D01*
X140536900Y-121969922D01*
X140147334Y-121848724D01*
X139771212Y-121729781D01*
X139457612Y-121632405D01*
X139186068Y-121557685D01*
X138936116Y-121506710D01*
X138687293Y-121480570D01*
X138419133Y-121480354D01*
X138111175Y-121507150D01*
X137742952Y-121562048D01*
X137294001Y-121646138D01*
X136743859Y-121760508D01*
X136072060Y-121906248D01*
X135258141Y-122084446D01*
X135109667Y-122116848D01*
X134484882Y-122252957D01*
X133824419Y-122396650D01*
X133178912Y-122536923D01*
X132598997Y-122662773D01*
X132146334Y-122760813D01*
X131697486Y-122859142D01*
X131288308Y-122951105D01*
X130957087Y-123027932D01*
X130742112Y-123080854D01*
X130707000Y-123090472D01*
X130534344Y-123133936D01*
X130233227Y-123203327D01*
X129841011Y-123290277D01*
X129395059Y-123386417D01*
X129225334Y-123422344D01*
X128306559Y-123616970D01*
X127435090Y-123803790D01*
X126625661Y-123979502D01*
X125893008Y-124140805D01*
X125251866Y-124284396D01*
X124716969Y-124406975D01*
X124303052Y-124505240D01*
X124024850Y-124575890D01*
X123897099Y-124615623D01*
X123895225Y-124616577D01*
X123737277Y-124668278D01*
X123484136Y-124720375D01*
X123341000Y-124741889D01*
X122938088Y-124804054D01*
X122516384Y-124884881D01*
X122120520Y-124974158D01*
X121795128Y-125061679D01*
X121584839Y-125137234D01*
X121563000Y-125148578D01*
X121379865Y-125217482D01*
X121109234Y-125281807D01*
X120970334Y-125305019D01*
X120181265Y-125423905D01*
X119519841Y-125540270D01*
X118944671Y-125661655D01*
X118731092Y-125712904D01*
X118340149Y-125801821D01*
X117936900Y-125880524D01*
X117617949Y-125930661D01*
X117144231Y-125989567D01*
X117136512Y-125718078D01*
X117166971Y-125561809D01*
X117265732Y-125285781D01*
X117435477Y-124883855D01*
X117678888Y-124349889D01*
X117998644Y-123677744D01*
X118276828Y-123106461D01*
X118629804Y-122386816D01*
X119019168Y-121592731D01*
X119421756Y-120771464D01*
X119814403Y-119970273D01*
X120173947Y-119236418D01*
X120419850Y-118734334D01*
X120678967Y-118205821D01*
X120998647Y-117554859D01*
X121364440Y-116810811D01*
X121761898Y-116003039D01*
X122176571Y-115160906D01*
X122594009Y-114313774D01*
X122999762Y-113491007D01*
X123128063Y-113231000D01*
X123583203Y-112309706D01*
X123969608Y-111527970D01*
X124292457Y-110873002D01*
X124556931Y-110332012D01*
X124768211Y-109892210D01*
X124931477Y-109540804D01*
X125051908Y-109265005D01*
X125134686Y-109052021D01*
X125184991Y-108889064D01*
X125208003Y-108763342D01*
X125208902Y-108662064D01*
X125192869Y-108572441D01*
X125165084Y-108481682D01*
X125130728Y-108376997D01*
X125115244Y-108324588D01*
X125049747Y-108116752D01*
X124933407Y-107774825D01*
X124774915Y-107323238D01*
X124582964Y-106786423D01*
X124366244Y-106188812D01*
X124133447Y-105554836D01*
X124044505Y-105314667D01*
X123805325Y-104668220D01*
X123576078Y-104044645D01*
X123365988Y-103469337D01*
X123184281Y-102967689D01*
X123040183Y-102565097D01*
X122942918Y-102286954D01*
X122921854Y-102224334D01*
X122792791Y-101847443D01*
X122652432Y-101459367D01*
X122546848Y-101184032D01*
X122429448Y-100877452D01*
X122380299Y-100694383D01*
X122398401Y-100603813D01*
X122482753Y-100574727D01*
X122527140Y-100573334D01*
X122642397Y-100626345D01*
X122767300Y-100799866D01*
X122917423Y-101115631D01*
X122919855Y-101121346D01*
X123152764Y-101669358D01*
X123523435Y-101634611D01*
X123791275Y-101601673D01*
X124007478Y-101561862D01*
X124050871Y-101550109D01*
X124319772Y-101543460D01*
X124551274Y-101672757D01*
X124690141Y-101905555D01*
X124695883Y-101928985D01*
X124761498Y-102146459D01*
X124873790Y-102446287D01*
X124988198Y-102717229D01*
X125138451Y-103083445D01*
X125294694Y-103511812D01*
X125405909Y-103854167D01*
X125504344Y-104147523D01*
X125597512Y-104364557D01*
X125667775Y-104465300D01*
X125676767Y-104468000D01*
X125726568Y-104519292D01*
X125714813Y-104547577D01*
X125722939Y-104664880D01*
X125805237Y-104854458D01*
X125832428Y-104901428D01*
X125931493Y-105092653D01*
X125966553Y-105220444D01*
X125962769Y-105234689D01*
X125971279Y-105337534D01*
X126027156Y-105555326D01*
X126118876Y-105844251D01*
X126136490Y-105895248D01*
X126240731Y-106227068D01*
X126315932Y-106530269D01*
X126346582Y-106741825D01*
X126346667Y-106749276D01*
X126382500Y-106991299D01*
X126476994Y-107325259D01*
X126610638Y-107692881D01*
X126763922Y-108035891D01*
X126801783Y-108108667D01*
X126940202Y-108430989D01*
X126976526Y-108731513D01*
X126908040Y-109059982D01*
X126732028Y-109466140D01*
X126727134Y-109475911D01*
X126584077Y-109786953D01*
X126479059Y-110064827D01*
X126432127Y-110255555D01*
X126431334Y-110272324D01*
X126400152Y-110429171D01*
X126342030Y-110479334D01*
X126276471Y-110555646D01*
X126142518Y-110784745D01*
X125940050Y-111166875D01*
X125668944Y-111702279D01*
X125329079Y-112391203D01*
X124920333Y-113233890D01*
X124442585Y-114230584D01*
X123895714Y-115381529D01*
X123831598Y-115517000D01*
X123630897Y-115937909D01*
X123368221Y-116483696D01*
X123056653Y-117127451D01*
X122709274Y-117842262D01*
X122339168Y-118601218D01*
X121959417Y-119377409D01*
X121583105Y-120143923D01*
X121511288Y-120289873D01*
X121172927Y-120978921D01*
X120858955Y-121621554D01*
X120577075Y-122201767D01*
X120334988Y-122703557D01*
X120140397Y-123110919D01*
X120001004Y-123407849D01*
X119924511Y-123578342D01*
X119912000Y-123613040D01*
X119929847Y-123657322D01*
X119995904Y-123675315D01*
X120128945Y-123662985D01*
X120347745Y-123616300D01*
X120671079Y-123531228D01*
X121117721Y-123403737D01*
X121706446Y-123229793D01*
X121732334Y-123222075D01*
X122075181Y-123129938D01*
X122529649Y-123022031D01*
X123040399Y-122910831D01*
X123552089Y-122808813D01*
X123630828Y-122794087D01*
X124100961Y-122700808D01*
X124543637Y-122601686D01*
X124916433Y-122506993D01*
X125176926Y-122426998D01*
X125225347Y-122408040D01*
X125484968Y-122311567D01*
X125705134Y-122254573D01*
X125768558Y-122248000D01*
X125909070Y-122228589D01*
X126179349Y-122175253D01*
X126544935Y-122095339D01*
X126971367Y-121996194D01*
X127137372Y-121956179D01*
X127613658Y-121844929D01*
X128077164Y-121744921D01*
X128481147Y-121665703D01*
X128778865Y-121616823D01*
X128828413Y-121610764D01*
X129170975Y-121546495D01*
X129355490Y-121441076D01*
X129389874Y-121286986D01*
X129324561Y-121139187D01*
X129293659Y-120991949D01*
X129383803Y-120823881D01*
X129605897Y-120623713D01*
X129970842Y-120380179D01*
X130177834Y-120257336D01*
X130448510Y-120087659D01*
X130649912Y-119936383D01*
X130745935Y-119831303D01*
X130749334Y-119817408D01*
X130769798Y-119727652D01*
X130846083Y-119733341D01*
X131000527Y-119844087D01*
X131183816Y-120004334D01*
X131397808Y-120174186D01*
X131582839Y-120281391D01*
X131654760Y-120300667D01*
X131742754Y-120287300D01*
X131696985Y-120226234D01*
X131633349Y-120176360D01*
X131537219Y-120081581D01*
X131572400Y-120052015D01*
X131715168Y-120084770D01*
X131941801Y-120176953D01*
X132043873Y-120226407D01*
X132289066Y-120351774D01*
X132409547Y-120430390D01*
X132430629Y-120494026D01*
X132377626Y-120574452D01*
X132348899Y-120609234D01*
X132286552Y-120701316D01*
X132333130Y-120725519D01*
X132516408Y-120696011D01*
X132518288Y-120695639D01*
X132738795Y-120677251D01*
X132891156Y-120708711D01*
X132899288Y-120714412D01*
X133033502Y-120741908D01*
X133293322Y-120730881D01*
X133585667Y-120691867D01*
X134178334Y-120593629D01*
X134181397Y-120512334D01*
X139893334Y-120512334D01*
X139935667Y-120554667D01*
X139978000Y-120512334D01*
X139935667Y-120470000D01*
X139893334Y-120512334D01*
X134181397Y-120512334D01*
X134203120Y-119935904D01*
X134227906Y-119278180D01*
X135702334Y-119327000D01*
X135727725Y-119813834D01*
X135755861Y-120079431D01*
X135802302Y-120255083D01*
X135843245Y-120300667D01*
X135953309Y-120282542D01*
X136197596Y-120232552D01*
X136545418Y-120157278D01*
X136966087Y-120063299D01*
X137214853Y-120006602D01*
X137689382Y-119900427D01*
X138134217Y-119805825D01*
X138510090Y-119730796D01*
X138777729Y-119683341D01*
X138851010Y-119673266D01*
X139127990Y-119618129D01*
X139364055Y-119531471D01*
X139401343Y-119510480D01*
X139626017Y-119392454D01*
X139785224Y-119330833D01*
X139893718Y-119309672D01*
X139947080Y-119354861D01*
X139961117Y-119502966D01*
X139954558Y-119722494D01*
X139935667Y-120170288D01*
X140274334Y-120219492D01*
X140569273Y-120287432D01*
X140841292Y-120388270D01*
X140867000Y-120401094D01*
X141059601Y-120482099D01*
X141364584Y-120589087D01*
X141730666Y-120704596D01*
X141925334Y-120761433D01*
X142359563Y-120889344D01*
X142814103Y-121031083D01*
X143210255Y-121161893D01*
X143316466Y-121199052D01*
X143554659Y-121279052D01*
X143927311Y-121397798D01*
X144406318Y-121546634D01*
X144963575Y-121716905D01*
X145570977Y-121899956D01*
X146195133Y-122085571D01*
X146956586Y-122310768D01*
X147821472Y-122567092D01*
X148731008Y-122837087D01*
X149626411Y-123103296D01*
X150448900Y-123348265D01*
X150800128Y-123453058D01*
X151588118Y-123684546D01*
X152216770Y-123860862D01*
X152686777Y-123982182D01*
X152998832Y-124048680D01*
X153153631Y-124060531D01*
X153170794Y-124051789D01*
X153282451Y-123991888D01*
X153503086Y-123941420D01*
X153651667Y-123923288D01*
X153924767Y-123890571D01*
X154139212Y-123848892D01*
X154202621Y-123828177D01*
X154302313Y-123837752D01*
X154414649Y-123971704D01*
X154532431Y-124195519D01*
X154734619Y-124621386D01*
X155590143Y-124881275D01*
X155992015Y-125005501D01*
X156374613Y-125127495D01*
X156682734Y-125229487D01*
X156807388Y-125273139D01*
X157032050Y-125343513D01*
X157182829Y-125369204D01*
X157211682Y-125362540D01*
X157205383Y-125267538D01*
X157142966Y-125070489D01*
X157082310Y-124918833D01*
X156972971Y-124648852D01*
X156834125Y-124285322D01*
X156691074Y-123894910D01*
X156652005Y-123785016D01*
X156513953Y-123445227D01*
X156310200Y-123009531D01*
X156064505Y-122525797D01*
X155800627Y-122041892D01*
X155699990Y-121867000D01*
X155371058Y-121295132D01*
X155126146Y-120844602D01*
X154955927Y-120495468D01*
X154851074Y-120227788D01*
X154802261Y-120021618D01*
X154795942Y-119933938D01*
X154767220Y-119801386D01*
X154687783Y-119534850D01*
X154566306Y-119158923D01*
X154411465Y-118698200D01*
X154231936Y-118177273D01*
X154036394Y-117620735D01*
X153833514Y-117053178D01*
X153631974Y-116499198D01*
X153440448Y-115983385D01*
X153267613Y-115530334D01*
X153122143Y-115164637D01*
X153067106Y-115033220D01*
X152937052Y-114806002D01*
X152787034Y-114644156D01*
X152757340Y-114625149D01*
X152640497Y-114527215D01*
X152673200Y-114422117D01*
X152704506Y-114306489D01*
X152657521Y-114104577D01*
X152538097Y-113814188D01*
X152370570Y-113473091D01*
X152187941Y-113174531D01*
X151946598Y-112850260D01*
X151828432Y-112703668D01*
X151753405Y-112575735D01*
X151640020Y-112342478D01*
X151518979Y-112068668D01*
X151381827Y-111768949D01*
X151246231Y-111512749D01*
X151151060Y-111368334D01*
X151027783Y-111199232D01*
X150867340Y-110949362D01*
X150766772Y-110780384D01*
X150565497Y-110304540D01*
X150528397Y-109854101D01*
X150654796Y-109415764D01*
X150693657Y-109339343D01*
X150829010Y-109052859D01*
X150966384Y-108706719D01*
X151026212Y-108532000D01*
X151134156Y-108210557D01*
X151246561Y-107904086D01*
X151300544Y-107770000D01*
X151400502Y-107515125D01*
X151516108Y-107191283D01*
X151577186Y-107008000D01*
X151652473Y-106793024D01*
X151752164Y-106545892D01*
X151885883Y-106246272D01*
X152063251Y-105873833D01*
X152293892Y-105408243D01*
X152587430Y-104829172D01*
X152859536Y-104298667D01*
X153150265Y-103721259D01*
X153366343Y-103264516D01*
X153504004Y-102936796D01*
X153559482Y-102746454D01*
X153559674Y-102744639D01*
X153490545Y-102680504D01*
X153302479Y-102582766D01*
X153044719Y-102475935D01*
X152739074Y-102353305D01*
X152471987Y-102232812D01*
X152325052Y-102154441D01*
X152100559Y-102049041D01*
X151834912Y-101969604D01*
X151831334Y-101968868D01*
X151608808Y-101910258D01*
X151459219Y-101847433D01*
X151450334Y-101841082D01*
X151340774Y-101785349D01*
X151108157Y-101685542D01*
X150788178Y-101556504D01*
X150467891Y-101432541D01*
X149999727Y-101248006D01*
X149490395Y-101036690D01*
X149019508Y-100832010D01*
X148816891Y-100739582D01*
X148353815Y-100533654D01*
X147805629Y-100309781D01*
X147152364Y-100060310D01*
X146374051Y-99777588D01*
X145574047Y-99496668D01*
X145173932Y-99352127D01*
X144907417Y-99224310D01*
X144747368Y-99076666D01*
X144666652Y-98872642D01*
X144638134Y-98575688D01*
X144634667Y-98231256D01*
X144636600Y-97865419D01*
X144647629Y-97637510D01*
X144675593Y-97516131D01*
X144728333Y-97469881D01*
X144813691Y-97467361D01*
X144825167Y-97468383D01*
X144825167Y-97468383D01*
G37*
X144825167Y-97468383D02*
X144994426Y-97512846D01*
X145258743Y-97613045D01*
X145562347Y-97747743D01*
X145576802Y-97754640D01*
X145947219Y-97915913D01*
X146345487Y-98064771D01*
X146635136Y-98154702D01*
X147319155Y-98349913D01*
X148020122Y-98575832D01*
X148699555Y-98818220D01*
X149318973Y-99062840D01*
X149839897Y-99295456D01*
X150138000Y-99450723D01*
X150383641Y-99577174D01*
X150704115Y-99724381D01*
X150931568Y-99820282D01*
X151191073Y-99930987D01*
X151307760Y-100001303D01*
X151299170Y-100045226D01*
X151238657Y-100065336D01*
X151225490Y-100099745D01*
X151325800Y-100174118D01*
X151548147Y-100292663D01*
X151901086Y-100459587D01*
X152393177Y-100679097D01*
X153032978Y-100955401D01*
X153154423Y-101007205D01*
X153840608Y-101296389D01*
X154384144Y-101518200D01*
X154795945Y-101676628D01*
X155086924Y-101775663D01*
X155267995Y-101819292D01*
X155350071Y-101811506D01*
X155351373Y-101810260D01*
X155421505Y-101695433D01*
X155536558Y-101462419D01*
X155677974Y-101150020D01*
X155770883Y-100933167D01*
X155943965Y-100543205D01*
X156078652Y-100296059D01*
X156186578Y-100172769D01*
X156251344Y-100150000D01*
X156379286Y-100184216D01*
X156403334Y-100224085D01*
X156371962Y-100339276D01*
X156287257Y-100575068D01*
X156163332Y-100896742D01*
X156014297Y-101269577D01*
X155854267Y-101658854D01*
X155697354Y-102029852D01*
X155557671Y-102347852D01*
X155449330Y-102578134D01*
X155435423Y-102605334D01*
X155359737Y-102764301D01*
X155225772Y-103060460D01*
X155041668Y-103475242D01*
X154815565Y-103990075D01*
X154555604Y-104586388D01*
X154269924Y-105245611D01*
X153966666Y-105949173D01*
X153821041Y-106288334D01*
X153516092Y-106998452D01*
X153228400Y-107666468D01*
X152965540Y-108274934D01*
X152735084Y-108806404D01*
X152544607Y-109243432D01*
X152401681Y-109568573D01*
X152313881Y-109764379D01*
X152292738Y-109808878D01*
X152240687Y-109939663D01*
X152241295Y-110067238D01*
X152308803Y-110224299D01*
X152457451Y-110443541D01*
X152701478Y-110757658D01*
X152711412Y-110770132D01*
X152855860Y-110960512D01*
X152901852Y-111069414D01*
X152859416Y-111145380D01*
X152798776Y-111193081D01*
X152731549Y-111254487D01*
X152711779Y-111331341D01*
X152749714Y-111454635D01*
X152855599Y-111655359D01*
X153039680Y-111964503D01*
X153070758Y-112015702D01*
X153273401Y-112354428D01*
X153456658Y-112675039D01*
X153628848Y-112996422D01*
X153798287Y-113337461D01*
X153973294Y-113717040D01*
X154162185Y-114154046D01*
X154373279Y-114667362D01*
X154614893Y-115275874D01*
X154895345Y-115998468D01*
X155222952Y-116854027D01*
X155358646Y-117210334D01*
X155521792Y-117627567D01*
X155699469Y-118063765D01*
X155859884Y-118441312D01*
X155898939Y-118529420D01*
X156023911Y-118830450D01*
X156113656Y-119090485D01*
X156149297Y-119254625D01*
X156149334Y-119257619D01*
X156159582Y-119386420D01*
X156196471Y-119540569D01*
X156269216Y-119741332D01*
X156387029Y-120009978D01*
X156559127Y-120367773D01*
X156794723Y-120835984D01*
X157041469Y-121316667D01*
X157286765Y-121804536D01*
X157516100Y-122283567D01*
X157712625Y-122716837D01*
X157859494Y-123067424D01*
X157930051Y-123264000D01*
X158082506Y-123725171D01*
X158262951Y-124209460D01*
X158458511Y-124688448D01*
X158656310Y-125133712D01*
X158843471Y-125516830D01*
X159007118Y-125809381D01*
X159134375Y-125982942D01*
X159176167Y-126014577D01*
X159320323Y-126105724D01*
X159370195Y-126190672D01*
X159303167Y-126227502D01*
X159238410Y-126297406D01*
X159225938Y-126466610D01*
X159260687Y-126675090D01*
X159337588Y-126862821D01*
X159359527Y-126895201D01*
X159457426Y-127056661D01*
X159451602Y-127200880D01*
X159390612Y-127339422D01*
X159266044Y-127506013D01*
X159131935Y-127573989D01*
X159127632Y-127573853D01*
X158998945Y-127547094D01*
X158741560Y-127479064D01*
X158388424Y-127378950D01*
X158073001Y-127285667D01*
X158858667Y-127285667D01*
X158901000Y-127328000D01*
X158943334Y-127285667D01*
X158901000Y-127243334D01*
X158858667Y-127285667D01*
X158073001Y-127285667D01*
X157972479Y-127255939D01*
X157800334Y-127203737D01*
X157259819Y-127038434D01*
X156664528Y-126855983D01*
X156086732Y-126678556D01*
X155599000Y-126528415D01*
X155178559Y-126403253D01*
X154788122Y-126295110D01*
X154471655Y-126215661D01*
X154275150Y-126176831D01*
X154075151Y-126134549D01*
X153759397Y-126047865D01*
X153371541Y-125929488D01*
X152962817Y-125794725D01*
X152664095Y-125693693D01*
X152334988Y-125585025D01*
X151961337Y-125464330D01*
X151528986Y-125327214D01*
X151023776Y-125169284D01*
X150431551Y-124986149D01*
X149738152Y-124773415D01*
X148929423Y-124526689D01*
X147991204Y-124241580D01*
X146909340Y-123913693D01*
X146539667Y-123801793D01*
X145309313Y-123428995D01*
X144149244Y-123076569D01*
X143075713Y-122749482D01*
X142104976Y-122452702D01*
X141253287Y-122191193D01*
X140536900Y-121969922D01*
X140147334Y-121848724D01*
X139771212Y-121729781D01*
X139457612Y-121632405D01*
X139186068Y-121557685D01*
X138936116Y-121506710D01*
X138687293Y-121480570D01*
X138419133Y-121480354D01*
X138111175Y-121507150D01*
X137742952Y-121562048D01*
X137294001Y-121646138D01*
X136743859Y-121760508D01*
X136072060Y-121906248D01*
X135258141Y-122084446D01*
X135109667Y-122116848D01*
X134484882Y-122252957D01*
X133824419Y-122396650D01*
X133178912Y-122536923D01*
X132598997Y-122662773D01*
X132146334Y-122760813D01*
X131697486Y-122859142D01*
X131288308Y-122951105D01*
X130957087Y-123027932D01*
X130742112Y-123080854D01*
X130707000Y-123090472D01*
X130534344Y-123133936D01*
X130233227Y-123203327D01*
X129841011Y-123290277D01*
X129395059Y-123386417D01*
X129225334Y-123422344D01*
X128306559Y-123616970D01*
X127435090Y-123803790D01*
X126625661Y-123979502D01*
X125893008Y-124140805D01*
X125251866Y-124284396D01*
X124716969Y-124406975D01*
X124303052Y-124505240D01*
X124024850Y-124575890D01*
X123897099Y-124615623D01*
X123895225Y-124616577D01*
X123737277Y-124668278D01*
X123484136Y-124720375D01*
X123341000Y-124741889D01*
X122938088Y-124804054D01*
X122516384Y-124884881D01*
X122120520Y-124974158D01*
X121795128Y-125061679D01*
X121584839Y-125137234D01*
X121563000Y-125148578D01*
X121379865Y-125217482D01*
X121109234Y-125281807D01*
X120970334Y-125305019D01*
X120181265Y-125423905D01*
X119519841Y-125540270D01*
X118944671Y-125661655D01*
X118731092Y-125712904D01*
X118340149Y-125801821D01*
X117936900Y-125880524D01*
X117617949Y-125930661D01*
X117144231Y-125989567D01*
X117136512Y-125718078D01*
X117166971Y-125561809D01*
X117265732Y-125285781D01*
X117435477Y-124883855D01*
X117678888Y-124349889D01*
X117998644Y-123677744D01*
X118276828Y-123106461D01*
X118629804Y-122386816D01*
X119019168Y-121592731D01*
X119421756Y-120771464D01*
X119814403Y-119970273D01*
X120173947Y-119236418D01*
X120419850Y-118734334D01*
X120678967Y-118205821D01*
X120998647Y-117554859D01*
X121364440Y-116810811D01*
X121761898Y-116003039D01*
X122176571Y-115160906D01*
X122594009Y-114313774D01*
X122999762Y-113491007D01*
X123128063Y-113231000D01*
X123583203Y-112309706D01*
X123969608Y-111527970D01*
X124292457Y-110873002D01*
X124556931Y-110332012D01*
X124768211Y-109892210D01*
X124931477Y-109540804D01*
X125051908Y-109265005D01*
X125134686Y-109052021D01*
X125184991Y-108889064D01*
X125208003Y-108763342D01*
X125208902Y-108662064D01*
X125192869Y-108572441D01*
X125165084Y-108481682D01*
X125130728Y-108376997D01*
X125115244Y-108324588D01*
X125049747Y-108116752D01*
X124933407Y-107774825D01*
X124774915Y-107323238D01*
X124582964Y-106786423D01*
X124366244Y-106188812D01*
X124133447Y-105554836D01*
X124044505Y-105314667D01*
X123805325Y-104668220D01*
X123576078Y-104044645D01*
X123365988Y-103469337D01*
X123184281Y-102967689D01*
X123040183Y-102565097D01*
X122942918Y-102286954D01*
X122921854Y-102224334D01*
X122792791Y-101847443D01*
X122652432Y-101459367D01*
X122546848Y-101184032D01*
X122429448Y-100877452D01*
X122380299Y-100694383D01*
X122398401Y-100603813D01*
X122482753Y-100574727D01*
X122527140Y-100573334D01*
X122642397Y-100626345D01*
X122767300Y-100799866D01*
X122917423Y-101115631D01*
X122919855Y-101121346D01*
X123152764Y-101669358D01*
X123523435Y-101634611D01*
X123791275Y-101601673D01*
X124007478Y-101561862D01*
X124050871Y-101550109D01*
X124319772Y-101543460D01*
X124551274Y-101672757D01*
X124690141Y-101905555D01*
X124695883Y-101928985D01*
X124761498Y-102146459D01*
X124873790Y-102446287D01*
X124988198Y-102717229D01*
X125138451Y-103083445D01*
X125294694Y-103511812D01*
X125405909Y-103854167D01*
X125504344Y-104147523D01*
X125597512Y-104364557D01*
X125667775Y-104465300D01*
X125676767Y-104468000D01*
X125726568Y-104519292D01*
X125714813Y-104547577D01*
X125722939Y-104664880D01*
X125805237Y-104854458D01*
X125832428Y-104901428D01*
X125931493Y-105092653D01*
X125966553Y-105220444D01*
X125962769Y-105234689D01*
X125971279Y-105337534D01*
X126027156Y-105555326D01*
X126118876Y-105844251D01*
X126136490Y-105895248D01*
X126240731Y-106227068D01*
X126315932Y-106530269D01*
X126346582Y-106741825D01*
X126346667Y-106749276D01*
X126382500Y-106991299D01*
X126476994Y-107325259D01*
X126610638Y-107692881D01*
X126763922Y-108035891D01*
X126801783Y-108108667D01*
X126940202Y-108430989D01*
X126976526Y-108731513D01*
X126908040Y-109059982D01*
X126732028Y-109466140D01*
X126727134Y-109475911D01*
X126584077Y-109786953D01*
X126479059Y-110064827D01*
X126432127Y-110255555D01*
X126431334Y-110272324D01*
X126400152Y-110429171D01*
X126342030Y-110479334D01*
X126276471Y-110555646D01*
X126142518Y-110784745D01*
X125940050Y-111166875D01*
X125668944Y-111702279D01*
X125329079Y-112391203D01*
X124920333Y-113233890D01*
X124442585Y-114230584D01*
X123895714Y-115381529D01*
X123831598Y-115517000D01*
X123630897Y-115937909D01*
X123368221Y-116483696D01*
X123056653Y-117127451D01*
X122709274Y-117842262D01*
X122339168Y-118601218D01*
X121959417Y-119377409D01*
X121583105Y-120143923D01*
X121511288Y-120289873D01*
X121172927Y-120978921D01*
X120858955Y-121621554D01*
X120577075Y-122201767D01*
X120334988Y-122703557D01*
X120140397Y-123110919D01*
X120001004Y-123407849D01*
X119924511Y-123578342D01*
X119912000Y-123613040D01*
X119929847Y-123657322D01*
X119995904Y-123675315D01*
X120128945Y-123662985D01*
X120347745Y-123616300D01*
X120671079Y-123531228D01*
X121117721Y-123403737D01*
X121706446Y-123229793D01*
X121732334Y-123222075D01*
X122075181Y-123129938D01*
X122529649Y-123022031D01*
X123040399Y-122910831D01*
X123552089Y-122808813D01*
X123630828Y-122794087D01*
X124100961Y-122700808D01*
X124543637Y-122601686D01*
X124916433Y-122506993D01*
X125176926Y-122426998D01*
X125225347Y-122408040D01*
X125484968Y-122311567D01*
X125705134Y-122254573D01*
X125768558Y-122248000D01*
X125909070Y-122228589D01*
X126179349Y-122175253D01*
X126544935Y-122095339D01*
X126971367Y-121996194D01*
X127137372Y-121956179D01*
X127613658Y-121844929D01*
X128077164Y-121744921D01*
X128481147Y-121665703D01*
X128778865Y-121616823D01*
X128828413Y-121610764D01*
X129170975Y-121546495D01*
X129355490Y-121441076D01*
X129389874Y-121286986D01*
X129324561Y-121139187D01*
X129293659Y-120991949D01*
X129383803Y-120823881D01*
X129605897Y-120623713D01*
X129970842Y-120380179D01*
X130177834Y-120257336D01*
X130448510Y-120087659D01*
X130649912Y-119936383D01*
X130745935Y-119831303D01*
X130749334Y-119817408D01*
X130769798Y-119727652D01*
X130846083Y-119733341D01*
X131000527Y-119844087D01*
X131183816Y-120004334D01*
X131397808Y-120174186D01*
X131582839Y-120281391D01*
X131654760Y-120300667D01*
X131742754Y-120287300D01*
X131696985Y-120226234D01*
X131633349Y-120176360D01*
X131537219Y-120081581D01*
X131572400Y-120052015D01*
X131715168Y-120084770D01*
X131941801Y-120176953D01*
X132043873Y-120226407D01*
X132289066Y-120351774D01*
X132409547Y-120430390D01*
X132430629Y-120494026D01*
X132377626Y-120574452D01*
X132348899Y-120609234D01*
X132286552Y-120701316D01*
X132333130Y-120725519D01*
X132516408Y-120696011D01*
X132518288Y-120695639D01*
X132738795Y-120677251D01*
X132891156Y-120708711D01*
X132899288Y-120714412D01*
X133033502Y-120741908D01*
X133293322Y-120730881D01*
X133585667Y-120691867D01*
X134178334Y-120593629D01*
X134181397Y-120512334D01*
X139893334Y-120512334D01*
X139935667Y-120554667D01*
X139978000Y-120512334D01*
X139935667Y-120470000D01*
X139893334Y-120512334D01*
X134181397Y-120512334D01*
X134203120Y-119935904D01*
X134227906Y-119278180D01*
X135702334Y-119327000D01*
X135727725Y-119813834D01*
X135755861Y-120079431D01*
X135802302Y-120255083D01*
X135843245Y-120300667D01*
X135953309Y-120282542D01*
X136197596Y-120232552D01*
X136545418Y-120157278D01*
X136966087Y-120063299D01*
X137214853Y-120006602D01*
X137689382Y-119900427D01*
X138134217Y-119805825D01*
X138510090Y-119730796D01*
X138777729Y-119683341D01*
X138851010Y-119673266D01*
X139127990Y-119618129D01*
X139364055Y-119531471D01*
X139401343Y-119510480D01*
X139626017Y-119392454D01*
X139785224Y-119330833D01*
X139893718Y-119309672D01*
X139947080Y-119354861D01*
X139961117Y-119502966D01*
X139954558Y-119722494D01*
X139935667Y-120170288D01*
X140274334Y-120219492D01*
X140569273Y-120287432D01*
X140841292Y-120388270D01*
X140867000Y-120401094D01*
X141059601Y-120482099D01*
X141364584Y-120589087D01*
X141730666Y-120704596D01*
X141925334Y-120761433D01*
X142359563Y-120889344D01*
X142814103Y-121031083D01*
X143210255Y-121161893D01*
X143316466Y-121199052D01*
X143554659Y-121279052D01*
X143927311Y-121397798D01*
X144406318Y-121546634D01*
X144963575Y-121716905D01*
X145570977Y-121899956D01*
X146195133Y-122085571D01*
X146956586Y-122310768D01*
X147821472Y-122567092D01*
X148731008Y-122837087D01*
X149626411Y-123103296D01*
X150448900Y-123348265D01*
X150800128Y-123453058D01*
X151588118Y-123684546D01*
X152216770Y-123860862D01*
X152686777Y-123982182D01*
X152998832Y-124048680D01*
X153153631Y-124060531D01*
X153170794Y-124051789D01*
X153282451Y-123991888D01*
X153503086Y-123941420D01*
X153651667Y-123923288D01*
X153924767Y-123890571D01*
X154139212Y-123848892D01*
X154202621Y-123828177D01*
X154302313Y-123837752D01*
X154414649Y-123971704D01*
X154532431Y-124195519D01*
X154734619Y-124621386D01*
X155590143Y-124881275D01*
X155992015Y-125005501D01*
X156374613Y-125127495D01*
X156682734Y-125229487D01*
X156807388Y-125273139D01*
X157032050Y-125343513D01*
X157182829Y-125369204D01*
X157211682Y-125362540D01*
X157205383Y-125267538D01*
X157142966Y-125070489D01*
X157082310Y-124918833D01*
X156972971Y-124648852D01*
X156834125Y-124285322D01*
X156691074Y-123894910D01*
X156652005Y-123785016D01*
X156513953Y-123445227D01*
X156310200Y-123009531D01*
X156064505Y-122525797D01*
X155800627Y-122041892D01*
X155699990Y-121867000D01*
X155371058Y-121295132D01*
X155126146Y-120844602D01*
X154955927Y-120495468D01*
X154851074Y-120227788D01*
X154802261Y-120021618D01*
X154795942Y-119933938D01*
X154767220Y-119801386D01*
X154687783Y-119534850D01*
X154566306Y-119158923D01*
X154411465Y-118698200D01*
X154231936Y-118177273D01*
X154036394Y-117620735D01*
X153833514Y-117053178D01*
X153631974Y-116499198D01*
X153440448Y-115983385D01*
X153267613Y-115530334D01*
X153122143Y-115164637D01*
X153067106Y-115033220D01*
X152937052Y-114806002D01*
X152787034Y-114644156D01*
X152757340Y-114625149D01*
X152640497Y-114527215D01*
X152673200Y-114422117D01*
X152704506Y-114306489D01*
X152657521Y-114104577D01*
X152538097Y-113814188D01*
X152370570Y-113473091D01*
X152187941Y-113174531D01*
X151946598Y-112850260D01*
X151828432Y-112703668D01*
X151753405Y-112575735D01*
X151640020Y-112342478D01*
X151518979Y-112068668D01*
X151381827Y-111768949D01*
X151246231Y-111512749D01*
X151151060Y-111368334D01*
X151027783Y-111199232D01*
X150867340Y-110949362D01*
X150766772Y-110780384D01*
X150565497Y-110304540D01*
X150528397Y-109854101D01*
X150654796Y-109415764D01*
X150693657Y-109339343D01*
X150829010Y-109052859D01*
X150966384Y-108706719D01*
X151026212Y-108532000D01*
X151134156Y-108210557D01*
X151246561Y-107904086D01*
X151300544Y-107770000D01*
X151400502Y-107515125D01*
X151516108Y-107191283D01*
X151577186Y-107008000D01*
X151652473Y-106793024D01*
X151752164Y-106545892D01*
X151885883Y-106246272D01*
X152063251Y-105873833D01*
X152293892Y-105408243D01*
X152587430Y-104829172D01*
X152859536Y-104298667D01*
X153150265Y-103721259D01*
X153366343Y-103264516D01*
X153504004Y-102936796D01*
X153559482Y-102746454D01*
X153559674Y-102744639D01*
X153490545Y-102680504D01*
X153302479Y-102582766D01*
X153044719Y-102475935D01*
X152739074Y-102353305D01*
X152471987Y-102232812D01*
X152325052Y-102154441D01*
X152100559Y-102049041D01*
X151834912Y-101969604D01*
X151831334Y-101968868D01*
X151608808Y-101910258D01*
X151459219Y-101847433D01*
X151450334Y-101841082D01*
X151340774Y-101785349D01*
X151108157Y-101685542D01*
X150788178Y-101556504D01*
X150467891Y-101432541D01*
X149999727Y-101248006D01*
X149490395Y-101036690D01*
X149019508Y-100832010D01*
X148816891Y-100739582D01*
X148353815Y-100533654D01*
X147805629Y-100309781D01*
X147152364Y-100060310D01*
X146374051Y-99777588D01*
X145574047Y-99496668D01*
X145173932Y-99352127D01*
X144907417Y-99224310D01*
X144747368Y-99076666D01*
X144666652Y-98872642D01*
X144638134Y-98575688D01*
X144634667Y-98231256D01*
X144636600Y-97865419D01*
X144647629Y-97637510D01*
X144675593Y-97516131D01*
X144728333Y-97469881D01*
X144813691Y-97467361D01*
X144825167Y-97468383D01*
G36*
X164024477Y-118946328D02*
X164283569Y-119066812D01*
X164601289Y-119279188D01*
X164929658Y-119543780D01*
X165220701Y-119820914D01*
X165426443Y-120070916D01*
X165466486Y-120138820D01*
X165656266Y-120693340D01*
X165689519Y-121291411D01*
X165631033Y-121668373D01*
X165409302Y-122314691D01*
X165076767Y-122834104D01*
X164631018Y-123229803D01*
X164320283Y-123403589D01*
X164014390Y-123528065D01*
X163746916Y-123581250D01*
X163447752Y-123569604D01*
X163119635Y-123514243D01*
X162616248Y-123358311D01*
X162181829Y-123114749D01*
X161849614Y-122807421D01*
X161653235Y-122461387D01*
X161522490Y-121901782D01*
X161477846Y-121312358D01*
X161499640Y-120981376D01*
X161926078Y-120981376D01*
X161931379Y-121484548D01*
X162011345Y-121960298D01*
X162154352Y-122363499D01*
X162348774Y-122649022D01*
X162357939Y-122657811D01*
X162645557Y-122855459D01*
X163029001Y-123025581D01*
X163434761Y-123140464D01*
X163727000Y-123173980D01*
X164059341Y-123124285D01*
X164393865Y-122993212D01*
X164404334Y-122987441D01*
X164675533Y-122782202D01*
X164897100Y-122479272D01*
X164975257Y-122332667D01*
X165208344Y-121726518D01*
X165279539Y-121169383D01*
X165189437Y-120663164D01*
X164938632Y-120209768D01*
X164527720Y-119811098D01*
X164104501Y-119543633D01*
X163819726Y-119398546D01*
X163622384Y-119326318D01*
X163453465Y-119314797D01*
X163253957Y-119351827D01*
X163217358Y-119360915D01*
X162721092Y-119535097D01*
X162359446Y-119785001D01*
X162115706Y-120131599D01*
X161973161Y-120595863D01*
X161926078Y-120981376D01*
X161499640Y-120981376D01*
X161515756Y-120736642D01*
X161632672Y-120218162D01*
X161825048Y-119800448D01*
X161875972Y-119727933D01*
X162157440Y-119461353D01*
X162545739Y-119228409D01*
X162990259Y-119047511D01*
X163440393Y-118937071D01*
X163845530Y-118915499D01*
X164024477Y-118946328D01*
X164024477Y-118946328D01*
G37*
X164024477Y-118946328D02*
X164283569Y-119066812D01*
X164601289Y-119279188D01*
X164929658Y-119543780D01*
X165220701Y-119820914D01*
X165426443Y-120070916D01*
X165466486Y-120138820D01*
X165656266Y-120693340D01*
X165689519Y-121291411D01*
X165631033Y-121668373D01*
X165409302Y-122314691D01*
X165076767Y-122834104D01*
X164631018Y-123229803D01*
X164320283Y-123403589D01*
X164014390Y-123528065D01*
X163746916Y-123581250D01*
X163447752Y-123569604D01*
X163119635Y-123514243D01*
X162616248Y-123358311D01*
X162181829Y-123114749D01*
X161849614Y-122807421D01*
X161653235Y-122461387D01*
X161522490Y-121901782D01*
X161477846Y-121312358D01*
X161499640Y-120981376D01*
X161926078Y-120981376D01*
X161931379Y-121484548D01*
X162011345Y-121960298D01*
X162154352Y-122363499D01*
X162348774Y-122649022D01*
X162357939Y-122657811D01*
X162645557Y-122855459D01*
X163029001Y-123025581D01*
X163434761Y-123140464D01*
X163727000Y-123173980D01*
X164059341Y-123124285D01*
X164393865Y-122993212D01*
X164404334Y-122987441D01*
X164675533Y-122782202D01*
X164897100Y-122479272D01*
X164975257Y-122332667D01*
X165208344Y-121726518D01*
X165279539Y-121169383D01*
X165189437Y-120663164D01*
X164938632Y-120209768D01*
X164527720Y-119811098D01*
X164104501Y-119543633D01*
X163819726Y-119398546D01*
X163622384Y-119326318D01*
X163453465Y-119314797D01*
X163253957Y-119351827D01*
X163217358Y-119360915D01*
X162721092Y-119535097D01*
X162359446Y-119785001D01*
X162115706Y-120131599D01*
X161973161Y-120595863D01*
X161926078Y-120981376D01*
X161499640Y-120981376D01*
X161515756Y-120736642D01*
X161632672Y-120218162D01*
X161825048Y-119800448D01*
X161875972Y-119727933D01*
X162157440Y-119461353D01*
X162545739Y-119228409D01*
X162990259Y-119047511D01*
X163440393Y-118937071D01*
X163845530Y-118915499D01*
X164024477Y-118946328D01*
G36*
X153818249Y-120687385D02*
X153863334Y-120797249D01*
X153913745Y-120973486D01*
X154032667Y-121170437D01*
X154151834Y-121357376D01*
X154201995Y-121506470D01*
X154202000Y-121507399D01*
X154260296Y-121651840D01*
X154371334Y-121782334D01*
X154507986Y-121935116D01*
X154529489Y-122024079D01*
X154436884Y-122023408D01*
X154362969Y-121989524D01*
X154244115Y-121938285D01*
X154213009Y-121988541D01*
X154242711Y-122155948D01*
X154263378Y-122350116D01*
X154198563Y-122444167D01*
X154145243Y-122465917D01*
X153930947Y-122550130D01*
X153843316Y-122592847D01*
X153655182Y-122649246D01*
X153419982Y-122672630D01*
X153141550Y-122702363D01*
X152987642Y-122805968D01*
X152920188Y-123010027D01*
X152918473Y-123022788D01*
X152886446Y-123171923D01*
X152827874Y-123173720D01*
X152773178Y-123120513D01*
X152599799Y-123034038D01*
X152457807Y-123032352D01*
X152317798Y-123035792D01*
X152191702Y-122969956D01*
X152053564Y-122809855D01*
X151877426Y-122530500D01*
X151803326Y-122402257D01*
X151649064Y-122111001D01*
X151585644Y-121899054D01*
X151627630Y-121734782D01*
X151789587Y-121586549D01*
X152086078Y-121422721D01*
X152302007Y-121319100D01*
X152623042Y-121171111D01*
X152886423Y-121055515D01*
X153054812Y-120988409D01*
X153093218Y-120978000D01*
X153193789Y-120921554D01*
X153313000Y-120808667D01*
X153490752Y-120680062D01*
X153676925Y-120639266D01*
X153818249Y-120687385D01*
X153818249Y-120687385D01*
G37*
X153818249Y-120687385D02*
X153863334Y-120797249D01*
X153913745Y-120973486D01*
X154032667Y-121170437D01*
X154151834Y-121357376D01*
X154201995Y-121506470D01*
X154202000Y-121507399D01*
X154260296Y-121651840D01*
X154371334Y-121782334D01*
X154507986Y-121935116D01*
X154529489Y-122024079D01*
X154436884Y-122023408D01*
X154362969Y-121989524D01*
X154244115Y-121938285D01*
X154213009Y-121988541D01*
X154242711Y-122155948D01*
X154263378Y-122350116D01*
X154198563Y-122444167D01*
X154145243Y-122465917D01*
X153930947Y-122550130D01*
X153843316Y-122592847D01*
X153655182Y-122649246D01*
X153419982Y-122672630D01*
X153141550Y-122702363D01*
X152987642Y-122805968D01*
X152920188Y-123010027D01*
X152918473Y-123022788D01*
X152886446Y-123171923D01*
X152827874Y-123173720D01*
X152773178Y-123120513D01*
X152599799Y-123034038D01*
X152457807Y-123032352D01*
X152317798Y-123035792D01*
X152191702Y-122969956D01*
X152053564Y-122809855D01*
X151877426Y-122530500D01*
X151803326Y-122402257D01*
X151649064Y-122111001D01*
X151585644Y-121899054D01*
X151627630Y-121734782D01*
X151789587Y-121586549D01*
X152086078Y-121422721D01*
X152302007Y-121319100D01*
X152623042Y-121171111D01*
X152886423Y-121055515D01*
X153054812Y-120988409D01*
X153093218Y-120978000D01*
X153193789Y-120921554D01*
X153313000Y-120808667D01*
X153490752Y-120680062D01*
X153676925Y-120639266D01*
X153818249Y-120687385D01*
G36*
X128472356Y-116896839D02*
X128578829Y-117061568D01*
X128590456Y-117083570D01*
X128661574Y-117247398D01*
X128678189Y-117401705D01*
X128639996Y-117610825D01*
X128587077Y-117801672D01*
X128500402Y-118063265D01*
X128417988Y-118252414D01*
X128373114Y-118314432D01*
X128292424Y-118406076D01*
X128362524Y-118469816D01*
X128565277Y-118489470D01*
X128569167Y-118489349D01*
X128792077Y-118446057D01*
X128944338Y-118354416D01*
X128945208Y-118353334D01*
X129086291Y-118280707D01*
X129257133Y-118365103D01*
X129444669Y-118599714D01*
X129457161Y-118620059D01*
X129543369Y-118787119D01*
X129531223Y-118893532D01*
X129453796Y-118983633D01*
X129293464Y-119101198D01*
X129050157Y-119236502D01*
X128935048Y-119290714D01*
X128593553Y-119466521D01*
X128392079Y-119640624D01*
X128303926Y-119840948D01*
X128294000Y-119961123D01*
X128276337Y-120188628D01*
X128242608Y-120336075D01*
X128124473Y-120454892D01*
X127936744Y-120453789D01*
X127720443Y-120341056D01*
X127574829Y-120201148D01*
X127407885Y-119932409D01*
X127388038Y-119726016D01*
X127378352Y-119497310D01*
X127310924Y-119296368D01*
X127194284Y-118938376D01*
X127218753Y-118755500D01*
X127961284Y-118755500D01*
X127971574Y-118906101D01*
X128001595Y-118900782D01*
X128040000Y-118819000D01*
X128101548Y-118655033D01*
X128118716Y-118586167D01*
X128060319Y-118524560D01*
X128040000Y-118522667D01*
X127980474Y-118595562D01*
X127961284Y-118755500D01*
X127218753Y-118755500D01*
X127238975Y-118604375D01*
X127448305Y-118276228D01*
X127508764Y-118211195D01*
X127734989Y-117930159D01*
X127829535Y-117673305D01*
X127835324Y-117608603D01*
X127891019Y-117401917D01*
X128018526Y-117169781D01*
X128179551Y-116965771D01*
X128335797Y-116843464D01*
X128392333Y-116829334D01*
X128472356Y-116896839D01*
X128472356Y-116896839D01*
G37*
X128472356Y-116896839D02*
X128578829Y-117061568D01*
X128590456Y-117083570D01*
X128661574Y-117247398D01*
X128678189Y-117401705D01*
X128639996Y-117610825D01*
X128587077Y-117801672D01*
X128500402Y-118063265D01*
X128417988Y-118252414D01*
X128373114Y-118314432D01*
X128292424Y-118406076D01*
X128362524Y-118469816D01*
X128565277Y-118489470D01*
X128569167Y-118489349D01*
X128792077Y-118446057D01*
X128944338Y-118354416D01*
X128945208Y-118353334D01*
X129086291Y-118280707D01*
X129257133Y-118365103D01*
X129444669Y-118599714D01*
X129457161Y-118620059D01*
X129543369Y-118787119D01*
X129531223Y-118893532D01*
X129453796Y-118983633D01*
X129293464Y-119101198D01*
X129050157Y-119236502D01*
X128935048Y-119290714D01*
X128593553Y-119466521D01*
X128392079Y-119640624D01*
X128303926Y-119840948D01*
X128294000Y-119961123D01*
X128276337Y-120188628D01*
X128242608Y-120336075D01*
X128124473Y-120454892D01*
X127936744Y-120453789D01*
X127720443Y-120341056D01*
X127574829Y-120201148D01*
X127407885Y-119932409D01*
X127388038Y-119726016D01*
X127378352Y-119497310D01*
X127310924Y-119296368D01*
X127194284Y-118938376D01*
X127218753Y-118755500D01*
X127961284Y-118755500D01*
X127971574Y-118906101D01*
X128001595Y-118900782D01*
X128040000Y-118819000D01*
X128101548Y-118655033D01*
X128118716Y-118586167D01*
X128060319Y-118524560D01*
X128040000Y-118522667D01*
X127980474Y-118595562D01*
X127961284Y-118755500D01*
X127218753Y-118755500D01*
X127238975Y-118604375D01*
X127448305Y-118276228D01*
X127508764Y-118211195D01*
X127734989Y-117930159D01*
X127829535Y-117673305D01*
X127835324Y-117608603D01*
X127891019Y-117401917D01*
X128018526Y-117169781D01*
X128179551Y-116965771D01*
X128335797Y-116843464D01*
X128392333Y-116829334D01*
X128472356Y-116896839D01*
G36*
X151895895Y-117332110D02*
X152011737Y-117421464D01*
X152171346Y-117611172D01*
X152272254Y-117741144D01*
X152468286Y-118014742D01*
X152549166Y-118180812D01*
X152521641Y-118250225D01*
X152427364Y-118303009D01*
X152261368Y-118426960D01*
X152009453Y-118633631D01*
X151657421Y-118934579D01*
X151323334Y-119225452D01*
X150939706Y-119540111D01*
X150643910Y-119727944D01*
X150417090Y-119793622D01*
X150240391Y-119741815D01*
X150094956Y-119577196D01*
X150070562Y-119535800D01*
X149938294Y-119358453D01*
X149800668Y-119319044D01*
X149757000Y-119328546D01*
X149559275Y-119374911D01*
X149300731Y-119422401D01*
X149270167Y-119427227D01*
X149042356Y-119439057D01*
X148960460Y-119377009D01*
X149022998Y-119234454D01*
X149185500Y-119048220D01*
X149326112Y-118907872D01*
X149396276Y-118845971D01*
X149397901Y-118848594D01*
X149425071Y-118949235D01*
X149545723Y-119055846D01*
X149695101Y-119114119D01*
X149715975Y-119115334D01*
X149873695Y-119040160D01*
X149959349Y-118837166D01*
X149968667Y-118718350D01*
X149914157Y-118628481D01*
X149841667Y-118637951D01*
X149728772Y-118650969D01*
X149732243Y-118569420D01*
X149843233Y-118412735D01*
X150032167Y-118219427D01*
X150337340Y-117987955D01*
X150749905Y-117745388D01*
X151213092Y-117522149D01*
X151637254Y-117359295D01*
X151784256Y-117319318D01*
X151895895Y-117332110D01*
X151895895Y-117332110D01*
G37*
X151895895Y-117332110D02*
X152011737Y-117421464D01*
X152171346Y-117611172D01*
X152272254Y-117741144D01*
X152468286Y-118014742D01*
X152549166Y-118180812D01*
X152521641Y-118250225D01*
X152427364Y-118303009D01*
X152261368Y-118426960D01*
X152009453Y-118633631D01*
X151657421Y-118934579D01*
X151323334Y-119225452D01*
X150939706Y-119540111D01*
X150643910Y-119727944D01*
X150417090Y-119793622D01*
X150240391Y-119741815D01*
X150094956Y-119577196D01*
X150070562Y-119535800D01*
X149938294Y-119358453D01*
X149800668Y-119319044D01*
X149757000Y-119328546D01*
X149559275Y-119374911D01*
X149300731Y-119422401D01*
X149270167Y-119427227D01*
X149042356Y-119439057D01*
X148960460Y-119377009D01*
X149022998Y-119234454D01*
X149185500Y-119048220D01*
X149326112Y-118907872D01*
X149396276Y-118845971D01*
X149397901Y-118848594D01*
X149425071Y-118949235D01*
X149545723Y-119055846D01*
X149695101Y-119114119D01*
X149715975Y-119115334D01*
X149873695Y-119040160D01*
X149959349Y-118837166D01*
X149968667Y-118718350D01*
X149914157Y-118628481D01*
X149841667Y-118637951D01*
X149728772Y-118650969D01*
X149732243Y-118569420D01*
X149843233Y-118412735D01*
X150032167Y-118219427D01*
X150337340Y-117987955D01*
X150749905Y-117745388D01*
X151213092Y-117522149D01*
X151637254Y-117359295D01*
X151784256Y-117319318D01*
X151895895Y-117332110D01*
G36*
X125264670Y-116703135D02*
X125269615Y-116703561D01*
X125613500Y-116744927D01*
X125942713Y-116803328D01*
X126110362Y-116844638D01*
X126321236Y-116925411D01*
X126412559Y-117031319D01*
X126431841Y-117202569D01*
X126438675Y-117412937D01*
X126456276Y-117729392D01*
X126481080Y-118089295D01*
X126485632Y-118148675D01*
X126509243Y-118490506D01*
X126508518Y-118711821D01*
X126473788Y-118860801D01*
X126395385Y-118985626D01*
X126294624Y-119100579D01*
X126106696Y-119270710D01*
X125893132Y-119366739D01*
X125582714Y-119420496D01*
X125577519Y-119421080D01*
X125301311Y-119445015D01*
X125134310Y-119427867D01*
X125018286Y-119353847D01*
X124923577Y-119243754D01*
X124782167Y-118994469D01*
X124779332Y-118985603D01*
X125104394Y-118985603D01*
X125198406Y-119105769D01*
X125338929Y-119189336D01*
X125402182Y-119200000D01*
X125474380Y-119178018D01*
X125426737Y-119093007D01*
X125351834Y-119014204D01*
X125207127Y-118901369D01*
X125111669Y-118883063D01*
X125109287Y-118885158D01*
X125104394Y-118985603D01*
X124779332Y-118985603D01*
X124691738Y-118711724D01*
X124690499Y-118704578D01*
X124642416Y-118448657D01*
X124595174Y-118240751D01*
X124591625Y-118227724D01*
X124551652Y-118115167D01*
X124512217Y-118152742D01*
X124474746Y-118248891D01*
X124388321Y-118395331D01*
X124317395Y-118438000D01*
X124235628Y-118382440D01*
X124259926Y-118241842D01*
X124381208Y-118055328D01*
X124415019Y-118017336D01*
X124563422Y-117759287D01*
X124618045Y-117417953D01*
X124641532Y-117056325D01*
X124690581Y-116834024D01*
X124792548Y-116721057D01*
X124974791Y-116687425D01*
X125264670Y-116703135D01*
X125264670Y-116703135D01*
G37*
X125264670Y-116703135D02*
X125269615Y-116703561D01*
X125613500Y-116744927D01*
X125942713Y-116803328D01*
X126110362Y-116844638D01*
X126321236Y-116925411D01*
X126412559Y-117031319D01*
X126431841Y-117202569D01*
X126438675Y-117412937D01*
X126456276Y-117729392D01*
X126481080Y-118089295D01*
X126485632Y-118148675D01*
X126509243Y-118490506D01*
X126508518Y-118711821D01*
X126473788Y-118860801D01*
X126395385Y-118985626D01*
X126294624Y-119100579D01*
X126106696Y-119270710D01*
X125893132Y-119366739D01*
X125582714Y-119420496D01*
X125577519Y-119421080D01*
X125301311Y-119445015D01*
X125134310Y-119427867D01*
X125018286Y-119353847D01*
X124923577Y-119243754D01*
X124782167Y-118994469D01*
X124779332Y-118985603D01*
X125104394Y-118985603D01*
X125198406Y-119105769D01*
X125338929Y-119189336D01*
X125402182Y-119200000D01*
X125474380Y-119178018D01*
X125426737Y-119093007D01*
X125351834Y-119014204D01*
X125207127Y-118901369D01*
X125111669Y-118883063D01*
X125109287Y-118885158D01*
X125104394Y-118985603D01*
X124779332Y-118985603D01*
X124691738Y-118711724D01*
X124690499Y-118704578D01*
X124642416Y-118448657D01*
X124595174Y-118240751D01*
X124591625Y-118227724D01*
X124551652Y-118115167D01*
X124512217Y-118152742D01*
X124474746Y-118248891D01*
X124388321Y-118395331D01*
X124317395Y-118438000D01*
X124235628Y-118382440D01*
X124259926Y-118241842D01*
X124381208Y-118055328D01*
X124415019Y-118017336D01*
X124563422Y-117759287D01*
X124618045Y-117417953D01*
X124641532Y-117056325D01*
X124690581Y-116834024D01*
X124792548Y-116721057D01*
X124974791Y-116687425D01*
X125264670Y-116703135D01*
G36*
X143439340Y-114901273D02*
X143511216Y-115172066D01*
X143545024Y-115357691D01*
X143648612Y-116114683D01*
X143684627Y-116751454D01*
X143652877Y-117255557D01*
X143578913Y-117554029D01*
X143452438Y-117800217D01*
X143282432Y-118028469D01*
X143107034Y-118195983D01*
X142964382Y-118259959D01*
X142951082Y-118258609D01*
X142844964Y-118234743D01*
X142631676Y-118184945D01*
X142482491Y-118149678D01*
X142128959Y-118019077D01*
X141888770Y-117807159D01*
X141741448Y-117486766D01*
X141670284Y-117072359D01*
X141648015Y-116785910D01*
X141658047Y-116622264D01*
X141711544Y-116536216D01*
X141815556Y-116484119D01*
X141968405Y-116366535D01*
X142010000Y-116162672D01*
X142081747Y-115939503D01*
X142290400Y-115643799D01*
X142626077Y-115287452D01*
X143063116Y-114895591D01*
X143232124Y-114779178D01*
X143351920Y-114775691D01*
X143439340Y-114901273D01*
X143439340Y-114901273D01*
G37*
X143439340Y-114901273D02*
X143511216Y-115172066D01*
X143545024Y-115357691D01*
X143648612Y-116114683D01*
X143684627Y-116751454D01*
X143652877Y-117255557D01*
X143578913Y-117554029D01*
X143452438Y-117800217D01*
X143282432Y-118028469D01*
X143107034Y-118195983D01*
X142964382Y-118259959D01*
X142951082Y-118258609D01*
X142844964Y-118234743D01*
X142631676Y-118184945D01*
X142482491Y-118149678D01*
X142128959Y-118019077D01*
X141888770Y-117807159D01*
X141741448Y-117486766D01*
X141670284Y-117072359D01*
X141648015Y-116785910D01*
X141658047Y-116622264D01*
X141711544Y-116536216D01*
X141815556Y-116484119D01*
X141968405Y-116366535D01*
X142010000Y-116162672D01*
X142081747Y-115939503D01*
X142290400Y-115643799D01*
X142626077Y-115287452D01*
X143063116Y-114895591D01*
X143232124Y-114779178D01*
X143351920Y-114775691D01*
X143439340Y-114901273D01*
G36*
X135859422Y-114484931D02*
X136174883Y-114688783D01*
X136231500Y-114738006D01*
X136323043Y-114838039D01*
X136379452Y-114961505D01*
X136408850Y-115148990D01*
X136419356Y-115441080D01*
X136419980Y-115679925D01*
X136407272Y-116183304D01*
X136364952Y-116585377D01*
X136282183Y-116953126D01*
X136150044Y-117348379D01*
X136046175Y-117559019D01*
X135899312Y-117780552D01*
X135744851Y-117967652D01*
X135618188Y-118074992D01*
X135575334Y-118084321D01*
X135470043Y-118066546D01*
X135272258Y-118039880D01*
X135257946Y-118038094D01*
X135005482Y-117949179D01*
X134886660Y-117824144D01*
X134766300Y-117624983D01*
X134604512Y-117417437D01*
X134453500Y-117246598D01*
X134340137Y-117080887D01*
X134305334Y-116969342D01*
X134269519Y-116820628D01*
X134182036Y-116608680D01*
X134169480Y-116583024D01*
X134089454Y-116346878D01*
X134077685Y-116139023D01*
X134080620Y-116125516D01*
X134252309Y-115533721D01*
X134413407Y-115124677D01*
X135394091Y-115124677D01*
X135415734Y-115310878D01*
X135440770Y-115432334D01*
X135507028Y-115657973D01*
X135573979Y-115794623D01*
X135600289Y-115813334D01*
X135639778Y-115747576D01*
X135627393Y-115665167D01*
X135574232Y-115469989D01*
X135527842Y-115284167D01*
X135469145Y-115116018D01*
X135412342Y-115051334D01*
X135394091Y-115124677D01*
X134413407Y-115124677D01*
X134429726Y-115083244D01*
X134608639Y-114782343D01*
X134784819Y-114639278D01*
X134847835Y-114628000D01*
X134993918Y-114568376D01*
X135067334Y-114501000D01*
X135266814Y-114383133D01*
X135543788Y-114380412D01*
X135859422Y-114484931D01*
X135859422Y-114484931D01*
G37*
X135859422Y-114484931D02*
X136174883Y-114688783D01*
X136231500Y-114738006D01*
X136323043Y-114838039D01*
X136379452Y-114961505D01*
X136408850Y-115148990D01*
X136419356Y-115441080D01*
X136419980Y-115679925D01*
X136407272Y-116183304D01*
X136364952Y-116585377D01*
X136282183Y-116953126D01*
X136150044Y-117348379D01*
X136046175Y-117559019D01*
X135899312Y-117780552D01*
X135744851Y-117967652D01*
X135618188Y-118074992D01*
X135575334Y-118084321D01*
X135470043Y-118066546D01*
X135272258Y-118039880D01*
X135257946Y-118038094D01*
X135005482Y-117949179D01*
X134886660Y-117824144D01*
X134766300Y-117624983D01*
X134604512Y-117417437D01*
X134453500Y-117246598D01*
X134340137Y-117080887D01*
X134305334Y-116969342D01*
X134269519Y-116820628D01*
X134182036Y-116608680D01*
X134169480Y-116583024D01*
X134089454Y-116346878D01*
X134077685Y-116139023D01*
X134080620Y-116125516D01*
X134252309Y-115533721D01*
X134413407Y-115124677D01*
X135394091Y-115124677D01*
X135415734Y-115310878D01*
X135440770Y-115432334D01*
X135507028Y-115657973D01*
X135573979Y-115794623D01*
X135600289Y-115813334D01*
X135639778Y-115747576D01*
X135627393Y-115665167D01*
X135574232Y-115469989D01*
X135527842Y-115284167D01*
X135469145Y-115116018D01*
X135412342Y-115051334D01*
X135394091Y-115124677D01*
X134413407Y-115124677D01*
X134429726Y-115083244D01*
X134608639Y-114782343D01*
X134784819Y-114639278D01*
X134847835Y-114628000D01*
X134993918Y-114568376D01*
X135067334Y-114501000D01*
X135266814Y-114383133D01*
X135543788Y-114380412D01*
X135859422Y-114484931D01*
G36*
X150353269Y-115024278D02*
X150548690Y-115170383D01*
X150646000Y-115263000D01*
X150916865Y-115484369D01*
X151166903Y-115559162D01*
X151179667Y-115559334D01*
X151350353Y-115580314D01*
X151385658Y-115657120D01*
X151374725Y-115693258D01*
X151329258Y-115847618D01*
X151323334Y-115894203D01*
X151249934Y-115952847D01*
X151053615Y-116052942D01*
X150770195Y-116176985D01*
X150624834Y-116235542D01*
X150255178Y-116387068D01*
X149899028Y-116543792D01*
X149620954Y-116677048D01*
X149571633Y-116703102D01*
X149354560Y-116815851D01*
X149229695Y-116849582D01*
X149141455Y-116807935D01*
X149071677Y-116735838D01*
X148918993Y-116612583D01*
X148812545Y-116575334D01*
X148717607Y-116512533D01*
X148701054Y-116356183D01*
X148748453Y-116154361D01*
X148845369Y-115955145D01*
X148977369Y-115806614D01*
X149055781Y-115765145D01*
X149201233Y-115683941D01*
X149419906Y-115523167D01*
X149638425Y-115340184D01*
X149876279Y-115148032D01*
X150084220Y-115013220D01*
X150208884Y-114966667D01*
X150353269Y-115024278D01*
X150353269Y-115024278D01*
G37*
X150353269Y-115024278D02*
X150548690Y-115170383D01*
X150646000Y-115263000D01*
X150916865Y-115484369D01*
X151166903Y-115559162D01*
X151179667Y-115559334D01*
X151350353Y-115580314D01*
X151385658Y-115657120D01*
X151374725Y-115693258D01*
X151329258Y-115847618D01*
X151323334Y-115894203D01*
X151249934Y-115952847D01*
X151053615Y-116052942D01*
X150770195Y-116176985D01*
X150624834Y-116235542D01*
X150255178Y-116387068D01*
X149899028Y-116543792D01*
X149620954Y-116677048D01*
X149571633Y-116703102D01*
X149354560Y-116815851D01*
X149229695Y-116849582D01*
X149141455Y-116807935D01*
X149071677Y-116735838D01*
X148918993Y-116612583D01*
X148812545Y-116575334D01*
X148717607Y-116512533D01*
X148701054Y-116356183D01*
X148748453Y-116154361D01*
X148845369Y-115955145D01*
X148977369Y-115806614D01*
X149055781Y-115765145D01*
X149201233Y-115683941D01*
X149419906Y-115523167D01*
X149638425Y-115340184D01*
X149876279Y-115148032D01*
X150084220Y-115013220D01*
X150208884Y-114966667D01*
X150353269Y-115024278D01*
G36*
X140373111Y-116010889D02*
X140383244Y-116111369D01*
X140373111Y-116123778D01*
X140322777Y-116112156D01*
X140316667Y-116067334D01*
X140347645Y-115997643D01*
X140373111Y-116010889D01*
X140373111Y-116010889D01*
G37*
X140373111Y-116010889D02*
X140383244Y-116111369D01*
X140373111Y-116123778D01*
X140322777Y-116112156D01*
X140316667Y-116067334D01*
X140347645Y-115997643D01*
X140373111Y-116010889D01*
G36*
X131762278Y-96361552D02*
X131941131Y-96423433D01*
X132212310Y-96546174D01*
X132598045Y-96738270D01*
X132844699Y-96864989D01*
X133258728Y-97085538D01*
X133627668Y-97294208D01*
X133920779Y-97472697D01*
X134107320Y-97602704D01*
X134149258Y-97641638D01*
X134227734Y-97775469D01*
X134275047Y-97972769D01*
X134297762Y-98272774D01*
X134302517Y-98557503D01*
X134295660Y-98893819D01*
X134274938Y-99161113D01*
X134244222Y-99317645D01*
X134229941Y-99339935D01*
X134121824Y-99330027D01*
X133903447Y-99261729D01*
X133617683Y-99148929D01*
X133551652Y-99120237D01*
X133230235Y-98968249D01*
X133033992Y-98843934D01*
X132927792Y-98720416D01*
X132885755Y-98610813D01*
X132736765Y-98362882D01*
X132465535Y-98154662D01*
X132108317Y-97941643D01*
X131242531Y-98770655D01*
X130876889Y-99121079D01*
X130505862Y-99477199D01*
X130170783Y-99799313D01*
X129912981Y-100047718D01*
X129894742Y-100065334D01*
X129412739Y-100531000D01*
X129357377Y-101631667D01*
X129323438Y-102163520D01*
X129274734Y-102745243D01*
X129218409Y-103297974D01*
X129173859Y-103657672D01*
X129045703Y-104583010D01*
X129553957Y-105091263D01*
X130062210Y-105599517D01*
X130236438Y-105393592D01*
X130410667Y-105187667D01*
X130580000Y-105387547D01*
X130703706Y-105598078D01*
X130749334Y-105789713D01*
X130791536Y-105947912D01*
X130866686Y-105992000D01*
X130972537Y-106062370D01*
X131094328Y-106238177D01*
X131130158Y-106309500D01*
X131248912Y-106502868D01*
X131443546Y-106754001D01*
X131684163Y-107031293D01*
X131940868Y-107303136D01*
X132183765Y-107537923D01*
X132382960Y-107704046D01*
X132508556Y-107769899D01*
X132511559Y-107770000D01*
X132646003Y-107713218D01*
X132864847Y-107561662D01*
X133136066Y-107343518D01*
X133427637Y-107086973D01*
X133707534Y-106820212D01*
X133943734Y-106571421D01*
X134104212Y-106368787D01*
X134105057Y-106367499D01*
X134267354Y-106191870D01*
X134406082Y-106175575D01*
X134507196Y-106308882D01*
X134556654Y-106582059D01*
X134559334Y-106682306D01*
X134619265Y-106961170D01*
X134801764Y-107124943D01*
X135103619Y-107177334D01*
X135301920Y-107194905D01*
X135402786Y-107238216D01*
X135406000Y-107248580D01*
X135387618Y-107290796D01*
X135323860Y-107369691D01*
X135201808Y-107497946D01*
X135008543Y-107688245D01*
X134731148Y-107953270D01*
X134356704Y-108305705D01*
X133872293Y-108758233D01*
X133794655Y-108830585D01*
X133247000Y-109340836D01*
X133289334Y-109973585D01*
X133331667Y-110606334D01*
X133910675Y-110631540D01*
X134223987Y-110652774D01*
X134394893Y-110687000D01*
X134450219Y-110741387D01*
X134444598Y-110774236D01*
X134459169Y-110898557D01*
X134500590Y-110928947D01*
X134552153Y-110990703D01*
X134485250Y-111082584D01*
X134382222Y-111152768D01*
X134330028Y-111093167D01*
X134225993Y-110989064D01*
X134070986Y-110995827D01*
X133916342Y-111089385D01*
X133813395Y-111245669D01*
X133797334Y-111342934D01*
X133844871Y-111473509D01*
X133960045Y-111473726D01*
X134098577Y-111347300D01*
X134208670Y-111243285D01*
X134263844Y-111276860D01*
X134250071Y-111421293D01*
X134203833Y-111547892D01*
X134091117Y-111740780D01*
X133928774Y-111952868D01*
X133758175Y-112136879D01*
X133620690Y-112245538D01*
X133583001Y-112257334D01*
X133557550Y-112187652D01*
X133578101Y-112045667D01*
X133631226Y-111834000D01*
X132973447Y-111839951D01*
X132600635Y-111852280D01*
X132325264Y-111877786D01*
X132160271Y-111910571D01*
X132118593Y-111944735D01*
X132213165Y-111974380D01*
X132456926Y-111993608D01*
X132628170Y-111997383D01*
X132944085Y-112009662D01*
X133189474Y-112036766D01*
X133319352Y-112073307D01*
X133327409Y-112081111D01*
X133299920Y-112154842D01*
X133139207Y-112207971D01*
X132880652Y-112235560D01*
X132559640Y-112232672D01*
X132363437Y-112215631D01*
X131870322Y-112158399D01*
X130685090Y-113118033D01*
X130194868Y-113515148D01*
X129648098Y-113958404D01*
X129099984Y-114403026D01*
X128605732Y-114804241D01*
X128431841Y-114945500D01*
X128068857Y-115237122D01*
X127750748Y-115486413D01*
X127500906Y-115675538D01*
X127342724Y-115786662D01*
X127299745Y-115808603D01*
X127189851Y-115775447D01*
X126982666Y-115696489D01*
X126854667Y-115644000D01*
X126527740Y-115544885D01*
X126159429Y-115485953D01*
X126034164Y-115479397D01*
X125724089Y-115460424D01*
X125574553Y-115407528D01*
X125578974Y-115314075D01*
X125730732Y-115173455D01*
X125899150Y-115043639D01*
X126151845Y-114843933D01*
X126441898Y-114611503D01*
X126526240Y-114543334D01*
X126768284Y-114347350D01*
X127112139Y-114069022D01*
X127527964Y-113732497D01*
X127985917Y-113361927D01*
X128456157Y-112981462D01*
X128565411Y-112893073D01*
X129049253Y-112500606D01*
X129541513Y-112099478D01*
X130008449Y-111717315D01*
X130416321Y-111381742D01*
X130731388Y-111120384D01*
X130770500Y-111087661D01*
X131511334Y-110466843D01*
X131508982Y-109943922D01*
X131498651Y-109640308D01*
X131456898Y-109443153D01*
X131362483Y-109289889D01*
X131245257Y-109167000D01*
X131015710Y-108926073D01*
X130796630Y-108669433D01*
X130771893Y-108637834D01*
X130610258Y-108463897D01*
X130468100Y-108368743D01*
X130437954Y-108362667D01*
X130354916Y-108323805D01*
X130361966Y-108288304D01*
X130328435Y-108197498D01*
X130196182Y-108031575D01*
X129998330Y-107830813D01*
X129716505Y-107551763D01*
X129428507Y-107242681D01*
X129269836Y-107058510D01*
X129015282Y-106794114D01*
X128807255Y-106675257D01*
X128759835Y-106669334D01*
X128560246Y-106616053D01*
X128463334Y-106542334D01*
X128285602Y-106450991D01*
X127954071Y-106415727D01*
X127905612Y-106415334D01*
X127646424Y-106402880D01*
X127468154Y-106348709D01*
X127358668Y-106227611D01*
X127342248Y-106161334D01*
X127616667Y-106161334D01*
X127647645Y-106231024D01*
X127673111Y-106217778D01*
X127683244Y-106117298D01*
X127673111Y-106104889D01*
X127622777Y-106116511D01*
X127616667Y-106161334D01*
X127342248Y-106161334D01*
X127305836Y-106014372D01*
X127303146Y-105907334D01*
X127447334Y-105907334D01*
X127478312Y-105977024D01*
X127503778Y-105963778D01*
X127513911Y-105863298D01*
X127503778Y-105850889D01*
X127453444Y-105862511D01*
X127447334Y-105907334D01*
X127303146Y-105907334D01*
X127297527Y-105683779D01*
X127301230Y-105611000D01*
X127532000Y-105611000D01*
X127574334Y-105653334D01*
X127616667Y-105611000D01*
X127574334Y-105568667D01*
X127532000Y-105611000D01*
X127301230Y-105611000D01*
X127309849Y-105441667D01*
X127447334Y-105441667D01*
X127489667Y-105484000D01*
X127532000Y-105441667D01*
X127489667Y-105399334D01*
X127447334Y-105441667D01*
X127309849Y-105441667D01*
X127321609Y-105210622D01*
X127322129Y-105202702D01*
X127350571Y-104833175D01*
X127381931Y-104525904D01*
X127411693Y-104320891D01*
X127428506Y-104260634D01*
X127457564Y-104201465D01*
X127482827Y-104109536D01*
X127508522Y-103956109D01*
X127538876Y-103712449D01*
X127578116Y-103349819D01*
X127614558Y-102995859D01*
X127658105Y-102630047D01*
X127706051Y-102324658D01*
X127751274Y-102121129D01*
X127774614Y-102064526D01*
X127830531Y-101929036D01*
X127886406Y-101694065D01*
X127907602Y-101567537D01*
X127932926Y-101310824D01*
X127908193Y-101173531D01*
X127833616Y-101113978D01*
X127718147Y-101023389D01*
X127701334Y-100973108D01*
X127649799Y-100846785D01*
X127553167Y-100715797D01*
X127462728Y-100580338D01*
X127505212Y-100513650D01*
X127510834Y-100511575D01*
X127602134Y-100406497D01*
X127616667Y-100327037D01*
X127675083Y-100172556D01*
X127817606Y-99992334D01*
X127836378Y-99974259D01*
X128028782Y-99758775D01*
X128177219Y-99536167D01*
X128290667Y-99372325D01*
X128394474Y-99303340D01*
X128395229Y-99303334D01*
X128496158Y-99248382D01*
X128684747Y-99101288D01*
X128927969Y-98888688D01*
X129051284Y-98774167D01*
X129394655Y-98455046D01*
X129780192Y-98105553D01*
X130130378Y-97795869D01*
X130164084Y-97766668D01*
X130493170Y-97450490D01*
X130770372Y-97124808D01*
X130931703Y-96877668D01*
X131084160Y-96623002D01*
X131214474Y-96503066D01*
X131320199Y-96485695D01*
X131508801Y-96448682D01*
X131592642Y-96386379D01*
X131653525Y-96352033D01*
X131762278Y-96361552D01*
X131762278Y-96361552D01*
G37*
X131762278Y-96361552D02*
X131941131Y-96423433D01*
X132212310Y-96546174D01*
X132598045Y-96738270D01*
X132844699Y-96864989D01*
X133258728Y-97085538D01*
X133627668Y-97294208D01*
X133920779Y-97472697D01*
X134107320Y-97602704D01*
X134149258Y-97641638D01*
X134227734Y-97775469D01*
X134275047Y-97972769D01*
X134297762Y-98272774D01*
X134302517Y-98557503D01*
X134295660Y-98893819D01*
X134274938Y-99161113D01*
X134244222Y-99317645D01*
X134229941Y-99339935D01*
X134121824Y-99330027D01*
X133903447Y-99261729D01*
X133617683Y-99148929D01*
X133551652Y-99120237D01*
X133230235Y-98968249D01*
X133033992Y-98843934D01*
X132927792Y-98720416D01*
X132885755Y-98610813D01*
X132736765Y-98362882D01*
X132465535Y-98154662D01*
X132108317Y-97941643D01*
X131242531Y-98770655D01*
X130876889Y-99121079D01*
X130505862Y-99477199D01*
X130170783Y-99799313D01*
X129912981Y-100047718D01*
X129894742Y-100065334D01*
X129412739Y-100531000D01*
X129357377Y-101631667D01*
X129323438Y-102163520D01*
X129274734Y-102745243D01*
X129218409Y-103297974D01*
X129173859Y-103657672D01*
X129045703Y-104583010D01*
X129553957Y-105091263D01*
X130062210Y-105599517D01*
X130236438Y-105393592D01*
X130410667Y-105187667D01*
X130580000Y-105387547D01*
X130703706Y-105598078D01*
X130749334Y-105789713D01*
X130791536Y-105947912D01*
X130866686Y-105992000D01*
X130972537Y-106062370D01*
X131094328Y-106238177D01*
X131130158Y-106309500D01*
X131248912Y-106502868D01*
X131443546Y-106754001D01*
X131684163Y-107031293D01*
X131940868Y-107303136D01*
X132183765Y-107537923D01*
X132382960Y-107704046D01*
X132508556Y-107769899D01*
X132511559Y-107770000D01*
X132646003Y-107713218D01*
X132864847Y-107561662D01*
X133136066Y-107343518D01*
X133427637Y-107086973D01*
X133707534Y-106820212D01*
X133943734Y-106571421D01*
X134104212Y-106368787D01*
X134105057Y-106367499D01*
X134267354Y-106191870D01*
X134406082Y-106175575D01*
X134507196Y-106308882D01*
X134556654Y-106582059D01*
X134559334Y-106682306D01*
X134619265Y-106961170D01*
X134801764Y-107124943D01*
X135103619Y-107177334D01*
X135301920Y-107194905D01*
X135402786Y-107238216D01*
X135406000Y-107248580D01*
X135387618Y-107290796D01*
X135323860Y-107369691D01*
X135201808Y-107497946D01*
X135008543Y-107688245D01*
X134731148Y-107953270D01*
X134356704Y-108305705D01*
X133872293Y-108758233D01*
X133794655Y-108830585D01*
X133247000Y-109340836D01*
X133289334Y-109973585D01*
X133331667Y-110606334D01*
X133910675Y-110631540D01*
X134223987Y-110652774D01*
X134394893Y-110687000D01*
X134450219Y-110741387D01*
X134444598Y-110774236D01*
X134459169Y-110898557D01*
X134500590Y-110928947D01*
X134552153Y-110990703D01*
X134485250Y-111082584D01*
X134382222Y-111152768D01*
X134330028Y-111093167D01*
X134225993Y-110989064D01*
X134070986Y-110995827D01*
X133916342Y-111089385D01*
X133813395Y-111245669D01*
X133797334Y-111342934D01*
X133844871Y-111473509D01*
X133960045Y-111473726D01*
X134098577Y-111347300D01*
X134208670Y-111243285D01*
X134263844Y-111276860D01*
X134250071Y-111421293D01*
X134203833Y-111547892D01*
X134091117Y-111740780D01*
X133928774Y-111952868D01*
X133758175Y-112136879D01*
X133620690Y-112245538D01*
X133583001Y-112257334D01*
X133557550Y-112187652D01*
X133578101Y-112045667D01*
X133631226Y-111834000D01*
X132973447Y-111839951D01*
X132600635Y-111852280D01*
X132325264Y-111877786D01*
X132160271Y-111910571D01*
X132118593Y-111944735D01*
X132213165Y-111974380D01*
X132456926Y-111993608D01*
X132628170Y-111997383D01*
X132944085Y-112009662D01*
X133189474Y-112036766D01*
X133319352Y-112073307D01*
X133327409Y-112081111D01*
X133299920Y-112154842D01*
X133139207Y-112207971D01*
X132880652Y-112235560D01*
X132559640Y-112232672D01*
X132363437Y-112215631D01*
X131870322Y-112158399D01*
X130685090Y-113118033D01*
X130194868Y-113515148D01*
X129648098Y-113958404D01*
X129099984Y-114403026D01*
X128605732Y-114804241D01*
X128431841Y-114945500D01*
X128068857Y-115237122D01*
X127750748Y-115486413D01*
X127500906Y-115675538D01*
X127342724Y-115786662D01*
X127299745Y-115808603D01*
X127189851Y-115775447D01*
X126982666Y-115696489D01*
X126854667Y-115644000D01*
X126527740Y-115544885D01*
X126159429Y-115485953D01*
X126034164Y-115479397D01*
X125724089Y-115460424D01*
X125574553Y-115407528D01*
X125578974Y-115314075D01*
X125730732Y-115173455D01*
X125899150Y-115043639D01*
X126151845Y-114843933D01*
X126441898Y-114611503D01*
X126526240Y-114543334D01*
X126768284Y-114347350D01*
X127112139Y-114069022D01*
X127527964Y-113732497D01*
X127985917Y-113361927D01*
X128456157Y-112981462D01*
X128565411Y-112893073D01*
X129049253Y-112500606D01*
X129541513Y-112099478D01*
X130008449Y-111717315D01*
X130416321Y-111381742D01*
X130731388Y-111120384D01*
X130770500Y-111087661D01*
X131511334Y-110466843D01*
X131508982Y-109943922D01*
X131498651Y-109640308D01*
X131456898Y-109443153D01*
X131362483Y-109289889D01*
X131245257Y-109167000D01*
X131015710Y-108926073D01*
X130796630Y-108669433D01*
X130771893Y-108637834D01*
X130610258Y-108463897D01*
X130468100Y-108368743D01*
X130437954Y-108362667D01*
X130354916Y-108323805D01*
X130361966Y-108288304D01*
X130328435Y-108197498D01*
X130196182Y-108031575D01*
X129998330Y-107830813D01*
X129716505Y-107551763D01*
X129428507Y-107242681D01*
X129269836Y-107058510D01*
X129015282Y-106794114D01*
X128807255Y-106675257D01*
X128759835Y-106669334D01*
X128560246Y-106616053D01*
X128463334Y-106542334D01*
X128285602Y-106450991D01*
X127954071Y-106415727D01*
X127905612Y-106415334D01*
X127646424Y-106402880D01*
X127468154Y-106348709D01*
X127358668Y-106227611D01*
X127342248Y-106161334D01*
X127616667Y-106161334D01*
X127647645Y-106231024D01*
X127673111Y-106217778D01*
X127683244Y-106117298D01*
X127673111Y-106104889D01*
X127622777Y-106116511D01*
X127616667Y-106161334D01*
X127342248Y-106161334D01*
X127305836Y-106014372D01*
X127303146Y-105907334D01*
X127447334Y-105907334D01*
X127478312Y-105977024D01*
X127503778Y-105963778D01*
X127513911Y-105863298D01*
X127503778Y-105850889D01*
X127453444Y-105862511D01*
X127447334Y-105907334D01*
X127303146Y-105907334D01*
X127297527Y-105683779D01*
X127301230Y-105611000D01*
X127532000Y-105611000D01*
X127574334Y-105653334D01*
X127616667Y-105611000D01*
X127574334Y-105568667D01*
X127532000Y-105611000D01*
X127301230Y-105611000D01*
X127309849Y-105441667D01*
X127447334Y-105441667D01*
X127489667Y-105484000D01*
X127532000Y-105441667D01*
X127489667Y-105399334D01*
X127447334Y-105441667D01*
X127309849Y-105441667D01*
X127321609Y-105210622D01*
X127322129Y-105202702D01*
X127350571Y-104833175D01*
X127381931Y-104525904D01*
X127411693Y-104320891D01*
X127428506Y-104260634D01*
X127457564Y-104201465D01*
X127482827Y-104109536D01*
X127508522Y-103956109D01*
X127538876Y-103712449D01*
X127578116Y-103349819D01*
X127614558Y-102995859D01*
X127658105Y-102630047D01*
X127706051Y-102324658D01*
X127751274Y-102121129D01*
X127774614Y-102064526D01*
X127830531Y-101929036D01*
X127886406Y-101694065D01*
X127907602Y-101567537D01*
X127932926Y-101310824D01*
X127908193Y-101173531D01*
X127833616Y-101113978D01*
X127718147Y-101023389D01*
X127701334Y-100973108D01*
X127649799Y-100846785D01*
X127553167Y-100715797D01*
X127462728Y-100580338D01*
X127505212Y-100513650D01*
X127510834Y-100511575D01*
X127602134Y-100406497D01*
X127616667Y-100327037D01*
X127675083Y-100172556D01*
X127817606Y-99992334D01*
X127836378Y-99974259D01*
X128028782Y-99758775D01*
X128177219Y-99536167D01*
X128290667Y-99372325D01*
X128394474Y-99303340D01*
X128395229Y-99303334D01*
X128496158Y-99248382D01*
X128684747Y-99101288D01*
X128927969Y-98888688D01*
X129051284Y-98774167D01*
X129394655Y-98455046D01*
X129780192Y-98105553D01*
X130130378Y-97795869D01*
X130164084Y-97766668D01*
X130493170Y-97450490D01*
X130770372Y-97124808D01*
X130931703Y-96877668D01*
X131084160Y-96623002D01*
X131214474Y-96503066D01*
X131320199Y-96485695D01*
X131508801Y-96448682D01*
X131592642Y-96386379D01*
X131653525Y-96352033D01*
X131762278Y-96361552D01*
G36*
X138998496Y-107022859D02*
X139279500Y-107048649D01*
X139569619Y-107086497D01*
X139783015Y-107127924D01*
X139873928Y-107164026D01*
X139874070Y-107164345D01*
X139912393Y-107266945D01*
X139994148Y-107491673D01*
X140105894Y-107801164D01*
X140234189Y-108158050D01*
X140365592Y-108524962D01*
X140486661Y-108864535D01*
X140555970Y-109060034D01*
X140662742Y-109297878D01*
X140772203Y-109440591D01*
X140820434Y-109462201D01*
X140894966Y-109491082D01*
X140850028Y-109556505D01*
X140818989Y-109662723D01*
X140866476Y-109861756D01*
X140994488Y-110170339D01*
X141160603Y-110541953D01*
X141348971Y-110975813D01*
X141548368Y-111444624D01*
X141747571Y-111921089D01*
X141935357Y-112377913D01*
X142100502Y-112787800D01*
X142231785Y-113123454D01*
X142317982Y-113357578D01*
X142347899Y-113461999D01*
X142285701Y-113578547D01*
X142131807Y-113735905D01*
X142076630Y-113781334D01*
X141876712Y-113951027D01*
X141616333Y-114189465D01*
X141361523Y-114435550D01*
X141142440Y-114637524D01*
X140968838Y-114767762D01*
X140873154Y-114802561D01*
X140866822Y-114797045D01*
X140832756Y-114728164D01*
X140763795Y-114573104D01*
X140655550Y-114321462D01*
X140503631Y-113962836D01*
X140303648Y-113486826D01*
X140051211Y-112883030D01*
X139741930Y-112141045D01*
X139464766Y-111474970D01*
X139311402Y-111089331D01*
X139191142Y-110754100D01*
X139115178Y-110503012D01*
X139094702Y-110369806D01*
X139096219Y-110364053D01*
X139076529Y-110221563D01*
X138988036Y-110094232D01*
X138845274Y-109931656D01*
X138672275Y-109707858D01*
X138500776Y-109467778D01*
X138362517Y-109256352D01*
X138289236Y-109118520D01*
X138284667Y-109098346D01*
X138251609Y-108990237D01*
X138165576Y-108778186D01*
X138063184Y-108547742D01*
X137934226Y-108230564D01*
X137835132Y-107920114D01*
X137798036Y-107748834D01*
X137778640Y-107541909D01*
X137820478Y-107452659D01*
X137957144Y-107431694D01*
X138014007Y-107431334D01*
X138322345Y-107397425D01*
X138563755Y-107308172D01*
X138695539Y-107182287D01*
X138708000Y-107127232D01*
X138728438Y-107055155D01*
X138813431Y-107021992D01*
X138998496Y-107022859D01*
X138998496Y-107022859D01*
G37*
X138998496Y-107022859D02*
X139279500Y-107048649D01*
X139569619Y-107086497D01*
X139783015Y-107127924D01*
X139873928Y-107164026D01*
X139874070Y-107164345D01*
X139912393Y-107266945D01*
X139994148Y-107491673D01*
X140105894Y-107801164D01*
X140234189Y-108158050D01*
X140365592Y-108524962D01*
X140486661Y-108864535D01*
X140555970Y-109060034D01*
X140662742Y-109297878D01*
X140772203Y-109440591D01*
X140820434Y-109462201D01*
X140894966Y-109491082D01*
X140850028Y-109556505D01*
X140818989Y-109662723D01*
X140866476Y-109861756D01*
X140994488Y-110170339D01*
X141160603Y-110541953D01*
X141348971Y-110975813D01*
X141548368Y-111444624D01*
X141747571Y-111921089D01*
X141935357Y-112377913D01*
X142100502Y-112787800D01*
X142231785Y-113123454D01*
X142317982Y-113357578D01*
X142347899Y-113461999D01*
X142285701Y-113578547D01*
X142131807Y-113735905D01*
X142076630Y-113781334D01*
X141876712Y-113951027D01*
X141616333Y-114189465D01*
X141361523Y-114435550D01*
X141142440Y-114637524D01*
X140968838Y-114767762D01*
X140873154Y-114802561D01*
X140866822Y-114797045D01*
X140832756Y-114728164D01*
X140763795Y-114573104D01*
X140655550Y-114321462D01*
X140503631Y-113962836D01*
X140303648Y-113486826D01*
X140051211Y-112883030D01*
X139741930Y-112141045D01*
X139464766Y-111474970D01*
X139311402Y-111089331D01*
X139191142Y-110754100D01*
X139115178Y-110503012D01*
X139094702Y-110369806D01*
X139096219Y-110364053D01*
X139076529Y-110221563D01*
X138988036Y-110094232D01*
X138845274Y-109931656D01*
X138672275Y-109707858D01*
X138500776Y-109467778D01*
X138362517Y-109256352D01*
X138289236Y-109118520D01*
X138284667Y-109098346D01*
X138251609Y-108990237D01*
X138165576Y-108778186D01*
X138063184Y-108547742D01*
X137934226Y-108230564D01*
X137835132Y-107920114D01*
X137798036Y-107748834D01*
X137778640Y-107541909D01*
X137820478Y-107452659D01*
X137957144Y-107431694D01*
X138014007Y-107431334D01*
X138322345Y-107397425D01*
X138563755Y-107308172D01*
X138695539Y-107182287D01*
X138708000Y-107127232D01*
X138728438Y-107055155D01*
X138813431Y-107021992D01*
X138998496Y-107022859D01*
G36*
X148109414Y-112343650D02*
X148234444Y-112454301D01*
X148413096Y-112670133D01*
X148501573Y-112784272D01*
X148751628Y-113150357D01*
X148870956Y-113438760D01*
X148865357Y-113671968D01*
X148772872Y-113836273D01*
X148617906Y-113927327D01*
X148477660Y-113950667D01*
X148279419Y-114020279D01*
X148033989Y-114213213D01*
X147958860Y-114289194D01*
X147765407Y-114477364D01*
X147607522Y-114600338D01*
X147543620Y-114627861D01*
X147444846Y-114569465D01*
X147267144Y-114414016D01*
X147043736Y-114191332D01*
X146970803Y-114113752D01*
X146494701Y-113599504D01*
X146664070Y-113361648D01*
X146861087Y-113131612D01*
X147169574Y-112843583D01*
X147574590Y-112507146D01*
X147731548Y-112413875D01*
X147889509Y-112343834D01*
X148005329Y-112314666D01*
X148109414Y-112343650D01*
X148109414Y-112343650D01*
G37*
X148109414Y-112343650D02*
X148234444Y-112454301D01*
X148413096Y-112670133D01*
X148501573Y-112784272D01*
X148751628Y-113150357D01*
X148870956Y-113438760D01*
X148865357Y-113671968D01*
X148772872Y-113836273D01*
X148617906Y-113927327D01*
X148477660Y-113950667D01*
X148279419Y-114020279D01*
X148033989Y-114213213D01*
X147958860Y-114289194D01*
X147765407Y-114477364D01*
X147607522Y-114600338D01*
X147543620Y-114627861D01*
X147444846Y-114569465D01*
X147267144Y-114414016D01*
X147043736Y-114191332D01*
X146970803Y-114113752D01*
X146494701Y-113599504D01*
X146664070Y-113361648D01*
X146861087Y-113131612D01*
X147169574Y-112843583D01*
X147574590Y-112507146D01*
X147731548Y-112413875D01*
X147889509Y-112343834D01*
X148005329Y-112314666D01*
X148109414Y-112343650D01*
G36*
X133514230Y-112478537D02*
X133501000Y-112511334D01*
X133424918Y-112592104D01*
X133411337Y-112596000D01*
X133374971Y-112530494D01*
X133374000Y-112511334D01*
X133439088Y-112429920D01*
X133463664Y-112426667D01*
X133514230Y-112478537D01*
X133514230Y-112478537D01*
G37*
X133514230Y-112478537D02*
X133501000Y-112511334D01*
X133424918Y-112592104D01*
X133411337Y-112596000D01*
X133374971Y-112530494D01*
X133374000Y-112511334D01*
X133439088Y-112429920D01*
X133463664Y-112426667D01*
X133514230Y-112478537D01*
G36*
X135152000Y-111961000D02*
X135109667Y-112003334D01*
X135067334Y-111961000D01*
X135109667Y-111918667D01*
X135152000Y-111961000D01*
X135152000Y-111961000D01*
G37*
X135152000Y-111961000D02*
X135109667Y-112003334D01*
X135067334Y-111961000D01*
X135109667Y-111918667D01*
X135152000Y-111961000D01*
G36*
X144762412Y-102812259D02*
X144958121Y-102911257D01*
X145220481Y-103050993D01*
X145245586Y-103064651D01*
X145520135Y-103200471D01*
X145908660Y-103374301D01*
X146365841Y-103566711D01*
X146846361Y-103758272D01*
X147005334Y-103819126D01*
X147470234Y-103996796D01*
X147915283Y-104170058D01*
X148299564Y-104322762D01*
X148582159Y-104438761D01*
X148656334Y-104470723D01*
X148981110Y-104583813D01*
X149319739Y-104656315D01*
X149455785Y-104668748D01*
X149669689Y-104686165D01*
X149826095Y-104744795D01*
X149976604Y-104876843D01*
X150172818Y-105114509D01*
X150175452Y-105117868D01*
X150373812Y-105344580D01*
X150553532Y-105505155D01*
X150667167Y-105562368D01*
X150793126Y-105582301D01*
X150815334Y-105599355D01*
X150785353Y-105686480D01*
X150705827Y-105890114D01*
X150592381Y-106170479D01*
X150561334Y-106246000D01*
X150440921Y-106549343D01*
X150351388Y-106796504D01*
X150308829Y-106942472D01*
X150307366Y-106956145D01*
X150272152Y-107075922D01*
X150180028Y-107297337D01*
X150057735Y-107558334D01*
X149947853Y-107793783D01*
X149787783Y-108152572D01*
X149591973Y-108601531D01*
X149374870Y-109107486D01*
X149150923Y-109637267D01*
X149117385Y-109717334D01*
X148911202Y-110208557D01*
X148726968Y-110644378D01*
X148574646Y-111001485D01*
X148464198Y-111256565D01*
X148405585Y-111386308D01*
X148399322Y-111397640D01*
X148374113Y-111344574D01*
X148348115Y-111176103D01*
X148344805Y-111143640D01*
X148317667Y-110860334D01*
X147696257Y-110835305D01*
X147377704Y-110818024D01*
X147197613Y-110792055D01*
X147125114Y-110748109D01*
X147129336Y-110676894D01*
X147133575Y-110665971D01*
X147204478Y-110470770D01*
X147256290Y-110310000D01*
X147324907Y-110132486D01*
X147446825Y-109859725D01*
X147597309Y-109546747D01*
X147617835Y-109505667D01*
X147813901Y-109089230D01*
X147999399Y-108649012D01*
X148160101Y-108223871D01*
X148281775Y-107852665D01*
X148350193Y-107574251D01*
X148360000Y-107478988D01*
X148407821Y-107281733D01*
X148477891Y-107184893D01*
X148595828Y-107036914D01*
X148694415Y-106848932D01*
X148745563Y-106665110D01*
X148711834Y-106493290D01*
X148616272Y-106311198D01*
X148555022Y-106220987D01*
X148472736Y-106135168D01*
X148353819Y-106046576D01*
X148182677Y-105948045D01*
X147943716Y-105832413D01*
X147621340Y-105692513D01*
X147199956Y-105521182D01*
X146663969Y-105311254D01*
X145997785Y-105055566D01*
X145333167Y-104802839D01*
X144634667Y-104537844D01*
X144634667Y-103656255D01*
X144638191Y-103292956D01*
X144647715Y-103002410D01*
X144661669Y-102819742D01*
X144674086Y-102774667D01*
X144762412Y-102812259D01*
X144762412Y-102812259D01*
G37*
X144762412Y-102812259D02*
X144958121Y-102911257D01*
X145220481Y-103050993D01*
X145245586Y-103064651D01*
X145520135Y-103200471D01*
X145908660Y-103374301D01*
X146365841Y-103566711D01*
X146846361Y-103758272D01*
X147005334Y-103819126D01*
X147470234Y-103996796D01*
X147915283Y-104170058D01*
X148299564Y-104322762D01*
X148582159Y-104438761D01*
X148656334Y-104470723D01*
X148981110Y-104583813D01*
X149319739Y-104656315D01*
X149455785Y-104668748D01*
X149669689Y-104686165D01*
X149826095Y-104744795D01*
X149976604Y-104876843D01*
X150172818Y-105114509D01*
X150175452Y-105117868D01*
X150373812Y-105344580D01*
X150553532Y-105505155D01*
X150667167Y-105562368D01*
X150793126Y-105582301D01*
X150815334Y-105599355D01*
X150785353Y-105686480D01*
X150705827Y-105890114D01*
X150592381Y-106170479D01*
X150561334Y-106246000D01*
X150440921Y-106549343D01*
X150351388Y-106796504D01*
X150308829Y-106942472D01*
X150307366Y-106956145D01*
X150272152Y-107075922D01*
X150180028Y-107297337D01*
X150057735Y-107558334D01*
X149947853Y-107793783D01*
X149787783Y-108152572D01*
X149591973Y-108601531D01*
X149374870Y-109107486D01*
X149150923Y-109637267D01*
X149117385Y-109717334D01*
X148911202Y-110208557D01*
X148726968Y-110644378D01*
X148574646Y-111001485D01*
X148464198Y-111256565D01*
X148405585Y-111386308D01*
X148399322Y-111397640D01*
X148374113Y-111344574D01*
X148348115Y-111176103D01*
X148344805Y-111143640D01*
X148317667Y-110860334D01*
X147696257Y-110835305D01*
X147377704Y-110818024D01*
X147197613Y-110792055D01*
X147125114Y-110748109D01*
X147129336Y-110676894D01*
X147133575Y-110665971D01*
X147204478Y-110470770D01*
X147256290Y-110310000D01*
X147324907Y-110132486D01*
X147446825Y-109859725D01*
X147597309Y-109546747D01*
X147617835Y-109505667D01*
X147813901Y-109089230D01*
X147999399Y-108649012D01*
X148160101Y-108223871D01*
X148281775Y-107852665D01*
X148350193Y-107574251D01*
X148360000Y-107478988D01*
X148407821Y-107281733D01*
X148477891Y-107184893D01*
X148595828Y-107036914D01*
X148694415Y-106848932D01*
X148745563Y-106665110D01*
X148711834Y-106493290D01*
X148616272Y-106311198D01*
X148555022Y-106220987D01*
X148472736Y-106135168D01*
X148353819Y-106046576D01*
X148182677Y-105948045D01*
X147943716Y-105832413D01*
X147621340Y-105692513D01*
X147199956Y-105521182D01*
X146663969Y-105311254D01*
X145997785Y-105055566D01*
X145333167Y-104802839D01*
X144634667Y-104537844D01*
X144634667Y-103656255D01*
X144638191Y-103292956D01*
X144647715Y-103002410D01*
X144661669Y-102819742D01*
X144674086Y-102774667D01*
X144762412Y-102812259D01*
G36*
X134023111Y-111100222D02*
X134033244Y-111200702D01*
X134023111Y-111213111D01*
X133972777Y-111201489D01*
X133966667Y-111156667D01*
X133997645Y-111086977D01*
X134023111Y-111100222D01*
X134023111Y-111100222D01*
G37*
X134023111Y-111100222D02*
X134033244Y-111200702D01*
X134023111Y-111213111D01*
X133972777Y-111201489D01*
X133966667Y-111156667D01*
X133997645Y-111086977D01*
X134023111Y-111100222D01*
G36*
X135630896Y-111039203D02*
X135617667Y-111072000D01*
X135541585Y-111152771D01*
X135528003Y-111156667D01*
X135491638Y-111091161D01*
X135490667Y-111072000D01*
X135555755Y-110990587D01*
X135580330Y-110987334D01*
X135630896Y-111039203D01*
X135630896Y-111039203D01*
G37*
X135630896Y-111039203D02*
X135617667Y-111072000D01*
X135541585Y-111152771D01*
X135528003Y-111156667D01*
X135491638Y-111091161D01*
X135490667Y-111072000D01*
X135555755Y-110990587D01*
X135580330Y-110987334D01*
X135630896Y-111039203D01*
G36*
X127166504Y-109108792D02*
X127176597Y-109241116D01*
X127159820Y-109271070D01*
X127121338Y-109245819D01*
X127115351Y-109159945D01*
X127136028Y-109069602D01*
X127166504Y-109108792D01*
X127166504Y-109108792D01*
G37*
X127166504Y-109108792D02*
X127176597Y-109241116D01*
X127159820Y-109271070D01*
X127121338Y-109245819D01*
X127115351Y-109159945D01*
X127136028Y-109069602D01*
X127166504Y-109108792D01*
G36*
X124963778Y-108898889D02*
X124973911Y-108999369D01*
X124963778Y-109011778D01*
X124913444Y-109000156D01*
X124907334Y-108955334D01*
X124938312Y-108885643D01*
X124963778Y-108898889D01*
X124963778Y-108898889D01*
G37*
X124963778Y-108898889D02*
X124973911Y-108999369D01*
X124963778Y-109011778D01*
X124913444Y-109000156D01*
X124907334Y-108955334D01*
X124938312Y-108885643D01*
X124963778Y-108898889D01*
G36*
X132302140Y-98907590D02*
X132422649Y-98956415D01*
X132594898Y-99028047D01*
X132845200Y-99113485D01*
X132926562Y-99138330D01*
X133198730Y-99252344D01*
X133429145Y-99403767D01*
X133470487Y-99442915D01*
X133662783Y-99584739D01*
X133854425Y-99642000D01*
X134008983Y-99685338D01*
X134051334Y-99759942D01*
X134119628Y-99890647D01*
X134178334Y-99926618D01*
X134255558Y-100010316D01*
X134295549Y-100206036D01*
X134305334Y-100486010D01*
X134293023Y-100754711D01*
X134261010Y-100939695D01*
X134223613Y-100996667D01*
X134116667Y-100944863D01*
X133937392Y-100813271D01*
X133833742Y-100726108D01*
X133608550Y-100555729D01*
X133311635Y-100384295D01*
X132913164Y-100196454D01*
X132383303Y-99976856D01*
X132358000Y-99966817D01*
X132257564Y-99940335D01*
X132154479Y-99958083D01*
X132022311Y-100037583D01*
X131834628Y-100196354D01*
X131564999Y-100451916D01*
X131434987Y-100578608D01*
X130723641Y-101274261D01*
X130689597Y-102400046D01*
X130677260Y-102856929D01*
X130674929Y-103173671D01*
X130685939Y-103379333D01*
X130713622Y-103502975D01*
X130761315Y-103573659D01*
X130829443Y-103618895D01*
X130966227Y-103732990D01*
X131003334Y-103818351D01*
X131060032Y-103929766D01*
X131207579Y-104113093D01*
X131382840Y-104297201D01*
X131762346Y-104669658D01*
X131954340Y-104494233D01*
X132100582Y-104375507D01*
X132326996Y-104207702D01*
X132596001Y-104016734D01*
X132870015Y-103828517D01*
X133111456Y-103668966D01*
X133282743Y-103563996D01*
X133342995Y-103536667D01*
X133425177Y-103486315D01*
X133596187Y-103355229D01*
X133787593Y-103198000D01*
X134006777Y-103020493D01*
X134174758Y-102897877D01*
X134247282Y-102859334D01*
X134286533Y-102933542D01*
X134305106Y-103114692D01*
X134305334Y-103139519D01*
X134283961Y-103309586D01*
X134201053Y-103466954D01*
X134028426Y-103652915D01*
X133839667Y-103821731D01*
X133611023Y-104034820D01*
X133444897Y-104219565D01*
X133374505Y-104338660D01*
X133374000Y-104344743D01*
X133303236Y-104455575D01*
X133129789Y-104568668D01*
X133098834Y-104582580D01*
X132859941Y-104715599D01*
X132599226Y-104905127D01*
X132527334Y-104966763D01*
X132231000Y-105234095D01*
X132430069Y-105400724D01*
X132566955Y-105504425D01*
X132670488Y-105515900D01*
X132812543Y-105431492D01*
X132886168Y-105377510D01*
X133106847Y-105198113D01*
X133358637Y-104970876D01*
X133449099Y-104883218D01*
X133680677Y-104669349D01*
X133908699Y-104484322D01*
X133986971Y-104429546D01*
X134134381Y-104347657D01*
X134224526Y-104353608D01*
X134277835Y-104471948D01*
X134314738Y-104727225D01*
X134325926Y-104836840D01*
X134332771Y-105043511D01*
X134278259Y-105180569D01*
X134127285Y-105309679D01*
X134014217Y-105384385D01*
X133730798Y-105560232D01*
X133445291Y-105727973D01*
X133374000Y-105767789D01*
X133109553Y-105932403D01*
X132833409Y-106132413D01*
X132783209Y-106172745D01*
X132586909Y-106319640D01*
X132437395Y-106405456D01*
X132402209Y-106414651D01*
X132322410Y-106353909D01*
X132148816Y-106184570D01*
X131899305Y-105925322D01*
X131591757Y-105594858D01*
X131244052Y-105211868D01*
X131134495Y-105089425D01*
X130737660Y-104642504D01*
X130438758Y-104298403D01*
X130221906Y-104034563D01*
X130071221Y-103828426D01*
X129970821Y-103657431D01*
X129904824Y-103499022D01*
X129857345Y-103330638D01*
X129838459Y-103248607D01*
X129780106Y-102910222D01*
X129730269Y-102484863D01*
X129698267Y-102054884D01*
X129695043Y-101981349D01*
X129683682Y-101621064D01*
X129689808Y-101384966D01*
X129723853Y-101228057D01*
X129796250Y-101105337D01*
X129917431Y-100971806D01*
X129932747Y-100956010D01*
X130096379Y-100781580D01*
X130337318Y-100517524D01*
X130621332Y-100201624D01*
X130799200Y-100001401D01*
X131680667Y-100001401D01*
X131731650Y-100027207D01*
X131807667Y-99980667D01*
X131914390Y-99853181D01*
X131934667Y-99790600D01*
X131883684Y-99764793D01*
X131807667Y-99811334D01*
X131700944Y-99938819D01*
X131680667Y-100001401D01*
X130799200Y-100001401D01*
X130876334Y-99914574D01*
X131146247Y-99616858D01*
X131381738Y-99371847D01*
X131557632Y-99204751D01*
X131648752Y-99140778D01*
X131649133Y-99140746D01*
X131778978Y-99075778D01*
X131850000Y-99007000D01*
X132045056Y-98893464D01*
X132302140Y-98907590D01*
X132302140Y-98907590D01*
G37*
X132302140Y-98907590D02*
X132422649Y-98956415D01*
X132594898Y-99028047D01*
X132845200Y-99113485D01*
X132926562Y-99138330D01*
X133198730Y-99252344D01*
X133429145Y-99403767D01*
X133470487Y-99442915D01*
X133662783Y-99584739D01*
X133854425Y-99642000D01*
X134008983Y-99685338D01*
X134051334Y-99759942D01*
X134119628Y-99890647D01*
X134178334Y-99926618D01*
X134255558Y-100010316D01*
X134295549Y-100206036D01*
X134305334Y-100486010D01*
X134293023Y-100754711D01*
X134261010Y-100939695D01*
X134223613Y-100996667D01*
X134116667Y-100944863D01*
X133937392Y-100813271D01*
X133833742Y-100726108D01*
X133608550Y-100555729D01*
X133311635Y-100384295D01*
X132913164Y-100196454D01*
X132383303Y-99976856D01*
X132358000Y-99966817D01*
X132257564Y-99940335D01*
X132154479Y-99958083D01*
X132022311Y-100037583D01*
X131834628Y-100196354D01*
X131564999Y-100451916D01*
X131434987Y-100578608D01*
X130723641Y-101274261D01*
X130689597Y-102400046D01*
X130677260Y-102856929D01*
X130674929Y-103173671D01*
X130685939Y-103379333D01*
X130713622Y-103502975D01*
X130761315Y-103573659D01*
X130829443Y-103618895D01*
X130966227Y-103732990D01*
X131003334Y-103818351D01*
X131060032Y-103929766D01*
X131207579Y-104113093D01*
X131382840Y-104297201D01*
X131762346Y-104669658D01*
X131954340Y-104494233D01*
X132100582Y-104375507D01*
X132326996Y-104207702D01*
X132596001Y-104016734D01*
X132870015Y-103828517D01*
X133111456Y-103668966D01*
X133282743Y-103563996D01*
X133342995Y-103536667D01*
X133425177Y-103486315D01*
X133596187Y-103355229D01*
X133787593Y-103198000D01*
X134006777Y-103020493D01*
X134174758Y-102897877D01*
X134247282Y-102859334D01*
X134286533Y-102933542D01*
X134305106Y-103114692D01*
X134305334Y-103139519D01*
X134283961Y-103309586D01*
X134201053Y-103466954D01*
X134028426Y-103652915D01*
X133839667Y-103821731D01*
X133611023Y-104034820D01*
X133444897Y-104219565D01*
X133374505Y-104338660D01*
X133374000Y-104344743D01*
X133303236Y-104455575D01*
X133129789Y-104568668D01*
X133098834Y-104582580D01*
X132859941Y-104715599D01*
X132599226Y-104905127D01*
X132527334Y-104966763D01*
X132231000Y-105234095D01*
X132430069Y-105400724D01*
X132566955Y-105504425D01*
X132670488Y-105515900D01*
X132812543Y-105431492D01*
X132886168Y-105377510D01*
X133106847Y-105198113D01*
X133358637Y-104970876D01*
X133449099Y-104883218D01*
X133680677Y-104669349D01*
X133908699Y-104484322D01*
X133986971Y-104429546D01*
X134134381Y-104347657D01*
X134224526Y-104353608D01*
X134277835Y-104471948D01*
X134314738Y-104727225D01*
X134325926Y-104836840D01*
X134332771Y-105043511D01*
X134278259Y-105180569D01*
X134127285Y-105309679D01*
X134014217Y-105384385D01*
X133730798Y-105560232D01*
X133445291Y-105727973D01*
X133374000Y-105767789D01*
X133109553Y-105932403D01*
X132833409Y-106132413D01*
X132783209Y-106172745D01*
X132586909Y-106319640D01*
X132437395Y-106405456D01*
X132402209Y-106414651D01*
X132322410Y-106353909D01*
X132148816Y-106184570D01*
X131899305Y-105925322D01*
X131591757Y-105594858D01*
X131244052Y-105211868D01*
X131134495Y-105089425D01*
X130737660Y-104642504D01*
X130438758Y-104298403D01*
X130221906Y-104034563D01*
X130071221Y-103828426D01*
X129970821Y-103657431D01*
X129904824Y-103499022D01*
X129857345Y-103330638D01*
X129838459Y-103248607D01*
X129780106Y-102910222D01*
X129730269Y-102484863D01*
X129698267Y-102054884D01*
X129695043Y-101981349D01*
X129683682Y-101621064D01*
X129689808Y-101384966D01*
X129723853Y-101228057D01*
X129796250Y-101105337D01*
X129917431Y-100971806D01*
X129932747Y-100956010D01*
X130096379Y-100781580D01*
X130337318Y-100517524D01*
X130621332Y-100201624D01*
X130799200Y-100001401D01*
X131680667Y-100001401D01*
X131731650Y-100027207D01*
X131807667Y-99980667D01*
X131914390Y-99853181D01*
X131934667Y-99790600D01*
X131883684Y-99764793D01*
X131807667Y-99811334D01*
X131700944Y-99938819D01*
X131680667Y-100001401D01*
X130799200Y-100001401D01*
X130876334Y-99914574D01*
X131146247Y-99616858D01*
X131381738Y-99371847D01*
X131557632Y-99204751D01*
X131648752Y-99140778D01*
X131649133Y-99140746D01*
X131778978Y-99075778D01*
X131850000Y-99007000D01*
X132045056Y-98893464D01*
X132302140Y-98907590D01*
G36*
X140570667Y-106288334D02*
X140528334Y-106330667D01*
X140486000Y-106288334D01*
X140528334Y-106246000D01*
X140570667Y-106288334D01*
X140570667Y-106288334D01*
G37*
X140570667Y-106288334D02*
X140528334Y-106330667D01*
X140486000Y-106288334D01*
X140528334Y-106246000D01*
X140570667Y-106288334D01*
G36*
X136965703Y-105469208D02*
X137101803Y-105566062D01*
X137087708Y-105713314D01*
X136916341Y-105905807D01*
X136908834Y-105912112D01*
X136755882Y-106013350D01*
X136581420Y-106054508D01*
X136333107Y-106041284D01*
X136083334Y-106002021D01*
X135873539Y-105939764D01*
X135780709Y-105824268D01*
X135761209Y-105727192D01*
X135756915Y-105605615D01*
X135803851Y-105533154D01*
X135938599Y-105489737D01*
X136197740Y-105455292D01*
X136271232Y-105447337D01*
X136686487Y-105427914D01*
X136965703Y-105469208D01*
X136965703Y-105469208D01*
G37*
X136965703Y-105469208D02*
X137101803Y-105566062D01*
X137087708Y-105713314D01*
X136916341Y-105905807D01*
X136908834Y-105912112D01*
X136755882Y-106013350D01*
X136581420Y-106054508D01*
X136333107Y-106041284D01*
X136083334Y-106002021D01*
X135873539Y-105939764D01*
X135780709Y-105824268D01*
X135761209Y-105727192D01*
X135756915Y-105605615D01*
X135803851Y-105533154D01*
X135938599Y-105489737D01*
X136197740Y-105455292D01*
X136271232Y-105447337D01*
X136686487Y-105427914D01*
X136965703Y-105469208D01*
G36*
X143009217Y-105453739D02*
X143147319Y-105586386D01*
X143195334Y-105780117D01*
X143151047Y-105929076D01*
X142990320Y-106010266D01*
X142930750Y-106023750D01*
X142644702Y-106054941D01*
X142255334Y-106063942D01*
X141827079Y-106051639D01*
X141424371Y-106018922D01*
X141290334Y-106001152D01*
X141070008Y-105952489D01*
X140972590Y-105872863D01*
X140951667Y-105738000D01*
X140956934Y-105642902D01*
X140993070Y-105581138D01*
X141090574Y-105544836D01*
X141279948Y-105526123D01*
X141591692Y-105517126D01*
X141821280Y-105513542D01*
X142200519Y-105503262D01*
X142525073Y-105485817D01*
X142751817Y-105463994D01*
X142826845Y-105448582D01*
X143009217Y-105453739D01*
X143009217Y-105453739D01*
G37*
X143009217Y-105453739D02*
X143147319Y-105586386D01*
X143195334Y-105780117D01*
X143151047Y-105929076D01*
X142990320Y-106010266D01*
X142930750Y-106023750D01*
X142644702Y-106054941D01*
X142255334Y-106063942D01*
X141827079Y-106051639D01*
X141424371Y-106018922D01*
X141290334Y-106001152D01*
X141070008Y-105952489D01*
X140972590Y-105872863D01*
X140951667Y-105738000D01*
X140956934Y-105642902D01*
X140993070Y-105581138D01*
X141090574Y-105544836D01*
X141279948Y-105526123D01*
X141591692Y-105517126D01*
X141821280Y-105513542D01*
X142200519Y-105503262D01*
X142525073Y-105485817D01*
X142751817Y-105463994D01*
X142826845Y-105448582D01*
X143009217Y-105453739D01*
G36*
X141178401Y-104176449D02*
X141337749Y-104200475D01*
X141621506Y-104218884D01*
X141984778Y-104229423D01*
X142263289Y-104230906D01*
X142643595Y-104234616D01*
X142964161Y-104247836D01*
X143185056Y-104268324D01*
X143261038Y-104286948D01*
X143319890Y-104406506D01*
X143311322Y-104526702D01*
X143207588Y-104678235D01*
X143035959Y-104764566D01*
X142869180Y-104755718D01*
X142827057Y-104726257D01*
X142703428Y-104703414D01*
X142474672Y-104739188D01*
X142359930Y-104770447D01*
X142106067Y-104844232D01*
X141929415Y-104872312D01*
X141760649Y-104852114D01*
X141530443Y-104781066D01*
X141396598Y-104734692D01*
X141153778Y-104637906D01*
X141034036Y-104542885D01*
X140996060Y-104410779D01*
X140994432Y-104356461D01*
X141012098Y-104191283D01*
X141092375Y-104155119D01*
X141178401Y-104176449D01*
X141178401Y-104176449D01*
G37*
X141178401Y-104176449D02*
X141337749Y-104200475D01*
X141621506Y-104218884D01*
X141984778Y-104229423D01*
X142263289Y-104230906D01*
X142643595Y-104234616D01*
X142964161Y-104247836D01*
X143185056Y-104268324D01*
X143261038Y-104286948D01*
X143319890Y-104406506D01*
X143311322Y-104526702D01*
X143207588Y-104678235D01*
X143035959Y-104764566D01*
X142869180Y-104755718D01*
X142827057Y-104726257D01*
X142703428Y-104703414D01*
X142474672Y-104739188D01*
X142359930Y-104770447D01*
X142106067Y-104844232D01*
X141929415Y-104872312D01*
X141760649Y-104852114D01*
X141530443Y-104781066D01*
X141396598Y-104734692D01*
X141153778Y-104637906D01*
X141034036Y-104542885D01*
X140996060Y-104410779D01*
X140994432Y-104356461D01*
X141012098Y-104191283D01*
X141092375Y-104155119D01*
X141178401Y-104176449D01*
G36*
X136358481Y-104057880D02*
X136708039Y-104083023D01*
X136992064Y-104104107D01*
X137169300Y-104118039D01*
X137205167Y-104121380D01*
X137257383Y-104199529D01*
X137268667Y-104294830D01*
X137223496Y-104417048D01*
X137062960Y-104489250D01*
X136951167Y-104510955D01*
X136618433Y-104570787D01*
X136274649Y-104643276D01*
X135981639Y-104714578D01*
X135814645Y-104765441D01*
X135672919Y-104774101D01*
X135634411Y-104752855D01*
X135597125Y-104637530D01*
X135576657Y-104422528D01*
X135575314Y-104348056D01*
X135575295Y-104002334D01*
X136358481Y-104057880D01*
X136358481Y-104057880D01*
G37*
X136358481Y-104057880D02*
X136708039Y-104083023D01*
X136992064Y-104104107D01*
X137169300Y-104118039D01*
X137205167Y-104121380D01*
X137257383Y-104199529D01*
X137268667Y-104294830D01*
X137223496Y-104417048D01*
X137062960Y-104489250D01*
X136951167Y-104510955D01*
X136618433Y-104570787D01*
X136274649Y-104643276D01*
X135981639Y-104714578D01*
X135814645Y-104765441D01*
X135672919Y-104774101D01*
X135634411Y-104752855D01*
X135597125Y-104637530D01*
X135576657Y-104422528D01*
X135575314Y-104348056D01*
X135575295Y-104002334D01*
X136358481Y-104057880D01*
G36*
X151295111Y-104496222D02*
X151283489Y-104546557D01*
X151238667Y-104552667D01*
X151168977Y-104521689D01*
X151182222Y-104496222D01*
X151282702Y-104486089D01*
X151295111Y-104496222D01*
X151295111Y-104496222D01*
G37*
X151295111Y-104496222D02*
X151283489Y-104546557D01*
X151238667Y-104552667D01*
X151168977Y-104521689D01*
X151182222Y-104496222D01*
X151282702Y-104486089D01*
X151295111Y-104496222D01*
G36*
X143112453Y-102849579D02*
X143183958Y-103067720D01*
X143195334Y-103275013D01*
X143211052Y-103528323D01*
X143251111Y-103705089D01*
X143280000Y-103748334D01*
X143355231Y-103844322D01*
X143349355Y-103936598D01*
X143301167Y-103955019D01*
X143197639Y-103909218D01*
X143009695Y-103799286D01*
X142912754Y-103737428D01*
X142705948Y-103613580D01*
X142542820Y-103568105D01*
X142344678Y-103589763D01*
X142171397Y-103631550D01*
X141912543Y-103689027D01*
X141746485Y-103688542D01*
X141604517Y-103623030D01*
X141522643Y-103564837D01*
X141363225Y-103401875D01*
X141290743Y-103241035D01*
X141290334Y-103231196D01*
X141313072Y-103146055D01*
X141403739Y-103088092D01*
X141596012Y-103045346D01*
X141923568Y-103005857D01*
X141925334Y-103005675D01*
X142261733Y-102961293D01*
X142551724Y-102905726D01*
X142736484Y-102850414D01*
X142745122Y-102846258D01*
X142968698Y-102778162D01*
X143112453Y-102849579D01*
X143112453Y-102849579D01*
G37*
X143112453Y-102849579D02*
X143183958Y-103067720D01*
X143195334Y-103275013D01*
X143211052Y-103528323D01*
X143251111Y-103705089D01*
X143280000Y-103748334D01*
X143355231Y-103844322D01*
X143349355Y-103936598D01*
X143301167Y-103955019D01*
X143197639Y-103909218D01*
X143009695Y-103799286D01*
X142912754Y-103737428D01*
X142705948Y-103613580D01*
X142542820Y-103568105D01*
X142344678Y-103589763D01*
X142171397Y-103631550D01*
X141912543Y-103689027D01*
X141746485Y-103688542D01*
X141604517Y-103623030D01*
X141522643Y-103564837D01*
X141363225Y-103401875D01*
X141290743Y-103241035D01*
X141290334Y-103231196D01*
X141313072Y-103146055D01*
X141403739Y-103088092D01*
X141596012Y-103045346D01*
X141923568Y-103005857D01*
X141925334Y-103005675D01*
X142261733Y-102961293D01*
X142551724Y-102905726D01*
X142736484Y-102850414D01*
X142745122Y-102846258D01*
X142968698Y-102778162D01*
X143112453Y-102849579D01*
G36*
X135768547Y-102631544D02*
X135981981Y-102697575D01*
X136083334Y-102732334D01*
X136392219Y-102808951D01*
X136751776Y-102854162D01*
X136893315Y-102859334D01*
X137221375Y-102890923D01*
X137397912Y-102970932D01*
X137425336Y-103077221D01*
X137306057Y-103187653D01*
X137042484Y-103280087D01*
X136843783Y-103314377D01*
X136481647Y-103359834D01*
X136097083Y-103408092D01*
X135998667Y-103420439D01*
X135575334Y-103473544D01*
X135575334Y-103039439D01*
X135588339Y-102794420D01*
X135621671Y-102637010D01*
X135649355Y-102605334D01*
X135768547Y-102631544D01*
X135768547Y-102631544D01*
G37*
X135768547Y-102631544D02*
X135981981Y-102697575D01*
X136083334Y-102732334D01*
X136392219Y-102808951D01*
X136751776Y-102854162D01*
X136893315Y-102859334D01*
X137221375Y-102890923D01*
X137397912Y-102970932D01*
X137425336Y-103077221D01*
X137306057Y-103187653D01*
X137042484Y-103280087D01*
X136843783Y-103314377D01*
X136481647Y-103359834D01*
X136097083Y-103408092D01*
X135998667Y-103420439D01*
X135575334Y-103473544D01*
X135575334Y-103039439D01*
X135588339Y-102794420D01*
X135621671Y-102637010D01*
X135649355Y-102605334D01*
X135768547Y-102631544D01*
G36*
X136739844Y-101406100D02*
X137057000Y-101446371D01*
X137649667Y-101547000D01*
X137675472Y-101949167D01*
X137675272Y-102222078D01*
X137625568Y-102339308D01*
X137520728Y-102308727D01*
X137458115Y-102252915D01*
X137332263Y-102206103D01*
X137072531Y-102163151D01*
X136714366Y-102129001D01*
X136467515Y-102114817D01*
X135575334Y-102075137D01*
X135575334Y-101443314D01*
X136019834Y-101394528D01*
X136344726Y-101384047D01*
X136739844Y-101406100D01*
X136739844Y-101406100D01*
G37*
X136739844Y-101406100D02*
X137057000Y-101446371D01*
X137649667Y-101547000D01*
X137675472Y-101949167D01*
X137675272Y-102222078D01*
X137625568Y-102339308D01*
X137520728Y-102308727D01*
X137458115Y-102252915D01*
X137332263Y-102206103D01*
X137072531Y-102163151D01*
X136714366Y-102129001D01*
X136467515Y-102114817D01*
X135575334Y-102075137D01*
X135575334Y-101443314D01*
X136019834Y-101394528D01*
X136344726Y-101384047D01*
X136739844Y-101406100D01*
G36*
X142780352Y-101762126D02*
X143010992Y-101774559D01*
X143135840Y-101803952D01*
X143186647Y-101856998D01*
X143195334Y-101925021D01*
X143127023Y-102094153D01*
X143023576Y-102183297D01*
X142763107Y-102266647D01*
X142414038Y-102309607D01*
X142053308Y-102307441D01*
X141773185Y-102260285D01*
X141549462Y-102151728D01*
X141437690Y-102014649D01*
X141458314Y-101882106D01*
X141510829Y-101836085D01*
X141644077Y-101802900D01*
X141901492Y-101776956D01*
X142237942Y-101762063D01*
X142412167Y-101759963D01*
X142780352Y-101762126D01*
X142780352Y-101762126D01*
G37*
X142780352Y-101762126D02*
X143010992Y-101774559D01*
X143135840Y-101803952D01*
X143186647Y-101856998D01*
X143195334Y-101925021D01*
X143127023Y-102094153D01*
X143023576Y-102183297D01*
X142763107Y-102266647D01*
X142414038Y-102309607D01*
X142053308Y-102307441D01*
X141773185Y-102260285D01*
X141549462Y-102151728D01*
X141437690Y-102014649D01*
X141458314Y-101882106D01*
X141510829Y-101836085D01*
X141644077Y-101802900D01*
X141901492Y-101776956D01*
X142237942Y-101762063D01*
X142412167Y-101759963D01*
X142780352Y-101762126D01*
G36*
X141901137Y-100441506D02*
X142238634Y-100456529D01*
X142475667Y-100471513D01*
X142862457Y-100501713D01*
X143110301Y-100532126D01*
X143249409Y-100570763D01*
X143309987Y-100625638D01*
X143322334Y-100696092D01*
X143301074Y-100780213D01*
X143216193Y-100842373D01*
X143036039Y-100894519D01*
X142728960Y-100948593D01*
X142602667Y-100967671D01*
X142151202Y-101031247D01*
X141838882Y-101065999D01*
X141638238Y-101073320D01*
X141521800Y-101054602D01*
X141473778Y-101024889D01*
X141423227Y-100890168D01*
X141421964Y-100694824D01*
X141463080Y-100519597D01*
X141523167Y-100447690D01*
X141648696Y-100438210D01*
X141901137Y-100441506D01*
X141901137Y-100441506D01*
G37*
X141901137Y-100441506D02*
X142238634Y-100456529D01*
X142475667Y-100471513D01*
X142862457Y-100501713D01*
X143110301Y-100532126D01*
X143249409Y-100570763D01*
X143309987Y-100625638D01*
X143322334Y-100696092D01*
X143301074Y-100780213D01*
X143216193Y-100842373D01*
X143036039Y-100894519D01*
X142728960Y-100948593D01*
X142602667Y-100967671D01*
X142151202Y-101031247D01*
X141838882Y-101065999D01*
X141638238Y-101073320D01*
X141521800Y-101054602D01*
X141473778Y-101024889D01*
X141423227Y-100890168D01*
X141421964Y-100694824D01*
X141463080Y-100519597D01*
X141523167Y-100447690D01*
X141648696Y-100438210D01*
X141901137Y-100441506D01*
G36*
X137692000Y-100744194D02*
X136930474Y-100708414D01*
X136588260Y-100700618D01*
X136314232Y-100709911D01*
X136149260Y-100734193D01*
X136121144Y-100749984D01*
X136010255Y-100805634D01*
X135824337Y-100827334D01*
X135657709Y-100810632D01*
X135588805Y-100726542D01*
X135575334Y-100527164D01*
X135575334Y-100226994D01*
X135892834Y-100284396D01*
X136104999Y-100327692D01*
X136230687Y-100362648D01*
X136240794Y-100368082D01*
X136326707Y-100348527D01*
X136505008Y-100267879D01*
X136578207Y-100229850D01*
X136909077Y-100111934D01*
X137282876Y-100065346D01*
X137288580Y-100065334D01*
X137692000Y-100065334D01*
X137692000Y-100744194D01*
X137692000Y-100744194D01*
G37*
X137692000Y-100744194D02*
X136930474Y-100708414D01*
X136588260Y-100700618D01*
X136314232Y-100709911D01*
X136149260Y-100734193D01*
X136121144Y-100749984D01*
X136010255Y-100805634D01*
X135824337Y-100827334D01*
X135657709Y-100810632D01*
X135588805Y-100726542D01*
X135575334Y-100527164D01*
X135575334Y-100226994D01*
X135892834Y-100284396D01*
X136104999Y-100327692D01*
X136230687Y-100362648D01*
X136240794Y-100368082D01*
X136326707Y-100348527D01*
X136505008Y-100267879D01*
X136578207Y-100229850D01*
X136909077Y-100111934D01*
X137282876Y-100065346D01*
X137288580Y-100065334D01*
X137692000Y-100065334D01*
X137692000Y-100744194D01*
G36*
X135631778Y-99754889D02*
X135641911Y-99855369D01*
X135631778Y-99867778D01*
X135581444Y-99856156D01*
X135575334Y-99811334D01*
X135606312Y-99741643D01*
X135631778Y-99754889D01*
X135631778Y-99754889D01*
G37*
X135631778Y-99754889D02*
X135641911Y-99855369D01*
X135631778Y-99867778D01*
X135581444Y-99856156D01*
X135575334Y-99811334D01*
X135606312Y-99741643D01*
X135631778Y-99754889D01*
G36*
X116303492Y-80402997D02*
X116381443Y-80415065D01*
X116492062Y-80526614D01*
X116647975Y-80793763D01*
X116846409Y-81209745D01*
X117084592Y-81767791D01*
X117359753Y-82461134D01*
X117669118Y-83283006D01*
X118009917Y-84226638D01*
X118379376Y-85285264D01*
X118395889Y-85333334D01*
X118794929Y-86495139D01*
X119182752Y-87623140D01*
X119555463Y-88706075D01*
X119909170Y-89732683D01*
X120239978Y-90691700D01*
X120543993Y-91571866D01*
X120817323Y-92361919D01*
X121056073Y-93050595D01*
X121256351Y-93626635D01*
X121414262Y-94078774D01*
X121525912Y-94395753D01*
X121587409Y-94566308D01*
X121593862Y-94583167D01*
X121643643Y-94755193D01*
X121603734Y-94814768D01*
X121587056Y-94816000D01*
X121558634Y-94855495D01*
X121621942Y-94921834D01*
X121715042Y-95053767D01*
X121829275Y-95292777D01*
X121942501Y-95582229D01*
X122032581Y-95865488D01*
X122077376Y-96085920D01*
X122077482Y-96087161D01*
X122121786Y-96249424D01*
X122213668Y-96463061D01*
X122216238Y-96468161D01*
X122297658Y-96656979D01*
X122412078Y-96958149D01*
X122541280Y-97322621D01*
X122616740Y-97546500D01*
X122736417Y-97889737D01*
X122843841Y-98163178D01*
X122924971Y-98332957D01*
X122959003Y-98372000D01*
X123054465Y-98441040D01*
X123189963Y-98615583D01*
X123335933Y-98846762D01*
X123462811Y-99085712D01*
X123541032Y-99283566D01*
X123552667Y-99353258D01*
X123539066Y-99579639D01*
X123479199Y-99718910D01*
X123344468Y-99782927D01*
X123106278Y-99783544D01*
X122736031Y-99732617D01*
X122665657Y-99720984D01*
X122354130Y-99640740D01*
X122148783Y-99499504D01*
X122006170Y-99256410D01*
X121927079Y-99026242D01*
X121852740Y-98820562D01*
X121766854Y-98741335D01*
X121621741Y-98749578D01*
X121595502Y-98755160D01*
X121440941Y-98769818D01*
X121331658Y-98705741D01*
X121219114Y-98528266D01*
X121184574Y-98461711D01*
X121065868Y-98204451D01*
X120923508Y-97860947D01*
X120788207Y-97505326D01*
X120787549Y-97503502D01*
X120656268Y-97158421D01*
X120521539Y-96834956D01*
X120411784Y-96601224D01*
X120408609Y-96595254D01*
X120306224Y-96375382D01*
X120252858Y-96204969D01*
X120250667Y-96181111D01*
X120215861Y-96056376D01*
X120122463Y-95820190D01*
X119987000Y-95512860D01*
X119902979Y-95333190D01*
X119718359Y-94933852D01*
X119534482Y-94515647D01*
X119383814Y-94152943D01*
X119350579Y-94067742D01*
X119215106Y-93729874D01*
X119073247Y-93402706D01*
X118978590Y-93203262D01*
X118886275Y-92979869D01*
X118773570Y-92644750D01*
X118657668Y-92251289D01*
X118592428Y-92004187D01*
X118388560Y-91330093D01*
X118109883Y-90661428D01*
X117878489Y-90201667D01*
X117657256Y-89767498D01*
X117441645Y-89313229D01*
X117259272Y-88898705D01*
X117155656Y-88635334D01*
X117022560Y-88281386D01*
X116885804Y-87945150D01*
X116773339Y-87695123D01*
X116766066Y-87680576D01*
X116675090Y-87469348D01*
X116620391Y-87323000D01*
X118642000Y-87323000D01*
X118684334Y-87365334D01*
X118726667Y-87323000D01*
X118684334Y-87280667D01*
X118642000Y-87323000D01*
X116620391Y-87323000D01*
X116553284Y-87143457D01*
X116417851Y-86750615D01*
X116308249Y-86410576D01*
X116176875Y-86001839D01*
X116048150Y-85623831D01*
X115938271Y-85322899D01*
X115872580Y-85164000D01*
X115765326Y-84833017D01*
X115748639Y-84521983D01*
X115821288Y-84280188D01*
X115896767Y-84196099D01*
X116014918Y-84047786D01*
X116124774Y-83813227D01*
X116149275Y-83738882D01*
X116205963Y-83515994D01*
X116199381Y-83402505D01*
X116125039Y-83349013D01*
X116113459Y-83344980D01*
X116004773Y-83246470D01*
X115870073Y-83041090D01*
X115776624Y-82855522D01*
X115656413Y-82577011D01*
X115512753Y-82229069D01*
X115357988Y-81843543D01*
X115204459Y-81452281D01*
X115064507Y-81087129D01*
X114950475Y-80779936D01*
X114874704Y-80562548D01*
X114849536Y-80466812D01*
X114850282Y-80465152D01*
X114956329Y-80441858D01*
X115182475Y-80421591D01*
X115479492Y-80405961D01*
X115798153Y-80396578D01*
X116089229Y-80395054D01*
X116303492Y-80402997D01*
X116303492Y-80402997D01*
G37*
X116303492Y-80402997D02*
X116381443Y-80415065D01*
X116492062Y-80526614D01*
X116647975Y-80793763D01*
X116846409Y-81209745D01*
X117084592Y-81767791D01*
X117359753Y-82461134D01*
X117669118Y-83283006D01*
X118009917Y-84226638D01*
X118379376Y-85285264D01*
X118395889Y-85333334D01*
X118794929Y-86495139D01*
X119182752Y-87623140D01*
X119555463Y-88706075D01*
X119909170Y-89732683D01*
X120239978Y-90691700D01*
X120543993Y-91571866D01*
X120817323Y-92361919D01*
X121056073Y-93050595D01*
X121256351Y-93626635D01*
X121414262Y-94078774D01*
X121525912Y-94395753D01*
X121587409Y-94566308D01*
X121593862Y-94583167D01*
X121643643Y-94755193D01*
X121603734Y-94814768D01*
X121587056Y-94816000D01*
X121558634Y-94855495D01*
X121621942Y-94921834D01*
X121715042Y-95053767D01*
X121829275Y-95292777D01*
X121942501Y-95582229D01*
X122032581Y-95865488D01*
X122077376Y-96085920D01*
X122077482Y-96087161D01*
X122121786Y-96249424D01*
X122213668Y-96463061D01*
X122216238Y-96468161D01*
X122297658Y-96656979D01*
X122412078Y-96958149D01*
X122541280Y-97322621D01*
X122616740Y-97546500D01*
X122736417Y-97889737D01*
X122843841Y-98163178D01*
X122924971Y-98332957D01*
X122959003Y-98372000D01*
X123054465Y-98441040D01*
X123189963Y-98615583D01*
X123335933Y-98846762D01*
X123462811Y-99085712D01*
X123541032Y-99283566D01*
X123552667Y-99353258D01*
X123539066Y-99579639D01*
X123479199Y-99718910D01*
X123344468Y-99782927D01*
X123106278Y-99783544D01*
X122736031Y-99732617D01*
X122665657Y-99720984D01*
X122354130Y-99640740D01*
X122148783Y-99499504D01*
X122006170Y-99256410D01*
X121927079Y-99026242D01*
X121852740Y-98820562D01*
X121766854Y-98741335D01*
X121621741Y-98749578D01*
X121595502Y-98755160D01*
X121440941Y-98769818D01*
X121331658Y-98705741D01*
X121219114Y-98528266D01*
X121184574Y-98461711D01*
X121065868Y-98204451D01*
X120923508Y-97860947D01*
X120788207Y-97505326D01*
X120787549Y-97503502D01*
X120656268Y-97158421D01*
X120521539Y-96834956D01*
X120411784Y-96601224D01*
X120408609Y-96595254D01*
X120306224Y-96375382D01*
X120252858Y-96204969D01*
X120250667Y-96181111D01*
X120215861Y-96056376D01*
X120122463Y-95820190D01*
X119987000Y-95512860D01*
X119902979Y-95333190D01*
X119718359Y-94933852D01*
X119534482Y-94515647D01*
X119383814Y-94152943D01*
X119350579Y-94067742D01*
X119215106Y-93729874D01*
X119073247Y-93402706D01*
X118978590Y-93203262D01*
X118886275Y-92979869D01*
X118773570Y-92644750D01*
X118657668Y-92251289D01*
X118592428Y-92004187D01*
X118388560Y-91330093D01*
X118109883Y-90661428D01*
X117878489Y-90201667D01*
X117657256Y-89767498D01*
X117441645Y-89313229D01*
X117259272Y-88898705D01*
X117155656Y-88635334D01*
X117022560Y-88281386D01*
X116885804Y-87945150D01*
X116773339Y-87695123D01*
X116766066Y-87680576D01*
X116675090Y-87469348D01*
X116620391Y-87323000D01*
X118642000Y-87323000D01*
X118684334Y-87365334D01*
X118726667Y-87323000D01*
X118684334Y-87280667D01*
X118642000Y-87323000D01*
X116620391Y-87323000D01*
X116553284Y-87143457D01*
X116417851Y-86750615D01*
X116308249Y-86410576D01*
X116176875Y-86001839D01*
X116048150Y-85623831D01*
X115938271Y-85322899D01*
X115872580Y-85164000D01*
X115765326Y-84833017D01*
X115748639Y-84521983D01*
X115821288Y-84280188D01*
X115896767Y-84196099D01*
X116014918Y-84047786D01*
X116124774Y-83813227D01*
X116149275Y-83738882D01*
X116205963Y-83515994D01*
X116199381Y-83402505D01*
X116125039Y-83349013D01*
X116113459Y-83344980D01*
X116004773Y-83246470D01*
X115870073Y-83041090D01*
X115776624Y-82855522D01*
X115656413Y-82577011D01*
X115512753Y-82229069D01*
X115357988Y-81843543D01*
X115204459Y-81452281D01*
X115064507Y-81087129D01*
X114950475Y-80779936D01*
X114874704Y-80562548D01*
X114849536Y-80466812D01*
X114850282Y-80465152D01*
X114956329Y-80441858D01*
X115182475Y-80421591D01*
X115479492Y-80405961D01*
X115798153Y-80396578D01*
X116089229Y-80395054D01*
X116303492Y-80402997D01*
G36*
X142571639Y-99078798D02*
X142944270Y-99201939D01*
X142976648Y-99215658D01*
X143242951Y-99350244D01*
X143350111Y-99464122D01*
X143304952Y-99570176D01*
X143200900Y-99639021D01*
X143015962Y-99686400D01*
X142715642Y-99710898D01*
X142352365Y-99712298D01*
X141978559Y-99690384D01*
X141649232Y-99645440D01*
X141391209Y-99582678D01*
X141271914Y-99508876D01*
X141261282Y-99399453D01*
X141279558Y-99343218D01*
X141399020Y-99238925D01*
X141522851Y-99225376D01*
X141743073Y-99207174D01*
X141952012Y-99146810D01*
X142261323Y-99061794D01*
X142571639Y-99078798D01*
X142571639Y-99078798D01*
G37*
X142571639Y-99078798D02*
X142944270Y-99201939D01*
X142976648Y-99215658D01*
X143242951Y-99350244D01*
X143350111Y-99464122D01*
X143304952Y-99570176D01*
X143200900Y-99639021D01*
X143015962Y-99686400D01*
X142715642Y-99710898D01*
X142352365Y-99712298D01*
X141978559Y-99690384D01*
X141649232Y-99645440D01*
X141391209Y-99582678D01*
X141271914Y-99508876D01*
X141261282Y-99399453D01*
X141279558Y-99343218D01*
X141399020Y-99238925D01*
X141522851Y-99225376D01*
X141743073Y-99207174D01*
X141952012Y-99146810D01*
X142261323Y-99061794D01*
X142571639Y-99078798D01*
G36*
X163323571Y-81822634D02*
X163605046Y-81882579D01*
X163934430Y-81969849D01*
X164051396Y-82005135D01*
X164226299Y-82063076D01*
X164343754Y-82124988D01*
X164402430Y-82215312D01*
X164400996Y-82358490D01*
X164338120Y-82578962D01*
X164212471Y-82901170D01*
X164022718Y-83349555D01*
X163971657Y-83468915D01*
X163807187Y-83861831D01*
X163705527Y-84133666D01*
X163658487Y-84317066D01*
X163657875Y-84444679D01*
X163695500Y-84549153D01*
X163698984Y-84555752D01*
X163747248Y-84674664D01*
X163728669Y-84779938D01*
X163621969Y-84912507D01*
X163411975Y-85107838D01*
X163177625Y-85357560D01*
X162948817Y-85667897D01*
X162754515Y-85991390D01*
X162623679Y-86280582D01*
X162584000Y-86464590D01*
X162553158Y-86593986D01*
X162469321Y-86845418D01*
X162345522Y-87184991D01*
X162194794Y-87578811D01*
X162030169Y-87992985D01*
X161864681Y-88393617D01*
X161711363Y-88746815D01*
X161678961Y-88818280D01*
X161570880Y-89092813D01*
X161512229Y-89321082D01*
X161512282Y-89435318D01*
X161498512Y-89577930D01*
X161435413Y-89622860D01*
X161333011Y-89722304D01*
X161191705Y-89933071D01*
X161036543Y-90209692D01*
X160892575Y-90506698D01*
X160784850Y-90778620D01*
X160766716Y-90836667D01*
X160701819Y-91021340D01*
X160591570Y-91299107D01*
X160464651Y-91598667D01*
X160081518Y-92482639D01*
X159764986Y-93230969D01*
X159508124Y-93860547D01*
X159303997Y-94388263D01*
X159186024Y-94713955D01*
X159003205Y-95212033D01*
X158779745Y-95783599D01*
X158536759Y-96377644D01*
X158295365Y-96943158D01*
X158076680Y-97429131D01*
X157969618Y-97652334D01*
X157840012Y-97936535D01*
X157739812Y-98197362D01*
X157707244Y-98308500D01*
X157647984Y-98476887D01*
X157586001Y-98541334D01*
X157466734Y-98605137D01*
X157289602Y-98770033D01*
X157090715Y-98996247D01*
X156906180Y-99244005D01*
X156815088Y-99390501D01*
X156681726Y-99592343D01*
X156564007Y-99712270D01*
X156527369Y-99726667D01*
X156418039Y-99678374D01*
X156213877Y-99549890D01*
X155953073Y-99365810D01*
X155865627Y-99300495D01*
X155607280Y-99096068D01*
X155411389Y-98924204D01*
X155309956Y-98813614D01*
X155302667Y-98795441D01*
X155354311Y-98688864D01*
X155484481Y-98512573D01*
X155554014Y-98430290D01*
X155659597Y-98271655D01*
X155818857Y-97982372D01*
X156019228Y-97587633D01*
X156248144Y-97112628D01*
X156493039Y-96582548D01*
X156643022Y-96247178D01*
X156875837Y-95719639D01*
X157162459Y-95069633D01*
X157488549Y-94329709D01*
X157839769Y-93532415D01*
X158201779Y-92710300D01*
X158560241Y-91895914D01*
X158858652Y-91217667D01*
X159215655Y-90406810D01*
X159600466Y-89534124D01*
X159996371Y-88637419D01*
X160386659Y-87754507D01*
X160754621Y-86923196D01*
X161083543Y-86181299D01*
X161290989Y-85714334D01*
X161561850Y-85103978D01*
X161817040Y-84526397D01*
X162046525Y-84004500D01*
X162240266Y-83561198D01*
X162388229Y-83219403D01*
X162480377Y-83002025D01*
X162496364Y-82962667D01*
X162627600Y-82641101D01*
X162776611Y-82289097D01*
X162826090Y-82175427D01*
X162936019Y-81939865D01*
X163027098Y-81825834D01*
X163147334Y-81799289D01*
X163323571Y-81822634D01*
X163323571Y-81822634D01*
G37*
X163323571Y-81822634D02*
X163605046Y-81882579D01*
X163934430Y-81969849D01*
X164051396Y-82005135D01*
X164226299Y-82063076D01*
X164343754Y-82124988D01*
X164402430Y-82215312D01*
X164400996Y-82358490D01*
X164338120Y-82578962D01*
X164212471Y-82901170D01*
X164022718Y-83349555D01*
X163971657Y-83468915D01*
X163807187Y-83861831D01*
X163705527Y-84133666D01*
X163658487Y-84317066D01*
X163657875Y-84444679D01*
X163695500Y-84549153D01*
X163698984Y-84555752D01*
X163747248Y-84674664D01*
X163728669Y-84779938D01*
X163621969Y-84912507D01*
X163411975Y-85107838D01*
X163177625Y-85357560D01*
X162948817Y-85667897D01*
X162754515Y-85991390D01*
X162623679Y-86280582D01*
X162584000Y-86464590D01*
X162553158Y-86593986D01*
X162469321Y-86845418D01*
X162345522Y-87184991D01*
X162194794Y-87578811D01*
X162030169Y-87992985D01*
X161864681Y-88393617D01*
X161711363Y-88746815D01*
X161678961Y-88818280D01*
X161570880Y-89092813D01*
X161512229Y-89321082D01*
X161512282Y-89435318D01*
X161498512Y-89577930D01*
X161435413Y-89622860D01*
X161333011Y-89722304D01*
X161191705Y-89933071D01*
X161036543Y-90209692D01*
X160892575Y-90506698D01*
X160784850Y-90778620D01*
X160766716Y-90836667D01*
X160701819Y-91021340D01*
X160591570Y-91299107D01*
X160464651Y-91598667D01*
X160081518Y-92482639D01*
X159764986Y-93230969D01*
X159508124Y-93860547D01*
X159303997Y-94388263D01*
X159186024Y-94713955D01*
X159003205Y-95212033D01*
X158779745Y-95783599D01*
X158536759Y-96377644D01*
X158295365Y-96943158D01*
X158076680Y-97429131D01*
X157969618Y-97652334D01*
X157840012Y-97936535D01*
X157739812Y-98197362D01*
X157707244Y-98308500D01*
X157647984Y-98476887D01*
X157586001Y-98541334D01*
X157466734Y-98605137D01*
X157289602Y-98770033D01*
X157090715Y-98996247D01*
X156906180Y-99244005D01*
X156815088Y-99390501D01*
X156681726Y-99592343D01*
X156564007Y-99712270D01*
X156527369Y-99726667D01*
X156418039Y-99678374D01*
X156213877Y-99549890D01*
X155953073Y-99365810D01*
X155865627Y-99300495D01*
X155607280Y-99096068D01*
X155411389Y-98924204D01*
X155309956Y-98813614D01*
X155302667Y-98795441D01*
X155354311Y-98688864D01*
X155484481Y-98512573D01*
X155554014Y-98430290D01*
X155659597Y-98271655D01*
X155818857Y-97982372D01*
X156019228Y-97587633D01*
X156248144Y-97112628D01*
X156493039Y-96582548D01*
X156643022Y-96247178D01*
X156875837Y-95719639D01*
X157162459Y-95069633D01*
X157488549Y-94329709D01*
X157839769Y-93532415D01*
X158201779Y-92710300D01*
X158560241Y-91895914D01*
X158858652Y-91217667D01*
X159215655Y-90406810D01*
X159600466Y-89534124D01*
X159996371Y-88637419D01*
X160386659Y-87754507D01*
X160754621Y-86923196D01*
X161083543Y-86181299D01*
X161290989Y-85714334D01*
X161561850Y-85103978D01*
X161817040Y-84526397D01*
X162046525Y-84004500D01*
X162240266Y-83561198D01*
X162388229Y-83219403D01*
X162480377Y-83002025D01*
X162496364Y-82962667D01*
X162627600Y-82641101D01*
X162776611Y-82289097D01*
X162826090Y-82175427D01*
X162936019Y-81939865D01*
X163027098Y-81825834D01*
X163147334Y-81799289D01*
X163323571Y-81822634D01*
G36*
X135692211Y-98998564D02*
X135868241Y-99081619D01*
X135897482Y-99096117D01*
X136112980Y-99176372D01*
X136323939Y-99171337D01*
X136493847Y-99127838D01*
X136949525Y-99074008D01*
X137147014Y-99103858D01*
X137405755Y-99184359D01*
X137498551Y-99261074D01*
X137428791Y-99330062D01*
X137199861Y-99387381D01*
X136871007Y-99424916D01*
X136513345Y-99454776D01*
X136187164Y-99484759D01*
X135957871Y-99508823D01*
X135942728Y-99510678D01*
X135742272Y-99519878D01*
X135626862Y-99495836D01*
X135625228Y-99494339D01*
X135593577Y-99394423D01*
X135576837Y-99221994D01*
X135577984Y-99053682D01*
X135599994Y-98966123D01*
X135604659Y-98964667D01*
X135692211Y-98998564D01*
X135692211Y-98998564D01*
G37*
X135692211Y-98998564D02*
X135868241Y-99081619D01*
X135897482Y-99096117D01*
X136112980Y-99176372D01*
X136323939Y-99171337D01*
X136493847Y-99127838D01*
X136949525Y-99074008D01*
X137147014Y-99103858D01*
X137405755Y-99184359D01*
X137498551Y-99261074D01*
X137428791Y-99330062D01*
X137199861Y-99387381D01*
X136871007Y-99424916D01*
X136513345Y-99454776D01*
X136187164Y-99484759D01*
X135957871Y-99508823D01*
X135942728Y-99510678D01*
X135742272Y-99519878D01*
X135626862Y-99495836D01*
X135625228Y-99494339D01*
X135593577Y-99394423D01*
X135576837Y-99221994D01*
X135577984Y-99053682D01*
X135599994Y-98966123D01*
X135604659Y-98964667D01*
X135692211Y-98998564D01*
G36*
X143957334Y-98075667D02*
X143946223Y-98398721D01*
X143901467Y-98573536D01*
X143805926Y-98620401D01*
X143642464Y-98559605D01*
X143578626Y-98523989D01*
X143411599Y-98472359D01*
X143135563Y-98430741D01*
X142816626Y-98408459D01*
X142281863Y-98375498D01*
X141913846Y-98315426D01*
X141712728Y-98228277D01*
X141671334Y-98150724D01*
X141720275Y-98044362D01*
X141756000Y-98033334D01*
X141829223Y-97963987D01*
X141840667Y-97894501D01*
X141877121Y-97745679D01*
X142000365Y-97640938D01*
X142231222Y-97573953D01*
X142590514Y-97538399D01*
X143047167Y-97528026D01*
X143957334Y-97525334D01*
X143957334Y-98075667D01*
X143957334Y-98075667D01*
G37*
X143957334Y-98075667D02*
X143946223Y-98398721D01*
X143901467Y-98573536D01*
X143805926Y-98620401D01*
X143642464Y-98559605D01*
X143578626Y-98523989D01*
X143411599Y-98472359D01*
X143135563Y-98430741D01*
X142816626Y-98408459D01*
X142281863Y-98375498D01*
X141913846Y-98315426D01*
X141712728Y-98228277D01*
X141671334Y-98150724D01*
X141720275Y-98044362D01*
X141756000Y-98033334D01*
X141829223Y-97963987D01*
X141840667Y-97894501D01*
X141877121Y-97745679D01*
X142000365Y-97640938D01*
X142231222Y-97573953D01*
X142590514Y-97538399D01*
X143047167Y-97528026D01*
X143957334Y-97525334D01*
X143957334Y-98075667D01*
G36*
X136621493Y-97527756D02*
X136914821Y-97539103D01*
X137111700Y-97565496D01*
X137248560Y-97613058D01*
X137361831Y-97687909D01*
X137412112Y-97729797D01*
X137553249Y-97873973D01*
X137603709Y-97973623D01*
X137598420Y-97985656D01*
X137485487Y-98033585D01*
X137255551Y-98095233D01*
X136959243Y-98160385D01*
X136647192Y-98218821D01*
X136370029Y-98260324D01*
X136178383Y-98274676D01*
X136168000Y-98274333D01*
X135920522Y-98251352D01*
X135774464Y-98228712D01*
X135607017Y-98140101D01*
X135544745Y-98049743D01*
X135458609Y-97873109D01*
X135356455Y-97715834D01*
X135216013Y-97525334D01*
X136195285Y-97525334D01*
X136621493Y-97527756D01*
X136621493Y-97527756D01*
G37*
X136621493Y-97527756D02*
X136914821Y-97539103D01*
X137111700Y-97565496D01*
X137248560Y-97613058D01*
X137361831Y-97687909D01*
X137412112Y-97729797D01*
X137553249Y-97873973D01*
X137603709Y-97973623D01*
X137598420Y-97985656D01*
X137485487Y-98033585D01*
X137255551Y-98095233D01*
X136959243Y-98160385D01*
X136647192Y-98218821D01*
X136370029Y-98260324D01*
X136178383Y-98274676D01*
X136168000Y-98274333D01*
X135920522Y-98251352D01*
X135774464Y-98228712D01*
X135607017Y-98140101D01*
X135544745Y-98049743D01*
X135458609Y-97873109D01*
X135356455Y-97715834D01*
X135216013Y-97525334D01*
X136195285Y-97525334D01*
X136621493Y-97527756D01*
G36*
X128808211Y-88048622D02*
X129146595Y-88064882D01*
X129385369Y-88089035D01*
X129491387Y-88118672D01*
X129493445Y-88121936D01*
X129583872Y-88229329D01*
X129808587Y-88416583D01*
X130170605Y-88685994D01*
X130672947Y-89039857D01*
X130961000Y-89237788D01*
X131309863Y-89478473D01*
X131638969Y-89709859D01*
X131902951Y-89899838D01*
X132019334Y-89986841D01*
X132287043Y-90185644D01*
X132428807Y-90271576D01*
X132444546Y-90244636D01*
X132334180Y-90104821D01*
X132231000Y-89991856D01*
X132062630Y-89803870D01*
X131992910Y-89703526D01*
X132026678Y-89693928D01*
X132168771Y-89778177D01*
X132424026Y-89959378D01*
X132797281Y-90240632D01*
X133293372Y-90625042D01*
X133630248Y-90889365D01*
X134061171Y-91211871D01*
X134421737Y-91439216D01*
X134758586Y-91598655D01*
X134974326Y-91674839D01*
X135552395Y-91857280D01*
X135611541Y-92509976D01*
X135660620Y-92884669D01*
X135736401Y-93271802D01*
X135828596Y-93635305D01*
X135926922Y-93939106D01*
X136021093Y-94147136D01*
X136100098Y-94223334D01*
X136148031Y-94297460D01*
X136135353Y-94497328D01*
X136132492Y-94513064D01*
X136117717Y-94731462D01*
X136161588Y-94854105D01*
X136165402Y-94856728D01*
X136228863Y-94972734D01*
X136252667Y-95154152D01*
X136293121Y-95511394D01*
X136415467Y-95721981D01*
X136621182Y-95788277D01*
X136647724Y-95786961D01*
X136888269Y-95748881D01*
X137049443Y-95701202D01*
X137161702Y-95673526D01*
X137173891Y-95754006D01*
X137151981Y-95838886D01*
X137093137Y-96074407D01*
X137042627Y-96318834D01*
X137023446Y-96508545D01*
X137074527Y-96583936D01*
X137155989Y-96594000D01*
X137344526Y-96647021D01*
X137488152Y-96769882D01*
X137522667Y-96864934D01*
X137463999Y-96928476D01*
X137343927Y-96916370D01*
X137246342Y-96839927D01*
X137240073Y-96826834D01*
X137201820Y-96764442D01*
X137190684Y-96826834D01*
X137142369Y-96871341D01*
X136991612Y-96902495D01*
X136719893Y-96921921D01*
X136308693Y-96931245D01*
X135985545Y-96932667D01*
X135515549Y-96931694D01*
X135192142Y-96926556D01*
X134992579Y-96913927D01*
X134894116Y-96890478D01*
X134874010Y-96852883D01*
X134909517Y-96797814D01*
X134927211Y-96777833D01*
X135015363Y-96663427D01*
X135054815Y-96540868D01*
X135044698Y-96369167D01*
X134984144Y-96107335D01*
X134907201Y-95834389D01*
X134808489Y-95487912D01*
X134715417Y-95151727D01*
X134659748Y-94943000D01*
X134587867Y-94699769D01*
X134476956Y-94363712D01*
X134348704Y-94000078D01*
X134323923Y-93932601D01*
X134075418Y-93260868D01*
X133292883Y-92768434D01*
X132969821Y-92568671D01*
X132699055Y-92407853D01*
X132512658Y-92304617D01*
X132445425Y-92276000D01*
X132364668Y-92340580D01*
X132232691Y-92504698D01*
X132156383Y-92614667D01*
X131989398Y-92850307D01*
X131901578Y-92941844D01*
X131899883Y-92892124D01*
X131991271Y-92703993D01*
X132063573Y-92576719D01*
X132284284Y-92200104D01*
X129865809Y-90586320D01*
X129203334Y-90142707D01*
X128669928Y-89781374D01*
X128252545Y-89492535D01*
X127938137Y-89266403D01*
X127713655Y-89093189D01*
X127566053Y-88963108D01*
X127482284Y-88866372D01*
X127449298Y-88793194D01*
X127447333Y-88772185D01*
X127430240Y-88539584D01*
X127394417Y-88307250D01*
X127341500Y-88042667D01*
X128403361Y-88042667D01*
X128808211Y-88048622D01*
X128808211Y-88048622D01*
G37*
X128808211Y-88048622D02*
X129146595Y-88064882D01*
X129385369Y-88089035D01*
X129491387Y-88118672D01*
X129493445Y-88121936D01*
X129583872Y-88229329D01*
X129808587Y-88416583D01*
X130170605Y-88685994D01*
X130672947Y-89039857D01*
X130961000Y-89237788D01*
X131309863Y-89478473D01*
X131638969Y-89709859D01*
X131902951Y-89899838D01*
X132019334Y-89986841D01*
X132287043Y-90185644D01*
X132428807Y-90271576D01*
X132444546Y-90244636D01*
X132334180Y-90104821D01*
X132231000Y-89991856D01*
X132062630Y-89803870D01*
X131992910Y-89703526D01*
X132026678Y-89693928D01*
X132168771Y-89778177D01*
X132424026Y-89959378D01*
X132797281Y-90240632D01*
X133293372Y-90625042D01*
X133630248Y-90889365D01*
X134061171Y-91211871D01*
X134421737Y-91439216D01*
X134758586Y-91598655D01*
X134974326Y-91674839D01*
X135552395Y-91857280D01*
X135611541Y-92509976D01*
X135660620Y-92884669D01*
X135736401Y-93271802D01*
X135828596Y-93635305D01*
X135926922Y-93939106D01*
X136021093Y-94147136D01*
X136100098Y-94223334D01*
X136148031Y-94297460D01*
X136135353Y-94497328D01*
X136132492Y-94513064D01*
X136117717Y-94731462D01*
X136161588Y-94854105D01*
X136165402Y-94856728D01*
X136228863Y-94972734D01*
X136252667Y-95154152D01*
X136293121Y-95511394D01*
X136415467Y-95721981D01*
X136621182Y-95788277D01*
X136647724Y-95786961D01*
X136888269Y-95748881D01*
X137049443Y-95701202D01*
X137161702Y-95673526D01*
X137173891Y-95754006D01*
X137151981Y-95838886D01*
X137093137Y-96074407D01*
X137042627Y-96318834D01*
X137023446Y-96508545D01*
X137074527Y-96583936D01*
X137155989Y-96594000D01*
X137344526Y-96647021D01*
X137488152Y-96769882D01*
X137522667Y-96864934D01*
X137463999Y-96928476D01*
X137343927Y-96916370D01*
X137246342Y-96839927D01*
X137240073Y-96826834D01*
X137201820Y-96764442D01*
X137190684Y-96826834D01*
X137142369Y-96871341D01*
X136991612Y-96902495D01*
X136719893Y-96921921D01*
X136308693Y-96931245D01*
X135985545Y-96932667D01*
X135515549Y-96931694D01*
X135192142Y-96926556D01*
X134992579Y-96913927D01*
X134894116Y-96890478D01*
X134874010Y-96852883D01*
X134909517Y-96797814D01*
X134927211Y-96777833D01*
X135015363Y-96663427D01*
X135054815Y-96540868D01*
X135044698Y-96369167D01*
X134984144Y-96107335D01*
X134907201Y-95834389D01*
X134808489Y-95487912D01*
X134715417Y-95151727D01*
X134659748Y-94943000D01*
X134587867Y-94699769D01*
X134476956Y-94363712D01*
X134348704Y-94000078D01*
X134323923Y-93932601D01*
X134075418Y-93260868D01*
X133292883Y-92768434D01*
X132969821Y-92568671D01*
X132699055Y-92407853D01*
X132512658Y-92304617D01*
X132445425Y-92276000D01*
X132364668Y-92340580D01*
X132232691Y-92504698D01*
X132156383Y-92614667D01*
X131989398Y-92850307D01*
X131901578Y-92941844D01*
X131899883Y-92892124D01*
X131991271Y-92703993D01*
X132063573Y-92576719D01*
X132284284Y-92200104D01*
X129865809Y-90586320D01*
X129203334Y-90142707D01*
X128669928Y-89781374D01*
X128252545Y-89492535D01*
X127938137Y-89266403D01*
X127713655Y-89093189D01*
X127566053Y-88963108D01*
X127482284Y-88866372D01*
X127449298Y-88793194D01*
X127447333Y-88772185D01*
X127430240Y-88539584D01*
X127394417Y-88307250D01*
X127341500Y-88042667D01*
X128403361Y-88042667D01*
X128808211Y-88048622D01*
G36*
X139597000Y-96932362D02*
X139279500Y-96932514D01*
X138962000Y-96932667D01*
X138962000Y-96352420D01*
X138953035Y-95948498D01*
X138929913Y-95516522D01*
X138907606Y-95251753D01*
X138853211Y-94731334D01*
X139613430Y-94731334D01*
X139597000Y-96932362D01*
X139597000Y-96932362D01*
G37*
X139597000Y-96932362D02*
X139279500Y-96932514D01*
X138962000Y-96932667D01*
X138962000Y-96352420D01*
X138953035Y-95948498D01*
X138929913Y-95516522D01*
X138907606Y-95251753D01*
X138853211Y-94731334D01*
X139613430Y-94731334D01*
X139597000Y-96932362D01*
G36*
X143100061Y-93578120D02*
X143339768Y-93762249D01*
X143611119Y-93912364D01*
X143618667Y-93915574D01*
X144001228Y-94152407D01*
X144277900Y-94480820D01*
X144416398Y-94858334D01*
X144427577Y-95090056D01*
X144385691Y-95368169D01*
X144282636Y-95736037D01*
X144213453Y-95944441D01*
X144100846Y-96285403D01*
X144013469Y-96573454D01*
X143963951Y-96765802D01*
X143957334Y-96812275D01*
X143925042Y-96867809D01*
X143810840Y-96903954D01*
X143588735Y-96924230D01*
X143232733Y-96932158D01*
X143068334Y-96932667D01*
X142672592Y-96931075D01*
X142416001Y-96921995D01*
X142268382Y-96898969D01*
X142199556Y-96855538D01*
X142179343Y-96785247D01*
X142178060Y-96742167D01*
X142214959Y-96578787D01*
X142313877Y-96317535D01*
X142455193Y-96008890D01*
X142490021Y-95939646D01*
X142803254Y-95327626D01*
X142552313Y-95008313D01*
X142364102Y-94759012D01*
X142195639Y-94520093D01*
X142153734Y-94456167D01*
X142006097Y-94223334D01*
X142287656Y-94223334D01*
X142456205Y-94209953D01*
X142564143Y-94142995D01*
X142652333Y-93982234D01*
X142723502Y-93794278D01*
X142877789Y-93365222D01*
X143100061Y-93578120D01*
X143100061Y-93578120D01*
G37*
X143100061Y-93578120D02*
X143339768Y-93762249D01*
X143611119Y-93912364D01*
X143618667Y-93915574D01*
X144001228Y-94152407D01*
X144277900Y-94480820D01*
X144416398Y-94858334D01*
X144427577Y-95090056D01*
X144385691Y-95368169D01*
X144282636Y-95736037D01*
X144213453Y-95944441D01*
X144100846Y-96285403D01*
X144013469Y-96573454D01*
X143963951Y-96765802D01*
X143957334Y-96812275D01*
X143925042Y-96867809D01*
X143810840Y-96903954D01*
X143588735Y-96924230D01*
X143232733Y-96932158D01*
X143068334Y-96932667D01*
X142672592Y-96931075D01*
X142416001Y-96921995D01*
X142268382Y-96898969D01*
X142199556Y-96855538D01*
X142179343Y-96785247D01*
X142178060Y-96742167D01*
X142214959Y-96578787D01*
X142313877Y-96317535D01*
X142455193Y-96008890D01*
X142490021Y-95939646D01*
X142803254Y-95327626D01*
X142552313Y-95008313D01*
X142364102Y-94759012D01*
X142195639Y-94520093D01*
X142153734Y-94456167D01*
X142006097Y-94223334D01*
X142287656Y-94223334D01*
X142456205Y-94209953D01*
X142564143Y-94142995D01*
X142652333Y-93982234D01*
X142723502Y-93794278D01*
X142877789Y-93365222D01*
X143100061Y-93578120D01*
G36*
X137861334Y-95535667D02*
X137819000Y-95578000D01*
X137776667Y-95535667D01*
X137819000Y-95493334D01*
X137861334Y-95535667D01*
X137861334Y-95535667D01*
G37*
X137861334Y-95535667D02*
X137819000Y-95578000D01*
X137776667Y-95535667D01*
X137819000Y-95493334D01*
X137861334Y-95535667D01*
G36*
X137758838Y-95291036D02*
X137819059Y-95385927D01*
X137731565Y-95418280D01*
X137716505Y-95419472D01*
X137505723Y-95437284D01*
X137371246Y-95450402D01*
X137231898Y-95433080D01*
X137211025Y-95376096D01*
X137311285Y-95303929D01*
X137403544Y-95296748D01*
X137557696Y-95277396D01*
X137606098Y-95242618D01*
X137688581Y-95236313D01*
X137758838Y-95291036D01*
X137758838Y-95291036D01*
G37*
X137758838Y-95291036D02*
X137819059Y-95385927D01*
X137731565Y-95418280D01*
X137716505Y-95419472D01*
X137505723Y-95437284D01*
X137371246Y-95450402D01*
X137231898Y-95433080D01*
X137211025Y-95376096D01*
X137311285Y-95303929D01*
X137403544Y-95296748D01*
X137557696Y-95277396D01*
X137606098Y-95242618D01*
X137688581Y-95236313D01*
X137758838Y-95291036D01*
G36*
X140522400Y-91735106D02*
X140652690Y-91850761D01*
X140700149Y-91945155D01*
X140757088Y-92037806D01*
X140880826Y-92087094D01*
X141113516Y-92105318D01*
X141253706Y-92106667D01*
X141533528Y-92111593D01*
X141683941Y-92137057D01*
X141744808Y-92199092D01*
X141756000Y-92308656D01*
X141716478Y-92530777D01*
X141629522Y-92753156D01*
X141549097Y-92994205D01*
X141505126Y-93294646D01*
X141502378Y-93376667D01*
X141501712Y-93757667D01*
X141057356Y-93767421D01*
X140756633Y-93762203D01*
X140494051Y-93737931D01*
X140401334Y-93719891D01*
X140302995Y-93687001D01*
X140242533Y-93630317D01*
X140212619Y-93515620D01*
X140205927Y-93308690D01*
X140215130Y-92975307D01*
X140219041Y-92868560D01*
X140248170Y-92363664D01*
X140294531Y-92014047D01*
X140361740Y-91806202D01*
X140453412Y-91726622D01*
X140522400Y-91735106D01*
X140522400Y-91735106D01*
G37*
X140522400Y-91735106D02*
X140652690Y-91850761D01*
X140700149Y-91945155D01*
X140757088Y-92037806D01*
X140880826Y-92087094D01*
X141113516Y-92105318D01*
X141253706Y-92106667D01*
X141533528Y-92111593D01*
X141683941Y-92137057D01*
X141744808Y-92199092D01*
X141756000Y-92308656D01*
X141716478Y-92530777D01*
X141629522Y-92753156D01*
X141549097Y-92994205D01*
X141505126Y-93294646D01*
X141502378Y-93376667D01*
X141501712Y-93757667D01*
X141057356Y-93767421D01*
X140756633Y-93762203D01*
X140494051Y-93737931D01*
X140401334Y-93719891D01*
X140302995Y-93687001D01*
X140242533Y-93630317D01*
X140212619Y-93515620D01*
X140205927Y-93308690D01*
X140215130Y-92975307D01*
X140219041Y-92868560D01*
X140248170Y-92363664D01*
X140294531Y-92014047D01*
X140361740Y-91806202D01*
X140453412Y-91726622D01*
X140522400Y-91735106D01*
G36*
X137898296Y-91467446D02*
X138253401Y-91588415D01*
X138314901Y-91625287D01*
X138403559Y-91694031D01*
X138458258Y-91783310D01*
X138485333Y-91929490D01*
X138491114Y-92168937D01*
X138481934Y-92538016D01*
X138480645Y-92577173D01*
X138459344Y-92944286D01*
X138424559Y-93253788D01*
X138382020Y-93462215D01*
X138356484Y-93519149D01*
X138196852Y-93597912D01*
X137925917Y-93617124D01*
X137912348Y-93616433D01*
X137643334Y-93618624D01*
X137419583Y-93648597D01*
X137386301Y-93658174D01*
X137162752Y-93651401D01*
X137008798Y-93558273D01*
X136911253Y-93465494D01*
X136853986Y-93354272D01*
X136828404Y-93182433D01*
X136825911Y-92907806D01*
X136831547Y-92688479D01*
X136847043Y-92279212D01*
X136871614Y-92003057D01*
X136916896Y-91823811D01*
X136994521Y-91705272D01*
X137116122Y-91611237D01*
X137192667Y-91564682D01*
X137521020Y-91458256D01*
X137898296Y-91467446D01*
X137898296Y-91467446D01*
G37*
X137898296Y-91467446D02*
X138253401Y-91588415D01*
X138314901Y-91625287D01*
X138403559Y-91694031D01*
X138458258Y-91783310D01*
X138485333Y-91929490D01*
X138491114Y-92168937D01*
X138481934Y-92538016D01*
X138480645Y-92577173D01*
X138459344Y-92944286D01*
X138424559Y-93253788D01*
X138382020Y-93462215D01*
X138356484Y-93519149D01*
X138196852Y-93597912D01*
X137925917Y-93617124D01*
X137912348Y-93616433D01*
X137643334Y-93618624D01*
X137419583Y-93648597D01*
X137386301Y-93658174D01*
X137162752Y-93651401D01*
X137008798Y-93558273D01*
X136911253Y-93465494D01*
X136853986Y-93354272D01*
X136828404Y-93182433D01*
X136825911Y-92907806D01*
X136831547Y-92688479D01*
X136847043Y-92279212D01*
X136871614Y-92003057D01*
X136916896Y-91823811D01*
X136994521Y-91705272D01*
X137116122Y-91611237D01*
X137192667Y-91564682D01*
X137521020Y-91458256D01*
X137898296Y-91467446D01*
G36*
X132048160Y-85188572D02*
X132356974Y-85262017D01*
X132505230Y-85383932D01*
X132503470Y-85527399D01*
X132524691Y-85634614D01*
X132662322Y-85794651D01*
X132929078Y-86021089D01*
X133061213Y-86123028D01*
X133374819Y-86352187D01*
X133675939Y-86557643D01*
X133912698Y-86704426D01*
X133966667Y-86733430D01*
X134208219Y-86886028D01*
X134474344Y-87098886D01*
X134577613Y-87195530D01*
X134820248Y-87405011D01*
X135138776Y-87638344D01*
X135424280Y-87820696D01*
X135770796Y-88058863D01*
X136129406Y-88360193D01*
X136371157Y-88603891D01*
X136596402Y-88879394D01*
X136689815Y-89060739D01*
X136645821Y-89166610D01*
X136458843Y-89215689D01*
X136185289Y-89226704D01*
X135802745Y-89287471D01*
X135423962Y-89439667D01*
X135174557Y-89560200D01*
X134971759Y-89636860D01*
X134898068Y-89651334D01*
X134780972Y-89612422D01*
X134546198Y-89505461D01*
X134223827Y-89345108D01*
X133843941Y-89146020D01*
X133687238Y-89061339D01*
X133087345Y-88723768D01*
X132609102Y-88426197D01*
X132218309Y-88142417D01*
X131880763Y-87846220D01*
X131562262Y-87511396D01*
X131369628Y-87285360D01*
X130918667Y-86739720D01*
X130918667Y-85164000D01*
X131579818Y-85164000D01*
X132048160Y-85188572D01*
X132048160Y-85188572D01*
G37*
X132048160Y-85188572D02*
X132356974Y-85262017D01*
X132505230Y-85383932D01*
X132503470Y-85527399D01*
X132524691Y-85634614D01*
X132662322Y-85794651D01*
X132929078Y-86021089D01*
X133061213Y-86123028D01*
X133374819Y-86352187D01*
X133675939Y-86557643D01*
X133912698Y-86704426D01*
X133966667Y-86733430D01*
X134208219Y-86886028D01*
X134474344Y-87098886D01*
X134577613Y-87195530D01*
X134820248Y-87405011D01*
X135138776Y-87638344D01*
X135424280Y-87820696D01*
X135770796Y-88058863D01*
X136129406Y-88360193D01*
X136371157Y-88603891D01*
X136596402Y-88879394D01*
X136689815Y-89060739D01*
X136645821Y-89166610D01*
X136458843Y-89215689D01*
X136185289Y-89226704D01*
X135802745Y-89287471D01*
X135423962Y-89439667D01*
X135174557Y-89560200D01*
X134971759Y-89636860D01*
X134898068Y-89651334D01*
X134780972Y-89612422D01*
X134546198Y-89505461D01*
X134223827Y-89345108D01*
X133843941Y-89146020D01*
X133687238Y-89061339D01*
X133087345Y-88723768D01*
X132609102Y-88426197D01*
X132218309Y-88142417D01*
X131880763Y-87846220D01*
X131562262Y-87511396D01*
X131369628Y-87285360D01*
X130918667Y-86739720D01*
X130918667Y-85164000D01*
X131579818Y-85164000D01*
X132048160Y-85188572D01*
G36*
X131596000Y-89439667D02*
X131553667Y-89482000D01*
X131511334Y-89439667D01*
X131553667Y-89397334D01*
X131596000Y-89439667D01*
X131596000Y-89439667D01*
G37*
X131596000Y-89439667D02*
X131553667Y-89482000D01*
X131511334Y-89439667D01*
X131553667Y-89397334D01*
X131596000Y-89439667D01*
G36*
X148190667Y-85784889D02*
X148183503Y-86185961D01*
X148160309Y-86437322D01*
X148118530Y-86558059D01*
X148084834Y-86575755D01*
X147985502Y-86611964D01*
X147753321Y-86714338D01*
X147407230Y-86873980D01*
X146966167Y-87081993D01*
X146449071Y-87329480D01*
X145874881Y-87607544D01*
X145531577Y-87775199D01*
X144929850Y-88067106D01*
X144370811Y-88332908D01*
X143874076Y-88563695D01*
X143459258Y-88750561D01*
X143145974Y-88884599D01*
X142953836Y-88956900D01*
X142906910Y-88967124D01*
X142703536Y-88927075D01*
X142475667Y-88843942D01*
X142249122Y-88778911D01*
X141935737Y-88735020D01*
X141711317Y-88723819D01*
X141400480Y-88709436D01*
X141204877Y-88662081D01*
X141071366Y-88566781D01*
X141042971Y-88535475D01*
X140946610Y-88408171D01*
X140951562Y-88317622D01*
X141071899Y-88202192D01*
X141129645Y-88155856D01*
X141349118Y-88013154D01*
X141647042Y-87858408D01*
X141840324Y-87773656D01*
X142207949Y-87619069D01*
X142640245Y-87426365D01*
X143103375Y-87211852D01*
X143563500Y-86991837D01*
X143986782Y-86782626D01*
X144339382Y-86600528D01*
X144587464Y-86461848D01*
X144661344Y-86414166D01*
X145064267Y-86142279D01*
X145437334Y-85920554D01*
X145749760Y-85765384D01*
X145970760Y-85693164D01*
X146020260Y-85690471D01*
X146182667Y-85664654D01*
X146427148Y-85583253D01*
X146708962Y-85466772D01*
X146983367Y-85335717D01*
X147205625Y-85210594D01*
X147330994Y-85111906D01*
X147344000Y-85083782D01*
X147420848Y-85031508D01*
X147620821Y-84999822D01*
X147767334Y-84994667D01*
X148190667Y-84994667D01*
X148190667Y-85784889D01*
X148190667Y-85784889D01*
G37*
X148190667Y-85784889D02*
X148183503Y-86185961D01*
X148160309Y-86437322D01*
X148118530Y-86558059D01*
X148084834Y-86575755D01*
X147985502Y-86611964D01*
X147753321Y-86714338D01*
X147407230Y-86873980D01*
X146966167Y-87081993D01*
X146449071Y-87329480D01*
X145874881Y-87607544D01*
X145531577Y-87775199D01*
X144929850Y-88067106D01*
X144370811Y-88332908D01*
X143874076Y-88563695D01*
X143459258Y-88750561D01*
X143145974Y-88884599D01*
X142953836Y-88956900D01*
X142906910Y-88967124D01*
X142703536Y-88927075D01*
X142475667Y-88843942D01*
X142249122Y-88778911D01*
X141935737Y-88735020D01*
X141711317Y-88723819D01*
X141400480Y-88709436D01*
X141204877Y-88662081D01*
X141071366Y-88566781D01*
X141042971Y-88535475D01*
X140946610Y-88408171D01*
X140951562Y-88317622D01*
X141071899Y-88202192D01*
X141129645Y-88155856D01*
X141349118Y-88013154D01*
X141647042Y-87858408D01*
X141840324Y-87773656D01*
X142207949Y-87619069D01*
X142640245Y-87426365D01*
X143103375Y-87211852D01*
X143563500Y-86991837D01*
X143986782Y-86782626D01*
X144339382Y-86600528D01*
X144587464Y-86461848D01*
X144661344Y-86414166D01*
X145064267Y-86142279D01*
X145437334Y-85920554D01*
X145749760Y-85765384D01*
X145970760Y-85693164D01*
X146020260Y-85690471D01*
X146182667Y-85664654D01*
X146427148Y-85583253D01*
X146708962Y-85466772D01*
X146983367Y-85335717D01*
X147205625Y-85210594D01*
X147330994Y-85111906D01*
X147344000Y-85083782D01*
X147420848Y-85031508D01*
X147620821Y-84999822D01*
X147767334Y-84994667D01*
X148190667Y-84994667D01*
X148190667Y-85784889D01*
G36*
X166206913Y-69093593D02*
X166521000Y-69119667D01*
X166495689Y-69580800D01*
X166459453Y-69866794D01*
X166383281Y-70250960D01*
X166280402Y-70670698D01*
X166220522Y-70882977D01*
X166111943Y-71291619D01*
X166027096Y-71693034D01*
X165977840Y-72026836D01*
X165970216Y-72157511D01*
X165956819Y-72393020D01*
X165921014Y-72729168D01*
X165868837Y-73127233D01*
X165806325Y-73548490D01*
X165739516Y-73954216D01*
X165674448Y-74305687D01*
X165617158Y-74564180D01*
X165575695Y-74687940D01*
X165551900Y-74742024D01*
X165530603Y-74834236D01*
X165510244Y-74983600D01*
X165489264Y-75209142D01*
X165466102Y-75529887D01*
X165439199Y-75964861D01*
X165406995Y-76533090D01*
X165372789Y-77163000D01*
X165342775Y-77704369D01*
X165312402Y-78220916D01*
X165283973Y-78675664D01*
X165259794Y-79031635D01*
X165243539Y-79237334D01*
X165214663Y-79587844D01*
X165190735Y-79941350D01*
X165183490Y-80077039D01*
X165155811Y-80306888D01*
X165106045Y-80449722D01*
X165081667Y-80470014D01*
X164962013Y-80458107D01*
X164730797Y-80408584D01*
X164446667Y-80334502D01*
X164099170Y-80251334D01*
X163758694Y-80193022D01*
X163545559Y-80174360D01*
X163271195Y-80137652D01*
X163146049Y-80041667D01*
X163031200Y-79937082D01*
X162925324Y-79914667D01*
X162783535Y-79857799D01*
X162753334Y-79736275D01*
X162722760Y-79609446D01*
X162609079Y-79618535D01*
X162605167Y-79620163D01*
X162327081Y-79715726D01*
X162149002Y-79710075D01*
X162029877Y-79595673D01*
X161984350Y-79506216D01*
X161829447Y-79294120D01*
X161613945Y-79211114D01*
X161406740Y-79205039D01*
X161275900Y-79246415D01*
X161136371Y-79309264D01*
X160963494Y-79316742D01*
X160832779Y-79272638D01*
X160806000Y-79222834D01*
X160856691Y-79081140D01*
X160920126Y-78990000D01*
X161009705Y-78830481D01*
X161105070Y-78580620D01*
X161142869Y-78453905D01*
X161225731Y-78233736D01*
X161377794Y-77908534D01*
X161579457Y-77517446D01*
X161811121Y-77099618D01*
X161882313Y-76976998D01*
X162128766Y-76543881D01*
X162360934Y-76111906D01*
X162555862Y-75725389D01*
X162690597Y-75428651D01*
X162710821Y-75377330D01*
X162854213Y-75054680D01*
X163058525Y-74666630D01*
X163285364Y-74284929D01*
X163342714Y-74196455D01*
X163557092Y-73864880D01*
X163752990Y-73548129D01*
X163897979Y-73299101D01*
X163931974Y-73235219D01*
X164055865Y-72993996D01*
X164219225Y-72679665D01*
X164353836Y-72422791D01*
X164523703Y-72048397D01*
X164580811Y-71780441D01*
X164573123Y-71699524D01*
X164576298Y-71527550D01*
X164663406Y-71300636D01*
X164848054Y-70984408D01*
X164869344Y-70951285D01*
X165078599Y-70608625D01*
X165313643Y-70195077D01*
X165527936Y-69792864D01*
X165552959Y-69743479D01*
X165892825Y-69067519D01*
X166206913Y-69093593D01*
X166206913Y-69093593D01*
G37*
X166206913Y-69093593D02*
X166521000Y-69119667D01*
X166495689Y-69580800D01*
X166459453Y-69866794D01*
X166383281Y-70250960D01*
X166280402Y-70670698D01*
X166220522Y-70882977D01*
X166111943Y-71291619D01*
X166027096Y-71693034D01*
X165977840Y-72026836D01*
X165970216Y-72157511D01*
X165956819Y-72393020D01*
X165921014Y-72729168D01*
X165868837Y-73127233D01*
X165806325Y-73548490D01*
X165739516Y-73954216D01*
X165674448Y-74305687D01*
X165617158Y-74564180D01*
X165575695Y-74687940D01*
X165551900Y-74742024D01*
X165530603Y-74834236D01*
X165510244Y-74983600D01*
X165489264Y-75209142D01*
X165466102Y-75529887D01*
X165439199Y-75964861D01*
X165406995Y-76533090D01*
X165372789Y-77163000D01*
X165342775Y-77704369D01*
X165312402Y-78220916D01*
X165283973Y-78675664D01*
X165259794Y-79031635D01*
X165243539Y-79237334D01*
X165214663Y-79587844D01*
X165190735Y-79941350D01*
X165183490Y-80077039D01*
X165155811Y-80306888D01*
X165106045Y-80449722D01*
X165081667Y-80470014D01*
X164962013Y-80458107D01*
X164730797Y-80408584D01*
X164446667Y-80334502D01*
X164099170Y-80251334D01*
X163758694Y-80193022D01*
X163545559Y-80174360D01*
X163271195Y-80137652D01*
X163146049Y-80041667D01*
X163031200Y-79937082D01*
X162925324Y-79914667D01*
X162783535Y-79857799D01*
X162753334Y-79736275D01*
X162722760Y-79609446D01*
X162609079Y-79618535D01*
X162605167Y-79620163D01*
X162327081Y-79715726D01*
X162149002Y-79710075D01*
X162029877Y-79595673D01*
X161984350Y-79506216D01*
X161829447Y-79294120D01*
X161613945Y-79211114D01*
X161406740Y-79205039D01*
X161275900Y-79246415D01*
X161136371Y-79309264D01*
X160963494Y-79316742D01*
X160832779Y-79272638D01*
X160806000Y-79222834D01*
X160856691Y-79081140D01*
X160920126Y-78990000D01*
X161009705Y-78830481D01*
X161105070Y-78580620D01*
X161142869Y-78453905D01*
X161225731Y-78233736D01*
X161377794Y-77908534D01*
X161579457Y-77517446D01*
X161811121Y-77099618D01*
X161882313Y-76976998D01*
X162128766Y-76543881D01*
X162360934Y-76111906D01*
X162555862Y-75725389D01*
X162690597Y-75428651D01*
X162710821Y-75377330D01*
X162854213Y-75054680D01*
X163058525Y-74666630D01*
X163285364Y-74284929D01*
X163342714Y-74196455D01*
X163557092Y-73864880D01*
X163752990Y-73548129D01*
X163897979Y-73299101D01*
X163931974Y-73235219D01*
X164055865Y-72993996D01*
X164219225Y-72679665D01*
X164353836Y-72422791D01*
X164523703Y-72048397D01*
X164580811Y-71780441D01*
X164573123Y-71699524D01*
X164576298Y-71527550D01*
X164663406Y-71300636D01*
X164848054Y-70984408D01*
X164869344Y-70951285D01*
X165078599Y-70608625D01*
X165313643Y-70195077D01*
X165527936Y-69792864D01*
X165552959Y-69743479D01*
X165892825Y-69067519D01*
X166206913Y-69093593D01*
G36*
X162037020Y-66342151D02*
X162126809Y-66497826D01*
X162075697Y-66707234D01*
X162014570Y-66903296D01*
X161987617Y-67145601D01*
X161955220Y-67415179D01*
X161880363Y-67714663D01*
X161864635Y-67761167D01*
X161795776Y-68017966D01*
X161816082Y-68174997D01*
X161837834Y-68207412D01*
X161874396Y-68322673D01*
X161852553Y-68531905D01*
X161768793Y-68863777D01*
X161749192Y-68930912D01*
X161573748Y-69662896D01*
X161442566Y-70505251D01*
X161363910Y-71402886D01*
X161356829Y-71546216D01*
X161323398Y-71976844D01*
X161264314Y-72461336D01*
X161198919Y-72858549D01*
X161150101Y-73180441D01*
X161102151Y-73622980D01*
X161059406Y-74137518D01*
X161026201Y-74675403D01*
X161015245Y-74919334D01*
X160966806Y-75770269D01*
X160894153Y-76454179D01*
X160798177Y-76967834D01*
X160710144Y-77390793D01*
X160640081Y-77855464D01*
X160605178Y-78232436D01*
X160582832Y-78559993D01*
X160544424Y-78767932D01*
X160473073Y-78905963D01*
X160351899Y-79023800D01*
X160330622Y-79041015D01*
X160086330Y-79184878D01*
X159852856Y-79238242D01*
X159685462Y-79188971D01*
X159680090Y-79183868D01*
X159672401Y-79076744D01*
X159715172Y-78964950D01*
X159770061Y-78819009D01*
X159764899Y-78760677D01*
X159667381Y-78738146D01*
X159445867Y-78714542D01*
X159145595Y-78694524D01*
X159101872Y-78692368D01*
X158621441Y-78649213D01*
X158265803Y-78573479D01*
X158051789Y-78469636D01*
X157999713Y-78399844D01*
X157892542Y-78331533D01*
X157652507Y-78298734D01*
X157312681Y-78303214D01*
X156932500Y-78342893D01*
X156637487Y-78369473D01*
X156499763Y-78341747D01*
X156488000Y-78316041D01*
X156430357Y-78267506D01*
X156266035Y-78309916D01*
X156032430Y-78348847D01*
X155942611Y-78310103D01*
X155882972Y-78172796D01*
X155866920Y-77946812D01*
X155892280Y-77706507D01*
X155956882Y-77526239D01*
X155965878Y-77513790D01*
X156033735Y-77387106D01*
X156133871Y-77154462D01*
X156228588Y-76909000D01*
X156375910Y-76557271D01*
X156553551Y-76200779D01*
X156662812Y-76013165D01*
X156840741Y-75693172D01*
X157008073Y-75326130D01*
X157068574Y-75166499D01*
X157181692Y-74876543D01*
X157345478Y-74503620D01*
X157530441Y-74113923D01*
X157593609Y-73988000D01*
X157750236Y-73670377D01*
X157869339Y-73408573D01*
X157934743Y-73239259D01*
X157941862Y-73198427D01*
X157979055Y-73093824D01*
X158094849Y-72925383D01*
X158124515Y-72889107D01*
X158222253Y-72743212D01*
X158380626Y-72471879D01*
X158585182Y-72101447D01*
X158821467Y-71658251D01*
X159075029Y-71168630D01*
X159154809Y-71011681D01*
X159407952Y-70515182D01*
X159644440Y-70058384D01*
X159850606Y-69667136D01*
X160012782Y-69367285D01*
X160117302Y-69184683D01*
X160136488Y-69155022D01*
X160331916Y-68855801D01*
X160547300Y-68494815D01*
X160761316Y-68111682D01*
X160952641Y-67746017D01*
X161099952Y-67437438D01*
X161181926Y-67225560D01*
X161187934Y-67201522D01*
X161260889Y-66967131D01*
X161353417Y-66794127D01*
X161355742Y-66791334D01*
X161468840Y-66605459D01*
X161521358Y-66473834D01*
X161624218Y-66324140D01*
X161818647Y-66283334D01*
X162037020Y-66342151D01*
X162037020Y-66342151D01*
G37*
X162037020Y-66342151D02*
X162126809Y-66497826D01*
X162075697Y-66707234D01*
X162014570Y-66903296D01*
X161987617Y-67145601D01*
X161955220Y-67415179D01*
X161880363Y-67714663D01*
X161864635Y-67761167D01*
X161795776Y-68017966D01*
X161816082Y-68174997D01*
X161837834Y-68207412D01*
X161874396Y-68322673D01*
X161852553Y-68531905D01*
X161768793Y-68863777D01*
X161749192Y-68930912D01*
X161573748Y-69662896D01*
X161442566Y-70505251D01*
X161363910Y-71402886D01*
X161356829Y-71546216D01*
X161323398Y-71976844D01*
X161264314Y-72461336D01*
X161198919Y-72858549D01*
X161150101Y-73180441D01*
X161102151Y-73622980D01*
X161059406Y-74137518D01*
X161026201Y-74675403D01*
X161015245Y-74919334D01*
X160966806Y-75770269D01*
X160894153Y-76454179D01*
X160798177Y-76967834D01*
X160710144Y-77390793D01*
X160640081Y-77855464D01*
X160605178Y-78232436D01*
X160582832Y-78559993D01*
X160544424Y-78767932D01*
X160473073Y-78905963D01*
X160351899Y-79023800D01*
X160330622Y-79041015D01*
X160086330Y-79184878D01*
X159852856Y-79238242D01*
X159685462Y-79188971D01*
X159680090Y-79183868D01*
X159672401Y-79076744D01*
X159715172Y-78964950D01*
X159770061Y-78819009D01*
X159764899Y-78760677D01*
X159667381Y-78738146D01*
X159445867Y-78714542D01*
X159145595Y-78694524D01*
X159101872Y-78692368D01*
X158621441Y-78649213D01*
X158265803Y-78573479D01*
X158051789Y-78469636D01*
X157999713Y-78399844D01*
X157892542Y-78331533D01*
X157652507Y-78298734D01*
X157312681Y-78303214D01*
X156932500Y-78342893D01*
X156637487Y-78369473D01*
X156499763Y-78341747D01*
X156488000Y-78316041D01*
X156430357Y-78267506D01*
X156266035Y-78309916D01*
X156032430Y-78348847D01*
X155942611Y-78310103D01*
X155882972Y-78172796D01*
X155866920Y-77946812D01*
X155892280Y-77706507D01*
X155956882Y-77526239D01*
X155965878Y-77513790D01*
X156033735Y-77387106D01*
X156133871Y-77154462D01*
X156228588Y-76909000D01*
X156375910Y-76557271D01*
X156553551Y-76200779D01*
X156662812Y-76013165D01*
X156840741Y-75693172D01*
X157008073Y-75326130D01*
X157068574Y-75166499D01*
X157181692Y-74876543D01*
X157345478Y-74503620D01*
X157530441Y-74113923D01*
X157593609Y-73988000D01*
X157750236Y-73670377D01*
X157869339Y-73408573D01*
X157934743Y-73239259D01*
X157941862Y-73198427D01*
X157979055Y-73093824D01*
X158094849Y-72925383D01*
X158124515Y-72889107D01*
X158222253Y-72743212D01*
X158380626Y-72471879D01*
X158585182Y-72101447D01*
X158821467Y-71658251D01*
X159075029Y-71168630D01*
X159154809Y-71011681D01*
X159407952Y-70515182D01*
X159644440Y-70058384D01*
X159850606Y-69667136D01*
X160012782Y-69367285D01*
X160117302Y-69184683D01*
X160136488Y-69155022D01*
X160331916Y-68855801D01*
X160547300Y-68494815D01*
X160761316Y-68111682D01*
X160952641Y-67746017D01*
X161099952Y-67437438D01*
X161181926Y-67225560D01*
X161187934Y-67201522D01*
X161260889Y-66967131D01*
X161353417Y-66794127D01*
X161355742Y-66791334D01*
X161468840Y-66605459D01*
X161521358Y-66473834D01*
X161624218Y-66324140D01*
X161818647Y-66283334D01*
X162037020Y-66342151D01*
G36*
X114450287Y-66158814D02*
X114535792Y-66322252D01*
X114541572Y-66346834D01*
X114684023Y-66948358D01*
X114829017Y-67453767D01*
X114999658Y-67935022D01*
X115219053Y-68464087D01*
X115227820Y-68484176D01*
X115430164Y-68960130D01*
X115648328Y-69494049D01*
X115848018Y-70001254D01*
X115930945Y-70220334D01*
X116116425Y-70695193D01*
X116337929Y-71226043D01*
X116556797Y-71721145D01*
X116626725Y-71871334D01*
X116808683Y-72274507D01*
X116979168Y-72686152D01*
X117112453Y-73042719D01*
X117158045Y-73183667D01*
X117264751Y-73501721D01*
X117416574Y-73900479D01*
X117585674Y-74307831D01*
X117636323Y-74422516D01*
X117779260Y-74750343D01*
X117890725Y-75024384D01*
X117955047Y-75205167D01*
X117964667Y-75249698D01*
X117994792Y-75373027D01*
X118073576Y-75601630D01*
X118178123Y-75871351D01*
X118294660Y-76174472D01*
X118385798Y-76441288D01*
X118427848Y-76596675D01*
X118499082Y-76808772D01*
X118565820Y-76919226D01*
X118622465Y-77050125D01*
X118569347Y-77223997D01*
X118549867Y-77261617D01*
X118470363Y-77489830D01*
X118457095Y-77671360D01*
X118411719Y-77895700D01*
X118252338Y-78071462D01*
X118048991Y-78136667D01*
X117894292Y-78207044D01*
X117842751Y-78289980D01*
X117739505Y-78416337D01*
X117537839Y-78551872D01*
X117446469Y-78596664D01*
X117098846Y-78750035D01*
X116896779Y-78514875D01*
X116756147Y-78365953D01*
X116661580Y-78334954D01*
X116554869Y-78406382D01*
X116539856Y-78419857D01*
X116382297Y-78528908D01*
X116285833Y-78560000D01*
X116192340Y-78616506D01*
X116186667Y-78644667D01*
X116106223Y-78694589D01*
X115876267Y-78713620D01*
X115513862Y-78701302D01*
X115170667Y-78671762D01*
X114846112Y-78635416D01*
X114656271Y-78583646D01*
X114568090Y-78478052D01*
X114548515Y-78280237D01*
X114563662Y-77966596D01*
X114568739Y-77656677D01*
X114558811Y-77229770D01*
X114535850Y-76737367D01*
X114501830Y-76230960D01*
X114493003Y-76122133D01*
X114456487Y-75672580D01*
X114426666Y-75277300D01*
X114405897Y-74969813D01*
X114396536Y-74783640D01*
X114396553Y-74750000D01*
X114408773Y-74404268D01*
X114412202Y-73918968D01*
X114407749Y-73323589D01*
X114396328Y-72647618D01*
X114378848Y-71920543D01*
X114356223Y-71171853D01*
X114329362Y-70431033D01*
X114299178Y-69727574D01*
X114266581Y-69090961D01*
X114232484Y-68550684D01*
X114197797Y-68136229D01*
X114189837Y-68061852D01*
X114142492Y-67607514D01*
X114103973Y-67168564D01*
X114078442Y-66797180D01*
X114070000Y-66559019D01*
X114076166Y-66299734D01*
X114107973Y-66167389D01*
X114185388Y-66119685D01*
X114280054Y-66114000D01*
X114450287Y-66158814D01*
X114450287Y-66158814D01*
G37*
X114450287Y-66158814D02*
X114535792Y-66322252D01*
X114541572Y-66346834D01*
X114684023Y-66948358D01*
X114829017Y-67453767D01*
X114999658Y-67935022D01*
X115219053Y-68464087D01*
X115227820Y-68484176D01*
X115430164Y-68960130D01*
X115648328Y-69494049D01*
X115848018Y-70001254D01*
X115930945Y-70220334D01*
X116116425Y-70695193D01*
X116337929Y-71226043D01*
X116556797Y-71721145D01*
X116626725Y-71871334D01*
X116808683Y-72274507D01*
X116979168Y-72686152D01*
X117112453Y-73042719D01*
X117158045Y-73183667D01*
X117264751Y-73501721D01*
X117416574Y-73900479D01*
X117585674Y-74307831D01*
X117636323Y-74422516D01*
X117779260Y-74750343D01*
X117890725Y-75024384D01*
X117955047Y-75205167D01*
X117964667Y-75249698D01*
X117994792Y-75373027D01*
X118073576Y-75601630D01*
X118178123Y-75871351D01*
X118294660Y-76174472D01*
X118385798Y-76441288D01*
X118427848Y-76596675D01*
X118499082Y-76808772D01*
X118565820Y-76919226D01*
X118622465Y-77050125D01*
X118569347Y-77223997D01*
X118549867Y-77261617D01*
X118470363Y-77489830D01*
X118457095Y-77671360D01*
X118411719Y-77895700D01*
X118252338Y-78071462D01*
X118048991Y-78136667D01*
X117894292Y-78207044D01*
X117842751Y-78289980D01*
X117739505Y-78416337D01*
X117537839Y-78551872D01*
X117446469Y-78596664D01*
X117098846Y-78750035D01*
X116896779Y-78514875D01*
X116756147Y-78365953D01*
X116661580Y-78334954D01*
X116554869Y-78406382D01*
X116539856Y-78419857D01*
X116382297Y-78528908D01*
X116285833Y-78560000D01*
X116192340Y-78616506D01*
X116186667Y-78644667D01*
X116106223Y-78694589D01*
X115876267Y-78713620D01*
X115513862Y-78701302D01*
X115170667Y-78671762D01*
X114846112Y-78635416D01*
X114656271Y-78583646D01*
X114568090Y-78478052D01*
X114548515Y-78280237D01*
X114563662Y-77966596D01*
X114568739Y-77656677D01*
X114558811Y-77229770D01*
X114535850Y-76737367D01*
X114501830Y-76230960D01*
X114493003Y-76122133D01*
X114456487Y-75672580D01*
X114426666Y-75277300D01*
X114405897Y-74969813D01*
X114396536Y-74783640D01*
X114396553Y-74750000D01*
X114408773Y-74404268D01*
X114412202Y-73918968D01*
X114407749Y-73323589D01*
X114396328Y-72647618D01*
X114378848Y-71920543D01*
X114356223Y-71171853D01*
X114329362Y-70431033D01*
X114299178Y-69727574D01*
X114266581Y-69090961D01*
X114232484Y-68550684D01*
X114197797Y-68136229D01*
X114189837Y-68061852D01*
X114142492Y-67607514D01*
X114103973Y-67168564D01*
X114078442Y-66797180D01*
X114070000Y-66559019D01*
X114076166Y-66299734D01*
X114107973Y-66167389D01*
X114185388Y-66119685D01*
X114280054Y-66114000D01*
X114450287Y-66158814D01*
G36*
X116694667Y-78517667D02*
X116652334Y-78560000D01*
X116610000Y-78517667D01*
X116652334Y-78475334D01*
X116694667Y-78517667D01*
X116694667Y-78517667D01*
G37*
X116694667Y-78517667D02*
X116652334Y-78560000D01*
X116610000Y-78517667D01*
X116652334Y-78475334D01*
X116694667Y-78517667D01*
G36*
X158044735Y-65285369D02*
X158018096Y-65584232D01*
X157962934Y-65852458D01*
X157939920Y-65920369D01*
X157872681Y-66109910D01*
X157777059Y-66407852D01*
X157670410Y-66759559D01*
X157636365Y-66876000D01*
X157538644Y-67227882D01*
X157490039Y-67453768D01*
X157486958Y-67588586D01*
X157525810Y-67667260D01*
X157552560Y-67691042D01*
X157630481Y-67796059D01*
X157609603Y-67957087D01*
X157583639Y-68029709D01*
X157534449Y-68197194D01*
X157461826Y-68494773D01*
X157374058Y-68886204D01*
X157279435Y-69335245D01*
X157237514Y-69543000D01*
X157129045Y-70050045D01*
X157002415Y-70580794D01*
X156866433Y-71104076D01*
X156729907Y-71588719D01*
X156601645Y-72003549D01*
X156490455Y-72317395D01*
X156405147Y-72499084D01*
X156400167Y-72506334D01*
X156322185Y-72683894D01*
X156238510Y-72985316D01*
X156157842Y-73365740D01*
X156088880Y-73780308D01*
X156040324Y-74184161D01*
X156022511Y-74453667D01*
X155990882Y-74873434D01*
X155930205Y-75316744D01*
X155855641Y-75678939D01*
X155780092Y-76016487D01*
X155770515Y-76206906D01*
X155803484Y-76257495D01*
X155882151Y-76361946D01*
X155896772Y-76559573D01*
X155854075Y-76789719D01*
X155760791Y-76991726D01*
X155716005Y-77045996D01*
X155560484Y-77257988D01*
X155477665Y-77448162D01*
X155344164Y-77657492D01*
X155143108Y-77761843D01*
X154920940Y-77884473D01*
X154767522Y-78054182D01*
X154765495Y-78058177D01*
X154632524Y-78211591D01*
X154456780Y-78292644D01*
X154301192Y-78279809D01*
X154252048Y-78233816D01*
X154235628Y-78092300D01*
X154256396Y-78008762D01*
X154264509Y-77872792D01*
X154153288Y-77788621D01*
X153907642Y-77751291D01*
X153512482Y-77755844D01*
X153490131Y-77756998D01*
X153171406Y-77761184D01*
X152920792Y-77740868D01*
X152790485Y-77701287D01*
X152650943Y-77653338D01*
X152597042Y-77668708D01*
X152455247Y-77678441D01*
X152402834Y-77654830D01*
X152239069Y-77601103D01*
X152085334Y-77586334D01*
X151924592Y-77551608D01*
X151879998Y-77420358D01*
X151880389Y-77395834D01*
X151858022Y-77264149D01*
X151746358Y-77212076D01*
X151605223Y-77205334D01*
X151391838Y-77174791D01*
X151323335Y-77079006D01*
X151323334Y-77078334D01*
X151257896Y-76983657D01*
X151050243Y-76951442D01*
X151031997Y-76951334D01*
X150823411Y-76931997D01*
X150700752Y-76884767D01*
X150695351Y-76878021D01*
X150587719Y-76836752D01*
X150437407Y-76845357D01*
X150243628Y-76834061D01*
X150167534Y-76718826D01*
X150213612Y-76521649D01*
X150332545Y-76331256D01*
X150508714Y-76065116D01*
X150656811Y-75784986D01*
X150669701Y-75755201D01*
X150813251Y-75522120D01*
X151031527Y-75278586D01*
X151133574Y-75189512D01*
X151381756Y-74940018D01*
X151601362Y-74633121D01*
X151660977Y-74521597D01*
X151814782Y-74227164D01*
X152015708Y-73884302D01*
X152163385Y-73653333D01*
X152334657Y-73380755D01*
X152551409Y-73010993D01*
X152782629Y-72597934D01*
X152949262Y-72287626D01*
X153193355Y-71838937D01*
X153469713Y-71355657D01*
X153737246Y-70908660D01*
X153881874Y-70678959D01*
X154119798Y-70308582D01*
X154360025Y-69929286D01*
X154563058Y-69603611D01*
X154626038Y-69500667D01*
X155045074Y-68812296D01*
X155392670Y-68248136D01*
X155683078Y-67786349D01*
X155930553Y-67405099D01*
X156149348Y-67082546D01*
X156353716Y-66796853D01*
X156557911Y-66526182D01*
X156617739Y-66449161D01*
X156877167Y-66095701D01*
X157106033Y-65745038D01*
X157274914Y-65444277D01*
X157340640Y-65291810D01*
X157430751Y-65050636D01*
X157519069Y-64930667D01*
X157649439Y-64890040D01*
X157765309Y-64886334D01*
X158054334Y-64886334D01*
X158044735Y-65285369D01*
X158044735Y-65285369D01*
G37*
X158044735Y-65285369D02*
X158018096Y-65584232D01*
X157962934Y-65852458D01*
X157939920Y-65920369D01*
X157872681Y-66109910D01*
X157777059Y-66407852D01*
X157670410Y-66759559D01*
X157636365Y-66876000D01*
X157538644Y-67227882D01*
X157490039Y-67453768D01*
X157486958Y-67588586D01*
X157525810Y-67667260D01*
X157552560Y-67691042D01*
X157630481Y-67796059D01*
X157609603Y-67957087D01*
X157583639Y-68029709D01*
X157534449Y-68197194D01*
X157461826Y-68494773D01*
X157374058Y-68886204D01*
X157279435Y-69335245D01*
X157237514Y-69543000D01*
X157129045Y-70050045D01*
X157002415Y-70580794D01*
X156866433Y-71104076D01*
X156729907Y-71588719D01*
X156601645Y-72003549D01*
X156490455Y-72317395D01*
X156405147Y-72499084D01*
X156400167Y-72506334D01*
X156322185Y-72683894D01*
X156238510Y-72985316D01*
X156157842Y-73365740D01*
X156088880Y-73780308D01*
X156040324Y-74184161D01*
X156022511Y-74453667D01*
X155990882Y-74873434D01*
X155930205Y-75316744D01*
X155855641Y-75678939D01*
X155780092Y-76016487D01*
X155770515Y-76206906D01*
X155803484Y-76257495D01*
X155882151Y-76361946D01*
X155896772Y-76559573D01*
X155854075Y-76789719D01*
X155760791Y-76991726D01*
X155716005Y-77045996D01*
X155560484Y-77257988D01*
X155477665Y-77448162D01*
X155344164Y-77657492D01*
X155143108Y-77761843D01*
X154920940Y-77884473D01*
X154767522Y-78054182D01*
X154765495Y-78058177D01*
X154632524Y-78211591D01*
X154456780Y-78292644D01*
X154301192Y-78279809D01*
X154252048Y-78233816D01*
X154235628Y-78092300D01*
X154256396Y-78008762D01*
X154264509Y-77872792D01*
X154153288Y-77788621D01*
X153907642Y-77751291D01*
X153512482Y-77755844D01*
X153490131Y-77756998D01*
X153171406Y-77761184D01*
X152920792Y-77740868D01*
X152790485Y-77701287D01*
X152650943Y-77653338D01*
X152597042Y-77668708D01*
X152455247Y-77678441D01*
X152402834Y-77654830D01*
X152239069Y-77601103D01*
X152085334Y-77586334D01*
X151924592Y-77551608D01*
X151879998Y-77420358D01*
X151880389Y-77395834D01*
X151858022Y-77264149D01*
X151746358Y-77212076D01*
X151605223Y-77205334D01*
X151391838Y-77174791D01*
X151323335Y-77079006D01*
X151323334Y-77078334D01*
X151257896Y-76983657D01*
X151050243Y-76951442D01*
X151031997Y-76951334D01*
X150823411Y-76931997D01*
X150700752Y-76884767D01*
X150695351Y-76878021D01*
X150587719Y-76836752D01*
X150437407Y-76845357D01*
X150243628Y-76834061D01*
X150167534Y-76718826D01*
X150213612Y-76521649D01*
X150332545Y-76331256D01*
X150508714Y-76065116D01*
X150656811Y-75784986D01*
X150669701Y-75755201D01*
X150813251Y-75522120D01*
X151031527Y-75278586D01*
X151133574Y-75189512D01*
X151381756Y-74940018D01*
X151601362Y-74633121D01*
X151660977Y-74521597D01*
X151814782Y-74227164D01*
X152015708Y-73884302D01*
X152163385Y-73653333D01*
X152334657Y-73380755D01*
X152551409Y-73010993D01*
X152782629Y-72597934D01*
X152949262Y-72287626D01*
X153193355Y-71838937D01*
X153469713Y-71355657D01*
X153737246Y-70908660D01*
X153881874Y-70678959D01*
X154119798Y-70308582D01*
X154360025Y-69929286D01*
X154563058Y-69603611D01*
X154626038Y-69500667D01*
X155045074Y-68812296D01*
X155392670Y-68248136D01*
X155683078Y-67786349D01*
X155930553Y-67405099D01*
X156149348Y-67082546D01*
X156353716Y-66796853D01*
X156557911Y-66526182D01*
X156617739Y-66449161D01*
X156877167Y-66095701D01*
X157106033Y-65745038D01*
X157274914Y-65444277D01*
X157340640Y-65291810D01*
X157430751Y-65050636D01*
X157519069Y-64930667D01*
X157649439Y-64890040D01*
X157765309Y-64886334D01*
X158054334Y-64886334D01*
X158044735Y-65285369D01*
G36*
X119201926Y-64766909D02*
X119295377Y-64807590D01*
X119299147Y-64908307D01*
X119285586Y-64966933D01*
X119290661Y-65144196D01*
X119350948Y-65439715D01*
X119454421Y-65816334D01*
X119589050Y-66236900D01*
X119742809Y-66664256D01*
X119903668Y-67061248D01*
X120059601Y-67390722D01*
X120086129Y-67439830D01*
X120259862Y-67783805D01*
X120426586Y-68161849D01*
X120491245Y-68328830D01*
X120665812Y-68803452D01*
X120849529Y-69287175D01*
X121028294Y-69744335D01*
X121188006Y-70139272D01*
X121314565Y-70436324D01*
X121377376Y-70569831D01*
X121442932Y-70724889D01*
X121550834Y-71012516D01*
X121690955Y-71404280D01*
X121853169Y-71871753D01*
X122027348Y-72386505D01*
X122068673Y-72510510D01*
X122270548Y-73095387D01*
X122491696Y-73697838D01*
X122714609Y-74272678D01*
X122921780Y-74774718D01*
X123090810Y-75148727D01*
X123306713Y-75611362D01*
X123446335Y-75958776D01*
X123520170Y-76221159D01*
X123538714Y-76428699D01*
X123538449Y-76436397D01*
X123514922Y-76636659D01*
X123471905Y-76731773D01*
X123454406Y-76731265D01*
X123340256Y-76741855D01*
X123198752Y-76817017D01*
X123027923Y-76897806D01*
X122898682Y-76850911D01*
X122767246Y-76800492D01*
X122685479Y-76853322D01*
X122520928Y-76937870D01*
X122426085Y-76951334D01*
X122262439Y-77014003D01*
X122098207Y-77163000D01*
X121931839Y-77313030D01*
X121768522Y-77374667D01*
X121634572Y-77424885D01*
X121605334Y-77491300D01*
X121545502Y-77636451D01*
X121465360Y-77724133D01*
X121362802Y-77792002D01*
X121223142Y-77838340D01*
X121002231Y-77873112D01*
X120659889Y-77905951D01*
X120468129Y-77942100D01*
X120370611Y-77988500D01*
X120228552Y-78047078D01*
X120119975Y-77961359D01*
X119999558Y-77910808D01*
X119769680Y-77920552D01*
X119752403Y-77923355D01*
X119440850Y-77975992D01*
X119320304Y-77442496D01*
X119242279Y-77079981D01*
X119204506Y-76842547D01*
X119204551Y-76691409D01*
X119239976Y-76587785D01*
X119264225Y-76549936D01*
X119296570Y-76408789D01*
X119293303Y-76171200D01*
X119278314Y-76041936D01*
X119252333Y-75813835D01*
X119221686Y-75458356D01*
X119189554Y-75017270D01*
X119159119Y-74532350D01*
X119147662Y-74326667D01*
X119090152Y-73265193D01*
X119039073Y-72356078D01*
X118993200Y-71582523D01*
X118951308Y-70927728D01*
X118912170Y-70374892D01*
X118874562Y-69907214D01*
X118837258Y-69507896D01*
X118799032Y-69160135D01*
X118758660Y-68847133D01*
X118736976Y-68696334D01*
X118688540Y-68298383D01*
X118649457Y-67837296D01*
X118620412Y-67344406D01*
X118602092Y-66851047D01*
X118595183Y-66388553D01*
X118600373Y-65988257D01*
X118618347Y-65681493D01*
X118649791Y-65499595D01*
X118666272Y-65468839D01*
X118691426Y-65355061D01*
X118680986Y-65145639D01*
X118672430Y-65084972D01*
X118620358Y-64759334D01*
X118979024Y-64759334D01*
X119201926Y-64766909D01*
X119201926Y-64766909D01*
G37*
X119201926Y-64766909D02*
X119295377Y-64807590D01*
X119299147Y-64908307D01*
X119285586Y-64966933D01*
X119290661Y-65144196D01*
X119350948Y-65439715D01*
X119454421Y-65816334D01*
X119589050Y-66236900D01*
X119742809Y-66664256D01*
X119903668Y-67061248D01*
X120059601Y-67390722D01*
X120086129Y-67439830D01*
X120259862Y-67783805D01*
X120426586Y-68161849D01*
X120491245Y-68328830D01*
X120665812Y-68803452D01*
X120849529Y-69287175D01*
X121028294Y-69744335D01*
X121188006Y-70139272D01*
X121314565Y-70436324D01*
X121377376Y-70569831D01*
X121442932Y-70724889D01*
X121550834Y-71012516D01*
X121690955Y-71404280D01*
X121853169Y-71871753D01*
X122027348Y-72386505D01*
X122068673Y-72510510D01*
X122270548Y-73095387D01*
X122491696Y-73697838D01*
X122714609Y-74272678D01*
X122921780Y-74774718D01*
X123090810Y-75148727D01*
X123306713Y-75611362D01*
X123446335Y-75958776D01*
X123520170Y-76221159D01*
X123538714Y-76428699D01*
X123538449Y-76436397D01*
X123514922Y-76636659D01*
X123471905Y-76731773D01*
X123454406Y-76731265D01*
X123340256Y-76741855D01*
X123198752Y-76817017D01*
X123027923Y-76897806D01*
X122898682Y-76850911D01*
X122767246Y-76800492D01*
X122685479Y-76853322D01*
X122520928Y-76937870D01*
X122426085Y-76951334D01*
X122262439Y-77014003D01*
X122098207Y-77163000D01*
X121931839Y-77313030D01*
X121768522Y-77374667D01*
X121634572Y-77424885D01*
X121605334Y-77491300D01*
X121545502Y-77636451D01*
X121465360Y-77724133D01*
X121362802Y-77792002D01*
X121223142Y-77838340D01*
X121002231Y-77873112D01*
X120659889Y-77905951D01*
X120468129Y-77942100D01*
X120370611Y-77988500D01*
X120228552Y-78047078D01*
X120119975Y-77961359D01*
X119999558Y-77910808D01*
X119769680Y-77920552D01*
X119752403Y-77923355D01*
X119440850Y-77975992D01*
X119320304Y-77442496D01*
X119242279Y-77079981D01*
X119204506Y-76842547D01*
X119204551Y-76691409D01*
X119239976Y-76587785D01*
X119264225Y-76549936D01*
X119296570Y-76408789D01*
X119293303Y-76171200D01*
X119278314Y-76041936D01*
X119252333Y-75813835D01*
X119221686Y-75458356D01*
X119189554Y-75017270D01*
X119159119Y-74532350D01*
X119147662Y-74326667D01*
X119090152Y-73265193D01*
X119039073Y-72356078D01*
X118993200Y-71582523D01*
X118951308Y-70927728D01*
X118912170Y-70374892D01*
X118874562Y-69907214D01*
X118837258Y-69507896D01*
X118799032Y-69160135D01*
X118758660Y-68847133D01*
X118736976Y-68696334D01*
X118688540Y-68298383D01*
X118649457Y-67837296D01*
X118620412Y-67344406D01*
X118602092Y-66851047D01*
X118595183Y-66388553D01*
X118600373Y-65988257D01*
X118618347Y-65681493D01*
X118649791Y-65499595D01*
X118666272Y-65468839D01*
X118691426Y-65355061D01*
X118680986Y-65145639D01*
X118672430Y-65084972D01*
X118620358Y-64759334D01*
X118979024Y-64759334D01*
X119201926Y-64766909D01*
G36*
X123521917Y-63435014D02*
X123552667Y-63555792D01*
X123590487Y-63754433D01*
X123691487Y-64058298D01*
X123836974Y-64425618D01*
X124008255Y-64814624D01*
X124186636Y-65183547D01*
X124353426Y-65490618D01*
X124489932Y-65694068D01*
X124527021Y-65733000D01*
X124603855Y-65846526D01*
X124728765Y-66080893D01*
X124885274Y-66400399D01*
X125056905Y-66769338D01*
X125227182Y-67152007D01*
X125379628Y-67512701D01*
X125497766Y-67815716D01*
X125528512Y-67903177D01*
X125610214Y-68104677D01*
X125747935Y-68400557D01*
X125927534Y-68764356D01*
X126134873Y-69169612D01*
X126355810Y-69589863D01*
X126576208Y-69998648D01*
X126781926Y-70369504D01*
X126958824Y-70675970D01*
X127092763Y-70891585D01*
X127169604Y-70989886D01*
X127179321Y-70992597D01*
X127236296Y-71050882D01*
X127351799Y-71233943D01*
X127509859Y-71514491D01*
X127694504Y-71865238D01*
X127724083Y-71923355D01*
X127922959Y-72320606D01*
X128050329Y-72591735D01*
X128113906Y-72760280D01*
X128121403Y-72849779D01*
X128080534Y-72883770D01*
X128039970Y-72887334D01*
X127921790Y-72913573D01*
X127903861Y-73024810D01*
X127923062Y-73120167D01*
X128033310Y-73409554D01*
X128185784Y-73552052D01*
X128254481Y-73564667D01*
X128349774Y-73635041D01*
X128476095Y-73815476D01*
X128556937Y-73966834D01*
X128709875Y-74267822D01*
X128900794Y-74620844D01*
X129033649Y-74854873D01*
X129187071Y-75136557D01*
X129254873Y-75322704D01*
X129249505Y-75455822D01*
X129225848Y-75511040D01*
X129134290Y-75634018D01*
X129005520Y-75674271D01*
X128790216Y-75639876D01*
X128658212Y-75603993D01*
X128457528Y-75567100D01*
X128335735Y-75621907D01*
X128267762Y-75709826D01*
X128118367Y-75855970D01*
X127908811Y-75977103D01*
X127702089Y-76044605D01*
X127562022Y-76030470D01*
X127484033Y-75926456D01*
X127374041Y-75727862D01*
X127330734Y-75639000D01*
X127229617Y-75440707D01*
X127167576Y-75381210D01*
X127121014Y-75442000D01*
X127111476Y-75466985D01*
X126997234Y-75623879D01*
X126806562Y-75768572D01*
X126804741Y-75769580D01*
X126601189Y-75947603D01*
X126532273Y-76168123D01*
X126461015Y-76425687D01*
X126326340Y-76571821D01*
X126156152Y-76581080D01*
X126106737Y-76556185D01*
X125943338Y-76517204D01*
X125770819Y-76594848D01*
X125598942Y-76673365D01*
X125481492Y-76627987D01*
X125478719Y-76625253D01*
X125329874Y-76536019D01*
X125191303Y-76597027D01*
X125059438Y-76782535D01*
X124897499Y-76981551D01*
X124741161Y-77020508D01*
X124608722Y-76898640D01*
X124565991Y-76803167D01*
X124458757Y-76543896D01*
X124367804Y-76358667D01*
X124304788Y-76186584D01*
X124248641Y-75907312D01*
X124197601Y-75506272D01*
X124149909Y-74968889D01*
X124103804Y-74280584D01*
X124091721Y-74072667D01*
X124039396Y-73337998D01*
X123964875Y-72556145D01*
X123873264Y-71765787D01*
X123769671Y-71005604D01*
X123659201Y-70314278D01*
X123546960Y-69730489D01*
X123481485Y-69450240D01*
X123431609Y-69205945D01*
X123379791Y-68873339D01*
X123332275Y-68504915D01*
X123295305Y-68153167D01*
X123275126Y-67870588D01*
X123275991Y-67722667D01*
X123272509Y-67592344D01*
X123251942Y-67331909D01*
X123217680Y-66979343D01*
X123173928Y-66579667D01*
X123134060Y-66180553D01*
X123111761Y-65842752D01*
X123108579Y-65601653D01*
X123126062Y-65492650D01*
X123126369Y-65492324D01*
X123141366Y-65374403D01*
X123081361Y-65200360D01*
X123016814Y-64974951D01*
X122979698Y-64620153D01*
X122972656Y-64286266D01*
X122979021Y-63941762D01*
X122998118Y-63727506D01*
X123040475Y-63604425D01*
X123116621Y-63533449D01*
X123184856Y-63498729D01*
X123408741Y-63416308D01*
X123521917Y-63435014D01*
X123521917Y-63435014D01*
G37*
X123521917Y-63435014D02*
X123552667Y-63555792D01*
X123590487Y-63754433D01*
X123691487Y-64058298D01*
X123836974Y-64425618D01*
X124008255Y-64814624D01*
X124186636Y-65183547D01*
X124353426Y-65490618D01*
X124489932Y-65694068D01*
X124527021Y-65733000D01*
X124603855Y-65846526D01*
X124728765Y-66080893D01*
X124885274Y-66400399D01*
X125056905Y-66769338D01*
X125227182Y-67152007D01*
X125379628Y-67512701D01*
X125497766Y-67815716D01*
X125528512Y-67903177D01*
X125610214Y-68104677D01*
X125747935Y-68400557D01*
X125927534Y-68764356D01*
X126134873Y-69169612D01*
X126355810Y-69589863D01*
X126576208Y-69998648D01*
X126781926Y-70369504D01*
X126958824Y-70675970D01*
X127092763Y-70891585D01*
X127169604Y-70989886D01*
X127179321Y-70992597D01*
X127236296Y-71050882D01*
X127351799Y-71233943D01*
X127509859Y-71514491D01*
X127694504Y-71865238D01*
X127724083Y-71923355D01*
X127922959Y-72320606D01*
X128050329Y-72591735D01*
X128113906Y-72760280D01*
X128121403Y-72849779D01*
X128080534Y-72883770D01*
X128039970Y-72887334D01*
X127921790Y-72913573D01*
X127903861Y-73024810D01*
X127923062Y-73120167D01*
X128033310Y-73409554D01*
X128185784Y-73552052D01*
X128254481Y-73564667D01*
X128349774Y-73635041D01*
X128476095Y-73815476D01*
X128556937Y-73966834D01*
X128709875Y-74267822D01*
X128900794Y-74620844D01*
X129033649Y-74854873D01*
X129187071Y-75136557D01*
X129254873Y-75322704D01*
X129249505Y-75455822D01*
X129225848Y-75511040D01*
X129134290Y-75634018D01*
X129005520Y-75674271D01*
X128790216Y-75639876D01*
X128658212Y-75603993D01*
X128457528Y-75567100D01*
X128335735Y-75621907D01*
X128267762Y-75709826D01*
X128118367Y-75855970D01*
X127908811Y-75977103D01*
X127702089Y-76044605D01*
X127562022Y-76030470D01*
X127484033Y-75926456D01*
X127374041Y-75727862D01*
X127330734Y-75639000D01*
X127229617Y-75440707D01*
X127167576Y-75381210D01*
X127121014Y-75442000D01*
X127111476Y-75466985D01*
X126997234Y-75623879D01*
X126806562Y-75768572D01*
X126804741Y-75769580D01*
X126601189Y-75947603D01*
X126532273Y-76168123D01*
X126461015Y-76425687D01*
X126326340Y-76571821D01*
X126156152Y-76581080D01*
X126106737Y-76556185D01*
X125943338Y-76517204D01*
X125770819Y-76594848D01*
X125598942Y-76673365D01*
X125481492Y-76627987D01*
X125478719Y-76625253D01*
X125329874Y-76536019D01*
X125191303Y-76597027D01*
X125059438Y-76782535D01*
X124897499Y-76981551D01*
X124741161Y-77020508D01*
X124608722Y-76898640D01*
X124565991Y-76803167D01*
X124458757Y-76543896D01*
X124367804Y-76358667D01*
X124304788Y-76186584D01*
X124248641Y-75907312D01*
X124197601Y-75506272D01*
X124149909Y-74968889D01*
X124103804Y-74280584D01*
X124091721Y-74072667D01*
X124039396Y-73337998D01*
X123964875Y-72556145D01*
X123873264Y-71765787D01*
X123769671Y-71005604D01*
X123659201Y-70314278D01*
X123546960Y-69730489D01*
X123481485Y-69450240D01*
X123431609Y-69205945D01*
X123379791Y-68873339D01*
X123332275Y-68504915D01*
X123295305Y-68153167D01*
X123275126Y-67870588D01*
X123275991Y-67722667D01*
X123272509Y-67592344D01*
X123251942Y-67331909D01*
X123217680Y-66979343D01*
X123173928Y-66579667D01*
X123134060Y-66180553D01*
X123111761Y-65842752D01*
X123108579Y-65601653D01*
X123126062Y-65492650D01*
X123126369Y-65492324D01*
X123141366Y-65374403D01*
X123081361Y-65200360D01*
X123016814Y-64974951D01*
X122979698Y-64620153D01*
X122972656Y-64286266D01*
X122979021Y-63941762D01*
X122998118Y-63727506D01*
X123040475Y-63604425D01*
X123116621Y-63533449D01*
X123184856Y-63498729D01*
X123408741Y-63416308D01*
X123521917Y-63435014D01*
G36*
X139834737Y-74119606D02*
X140094643Y-74323550D01*
X140136545Y-74369648D01*
X140285364Y-74560598D01*
X140362331Y-74702836D01*
X140363875Y-74742113D01*
X140393124Y-74836163D01*
X140516048Y-74991048D01*
X140573677Y-75049218D01*
X140733553Y-75237099D01*
X140819791Y-75406017D01*
X140824667Y-75440195D01*
X140751578Y-75611747D01*
X140558698Y-75718756D01*
X140285609Y-75753901D01*
X139971891Y-75709860D01*
X139766334Y-75635942D01*
X139547826Y-75574410D01*
X139233697Y-75530817D01*
X138940834Y-75515819D01*
X138633248Y-75501600D01*
X138432043Y-75467171D01*
X138369334Y-75423984D01*
X138422875Y-75309278D01*
X138554767Y-75139906D01*
X138585398Y-75106484D01*
X138763773Y-74900015D01*
X138974021Y-74633445D01*
X139075803Y-74496000D01*
X139336503Y-74204498D01*
X139585753Y-74079478D01*
X139834737Y-74119606D01*
X139834737Y-74119606D01*
G37*
X139834737Y-74119606D02*
X140094643Y-74323550D01*
X140136545Y-74369648D01*
X140285364Y-74560598D01*
X140362331Y-74702836D01*
X140363875Y-74742113D01*
X140393124Y-74836163D01*
X140516048Y-74991048D01*
X140573677Y-75049218D01*
X140733553Y-75237099D01*
X140819791Y-75406017D01*
X140824667Y-75440195D01*
X140751578Y-75611747D01*
X140558698Y-75718756D01*
X140285609Y-75753901D01*
X139971891Y-75709860D01*
X139766334Y-75635942D01*
X139547826Y-75574410D01*
X139233697Y-75530817D01*
X138940834Y-75515819D01*
X138633248Y-75501600D01*
X138432043Y-75467171D01*
X138369334Y-75423984D01*
X138422875Y-75309278D01*
X138554767Y-75139906D01*
X138585398Y-75106484D01*
X138763773Y-74900015D01*
X138974021Y-74633445D01*
X139075803Y-74496000D01*
X139336503Y-74204498D01*
X139585753Y-74079478D01*
X139834737Y-74119606D01*
G36*
X113900667Y-66664334D02*
X113858334Y-66706667D01*
X113816000Y-66664334D01*
X113858334Y-66622000D01*
X113900667Y-66664334D01*
X113900667Y-66664334D01*
G37*
X113900667Y-66664334D02*
X113858334Y-66706667D01*
X113816000Y-66664334D01*
X113858334Y-66622000D01*
X113900667Y-66664334D01*
G36*
X130938051Y-60882462D02*
X131248596Y-60919982D01*
X131465506Y-60997946D01*
X131664221Y-61147467D01*
X131729371Y-61208804D01*
X132133055Y-61687234D01*
X132413344Y-62207363D01*
X132567817Y-62744031D01*
X132594053Y-63272082D01*
X132489629Y-63766358D01*
X132252125Y-64201701D01*
X132039306Y-64428943D01*
X131590000Y-64737198D01*
X131076665Y-64949036D01*
X130550151Y-65049576D01*
X130061304Y-65023938D01*
X130029667Y-65017001D01*
X129745740Y-64928799D01*
X129506093Y-64791218D01*
X129265222Y-64571213D01*
X129011621Y-64277684D01*
X128626748Y-63756027D01*
X128387733Y-63315350D01*
X128295230Y-62956889D01*
X128294000Y-62916616D01*
X128311058Y-62844267D01*
X128856532Y-62844267D01*
X128930282Y-63166445D01*
X129129302Y-63516305D01*
X129410329Y-63863407D01*
X129765502Y-64227108D01*
X130079633Y-64454958D01*
X130391683Y-64560345D01*
X130740615Y-64556661D01*
X131150946Y-64461607D01*
X131578826Y-64261260D01*
X131883376Y-63963573D01*
X132051849Y-63591228D01*
X132071497Y-63166904D01*
X132015482Y-62923352D01*
X131797686Y-62451816D01*
X131483784Y-62028061D01*
X131116879Y-61708386D01*
X131056694Y-61670986D01*
X130771914Y-61540236D01*
X130488477Y-61468294D01*
X130255390Y-61462491D01*
X130121661Y-61530156D01*
X130121092Y-61531064D01*
X130012013Y-61600890D01*
X129840929Y-61653552D01*
X129548598Y-61778092D01*
X129254644Y-62003691D01*
X129015881Y-62278263D01*
X128896440Y-62519400D01*
X128856532Y-62844267D01*
X128311058Y-62844267D01*
X128364269Y-62618589D01*
X128559528Y-62271535D01*
X128856459Y-61908146D01*
X129231739Y-61561111D01*
X129298442Y-61508560D01*
X129726236Y-61202147D01*
X130085195Y-61005534D01*
X130419054Y-60902022D01*
X130771544Y-60874911D01*
X130938051Y-60882462D01*
X130938051Y-60882462D01*
G37*
X130938051Y-60882462D02*
X131248596Y-60919982D01*
X131465506Y-60997946D01*
X131664221Y-61147467D01*
X131729371Y-61208804D01*
X132133055Y-61687234D01*
X132413344Y-62207363D01*
X132567817Y-62744031D01*
X132594053Y-63272082D01*
X132489629Y-63766358D01*
X132252125Y-64201701D01*
X132039306Y-64428943D01*
X131590000Y-64737198D01*
X131076665Y-64949036D01*
X130550151Y-65049576D01*
X130061304Y-65023938D01*
X130029667Y-65017001D01*
X129745740Y-64928799D01*
X129506093Y-64791218D01*
X129265222Y-64571213D01*
X129011621Y-64277684D01*
X128626748Y-63756027D01*
X128387733Y-63315350D01*
X128295230Y-62956889D01*
X128294000Y-62916616D01*
X128311058Y-62844267D01*
X128856532Y-62844267D01*
X128930282Y-63166445D01*
X129129302Y-63516305D01*
X129410329Y-63863407D01*
X129765502Y-64227108D01*
X130079633Y-64454958D01*
X130391683Y-64560345D01*
X130740615Y-64556661D01*
X131150946Y-64461607D01*
X131578826Y-64261260D01*
X131883376Y-63963573D01*
X132051849Y-63591228D01*
X132071497Y-63166904D01*
X132015482Y-62923352D01*
X131797686Y-62451816D01*
X131483784Y-62028061D01*
X131116879Y-61708386D01*
X131056694Y-61670986D01*
X130771914Y-61540236D01*
X130488477Y-61468294D01*
X130255390Y-61462491D01*
X130121661Y-61530156D01*
X130121092Y-61531064D01*
X130012013Y-61600890D01*
X129840929Y-61653552D01*
X129548598Y-61778092D01*
X129254644Y-62003691D01*
X129015881Y-62278263D01*
X128896440Y-62519400D01*
X128856532Y-62844267D01*
X128311058Y-62844267D01*
X128364269Y-62618589D01*
X128559528Y-62271535D01*
X128856459Y-61908146D01*
X129231739Y-61561111D01*
X129298442Y-61508560D01*
X129726236Y-61202147D01*
X130085195Y-61005534D01*
X130419054Y-60902022D01*
X130771544Y-60874911D01*
X130938051Y-60882462D01*
G36*
X163468067Y-55901927D02*
X163473000Y-55954000D01*
X163350498Y-56031904D01*
X163298670Y-56038667D01*
X163189243Y-55991328D01*
X163176667Y-55954000D01*
X163247793Y-55885875D01*
X163350997Y-55869334D01*
X163468067Y-55901927D01*
X163468067Y-55901927D01*
G37*
X163468067Y-55901927D02*
X163473000Y-55954000D01*
X163350498Y-56031904D01*
X163298670Y-56038667D01*
X163189243Y-55991328D01*
X163176667Y-55954000D01*
X163247793Y-55885875D01*
X163350997Y-55869334D01*
X163468067Y-55901927D01*
G36*
X163931171Y-120406385D02*
X164215787Y-120508776D01*
X164401519Y-120636223D01*
X164504751Y-120857873D01*
X164535268Y-121169946D01*
X164499848Y-121513351D01*
X164405270Y-121828997D01*
X164258312Y-122057792D01*
X164236174Y-122077692D01*
X164078660Y-122143858D01*
X163830045Y-122187496D01*
X163549913Y-122205636D01*
X163297847Y-122195307D01*
X163133431Y-122153540D01*
X163109660Y-122133856D01*
X162924142Y-121781105D01*
X162853539Y-121396273D01*
X162891237Y-121019448D01*
X163030627Y-120690718D01*
X163265097Y-120450170D01*
X163398606Y-120381854D01*
X163632906Y-120357516D01*
X163931171Y-120406385D01*
X163931171Y-120406385D01*
G37*
X163931171Y-120406385D02*
X164215787Y-120508776D01*
X164401519Y-120636223D01*
X164504751Y-120857873D01*
X164535268Y-121169946D01*
X164499848Y-121513351D01*
X164405270Y-121828997D01*
X164258312Y-122057792D01*
X164236174Y-122077692D01*
X164078660Y-122143858D01*
X163830045Y-122187496D01*
X163549913Y-122205636D01*
X163297847Y-122195307D01*
X163133431Y-122153540D01*
X163109660Y-122133856D01*
X162924142Y-121781105D01*
X162853539Y-121396273D01*
X162891237Y-121019448D01*
X163030627Y-120690718D01*
X163265097Y-120450170D01*
X163398606Y-120381854D01*
X163632906Y-120357516D01*
X163931171Y-120406385D01*
G36*
X130776172Y-62228653D02*
X130894591Y-62380021D01*
X131064601Y-62746135D01*
X131082054Y-63093733D01*
X130948410Y-63397904D01*
X130827504Y-63524141D01*
X130542999Y-63708467D01*
X130307843Y-63733299D01*
X130110045Y-63596978D01*
X129989054Y-63408040D01*
X129840305Y-63010474D01*
X129840059Y-62675608D01*
X129989903Y-62381947D01*
X130071448Y-62291526D01*
X130326274Y-62103932D01*
X130557493Y-62082578D01*
X130776172Y-62228653D01*
X130776172Y-62228653D01*
G37*
X130776172Y-62228653D02*
X130894591Y-62380021D01*
X131064601Y-62746135D01*
X131082054Y-63093733D01*
X130948410Y-63397904D01*
X130827504Y-63524141D01*
X130542999Y-63708467D01*
X130307843Y-63733299D01*
X130110045Y-63596978D01*
X129989054Y-63408040D01*
X129840305Y-63010474D01*
X129840059Y-62675608D01*
X129989903Y-62381947D01*
X130071448Y-62291526D01*
X130326274Y-62103932D01*
X130557493Y-62082578D01*
X130776172Y-62228653D01*
D13*
X156489477Y-100350167D03*
X156071477Y-101446167D03*
X156298477Y-100837167D03*
X121976000Y-100325000D03*
X122394000Y-101421000D03*
X122167000Y-100812000D03*
X114608000Y-79958000D03*
X114434000Y-79151000D03*
X138639000Y-121148000D03*
X139366000Y-121429000D03*
X137840000Y-121325000D03*
X164965000Y-80785000D03*
X164605000Y-81535000D03*
M02*
