G04 #@! TF.FileFunction,Soldermask,Top*
%FSLAX46Y46*%
G04 Gerber Fmt 4.6, Leading zero omitted, Abs format (unit mm)*
G04 Created by KiCad (PCBNEW 4.0.7-e2-6376~58~ubuntu16.04.1) date Tue Feb 27 14:37:57 2018*
%MOMM*%
%LPD*%
G01*
G04 APERTURE LIST*
%ADD10C,0.020000*%
%ADD11C,0.200000*%
%ADD12C,0.010000*%
%ADD13C,0.700000*%
G04 APERTURE END LIST*
D10*
D11*
X139600000Y-128000000D02*
X140500000Y-128000000D01*
X140400000Y-128000000D02*
X140500000Y-128000000D01*
X139600000Y-128000000D02*
X140400000Y-128000000D01*
D12*
G36*
X144775167Y-97458383D02*
X144944426Y-97502846D01*
X145208743Y-97603045D01*
X145512347Y-97737743D01*
X145526802Y-97744640D01*
X145897219Y-97905913D01*
X146295487Y-98054771D01*
X146585136Y-98144702D01*
X147269155Y-98339913D01*
X147970122Y-98565832D01*
X148649555Y-98808220D01*
X149268973Y-99052840D01*
X149789897Y-99285456D01*
X150088000Y-99440723D01*
X150333641Y-99567174D01*
X150654115Y-99714381D01*
X150881568Y-99810282D01*
X151141073Y-99920987D01*
X151257760Y-99991303D01*
X151249170Y-100035226D01*
X151188657Y-100055336D01*
X151175490Y-100089745D01*
X151275800Y-100164118D01*
X151498147Y-100282663D01*
X151851086Y-100449587D01*
X152343177Y-100669097D01*
X152982978Y-100945401D01*
X153104423Y-100997205D01*
X153790608Y-101286389D01*
X154334144Y-101508200D01*
X154745945Y-101666628D01*
X155036924Y-101765663D01*
X155217995Y-101809292D01*
X155300071Y-101801506D01*
X155301373Y-101800260D01*
X155371505Y-101685433D01*
X155486558Y-101452419D01*
X155627974Y-101140020D01*
X155720883Y-100923167D01*
X155893965Y-100533205D01*
X156028652Y-100286059D01*
X156136578Y-100162769D01*
X156201344Y-100140000D01*
X156329286Y-100174216D01*
X156353334Y-100214085D01*
X156321962Y-100329276D01*
X156237257Y-100565068D01*
X156113332Y-100886742D01*
X155964297Y-101259577D01*
X155804267Y-101648854D01*
X155647354Y-102019852D01*
X155507671Y-102337852D01*
X155399330Y-102568134D01*
X155385423Y-102595334D01*
X155309737Y-102754301D01*
X155175772Y-103050460D01*
X154991668Y-103465242D01*
X154765565Y-103980075D01*
X154505604Y-104576388D01*
X154219924Y-105235611D01*
X153916666Y-105939173D01*
X153771041Y-106278334D01*
X153466092Y-106988452D01*
X153178400Y-107656468D01*
X152915540Y-108264934D01*
X152685084Y-108796404D01*
X152494607Y-109233432D01*
X152351681Y-109558573D01*
X152263881Y-109754379D01*
X152242738Y-109798878D01*
X152190687Y-109929663D01*
X152191295Y-110057238D01*
X152258803Y-110214299D01*
X152407451Y-110433541D01*
X152651478Y-110747658D01*
X152661412Y-110760132D01*
X152805860Y-110950512D01*
X152851852Y-111059414D01*
X152809416Y-111135380D01*
X152748776Y-111183081D01*
X152681549Y-111244487D01*
X152661779Y-111321341D01*
X152699714Y-111444635D01*
X152805599Y-111645359D01*
X152989680Y-111954503D01*
X153020758Y-112005702D01*
X153223401Y-112344428D01*
X153406658Y-112665039D01*
X153578848Y-112986422D01*
X153748287Y-113327461D01*
X153923294Y-113707040D01*
X154112185Y-114144046D01*
X154323279Y-114657362D01*
X154564893Y-115265874D01*
X154845345Y-115988468D01*
X155172952Y-116844027D01*
X155308646Y-117200334D01*
X155471792Y-117617567D01*
X155649469Y-118053765D01*
X155809884Y-118431312D01*
X155848939Y-118519420D01*
X155973911Y-118820450D01*
X156063656Y-119080485D01*
X156099297Y-119244625D01*
X156099334Y-119247619D01*
X156109582Y-119376420D01*
X156146471Y-119530569D01*
X156219216Y-119731332D01*
X156337029Y-119999978D01*
X156509127Y-120357773D01*
X156744723Y-120825984D01*
X156991469Y-121306667D01*
X157236765Y-121794536D01*
X157466100Y-122273567D01*
X157662625Y-122706837D01*
X157809494Y-123057424D01*
X157880051Y-123254000D01*
X158032506Y-123715171D01*
X158212951Y-124199460D01*
X158408511Y-124678448D01*
X158606310Y-125123712D01*
X158793471Y-125506830D01*
X158957118Y-125799381D01*
X159084375Y-125972942D01*
X159126167Y-126004577D01*
X159270323Y-126095724D01*
X159320195Y-126180672D01*
X159253167Y-126217502D01*
X159188410Y-126287406D01*
X159175938Y-126456610D01*
X159210687Y-126665090D01*
X159287588Y-126852821D01*
X159309527Y-126885201D01*
X159407426Y-127046661D01*
X159401602Y-127190880D01*
X159340612Y-127329422D01*
X159216044Y-127496013D01*
X159081935Y-127563989D01*
X159077632Y-127563853D01*
X158948945Y-127537094D01*
X158691560Y-127469064D01*
X158338424Y-127368950D01*
X158023001Y-127275667D01*
X158808667Y-127275667D01*
X158851000Y-127318000D01*
X158893334Y-127275667D01*
X158851000Y-127233334D01*
X158808667Y-127275667D01*
X158023001Y-127275667D01*
X157922479Y-127245939D01*
X157750334Y-127193737D01*
X157209819Y-127028434D01*
X156614528Y-126845983D01*
X156036732Y-126668556D01*
X155549000Y-126518415D01*
X155128559Y-126393253D01*
X154738122Y-126285110D01*
X154421655Y-126205661D01*
X154225150Y-126166831D01*
X154025151Y-126124549D01*
X153709397Y-126037865D01*
X153321541Y-125919488D01*
X152912817Y-125784725D01*
X152614095Y-125683693D01*
X152284988Y-125575025D01*
X151911337Y-125454330D01*
X151478986Y-125317214D01*
X150973776Y-125159284D01*
X150381551Y-124976149D01*
X149688152Y-124763415D01*
X148879423Y-124516689D01*
X147941204Y-124231580D01*
X146859340Y-123903693D01*
X146489667Y-123791793D01*
X145259313Y-123418995D01*
X144099244Y-123066569D01*
X143025713Y-122739482D01*
X142054976Y-122442702D01*
X141203287Y-122181193D01*
X140486900Y-121959922D01*
X140097334Y-121838724D01*
X139721212Y-121719781D01*
X139407612Y-121622405D01*
X139136068Y-121547685D01*
X138886116Y-121496710D01*
X138637293Y-121470570D01*
X138369133Y-121470354D01*
X138061175Y-121497150D01*
X137692952Y-121552048D01*
X137244001Y-121636138D01*
X136693859Y-121750508D01*
X136022060Y-121896248D01*
X135208141Y-122074446D01*
X135059667Y-122106848D01*
X134434882Y-122242957D01*
X133774419Y-122386650D01*
X133128912Y-122526923D01*
X132548997Y-122652773D01*
X132096334Y-122750813D01*
X131647486Y-122849142D01*
X131238308Y-122941105D01*
X130907087Y-123017932D01*
X130692112Y-123070854D01*
X130657000Y-123080472D01*
X130484344Y-123123936D01*
X130183227Y-123193327D01*
X129791011Y-123280277D01*
X129345059Y-123376417D01*
X129175334Y-123412344D01*
X128256559Y-123606970D01*
X127385090Y-123793790D01*
X126575661Y-123969502D01*
X125843008Y-124130805D01*
X125201866Y-124274396D01*
X124666969Y-124396975D01*
X124253052Y-124495240D01*
X123974850Y-124565890D01*
X123847099Y-124605623D01*
X123845225Y-124606577D01*
X123687277Y-124658278D01*
X123434136Y-124710375D01*
X123291000Y-124731889D01*
X122888088Y-124794054D01*
X122466384Y-124874881D01*
X122070520Y-124964158D01*
X121745128Y-125051679D01*
X121534839Y-125127234D01*
X121513000Y-125138578D01*
X121329865Y-125207482D01*
X121059234Y-125271807D01*
X120920334Y-125295019D01*
X120131265Y-125413905D01*
X119469841Y-125530270D01*
X118894671Y-125651655D01*
X118681092Y-125702904D01*
X118290149Y-125791821D01*
X117886900Y-125870524D01*
X117567949Y-125920661D01*
X117094231Y-125979567D01*
X117086512Y-125708078D01*
X117116971Y-125551809D01*
X117215732Y-125275781D01*
X117385477Y-124873855D01*
X117628888Y-124339889D01*
X117948644Y-123667744D01*
X118226828Y-123096461D01*
X118579804Y-122376816D01*
X118969168Y-121582731D01*
X119371756Y-120761464D01*
X119764403Y-119960273D01*
X120123947Y-119226418D01*
X120369850Y-118724334D01*
X120628967Y-118195821D01*
X120948647Y-117544859D01*
X121314440Y-116800811D01*
X121711898Y-115993039D01*
X122126571Y-115150906D01*
X122544009Y-114303774D01*
X122949762Y-113481007D01*
X123078063Y-113221000D01*
X123533203Y-112299706D01*
X123919608Y-111517970D01*
X124242457Y-110863002D01*
X124506931Y-110322012D01*
X124718211Y-109882210D01*
X124881477Y-109530804D01*
X125001908Y-109255005D01*
X125084686Y-109042021D01*
X125134991Y-108879064D01*
X125158003Y-108753342D01*
X125158902Y-108652064D01*
X125142869Y-108562441D01*
X125115084Y-108471682D01*
X125080728Y-108366997D01*
X125065244Y-108314588D01*
X124999747Y-108106752D01*
X124883407Y-107764825D01*
X124724915Y-107313238D01*
X124532964Y-106776423D01*
X124316244Y-106178812D01*
X124083447Y-105544836D01*
X123994505Y-105304667D01*
X123755325Y-104658220D01*
X123526078Y-104034645D01*
X123315988Y-103459337D01*
X123134281Y-102957689D01*
X122990183Y-102555097D01*
X122892918Y-102276954D01*
X122871854Y-102214334D01*
X122742791Y-101837443D01*
X122602432Y-101449367D01*
X122496848Y-101174032D01*
X122379448Y-100867452D01*
X122330299Y-100684383D01*
X122348401Y-100593813D01*
X122432753Y-100564727D01*
X122477140Y-100563334D01*
X122592397Y-100616345D01*
X122717300Y-100789866D01*
X122867423Y-101105631D01*
X122869855Y-101111346D01*
X123102764Y-101659358D01*
X123473435Y-101624611D01*
X123741275Y-101591673D01*
X123957478Y-101551862D01*
X124000871Y-101540109D01*
X124269772Y-101533460D01*
X124501274Y-101662757D01*
X124640141Y-101895555D01*
X124645883Y-101918985D01*
X124711498Y-102136459D01*
X124823790Y-102436287D01*
X124938198Y-102707229D01*
X125088451Y-103073445D01*
X125244694Y-103501812D01*
X125355909Y-103844167D01*
X125454344Y-104137523D01*
X125547512Y-104354557D01*
X125617775Y-104455300D01*
X125626767Y-104458000D01*
X125676568Y-104509292D01*
X125664813Y-104537577D01*
X125672939Y-104654880D01*
X125755237Y-104844458D01*
X125782428Y-104891428D01*
X125881493Y-105082653D01*
X125916553Y-105210444D01*
X125912769Y-105224689D01*
X125921279Y-105327534D01*
X125977156Y-105545326D01*
X126068876Y-105834251D01*
X126086490Y-105885248D01*
X126190731Y-106217068D01*
X126265932Y-106520269D01*
X126296582Y-106731825D01*
X126296667Y-106739276D01*
X126332500Y-106981299D01*
X126426994Y-107315259D01*
X126560638Y-107682881D01*
X126713922Y-108025891D01*
X126751783Y-108098667D01*
X126890202Y-108420989D01*
X126926526Y-108721513D01*
X126858040Y-109049982D01*
X126682028Y-109456140D01*
X126677134Y-109465911D01*
X126534077Y-109776953D01*
X126429059Y-110054827D01*
X126382127Y-110245555D01*
X126381334Y-110262324D01*
X126350152Y-110419171D01*
X126292030Y-110469334D01*
X126226471Y-110545646D01*
X126092518Y-110774745D01*
X125890050Y-111156875D01*
X125618944Y-111692279D01*
X125279079Y-112381203D01*
X124870333Y-113223890D01*
X124392585Y-114220584D01*
X123845714Y-115371529D01*
X123781598Y-115507000D01*
X123580897Y-115927909D01*
X123318221Y-116473696D01*
X123006653Y-117117451D01*
X122659274Y-117832262D01*
X122289168Y-118591218D01*
X121909417Y-119367409D01*
X121533105Y-120133923D01*
X121461288Y-120279873D01*
X121122927Y-120968921D01*
X120808955Y-121611554D01*
X120527075Y-122191767D01*
X120284988Y-122693557D01*
X120090397Y-123100919D01*
X119951004Y-123397849D01*
X119874511Y-123568342D01*
X119862000Y-123603040D01*
X119879847Y-123647322D01*
X119945904Y-123665315D01*
X120078945Y-123652985D01*
X120297745Y-123606300D01*
X120621079Y-123521228D01*
X121067721Y-123393737D01*
X121656446Y-123219793D01*
X121682334Y-123212075D01*
X122025181Y-123119938D01*
X122479649Y-123012031D01*
X122990399Y-122900831D01*
X123502089Y-122798813D01*
X123580828Y-122784087D01*
X124050961Y-122690808D01*
X124493637Y-122591686D01*
X124866433Y-122496993D01*
X125126926Y-122416998D01*
X125175347Y-122398040D01*
X125434968Y-122301567D01*
X125655134Y-122244573D01*
X125718558Y-122238000D01*
X125859070Y-122218589D01*
X126129349Y-122165253D01*
X126494935Y-122085339D01*
X126921367Y-121986194D01*
X127087372Y-121946179D01*
X127563658Y-121834929D01*
X128027164Y-121734921D01*
X128431147Y-121655703D01*
X128728865Y-121606823D01*
X128778413Y-121600764D01*
X129120975Y-121536495D01*
X129305490Y-121431076D01*
X129339874Y-121276986D01*
X129274561Y-121129187D01*
X129243659Y-120981949D01*
X129333803Y-120813881D01*
X129555897Y-120613713D01*
X129920842Y-120370179D01*
X130127834Y-120247336D01*
X130398510Y-120077659D01*
X130599912Y-119926383D01*
X130695935Y-119821303D01*
X130699334Y-119807408D01*
X130719798Y-119717652D01*
X130796083Y-119723341D01*
X130950527Y-119834087D01*
X131133816Y-119994334D01*
X131347808Y-120164186D01*
X131532839Y-120271391D01*
X131604760Y-120290667D01*
X131692754Y-120277300D01*
X131646985Y-120216234D01*
X131583349Y-120166360D01*
X131487219Y-120071581D01*
X131522400Y-120042015D01*
X131665168Y-120074770D01*
X131891801Y-120166953D01*
X131993873Y-120216407D01*
X132239066Y-120341774D01*
X132359547Y-120420390D01*
X132380629Y-120484026D01*
X132327626Y-120564452D01*
X132298899Y-120599234D01*
X132236552Y-120691316D01*
X132283130Y-120715519D01*
X132466408Y-120686011D01*
X132468288Y-120685639D01*
X132688795Y-120667251D01*
X132841156Y-120698711D01*
X132849288Y-120704412D01*
X132983502Y-120731908D01*
X133243322Y-120720881D01*
X133535667Y-120681867D01*
X134128334Y-120583629D01*
X134131397Y-120502334D01*
X139843334Y-120502334D01*
X139885667Y-120544667D01*
X139928000Y-120502334D01*
X139885667Y-120460000D01*
X139843334Y-120502334D01*
X134131397Y-120502334D01*
X134153120Y-119925904D01*
X134177906Y-119268180D01*
X135652334Y-119317000D01*
X135677725Y-119803834D01*
X135705861Y-120069431D01*
X135752302Y-120245083D01*
X135793245Y-120290667D01*
X135903309Y-120272542D01*
X136147596Y-120222552D01*
X136495418Y-120147278D01*
X136916087Y-120053299D01*
X137164853Y-119996602D01*
X137639382Y-119890427D01*
X138084217Y-119795825D01*
X138460090Y-119720796D01*
X138727729Y-119673341D01*
X138801010Y-119663266D01*
X139077990Y-119608129D01*
X139314055Y-119521471D01*
X139351343Y-119500480D01*
X139576017Y-119382454D01*
X139735224Y-119320833D01*
X139843718Y-119299672D01*
X139897080Y-119344861D01*
X139911117Y-119492966D01*
X139904558Y-119712494D01*
X139885667Y-120160288D01*
X140224334Y-120209492D01*
X140519273Y-120277432D01*
X140791292Y-120378270D01*
X140817000Y-120391094D01*
X141009601Y-120472099D01*
X141314584Y-120579087D01*
X141680666Y-120694596D01*
X141875334Y-120751433D01*
X142309563Y-120879344D01*
X142764103Y-121021083D01*
X143160255Y-121151893D01*
X143266466Y-121189052D01*
X143504659Y-121269052D01*
X143877311Y-121387798D01*
X144356318Y-121536634D01*
X144913575Y-121706905D01*
X145520977Y-121889956D01*
X146145133Y-122075571D01*
X146906586Y-122300768D01*
X147771472Y-122557092D01*
X148681008Y-122827087D01*
X149576411Y-123093296D01*
X150398900Y-123338265D01*
X150750128Y-123443058D01*
X151538118Y-123674546D01*
X152166770Y-123850862D01*
X152636777Y-123972182D01*
X152948832Y-124038680D01*
X153103631Y-124050531D01*
X153120794Y-124041789D01*
X153232451Y-123981888D01*
X153453086Y-123931420D01*
X153601667Y-123913288D01*
X153874767Y-123880571D01*
X154089212Y-123838892D01*
X154152621Y-123818177D01*
X154252313Y-123827752D01*
X154364649Y-123961704D01*
X154482431Y-124185519D01*
X154684619Y-124611386D01*
X155540143Y-124871275D01*
X155942015Y-124995501D01*
X156324613Y-125117495D01*
X156632734Y-125219487D01*
X156757388Y-125263139D01*
X156982050Y-125333513D01*
X157132829Y-125359204D01*
X157161682Y-125352540D01*
X157155383Y-125257538D01*
X157092966Y-125060489D01*
X157032310Y-124908833D01*
X156922971Y-124638852D01*
X156784125Y-124275322D01*
X156641074Y-123884910D01*
X156602005Y-123775016D01*
X156463953Y-123435227D01*
X156260200Y-122999531D01*
X156014505Y-122515797D01*
X155750627Y-122031892D01*
X155649990Y-121857000D01*
X155321058Y-121285132D01*
X155076146Y-120834602D01*
X154905927Y-120485468D01*
X154801074Y-120217788D01*
X154752261Y-120011618D01*
X154745942Y-119923938D01*
X154717220Y-119791386D01*
X154637783Y-119524850D01*
X154516306Y-119148923D01*
X154361465Y-118688200D01*
X154181936Y-118167273D01*
X153986394Y-117610735D01*
X153783514Y-117043178D01*
X153581974Y-116489198D01*
X153390448Y-115973385D01*
X153217613Y-115520334D01*
X153072143Y-115154637D01*
X153017106Y-115023220D01*
X152887052Y-114796002D01*
X152737034Y-114634156D01*
X152707340Y-114615149D01*
X152590497Y-114517215D01*
X152623200Y-114412117D01*
X152654506Y-114296489D01*
X152607521Y-114094577D01*
X152488097Y-113804188D01*
X152320570Y-113463091D01*
X152137941Y-113164531D01*
X151896598Y-112840260D01*
X151778432Y-112693668D01*
X151703405Y-112565735D01*
X151590020Y-112332478D01*
X151468979Y-112058668D01*
X151331827Y-111758949D01*
X151196231Y-111502749D01*
X151101060Y-111358334D01*
X150977783Y-111189232D01*
X150817340Y-110939362D01*
X150716772Y-110770384D01*
X150515497Y-110294540D01*
X150478397Y-109844101D01*
X150604796Y-109405764D01*
X150643657Y-109329343D01*
X150779010Y-109042859D01*
X150916384Y-108696719D01*
X150976212Y-108522000D01*
X151084156Y-108200557D01*
X151196561Y-107894086D01*
X151250544Y-107760000D01*
X151350502Y-107505125D01*
X151466108Y-107181283D01*
X151527186Y-106998000D01*
X151602473Y-106783024D01*
X151702164Y-106535892D01*
X151835883Y-106236272D01*
X152013251Y-105863833D01*
X152243892Y-105398243D01*
X152537430Y-104819172D01*
X152809536Y-104288667D01*
X153100265Y-103711259D01*
X153316343Y-103254516D01*
X153454004Y-102926796D01*
X153509482Y-102736454D01*
X153509674Y-102734639D01*
X153440545Y-102670504D01*
X153252479Y-102572766D01*
X152994719Y-102465935D01*
X152689074Y-102343305D01*
X152421987Y-102222812D01*
X152275052Y-102144441D01*
X152050559Y-102039041D01*
X151784912Y-101959604D01*
X151781334Y-101958868D01*
X151558808Y-101900258D01*
X151409219Y-101837433D01*
X151400334Y-101831082D01*
X151290774Y-101775349D01*
X151058157Y-101675542D01*
X150738178Y-101546504D01*
X150417891Y-101422541D01*
X149949727Y-101238006D01*
X149440395Y-101026690D01*
X148969508Y-100822010D01*
X148766891Y-100729582D01*
X148303815Y-100523654D01*
X147755629Y-100299781D01*
X147102364Y-100050310D01*
X146324051Y-99767588D01*
X145524047Y-99486668D01*
X145123932Y-99342127D01*
X144857417Y-99214310D01*
X144697368Y-99066666D01*
X144616652Y-98862642D01*
X144588134Y-98565688D01*
X144584667Y-98221256D01*
X144586600Y-97855419D01*
X144597629Y-97627510D01*
X144625593Y-97506131D01*
X144678333Y-97459881D01*
X144763691Y-97457361D01*
X144775167Y-97458383D01*
X144775167Y-97458383D01*
G37*
X144775167Y-97458383D02*
X144944426Y-97502846D01*
X145208743Y-97603045D01*
X145512347Y-97737743D01*
X145526802Y-97744640D01*
X145897219Y-97905913D01*
X146295487Y-98054771D01*
X146585136Y-98144702D01*
X147269155Y-98339913D01*
X147970122Y-98565832D01*
X148649555Y-98808220D01*
X149268973Y-99052840D01*
X149789897Y-99285456D01*
X150088000Y-99440723D01*
X150333641Y-99567174D01*
X150654115Y-99714381D01*
X150881568Y-99810282D01*
X151141073Y-99920987D01*
X151257760Y-99991303D01*
X151249170Y-100035226D01*
X151188657Y-100055336D01*
X151175490Y-100089745D01*
X151275800Y-100164118D01*
X151498147Y-100282663D01*
X151851086Y-100449587D01*
X152343177Y-100669097D01*
X152982978Y-100945401D01*
X153104423Y-100997205D01*
X153790608Y-101286389D01*
X154334144Y-101508200D01*
X154745945Y-101666628D01*
X155036924Y-101765663D01*
X155217995Y-101809292D01*
X155300071Y-101801506D01*
X155301373Y-101800260D01*
X155371505Y-101685433D01*
X155486558Y-101452419D01*
X155627974Y-101140020D01*
X155720883Y-100923167D01*
X155893965Y-100533205D01*
X156028652Y-100286059D01*
X156136578Y-100162769D01*
X156201344Y-100140000D01*
X156329286Y-100174216D01*
X156353334Y-100214085D01*
X156321962Y-100329276D01*
X156237257Y-100565068D01*
X156113332Y-100886742D01*
X155964297Y-101259577D01*
X155804267Y-101648854D01*
X155647354Y-102019852D01*
X155507671Y-102337852D01*
X155399330Y-102568134D01*
X155385423Y-102595334D01*
X155309737Y-102754301D01*
X155175772Y-103050460D01*
X154991668Y-103465242D01*
X154765565Y-103980075D01*
X154505604Y-104576388D01*
X154219924Y-105235611D01*
X153916666Y-105939173D01*
X153771041Y-106278334D01*
X153466092Y-106988452D01*
X153178400Y-107656468D01*
X152915540Y-108264934D01*
X152685084Y-108796404D01*
X152494607Y-109233432D01*
X152351681Y-109558573D01*
X152263881Y-109754379D01*
X152242738Y-109798878D01*
X152190687Y-109929663D01*
X152191295Y-110057238D01*
X152258803Y-110214299D01*
X152407451Y-110433541D01*
X152651478Y-110747658D01*
X152661412Y-110760132D01*
X152805860Y-110950512D01*
X152851852Y-111059414D01*
X152809416Y-111135380D01*
X152748776Y-111183081D01*
X152681549Y-111244487D01*
X152661779Y-111321341D01*
X152699714Y-111444635D01*
X152805599Y-111645359D01*
X152989680Y-111954503D01*
X153020758Y-112005702D01*
X153223401Y-112344428D01*
X153406658Y-112665039D01*
X153578848Y-112986422D01*
X153748287Y-113327461D01*
X153923294Y-113707040D01*
X154112185Y-114144046D01*
X154323279Y-114657362D01*
X154564893Y-115265874D01*
X154845345Y-115988468D01*
X155172952Y-116844027D01*
X155308646Y-117200334D01*
X155471792Y-117617567D01*
X155649469Y-118053765D01*
X155809884Y-118431312D01*
X155848939Y-118519420D01*
X155973911Y-118820450D01*
X156063656Y-119080485D01*
X156099297Y-119244625D01*
X156099334Y-119247619D01*
X156109582Y-119376420D01*
X156146471Y-119530569D01*
X156219216Y-119731332D01*
X156337029Y-119999978D01*
X156509127Y-120357773D01*
X156744723Y-120825984D01*
X156991469Y-121306667D01*
X157236765Y-121794536D01*
X157466100Y-122273567D01*
X157662625Y-122706837D01*
X157809494Y-123057424D01*
X157880051Y-123254000D01*
X158032506Y-123715171D01*
X158212951Y-124199460D01*
X158408511Y-124678448D01*
X158606310Y-125123712D01*
X158793471Y-125506830D01*
X158957118Y-125799381D01*
X159084375Y-125972942D01*
X159126167Y-126004577D01*
X159270323Y-126095724D01*
X159320195Y-126180672D01*
X159253167Y-126217502D01*
X159188410Y-126287406D01*
X159175938Y-126456610D01*
X159210687Y-126665090D01*
X159287588Y-126852821D01*
X159309527Y-126885201D01*
X159407426Y-127046661D01*
X159401602Y-127190880D01*
X159340612Y-127329422D01*
X159216044Y-127496013D01*
X159081935Y-127563989D01*
X159077632Y-127563853D01*
X158948945Y-127537094D01*
X158691560Y-127469064D01*
X158338424Y-127368950D01*
X158023001Y-127275667D01*
X158808667Y-127275667D01*
X158851000Y-127318000D01*
X158893334Y-127275667D01*
X158851000Y-127233334D01*
X158808667Y-127275667D01*
X158023001Y-127275667D01*
X157922479Y-127245939D01*
X157750334Y-127193737D01*
X157209819Y-127028434D01*
X156614528Y-126845983D01*
X156036732Y-126668556D01*
X155549000Y-126518415D01*
X155128559Y-126393253D01*
X154738122Y-126285110D01*
X154421655Y-126205661D01*
X154225150Y-126166831D01*
X154025151Y-126124549D01*
X153709397Y-126037865D01*
X153321541Y-125919488D01*
X152912817Y-125784725D01*
X152614095Y-125683693D01*
X152284988Y-125575025D01*
X151911337Y-125454330D01*
X151478986Y-125317214D01*
X150973776Y-125159284D01*
X150381551Y-124976149D01*
X149688152Y-124763415D01*
X148879423Y-124516689D01*
X147941204Y-124231580D01*
X146859340Y-123903693D01*
X146489667Y-123791793D01*
X145259313Y-123418995D01*
X144099244Y-123066569D01*
X143025713Y-122739482D01*
X142054976Y-122442702D01*
X141203287Y-122181193D01*
X140486900Y-121959922D01*
X140097334Y-121838724D01*
X139721212Y-121719781D01*
X139407612Y-121622405D01*
X139136068Y-121547685D01*
X138886116Y-121496710D01*
X138637293Y-121470570D01*
X138369133Y-121470354D01*
X138061175Y-121497150D01*
X137692952Y-121552048D01*
X137244001Y-121636138D01*
X136693859Y-121750508D01*
X136022060Y-121896248D01*
X135208141Y-122074446D01*
X135059667Y-122106848D01*
X134434882Y-122242957D01*
X133774419Y-122386650D01*
X133128912Y-122526923D01*
X132548997Y-122652773D01*
X132096334Y-122750813D01*
X131647486Y-122849142D01*
X131238308Y-122941105D01*
X130907087Y-123017932D01*
X130692112Y-123070854D01*
X130657000Y-123080472D01*
X130484344Y-123123936D01*
X130183227Y-123193327D01*
X129791011Y-123280277D01*
X129345059Y-123376417D01*
X129175334Y-123412344D01*
X128256559Y-123606970D01*
X127385090Y-123793790D01*
X126575661Y-123969502D01*
X125843008Y-124130805D01*
X125201866Y-124274396D01*
X124666969Y-124396975D01*
X124253052Y-124495240D01*
X123974850Y-124565890D01*
X123847099Y-124605623D01*
X123845225Y-124606577D01*
X123687277Y-124658278D01*
X123434136Y-124710375D01*
X123291000Y-124731889D01*
X122888088Y-124794054D01*
X122466384Y-124874881D01*
X122070520Y-124964158D01*
X121745128Y-125051679D01*
X121534839Y-125127234D01*
X121513000Y-125138578D01*
X121329865Y-125207482D01*
X121059234Y-125271807D01*
X120920334Y-125295019D01*
X120131265Y-125413905D01*
X119469841Y-125530270D01*
X118894671Y-125651655D01*
X118681092Y-125702904D01*
X118290149Y-125791821D01*
X117886900Y-125870524D01*
X117567949Y-125920661D01*
X117094231Y-125979567D01*
X117086512Y-125708078D01*
X117116971Y-125551809D01*
X117215732Y-125275781D01*
X117385477Y-124873855D01*
X117628888Y-124339889D01*
X117948644Y-123667744D01*
X118226828Y-123096461D01*
X118579804Y-122376816D01*
X118969168Y-121582731D01*
X119371756Y-120761464D01*
X119764403Y-119960273D01*
X120123947Y-119226418D01*
X120369850Y-118724334D01*
X120628967Y-118195821D01*
X120948647Y-117544859D01*
X121314440Y-116800811D01*
X121711898Y-115993039D01*
X122126571Y-115150906D01*
X122544009Y-114303774D01*
X122949762Y-113481007D01*
X123078063Y-113221000D01*
X123533203Y-112299706D01*
X123919608Y-111517970D01*
X124242457Y-110863002D01*
X124506931Y-110322012D01*
X124718211Y-109882210D01*
X124881477Y-109530804D01*
X125001908Y-109255005D01*
X125084686Y-109042021D01*
X125134991Y-108879064D01*
X125158003Y-108753342D01*
X125158902Y-108652064D01*
X125142869Y-108562441D01*
X125115084Y-108471682D01*
X125080728Y-108366997D01*
X125065244Y-108314588D01*
X124999747Y-108106752D01*
X124883407Y-107764825D01*
X124724915Y-107313238D01*
X124532964Y-106776423D01*
X124316244Y-106178812D01*
X124083447Y-105544836D01*
X123994505Y-105304667D01*
X123755325Y-104658220D01*
X123526078Y-104034645D01*
X123315988Y-103459337D01*
X123134281Y-102957689D01*
X122990183Y-102555097D01*
X122892918Y-102276954D01*
X122871854Y-102214334D01*
X122742791Y-101837443D01*
X122602432Y-101449367D01*
X122496848Y-101174032D01*
X122379448Y-100867452D01*
X122330299Y-100684383D01*
X122348401Y-100593813D01*
X122432753Y-100564727D01*
X122477140Y-100563334D01*
X122592397Y-100616345D01*
X122717300Y-100789866D01*
X122867423Y-101105631D01*
X122869855Y-101111346D01*
X123102764Y-101659358D01*
X123473435Y-101624611D01*
X123741275Y-101591673D01*
X123957478Y-101551862D01*
X124000871Y-101540109D01*
X124269772Y-101533460D01*
X124501274Y-101662757D01*
X124640141Y-101895555D01*
X124645883Y-101918985D01*
X124711498Y-102136459D01*
X124823790Y-102436287D01*
X124938198Y-102707229D01*
X125088451Y-103073445D01*
X125244694Y-103501812D01*
X125355909Y-103844167D01*
X125454344Y-104137523D01*
X125547512Y-104354557D01*
X125617775Y-104455300D01*
X125626767Y-104458000D01*
X125676568Y-104509292D01*
X125664813Y-104537577D01*
X125672939Y-104654880D01*
X125755237Y-104844458D01*
X125782428Y-104891428D01*
X125881493Y-105082653D01*
X125916553Y-105210444D01*
X125912769Y-105224689D01*
X125921279Y-105327534D01*
X125977156Y-105545326D01*
X126068876Y-105834251D01*
X126086490Y-105885248D01*
X126190731Y-106217068D01*
X126265932Y-106520269D01*
X126296582Y-106731825D01*
X126296667Y-106739276D01*
X126332500Y-106981299D01*
X126426994Y-107315259D01*
X126560638Y-107682881D01*
X126713922Y-108025891D01*
X126751783Y-108098667D01*
X126890202Y-108420989D01*
X126926526Y-108721513D01*
X126858040Y-109049982D01*
X126682028Y-109456140D01*
X126677134Y-109465911D01*
X126534077Y-109776953D01*
X126429059Y-110054827D01*
X126382127Y-110245555D01*
X126381334Y-110262324D01*
X126350152Y-110419171D01*
X126292030Y-110469334D01*
X126226471Y-110545646D01*
X126092518Y-110774745D01*
X125890050Y-111156875D01*
X125618944Y-111692279D01*
X125279079Y-112381203D01*
X124870333Y-113223890D01*
X124392585Y-114220584D01*
X123845714Y-115371529D01*
X123781598Y-115507000D01*
X123580897Y-115927909D01*
X123318221Y-116473696D01*
X123006653Y-117117451D01*
X122659274Y-117832262D01*
X122289168Y-118591218D01*
X121909417Y-119367409D01*
X121533105Y-120133923D01*
X121461288Y-120279873D01*
X121122927Y-120968921D01*
X120808955Y-121611554D01*
X120527075Y-122191767D01*
X120284988Y-122693557D01*
X120090397Y-123100919D01*
X119951004Y-123397849D01*
X119874511Y-123568342D01*
X119862000Y-123603040D01*
X119879847Y-123647322D01*
X119945904Y-123665315D01*
X120078945Y-123652985D01*
X120297745Y-123606300D01*
X120621079Y-123521228D01*
X121067721Y-123393737D01*
X121656446Y-123219793D01*
X121682334Y-123212075D01*
X122025181Y-123119938D01*
X122479649Y-123012031D01*
X122990399Y-122900831D01*
X123502089Y-122798813D01*
X123580828Y-122784087D01*
X124050961Y-122690808D01*
X124493637Y-122591686D01*
X124866433Y-122496993D01*
X125126926Y-122416998D01*
X125175347Y-122398040D01*
X125434968Y-122301567D01*
X125655134Y-122244573D01*
X125718558Y-122238000D01*
X125859070Y-122218589D01*
X126129349Y-122165253D01*
X126494935Y-122085339D01*
X126921367Y-121986194D01*
X127087372Y-121946179D01*
X127563658Y-121834929D01*
X128027164Y-121734921D01*
X128431147Y-121655703D01*
X128728865Y-121606823D01*
X128778413Y-121600764D01*
X129120975Y-121536495D01*
X129305490Y-121431076D01*
X129339874Y-121276986D01*
X129274561Y-121129187D01*
X129243659Y-120981949D01*
X129333803Y-120813881D01*
X129555897Y-120613713D01*
X129920842Y-120370179D01*
X130127834Y-120247336D01*
X130398510Y-120077659D01*
X130599912Y-119926383D01*
X130695935Y-119821303D01*
X130699334Y-119807408D01*
X130719798Y-119717652D01*
X130796083Y-119723341D01*
X130950527Y-119834087D01*
X131133816Y-119994334D01*
X131347808Y-120164186D01*
X131532839Y-120271391D01*
X131604760Y-120290667D01*
X131692754Y-120277300D01*
X131646985Y-120216234D01*
X131583349Y-120166360D01*
X131487219Y-120071581D01*
X131522400Y-120042015D01*
X131665168Y-120074770D01*
X131891801Y-120166953D01*
X131993873Y-120216407D01*
X132239066Y-120341774D01*
X132359547Y-120420390D01*
X132380629Y-120484026D01*
X132327626Y-120564452D01*
X132298899Y-120599234D01*
X132236552Y-120691316D01*
X132283130Y-120715519D01*
X132466408Y-120686011D01*
X132468288Y-120685639D01*
X132688795Y-120667251D01*
X132841156Y-120698711D01*
X132849288Y-120704412D01*
X132983502Y-120731908D01*
X133243322Y-120720881D01*
X133535667Y-120681867D01*
X134128334Y-120583629D01*
X134131397Y-120502334D01*
X139843334Y-120502334D01*
X139885667Y-120544667D01*
X139928000Y-120502334D01*
X139885667Y-120460000D01*
X139843334Y-120502334D01*
X134131397Y-120502334D01*
X134153120Y-119925904D01*
X134177906Y-119268180D01*
X135652334Y-119317000D01*
X135677725Y-119803834D01*
X135705861Y-120069431D01*
X135752302Y-120245083D01*
X135793245Y-120290667D01*
X135903309Y-120272542D01*
X136147596Y-120222552D01*
X136495418Y-120147278D01*
X136916087Y-120053299D01*
X137164853Y-119996602D01*
X137639382Y-119890427D01*
X138084217Y-119795825D01*
X138460090Y-119720796D01*
X138727729Y-119673341D01*
X138801010Y-119663266D01*
X139077990Y-119608129D01*
X139314055Y-119521471D01*
X139351343Y-119500480D01*
X139576017Y-119382454D01*
X139735224Y-119320833D01*
X139843718Y-119299672D01*
X139897080Y-119344861D01*
X139911117Y-119492966D01*
X139904558Y-119712494D01*
X139885667Y-120160288D01*
X140224334Y-120209492D01*
X140519273Y-120277432D01*
X140791292Y-120378270D01*
X140817000Y-120391094D01*
X141009601Y-120472099D01*
X141314584Y-120579087D01*
X141680666Y-120694596D01*
X141875334Y-120751433D01*
X142309563Y-120879344D01*
X142764103Y-121021083D01*
X143160255Y-121151893D01*
X143266466Y-121189052D01*
X143504659Y-121269052D01*
X143877311Y-121387798D01*
X144356318Y-121536634D01*
X144913575Y-121706905D01*
X145520977Y-121889956D01*
X146145133Y-122075571D01*
X146906586Y-122300768D01*
X147771472Y-122557092D01*
X148681008Y-122827087D01*
X149576411Y-123093296D01*
X150398900Y-123338265D01*
X150750128Y-123443058D01*
X151538118Y-123674546D01*
X152166770Y-123850862D01*
X152636777Y-123972182D01*
X152948832Y-124038680D01*
X153103631Y-124050531D01*
X153120794Y-124041789D01*
X153232451Y-123981888D01*
X153453086Y-123931420D01*
X153601667Y-123913288D01*
X153874767Y-123880571D01*
X154089212Y-123838892D01*
X154152621Y-123818177D01*
X154252313Y-123827752D01*
X154364649Y-123961704D01*
X154482431Y-124185519D01*
X154684619Y-124611386D01*
X155540143Y-124871275D01*
X155942015Y-124995501D01*
X156324613Y-125117495D01*
X156632734Y-125219487D01*
X156757388Y-125263139D01*
X156982050Y-125333513D01*
X157132829Y-125359204D01*
X157161682Y-125352540D01*
X157155383Y-125257538D01*
X157092966Y-125060489D01*
X157032310Y-124908833D01*
X156922971Y-124638852D01*
X156784125Y-124275322D01*
X156641074Y-123884910D01*
X156602005Y-123775016D01*
X156463953Y-123435227D01*
X156260200Y-122999531D01*
X156014505Y-122515797D01*
X155750627Y-122031892D01*
X155649990Y-121857000D01*
X155321058Y-121285132D01*
X155076146Y-120834602D01*
X154905927Y-120485468D01*
X154801074Y-120217788D01*
X154752261Y-120011618D01*
X154745942Y-119923938D01*
X154717220Y-119791386D01*
X154637783Y-119524850D01*
X154516306Y-119148923D01*
X154361465Y-118688200D01*
X154181936Y-118167273D01*
X153986394Y-117610735D01*
X153783514Y-117043178D01*
X153581974Y-116489198D01*
X153390448Y-115973385D01*
X153217613Y-115520334D01*
X153072143Y-115154637D01*
X153017106Y-115023220D01*
X152887052Y-114796002D01*
X152737034Y-114634156D01*
X152707340Y-114615149D01*
X152590497Y-114517215D01*
X152623200Y-114412117D01*
X152654506Y-114296489D01*
X152607521Y-114094577D01*
X152488097Y-113804188D01*
X152320570Y-113463091D01*
X152137941Y-113164531D01*
X151896598Y-112840260D01*
X151778432Y-112693668D01*
X151703405Y-112565735D01*
X151590020Y-112332478D01*
X151468979Y-112058668D01*
X151331827Y-111758949D01*
X151196231Y-111502749D01*
X151101060Y-111358334D01*
X150977783Y-111189232D01*
X150817340Y-110939362D01*
X150716772Y-110770384D01*
X150515497Y-110294540D01*
X150478397Y-109844101D01*
X150604796Y-109405764D01*
X150643657Y-109329343D01*
X150779010Y-109042859D01*
X150916384Y-108696719D01*
X150976212Y-108522000D01*
X151084156Y-108200557D01*
X151196561Y-107894086D01*
X151250544Y-107760000D01*
X151350502Y-107505125D01*
X151466108Y-107181283D01*
X151527186Y-106998000D01*
X151602473Y-106783024D01*
X151702164Y-106535892D01*
X151835883Y-106236272D01*
X152013251Y-105863833D01*
X152243892Y-105398243D01*
X152537430Y-104819172D01*
X152809536Y-104288667D01*
X153100265Y-103711259D01*
X153316343Y-103254516D01*
X153454004Y-102926796D01*
X153509482Y-102736454D01*
X153509674Y-102734639D01*
X153440545Y-102670504D01*
X153252479Y-102572766D01*
X152994719Y-102465935D01*
X152689074Y-102343305D01*
X152421987Y-102222812D01*
X152275052Y-102144441D01*
X152050559Y-102039041D01*
X151784912Y-101959604D01*
X151781334Y-101958868D01*
X151558808Y-101900258D01*
X151409219Y-101837433D01*
X151400334Y-101831082D01*
X151290774Y-101775349D01*
X151058157Y-101675542D01*
X150738178Y-101546504D01*
X150417891Y-101422541D01*
X149949727Y-101238006D01*
X149440395Y-101026690D01*
X148969508Y-100822010D01*
X148766891Y-100729582D01*
X148303815Y-100523654D01*
X147755629Y-100299781D01*
X147102364Y-100050310D01*
X146324051Y-99767588D01*
X145524047Y-99486668D01*
X145123932Y-99342127D01*
X144857417Y-99214310D01*
X144697368Y-99066666D01*
X144616652Y-98862642D01*
X144588134Y-98565688D01*
X144584667Y-98221256D01*
X144586600Y-97855419D01*
X144597629Y-97627510D01*
X144625593Y-97506131D01*
X144678333Y-97459881D01*
X144763691Y-97457361D01*
X144775167Y-97458383D01*
G36*
X163974477Y-118936328D02*
X164233569Y-119056812D01*
X164551289Y-119269188D01*
X164879658Y-119533780D01*
X165170701Y-119810914D01*
X165376443Y-120060916D01*
X165416486Y-120128820D01*
X165606266Y-120683340D01*
X165639519Y-121281411D01*
X165581033Y-121658373D01*
X165359302Y-122304691D01*
X165026767Y-122824104D01*
X164581018Y-123219803D01*
X164270283Y-123393589D01*
X163964390Y-123518065D01*
X163696916Y-123571250D01*
X163397752Y-123559604D01*
X163069635Y-123504243D01*
X162566248Y-123348311D01*
X162131829Y-123104749D01*
X161799614Y-122797421D01*
X161603235Y-122451387D01*
X161472490Y-121891782D01*
X161427846Y-121302358D01*
X161449640Y-120971376D01*
X161876078Y-120971376D01*
X161881379Y-121474548D01*
X161961345Y-121950298D01*
X162104352Y-122353499D01*
X162298774Y-122639022D01*
X162307939Y-122647811D01*
X162595557Y-122845459D01*
X162979001Y-123015581D01*
X163384761Y-123130464D01*
X163677000Y-123163980D01*
X164009341Y-123114285D01*
X164343865Y-122983212D01*
X164354334Y-122977441D01*
X164625533Y-122772202D01*
X164847100Y-122469272D01*
X164925257Y-122322667D01*
X165158344Y-121716518D01*
X165229539Y-121159383D01*
X165139437Y-120653164D01*
X164888632Y-120199768D01*
X164477720Y-119801098D01*
X164054501Y-119533633D01*
X163769726Y-119388546D01*
X163572384Y-119316318D01*
X163403465Y-119304797D01*
X163203957Y-119341827D01*
X163167358Y-119350915D01*
X162671092Y-119525097D01*
X162309446Y-119775001D01*
X162065706Y-120121599D01*
X161923161Y-120585863D01*
X161876078Y-120971376D01*
X161449640Y-120971376D01*
X161465756Y-120726642D01*
X161582672Y-120208162D01*
X161775048Y-119790448D01*
X161825972Y-119717933D01*
X162107440Y-119451353D01*
X162495739Y-119218409D01*
X162940259Y-119037511D01*
X163390393Y-118927071D01*
X163795530Y-118905499D01*
X163974477Y-118936328D01*
X163974477Y-118936328D01*
G37*
X163974477Y-118936328D02*
X164233569Y-119056812D01*
X164551289Y-119269188D01*
X164879658Y-119533780D01*
X165170701Y-119810914D01*
X165376443Y-120060916D01*
X165416486Y-120128820D01*
X165606266Y-120683340D01*
X165639519Y-121281411D01*
X165581033Y-121658373D01*
X165359302Y-122304691D01*
X165026767Y-122824104D01*
X164581018Y-123219803D01*
X164270283Y-123393589D01*
X163964390Y-123518065D01*
X163696916Y-123571250D01*
X163397752Y-123559604D01*
X163069635Y-123504243D01*
X162566248Y-123348311D01*
X162131829Y-123104749D01*
X161799614Y-122797421D01*
X161603235Y-122451387D01*
X161472490Y-121891782D01*
X161427846Y-121302358D01*
X161449640Y-120971376D01*
X161876078Y-120971376D01*
X161881379Y-121474548D01*
X161961345Y-121950298D01*
X162104352Y-122353499D01*
X162298774Y-122639022D01*
X162307939Y-122647811D01*
X162595557Y-122845459D01*
X162979001Y-123015581D01*
X163384761Y-123130464D01*
X163677000Y-123163980D01*
X164009341Y-123114285D01*
X164343865Y-122983212D01*
X164354334Y-122977441D01*
X164625533Y-122772202D01*
X164847100Y-122469272D01*
X164925257Y-122322667D01*
X165158344Y-121716518D01*
X165229539Y-121159383D01*
X165139437Y-120653164D01*
X164888632Y-120199768D01*
X164477720Y-119801098D01*
X164054501Y-119533633D01*
X163769726Y-119388546D01*
X163572384Y-119316318D01*
X163403465Y-119304797D01*
X163203957Y-119341827D01*
X163167358Y-119350915D01*
X162671092Y-119525097D01*
X162309446Y-119775001D01*
X162065706Y-120121599D01*
X161923161Y-120585863D01*
X161876078Y-120971376D01*
X161449640Y-120971376D01*
X161465756Y-120726642D01*
X161582672Y-120208162D01*
X161775048Y-119790448D01*
X161825972Y-119717933D01*
X162107440Y-119451353D01*
X162495739Y-119218409D01*
X162940259Y-119037511D01*
X163390393Y-118927071D01*
X163795530Y-118905499D01*
X163974477Y-118936328D01*
G36*
X153768249Y-120677385D02*
X153813334Y-120787249D01*
X153863745Y-120963486D01*
X153982667Y-121160437D01*
X154101834Y-121347376D01*
X154151995Y-121496470D01*
X154152000Y-121497399D01*
X154210296Y-121641840D01*
X154321334Y-121772334D01*
X154457986Y-121925116D01*
X154479489Y-122014079D01*
X154386884Y-122013408D01*
X154312969Y-121979524D01*
X154194115Y-121928285D01*
X154163009Y-121978541D01*
X154192711Y-122145948D01*
X154213378Y-122340116D01*
X154148563Y-122434167D01*
X154095243Y-122455917D01*
X153880947Y-122540130D01*
X153793316Y-122582847D01*
X153605182Y-122639246D01*
X153369982Y-122662630D01*
X153091550Y-122692363D01*
X152937642Y-122795968D01*
X152870188Y-123000027D01*
X152868473Y-123012788D01*
X152836446Y-123161923D01*
X152777874Y-123163720D01*
X152723178Y-123110513D01*
X152549799Y-123024038D01*
X152407807Y-123022352D01*
X152267798Y-123025792D01*
X152141702Y-122959956D01*
X152003564Y-122799855D01*
X151827426Y-122520500D01*
X151753326Y-122392257D01*
X151599064Y-122101001D01*
X151535644Y-121889054D01*
X151577630Y-121724782D01*
X151739587Y-121576549D01*
X152036078Y-121412721D01*
X152252007Y-121309100D01*
X152573042Y-121161111D01*
X152836423Y-121045515D01*
X153004812Y-120978409D01*
X153043218Y-120968000D01*
X153143789Y-120911554D01*
X153263000Y-120798667D01*
X153440752Y-120670062D01*
X153626925Y-120629266D01*
X153768249Y-120677385D01*
X153768249Y-120677385D01*
G37*
X153768249Y-120677385D02*
X153813334Y-120787249D01*
X153863745Y-120963486D01*
X153982667Y-121160437D01*
X154101834Y-121347376D01*
X154151995Y-121496470D01*
X154152000Y-121497399D01*
X154210296Y-121641840D01*
X154321334Y-121772334D01*
X154457986Y-121925116D01*
X154479489Y-122014079D01*
X154386884Y-122013408D01*
X154312969Y-121979524D01*
X154194115Y-121928285D01*
X154163009Y-121978541D01*
X154192711Y-122145948D01*
X154213378Y-122340116D01*
X154148563Y-122434167D01*
X154095243Y-122455917D01*
X153880947Y-122540130D01*
X153793316Y-122582847D01*
X153605182Y-122639246D01*
X153369982Y-122662630D01*
X153091550Y-122692363D01*
X152937642Y-122795968D01*
X152870188Y-123000027D01*
X152868473Y-123012788D01*
X152836446Y-123161923D01*
X152777874Y-123163720D01*
X152723178Y-123110513D01*
X152549799Y-123024038D01*
X152407807Y-123022352D01*
X152267798Y-123025792D01*
X152141702Y-122959956D01*
X152003564Y-122799855D01*
X151827426Y-122520500D01*
X151753326Y-122392257D01*
X151599064Y-122101001D01*
X151535644Y-121889054D01*
X151577630Y-121724782D01*
X151739587Y-121576549D01*
X152036078Y-121412721D01*
X152252007Y-121309100D01*
X152573042Y-121161111D01*
X152836423Y-121045515D01*
X153004812Y-120978409D01*
X153043218Y-120968000D01*
X153143789Y-120911554D01*
X153263000Y-120798667D01*
X153440752Y-120670062D01*
X153626925Y-120629266D01*
X153768249Y-120677385D01*
G36*
X128422356Y-116886839D02*
X128528829Y-117051568D01*
X128540456Y-117073570D01*
X128611574Y-117237398D01*
X128628189Y-117391705D01*
X128589996Y-117600825D01*
X128537077Y-117791672D01*
X128450402Y-118053265D01*
X128367988Y-118242414D01*
X128323114Y-118304432D01*
X128242424Y-118396076D01*
X128312524Y-118459816D01*
X128515277Y-118479470D01*
X128519167Y-118479349D01*
X128742077Y-118436057D01*
X128894338Y-118344416D01*
X128895208Y-118343334D01*
X129036291Y-118270707D01*
X129207133Y-118355103D01*
X129394669Y-118589714D01*
X129407161Y-118610059D01*
X129493369Y-118777119D01*
X129481223Y-118883532D01*
X129403796Y-118973633D01*
X129243464Y-119091198D01*
X129000157Y-119226502D01*
X128885048Y-119280714D01*
X128543553Y-119456521D01*
X128342079Y-119630624D01*
X128253926Y-119830948D01*
X128244000Y-119951123D01*
X128226337Y-120178628D01*
X128192608Y-120326075D01*
X128074473Y-120444892D01*
X127886744Y-120443789D01*
X127670443Y-120331056D01*
X127524829Y-120191148D01*
X127357885Y-119922409D01*
X127338038Y-119716016D01*
X127328352Y-119487310D01*
X127260924Y-119286368D01*
X127144284Y-118928376D01*
X127168753Y-118745500D01*
X127911284Y-118745500D01*
X127921574Y-118896101D01*
X127951595Y-118890782D01*
X127990000Y-118809000D01*
X128051548Y-118645033D01*
X128068716Y-118576167D01*
X128010319Y-118514560D01*
X127990000Y-118512667D01*
X127930474Y-118585562D01*
X127911284Y-118745500D01*
X127168753Y-118745500D01*
X127188975Y-118594375D01*
X127398305Y-118266228D01*
X127458764Y-118201195D01*
X127684989Y-117920159D01*
X127779535Y-117663305D01*
X127785324Y-117598603D01*
X127841019Y-117391917D01*
X127968526Y-117159781D01*
X128129551Y-116955771D01*
X128285797Y-116833464D01*
X128342333Y-116819334D01*
X128422356Y-116886839D01*
X128422356Y-116886839D01*
G37*
X128422356Y-116886839D02*
X128528829Y-117051568D01*
X128540456Y-117073570D01*
X128611574Y-117237398D01*
X128628189Y-117391705D01*
X128589996Y-117600825D01*
X128537077Y-117791672D01*
X128450402Y-118053265D01*
X128367988Y-118242414D01*
X128323114Y-118304432D01*
X128242424Y-118396076D01*
X128312524Y-118459816D01*
X128515277Y-118479470D01*
X128519167Y-118479349D01*
X128742077Y-118436057D01*
X128894338Y-118344416D01*
X128895208Y-118343334D01*
X129036291Y-118270707D01*
X129207133Y-118355103D01*
X129394669Y-118589714D01*
X129407161Y-118610059D01*
X129493369Y-118777119D01*
X129481223Y-118883532D01*
X129403796Y-118973633D01*
X129243464Y-119091198D01*
X129000157Y-119226502D01*
X128885048Y-119280714D01*
X128543553Y-119456521D01*
X128342079Y-119630624D01*
X128253926Y-119830948D01*
X128244000Y-119951123D01*
X128226337Y-120178628D01*
X128192608Y-120326075D01*
X128074473Y-120444892D01*
X127886744Y-120443789D01*
X127670443Y-120331056D01*
X127524829Y-120191148D01*
X127357885Y-119922409D01*
X127338038Y-119716016D01*
X127328352Y-119487310D01*
X127260924Y-119286368D01*
X127144284Y-118928376D01*
X127168753Y-118745500D01*
X127911284Y-118745500D01*
X127921574Y-118896101D01*
X127951595Y-118890782D01*
X127990000Y-118809000D01*
X128051548Y-118645033D01*
X128068716Y-118576167D01*
X128010319Y-118514560D01*
X127990000Y-118512667D01*
X127930474Y-118585562D01*
X127911284Y-118745500D01*
X127168753Y-118745500D01*
X127188975Y-118594375D01*
X127398305Y-118266228D01*
X127458764Y-118201195D01*
X127684989Y-117920159D01*
X127779535Y-117663305D01*
X127785324Y-117598603D01*
X127841019Y-117391917D01*
X127968526Y-117159781D01*
X128129551Y-116955771D01*
X128285797Y-116833464D01*
X128342333Y-116819334D01*
X128422356Y-116886839D01*
G36*
X151845895Y-117322110D02*
X151961737Y-117411464D01*
X152121346Y-117601172D01*
X152222254Y-117731144D01*
X152418286Y-118004742D01*
X152499166Y-118170812D01*
X152471641Y-118240225D01*
X152377364Y-118293009D01*
X152211368Y-118416960D01*
X151959453Y-118623631D01*
X151607421Y-118924579D01*
X151273334Y-119215452D01*
X150889706Y-119530111D01*
X150593910Y-119717944D01*
X150367090Y-119783622D01*
X150190391Y-119731815D01*
X150044956Y-119567196D01*
X150020562Y-119525800D01*
X149888294Y-119348453D01*
X149750668Y-119309044D01*
X149707000Y-119318546D01*
X149509275Y-119364911D01*
X149250731Y-119412401D01*
X149220167Y-119417227D01*
X148992356Y-119429057D01*
X148910460Y-119367009D01*
X148972998Y-119224454D01*
X149135500Y-119038220D01*
X149276112Y-118897872D01*
X149346276Y-118835971D01*
X149347901Y-118838594D01*
X149375071Y-118939235D01*
X149495723Y-119045846D01*
X149645101Y-119104119D01*
X149665975Y-119105334D01*
X149823695Y-119030160D01*
X149909349Y-118827166D01*
X149918667Y-118708350D01*
X149864157Y-118618481D01*
X149791667Y-118627951D01*
X149678772Y-118640969D01*
X149682243Y-118559420D01*
X149793233Y-118402735D01*
X149982167Y-118209427D01*
X150287340Y-117977955D01*
X150699905Y-117735388D01*
X151163092Y-117512149D01*
X151587254Y-117349295D01*
X151734256Y-117309318D01*
X151845895Y-117322110D01*
X151845895Y-117322110D01*
G37*
X151845895Y-117322110D02*
X151961737Y-117411464D01*
X152121346Y-117601172D01*
X152222254Y-117731144D01*
X152418286Y-118004742D01*
X152499166Y-118170812D01*
X152471641Y-118240225D01*
X152377364Y-118293009D01*
X152211368Y-118416960D01*
X151959453Y-118623631D01*
X151607421Y-118924579D01*
X151273334Y-119215452D01*
X150889706Y-119530111D01*
X150593910Y-119717944D01*
X150367090Y-119783622D01*
X150190391Y-119731815D01*
X150044956Y-119567196D01*
X150020562Y-119525800D01*
X149888294Y-119348453D01*
X149750668Y-119309044D01*
X149707000Y-119318546D01*
X149509275Y-119364911D01*
X149250731Y-119412401D01*
X149220167Y-119417227D01*
X148992356Y-119429057D01*
X148910460Y-119367009D01*
X148972998Y-119224454D01*
X149135500Y-119038220D01*
X149276112Y-118897872D01*
X149346276Y-118835971D01*
X149347901Y-118838594D01*
X149375071Y-118939235D01*
X149495723Y-119045846D01*
X149645101Y-119104119D01*
X149665975Y-119105334D01*
X149823695Y-119030160D01*
X149909349Y-118827166D01*
X149918667Y-118708350D01*
X149864157Y-118618481D01*
X149791667Y-118627951D01*
X149678772Y-118640969D01*
X149682243Y-118559420D01*
X149793233Y-118402735D01*
X149982167Y-118209427D01*
X150287340Y-117977955D01*
X150699905Y-117735388D01*
X151163092Y-117512149D01*
X151587254Y-117349295D01*
X151734256Y-117309318D01*
X151845895Y-117322110D01*
G36*
X125214670Y-116693135D02*
X125219615Y-116693561D01*
X125563500Y-116734927D01*
X125892713Y-116793328D01*
X126060362Y-116834638D01*
X126271236Y-116915411D01*
X126362559Y-117021319D01*
X126381841Y-117192569D01*
X126388675Y-117402937D01*
X126406276Y-117719392D01*
X126431080Y-118079295D01*
X126435632Y-118138675D01*
X126459243Y-118480506D01*
X126458518Y-118701821D01*
X126423788Y-118850801D01*
X126345385Y-118975626D01*
X126244624Y-119090579D01*
X126056696Y-119260710D01*
X125843132Y-119356739D01*
X125532714Y-119410496D01*
X125527519Y-119411080D01*
X125251311Y-119435015D01*
X125084310Y-119417867D01*
X124968286Y-119343847D01*
X124873577Y-119233754D01*
X124732167Y-118984469D01*
X124729332Y-118975603D01*
X125054394Y-118975603D01*
X125148406Y-119095769D01*
X125288929Y-119179336D01*
X125352182Y-119190000D01*
X125424380Y-119168018D01*
X125376737Y-119083007D01*
X125301834Y-119004204D01*
X125157127Y-118891369D01*
X125061669Y-118873063D01*
X125059287Y-118875158D01*
X125054394Y-118975603D01*
X124729332Y-118975603D01*
X124641738Y-118701724D01*
X124640499Y-118694578D01*
X124592416Y-118438657D01*
X124545174Y-118230751D01*
X124541625Y-118217724D01*
X124501652Y-118105167D01*
X124462217Y-118142742D01*
X124424746Y-118238891D01*
X124338321Y-118385331D01*
X124267395Y-118428000D01*
X124185628Y-118372440D01*
X124209926Y-118231842D01*
X124331208Y-118045328D01*
X124365019Y-118007336D01*
X124513422Y-117749287D01*
X124568045Y-117407953D01*
X124591532Y-117046325D01*
X124640581Y-116824024D01*
X124742548Y-116711057D01*
X124924791Y-116677425D01*
X125214670Y-116693135D01*
X125214670Y-116693135D01*
G37*
X125214670Y-116693135D02*
X125219615Y-116693561D01*
X125563500Y-116734927D01*
X125892713Y-116793328D01*
X126060362Y-116834638D01*
X126271236Y-116915411D01*
X126362559Y-117021319D01*
X126381841Y-117192569D01*
X126388675Y-117402937D01*
X126406276Y-117719392D01*
X126431080Y-118079295D01*
X126435632Y-118138675D01*
X126459243Y-118480506D01*
X126458518Y-118701821D01*
X126423788Y-118850801D01*
X126345385Y-118975626D01*
X126244624Y-119090579D01*
X126056696Y-119260710D01*
X125843132Y-119356739D01*
X125532714Y-119410496D01*
X125527519Y-119411080D01*
X125251311Y-119435015D01*
X125084310Y-119417867D01*
X124968286Y-119343847D01*
X124873577Y-119233754D01*
X124732167Y-118984469D01*
X124729332Y-118975603D01*
X125054394Y-118975603D01*
X125148406Y-119095769D01*
X125288929Y-119179336D01*
X125352182Y-119190000D01*
X125424380Y-119168018D01*
X125376737Y-119083007D01*
X125301834Y-119004204D01*
X125157127Y-118891369D01*
X125061669Y-118873063D01*
X125059287Y-118875158D01*
X125054394Y-118975603D01*
X124729332Y-118975603D01*
X124641738Y-118701724D01*
X124640499Y-118694578D01*
X124592416Y-118438657D01*
X124545174Y-118230751D01*
X124541625Y-118217724D01*
X124501652Y-118105167D01*
X124462217Y-118142742D01*
X124424746Y-118238891D01*
X124338321Y-118385331D01*
X124267395Y-118428000D01*
X124185628Y-118372440D01*
X124209926Y-118231842D01*
X124331208Y-118045328D01*
X124365019Y-118007336D01*
X124513422Y-117749287D01*
X124568045Y-117407953D01*
X124591532Y-117046325D01*
X124640581Y-116824024D01*
X124742548Y-116711057D01*
X124924791Y-116677425D01*
X125214670Y-116693135D01*
G36*
X143389340Y-114891273D02*
X143461216Y-115162066D01*
X143495024Y-115347691D01*
X143598612Y-116104683D01*
X143634627Y-116741454D01*
X143602877Y-117245557D01*
X143528913Y-117544029D01*
X143402438Y-117790217D01*
X143232432Y-118018469D01*
X143057034Y-118185983D01*
X142914382Y-118249959D01*
X142901082Y-118248609D01*
X142794964Y-118224743D01*
X142581676Y-118174945D01*
X142432491Y-118139678D01*
X142078959Y-118009077D01*
X141838770Y-117797159D01*
X141691448Y-117476766D01*
X141620284Y-117062359D01*
X141598015Y-116775910D01*
X141608047Y-116612264D01*
X141661544Y-116526216D01*
X141765556Y-116474119D01*
X141918405Y-116356535D01*
X141960000Y-116152672D01*
X142031747Y-115929503D01*
X142240400Y-115633799D01*
X142576077Y-115277452D01*
X143013116Y-114885591D01*
X143182124Y-114769178D01*
X143301920Y-114765691D01*
X143389340Y-114891273D01*
X143389340Y-114891273D01*
G37*
X143389340Y-114891273D02*
X143461216Y-115162066D01*
X143495024Y-115347691D01*
X143598612Y-116104683D01*
X143634627Y-116741454D01*
X143602877Y-117245557D01*
X143528913Y-117544029D01*
X143402438Y-117790217D01*
X143232432Y-118018469D01*
X143057034Y-118185983D01*
X142914382Y-118249959D01*
X142901082Y-118248609D01*
X142794964Y-118224743D01*
X142581676Y-118174945D01*
X142432491Y-118139678D01*
X142078959Y-118009077D01*
X141838770Y-117797159D01*
X141691448Y-117476766D01*
X141620284Y-117062359D01*
X141598015Y-116775910D01*
X141608047Y-116612264D01*
X141661544Y-116526216D01*
X141765556Y-116474119D01*
X141918405Y-116356535D01*
X141960000Y-116152672D01*
X142031747Y-115929503D01*
X142240400Y-115633799D01*
X142576077Y-115277452D01*
X143013116Y-114885591D01*
X143182124Y-114769178D01*
X143301920Y-114765691D01*
X143389340Y-114891273D01*
G36*
X135809422Y-114474931D02*
X136124883Y-114678783D01*
X136181500Y-114728006D01*
X136273043Y-114828039D01*
X136329452Y-114951505D01*
X136358850Y-115138990D01*
X136369356Y-115431080D01*
X136369980Y-115669925D01*
X136357272Y-116173304D01*
X136314952Y-116575377D01*
X136232183Y-116943126D01*
X136100044Y-117338379D01*
X135996175Y-117549019D01*
X135849312Y-117770552D01*
X135694851Y-117957652D01*
X135568188Y-118064992D01*
X135525334Y-118074321D01*
X135420043Y-118056546D01*
X135222258Y-118029880D01*
X135207946Y-118028094D01*
X134955482Y-117939179D01*
X134836660Y-117814144D01*
X134716300Y-117614983D01*
X134554512Y-117407437D01*
X134403500Y-117236598D01*
X134290137Y-117070887D01*
X134255334Y-116959342D01*
X134219519Y-116810628D01*
X134132036Y-116598680D01*
X134119480Y-116573024D01*
X134039454Y-116336878D01*
X134027685Y-116129023D01*
X134030620Y-116115516D01*
X134202309Y-115523721D01*
X134363407Y-115114677D01*
X135344091Y-115114677D01*
X135365734Y-115300878D01*
X135390770Y-115422334D01*
X135457028Y-115647973D01*
X135523979Y-115784623D01*
X135550289Y-115803334D01*
X135589778Y-115737576D01*
X135577393Y-115655167D01*
X135524232Y-115459989D01*
X135477842Y-115274167D01*
X135419145Y-115106018D01*
X135362342Y-115041334D01*
X135344091Y-115114677D01*
X134363407Y-115114677D01*
X134379726Y-115073244D01*
X134558639Y-114772343D01*
X134734819Y-114629278D01*
X134797835Y-114618000D01*
X134943918Y-114558376D01*
X135017334Y-114491000D01*
X135216814Y-114373133D01*
X135493788Y-114370412D01*
X135809422Y-114474931D01*
X135809422Y-114474931D01*
G37*
X135809422Y-114474931D02*
X136124883Y-114678783D01*
X136181500Y-114728006D01*
X136273043Y-114828039D01*
X136329452Y-114951505D01*
X136358850Y-115138990D01*
X136369356Y-115431080D01*
X136369980Y-115669925D01*
X136357272Y-116173304D01*
X136314952Y-116575377D01*
X136232183Y-116943126D01*
X136100044Y-117338379D01*
X135996175Y-117549019D01*
X135849312Y-117770552D01*
X135694851Y-117957652D01*
X135568188Y-118064992D01*
X135525334Y-118074321D01*
X135420043Y-118056546D01*
X135222258Y-118029880D01*
X135207946Y-118028094D01*
X134955482Y-117939179D01*
X134836660Y-117814144D01*
X134716300Y-117614983D01*
X134554512Y-117407437D01*
X134403500Y-117236598D01*
X134290137Y-117070887D01*
X134255334Y-116959342D01*
X134219519Y-116810628D01*
X134132036Y-116598680D01*
X134119480Y-116573024D01*
X134039454Y-116336878D01*
X134027685Y-116129023D01*
X134030620Y-116115516D01*
X134202309Y-115523721D01*
X134363407Y-115114677D01*
X135344091Y-115114677D01*
X135365734Y-115300878D01*
X135390770Y-115422334D01*
X135457028Y-115647973D01*
X135523979Y-115784623D01*
X135550289Y-115803334D01*
X135589778Y-115737576D01*
X135577393Y-115655167D01*
X135524232Y-115459989D01*
X135477842Y-115274167D01*
X135419145Y-115106018D01*
X135362342Y-115041334D01*
X135344091Y-115114677D01*
X134363407Y-115114677D01*
X134379726Y-115073244D01*
X134558639Y-114772343D01*
X134734819Y-114629278D01*
X134797835Y-114618000D01*
X134943918Y-114558376D01*
X135017334Y-114491000D01*
X135216814Y-114373133D01*
X135493788Y-114370412D01*
X135809422Y-114474931D01*
G36*
X150303269Y-115014278D02*
X150498690Y-115160383D01*
X150596000Y-115253000D01*
X150866865Y-115474369D01*
X151116903Y-115549162D01*
X151129667Y-115549334D01*
X151300353Y-115570314D01*
X151335658Y-115647120D01*
X151324725Y-115683258D01*
X151279258Y-115837618D01*
X151273334Y-115884203D01*
X151199934Y-115942847D01*
X151003615Y-116042942D01*
X150720195Y-116166985D01*
X150574834Y-116225542D01*
X150205178Y-116377068D01*
X149849028Y-116533792D01*
X149570954Y-116667048D01*
X149521633Y-116693102D01*
X149304560Y-116805851D01*
X149179695Y-116839582D01*
X149091455Y-116797935D01*
X149021677Y-116725838D01*
X148868993Y-116602583D01*
X148762545Y-116565334D01*
X148667607Y-116502533D01*
X148651054Y-116346183D01*
X148698453Y-116144361D01*
X148795369Y-115945145D01*
X148927369Y-115796614D01*
X149005781Y-115755145D01*
X149151233Y-115673941D01*
X149369906Y-115513167D01*
X149588425Y-115330184D01*
X149826279Y-115138032D01*
X150034220Y-115003220D01*
X150158884Y-114956667D01*
X150303269Y-115014278D01*
X150303269Y-115014278D01*
G37*
X150303269Y-115014278D02*
X150498690Y-115160383D01*
X150596000Y-115253000D01*
X150866865Y-115474369D01*
X151116903Y-115549162D01*
X151129667Y-115549334D01*
X151300353Y-115570314D01*
X151335658Y-115647120D01*
X151324725Y-115683258D01*
X151279258Y-115837618D01*
X151273334Y-115884203D01*
X151199934Y-115942847D01*
X151003615Y-116042942D01*
X150720195Y-116166985D01*
X150574834Y-116225542D01*
X150205178Y-116377068D01*
X149849028Y-116533792D01*
X149570954Y-116667048D01*
X149521633Y-116693102D01*
X149304560Y-116805851D01*
X149179695Y-116839582D01*
X149091455Y-116797935D01*
X149021677Y-116725838D01*
X148868993Y-116602583D01*
X148762545Y-116565334D01*
X148667607Y-116502533D01*
X148651054Y-116346183D01*
X148698453Y-116144361D01*
X148795369Y-115945145D01*
X148927369Y-115796614D01*
X149005781Y-115755145D01*
X149151233Y-115673941D01*
X149369906Y-115513167D01*
X149588425Y-115330184D01*
X149826279Y-115138032D01*
X150034220Y-115003220D01*
X150158884Y-114956667D01*
X150303269Y-115014278D01*
G36*
X140323111Y-116000889D02*
X140333244Y-116101369D01*
X140323111Y-116113778D01*
X140272777Y-116102156D01*
X140266667Y-116057334D01*
X140297645Y-115987643D01*
X140323111Y-116000889D01*
X140323111Y-116000889D01*
G37*
X140323111Y-116000889D02*
X140333244Y-116101369D01*
X140323111Y-116113778D01*
X140272777Y-116102156D01*
X140266667Y-116057334D01*
X140297645Y-115987643D01*
X140323111Y-116000889D01*
G36*
X131712278Y-96351552D02*
X131891131Y-96413433D01*
X132162310Y-96536174D01*
X132548045Y-96728270D01*
X132794699Y-96854989D01*
X133208728Y-97075538D01*
X133577668Y-97284208D01*
X133870779Y-97462697D01*
X134057320Y-97592704D01*
X134099258Y-97631638D01*
X134177734Y-97765469D01*
X134225047Y-97962769D01*
X134247762Y-98262774D01*
X134252517Y-98547503D01*
X134245660Y-98883819D01*
X134224938Y-99151113D01*
X134194222Y-99307645D01*
X134179941Y-99329935D01*
X134071824Y-99320027D01*
X133853447Y-99251729D01*
X133567683Y-99138929D01*
X133501652Y-99110237D01*
X133180235Y-98958249D01*
X132983992Y-98833934D01*
X132877792Y-98710416D01*
X132835755Y-98600813D01*
X132686765Y-98352882D01*
X132415535Y-98144662D01*
X132058317Y-97931643D01*
X131192531Y-98760655D01*
X130826889Y-99111079D01*
X130455862Y-99467199D01*
X130120783Y-99789313D01*
X129862981Y-100037718D01*
X129844742Y-100055334D01*
X129362739Y-100521000D01*
X129307377Y-101621667D01*
X129273438Y-102153520D01*
X129224734Y-102735243D01*
X129168409Y-103287974D01*
X129123859Y-103647672D01*
X128995703Y-104573010D01*
X129503957Y-105081263D01*
X130012210Y-105589517D01*
X130186438Y-105383592D01*
X130360667Y-105177667D01*
X130530000Y-105377547D01*
X130653706Y-105588078D01*
X130699334Y-105779713D01*
X130741536Y-105937912D01*
X130816686Y-105982000D01*
X130922537Y-106052370D01*
X131044328Y-106228177D01*
X131080158Y-106299500D01*
X131198912Y-106492868D01*
X131393546Y-106744001D01*
X131634163Y-107021293D01*
X131890868Y-107293136D01*
X132133765Y-107527923D01*
X132332960Y-107694046D01*
X132458556Y-107759899D01*
X132461559Y-107760000D01*
X132596003Y-107703218D01*
X132814847Y-107551662D01*
X133086066Y-107333518D01*
X133377637Y-107076973D01*
X133657534Y-106810212D01*
X133893734Y-106561421D01*
X134054212Y-106358787D01*
X134055057Y-106357499D01*
X134217354Y-106181870D01*
X134356082Y-106165575D01*
X134457196Y-106298882D01*
X134506654Y-106572059D01*
X134509334Y-106672306D01*
X134569265Y-106951170D01*
X134751764Y-107114943D01*
X135053619Y-107167334D01*
X135251920Y-107184905D01*
X135352786Y-107228216D01*
X135356000Y-107238580D01*
X135337618Y-107280796D01*
X135273860Y-107359691D01*
X135151808Y-107487946D01*
X134958543Y-107678245D01*
X134681148Y-107943270D01*
X134306704Y-108295705D01*
X133822293Y-108748233D01*
X133744655Y-108820585D01*
X133197000Y-109330836D01*
X133239334Y-109963585D01*
X133281667Y-110596334D01*
X133860675Y-110621540D01*
X134173987Y-110642774D01*
X134344893Y-110677000D01*
X134400219Y-110731387D01*
X134394598Y-110764236D01*
X134409169Y-110888557D01*
X134450590Y-110918947D01*
X134502153Y-110980703D01*
X134435250Y-111072584D01*
X134332222Y-111142768D01*
X134280028Y-111083167D01*
X134175993Y-110979064D01*
X134020986Y-110985827D01*
X133866342Y-111079385D01*
X133763395Y-111235669D01*
X133747334Y-111332934D01*
X133794871Y-111463509D01*
X133910045Y-111463726D01*
X134048577Y-111337300D01*
X134158670Y-111233285D01*
X134213844Y-111266860D01*
X134200071Y-111411293D01*
X134153833Y-111537892D01*
X134041117Y-111730780D01*
X133878774Y-111942868D01*
X133708175Y-112126879D01*
X133570690Y-112235538D01*
X133533001Y-112247334D01*
X133507550Y-112177652D01*
X133528101Y-112035667D01*
X133581226Y-111824000D01*
X132923447Y-111829951D01*
X132550635Y-111842280D01*
X132275264Y-111867786D01*
X132110271Y-111900571D01*
X132068593Y-111934735D01*
X132163165Y-111964380D01*
X132406926Y-111983608D01*
X132578170Y-111987383D01*
X132894085Y-111999662D01*
X133139474Y-112026766D01*
X133269352Y-112063307D01*
X133277409Y-112071111D01*
X133249920Y-112144842D01*
X133089207Y-112197971D01*
X132830652Y-112225560D01*
X132509640Y-112222672D01*
X132313437Y-112205631D01*
X131820322Y-112148399D01*
X130635090Y-113108033D01*
X130144868Y-113505148D01*
X129598098Y-113948404D01*
X129049984Y-114393026D01*
X128555732Y-114794241D01*
X128381841Y-114935500D01*
X128018857Y-115227122D01*
X127700748Y-115476413D01*
X127450906Y-115665538D01*
X127292724Y-115776662D01*
X127249745Y-115798603D01*
X127139851Y-115765447D01*
X126932666Y-115686489D01*
X126804667Y-115634000D01*
X126477740Y-115534885D01*
X126109429Y-115475953D01*
X125984164Y-115469397D01*
X125674089Y-115450424D01*
X125524553Y-115397528D01*
X125528974Y-115304075D01*
X125680732Y-115163455D01*
X125849150Y-115033639D01*
X126101845Y-114833933D01*
X126391898Y-114601503D01*
X126476240Y-114533334D01*
X126718284Y-114337350D01*
X127062139Y-114059022D01*
X127477964Y-113722497D01*
X127935917Y-113351927D01*
X128406157Y-112971462D01*
X128515411Y-112883073D01*
X128999253Y-112490606D01*
X129491513Y-112089478D01*
X129958449Y-111707315D01*
X130366321Y-111371742D01*
X130681388Y-111110384D01*
X130720500Y-111077661D01*
X131461334Y-110456843D01*
X131458982Y-109933922D01*
X131448651Y-109630308D01*
X131406898Y-109433153D01*
X131312483Y-109279889D01*
X131195257Y-109157000D01*
X130965710Y-108916073D01*
X130746630Y-108659433D01*
X130721893Y-108627834D01*
X130560258Y-108453897D01*
X130418100Y-108358743D01*
X130387954Y-108352667D01*
X130304916Y-108313805D01*
X130311966Y-108278304D01*
X130278435Y-108187498D01*
X130146182Y-108021575D01*
X129948330Y-107820813D01*
X129666505Y-107541763D01*
X129378507Y-107232681D01*
X129219836Y-107048510D01*
X128965282Y-106784114D01*
X128757255Y-106665257D01*
X128709835Y-106659334D01*
X128510246Y-106606053D01*
X128413334Y-106532334D01*
X128235602Y-106440991D01*
X127904071Y-106405727D01*
X127855612Y-106405334D01*
X127596424Y-106392880D01*
X127418154Y-106338709D01*
X127308668Y-106217611D01*
X127292248Y-106151334D01*
X127566667Y-106151334D01*
X127597645Y-106221024D01*
X127623111Y-106207778D01*
X127633244Y-106107298D01*
X127623111Y-106094889D01*
X127572777Y-106106511D01*
X127566667Y-106151334D01*
X127292248Y-106151334D01*
X127255836Y-106004372D01*
X127253146Y-105897334D01*
X127397334Y-105897334D01*
X127428312Y-105967024D01*
X127453778Y-105953778D01*
X127463911Y-105853298D01*
X127453778Y-105840889D01*
X127403444Y-105852511D01*
X127397334Y-105897334D01*
X127253146Y-105897334D01*
X127247527Y-105673779D01*
X127251230Y-105601000D01*
X127482000Y-105601000D01*
X127524334Y-105643334D01*
X127566667Y-105601000D01*
X127524334Y-105558667D01*
X127482000Y-105601000D01*
X127251230Y-105601000D01*
X127259849Y-105431667D01*
X127397334Y-105431667D01*
X127439667Y-105474000D01*
X127482000Y-105431667D01*
X127439667Y-105389334D01*
X127397334Y-105431667D01*
X127259849Y-105431667D01*
X127271609Y-105200622D01*
X127272129Y-105192702D01*
X127300571Y-104823175D01*
X127331931Y-104515904D01*
X127361693Y-104310891D01*
X127378506Y-104250634D01*
X127407564Y-104191465D01*
X127432827Y-104099536D01*
X127458522Y-103946109D01*
X127488876Y-103702449D01*
X127528116Y-103339819D01*
X127564558Y-102985859D01*
X127608105Y-102620047D01*
X127656051Y-102314658D01*
X127701274Y-102111129D01*
X127724614Y-102054526D01*
X127780531Y-101919036D01*
X127836406Y-101684065D01*
X127857602Y-101557537D01*
X127882926Y-101300824D01*
X127858193Y-101163531D01*
X127783616Y-101103978D01*
X127668147Y-101013389D01*
X127651334Y-100963108D01*
X127599799Y-100836785D01*
X127503167Y-100705797D01*
X127412728Y-100570338D01*
X127455212Y-100503650D01*
X127460834Y-100501575D01*
X127552134Y-100396497D01*
X127566667Y-100317037D01*
X127625083Y-100162556D01*
X127767606Y-99982334D01*
X127786378Y-99964259D01*
X127978782Y-99748775D01*
X128127219Y-99526167D01*
X128240667Y-99362325D01*
X128344474Y-99293340D01*
X128345229Y-99293334D01*
X128446158Y-99238382D01*
X128634747Y-99091288D01*
X128877969Y-98878688D01*
X129001284Y-98764167D01*
X129344655Y-98445046D01*
X129730192Y-98095553D01*
X130080378Y-97785869D01*
X130114084Y-97756668D01*
X130443170Y-97440490D01*
X130720372Y-97114808D01*
X130881703Y-96867668D01*
X131034160Y-96613002D01*
X131164474Y-96493066D01*
X131270199Y-96475695D01*
X131458801Y-96438682D01*
X131542642Y-96376379D01*
X131603525Y-96342033D01*
X131712278Y-96351552D01*
X131712278Y-96351552D01*
G37*
X131712278Y-96351552D02*
X131891131Y-96413433D01*
X132162310Y-96536174D01*
X132548045Y-96728270D01*
X132794699Y-96854989D01*
X133208728Y-97075538D01*
X133577668Y-97284208D01*
X133870779Y-97462697D01*
X134057320Y-97592704D01*
X134099258Y-97631638D01*
X134177734Y-97765469D01*
X134225047Y-97962769D01*
X134247762Y-98262774D01*
X134252517Y-98547503D01*
X134245660Y-98883819D01*
X134224938Y-99151113D01*
X134194222Y-99307645D01*
X134179941Y-99329935D01*
X134071824Y-99320027D01*
X133853447Y-99251729D01*
X133567683Y-99138929D01*
X133501652Y-99110237D01*
X133180235Y-98958249D01*
X132983992Y-98833934D01*
X132877792Y-98710416D01*
X132835755Y-98600813D01*
X132686765Y-98352882D01*
X132415535Y-98144662D01*
X132058317Y-97931643D01*
X131192531Y-98760655D01*
X130826889Y-99111079D01*
X130455862Y-99467199D01*
X130120783Y-99789313D01*
X129862981Y-100037718D01*
X129844742Y-100055334D01*
X129362739Y-100521000D01*
X129307377Y-101621667D01*
X129273438Y-102153520D01*
X129224734Y-102735243D01*
X129168409Y-103287974D01*
X129123859Y-103647672D01*
X128995703Y-104573010D01*
X129503957Y-105081263D01*
X130012210Y-105589517D01*
X130186438Y-105383592D01*
X130360667Y-105177667D01*
X130530000Y-105377547D01*
X130653706Y-105588078D01*
X130699334Y-105779713D01*
X130741536Y-105937912D01*
X130816686Y-105982000D01*
X130922537Y-106052370D01*
X131044328Y-106228177D01*
X131080158Y-106299500D01*
X131198912Y-106492868D01*
X131393546Y-106744001D01*
X131634163Y-107021293D01*
X131890868Y-107293136D01*
X132133765Y-107527923D01*
X132332960Y-107694046D01*
X132458556Y-107759899D01*
X132461559Y-107760000D01*
X132596003Y-107703218D01*
X132814847Y-107551662D01*
X133086066Y-107333518D01*
X133377637Y-107076973D01*
X133657534Y-106810212D01*
X133893734Y-106561421D01*
X134054212Y-106358787D01*
X134055057Y-106357499D01*
X134217354Y-106181870D01*
X134356082Y-106165575D01*
X134457196Y-106298882D01*
X134506654Y-106572059D01*
X134509334Y-106672306D01*
X134569265Y-106951170D01*
X134751764Y-107114943D01*
X135053619Y-107167334D01*
X135251920Y-107184905D01*
X135352786Y-107228216D01*
X135356000Y-107238580D01*
X135337618Y-107280796D01*
X135273860Y-107359691D01*
X135151808Y-107487946D01*
X134958543Y-107678245D01*
X134681148Y-107943270D01*
X134306704Y-108295705D01*
X133822293Y-108748233D01*
X133744655Y-108820585D01*
X133197000Y-109330836D01*
X133239334Y-109963585D01*
X133281667Y-110596334D01*
X133860675Y-110621540D01*
X134173987Y-110642774D01*
X134344893Y-110677000D01*
X134400219Y-110731387D01*
X134394598Y-110764236D01*
X134409169Y-110888557D01*
X134450590Y-110918947D01*
X134502153Y-110980703D01*
X134435250Y-111072584D01*
X134332222Y-111142768D01*
X134280028Y-111083167D01*
X134175993Y-110979064D01*
X134020986Y-110985827D01*
X133866342Y-111079385D01*
X133763395Y-111235669D01*
X133747334Y-111332934D01*
X133794871Y-111463509D01*
X133910045Y-111463726D01*
X134048577Y-111337300D01*
X134158670Y-111233285D01*
X134213844Y-111266860D01*
X134200071Y-111411293D01*
X134153833Y-111537892D01*
X134041117Y-111730780D01*
X133878774Y-111942868D01*
X133708175Y-112126879D01*
X133570690Y-112235538D01*
X133533001Y-112247334D01*
X133507550Y-112177652D01*
X133528101Y-112035667D01*
X133581226Y-111824000D01*
X132923447Y-111829951D01*
X132550635Y-111842280D01*
X132275264Y-111867786D01*
X132110271Y-111900571D01*
X132068593Y-111934735D01*
X132163165Y-111964380D01*
X132406926Y-111983608D01*
X132578170Y-111987383D01*
X132894085Y-111999662D01*
X133139474Y-112026766D01*
X133269352Y-112063307D01*
X133277409Y-112071111D01*
X133249920Y-112144842D01*
X133089207Y-112197971D01*
X132830652Y-112225560D01*
X132509640Y-112222672D01*
X132313437Y-112205631D01*
X131820322Y-112148399D01*
X130635090Y-113108033D01*
X130144868Y-113505148D01*
X129598098Y-113948404D01*
X129049984Y-114393026D01*
X128555732Y-114794241D01*
X128381841Y-114935500D01*
X128018857Y-115227122D01*
X127700748Y-115476413D01*
X127450906Y-115665538D01*
X127292724Y-115776662D01*
X127249745Y-115798603D01*
X127139851Y-115765447D01*
X126932666Y-115686489D01*
X126804667Y-115634000D01*
X126477740Y-115534885D01*
X126109429Y-115475953D01*
X125984164Y-115469397D01*
X125674089Y-115450424D01*
X125524553Y-115397528D01*
X125528974Y-115304075D01*
X125680732Y-115163455D01*
X125849150Y-115033639D01*
X126101845Y-114833933D01*
X126391898Y-114601503D01*
X126476240Y-114533334D01*
X126718284Y-114337350D01*
X127062139Y-114059022D01*
X127477964Y-113722497D01*
X127935917Y-113351927D01*
X128406157Y-112971462D01*
X128515411Y-112883073D01*
X128999253Y-112490606D01*
X129491513Y-112089478D01*
X129958449Y-111707315D01*
X130366321Y-111371742D01*
X130681388Y-111110384D01*
X130720500Y-111077661D01*
X131461334Y-110456843D01*
X131458982Y-109933922D01*
X131448651Y-109630308D01*
X131406898Y-109433153D01*
X131312483Y-109279889D01*
X131195257Y-109157000D01*
X130965710Y-108916073D01*
X130746630Y-108659433D01*
X130721893Y-108627834D01*
X130560258Y-108453897D01*
X130418100Y-108358743D01*
X130387954Y-108352667D01*
X130304916Y-108313805D01*
X130311966Y-108278304D01*
X130278435Y-108187498D01*
X130146182Y-108021575D01*
X129948330Y-107820813D01*
X129666505Y-107541763D01*
X129378507Y-107232681D01*
X129219836Y-107048510D01*
X128965282Y-106784114D01*
X128757255Y-106665257D01*
X128709835Y-106659334D01*
X128510246Y-106606053D01*
X128413334Y-106532334D01*
X128235602Y-106440991D01*
X127904071Y-106405727D01*
X127855612Y-106405334D01*
X127596424Y-106392880D01*
X127418154Y-106338709D01*
X127308668Y-106217611D01*
X127292248Y-106151334D01*
X127566667Y-106151334D01*
X127597645Y-106221024D01*
X127623111Y-106207778D01*
X127633244Y-106107298D01*
X127623111Y-106094889D01*
X127572777Y-106106511D01*
X127566667Y-106151334D01*
X127292248Y-106151334D01*
X127255836Y-106004372D01*
X127253146Y-105897334D01*
X127397334Y-105897334D01*
X127428312Y-105967024D01*
X127453778Y-105953778D01*
X127463911Y-105853298D01*
X127453778Y-105840889D01*
X127403444Y-105852511D01*
X127397334Y-105897334D01*
X127253146Y-105897334D01*
X127247527Y-105673779D01*
X127251230Y-105601000D01*
X127482000Y-105601000D01*
X127524334Y-105643334D01*
X127566667Y-105601000D01*
X127524334Y-105558667D01*
X127482000Y-105601000D01*
X127251230Y-105601000D01*
X127259849Y-105431667D01*
X127397334Y-105431667D01*
X127439667Y-105474000D01*
X127482000Y-105431667D01*
X127439667Y-105389334D01*
X127397334Y-105431667D01*
X127259849Y-105431667D01*
X127271609Y-105200622D01*
X127272129Y-105192702D01*
X127300571Y-104823175D01*
X127331931Y-104515904D01*
X127361693Y-104310891D01*
X127378506Y-104250634D01*
X127407564Y-104191465D01*
X127432827Y-104099536D01*
X127458522Y-103946109D01*
X127488876Y-103702449D01*
X127528116Y-103339819D01*
X127564558Y-102985859D01*
X127608105Y-102620047D01*
X127656051Y-102314658D01*
X127701274Y-102111129D01*
X127724614Y-102054526D01*
X127780531Y-101919036D01*
X127836406Y-101684065D01*
X127857602Y-101557537D01*
X127882926Y-101300824D01*
X127858193Y-101163531D01*
X127783616Y-101103978D01*
X127668147Y-101013389D01*
X127651334Y-100963108D01*
X127599799Y-100836785D01*
X127503167Y-100705797D01*
X127412728Y-100570338D01*
X127455212Y-100503650D01*
X127460834Y-100501575D01*
X127552134Y-100396497D01*
X127566667Y-100317037D01*
X127625083Y-100162556D01*
X127767606Y-99982334D01*
X127786378Y-99964259D01*
X127978782Y-99748775D01*
X128127219Y-99526167D01*
X128240667Y-99362325D01*
X128344474Y-99293340D01*
X128345229Y-99293334D01*
X128446158Y-99238382D01*
X128634747Y-99091288D01*
X128877969Y-98878688D01*
X129001284Y-98764167D01*
X129344655Y-98445046D01*
X129730192Y-98095553D01*
X130080378Y-97785869D01*
X130114084Y-97756668D01*
X130443170Y-97440490D01*
X130720372Y-97114808D01*
X130881703Y-96867668D01*
X131034160Y-96613002D01*
X131164474Y-96493066D01*
X131270199Y-96475695D01*
X131458801Y-96438682D01*
X131542642Y-96376379D01*
X131603525Y-96342033D01*
X131712278Y-96351552D01*
G36*
X138948496Y-107012859D02*
X139229500Y-107038649D01*
X139519619Y-107076497D01*
X139733015Y-107117924D01*
X139823928Y-107154026D01*
X139824070Y-107154345D01*
X139862393Y-107256945D01*
X139944148Y-107481673D01*
X140055894Y-107791164D01*
X140184189Y-108148050D01*
X140315592Y-108514962D01*
X140436661Y-108854535D01*
X140505970Y-109050034D01*
X140612742Y-109287878D01*
X140722203Y-109430591D01*
X140770434Y-109452201D01*
X140844966Y-109481082D01*
X140800028Y-109546505D01*
X140768989Y-109652723D01*
X140816476Y-109851756D01*
X140944488Y-110160339D01*
X141110603Y-110531953D01*
X141298971Y-110965813D01*
X141498368Y-111434624D01*
X141697571Y-111911089D01*
X141885357Y-112367913D01*
X142050502Y-112777800D01*
X142181785Y-113113454D01*
X142267982Y-113347578D01*
X142297899Y-113451999D01*
X142235701Y-113568547D01*
X142081807Y-113725905D01*
X142026630Y-113771334D01*
X141826712Y-113941027D01*
X141566333Y-114179465D01*
X141311523Y-114425550D01*
X141092440Y-114627524D01*
X140918838Y-114757762D01*
X140823154Y-114792561D01*
X140816822Y-114787045D01*
X140782756Y-114718164D01*
X140713795Y-114563104D01*
X140605550Y-114311462D01*
X140453631Y-113952836D01*
X140253648Y-113476826D01*
X140001211Y-112873030D01*
X139691930Y-112131045D01*
X139414766Y-111464970D01*
X139261402Y-111079331D01*
X139141142Y-110744100D01*
X139065178Y-110493012D01*
X139044702Y-110359806D01*
X139046219Y-110354053D01*
X139026529Y-110211563D01*
X138938036Y-110084232D01*
X138795274Y-109921656D01*
X138622275Y-109697858D01*
X138450776Y-109457778D01*
X138312517Y-109246352D01*
X138239236Y-109108520D01*
X138234667Y-109088346D01*
X138201609Y-108980237D01*
X138115576Y-108768186D01*
X138013184Y-108537742D01*
X137884226Y-108220564D01*
X137785132Y-107910114D01*
X137748036Y-107738834D01*
X137728640Y-107531909D01*
X137770478Y-107442659D01*
X137907144Y-107421694D01*
X137964007Y-107421334D01*
X138272345Y-107387425D01*
X138513755Y-107298172D01*
X138645539Y-107172287D01*
X138658000Y-107117232D01*
X138678438Y-107045155D01*
X138763431Y-107011992D01*
X138948496Y-107012859D01*
X138948496Y-107012859D01*
G37*
X138948496Y-107012859D02*
X139229500Y-107038649D01*
X139519619Y-107076497D01*
X139733015Y-107117924D01*
X139823928Y-107154026D01*
X139824070Y-107154345D01*
X139862393Y-107256945D01*
X139944148Y-107481673D01*
X140055894Y-107791164D01*
X140184189Y-108148050D01*
X140315592Y-108514962D01*
X140436661Y-108854535D01*
X140505970Y-109050034D01*
X140612742Y-109287878D01*
X140722203Y-109430591D01*
X140770434Y-109452201D01*
X140844966Y-109481082D01*
X140800028Y-109546505D01*
X140768989Y-109652723D01*
X140816476Y-109851756D01*
X140944488Y-110160339D01*
X141110603Y-110531953D01*
X141298971Y-110965813D01*
X141498368Y-111434624D01*
X141697571Y-111911089D01*
X141885357Y-112367913D01*
X142050502Y-112777800D01*
X142181785Y-113113454D01*
X142267982Y-113347578D01*
X142297899Y-113451999D01*
X142235701Y-113568547D01*
X142081807Y-113725905D01*
X142026630Y-113771334D01*
X141826712Y-113941027D01*
X141566333Y-114179465D01*
X141311523Y-114425550D01*
X141092440Y-114627524D01*
X140918838Y-114757762D01*
X140823154Y-114792561D01*
X140816822Y-114787045D01*
X140782756Y-114718164D01*
X140713795Y-114563104D01*
X140605550Y-114311462D01*
X140453631Y-113952836D01*
X140253648Y-113476826D01*
X140001211Y-112873030D01*
X139691930Y-112131045D01*
X139414766Y-111464970D01*
X139261402Y-111079331D01*
X139141142Y-110744100D01*
X139065178Y-110493012D01*
X139044702Y-110359806D01*
X139046219Y-110354053D01*
X139026529Y-110211563D01*
X138938036Y-110084232D01*
X138795274Y-109921656D01*
X138622275Y-109697858D01*
X138450776Y-109457778D01*
X138312517Y-109246352D01*
X138239236Y-109108520D01*
X138234667Y-109088346D01*
X138201609Y-108980237D01*
X138115576Y-108768186D01*
X138013184Y-108537742D01*
X137884226Y-108220564D01*
X137785132Y-107910114D01*
X137748036Y-107738834D01*
X137728640Y-107531909D01*
X137770478Y-107442659D01*
X137907144Y-107421694D01*
X137964007Y-107421334D01*
X138272345Y-107387425D01*
X138513755Y-107298172D01*
X138645539Y-107172287D01*
X138658000Y-107117232D01*
X138678438Y-107045155D01*
X138763431Y-107011992D01*
X138948496Y-107012859D01*
G36*
X148059414Y-112333650D02*
X148184444Y-112444301D01*
X148363096Y-112660133D01*
X148451573Y-112774272D01*
X148701628Y-113140357D01*
X148820956Y-113428760D01*
X148815357Y-113661968D01*
X148722872Y-113826273D01*
X148567906Y-113917327D01*
X148427660Y-113940667D01*
X148229419Y-114010279D01*
X147983989Y-114203213D01*
X147908860Y-114279194D01*
X147715407Y-114467364D01*
X147557522Y-114590338D01*
X147493620Y-114617861D01*
X147394846Y-114559465D01*
X147217144Y-114404016D01*
X146993736Y-114181332D01*
X146920803Y-114103752D01*
X146444701Y-113589504D01*
X146614070Y-113351648D01*
X146811087Y-113121612D01*
X147119574Y-112833583D01*
X147524590Y-112497146D01*
X147681548Y-112403875D01*
X147839509Y-112333834D01*
X147955329Y-112304666D01*
X148059414Y-112333650D01*
X148059414Y-112333650D01*
G37*
X148059414Y-112333650D02*
X148184444Y-112444301D01*
X148363096Y-112660133D01*
X148451573Y-112774272D01*
X148701628Y-113140357D01*
X148820956Y-113428760D01*
X148815357Y-113661968D01*
X148722872Y-113826273D01*
X148567906Y-113917327D01*
X148427660Y-113940667D01*
X148229419Y-114010279D01*
X147983989Y-114203213D01*
X147908860Y-114279194D01*
X147715407Y-114467364D01*
X147557522Y-114590338D01*
X147493620Y-114617861D01*
X147394846Y-114559465D01*
X147217144Y-114404016D01*
X146993736Y-114181332D01*
X146920803Y-114103752D01*
X146444701Y-113589504D01*
X146614070Y-113351648D01*
X146811087Y-113121612D01*
X147119574Y-112833583D01*
X147524590Y-112497146D01*
X147681548Y-112403875D01*
X147839509Y-112333834D01*
X147955329Y-112304666D01*
X148059414Y-112333650D01*
G36*
X133464230Y-112468537D02*
X133451000Y-112501334D01*
X133374918Y-112582104D01*
X133361337Y-112586000D01*
X133324971Y-112520494D01*
X133324000Y-112501334D01*
X133389088Y-112419920D01*
X133413664Y-112416667D01*
X133464230Y-112468537D01*
X133464230Y-112468537D01*
G37*
X133464230Y-112468537D02*
X133451000Y-112501334D01*
X133374918Y-112582104D01*
X133361337Y-112586000D01*
X133324971Y-112520494D01*
X133324000Y-112501334D01*
X133389088Y-112419920D01*
X133413664Y-112416667D01*
X133464230Y-112468537D01*
G36*
X135102000Y-111951000D02*
X135059667Y-111993334D01*
X135017334Y-111951000D01*
X135059667Y-111908667D01*
X135102000Y-111951000D01*
X135102000Y-111951000D01*
G37*
X135102000Y-111951000D02*
X135059667Y-111993334D01*
X135017334Y-111951000D01*
X135059667Y-111908667D01*
X135102000Y-111951000D01*
G36*
X144712412Y-102802259D02*
X144908121Y-102901257D01*
X145170481Y-103040993D01*
X145195586Y-103054651D01*
X145470135Y-103190471D01*
X145858660Y-103364301D01*
X146315841Y-103556711D01*
X146796361Y-103748272D01*
X146955334Y-103809126D01*
X147420234Y-103986796D01*
X147865283Y-104160058D01*
X148249564Y-104312762D01*
X148532159Y-104428761D01*
X148606334Y-104460723D01*
X148931110Y-104573813D01*
X149269739Y-104646315D01*
X149405785Y-104658748D01*
X149619689Y-104676165D01*
X149776095Y-104734795D01*
X149926604Y-104866843D01*
X150122818Y-105104509D01*
X150125452Y-105107868D01*
X150323812Y-105334580D01*
X150503532Y-105495155D01*
X150617167Y-105552368D01*
X150743126Y-105572301D01*
X150765334Y-105589355D01*
X150735353Y-105676480D01*
X150655827Y-105880114D01*
X150542381Y-106160479D01*
X150511334Y-106236000D01*
X150390921Y-106539343D01*
X150301388Y-106786504D01*
X150258829Y-106932472D01*
X150257366Y-106946145D01*
X150222152Y-107065922D01*
X150130028Y-107287337D01*
X150007735Y-107548334D01*
X149897853Y-107783783D01*
X149737783Y-108142572D01*
X149541973Y-108591531D01*
X149324870Y-109097486D01*
X149100923Y-109627267D01*
X149067385Y-109707334D01*
X148861202Y-110198557D01*
X148676968Y-110634378D01*
X148524646Y-110991485D01*
X148414198Y-111246565D01*
X148355585Y-111376308D01*
X148349322Y-111387640D01*
X148324113Y-111334574D01*
X148298115Y-111166103D01*
X148294805Y-111133640D01*
X148267667Y-110850334D01*
X147646257Y-110825305D01*
X147327704Y-110808024D01*
X147147613Y-110782055D01*
X147075114Y-110738109D01*
X147079336Y-110666894D01*
X147083575Y-110655971D01*
X147154478Y-110460770D01*
X147206290Y-110300000D01*
X147274907Y-110122486D01*
X147396825Y-109849725D01*
X147547309Y-109536747D01*
X147567835Y-109495667D01*
X147763901Y-109079230D01*
X147949399Y-108639012D01*
X148110101Y-108213871D01*
X148231775Y-107842665D01*
X148300193Y-107564251D01*
X148310000Y-107468988D01*
X148357821Y-107271733D01*
X148427891Y-107174893D01*
X148545828Y-107026914D01*
X148644415Y-106838932D01*
X148695563Y-106655110D01*
X148661834Y-106483290D01*
X148566272Y-106301198D01*
X148505022Y-106210987D01*
X148422736Y-106125168D01*
X148303819Y-106036576D01*
X148132677Y-105938045D01*
X147893716Y-105822413D01*
X147571340Y-105682513D01*
X147149956Y-105511182D01*
X146613969Y-105301254D01*
X145947785Y-105045566D01*
X145283167Y-104792839D01*
X144584667Y-104527844D01*
X144584667Y-103646255D01*
X144588191Y-103282956D01*
X144597715Y-102992410D01*
X144611669Y-102809742D01*
X144624086Y-102764667D01*
X144712412Y-102802259D01*
X144712412Y-102802259D01*
G37*
X144712412Y-102802259D02*
X144908121Y-102901257D01*
X145170481Y-103040993D01*
X145195586Y-103054651D01*
X145470135Y-103190471D01*
X145858660Y-103364301D01*
X146315841Y-103556711D01*
X146796361Y-103748272D01*
X146955334Y-103809126D01*
X147420234Y-103986796D01*
X147865283Y-104160058D01*
X148249564Y-104312762D01*
X148532159Y-104428761D01*
X148606334Y-104460723D01*
X148931110Y-104573813D01*
X149269739Y-104646315D01*
X149405785Y-104658748D01*
X149619689Y-104676165D01*
X149776095Y-104734795D01*
X149926604Y-104866843D01*
X150122818Y-105104509D01*
X150125452Y-105107868D01*
X150323812Y-105334580D01*
X150503532Y-105495155D01*
X150617167Y-105552368D01*
X150743126Y-105572301D01*
X150765334Y-105589355D01*
X150735353Y-105676480D01*
X150655827Y-105880114D01*
X150542381Y-106160479D01*
X150511334Y-106236000D01*
X150390921Y-106539343D01*
X150301388Y-106786504D01*
X150258829Y-106932472D01*
X150257366Y-106946145D01*
X150222152Y-107065922D01*
X150130028Y-107287337D01*
X150007735Y-107548334D01*
X149897853Y-107783783D01*
X149737783Y-108142572D01*
X149541973Y-108591531D01*
X149324870Y-109097486D01*
X149100923Y-109627267D01*
X149067385Y-109707334D01*
X148861202Y-110198557D01*
X148676968Y-110634378D01*
X148524646Y-110991485D01*
X148414198Y-111246565D01*
X148355585Y-111376308D01*
X148349322Y-111387640D01*
X148324113Y-111334574D01*
X148298115Y-111166103D01*
X148294805Y-111133640D01*
X148267667Y-110850334D01*
X147646257Y-110825305D01*
X147327704Y-110808024D01*
X147147613Y-110782055D01*
X147075114Y-110738109D01*
X147079336Y-110666894D01*
X147083575Y-110655971D01*
X147154478Y-110460770D01*
X147206290Y-110300000D01*
X147274907Y-110122486D01*
X147396825Y-109849725D01*
X147547309Y-109536747D01*
X147567835Y-109495667D01*
X147763901Y-109079230D01*
X147949399Y-108639012D01*
X148110101Y-108213871D01*
X148231775Y-107842665D01*
X148300193Y-107564251D01*
X148310000Y-107468988D01*
X148357821Y-107271733D01*
X148427891Y-107174893D01*
X148545828Y-107026914D01*
X148644415Y-106838932D01*
X148695563Y-106655110D01*
X148661834Y-106483290D01*
X148566272Y-106301198D01*
X148505022Y-106210987D01*
X148422736Y-106125168D01*
X148303819Y-106036576D01*
X148132677Y-105938045D01*
X147893716Y-105822413D01*
X147571340Y-105682513D01*
X147149956Y-105511182D01*
X146613969Y-105301254D01*
X145947785Y-105045566D01*
X145283167Y-104792839D01*
X144584667Y-104527844D01*
X144584667Y-103646255D01*
X144588191Y-103282956D01*
X144597715Y-102992410D01*
X144611669Y-102809742D01*
X144624086Y-102764667D01*
X144712412Y-102802259D01*
G36*
X133973111Y-111090222D02*
X133983244Y-111190702D01*
X133973111Y-111203111D01*
X133922777Y-111191489D01*
X133916667Y-111146667D01*
X133947645Y-111076977D01*
X133973111Y-111090222D01*
X133973111Y-111090222D01*
G37*
X133973111Y-111090222D02*
X133983244Y-111190702D01*
X133973111Y-111203111D01*
X133922777Y-111191489D01*
X133916667Y-111146667D01*
X133947645Y-111076977D01*
X133973111Y-111090222D01*
G36*
X135580896Y-111029203D02*
X135567667Y-111062000D01*
X135491585Y-111142771D01*
X135478003Y-111146667D01*
X135441638Y-111081161D01*
X135440667Y-111062000D01*
X135505755Y-110980587D01*
X135530330Y-110977334D01*
X135580896Y-111029203D01*
X135580896Y-111029203D01*
G37*
X135580896Y-111029203D02*
X135567667Y-111062000D01*
X135491585Y-111142771D01*
X135478003Y-111146667D01*
X135441638Y-111081161D01*
X135440667Y-111062000D01*
X135505755Y-110980587D01*
X135530330Y-110977334D01*
X135580896Y-111029203D01*
G36*
X127116504Y-109098792D02*
X127126597Y-109231116D01*
X127109820Y-109261070D01*
X127071338Y-109235819D01*
X127065351Y-109149945D01*
X127086028Y-109059602D01*
X127116504Y-109098792D01*
X127116504Y-109098792D01*
G37*
X127116504Y-109098792D02*
X127126597Y-109231116D01*
X127109820Y-109261070D01*
X127071338Y-109235819D01*
X127065351Y-109149945D01*
X127086028Y-109059602D01*
X127116504Y-109098792D01*
G36*
X124913778Y-108888889D02*
X124923911Y-108989369D01*
X124913778Y-109001778D01*
X124863444Y-108990156D01*
X124857334Y-108945334D01*
X124888312Y-108875643D01*
X124913778Y-108888889D01*
X124913778Y-108888889D01*
G37*
X124913778Y-108888889D02*
X124923911Y-108989369D01*
X124913778Y-109001778D01*
X124863444Y-108990156D01*
X124857334Y-108945334D01*
X124888312Y-108875643D01*
X124913778Y-108888889D01*
G36*
X132252140Y-98897590D02*
X132372649Y-98946415D01*
X132544898Y-99018047D01*
X132795200Y-99103485D01*
X132876562Y-99128330D01*
X133148730Y-99242344D01*
X133379145Y-99393767D01*
X133420487Y-99432915D01*
X133612783Y-99574739D01*
X133804425Y-99632000D01*
X133958983Y-99675338D01*
X134001334Y-99749942D01*
X134069628Y-99880647D01*
X134128334Y-99916618D01*
X134205558Y-100000316D01*
X134245549Y-100196036D01*
X134255334Y-100476010D01*
X134243023Y-100744711D01*
X134211010Y-100929695D01*
X134173613Y-100986667D01*
X134066667Y-100934863D01*
X133887392Y-100803271D01*
X133783742Y-100716108D01*
X133558550Y-100545729D01*
X133261635Y-100374295D01*
X132863164Y-100186454D01*
X132333303Y-99966856D01*
X132308000Y-99956817D01*
X132207564Y-99930335D01*
X132104479Y-99948083D01*
X131972311Y-100027583D01*
X131784628Y-100186354D01*
X131514999Y-100441916D01*
X131384987Y-100568608D01*
X130673641Y-101264261D01*
X130639597Y-102390046D01*
X130627260Y-102846929D01*
X130624929Y-103163671D01*
X130635939Y-103369333D01*
X130663622Y-103492975D01*
X130711315Y-103563659D01*
X130779443Y-103608895D01*
X130916227Y-103722990D01*
X130953334Y-103808351D01*
X131010032Y-103919766D01*
X131157579Y-104103093D01*
X131332840Y-104287201D01*
X131712346Y-104659658D01*
X131904340Y-104484233D01*
X132050582Y-104365507D01*
X132276996Y-104197702D01*
X132546001Y-104006734D01*
X132820015Y-103818517D01*
X133061456Y-103658966D01*
X133232743Y-103553996D01*
X133292995Y-103526667D01*
X133375177Y-103476315D01*
X133546187Y-103345229D01*
X133737593Y-103188000D01*
X133956777Y-103010493D01*
X134124758Y-102887877D01*
X134197282Y-102849334D01*
X134236533Y-102923542D01*
X134255106Y-103104692D01*
X134255334Y-103129519D01*
X134233961Y-103299586D01*
X134151053Y-103456954D01*
X133978426Y-103642915D01*
X133789667Y-103811731D01*
X133561023Y-104024820D01*
X133394897Y-104209565D01*
X133324505Y-104328660D01*
X133324000Y-104334743D01*
X133253236Y-104445575D01*
X133079789Y-104558668D01*
X133048834Y-104572580D01*
X132809941Y-104705599D01*
X132549226Y-104895127D01*
X132477334Y-104956763D01*
X132181000Y-105224095D01*
X132380069Y-105390724D01*
X132516955Y-105494425D01*
X132620488Y-105505900D01*
X132762543Y-105421492D01*
X132836168Y-105367510D01*
X133056847Y-105188113D01*
X133308637Y-104960876D01*
X133399099Y-104873218D01*
X133630677Y-104659349D01*
X133858699Y-104474322D01*
X133936971Y-104419546D01*
X134084381Y-104337657D01*
X134174526Y-104343608D01*
X134227835Y-104461948D01*
X134264738Y-104717225D01*
X134275926Y-104826840D01*
X134282771Y-105033511D01*
X134228259Y-105170569D01*
X134077285Y-105299679D01*
X133964217Y-105374385D01*
X133680798Y-105550232D01*
X133395291Y-105717973D01*
X133324000Y-105757789D01*
X133059553Y-105922403D01*
X132783409Y-106122413D01*
X132733209Y-106162745D01*
X132536909Y-106309640D01*
X132387395Y-106395456D01*
X132352209Y-106404651D01*
X132272410Y-106343909D01*
X132098816Y-106174570D01*
X131849305Y-105915322D01*
X131541757Y-105584858D01*
X131194052Y-105201868D01*
X131084495Y-105079425D01*
X130687660Y-104632504D01*
X130388758Y-104288403D01*
X130171906Y-104024563D01*
X130021221Y-103818426D01*
X129920821Y-103647431D01*
X129854824Y-103489022D01*
X129807345Y-103320638D01*
X129788459Y-103238607D01*
X129730106Y-102900222D01*
X129680269Y-102474863D01*
X129648267Y-102044884D01*
X129645043Y-101971349D01*
X129633682Y-101611064D01*
X129639808Y-101374966D01*
X129673853Y-101218057D01*
X129746250Y-101095337D01*
X129867431Y-100961806D01*
X129882747Y-100946010D01*
X130046379Y-100771580D01*
X130287318Y-100507524D01*
X130571332Y-100191624D01*
X130749200Y-99991401D01*
X131630667Y-99991401D01*
X131681650Y-100017207D01*
X131757667Y-99970667D01*
X131864390Y-99843181D01*
X131884667Y-99780600D01*
X131833684Y-99754793D01*
X131757667Y-99801334D01*
X131650944Y-99928819D01*
X131630667Y-99991401D01*
X130749200Y-99991401D01*
X130826334Y-99904574D01*
X131096247Y-99606858D01*
X131331738Y-99361847D01*
X131507632Y-99194751D01*
X131598752Y-99130778D01*
X131599133Y-99130746D01*
X131728978Y-99065778D01*
X131800000Y-98997000D01*
X131995056Y-98883464D01*
X132252140Y-98897590D01*
X132252140Y-98897590D01*
G37*
X132252140Y-98897590D02*
X132372649Y-98946415D01*
X132544898Y-99018047D01*
X132795200Y-99103485D01*
X132876562Y-99128330D01*
X133148730Y-99242344D01*
X133379145Y-99393767D01*
X133420487Y-99432915D01*
X133612783Y-99574739D01*
X133804425Y-99632000D01*
X133958983Y-99675338D01*
X134001334Y-99749942D01*
X134069628Y-99880647D01*
X134128334Y-99916618D01*
X134205558Y-100000316D01*
X134245549Y-100196036D01*
X134255334Y-100476010D01*
X134243023Y-100744711D01*
X134211010Y-100929695D01*
X134173613Y-100986667D01*
X134066667Y-100934863D01*
X133887392Y-100803271D01*
X133783742Y-100716108D01*
X133558550Y-100545729D01*
X133261635Y-100374295D01*
X132863164Y-100186454D01*
X132333303Y-99966856D01*
X132308000Y-99956817D01*
X132207564Y-99930335D01*
X132104479Y-99948083D01*
X131972311Y-100027583D01*
X131784628Y-100186354D01*
X131514999Y-100441916D01*
X131384987Y-100568608D01*
X130673641Y-101264261D01*
X130639597Y-102390046D01*
X130627260Y-102846929D01*
X130624929Y-103163671D01*
X130635939Y-103369333D01*
X130663622Y-103492975D01*
X130711315Y-103563659D01*
X130779443Y-103608895D01*
X130916227Y-103722990D01*
X130953334Y-103808351D01*
X131010032Y-103919766D01*
X131157579Y-104103093D01*
X131332840Y-104287201D01*
X131712346Y-104659658D01*
X131904340Y-104484233D01*
X132050582Y-104365507D01*
X132276996Y-104197702D01*
X132546001Y-104006734D01*
X132820015Y-103818517D01*
X133061456Y-103658966D01*
X133232743Y-103553996D01*
X133292995Y-103526667D01*
X133375177Y-103476315D01*
X133546187Y-103345229D01*
X133737593Y-103188000D01*
X133956777Y-103010493D01*
X134124758Y-102887877D01*
X134197282Y-102849334D01*
X134236533Y-102923542D01*
X134255106Y-103104692D01*
X134255334Y-103129519D01*
X134233961Y-103299586D01*
X134151053Y-103456954D01*
X133978426Y-103642915D01*
X133789667Y-103811731D01*
X133561023Y-104024820D01*
X133394897Y-104209565D01*
X133324505Y-104328660D01*
X133324000Y-104334743D01*
X133253236Y-104445575D01*
X133079789Y-104558668D01*
X133048834Y-104572580D01*
X132809941Y-104705599D01*
X132549226Y-104895127D01*
X132477334Y-104956763D01*
X132181000Y-105224095D01*
X132380069Y-105390724D01*
X132516955Y-105494425D01*
X132620488Y-105505900D01*
X132762543Y-105421492D01*
X132836168Y-105367510D01*
X133056847Y-105188113D01*
X133308637Y-104960876D01*
X133399099Y-104873218D01*
X133630677Y-104659349D01*
X133858699Y-104474322D01*
X133936971Y-104419546D01*
X134084381Y-104337657D01*
X134174526Y-104343608D01*
X134227835Y-104461948D01*
X134264738Y-104717225D01*
X134275926Y-104826840D01*
X134282771Y-105033511D01*
X134228259Y-105170569D01*
X134077285Y-105299679D01*
X133964217Y-105374385D01*
X133680798Y-105550232D01*
X133395291Y-105717973D01*
X133324000Y-105757789D01*
X133059553Y-105922403D01*
X132783409Y-106122413D01*
X132733209Y-106162745D01*
X132536909Y-106309640D01*
X132387395Y-106395456D01*
X132352209Y-106404651D01*
X132272410Y-106343909D01*
X132098816Y-106174570D01*
X131849305Y-105915322D01*
X131541757Y-105584858D01*
X131194052Y-105201868D01*
X131084495Y-105079425D01*
X130687660Y-104632504D01*
X130388758Y-104288403D01*
X130171906Y-104024563D01*
X130021221Y-103818426D01*
X129920821Y-103647431D01*
X129854824Y-103489022D01*
X129807345Y-103320638D01*
X129788459Y-103238607D01*
X129730106Y-102900222D01*
X129680269Y-102474863D01*
X129648267Y-102044884D01*
X129645043Y-101971349D01*
X129633682Y-101611064D01*
X129639808Y-101374966D01*
X129673853Y-101218057D01*
X129746250Y-101095337D01*
X129867431Y-100961806D01*
X129882747Y-100946010D01*
X130046379Y-100771580D01*
X130287318Y-100507524D01*
X130571332Y-100191624D01*
X130749200Y-99991401D01*
X131630667Y-99991401D01*
X131681650Y-100017207D01*
X131757667Y-99970667D01*
X131864390Y-99843181D01*
X131884667Y-99780600D01*
X131833684Y-99754793D01*
X131757667Y-99801334D01*
X131650944Y-99928819D01*
X131630667Y-99991401D01*
X130749200Y-99991401D01*
X130826334Y-99904574D01*
X131096247Y-99606858D01*
X131331738Y-99361847D01*
X131507632Y-99194751D01*
X131598752Y-99130778D01*
X131599133Y-99130746D01*
X131728978Y-99065778D01*
X131800000Y-98997000D01*
X131995056Y-98883464D01*
X132252140Y-98897590D01*
G36*
X140520667Y-106278334D02*
X140478334Y-106320667D01*
X140436000Y-106278334D01*
X140478334Y-106236000D01*
X140520667Y-106278334D01*
X140520667Y-106278334D01*
G37*
X140520667Y-106278334D02*
X140478334Y-106320667D01*
X140436000Y-106278334D01*
X140478334Y-106236000D01*
X140520667Y-106278334D01*
G36*
X136915703Y-105459208D02*
X137051803Y-105556062D01*
X137037708Y-105703314D01*
X136866341Y-105895807D01*
X136858834Y-105902112D01*
X136705882Y-106003350D01*
X136531420Y-106044508D01*
X136283107Y-106031284D01*
X136033334Y-105992021D01*
X135823539Y-105929764D01*
X135730709Y-105814268D01*
X135711209Y-105717192D01*
X135706915Y-105595615D01*
X135753851Y-105523154D01*
X135888599Y-105479737D01*
X136147740Y-105445292D01*
X136221232Y-105437337D01*
X136636487Y-105417914D01*
X136915703Y-105459208D01*
X136915703Y-105459208D01*
G37*
X136915703Y-105459208D02*
X137051803Y-105556062D01*
X137037708Y-105703314D01*
X136866341Y-105895807D01*
X136858834Y-105902112D01*
X136705882Y-106003350D01*
X136531420Y-106044508D01*
X136283107Y-106031284D01*
X136033334Y-105992021D01*
X135823539Y-105929764D01*
X135730709Y-105814268D01*
X135711209Y-105717192D01*
X135706915Y-105595615D01*
X135753851Y-105523154D01*
X135888599Y-105479737D01*
X136147740Y-105445292D01*
X136221232Y-105437337D01*
X136636487Y-105417914D01*
X136915703Y-105459208D01*
G36*
X142959217Y-105443739D02*
X143097319Y-105576386D01*
X143145334Y-105770117D01*
X143101047Y-105919076D01*
X142940320Y-106000266D01*
X142880750Y-106013750D01*
X142594702Y-106044941D01*
X142205334Y-106053942D01*
X141777079Y-106041639D01*
X141374371Y-106008922D01*
X141240334Y-105991152D01*
X141020008Y-105942489D01*
X140922590Y-105862863D01*
X140901667Y-105728000D01*
X140906934Y-105632902D01*
X140943070Y-105571138D01*
X141040574Y-105534836D01*
X141229948Y-105516123D01*
X141541692Y-105507126D01*
X141771280Y-105503542D01*
X142150519Y-105493262D01*
X142475073Y-105475817D01*
X142701817Y-105453994D01*
X142776845Y-105438582D01*
X142959217Y-105443739D01*
X142959217Y-105443739D01*
G37*
X142959217Y-105443739D02*
X143097319Y-105576386D01*
X143145334Y-105770117D01*
X143101047Y-105919076D01*
X142940320Y-106000266D01*
X142880750Y-106013750D01*
X142594702Y-106044941D01*
X142205334Y-106053942D01*
X141777079Y-106041639D01*
X141374371Y-106008922D01*
X141240334Y-105991152D01*
X141020008Y-105942489D01*
X140922590Y-105862863D01*
X140901667Y-105728000D01*
X140906934Y-105632902D01*
X140943070Y-105571138D01*
X141040574Y-105534836D01*
X141229948Y-105516123D01*
X141541692Y-105507126D01*
X141771280Y-105503542D01*
X142150519Y-105493262D01*
X142475073Y-105475817D01*
X142701817Y-105453994D01*
X142776845Y-105438582D01*
X142959217Y-105443739D01*
G36*
X141128401Y-104166449D02*
X141287749Y-104190475D01*
X141571506Y-104208884D01*
X141934778Y-104219423D01*
X142213289Y-104220906D01*
X142593595Y-104224616D01*
X142914161Y-104237836D01*
X143135056Y-104258324D01*
X143211038Y-104276948D01*
X143269890Y-104396506D01*
X143261322Y-104516702D01*
X143157588Y-104668235D01*
X142985959Y-104754566D01*
X142819180Y-104745718D01*
X142777057Y-104716257D01*
X142653428Y-104693414D01*
X142424672Y-104729188D01*
X142309930Y-104760447D01*
X142056067Y-104834232D01*
X141879415Y-104862312D01*
X141710649Y-104842114D01*
X141480443Y-104771066D01*
X141346598Y-104724692D01*
X141103778Y-104627906D01*
X140984036Y-104532885D01*
X140946060Y-104400779D01*
X140944432Y-104346461D01*
X140962098Y-104181283D01*
X141042375Y-104145119D01*
X141128401Y-104166449D01*
X141128401Y-104166449D01*
G37*
X141128401Y-104166449D02*
X141287749Y-104190475D01*
X141571506Y-104208884D01*
X141934778Y-104219423D01*
X142213289Y-104220906D01*
X142593595Y-104224616D01*
X142914161Y-104237836D01*
X143135056Y-104258324D01*
X143211038Y-104276948D01*
X143269890Y-104396506D01*
X143261322Y-104516702D01*
X143157588Y-104668235D01*
X142985959Y-104754566D01*
X142819180Y-104745718D01*
X142777057Y-104716257D01*
X142653428Y-104693414D01*
X142424672Y-104729188D01*
X142309930Y-104760447D01*
X142056067Y-104834232D01*
X141879415Y-104862312D01*
X141710649Y-104842114D01*
X141480443Y-104771066D01*
X141346598Y-104724692D01*
X141103778Y-104627906D01*
X140984036Y-104532885D01*
X140946060Y-104400779D01*
X140944432Y-104346461D01*
X140962098Y-104181283D01*
X141042375Y-104145119D01*
X141128401Y-104166449D01*
G36*
X136308481Y-104047880D02*
X136658039Y-104073023D01*
X136942064Y-104094107D01*
X137119300Y-104108039D01*
X137155167Y-104111380D01*
X137207383Y-104189529D01*
X137218667Y-104284830D01*
X137173496Y-104407048D01*
X137012960Y-104479250D01*
X136901167Y-104500955D01*
X136568433Y-104560787D01*
X136224649Y-104633276D01*
X135931639Y-104704578D01*
X135764645Y-104755441D01*
X135622919Y-104764101D01*
X135584411Y-104742855D01*
X135547125Y-104627530D01*
X135526657Y-104412528D01*
X135525314Y-104338056D01*
X135525295Y-103992334D01*
X136308481Y-104047880D01*
X136308481Y-104047880D01*
G37*
X136308481Y-104047880D02*
X136658039Y-104073023D01*
X136942064Y-104094107D01*
X137119300Y-104108039D01*
X137155167Y-104111380D01*
X137207383Y-104189529D01*
X137218667Y-104284830D01*
X137173496Y-104407048D01*
X137012960Y-104479250D01*
X136901167Y-104500955D01*
X136568433Y-104560787D01*
X136224649Y-104633276D01*
X135931639Y-104704578D01*
X135764645Y-104755441D01*
X135622919Y-104764101D01*
X135584411Y-104742855D01*
X135547125Y-104627530D01*
X135526657Y-104412528D01*
X135525314Y-104338056D01*
X135525295Y-103992334D01*
X136308481Y-104047880D01*
G36*
X151245111Y-104486222D02*
X151233489Y-104536557D01*
X151188667Y-104542667D01*
X151118977Y-104511689D01*
X151132222Y-104486222D01*
X151232702Y-104476089D01*
X151245111Y-104486222D01*
X151245111Y-104486222D01*
G37*
X151245111Y-104486222D02*
X151233489Y-104536557D01*
X151188667Y-104542667D01*
X151118977Y-104511689D01*
X151132222Y-104486222D01*
X151232702Y-104476089D01*
X151245111Y-104486222D01*
G36*
X143062453Y-102839579D02*
X143133958Y-103057720D01*
X143145334Y-103265013D01*
X143161052Y-103518323D01*
X143201111Y-103695089D01*
X143230000Y-103738334D01*
X143305231Y-103834322D01*
X143299355Y-103926598D01*
X143251167Y-103945019D01*
X143147639Y-103899218D01*
X142959695Y-103789286D01*
X142862754Y-103727428D01*
X142655948Y-103603580D01*
X142492820Y-103558105D01*
X142294678Y-103579763D01*
X142121397Y-103621550D01*
X141862543Y-103679027D01*
X141696485Y-103678542D01*
X141554517Y-103613030D01*
X141472643Y-103554837D01*
X141313225Y-103391875D01*
X141240743Y-103231035D01*
X141240334Y-103221196D01*
X141263072Y-103136055D01*
X141353739Y-103078092D01*
X141546012Y-103035346D01*
X141873568Y-102995857D01*
X141875334Y-102995675D01*
X142211733Y-102951293D01*
X142501724Y-102895726D01*
X142686484Y-102840414D01*
X142695122Y-102836258D01*
X142918698Y-102768162D01*
X143062453Y-102839579D01*
X143062453Y-102839579D01*
G37*
X143062453Y-102839579D02*
X143133958Y-103057720D01*
X143145334Y-103265013D01*
X143161052Y-103518323D01*
X143201111Y-103695089D01*
X143230000Y-103738334D01*
X143305231Y-103834322D01*
X143299355Y-103926598D01*
X143251167Y-103945019D01*
X143147639Y-103899218D01*
X142959695Y-103789286D01*
X142862754Y-103727428D01*
X142655948Y-103603580D01*
X142492820Y-103558105D01*
X142294678Y-103579763D01*
X142121397Y-103621550D01*
X141862543Y-103679027D01*
X141696485Y-103678542D01*
X141554517Y-103613030D01*
X141472643Y-103554837D01*
X141313225Y-103391875D01*
X141240743Y-103231035D01*
X141240334Y-103221196D01*
X141263072Y-103136055D01*
X141353739Y-103078092D01*
X141546012Y-103035346D01*
X141873568Y-102995857D01*
X141875334Y-102995675D01*
X142211733Y-102951293D01*
X142501724Y-102895726D01*
X142686484Y-102840414D01*
X142695122Y-102836258D01*
X142918698Y-102768162D01*
X143062453Y-102839579D01*
G36*
X135718547Y-102621544D02*
X135931981Y-102687575D01*
X136033334Y-102722334D01*
X136342219Y-102798951D01*
X136701776Y-102844162D01*
X136843315Y-102849334D01*
X137171375Y-102880923D01*
X137347912Y-102960932D01*
X137375336Y-103067221D01*
X137256057Y-103177653D01*
X136992484Y-103270087D01*
X136793783Y-103304377D01*
X136431647Y-103349834D01*
X136047083Y-103398092D01*
X135948667Y-103410439D01*
X135525334Y-103463544D01*
X135525334Y-103029439D01*
X135538339Y-102784420D01*
X135571671Y-102627010D01*
X135599355Y-102595334D01*
X135718547Y-102621544D01*
X135718547Y-102621544D01*
G37*
X135718547Y-102621544D02*
X135931981Y-102687575D01*
X136033334Y-102722334D01*
X136342219Y-102798951D01*
X136701776Y-102844162D01*
X136843315Y-102849334D01*
X137171375Y-102880923D01*
X137347912Y-102960932D01*
X137375336Y-103067221D01*
X137256057Y-103177653D01*
X136992484Y-103270087D01*
X136793783Y-103304377D01*
X136431647Y-103349834D01*
X136047083Y-103398092D01*
X135948667Y-103410439D01*
X135525334Y-103463544D01*
X135525334Y-103029439D01*
X135538339Y-102784420D01*
X135571671Y-102627010D01*
X135599355Y-102595334D01*
X135718547Y-102621544D01*
G36*
X136689844Y-101396100D02*
X137007000Y-101436371D01*
X137599667Y-101537000D01*
X137625472Y-101939167D01*
X137625272Y-102212078D01*
X137575568Y-102329308D01*
X137470728Y-102298727D01*
X137408115Y-102242915D01*
X137282263Y-102196103D01*
X137022531Y-102153151D01*
X136664366Y-102119001D01*
X136417515Y-102104817D01*
X135525334Y-102065137D01*
X135525334Y-101433314D01*
X135969834Y-101384528D01*
X136294726Y-101374047D01*
X136689844Y-101396100D01*
X136689844Y-101396100D01*
G37*
X136689844Y-101396100D02*
X137007000Y-101436371D01*
X137599667Y-101537000D01*
X137625472Y-101939167D01*
X137625272Y-102212078D01*
X137575568Y-102329308D01*
X137470728Y-102298727D01*
X137408115Y-102242915D01*
X137282263Y-102196103D01*
X137022531Y-102153151D01*
X136664366Y-102119001D01*
X136417515Y-102104817D01*
X135525334Y-102065137D01*
X135525334Y-101433314D01*
X135969834Y-101384528D01*
X136294726Y-101374047D01*
X136689844Y-101396100D01*
G36*
X142730352Y-101752126D02*
X142960992Y-101764559D01*
X143085840Y-101793952D01*
X143136647Y-101846998D01*
X143145334Y-101915021D01*
X143077023Y-102084153D01*
X142973576Y-102173297D01*
X142713107Y-102256647D01*
X142364038Y-102299607D01*
X142003308Y-102297441D01*
X141723185Y-102250285D01*
X141499462Y-102141728D01*
X141387690Y-102004649D01*
X141408314Y-101872106D01*
X141460829Y-101826085D01*
X141594077Y-101792900D01*
X141851492Y-101766956D01*
X142187942Y-101752063D01*
X142362167Y-101749963D01*
X142730352Y-101752126D01*
X142730352Y-101752126D01*
G37*
X142730352Y-101752126D02*
X142960992Y-101764559D01*
X143085840Y-101793952D01*
X143136647Y-101846998D01*
X143145334Y-101915021D01*
X143077023Y-102084153D01*
X142973576Y-102173297D01*
X142713107Y-102256647D01*
X142364038Y-102299607D01*
X142003308Y-102297441D01*
X141723185Y-102250285D01*
X141499462Y-102141728D01*
X141387690Y-102004649D01*
X141408314Y-101872106D01*
X141460829Y-101826085D01*
X141594077Y-101792900D01*
X141851492Y-101766956D01*
X142187942Y-101752063D01*
X142362167Y-101749963D01*
X142730352Y-101752126D01*
G36*
X141851137Y-100431506D02*
X142188634Y-100446529D01*
X142425667Y-100461513D01*
X142812457Y-100491713D01*
X143060301Y-100522126D01*
X143199409Y-100560763D01*
X143259987Y-100615638D01*
X143272334Y-100686092D01*
X143251074Y-100770213D01*
X143166193Y-100832373D01*
X142986039Y-100884519D01*
X142678960Y-100938593D01*
X142552667Y-100957671D01*
X142101202Y-101021247D01*
X141788882Y-101055999D01*
X141588238Y-101063320D01*
X141471800Y-101044602D01*
X141423778Y-101014889D01*
X141373227Y-100880168D01*
X141371964Y-100684824D01*
X141413080Y-100509597D01*
X141473167Y-100437690D01*
X141598696Y-100428210D01*
X141851137Y-100431506D01*
X141851137Y-100431506D01*
G37*
X141851137Y-100431506D02*
X142188634Y-100446529D01*
X142425667Y-100461513D01*
X142812457Y-100491713D01*
X143060301Y-100522126D01*
X143199409Y-100560763D01*
X143259987Y-100615638D01*
X143272334Y-100686092D01*
X143251074Y-100770213D01*
X143166193Y-100832373D01*
X142986039Y-100884519D01*
X142678960Y-100938593D01*
X142552667Y-100957671D01*
X142101202Y-101021247D01*
X141788882Y-101055999D01*
X141588238Y-101063320D01*
X141471800Y-101044602D01*
X141423778Y-101014889D01*
X141373227Y-100880168D01*
X141371964Y-100684824D01*
X141413080Y-100509597D01*
X141473167Y-100437690D01*
X141598696Y-100428210D01*
X141851137Y-100431506D01*
G36*
X137642000Y-100734194D02*
X136880474Y-100698414D01*
X136538260Y-100690618D01*
X136264232Y-100699911D01*
X136099260Y-100724193D01*
X136071144Y-100739984D01*
X135960255Y-100795634D01*
X135774337Y-100817334D01*
X135607709Y-100800632D01*
X135538805Y-100716542D01*
X135525334Y-100517164D01*
X135525334Y-100216994D01*
X135842834Y-100274396D01*
X136054999Y-100317692D01*
X136180687Y-100352648D01*
X136190794Y-100358082D01*
X136276707Y-100338527D01*
X136455008Y-100257879D01*
X136528207Y-100219850D01*
X136859077Y-100101934D01*
X137232876Y-100055346D01*
X137238580Y-100055334D01*
X137642000Y-100055334D01*
X137642000Y-100734194D01*
X137642000Y-100734194D01*
G37*
X137642000Y-100734194D02*
X136880474Y-100698414D01*
X136538260Y-100690618D01*
X136264232Y-100699911D01*
X136099260Y-100724193D01*
X136071144Y-100739984D01*
X135960255Y-100795634D01*
X135774337Y-100817334D01*
X135607709Y-100800632D01*
X135538805Y-100716542D01*
X135525334Y-100517164D01*
X135525334Y-100216994D01*
X135842834Y-100274396D01*
X136054999Y-100317692D01*
X136180687Y-100352648D01*
X136190794Y-100358082D01*
X136276707Y-100338527D01*
X136455008Y-100257879D01*
X136528207Y-100219850D01*
X136859077Y-100101934D01*
X137232876Y-100055346D01*
X137238580Y-100055334D01*
X137642000Y-100055334D01*
X137642000Y-100734194D01*
G36*
X135581778Y-99744889D02*
X135591911Y-99845369D01*
X135581778Y-99857778D01*
X135531444Y-99846156D01*
X135525334Y-99801334D01*
X135556312Y-99731643D01*
X135581778Y-99744889D01*
X135581778Y-99744889D01*
G37*
X135581778Y-99744889D02*
X135591911Y-99845369D01*
X135581778Y-99857778D01*
X135531444Y-99846156D01*
X135525334Y-99801334D01*
X135556312Y-99731643D01*
X135581778Y-99744889D01*
G36*
X115851713Y-80085065D02*
X116035003Y-80163201D01*
X116180243Y-80258684D01*
X116325977Y-80396389D01*
X116485239Y-80616384D01*
X116662304Y-80928663D01*
X116861446Y-81343220D01*
X117086937Y-81870049D01*
X117343051Y-82519145D01*
X117634062Y-83300503D01*
X117964244Y-84224116D01*
X118337869Y-85299978D01*
X118345889Y-85323334D01*
X118744929Y-86485139D01*
X119132752Y-87613140D01*
X119505463Y-88696075D01*
X119859170Y-89722683D01*
X120189978Y-90681700D01*
X120493993Y-91561866D01*
X120767323Y-92351919D01*
X121006073Y-93040595D01*
X121206351Y-93616635D01*
X121364262Y-94068774D01*
X121475912Y-94385753D01*
X121537409Y-94556308D01*
X121543862Y-94573167D01*
X121593643Y-94745193D01*
X121553734Y-94804768D01*
X121537056Y-94806000D01*
X121508634Y-94845495D01*
X121571942Y-94911834D01*
X121665042Y-95043767D01*
X121779275Y-95282777D01*
X121892501Y-95572229D01*
X121982581Y-95855488D01*
X122027376Y-96075920D01*
X122027482Y-96077161D01*
X122071786Y-96239424D01*
X122163668Y-96453061D01*
X122166238Y-96458161D01*
X122247658Y-96646979D01*
X122362078Y-96948149D01*
X122491280Y-97312621D01*
X122566740Y-97536500D01*
X122686417Y-97879737D01*
X122793841Y-98153178D01*
X122874971Y-98322957D01*
X122909003Y-98362000D01*
X123004465Y-98431040D01*
X123139963Y-98605583D01*
X123285933Y-98836762D01*
X123412811Y-99075712D01*
X123491032Y-99273566D01*
X123502667Y-99343258D01*
X123489066Y-99569639D01*
X123429199Y-99708910D01*
X123294468Y-99772927D01*
X123056278Y-99773544D01*
X122686031Y-99722617D01*
X122615657Y-99710984D01*
X122304130Y-99630740D01*
X122098783Y-99489504D01*
X121956170Y-99246410D01*
X121877079Y-99016242D01*
X121802740Y-98810562D01*
X121716854Y-98731335D01*
X121571741Y-98739578D01*
X121545502Y-98745160D01*
X121390941Y-98759818D01*
X121281658Y-98695741D01*
X121169114Y-98518266D01*
X121134574Y-98451711D01*
X121015868Y-98194451D01*
X120873508Y-97850947D01*
X120738207Y-97495326D01*
X120737549Y-97493502D01*
X120606268Y-97148421D01*
X120471539Y-96824956D01*
X120361784Y-96591224D01*
X120358609Y-96585254D01*
X120256224Y-96365382D01*
X120202858Y-96194969D01*
X120200667Y-96171111D01*
X120165861Y-96046376D01*
X120072463Y-95810190D01*
X119937000Y-95502860D01*
X119852979Y-95323190D01*
X119668359Y-94923852D01*
X119484482Y-94505647D01*
X119333814Y-94142943D01*
X119300579Y-94057742D01*
X119165106Y-93719874D01*
X119023247Y-93392706D01*
X118928590Y-93193262D01*
X118836275Y-92969869D01*
X118723570Y-92634750D01*
X118607668Y-92241289D01*
X118542428Y-91994187D01*
X118338560Y-91320093D01*
X118059883Y-90651428D01*
X117828489Y-90191667D01*
X117607256Y-89757498D01*
X117391645Y-89303229D01*
X117209272Y-88888705D01*
X117105656Y-88625334D01*
X116972560Y-88271386D01*
X116835804Y-87935150D01*
X116723339Y-87685123D01*
X116716066Y-87670576D01*
X116625090Y-87459348D01*
X116570391Y-87313000D01*
X118592000Y-87313000D01*
X118634334Y-87355334D01*
X118676667Y-87313000D01*
X118634334Y-87270667D01*
X118592000Y-87313000D01*
X116570391Y-87313000D01*
X116503284Y-87133457D01*
X116367851Y-86740615D01*
X116258249Y-86400576D01*
X116126875Y-85991839D01*
X115998150Y-85613831D01*
X115888271Y-85312899D01*
X115822580Y-85154000D01*
X115715326Y-84823017D01*
X115698639Y-84511983D01*
X115771288Y-84270188D01*
X115846767Y-84186099D01*
X115964918Y-84037786D01*
X116074774Y-83803227D01*
X116099275Y-83728882D01*
X116155963Y-83506040D01*
X116149403Y-83392672D01*
X116075105Y-83339438D01*
X116063459Y-83335418D01*
X115982787Y-83244540D01*
X115857314Y-83026994D01*
X115699202Y-82711567D01*
X115520615Y-82327048D01*
X115333714Y-81902225D01*
X115150662Y-81465886D01*
X114983621Y-81046820D01*
X114844754Y-80673816D01*
X114746223Y-80375660D01*
X114700191Y-80181143D01*
X114705839Y-80121939D01*
X114801988Y-80100611D01*
X115019751Y-80078763D01*
X115304271Y-80061524D01*
X115629709Y-80056028D01*
X115851713Y-80085065D01*
X115851713Y-80085065D01*
G37*
X115851713Y-80085065D02*
X116035003Y-80163201D01*
X116180243Y-80258684D01*
X116325977Y-80396389D01*
X116485239Y-80616384D01*
X116662304Y-80928663D01*
X116861446Y-81343220D01*
X117086937Y-81870049D01*
X117343051Y-82519145D01*
X117634062Y-83300503D01*
X117964244Y-84224116D01*
X118337869Y-85299978D01*
X118345889Y-85323334D01*
X118744929Y-86485139D01*
X119132752Y-87613140D01*
X119505463Y-88696075D01*
X119859170Y-89722683D01*
X120189978Y-90681700D01*
X120493993Y-91561866D01*
X120767323Y-92351919D01*
X121006073Y-93040595D01*
X121206351Y-93616635D01*
X121364262Y-94068774D01*
X121475912Y-94385753D01*
X121537409Y-94556308D01*
X121543862Y-94573167D01*
X121593643Y-94745193D01*
X121553734Y-94804768D01*
X121537056Y-94806000D01*
X121508634Y-94845495D01*
X121571942Y-94911834D01*
X121665042Y-95043767D01*
X121779275Y-95282777D01*
X121892501Y-95572229D01*
X121982581Y-95855488D01*
X122027376Y-96075920D01*
X122027482Y-96077161D01*
X122071786Y-96239424D01*
X122163668Y-96453061D01*
X122166238Y-96458161D01*
X122247658Y-96646979D01*
X122362078Y-96948149D01*
X122491280Y-97312621D01*
X122566740Y-97536500D01*
X122686417Y-97879737D01*
X122793841Y-98153178D01*
X122874971Y-98322957D01*
X122909003Y-98362000D01*
X123004465Y-98431040D01*
X123139963Y-98605583D01*
X123285933Y-98836762D01*
X123412811Y-99075712D01*
X123491032Y-99273566D01*
X123502667Y-99343258D01*
X123489066Y-99569639D01*
X123429199Y-99708910D01*
X123294468Y-99772927D01*
X123056278Y-99773544D01*
X122686031Y-99722617D01*
X122615657Y-99710984D01*
X122304130Y-99630740D01*
X122098783Y-99489504D01*
X121956170Y-99246410D01*
X121877079Y-99016242D01*
X121802740Y-98810562D01*
X121716854Y-98731335D01*
X121571741Y-98739578D01*
X121545502Y-98745160D01*
X121390941Y-98759818D01*
X121281658Y-98695741D01*
X121169114Y-98518266D01*
X121134574Y-98451711D01*
X121015868Y-98194451D01*
X120873508Y-97850947D01*
X120738207Y-97495326D01*
X120737549Y-97493502D01*
X120606268Y-97148421D01*
X120471539Y-96824956D01*
X120361784Y-96591224D01*
X120358609Y-96585254D01*
X120256224Y-96365382D01*
X120202858Y-96194969D01*
X120200667Y-96171111D01*
X120165861Y-96046376D01*
X120072463Y-95810190D01*
X119937000Y-95502860D01*
X119852979Y-95323190D01*
X119668359Y-94923852D01*
X119484482Y-94505647D01*
X119333814Y-94142943D01*
X119300579Y-94057742D01*
X119165106Y-93719874D01*
X119023247Y-93392706D01*
X118928590Y-93193262D01*
X118836275Y-92969869D01*
X118723570Y-92634750D01*
X118607668Y-92241289D01*
X118542428Y-91994187D01*
X118338560Y-91320093D01*
X118059883Y-90651428D01*
X117828489Y-90191667D01*
X117607256Y-89757498D01*
X117391645Y-89303229D01*
X117209272Y-88888705D01*
X117105656Y-88625334D01*
X116972560Y-88271386D01*
X116835804Y-87935150D01*
X116723339Y-87685123D01*
X116716066Y-87670576D01*
X116625090Y-87459348D01*
X116570391Y-87313000D01*
X118592000Y-87313000D01*
X118634334Y-87355334D01*
X118676667Y-87313000D01*
X118634334Y-87270667D01*
X118592000Y-87313000D01*
X116570391Y-87313000D01*
X116503284Y-87133457D01*
X116367851Y-86740615D01*
X116258249Y-86400576D01*
X116126875Y-85991839D01*
X115998150Y-85613831D01*
X115888271Y-85312899D01*
X115822580Y-85154000D01*
X115715326Y-84823017D01*
X115698639Y-84511983D01*
X115771288Y-84270188D01*
X115846767Y-84186099D01*
X115964918Y-84037786D01*
X116074774Y-83803227D01*
X116099275Y-83728882D01*
X116155963Y-83506040D01*
X116149403Y-83392672D01*
X116075105Y-83339438D01*
X116063459Y-83335418D01*
X115982787Y-83244540D01*
X115857314Y-83026994D01*
X115699202Y-82711567D01*
X115520615Y-82327048D01*
X115333714Y-81902225D01*
X115150662Y-81465886D01*
X114983621Y-81046820D01*
X114844754Y-80673816D01*
X114746223Y-80375660D01*
X114700191Y-80181143D01*
X114705839Y-80121939D01*
X114801988Y-80100611D01*
X115019751Y-80078763D01*
X115304271Y-80061524D01*
X115629709Y-80056028D01*
X115851713Y-80085065D01*
G36*
X142521639Y-99068798D02*
X142894270Y-99191939D01*
X142926648Y-99205658D01*
X143192951Y-99340244D01*
X143300111Y-99454122D01*
X143254952Y-99560176D01*
X143150900Y-99629021D01*
X142965962Y-99676400D01*
X142665642Y-99700898D01*
X142302365Y-99702298D01*
X141928559Y-99680384D01*
X141599232Y-99635440D01*
X141341209Y-99572678D01*
X141221914Y-99498876D01*
X141211282Y-99389453D01*
X141229558Y-99333218D01*
X141349020Y-99228925D01*
X141472851Y-99215376D01*
X141693073Y-99197174D01*
X141902012Y-99136810D01*
X142211323Y-99051794D01*
X142521639Y-99068798D01*
X142521639Y-99068798D01*
G37*
X142521639Y-99068798D02*
X142894270Y-99191939D01*
X142926648Y-99205658D01*
X143192951Y-99340244D01*
X143300111Y-99454122D01*
X143254952Y-99560176D01*
X143150900Y-99629021D01*
X142965962Y-99676400D01*
X142665642Y-99700898D01*
X142302365Y-99702298D01*
X141928559Y-99680384D01*
X141599232Y-99635440D01*
X141341209Y-99572678D01*
X141221914Y-99498876D01*
X141211282Y-99389453D01*
X141229558Y-99333218D01*
X141349020Y-99228925D01*
X141472851Y-99215376D01*
X141693073Y-99197174D01*
X141902012Y-99136810D01*
X142211323Y-99051794D01*
X142521639Y-99068798D01*
G36*
X163321674Y-81442921D02*
X163579877Y-81472802D01*
X163891117Y-81521834D01*
X164199280Y-81581137D01*
X164448255Y-81641829D01*
X164456779Y-81644335D01*
X164501405Y-81743351D01*
X164464599Y-81987878D01*
X164347111Y-82375374D01*
X164149694Y-82903296D01*
X163920300Y-83458915D01*
X163756377Y-83851969D01*
X163655111Y-84123881D01*
X163608344Y-84307326D01*
X163607922Y-84434977D01*
X163645686Y-84539509D01*
X163648984Y-84545752D01*
X163697248Y-84664664D01*
X163678669Y-84769938D01*
X163571969Y-84902507D01*
X163361975Y-85097838D01*
X163127625Y-85347560D01*
X162898817Y-85657897D01*
X162704515Y-85981390D01*
X162573679Y-86270582D01*
X162534000Y-86454590D01*
X162503158Y-86583986D01*
X162419321Y-86835418D01*
X162295522Y-87174991D01*
X162144794Y-87568811D01*
X161980169Y-87982985D01*
X161814681Y-88383617D01*
X161661363Y-88736815D01*
X161628961Y-88808280D01*
X161520880Y-89082813D01*
X161462229Y-89311082D01*
X161462282Y-89425318D01*
X161448512Y-89567930D01*
X161385413Y-89612860D01*
X161283011Y-89712304D01*
X161141705Y-89923071D01*
X160986543Y-90199692D01*
X160842575Y-90496698D01*
X160734850Y-90768620D01*
X160716716Y-90826667D01*
X160651819Y-91011340D01*
X160541570Y-91289107D01*
X160414651Y-91588667D01*
X160031518Y-92472639D01*
X159714986Y-93220969D01*
X159458124Y-93850547D01*
X159253997Y-94378263D01*
X159136024Y-94703955D01*
X158953205Y-95202033D01*
X158729745Y-95773599D01*
X158486759Y-96367644D01*
X158245365Y-96933158D01*
X158026680Y-97419131D01*
X157919618Y-97642334D01*
X157790012Y-97926535D01*
X157689812Y-98187362D01*
X157657244Y-98298500D01*
X157597984Y-98466887D01*
X157536001Y-98531334D01*
X157416734Y-98595137D01*
X157239602Y-98760033D01*
X157040715Y-98986247D01*
X156856180Y-99234005D01*
X156765088Y-99380501D01*
X156631726Y-99582343D01*
X156514007Y-99702270D01*
X156477369Y-99716667D01*
X156368039Y-99668374D01*
X156163877Y-99539890D01*
X155903073Y-99355810D01*
X155815627Y-99290495D01*
X155557280Y-99086068D01*
X155361389Y-98914204D01*
X155259956Y-98803614D01*
X155252667Y-98785441D01*
X155304311Y-98678864D01*
X155434481Y-98502573D01*
X155504014Y-98420290D01*
X155609597Y-98261655D01*
X155768857Y-97972372D01*
X155969228Y-97577633D01*
X156198144Y-97102628D01*
X156443039Y-96572548D01*
X156593022Y-96237178D01*
X156825837Y-95709639D01*
X157112459Y-95059633D01*
X157438549Y-94319709D01*
X157789769Y-93522415D01*
X158151779Y-92700300D01*
X158510241Y-91885914D01*
X158808652Y-91207667D01*
X159165655Y-90396810D01*
X159550466Y-89524124D01*
X159946371Y-88627419D01*
X160336659Y-87744507D01*
X160704621Y-86913196D01*
X161033543Y-86171299D01*
X161240989Y-85704334D01*
X161571897Y-84959507D01*
X161842945Y-84347063D01*
X162063567Y-83844879D01*
X162243202Y-83430833D01*
X162391285Y-83082803D01*
X162517254Y-82778667D01*
X162630544Y-82496303D01*
X162740593Y-82213589D01*
X162830099Y-81979000D01*
X162972427Y-81663473D01*
X163106542Y-81478808D01*
X163172619Y-81441075D01*
X163321674Y-81442921D01*
X163321674Y-81442921D01*
G37*
X163321674Y-81442921D02*
X163579877Y-81472802D01*
X163891117Y-81521834D01*
X164199280Y-81581137D01*
X164448255Y-81641829D01*
X164456779Y-81644335D01*
X164501405Y-81743351D01*
X164464599Y-81987878D01*
X164347111Y-82375374D01*
X164149694Y-82903296D01*
X163920300Y-83458915D01*
X163756377Y-83851969D01*
X163655111Y-84123881D01*
X163608344Y-84307326D01*
X163607922Y-84434977D01*
X163645686Y-84539509D01*
X163648984Y-84545752D01*
X163697248Y-84664664D01*
X163678669Y-84769938D01*
X163571969Y-84902507D01*
X163361975Y-85097838D01*
X163127625Y-85347560D01*
X162898817Y-85657897D01*
X162704515Y-85981390D01*
X162573679Y-86270582D01*
X162534000Y-86454590D01*
X162503158Y-86583986D01*
X162419321Y-86835418D01*
X162295522Y-87174991D01*
X162144794Y-87568811D01*
X161980169Y-87982985D01*
X161814681Y-88383617D01*
X161661363Y-88736815D01*
X161628961Y-88808280D01*
X161520880Y-89082813D01*
X161462229Y-89311082D01*
X161462282Y-89425318D01*
X161448512Y-89567930D01*
X161385413Y-89612860D01*
X161283011Y-89712304D01*
X161141705Y-89923071D01*
X160986543Y-90199692D01*
X160842575Y-90496698D01*
X160734850Y-90768620D01*
X160716716Y-90826667D01*
X160651819Y-91011340D01*
X160541570Y-91289107D01*
X160414651Y-91588667D01*
X160031518Y-92472639D01*
X159714986Y-93220969D01*
X159458124Y-93850547D01*
X159253997Y-94378263D01*
X159136024Y-94703955D01*
X158953205Y-95202033D01*
X158729745Y-95773599D01*
X158486759Y-96367644D01*
X158245365Y-96933158D01*
X158026680Y-97419131D01*
X157919618Y-97642334D01*
X157790012Y-97926535D01*
X157689812Y-98187362D01*
X157657244Y-98298500D01*
X157597984Y-98466887D01*
X157536001Y-98531334D01*
X157416734Y-98595137D01*
X157239602Y-98760033D01*
X157040715Y-98986247D01*
X156856180Y-99234005D01*
X156765088Y-99380501D01*
X156631726Y-99582343D01*
X156514007Y-99702270D01*
X156477369Y-99716667D01*
X156368039Y-99668374D01*
X156163877Y-99539890D01*
X155903073Y-99355810D01*
X155815627Y-99290495D01*
X155557280Y-99086068D01*
X155361389Y-98914204D01*
X155259956Y-98803614D01*
X155252667Y-98785441D01*
X155304311Y-98678864D01*
X155434481Y-98502573D01*
X155504014Y-98420290D01*
X155609597Y-98261655D01*
X155768857Y-97972372D01*
X155969228Y-97577633D01*
X156198144Y-97102628D01*
X156443039Y-96572548D01*
X156593022Y-96237178D01*
X156825837Y-95709639D01*
X157112459Y-95059633D01*
X157438549Y-94319709D01*
X157789769Y-93522415D01*
X158151779Y-92700300D01*
X158510241Y-91885914D01*
X158808652Y-91207667D01*
X159165655Y-90396810D01*
X159550466Y-89524124D01*
X159946371Y-88627419D01*
X160336659Y-87744507D01*
X160704621Y-86913196D01*
X161033543Y-86171299D01*
X161240989Y-85704334D01*
X161571897Y-84959507D01*
X161842945Y-84347063D01*
X162063567Y-83844879D01*
X162243202Y-83430833D01*
X162391285Y-83082803D01*
X162517254Y-82778667D01*
X162630544Y-82496303D01*
X162740593Y-82213589D01*
X162830099Y-81979000D01*
X162972427Y-81663473D01*
X163106542Y-81478808D01*
X163172619Y-81441075D01*
X163321674Y-81442921D01*
G36*
X135642211Y-98988564D02*
X135818241Y-99071619D01*
X135847482Y-99086117D01*
X136062980Y-99166372D01*
X136273939Y-99161337D01*
X136443847Y-99117838D01*
X136899525Y-99064008D01*
X137097014Y-99093858D01*
X137355755Y-99174359D01*
X137448551Y-99251074D01*
X137378791Y-99320062D01*
X137149861Y-99377381D01*
X136821007Y-99414916D01*
X136463345Y-99444776D01*
X136137164Y-99474759D01*
X135907871Y-99498823D01*
X135892728Y-99500678D01*
X135692272Y-99509878D01*
X135576862Y-99485836D01*
X135575228Y-99484339D01*
X135543577Y-99384423D01*
X135526837Y-99211994D01*
X135527984Y-99043682D01*
X135549994Y-98956123D01*
X135554659Y-98954667D01*
X135642211Y-98988564D01*
X135642211Y-98988564D01*
G37*
X135642211Y-98988564D02*
X135818241Y-99071619D01*
X135847482Y-99086117D01*
X136062980Y-99166372D01*
X136273939Y-99161337D01*
X136443847Y-99117838D01*
X136899525Y-99064008D01*
X137097014Y-99093858D01*
X137355755Y-99174359D01*
X137448551Y-99251074D01*
X137378791Y-99320062D01*
X137149861Y-99377381D01*
X136821007Y-99414916D01*
X136463345Y-99444776D01*
X136137164Y-99474759D01*
X135907871Y-99498823D01*
X135892728Y-99500678D01*
X135692272Y-99509878D01*
X135576862Y-99485836D01*
X135575228Y-99484339D01*
X135543577Y-99384423D01*
X135526837Y-99211994D01*
X135527984Y-99043682D01*
X135549994Y-98956123D01*
X135554659Y-98954667D01*
X135642211Y-98988564D01*
G36*
X143907334Y-98065667D02*
X143896223Y-98388721D01*
X143851467Y-98563536D01*
X143755926Y-98610401D01*
X143592464Y-98549605D01*
X143528626Y-98513989D01*
X143361599Y-98462359D01*
X143085563Y-98420741D01*
X142766626Y-98398459D01*
X142231863Y-98365498D01*
X141863846Y-98305426D01*
X141662728Y-98218277D01*
X141621334Y-98140724D01*
X141670275Y-98034362D01*
X141706000Y-98023334D01*
X141779223Y-97953987D01*
X141790667Y-97884501D01*
X141827121Y-97735679D01*
X141950365Y-97630938D01*
X142181222Y-97563953D01*
X142540514Y-97528399D01*
X142997167Y-97518026D01*
X143907334Y-97515334D01*
X143907334Y-98065667D01*
X143907334Y-98065667D01*
G37*
X143907334Y-98065667D02*
X143896223Y-98388721D01*
X143851467Y-98563536D01*
X143755926Y-98610401D01*
X143592464Y-98549605D01*
X143528626Y-98513989D01*
X143361599Y-98462359D01*
X143085563Y-98420741D01*
X142766626Y-98398459D01*
X142231863Y-98365498D01*
X141863846Y-98305426D01*
X141662728Y-98218277D01*
X141621334Y-98140724D01*
X141670275Y-98034362D01*
X141706000Y-98023334D01*
X141779223Y-97953987D01*
X141790667Y-97884501D01*
X141827121Y-97735679D01*
X141950365Y-97630938D01*
X142181222Y-97563953D01*
X142540514Y-97528399D01*
X142997167Y-97518026D01*
X143907334Y-97515334D01*
X143907334Y-98065667D01*
G36*
X136571493Y-97517756D02*
X136864821Y-97529103D01*
X137061700Y-97555496D01*
X137198560Y-97603058D01*
X137311831Y-97677909D01*
X137362112Y-97719797D01*
X137503249Y-97863973D01*
X137553709Y-97963623D01*
X137548420Y-97975656D01*
X137435487Y-98023585D01*
X137205551Y-98085233D01*
X136909243Y-98150385D01*
X136597192Y-98208821D01*
X136320029Y-98250324D01*
X136128383Y-98264676D01*
X136118000Y-98264333D01*
X135870522Y-98241352D01*
X135724464Y-98218712D01*
X135557017Y-98130101D01*
X135494745Y-98039743D01*
X135408609Y-97863109D01*
X135306455Y-97705834D01*
X135166013Y-97515334D01*
X136145285Y-97515334D01*
X136571493Y-97517756D01*
X136571493Y-97517756D01*
G37*
X136571493Y-97517756D02*
X136864821Y-97529103D01*
X137061700Y-97555496D01*
X137198560Y-97603058D01*
X137311831Y-97677909D01*
X137362112Y-97719797D01*
X137503249Y-97863973D01*
X137553709Y-97963623D01*
X137548420Y-97975656D01*
X137435487Y-98023585D01*
X137205551Y-98085233D01*
X136909243Y-98150385D01*
X136597192Y-98208821D01*
X136320029Y-98250324D01*
X136128383Y-98264676D01*
X136118000Y-98264333D01*
X135870522Y-98241352D01*
X135724464Y-98218712D01*
X135557017Y-98130101D01*
X135494745Y-98039743D01*
X135408609Y-97863109D01*
X135306455Y-97705834D01*
X135166013Y-97515334D01*
X136145285Y-97515334D01*
X136571493Y-97517756D01*
G36*
X128758211Y-88038622D02*
X129096595Y-88054882D01*
X129335369Y-88079035D01*
X129441387Y-88108672D01*
X129443445Y-88111936D01*
X129533872Y-88219329D01*
X129758587Y-88406583D01*
X130120605Y-88675994D01*
X130622947Y-89029857D01*
X130911000Y-89227788D01*
X131259863Y-89468473D01*
X131588969Y-89699859D01*
X131852951Y-89889838D01*
X131969334Y-89976841D01*
X132237043Y-90175644D01*
X132378807Y-90261576D01*
X132394546Y-90234636D01*
X132284180Y-90094821D01*
X132181000Y-89981856D01*
X132012630Y-89793870D01*
X131942910Y-89693526D01*
X131976678Y-89683928D01*
X132118771Y-89768177D01*
X132374026Y-89949378D01*
X132747281Y-90230632D01*
X133243372Y-90615042D01*
X133580248Y-90879365D01*
X134011171Y-91201871D01*
X134371737Y-91429216D01*
X134708586Y-91588655D01*
X134924326Y-91664839D01*
X135502395Y-91847280D01*
X135561541Y-92499976D01*
X135610620Y-92874669D01*
X135686401Y-93261802D01*
X135778596Y-93625305D01*
X135876922Y-93929106D01*
X135971093Y-94137136D01*
X136050098Y-94213334D01*
X136098031Y-94287460D01*
X136085353Y-94487328D01*
X136082492Y-94503064D01*
X136067717Y-94721462D01*
X136111588Y-94844105D01*
X136115402Y-94846728D01*
X136178863Y-94962734D01*
X136202667Y-95144152D01*
X136243121Y-95501394D01*
X136365467Y-95711981D01*
X136571182Y-95778277D01*
X136597724Y-95776961D01*
X136838269Y-95738881D01*
X136999443Y-95691202D01*
X137111702Y-95663526D01*
X137123891Y-95744006D01*
X137101981Y-95828886D01*
X137043137Y-96064407D01*
X136992627Y-96308834D01*
X136973446Y-96498545D01*
X137024527Y-96573936D01*
X137105989Y-96584000D01*
X137294526Y-96637021D01*
X137438152Y-96759882D01*
X137472667Y-96854934D01*
X137413999Y-96918476D01*
X137293927Y-96906370D01*
X137196342Y-96829927D01*
X137190073Y-96816834D01*
X137151820Y-96754442D01*
X137140684Y-96816834D01*
X137092369Y-96861341D01*
X136941612Y-96892495D01*
X136669893Y-96911921D01*
X136258693Y-96921245D01*
X135935545Y-96922667D01*
X135465549Y-96921694D01*
X135142142Y-96916556D01*
X134942579Y-96903927D01*
X134844116Y-96880478D01*
X134824010Y-96842883D01*
X134859517Y-96787814D01*
X134877211Y-96767833D01*
X134965363Y-96653427D01*
X135004815Y-96530868D01*
X134994698Y-96359167D01*
X134934144Y-96097335D01*
X134857201Y-95824389D01*
X134758489Y-95477912D01*
X134665417Y-95141727D01*
X134609748Y-94933000D01*
X134537867Y-94689769D01*
X134426956Y-94353712D01*
X134298704Y-93990078D01*
X134273923Y-93922601D01*
X134025418Y-93250868D01*
X133242883Y-92758434D01*
X132919821Y-92558671D01*
X132649055Y-92397853D01*
X132462658Y-92294617D01*
X132395425Y-92266000D01*
X132314668Y-92330580D01*
X132182691Y-92494698D01*
X132106383Y-92604667D01*
X131939398Y-92840307D01*
X131851578Y-92931844D01*
X131849883Y-92882124D01*
X131941271Y-92693993D01*
X132013573Y-92566719D01*
X132234284Y-92190104D01*
X129815809Y-90576320D01*
X129153334Y-90132707D01*
X128619928Y-89771374D01*
X128202545Y-89482535D01*
X127888137Y-89256403D01*
X127663655Y-89083189D01*
X127516053Y-88953108D01*
X127432284Y-88856372D01*
X127399298Y-88783194D01*
X127397333Y-88762185D01*
X127380240Y-88529584D01*
X127344417Y-88297250D01*
X127291500Y-88032667D01*
X128353361Y-88032667D01*
X128758211Y-88038622D01*
X128758211Y-88038622D01*
G37*
X128758211Y-88038622D02*
X129096595Y-88054882D01*
X129335369Y-88079035D01*
X129441387Y-88108672D01*
X129443445Y-88111936D01*
X129533872Y-88219329D01*
X129758587Y-88406583D01*
X130120605Y-88675994D01*
X130622947Y-89029857D01*
X130911000Y-89227788D01*
X131259863Y-89468473D01*
X131588969Y-89699859D01*
X131852951Y-89889838D01*
X131969334Y-89976841D01*
X132237043Y-90175644D01*
X132378807Y-90261576D01*
X132394546Y-90234636D01*
X132284180Y-90094821D01*
X132181000Y-89981856D01*
X132012630Y-89793870D01*
X131942910Y-89693526D01*
X131976678Y-89683928D01*
X132118771Y-89768177D01*
X132374026Y-89949378D01*
X132747281Y-90230632D01*
X133243372Y-90615042D01*
X133580248Y-90879365D01*
X134011171Y-91201871D01*
X134371737Y-91429216D01*
X134708586Y-91588655D01*
X134924326Y-91664839D01*
X135502395Y-91847280D01*
X135561541Y-92499976D01*
X135610620Y-92874669D01*
X135686401Y-93261802D01*
X135778596Y-93625305D01*
X135876922Y-93929106D01*
X135971093Y-94137136D01*
X136050098Y-94213334D01*
X136098031Y-94287460D01*
X136085353Y-94487328D01*
X136082492Y-94503064D01*
X136067717Y-94721462D01*
X136111588Y-94844105D01*
X136115402Y-94846728D01*
X136178863Y-94962734D01*
X136202667Y-95144152D01*
X136243121Y-95501394D01*
X136365467Y-95711981D01*
X136571182Y-95778277D01*
X136597724Y-95776961D01*
X136838269Y-95738881D01*
X136999443Y-95691202D01*
X137111702Y-95663526D01*
X137123891Y-95744006D01*
X137101981Y-95828886D01*
X137043137Y-96064407D01*
X136992627Y-96308834D01*
X136973446Y-96498545D01*
X137024527Y-96573936D01*
X137105989Y-96584000D01*
X137294526Y-96637021D01*
X137438152Y-96759882D01*
X137472667Y-96854934D01*
X137413999Y-96918476D01*
X137293927Y-96906370D01*
X137196342Y-96829927D01*
X137190073Y-96816834D01*
X137151820Y-96754442D01*
X137140684Y-96816834D01*
X137092369Y-96861341D01*
X136941612Y-96892495D01*
X136669893Y-96911921D01*
X136258693Y-96921245D01*
X135935545Y-96922667D01*
X135465549Y-96921694D01*
X135142142Y-96916556D01*
X134942579Y-96903927D01*
X134844116Y-96880478D01*
X134824010Y-96842883D01*
X134859517Y-96787814D01*
X134877211Y-96767833D01*
X134965363Y-96653427D01*
X135004815Y-96530868D01*
X134994698Y-96359167D01*
X134934144Y-96097335D01*
X134857201Y-95824389D01*
X134758489Y-95477912D01*
X134665417Y-95141727D01*
X134609748Y-94933000D01*
X134537867Y-94689769D01*
X134426956Y-94353712D01*
X134298704Y-93990078D01*
X134273923Y-93922601D01*
X134025418Y-93250868D01*
X133242883Y-92758434D01*
X132919821Y-92558671D01*
X132649055Y-92397853D01*
X132462658Y-92294617D01*
X132395425Y-92266000D01*
X132314668Y-92330580D01*
X132182691Y-92494698D01*
X132106383Y-92604667D01*
X131939398Y-92840307D01*
X131851578Y-92931844D01*
X131849883Y-92882124D01*
X131941271Y-92693993D01*
X132013573Y-92566719D01*
X132234284Y-92190104D01*
X129815809Y-90576320D01*
X129153334Y-90132707D01*
X128619928Y-89771374D01*
X128202545Y-89482535D01*
X127888137Y-89256403D01*
X127663655Y-89083189D01*
X127516053Y-88953108D01*
X127432284Y-88856372D01*
X127399298Y-88783194D01*
X127397333Y-88762185D01*
X127380240Y-88529584D01*
X127344417Y-88297250D01*
X127291500Y-88032667D01*
X128353361Y-88032667D01*
X128758211Y-88038622D01*
G36*
X139547000Y-96922362D02*
X139229500Y-96922514D01*
X138912000Y-96922667D01*
X138912000Y-96342420D01*
X138903035Y-95938498D01*
X138879913Y-95506522D01*
X138857606Y-95241753D01*
X138803211Y-94721334D01*
X139563430Y-94721334D01*
X139547000Y-96922362D01*
X139547000Y-96922362D01*
G37*
X139547000Y-96922362D02*
X139229500Y-96922514D01*
X138912000Y-96922667D01*
X138912000Y-96342420D01*
X138903035Y-95938498D01*
X138879913Y-95506522D01*
X138857606Y-95241753D01*
X138803211Y-94721334D01*
X139563430Y-94721334D01*
X139547000Y-96922362D01*
G36*
X143050061Y-93568120D02*
X143289768Y-93752249D01*
X143561119Y-93902364D01*
X143568667Y-93905574D01*
X143951228Y-94142407D01*
X144227900Y-94470820D01*
X144366398Y-94848334D01*
X144377577Y-95080056D01*
X144335691Y-95358169D01*
X144232636Y-95726037D01*
X144163453Y-95934441D01*
X144050846Y-96275403D01*
X143963469Y-96563454D01*
X143913951Y-96755802D01*
X143907334Y-96802275D01*
X143875042Y-96857809D01*
X143760840Y-96893954D01*
X143538735Y-96914230D01*
X143182733Y-96922158D01*
X143018334Y-96922667D01*
X142622592Y-96921075D01*
X142366001Y-96911995D01*
X142218382Y-96888969D01*
X142149556Y-96845538D01*
X142129343Y-96775247D01*
X142128060Y-96732167D01*
X142164959Y-96568787D01*
X142263877Y-96307535D01*
X142405193Y-95998890D01*
X142440021Y-95929646D01*
X142753254Y-95317626D01*
X142502313Y-94998313D01*
X142314102Y-94749012D01*
X142145639Y-94510093D01*
X142103734Y-94446167D01*
X141956097Y-94213334D01*
X142237656Y-94213334D01*
X142406205Y-94199953D01*
X142514143Y-94132995D01*
X142602333Y-93972234D01*
X142673502Y-93784278D01*
X142827789Y-93355222D01*
X143050061Y-93568120D01*
X143050061Y-93568120D01*
G37*
X143050061Y-93568120D02*
X143289768Y-93752249D01*
X143561119Y-93902364D01*
X143568667Y-93905574D01*
X143951228Y-94142407D01*
X144227900Y-94470820D01*
X144366398Y-94848334D01*
X144377577Y-95080056D01*
X144335691Y-95358169D01*
X144232636Y-95726037D01*
X144163453Y-95934441D01*
X144050846Y-96275403D01*
X143963469Y-96563454D01*
X143913951Y-96755802D01*
X143907334Y-96802275D01*
X143875042Y-96857809D01*
X143760840Y-96893954D01*
X143538735Y-96914230D01*
X143182733Y-96922158D01*
X143018334Y-96922667D01*
X142622592Y-96921075D01*
X142366001Y-96911995D01*
X142218382Y-96888969D01*
X142149556Y-96845538D01*
X142129343Y-96775247D01*
X142128060Y-96732167D01*
X142164959Y-96568787D01*
X142263877Y-96307535D01*
X142405193Y-95998890D01*
X142440021Y-95929646D01*
X142753254Y-95317626D01*
X142502313Y-94998313D01*
X142314102Y-94749012D01*
X142145639Y-94510093D01*
X142103734Y-94446167D01*
X141956097Y-94213334D01*
X142237656Y-94213334D01*
X142406205Y-94199953D01*
X142514143Y-94132995D01*
X142602333Y-93972234D01*
X142673502Y-93784278D01*
X142827789Y-93355222D01*
X143050061Y-93568120D01*
G36*
X137811334Y-95525667D02*
X137769000Y-95568000D01*
X137726667Y-95525667D01*
X137769000Y-95483334D01*
X137811334Y-95525667D01*
X137811334Y-95525667D01*
G37*
X137811334Y-95525667D02*
X137769000Y-95568000D01*
X137726667Y-95525667D01*
X137769000Y-95483334D01*
X137811334Y-95525667D01*
G36*
X137708838Y-95281036D02*
X137769059Y-95375927D01*
X137681565Y-95408280D01*
X137666505Y-95409472D01*
X137455723Y-95427284D01*
X137321246Y-95440402D01*
X137181898Y-95423080D01*
X137161025Y-95366096D01*
X137261285Y-95293929D01*
X137353544Y-95286748D01*
X137507696Y-95267396D01*
X137556098Y-95232618D01*
X137638581Y-95226313D01*
X137708838Y-95281036D01*
X137708838Y-95281036D01*
G37*
X137708838Y-95281036D02*
X137769059Y-95375927D01*
X137681565Y-95408280D01*
X137666505Y-95409472D01*
X137455723Y-95427284D01*
X137321246Y-95440402D01*
X137181898Y-95423080D01*
X137161025Y-95366096D01*
X137261285Y-95293929D01*
X137353544Y-95286748D01*
X137507696Y-95267396D01*
X137556098Y-95232618D01*
X137638581Y-95226313D01*
X137708838Y-95281036D01*
G36*
X140472400Y-91725106D02*
X140602690Y-91840761D01*
X140650149Y-91935155D01*
X140707088Y-92027806D01*
X140830826Y-92077094D01*
X141063516Y-92095318D01*
X141203706Y-92096667D01*
X141483528Y-92101593D01*
X141633941Y-92127057D01*
X141694808Y-92189092D01*
X141706000Y-92298656D01*
X141666478Y-92520777D01*
X141579522Y-92743156D01*
X141499097Y-92984205D01*
X141455126Y-93284646D01*
X141452378Y-93366667D01*
X141451712Y-93747667D01*
X141007356Y-93757421D01*
X140706633Y-93752203D01*
X140444051Y-93727931D01*
X140351334Y-93709891D01*
X140252995Y-93677001D01*
X140192533Y-93620317D01*
X140162619Y-93505620D01*
X140155927Y-93298690D01*
X140165130Y-92965307D01*
X140169041Y-92858560D01*
X140198170Y-92353664D01*
X140244531Y-92004047D01*
X140311740Y-91796202D01*
X140403412Y-91716622D01*
X140472400Y-91725106D01*
X140472400Y-91725106D01*
G37*
X140472400Y-91725106D02*
X140602690Y-91840761D01*
X140650149Y-91935155D01*
X140707088Y-92027806D01*
X140830826Y-92077094D01*
X141063516Y-92095318D01*
X141203706Y-92096667D01*
X141483528Y-92101593D01*
X141633941Y-92127057D01*
X141694808Y-92189092D01*
X141706000Y-92298656D01*
X141666478Y-92520777D01*
X141579522Y-92743156D01*
X141499097Y-92984205D01*
X141455126Y-93284646D01*
X141452378Y-93366667D01*
X141451712Y-93747667D01*
X141007356Y-93757421D01*
X140706633Y-93752203D01*
X140444051Y-93727931D01*
X140351334Y-93709891D01*
X140252995Y-93677001D01*
X140192533Y-93620317D01*
X140162619Y-93505620D01*
X140155927Y-93298690D01*
X140165130Y-92965307D01*
X140169041Y-92858560D01*
X140198170Y-92353664D01*
X140244531Y-92004047D01*
X140311740Y-91796202D01*
X140403412Y-91716622D01*
X140472400Y-91725106D01*
G36*
X137848296Y-91457446D02*
X138203401Y-91578415D01*
X138264901Y-91615287D01*
X138353559Y-91684031D01*
X138408258Y-91773310D01*
X138435333Y-91919490D01*
X138441114Y-92158937D01*
X138431934Y-92528016D01*
X138430645Y-92567173D01*
X138409344Y-92934286D01*
X138374559Y-93243788D01*
X138332020Y-93452215D01*
X138306484Y-93509149D01*
X138146852Y-93587912D01*
X137875917Y-93607124D01*
X137862348Y-93606433D01*
X137593334Y-93608624D01*
X137369583Y-93638597D01*
X137336301Y-93648174D01*
X137112752Y-93641401D01*
X136958798Y-93548273D01*
X136861253Y-93455494D01*
X136803986Y-93344272D01*
X136778404Y-93172433D01*
X136775911Y-92897806D01*
X136781547Y-92678479D01*
X136797043Y-92269212D01*
X136821614Y-91993057D01*
X136866896Y-91813811D01*
X136944521Y-91695272D01*
X137066122Y-91601237D01*
X137142667Y-91554682D01*
X137471020Y-91448256D01*
X137848296Y-91457446D01*
X137848296Y-91457446D01*
G37*
X137848296Y-91457446D02*
X138203401Y-91578415D01*
X138264901Y-91615287D01*
X138353559Y-91684031D01*
X138408258Y-91773310D01*
X138435333Y-91919490D01*
X138441114Y-92158937D01*
X138431934Y-92528016D01*
X138430645Y-92567173D01*
X138409344Y-92934286D01*
X138374559Y-93243788D01*
X138332020Y-93452215D01*
X138306484Y-93509149D01*
X138146852Y-93587912D01*
X137875917Y-93607124D01*
X137862348Y-93606433D01*
X137593334Y-93608624D01*
X137369583Y-93638597D01*
X137336301Y-93648174D01*
X137112752Y-93641401D01*
X136958798Y-93548273D01*
X136861253Y-93455494D01*
X136803986Y-93344272D01*
X136778404Y-93172433D01*
X136775911Y-92897806D01*
X136781547Y-92678479D01*
X136797043Y-92269212D01*
X136821614Y-91993057D01*
X136866896Y-91813811D01*
X136944521Y-91695272D01*
X137066122Y-91601237D01*
X137142667Y-91554682D01*
X137471020Y-91448256D01*
X137848296Y-91457446D01*
G36*
X131998160Y-85178572D02*
X132306974Y-85252017D01*
X132455230Y-85373932D01*
X132453470Y-85517399D01*
X132474691Y-85624614D01*
X132612322Y-85784651D01*
X132879078Y-86011089D01*
X133011213Y-86113028D01*
X133324819Y-86342187D01*
X133625939Y-86547643D01*
X133862698Y-86694426D01*
X133916667Y-86723430D01*
X134158219Y-86876028D01*
X134424344Y-87088886D01*
X134527613Y-87185530D01*
X134770248Y-87395011D01*
X135088776Y-87628344D01*
X135374280Y-87810696D01*
X135720796Y-88048863D01*
X136079406Y-88350193D01*
X136321157Y-88593891D01*
X136546402Y-88869394D01*
X136639815Y-89050739D01*
X136595821Y-89156610D01*
X136408843Y-89205689D01*
X136135289Y-89216704D01*
X135752745Y-89277471D01*
X135373962Y-89429667D01*
X135124557Y-89550200D01*
X134921759Y-89626860D01*
X134848068Y-89641334D01*
X134730972Y-89602422D01*
X134496198Y-89495461D01*
X134173827Y-89335108D01*
X133793941Y-89136020D01*
X133637238Y-89051339D01*
X133037345Y-88713768D01*
X132559102Y-88416197D01*
X132168309Y-88132417D01*
X131830763Y-87836220D01*
X131512262Y-87501396D01*
X131319628Y-87275360D01*
X130868667Y-86729720D01*
X130868667Y-85154000D01*
X131529818Y-85154000D01*
X131998160Y-85178572D01*
X131998160Y-85178572D01*
G37*
X131998160Y-85178572D02*
X132306974Y-85252017D01*
X132455230Y-85373932D01*
X132453470Y-85517399D01*
X132474691Y-85624614D01*
X132612322Y-85784651D01*
X132879078Y-86011089D01*
X133011213Y-86113028D01*
X133324819Y-86342187D01*
X133625939Y-86547643D01*
X133862698Y-86694426D01*
X133916667Y-86723430D01*
X134158219Y-86876028D01*
X134424344Y-87088886D01*
X134527613Y-87185530D01*
X134770248Y-87395011D01*
X135088776Y-87628344D01*
X135374280Y-87810696D01*
X135720796Y-88048863D01*
X136079406Y-88350193D01*
X136321157Y-88593891D01*
X136546402Y-88869394D01*
X136639815Y-89050739D01*
X136595821Y-89156610D01*
X136408843Y-89205689D01*
X136135289Y-89216704D01*
X135752745Y-89277471D01*
X135373962Y-89429667D01*
X135124557Y-89550200D01*
X134921759Y-89626860D01*
X134848068Y-89641334D01*
X134730972Y-89602422D01*
X134496198Y-89495461D01*
X134173827Y-89335108D01*
X133793941Y-89136020D01*
X133637238Y-89051339D01*
X133037345Y-88713768D01*
X132559102Y-88416197D01*
X132168309Y-88132417D01*
X131830763Y-87836220D01*
X131512262Y-87501396D01*
X131319628Y-87275360D01*
X130868667Y-86729720D01*
X130868667Y-85154000D01*
X131529818Y-85154000D01*
X131998160Y-85178572D01*
G36*
X131546000Y-89429667D02*
X131503667Y-89472000D01*
X131461334Y-89429667D01*
X131503667Y-89387334D01*
X131546000Y-89429667D01*
X131546000Y-89429667D01*
G37*
X131546000Y-89429667D02*
X131503667Y-89472000D01*
X131461334Y-89429667D01*
X131503667Y-89387334D01*
X131546000Y-89429667D01*
G36*
X148140667Y-85774889D02*
X148133503Y-86175961D01*
X148110309Y-86427322D01*
X148068530Y-86548059D01*
X148034834Y-86565755D01*
X147935502Y-86601964D01*
X147703321Y-86704338D01*
X147357230Y-86863980D01*
X146916167Y-87071993D01*
X146399071Y-87319480D01*
X145824881Y-87597544D01*
X145481577Y-87765199D01*
X144879850Y-88057106D01*
X144320811Y-88322908D01*
X143824076Y-88553695D01*
X143409258Y-88740561D01*
X143095974Y-88874599D01*
X142903836Y-88946900D01*
X142856910Y-88957124D01*
X142653536Y-88917075D01*
X142425667Y-88833942D01*
X142199122Y-88768911D01*
X141885737Y-88725020D01*
X141661317Y-88713819D01*
X141350480Y-88699436D01*
X141154877Y-88652081D01*
X141021366Y-88556781D01*
X140992971Y-88525475D01*
X140896610Y-88398171D01*
X140901562Y-88307622D01*
X141021899Y-88192192D01*
X141079645Y-88145856D01*
X141299118Y-88003154D01*
X141597042Y-87848408D01*
X141790324Y-87763656D01*
X142157949Y-87609069D01*
X142590245Y-87416365D01*
X143053375Y-87201852D01*
X143513500Y-86981837D01*
X143936782Y-86772626D01*
X144289382Y-86590528D01*
X144537464Y-86451848D01*
X144611344Y-86404166D01*
X145014267Y-86132279D01*
X145387334Y-85910554D01*
X145699760Y-85755384D01*
X145920760Y-85683164D01*
X145970260Y-85680471D01*
X146132667Y-85654654D01*
X146377148Y-85573253D01*
X146658962Y-85456772D01*
X146933367Y-85325717D01*
X147155625Y-85200594D01*
X147280994Y-85101906D01*
X147294000Y-85073782D01*
X147370848Y-85021508D01*
X147570821Y-84989822D01*
X147717334Y-84984667D01*
X148140667Y-84984667D01*
X148140667Y-85774889D01*
X148140667Y-85774889D01*
G37*
X148140667Y-85774889D02*
X148133503Y-86175961D01*
X148110309Y-86427322D01*
X148068530Y-86548059D01*
X148034834Y-86565755D01*
X147935502Y-86601964D01*
X147703321Y-86704338D01*
X147357230Y-86863980D01*
X146916167Y-87071993D01*
X146399071Y-87319480D01*
X145824881Y-87597544D01*
X145481577Y-87765199D01*
X144879850Y-88057106D01*
X144320811Y-88322908D01*
X143824076Y-88553695D01*
X143409258Y-88740561D01*
X143095974Y-88874599D01*
X142903836Y-88946900D01*
X142856910Y-88957124D01*
X142653536Y-88917075D01*
X142425667Y-88833942D01*
X142199122Y-88768911D01*
X141885737Y-88725020D01*
X141661317Y-88713819D01*
X141350480Y-88699436D01*
X141154877Y-88652081D01*
X141021366Y-88556781D01*
X140992971Y-88525475D01*
X140896610Y-88398171D01*
X140901562Y-88307622D01*
X141021899Y-88192192D01*
X141079645Y-88145856D01*
X141299118Y-88003154D01*
X141597042Y-87848408D01*
X141790324Y-87763656D01*
X142157949Y-87609069D01*
X142590245Y-87416365D01*
X143053375Y-87201852D01*
X143513500Y-86981837D01*
X143936782Y-86772626D01*
X144289382Y-86590528D01*
X144537464Y-86451848D01*
X144611344Y-86404166D01*
X145014267Y-86132279D01*
X145387334Y-85910554D01*
X145699760Y-85755384D01*
X145920760Y-85683164D01*
X145970260Y-85680471D01*
X146132667Y-85654654D01*
X146377148Y-85573253D01*
X146658962Y-85456772D01*
X146933367Y-85325717D01*
X147155625Y-85200594D01*
X147280994Y-85101906D01*
X147294000Y-85073782D01*
X147370848Y-85021508D01*
X147570821Y-84989822D01*
X147717334Y-84984667D01*
X148140667Y-84984667D01*
X148140667Y-85774889D01*
G36*
X166156913Y-69083593D02*
X166471000Y-69109667D01*
X166445689Y-69570800D01*
X166409453Y-69856794D01*
X166333281Y-70240960D01*
X166230402Y-70660698D01*
X166170522Y-70872977D01*
X166061943Y-71281619D01*
X165977096Y-71683034D01*
X165927840Y-72016836D01*
X165920216Y-72147511D01*
X165906819Y-72383020D01*
X165871014Y-72719168D01*
X165818837Y-73117233D01*
X165756325Y-73538490D01*
X165689516Y-73944216D01*
X165624448Y-74295687D01*
X165567158Y-74554180D01*
X165525695Y-74677940D01*
X165501900Y-74732024D01*
X165480603Y-74824236D01*
X165460244Y-74973600D01*
X165439264Y-75199142D01*
X165416102Y-75519887D01*
X165389199Y-75954861D01*
X165356995Y-76523090D01*
X165322789Y-77153000D01*
X165292775Y-77694369D01*
X165262402Y-78210916D01*
X165233973Y-78665664D01*
X165209794Y-79021635D01*
X165193539Y-79227334D01*
X165164663Y-79577844D01*
X165140735Y-79931350D01*
X165133490Y-80067039D01*
X165105811Y-80296888D01*
X165056045Y-80439722D01*
X165031667Y-80460014D01*
X164912013Y-80448107D01*
X164680797Y-80398584D01*
X164396667Y-80324502D01*
X164049170Y-80241334D01*
X163708694Y-80183022D01*
X163495559Y-80164360D01*
X163221195Y-80127652D01*
X163096049Y-80031667D01*
X162981200Y-79927082D01*
X162875324Y-79904667D01*
X162733535Y-79847799D01*
X162703334Y-79726275D01*
X162672760Y-79599446D01*
X162559079Y-79608535D01*
X162555167Y-79610163D01*
X162277081Y-79705726D01*
X162099002Y-79700075D01*
X161979877Y-79585673D01*
X161934350Y-79496216D01*
X161779447Y-79284120D01*
X161563945Y-79201114D01*
X161356740Y-79195039D01*
X161225900Y-79236415D01*
X161086371Y-79299264D01*
X160913494Y-79306742D01*
X160782779Y-79262638D01*
X160756000Y-79212834D01*
X160806691Y-79071140D01*
X160870126Y-78980000D01*
X160959705Y-78820481D01*
X161055070Y-78570620D01*
X161092869Y-78443905D01*
X161175731Y-78223736D01*
X161327794Y-77898534D01*
X161529457Y-77507446D01*
X161761121Y-77089618D01*
X161832313Y-76966998D01*
X162078766Y-76533881D01*
X162310934Y-76101906D01*
X162505862Y-75715389D01*
X162640597Y-75418651D01*
X162660821Y-75367330D01*
X162804213Y-75044680D01*
X163008525Y-74656630D01*
X163235364Y-74274929D01*
X163292714Y-74186455D01*
X163507092Y-73854880D01*
X163702990Y-73538129D01*
X163847979Y-73289101D01*
X163881974Y-73225219D01*
X164005865Y-72983996D01*
X164169225Y-72669665D01*
X164303836Y-72412791D01*
X164473703Y-72038397D01*
X164530811Y-71770441D01*
X164523123Y-71689524D01*
X164526298Y-71517550D01*
X164613406Y-71290636D01*
X164798054Y-70974408D01*
X164819344Y-70941285D01*
X165028599Y-70598625D01*
X165263643Y-70185077D01*
X165477936Y-69782864D01*
X165502959Y-69733479D01*
X165842825Y-69057519D01*
X166156913Y-69083593D01*
X166156913Y-69083593D01*
G37*
X166156913Y-69083593D02*
X166471000Y-69109667D01*
X166445689Y-69570800D01*
X166409453Y-69856794D01*
X166333281Y-70240960D01*
X166230402Y-70660698D01*
X166170522Y-70872977D01*
X166061943Y-71281619D01*
X165977096Y-71683034D01*
X165927840Y-72016836D01*
X165920216Y-72147511D01*
X165906819Y-72383020D01*
X165871014Y-72719168D01*
X165818837Y-73117233D01*
X165756325Y-73538490D01*
X165689516Y-73944216D01*
X165624448Y-74295687D01*
X165567158Y-74554180D01*
X165525695Y-74677940D01*
X165501900Y-74732024D01*
X165480603Y-74824236D01*
X165460244Y-74973600D01*
X165439264Y-75199142D01*
X165416102Y-75519887D01*
X165389199Y-75954861D01*
X165356995Y-76523090D01*
X165322789Y-77153000D01*
X165292775Y-77694369D01*
X165262402Y-78210916D01*
X165233973Y-78665664D01*
X165209794Y-79021635D01*
X165193539Y-79227334D01*
X165164663Y-79577844D01*
X165140735Y-79931350D01*
X165133490Y-80067039D01*
X165105811Y-80296888D01*
X165056045Y-80439722D01*
X165031667Y-80460014D01*
X164912013Y-80448107D01*
X164680797Y-80398584D01*
X164396667Y-80324502D01*
X164049170Y-80241334D01*
X163708694Y-80183022D01*
X163495559Y-80164360D01*
X163221195Y-80127652D01*
X163096049Y-80031667D01*
X162981200Y-79927082D01*
X162875324Y-79904667D01*
X162733535Y-79847799D01*
X162703334Y-79726275D01*
X162672760Y-79599446D01*
X162559079Y-79608535D01*
X162555167Y-79610163D01*
X162277081Y-79705726D01*
X162099002Y-79700075D01*
X161979877Y-79585673D01*
X161934350Y-79496216D01*
X161779447Y-79284120D01*
X161563945Y-79201114D01*
X161356740Y-79195039D01*
X161225900Y-79236415D01*
X161086371Y-79299264D01*
X160913494Y-79306742D01*
X160782779Y-79262638D01*
X160756000Y-79212834D01*
X160806691Y-79071140D01*
X160870126Y-78980000D01*
X160959705Y-78820481D01*
X161055070Y-78570620D01*
X161092869Y-78443905D01*
X161175731Y-78223736D01*
X161327794Y-77898534D01*
X161529457Y-77507446D01*
X161761121Y-77089618D01*
X161832313Y-76966998D01*
X162078766Y-76533881D01*
X162310934Y-76101906D01*
X162505862Y-75715389D01*
X162640597Y-75418651D01*
X162660821Y-75367330D01*
X162804213Y-75044680D01*
X163008525Y-74656630D01*
X163235364Y-74274929D01*
X163292714Y-74186455D01*
X163507092Y-73854880D01*
X163702990Y-73538129D01*
X163847979Y-73289101D01*
X163881974Y-73225219D01*
X164005865Y-72983996D01*
X164169225Y-72669665D01*
X164303836Y-72412791D01*
X164473703Y-72038397D01*
X164530811Y-71770441D01*
X164523123Y-71689524D01*
X164526298Y-71517550D01*
X164613406Y-71290636D01*
X164798054Y-70974408D01*
X164819344Y-70941285D01*
X165028599Y-70598625D01*
X165263643Y-70185077D01*
X165477936Y-69782864D01*
X165502959Y-69733479D01*
X165842825Y-69057519D01*
X166156913Y-69083593D01*
G36*
X161987020Y-66332151D02*
X162076809Y-66487826D01*
X162025697Y-66697234D01*
X161964570Y-66893296D01*
X161937617Y-67135601D01*
X161905220Y-67405179D01*
X161830363Y-67704663D01*
X161814635Y-67751167D01*
X161745776Y-68007966D01*
X161766082Y-68164997D01*
X161787834Y-68197412D01*
X161824396Y-68312673D01*
X161802553Y-68521905D01*
X161718793Y-68853777D01*
X161699192Y-68920912D01*
X161523748Y-69652896D01*
X161392566Y-70495251D01*
X161313910Y-71392886D01*
X161306829Y-71536216D01*
X161273398Y-71966844D01*
X161214314Y-72451336D01*
X161148919Y-72848549D01*
X161100101Y-73170441D01*
X161052151Y-73612980D01*
X161009406Y-74127518D01*
X160976201Y-74665403D01*
X160965245Y-74909334D01*
X160916806Y-75760269D01*
X160844153Y-76444179D01*
X160748177Y-76957834D01*
X160660144Y-77380793D01*
X160590081Y-77845464D01*
X160555178Y-78222436D01*
X160532832Y-78549993D01*
X160494424Y-78757932D01*
X160423073Y-78895963D01*
X160301899Y-79013800D01*
X160280622Y-79031015D01*
X160036330Y-79174878D01*
X159802856Y-79228242D01*
X159635462Y-79178971D01*
X159630090Y-79173868D01*
X159622401Y-79066744D01*
X159665172Y-78954950D01*
X159720061Y-78809009D01*
X159714899Y-78750677D01*
X159617381Y-78728146D01*
X159395867Y-78704542D01*
X159095595Y-78684524D01*
X159051872Y-78682368D01*
X158571441Y-78639213D01*
X158215803Y-78563479D01*
X158001789Y-78459636D01*
X157949713Y-78389844D01*
X157842542Y-78321533D01*
X157602507Y-78288734D01*
X157262681Y-78293214D01*
X156882500Y-78332893D01*
X156587487Y-78359473D01*
X156449763Y-78331747D01*
X156438000Y-78306041D01*
X156380357Y-78257506D01*
X156216035Y-78299916D01*
X155982430Y-78338847D01*
X155892611Y-78300103D01*
X155832972Y-78162796D01*
X155816920Y-77936812D01*
X155842280Y-77696507D01*
X155906882Y-77516239D01*
X155915878Y-77503790D01*
X155983735Y-77377106D01*
X156083871Y-77144462D01*
X156178588Y-76899000D01*
X156325910Y-76547271D01*
X156503551Y-76190779D01*
X156612812Y-76003165D01*
X156790741Y-75683172D01*
X156958073Y-75316130D01*
X157018574Y-75156499D01*
X157131692Y-74866543D01*
X157295478Y-74493620D01*
X157480441Y-74103923D01*
X157543609Y-73978000D01*
X157700236Y-73660377D01*
X157819339Y-73398573D01*
X157884743Y-73229259D01*
X157891862Y-73188427D01*
X157929055Y-73083824D01*
X158044849Y-72915383D01*
X158074515Y-72879107D01*
X158172253Y-72733212D01*
X158330626Y-72461879D01*
X158535182Y-72091447D01*
X158771467Y-71648251D01*
X159025029Y-71158630D01*
X159104809Y-71001681D01*
X159357952Y-70505182D01*
X159594440Y-70048384D01*
X159800606Y-69657136D01*
X159962782Y-69357285D01*
X160067302Y-69174683D01*
X160086488Y-69145022D01*
X160281916Y-68845801D01*
X160497300Y-68484815D01*
X160711316Y-68101682D01*
X160902641Y-67736017D01*
X161049952Y-67427438D01*
X161131926Y-67215560D01*
X161137934Y-67191522D01*
X161210889Y-66957131D01*
X161303417Y-66784127D01*
X161305742Y-66781334D01*
X161418840Y-66595459D01*
X161471358Y-66463834D01*
X161574218Y-66314140D01*
X161768647Y-66273334D01*
X161987020Y-66332151D01*
X161987020Y-66332151D01*
G37*
X161987020Y-66332151D02*
X162076809Y-66487826D01*
X162025697Y-66697234D01*
X161964570Y-66893296D01*
X161937617Y-67135601D01*
X161905220Y-67405179D01*
X161830363Y-67704663D01*
X161814635Y-67751167D01*
X161745776Y-68007966D01*
X161766082Y-68164997D01*
X161787834Y-68197412D01*
X161824396Y-68312673D01*
X161802553Y-68521905D01*
X161718793Y-68853777D01*
X161699192Y-68920912D01*
X161523748Y-69652896D01*
X161392566Y-70495251D01*
X161313910Y-71392886D01*
X161306829Y-71536216D01*
X161273398Y-71966844D01*
X161214314Y-72451336D01*
X161148919Y-72848549D01*
X161100101Y-73170441D01*
X161052151Y-73612980D01*
X161009406Y-74127518D01*
X160976201Y-74665403D01*
X160965245Y-74909334D01*
X160916806Y-75760269D01*
X160844153Y-76444179D01*
X160748177Y-76957834D01*
X160660144Y-77380793D01*
X160590081Y-77845464D01*
X160555178Y-78222436D01*
X160532832Y-78549993D01*
X160494424Y-78757932D01*
X160423073Y-78895963D01*
X160301899Y-79013800D01*
X160280622Y-79031015D01*
X160036330Y-79174878D01*
X159802856Y-79228242D01*
X159635462Y-79178971D01*
X159630090Y-79173868D01*
X159622401Y-79066744D01*
X159665172Y-78954950D01*
X159720061Y-78809009D01*
X159714899Y-78750677D01*
X159617381Y-78728146D01*
X159395867Y-78704542D01*
X159095595Y-78684524D01*
X159051872Y-78682368D01*
X158571441Y-78639213D01*
X158215803Y-78563479D01*
X158001789Y-78459636D01*
X157949713Y-78389844D01*
X157842542Y-78321533D01*
X157602507Y-78288734D01*
X157262681Y-78293214D01*
X156882500Y-78332893D01*
X156587487Y-78359473D01*
X156449763Y-78331747D01*
X156438000Y-78306041D01*
X156380357Y-78257506D01*
X156216035Y-78299916D01*
X155982430Y-78338847D01*
X155892611Y-78300103D01*
X155832972Y-78162796D01*
X155816920Y-77936812D01*
X155842280Y-77696507D01*
X155906882Y-77516239D01*
X155915878Y-77503790D01*
X155983735Y-77377106D01*
X156083871Y-77144462D01*
X156178588Y-76899000D01*
X156325910Y-76547271D01*
X156503551Y-76190779D01*
X156612812Y-76003165D01*
X156790741Y-75683172D01*
X156958073Y-75316130D01*
X157018574Y-75156499D01*
X157131692Y-74866543D01*
X157295478Y-74493620D01*
X157480441Y-74103923D01*
X157543609Y-73978000D01*
X157700236Y-73660377D01*
X157819339Y-73398573D01*
X157884743Y-73229259D01*
X157891862Y-73188427D01*
X157929055Y-73083824D01*
X158044849Y-72915383D01*
X158074515Y-72879107D01*
X158172253Y-72733212D01*
X158330626Y-72461879D01*
X158535182Y-72091447D01*
X158771467Y-71648251D01*
X159025029Y-71158630D01*
X159104809Y-71001681D01*
X159357952Y-70505182D01*
X159594440Y-70048384D01*
X159800606Y-69657136D01*
X159962782Y-69357285D01*
X160067302Y-69174683D01*
X160086488Y-69145022D01*
X160281916Y-68845801D01*
X160497300Y-68484815D01*
X160711316Y-68101682D01*
X160902641Y-67736017D01*
X161049952Y-67427438D01*
X161131926Y-67215560D01*
X161137934Y-67191522D01*
X161210889Y-66957131D01*
X161303417Y-66784127D01*
X161305742Y-66781334D01*
X161418840Y-66595459D01*
X161471358Y-66463834D01*
X161574218Y-66314140D01*
X161768647Y-66273334D01*
X161987020Y-66332151D01*
G36*
X114400287Y-66148814D02*
X114485792Y-66312252D01*
X114491572Y-66336834D01*
X114634023Y-66938358D01*
X114779017Y-67443767D01*
X114949658Y-67925022D01*
X115169053Y-68454087D01*
X115177820Y-68474176D01*
X115380164Y-68950130D01*
X115598328Y-69484049D01*
X115798018Y-69991254D01*
X115880945Y-70210334D01*
X116066425Y-70685193D01*
X116287929Y-71216043D01*
X116506797Y-71711145D01*
X116576725Y-71861334D01*
X116758683Y-72264507D01*
X116929168Y-72676152D01*
X117062453Y-73032719D01*
X117108045Y-73173667D01*
X117214751Y-73491721D01*
X117366574Y-73890479D01*
X117535674Y-74297831D01*
X117586323Y-74412516D01*
X117729260Y-74740343D01*
X117840725Y-75014384D01*
X117905047Y-75195167D01*
X117914667Y-75239698D01*
X117944792Y-75363027D01*
X118023576Y-75591630D01*
X118128123Y-75861351D01*
X118244660Y-76164472D01*
X118335798Y-76431288D01*
X118377848Y-76586675D01*
X118449082Y-76798772D01*
X118515820Y-76909226D01*
X118572465Y-77040125D01*
X118519347Y-77213997D01*
X118499867Y-77251617D01*
X118420363Y-77479830D01*
X118407095Y-77661360D01*
X118361719Y-77885700D01*
X118202338Y-78061462D01*
X117998991Y-78126667D01*
X117844292Y-78197044D01*
X117792751Y-78279980D01*
X117689505Y-78406337D01*
X117487839Y-78541872D01*
X117396469Y-78586664D01*
X117048846Y-78740035D01*
X116846779Y-78504875D01*
X116706147Y-78355953D01*
X116611580Y-78324954D01*
X116504869Y-78396382D01*
X116489856Y-78409857D01*
X116332297Y-78518908D01*
X116235833Y-78550000D01*
X116142340Y-78606506D01*
X116136667Y-78634667D01*
X116056223Y-78684589D01*
X115826267Y-78703620D01*
X115463862Y-78691302D01*
X115120667Y-78661762D01*
X114796112Y-78625416D01*
X114606271Y-78573646D01*
X114518090Y-78468052D01*
X114498515Y-78270237D01*
X114513662Y-77956596D01*
X114518739Y-77646677D01*
X114508811Y-77219770D01*
X114485850Y-76727367D01*
X114451830Y-76220960D01*
X114443003Y-76112133D01*
X114406487Y-75662580D01*
X114376666Y-75267300D01*
X114355897Y-74959813D01*
X114346536Y-74773640D01*
X114346553Y-74740000D01*
X114358773Y-74394268D01*
X114362202Y-73908968D01*
X114357749Y-73313589D01*
X114346328Y-72637618D01*
X114328848Y-71910543D01*
X114306223Y-71161853D01*
X114279362Y-70421033D01*
X114249178Y-69717574D01*
X114216581Y-69080961D01*
X114182484Y-68540684D01*
X114147797Y-68126229D01*
X114139837Y-68051852D01*
X114092492Y-67597514D01*
X114053973Y-67158564D01*
X114028442Y-66787180D01*
X114020000Y-66549019D01*
X114026166Y-66289734D01*
X114057973Y-66157389D01*
X114135388Y-66109685D01*
X114230054Y-66104000D01*
X114400287Y-66148814D01*
X114400287Y-66148814D01*
G37*
X114400287Y-66148814D02*
X114485792Y-66312252D01*
X114491572Y-66336834D01*
X114634023Y-66938358D01*
X114779017Y-67443767D01*
X114949658Y-67925022D01*
X115169053Y-68454087D01*
X115177820Y-68474176D01*
X115380164Y-68950130D01*
X115598328Y-69484049D01*
X115798018Y-69991254D01*
X115880945Y-70210334D01*
X116066425Y-70685193D01*
X116287929Y-71216043D01*
X116506797Y-71711145D01*
X116576725Y-71861334D01*
X116758683Y-72264507D01*
X116929168Y-72676152D01*
X117062453Y-73032719D01*
X117108045Y-73173667D01*
X117214751Y-73491721D01*
X117366574Y-73890479D01*
X117535674Y-74297831D01*
X117586323Y-74412516D01*
X117729260Y-74740343D01*
X117840725Y-75014384D01*
X117905047Y-75195167D01*
X117914667Y-75239698D01*
X117944792Y-75363027D01*
X118023576Y-75591630D01*
X118128123Y-75861351D01*
X118244660Y-76164472D01*
X118335798Y-76431288D01*
X118377848Y-76586675D01*
X118449082Y-76798772D01*
X118515820Y-76909226D01*
X118572465Y-77040125D01*
X118519347Y-77213997D01*
X118499867Y-77251617D01*
X118420363Y-77479830D01*
X118407095Y-77661360D01*
X118361719Y-77885700D01*
X118202338Y-78061462D01*
X117998991Y-78126667D01*
X117844292Y-78197044D01*
X117792751Y-78279980D01*
X117689505Y-78406337D01*
X117487839Y-78541872D01*
X117396469Y-78586664D01*
X117048846Y-78740035D01*
X116846779Y-78504875D01*
X116706147Y-78355953D01*
X116611580Y-78324954D01*
X116504869Y-78396382D01*
X116489856Y-78409857D01*
X116332297Y-78518908D01*
X116235833Y-78550000D01*
X116142340Y-78606506D01*
X116136667Y-78634667D01*
X116056223Y-78684589D01*
X115826267Y-78703620D01*
X115463862Y-78691302D01*
X115120667Y-78661762D01*
X114796112Y-78625416D01*
X114606271Y-78573646D01*
X114518090Y-78468052D01*
X114498515Y-78270237D01*
X114513662Y-77956596D01*
X114518739Y-77646677D01*
X114508811Y-77219770D01*
X114485850Y-76727367D01*
X114451830Y-76220960D01*
X114443003Y-76112133D01*
X114406487Y-75662580D01*
X114376666Y-75267300D01*
X114355897Y-74959813D01*
X114346536Y-74773640D01*
X114346553Y-74740000D01*
X114358773Y-74394268D01*
X114362202Y-73908968D01*
X114357749Y-73313589D01*
X114346328Y-72637618D01*
X114328848Y-71910543D01*
X114306223Y-71161853D01*
X114279362Y-70421033D01*
X114249178Y-69717574D01*
X114216581Y-69080961D01*
X114182484Y-68540684D01*
X114147797Y-68126229D01*
X114139837Y-68051852D01*
X114092492Y-67597514D01*
X114053973Y-67158564D01*
X114028442Y-66787180D01*
X114020000Y-66549019D01*
X114026166Y-66289734D01*
X114057973Y-66157389D01*
X114135388Y-66109685D01*
X114230054Y-66104000D01*
X114400287Y-66148814D01*
G36*
X116644667Y-78507667D02*
X116602334Y-78550000D01*
X116560000Y-78507667D01*
X116602334Y-78465334D01*
X116644667Y-78507667D01*
X116644667Y-78507667D01*
G37*
X116644667Y-78507667D02*
X116602334Y-78550000D01*
X116560000Y-78507667D01*
X116602334Y-78465334D01*
X116644667Y-78507667D01*
G36*
X157994735Y-65275369D02*
X157968096Y-65574232D01*
X157912934Y-65842458D01*
X157889920Y-65910369D01*
X157822681Y-66099910D01*
X157727059Y-66397852D01*
X157620410Y-66749559D01*
X157586365Y-66866000D01*
X157488644Y-67217882D01*
X157440039Y-67443768D01*
X157436958Y-67578586D01*
X157475810Y-67657260D01*
X157502560Y-67681042D01*
X157580481Y-67786059D01*
X157559603Y-67947087D01*
X157533639Y-68019709D01*
X157484449Y-68187194D01*
X157411826Y-68484773D01*
X157324058Y-68876204D01*
X157229435Y-69325245D01*
X157187514Y-69533000D01*
X157079045Y-70040045D01*
X156952415Y-70570794D01*
X156816433Y-71094076D01*
X156679907Y-71578719D01*
X156551645Y-71993549D01*
X156440455Y-72307395D01*
X156355147Y-72489084D01*
X156350167Y-72496334D01*
X156272185Y-72673894D01*
X156188510Y-72975316D01*
X156107842Y-73355740D01*
X156038880Y-73770308D01*
X155990324Y-74174161D01*
X155972511Y-74443667D01*
X155940882Y-74863434D01*
X155880205Y-75306744D01*
X155805641Y-75668939D01*
X155730092Y-76006487D01*
X155720515Y-76196906D01*
X155753484Y-76247495D01*
X155832151Y-76351946D01*
X155846772Y-76549573D01*
X155804075Y-76779719D01*
X155710791Y-76981726D01*
X155666005Y-77035996D01*
X155510484Y-77247988D01*
X155427665Y-77438162D01*
X155294164Y-77647492D01*
X155093108Y-77751843D01*
X154870940Y-77874473D01*
X154717522Y-78044182D01*
X154715495Y-78048177D01*
X154582524Y-78201591D01*
X154406780Y-78282644D01*
X154251192Y-78269809D01*
X154202048Y-78223816D01*
X154185628Y-78082300D01*
X154206396Y-77998762D01*
X154214509Y-77862792D01*
X154103288Y-77778621D01*
X153857642Y-77741291D01*
X153462482Y-77745844D01*
X153440131Y-77746998D01*
X153121406Y-77751184D01*
X152870792Y-77730868D01*
X152740485Y-77691287D01*
X152600943Y-77643338D01*
X152547042Y-77658708D01*
X152405247Y-77668441D01*
X152352834Y-77644830D01*
X152189069Y-77591103D01*
X152035334Y-77576334D01*
X151874592Y-77541608D01*
X151829998Y-77410358D01*
X151830389Y-77385834D01*
X151808022Y-77254149D01*
X151696358Y-77202076D01*
X151555223Y-77195334D01*
X151341838Y-77164791D01*
X151273335Y-77069006D01*
X151273334Y-77068334D01*
X151207896Y-76973657D01*
X151000243Y-76941442D01*
X150981997Y-76941334D01*
X150773411Y-76921997D01*
X150650752Y-76874767D01*
X150645351Y-76868021D01*
X150537719Y-76826752D01*
X150387407Y-76835357D01*
X150193628Y-76824061D01*
X150117534Y-76708826D01*
X150163612Y-76511649D01*
X150282545Y-76321256D01*
X150458714Y-76055116D01*
X150606811Y-75774986D01*
X150619701Y-75745201D01*
X150763251Y-75512120D01*
X150981527Y-75268586D01*
X151083574Y-75179512D01*
X151331756Y-74930018D01*
X151551362Y-74623121D01*
X151610977Y-74511597D01*
X151764782Y-74217164D01*
X151965708Y-73874302D01*
X152113385Y-73643333D01*
X152284657Y-73370755D01*
X152501409Y-73000993D01*
X152732629Y-72587934D01*
X152899262Y-72277626D01*
X153143355Y-71828937D01*
X153419713Y-71345657D01*
X153687246Y-70898660D01*
X153831874Y-70668959D01*
X154069798Y-70298582D01*
X154310025Y-69919286D01*
X154513058Y-69593611D01*
X154576038Y-69490667D01*
X154995074Y-68802296D01*
X155342670Y-68238136D01*
X155633078Y-67776349D01*
X155880553Y-67395099D01*
X156099348Y-67072546D01*
X156303716Y-66786853D01*
X156507911Y-66516182D01*
X156567739Y-66439161D01*
X156827167Y-66085701D01*
X157056033Y-65735038D01*
X157224914Y-65434277D01*
X157290640Y-65281810D01*
X157380751Y-65040636D01*
X157469069Y-64920667D01*
X157599439Y-64880040D01*
X157715309Y-64876334D01*
X158004334Y-64876334D01*
X157994735Y-65275369D01*
X157994735Y-65275369D01*
G37*
X157994735Y-65275369D02*
X157968096Y-65574232D01*
X157912934Y-65842458D01*
X157889920Y-65910369D01*
X157822681Y-66099910D01*
X157727059Y-66397852D01*
X157620410Y-66749559D01*
X157586365Y-66866000D01*
X157488644Y-67217882D01*
X157440039Y-67443768D01*
X157436958Y-67578586D01*
X157475810Y-67657260D01*
X157502560Y-67681042D01*
X157580481Y-67786059D01*
X157559603Y-67947087D01*
X157533639Y-68019709D01*
X157484449Y-68187194D01*
X157411826Y-68484773D01*
X157324058Y-68876204D01*
X157229435Y-69325245D01*
X157187514Y-69533000D01*
X157079045Y-70040045D01*
X156952415Y-70570794D01*
X156816433Y-71094076D01*
X156679907Y-71578719D01*
X156551645Y-71993549D01*
X156440455Y-72307395D01*
X156355147Y-72489084D01*
X156350167Y-72496334D01*
X156272185Y-72673894D01*
X156188510Y-72975316D01*
X156107842Y-73355740D01*
X156038880Y-73770308D01*
X155990324Y-74174161D01*
X155972511Y-74443667D01*
X155940882Y-74863434D01*
X155880205Y-75306744D01*
X155805641Y-75668939D01*
X155730092Y-76006487D01*
X155720515Y-76196906D01*
X155753484Y-76247495D01*
X155832151Y-76351946D01*
X155846772Y-76549573D01*
X155804075Y-76779719D01*
X155710791Y-76981726D01*
X155666005Y-77035996D01*
X155510484Y-77247988D01*
X155427665Y-77438162D01*
X155294164Y-77647492D01*
X155093108Y-77751843D01*
X154870940Y-77874473D01*
X154717522Y-78044182D01*
X154715495Y-78048177D01*
X154582524Y-78201591D01*
X154406780Y-78282644D01*
X154251192Y-78269809D01*
X154202048Y-78223816D01*
X154185628Y-78082300D01*
X154206396Y-77998762D01*
X154214509Y-77862792D01*
X154103288Y-77778621D01*
X153857642Y-77741291D01*
X153462482Y-77745844D01*
X153440131Y-77746998D01*
X153121406Y-77751184D01*
X152870792Y-77730868D01*
X152740485Y-77691287D01*
X152600943Y-77643338D01*
X152547042Y-77658708D01*
X152405247Y-77668441D01*
X152352834Y-77644830D01*
X152189069Y-77591103D01*
X152035334Y-77576334D01*
X151874592Y-77541608D01*
X151829998Y-77410358D01*
X151830389Y-77385834D01*
X151808022Y-77254149D01*
X151696358Y-77202076D01*
X151555223Y-77195334D01*
X151341838Y-77164791D01*
X151273335Y-77069006D01*
X151273334Y-77068334D01*
X151207896Y-76973657D01*
X151000243Y-76941442D01*
X150981997Y-76941334D01*
X150773411Y-76921997D01*
X150650752Y-76874767D01*
X150645351Y-76868021D01*
X150537719Y-76826752D01*
X150387407Y-76835357D01*
X150193628Y-76824061D01*
X150117534Y-76708826D01*
X150163612Y-76511649D01*
X150282545Y-76321256D01*
X150458714Y-76055116D01*
X150606811Y-75774986D01*
X150619701Y-75745201D01*
X150763251Y-75512120D01*
X150981527Y-75268586D01*
X151083574Y-75179512D01*
X151331756Y-74930018D01*
X151551362Y-74623121D01*
X151610977Y-74511597D01*
X151764782Y-74217164D01*
X151965708Y-73874302D01*
X152113385Y-73643333D01*
X152284657Y-73370755D01*
X152501409Y-73000993D01*
X152732629Y-72587934D01*
X152899262Y-72277626D01*
X153143355Y-71828937D01*
X153419713Y-71345657D01*
X153687246Y-70898660D01*
X153831874Y-70668959D01*
X154069798Y-70298582D01*
X154310025Y-69919286D01*
X154513058Y-69593611D01*
X154576038Y-69490667D01*
X154995074Y-68802296D01*
X155342670Y-68238136D01*
X155633078Y-67776349D01*
X155880553Y-67395099D01*
X156099348Y-67072546D01*
X156303716Y-66786853D01*
X156507911Y-66516182D01*
X156567739Y-66439161D01*
X156827167Y-66085701D01*
X157056033Y-65735038D01*
X157224914Y-65434277D01*
X157290640Y-65281810D01*
X157380751Y-65040636D01*
X157469069Y-64920667D01*
X157599439Y-64880040D01*
X157715309Y-64876334D01*
X158004334Y-64876334D01*
X157994735Y-65275369D01*
G36*
X119151926Y-64756909D02*
X119245377Y-64797590D01*
X119249147Y-64898307D01*
X119235586Y-64956933D01*
X119240661Y-65134196D01*
X119300948Y-65429715D01*
X119404421Y-65806334D01*
X119539050Y-66226900D01*
X119692809Y-66654256D01*
X119853668Y-67051248D01*
X120009601Y-67380722D01*
X120036129Y-67429830D01*
X120209862Y-67773805D01*
X120376586Y-68151849D01*
X120441245Y-68318830D01*
X120615812Y-68793452D01*
X120799529Y-69277175D01*
X120978294Y-69734335D01*
X121138006Y-70129272D01*
X121264565Y-70426324D01*
X121327376Y-70559831D01*
X121392932Y-70714889D01*
X121500834Y-71002516D01*
X121640955Y-71394280D01*
X121803169Y-71861753D01*
X121977348Y-72376505D01*
X122018673Y-72500510D01*
X122220548Y-73085387D01*
X122441696Y-73687838D01*
X122664609Y-74262678D01*
X122871780Y-74764718D01*
X123040810Y-75138727D01*
X123256713Y-75601362D01*
X123396335Y-75948776D01*
X123470170Y-76211159D01*
X123488714Y-76418699D01*
X123488449Y-76426397D01*
X123464922Y-76626659D01*
X123421905Y-76721773D01*
X123404406Y-76721265D01*
X123290256Y-76731855D01*
X123148752Y-76807017D01*
X122977923Y-76887806D01*
X122848682Y-76840911D01*
X122717246Y-76790492D01*
X122635479Y-76843322D01*
X122470928Y-76927870D01*
X122376085Y-76941334D01*
X122212439Y-77004003D01*
X122048207Y-77153000D01*
X121881839Y-77303030D01*
X121718522Y-77364667D01*
X121584572Y-77414885D01*
X121555334Y-77481300D01*
X121495502Y-77626451D01*
X121415360Y-77714133D01*
X121312802Y-77782002D01*
X121173142Y-77828340D01*
X120952231Y-77863112D01*
X120609889Y-77895951D01*
X120418129Y-77932100D01*
X120320611Y-77978500D01*
X120178552Y-78037078D01*
X120069975Y-77951359D01*
X119949558Y-77900808D01*
X119719680Y-77910552D01*
X119702403Y-77913355D01*
X119390850Y-77965992D01*
X119270304Y-77432496D01*
X119192279Y-77069981D01*
X119154506Y-76832547D01*
X119154551Y-76681409D01*
X119189976Y-76577785D01*
X119214225Y-76539936D01*
X119246570Y-76398789D01*
X119243303Y-76161200D01*
X119228314Y-76031936D01*
X119202333Y-75803835D01*
X119171686Y-75448356D01*
X119139554Y-75007270D01*
X119109119Y-74522350D01*
X119097662Y-74316667D01*
X119040152Y-73255193D01*
X118989073Y-72346078D01*
X118943200Y-71572523D01*
X118901308Y-70917728D01*
X118862170Y-70364892D01*
X118824562Y-69897214D01*
X118787258Y-69497896D01*
X118749032Y-69150135D01*
X118708660Y-68837133D01*
X118686976Y-68686334D01*
X118638540Y-68288383D01*
X118599457Y-67827296D01*
X118570412Y-67334406D01*
X118552092Y-66841047D01*
X118545183Y-66378553D01*
X118550373Y-65978257D01*
X118568347Y-65671493D01*
X118599791Y-65489595D01*
X118616272Y-65458839D01*
X118641426Y-65345061D01*
X118630986Y-65135639D01*
X118622430Y-65074972D01*
X118570358Y-64749334D01*
X118929024Y-64749334D01*
X119151926Y-64756909D01*
X119151926Y-64756909D01*
G37*
X119151926Y-64756909D02*
X119245377Y-64797590D01*
X119249147Y-64898307D01*
X119235586Y-64956933D01*
X119240661Y-65134196D01*
X119300948Y-65429715D01*
X119404421Y-65806334D01*
X119539050Y-66226900D01*
X119692809Y-66654256D01*
X119853668Y-67051248D01*
X120009601Y-67380722D01*
X120036129Y-67429830D01*
X120209862Y-67773805D01*
X120376586Y-68151849D01*
X120441245Y-68318830D01*
X120615812Y-68793452D01*
X120799529Y-69277175D01*
X120978294Y-69734335D01*
X121138006Y-70129272D01*
X121264565Y-70426324D01*
X121327376Y-70559831D01*
X121392932Y-70714889D01*
X121500834Y-71002516D01*
X121640955Y-71394280D01*
X121803169Y-71861753D01*
X121977348Y-72376505D01*
X122018673Y-72500510D01*
X122220548Y-73085387D01*
X122441696Y-73687838D01*
X122664609Y-74262678D01*
X122871780Y-74764718D01*
X123040810Y-75138727D01*
X123256713Y-75601362D01*
X123396335Y-75948776D01*
X123470170Y-76211159D01*
X123488714Y-76418699D01*
X123488449Y-76426397D01*
X123464922Y-76626659D01*
X123421905Y-76721773D01*
X123404406Y-76721265D01*
X123290256Y-76731855D01*
X123148752Y-76807017D01*
X122977923Y-76887806D01*
X122848682Y-76840911D01*
X122717246Y-76790492D01*
X122635479Y-76843322D01*
X122470928Y-76927870D01*
X122376085Y-76941334D01*
X122212439Y-77004003D01*
X122048207Y-77153000D01*
X121881839Y-77303030D01*
X121718522Y-77364667D01*
X121584572Y-77414885D01*
X121555334Y-77481300D01*
X121495502Y-77626451D01*
X121415360Y-77714133D01*
X121312802Y-77782002D01*
X121173142Y-77828340D01*
X120952231Y-77863112D01*
X120609889Y-77895951D01*
X120418129Y-77932100D01*
X120320611Y-77978500D01*
X120178552Y-78037078D01*
X120069975Y-77951359D01*
X119949558Y-77900808D01*
X119719680Y-77910552D01*
X119702403Y-77913355D01*
X119390850Y-77965992D01*
X119270304Y-77432496D01*
X119192279Y-77069981D01*
X119154506Y-76832547D01*
X119154551Y-76681409D01*
X119189976Y-76577785D01*
X119214225Y-76539936D01*
X119246570Y-76398789D01*
X119243303Y-76161200D01*
X119228314Y-76031936D01*
X119202333Y-75803835D01*
X119171686Y-75448356D01*
X119139554Y-75007270D01*
X119109119Y-74522350D01*
X119097662Y-74316667D01*
X119040152Y-73255193D01*
X118989073Y-72346078D01*
X118943200Y-71572523D01*
X118901308Y-70917728D01*
X118862170Y-70364892D01*
X118824562Y-69897214D01*
X118787258Y-69497896D01*
X118749032Y-69150135D01*
X118708660Y-68837133D01*
X118686976Y-68686334D01*
X118638540Y-68288383D01*
X118599457Y-67827296D01*
X118570412Y-67334406D01*
X118552092Y-66841047D01*
X118545183Y-66378553D01*
X118550373Y-65978257D01*
X118568347Y-65671493D01*
X118599791Y-65489595D01*
X118616272Y-65458839D01*
X118641426Y-65345061D01*
X118630986Y-65135639D01*
X118622430Y-65074972D01*
X118570358Y-64749334D01*
X118929024Y-64749334D01*
X119151926Y-64756909D01*
G36*
X123471917Y-63425014D02*
X123502667Y-63545792D01*
X123540487Y-63744433D01*
X123641487Y-64048298D01*
X123786974Y-64415618D01*
X123958255Y-64804624D01*
X124136636Y-65173547D01*
X124303426Y-65480618D01*
X124439932Y-65684068D01*
X124477021Y-65723000D01*
X124553855Y-65836526D01*
X124678765Y-66070893D01*
X124835274Y-66390399D01*
X125006905Y-66759338D01*
X125177182Y-67142007D01*
X125329628Y-67502701D01*
X125447766Y-67805716D01*
X125478512Y-67893177D01*
X125560214Y-68094677D01*
X125697935Y-68390557D01*
X125877534Y-68754356D01*
X126084873Y-69159612D01*
X126305810Y-69579863D01*
X126526208Y-69988648D01*
X126731926Y-70359504D01*
X126908824Y-70665970D01*
X127042763Y-70881585D01*
X127119604Y-70979886D01*
X127129321Y-70982597D01*
X127186296Y-71040882D01*
X127301799Y-71223943D01*
X127459859Y-71504491D01*
X127644504Y-71855238D01*
X127674083Y-71913355D01*
X127872959Y-72310606D01*
X128000329Y-72581735D01*
X128063906Y-72750280D01*
X128071403Y-72839779D01*
X128030534Y-72873770D01*
X127989970Y-72877334D01*
X127871790Y-72903573D01*
X127853861Y-73014810D01*
X127873062Y-73110167D01*
X127983310Y-73399554D01*
X128135784Y-73542052D01*
X128204481Y-73554667D01*
X128299774Y-73625041D01*
X128426095Y-73805476D01*
X128506937Y-73956834D01*
X128659875Y-74257822D01*
X128850794Y-74610844D01*
X128983649Y-74844873D01*
X129137071Y-75126557D01*
X129204873Y-75312704D01*
X129199505Y-75445822D01*
X129175848Y-75501040D01*
X129084290Y-75624018D01*
X128955520Y-75664271D01*
X128740216Y-75629876D01*
X128608212Y-75593993D01*
X128407528Y-75557100D01*
X128285735Y-75611907D01*
X128217762Y-75699826D01*
X128068367Y-75845970D01*
X127858811Y-75967103D01*
X127652089Y-76034605D01*
X127512022Y-76020470D01*
X127434033Y-75916456D01*
X127324041Y-75717862D01*
X127280734Y-75629000D01*
X127179617Y-75430707D01*
X127117576Y-75371210D01*
X127071014Y-75432000D01*
X127061476Y-75456985D01*
X126947234Y-75613879D01*
X126756562Y-75758572D01*
X126754741Y-75759580D01*
X126551189Y-75937603D01*
X126482273Y-76158123D01*
X126411015Y-76415687D01*
X126276340Y-76561821D01*
X126106152Y-76571080D01*
X126056737Y-76546185D01*
X125893338Y-76507204D01*
X125720819Y-76584848D01*
X125548942Y-76663365D01*
X125431492Y-76617987D01*
X125428719Y-76615253D01*
X125279874Y-76526019D01*
X125141303Y-76587027D01*
X125009438Y-76772535D01*
X124847499Y-76971551D01*
X124691161Y-77010508D01*
X124558722Y-76888640D01*
X124515991Y-76793167D01*
X124408757Y-76533896D01*
X124317804Y-76348667D01*
X124254788Y-76176584D01*
X124198641Y-75897312D01*
X124147601Y-75496272D01*
X124099909Y-74958889D01*
X124053804Y-74270584D01*
X124041721Y-74062667D01*
X123989396Y-73327998D01*
X123914875Y-72546145D01*
X123823264Y-71755787D01*
X123719671Y-70995604D01*
X123609201Y-70304278D01*
X123496960Y-69720489D01*
X123431485Y-69440240D01*
X123381609Y-69195945D01*
X123329791Y-68863339D01*
X123282275Y-68494915D01*
X123245305Y-68143167D01*
X123225126Y-67860588D01*
X123225991Y-67712667D01*
X123222509Y-67582344D01*
X123201942Y-67321909D01*
X123167680Y-66969343D01*
X123123928Y-66569667D01*
X123084060Y-66170553D01*
X123061761Y-65832752D01*
X123058579Y-65591653D01*
X123076062Y-65482650D01*
X123076369Y-65482324D01*
X123091366Y-65364403D01*
X123031361Y-65190360D01*
X122966814Y-64964951D01*
X122929698Y-64610153D01*
X122922656Y-64276266D01*
X122929021Y-63931762D01*
X122948118Y-63717506D01*
X122990475Y-63594425D01*
X123066621Y-63523449D01*
X123134856Y-63488729D01*
X123358741Y-63406308D01*
X123471917Y-63425014D01*
X123471917Y-63425014D01*
G37*
X123471917Y-63425014D02*
X123502667Y-63545792D01*
X123540487Y-63744433D01*
X123641487Y-64048298D01*
X123786974Y-64415618D01*
X123958255Y-64804624D01*
X124136636Y-65173547D01*
X124303426Y-65480618D01*
X124439932Y-65684068D01*
X124477021Y-65723000D01*
X124553855Y-65836526D01*
X124678765Y-66070893D01*
X124835274Y-66390399D01*
X125006905Y-66759338D01*
X125177182Y-67142007D01*
X125329628Y-67502701D01*
X125447766Y-67805716D01*
X125478512Y-67893177D01*
X125560214Y-68094677D01*
X125697935Y-68390557D01*
X125877534Y-68754356D01*
X126084873Y-69159612D01*
X126305810Y-69579863D01*
X126526208Y-69988648D01*
X126731926Y-70359504D01*
X126908824Y-70665970D01*
X127042763Y-70881585D01*
X127119604Y-70979886D01*
X127129321Y-70982597D01*
X127186296Y-71040882D01*
X127301799Y-71223943D01*
X127459859Y-71504491D01*
X127644504Y-71855238D01*
X127674083Y-71913355D01*
X127872959Y-72310606D01*
X128000329Y-72581735D01*
X128063906Y-72750280D01*
X128071403Y-72839779D01*
X128030534Y-72873770D01*
X127989970Y-72877334D01*
X127871790Y-72903573D01*
X127853861Y-73014810D01*
X127873062Y-73110167D01*
X127983310Y-73399554D01*
X128135784Y-73542052D01*
X128204481Y-73554667D01*
X128299774Y-73625041D01*
X128426095Y-73805476D01*
X128506937Y-73956834D01*
X128659875Y-74257822D01*
X128850794Y-74610844D01*
X128983649Y-74844873D01*
X129137071Y-75126557D01*
X129204873Y-75312704D01*
X129199505Y-75445822D01*
X129175848Y-75501040D01*
X129084290Y-75624018D01*
X128955520Y-75664271D01*
X128740216Y-75629876D01*
X128608212Y-75593993D01*
X128407528Y-75557100D01*
X128285735Y-75611907D01*
X128217762Y-75699826D01*
X128068367Y-75845970D01*
X127858811Y-75967103D01*
X127652089Y-76034605D01*
X127512022Y-76020470D01*
X127434033Y-75916456D01*
X127324041Y-75717862D01*
X127280734Y-75629000D01*
X127179617Y-75430707D01*
X127117576Y-75371210D01*
X127071014Y-75432000D01*
X127061476Y-75456985D01*
X126947234Y-75613879D01*
X126756562Y-75758572D01*
X126754741Y-75759580D01*
X126551189Y-75937603D01*
X126482273Y-76158123D01*
X126411015Y-76415687D01*
X126276340Y-76561821D01*
X126106152Y-76571080D01*
X126056737Y-76546185D01*
X125893338Y-76507204D01*
X125720819Y-76584848D01*
X125548942Y-76663365D01*
X125431492Y-76617987D01*
X125428719Y-76615253D01*
X125279874Y-76526019D01*
X125141303Y-76587027D01*
X125009438Y-76772535D01*
X124847499Y-76971551D01*
X124691161Y-77010508D01*
X124558722Y-76888640D01*
X124515991Y-76793167D01*
X124408757Y-76533896D01*
X124317804Y-76348667D01*
X124254788Y-76176584D01*
X124198641Y-75897312D01*
X124147601Y-75496272D01*
X124099909Y-74958889D01*
X124053804Y-74270584D01*
X124041721Y-74062667D01*
X123989396Y-73327998D01*
X123914875Y-72546145D01*
X123823264Y-71755787D01*
X123719671Y-70995604D01*
X123609201Y-70304278D01*
X123496960Y-69720489D01*
X123431485Y-69440240D01*
X123381609Y-69195945D01*
X123329791Y-68863339D01*
X123282275Y-68494915D01*
X123245305Y-68143167D01*
X123225126Y-67860588D01*
X123225991Y-67712667D01*
X123222509Y-67582344D01*
X123201942Y-67321909D01*
X123167680Y-66969343D01*
X123123928Y-66569667D01*
X123084060Y-66170553D01*
X123061761Y-65832752D01*
X123058579Y-65591653D01*
X123076062Y-65482650D01*
X123076369Y-65482324D01*
X123091366Y-65364403D01*
X123031361Y-65190360D01*
X122966814Y-64964951D01*
X122929698Y-64610153D01*
X122922656Y-64276266D01*
X122929021Y-63931762D01*
X122948118Y-63717506D01*
X122990475Y-63594425D01*
X123066621Y-63523449D01*
X123134856Y-63488729D01*
X123358741Y-63406308D01*
X123471917Y-63425014D01*
G36*
X139784737Y-74109606D02*
X140044643Y-74313550D01*
X140086545Y-74359648D01*
X140235364Y-74550598D01*
X140312331Y-74692836D01*
X140313875Y-74732113D01*
X140343124Y-74826163D01*
X140466048Y-74981048D01*
X140523677Y-75039218D01*
X140683553Y-75227099D01*
X140769791Y-75396017D01*
X140774667Y-75430195D01*
X140701578Y-75601747D01*
X140508698Y-75708756D01*
X140235609Y-75743901D01*
X139921891Y-75699860D01*
X139716334Y-75625942D01*
X139497826Y-75564410D01*
X139183697Y-75520817D01*
X138890834Y-75505819D01*
X138583248Y-75491600D01*
X138382043Y-75457171D01*
X138319334Y-75413984D01*
X138372875Y-75299278D01*
X138504767Y-75129906D01*
X138535398Y-75096484D01*
X138713773Y-74890015D01*
X138924021Y-74623445D01*
X139025803Y-74486000D01*
X139286503Y-74194498D01*
X139535753Y-74069478D01*
X139784737Y-74109606D01*
X139784737Y-74109606D01*
G37*
X139784737Y-74109606D02*
X140044643Y-74313550D01*
X140086545Y-74359648D01*
X140235364Y-74550598D01*
X140312331Y-74692836D01*
X140313875Y-74732113D01*
X140343124Y-74826163D01*
X140466048Y-74981048D01*
X140523677Y-75039218D01*
X140683553Y-75227099D01*
X140769791Y-75396017D01*
X140774667Y-75430195D01*
X140701578Y-75601747D01*
X140508698Y-75708756D01*
X140235609Y-75743901D01*
X139921891Y-75699860D01*
X139716334Y-75625942D01*
X139497826Y-75564410D01*
X139183697Y-75520817D01*
X138890834Y-75505819D01*
X138583248Y-75491600D01*
X138382043Y-75457171D01*
X138319334Y-75413984D01*
X138372875Y-75299278D01*
X138504767Y-75129906D01*
X138535398Y-75096484D01*
X138713773Y-74890015D01*
X138924021Y-74623445D01*
X139025803Y-74486000D01*
X139286503Y-74194498D01*
X139535753Y-74069478D01*
X139784737Y-74109606D01*
G36*
X113850667Y-66654334D02*
X113808334Y-66696667D01*
X113766000Y-66654334D01*
X113808334Y-66612000D01*
X113850667Y-66654334D01*
X113850667Y-66654334D01*
G37*
X113850667Y-66654334D02*
X113808334Y-66696667D01*
X113766000Y-66654334D01*
X113808334Y-66612000D01*
X113850667Y-66654334D01*
G36*
X130888051Y-60872462D02*
X131198596Y-60909982D01*
X131415506Y-60987946D01*
X131614221Y-61137467D01*
X131679371Y-61198804D01*
X132083055Y-61677234D01*
X132363344Y-62197363D01*
X132517817Y-62734031D01*
X132544053Y-63262082D01*
X132439629Y-63756358D01*
X132202125Y-64191701D01*
X131989306Y-64418943D01*
X131540000Y-64727198D01*
X131026665Y-64939036D01*
X130500151Y-65039576D01*
X130011304Y-65013938D01*
X129979667Y-65007001D01*
X129695740Y-64918799D01*
X129456093Y-64781218D01*
X129215222Y-64561213D01*
X128961621Y-64267684D01*
X128576748Y-63746027D01*
X128337733Y-63305350D01*
X128245230Y-62946889D01*
X128244000Y-62906616D01*
X128261058Y-62834267D01*
X128806532Y-62834267D01*
X128880282Y-63156445D01*
X129079302Y-63506305D01*
X129360329Y-63853407D01*
X129715502Y-64217108D01*
X130029633Y-64444958D01*
X130341683Y-64550345D01*
X130690615Y-64546661D01*
X131100946Y-64451607D01*
X131528826Y-64251260D01*
X131833376Y-63953573D01*
X132001849Y-63581228D01*
X132021497Y-63156904D01*
X131965482Y-62913352D01*
X131747686Y-62441816D01*
X131433784Y-62018061D01*
X131066879Y-61698386D01*
X131006694Y-61660986D01*
X130721914Y-61530236D01*
X130438477Y-61458294D01*
X130205390Y-61452491D01*
X130071661Y-61520156D01*
X130071092Y-61521064D01*
X129962013Y-61590890D01*
X129790929Y-61643552D01*
X129498598Y-61768092D01*
X129204644Y-61993691D01*
X128965881Y-62268263D01*
X128846440Y-62509400D01*
X128806532Y-62834267D01*
X128261058Y-62834267D01*
X128314269Y-62608589D01*
X128509528Y-62261535D01*
X128806459Y-61898146D01*
X129181739Y-61551111D01*
X129248442Y-61498560D01*
X129676236Y-61192147D01*
X130035195Y-60995534D01*
X130369054Y-60892022D01*
X130721544Y-60864911D01*
X130888051Y-60872462D01*
X130888051Y-60872462D01*
G37*
X130888051Y-60872462D02*
X131198596Y-60909982D01*
X131415506Y-60987946D01*
X131614221Y-61137467D01*
X131679371Y-61198804D01*
X132083055Y-61677234D01*
X132363344Y-62197363D01*
X132517817Y-62734031D01*
X132544053Y-63262082D01*
X132439629Y-63756358D01*
X132202125Y-64191701D01*
X131989306Y-64418943D01*
X131540000Y-64727198D01*
X131026665Y-64939036D01*
X130500151Y-65039576D01*
X130011304Y-65013938D01*
X129979667Y-65007001D01*
X129695740Y-64918799D01*
X129456093Y-64781218D01*
X129215222Y-64561213D01*
X128961621Y-64267684D01*
X128576748Y-63746027D01*
X128337733Y-63305350D01*
X128245230Y-62946889D01*
X128244000Y-62906616D01*
X128261058Y-62834267D01*
X128806532Y-62834267D01*
X128880282Y-63156445D01*
X129079302Y-63506305D01*
X129360329Y-63853407D01*
X129715502Y-64217108D01*
X130029633Y-64444958D01*
X130341683Y-64550345D01*
X130690615Y-64546661D01*
X131100946Y-64451607D01*
X131528826Y-64251260D01*
X131833376Y-63953573D01*
X132001849Y-63581228D01*
X132021497Y-63156904D01*
X131965482Y-62913352D01*
X131747686Y-62441816D01*
X131433784Y-62018061D01*
X131066879Y-61698386D01*
X131006694Y-61660986D01*
X130721914Y-61530236D01*
X130438477Y-61458294D01*
X130205390Y-61452491D01*
X130071661Y-61520156D01*
X130071092Y-61521064D01*
X129962013Y-61590890D01*
X129790929Y-61643552D01*
X129498598Y-61768092D01*
X129204644Y-61993691D01*
X128965881Y-62268263D01*
X128846440Y-62509400D01*
X128806532Y-62834267D01*
X128261058Y-62834267D01*
X128314269Y-62608589D01*
X128509528Y-62261535D01*
X128806459Y-61898146D01*
X129181739Y-61551111D01*
X129248442Y-61498560D01*
X129676236Y-61192147D01*
X130035195Y-60995534D01*
X130369054Y-60892022D01*
X130721544Y-60864911D01*
X130888051Y-60872462D01*
G36*
X163418067Y-55891927D02*
X163423000Y-55944000D01*
X163300498Y-56021904D01*
X163248670Y-56028667D01*
X163139243Y-55981328D01*
X163126667Y-55944000D01*
X163197793Y-55875875D01*
X163300997Y-55859334D01*
X163418067Y-55891927D01*
X163418067Y-55891927D01*
G37*
X163418067Y-55891927D02*
X163423000Y-55944000D01*
X163300498Y-56021904D01*
X163248670Y-56028667D01*
X163139243Y-55981328D01*
X163126667Y-55944000D01*
X163197793Y-55875875D01*
X163300997Y-55859334D01*
X163418067Y-55891927D01*
G36*
X163881171Y-120396385D02*
X164165787Y-120498776D01*
X164351519Y-120626223D01*
X164454751Y-120847873D01*
X164485268Y-121159946D01*
X164449848Y-121503351D01*
X164355270Y-121818997D01*
X164208312Y-122047792D01*
X164186174Y-122067692D01*
X164028660Y-122133858D01*
X163780045Y-122177496D01*
X163499913Y-122195636D01*
X163247847Y-122185307D01*
X163083431Y-122143540D01*
X163059660Y-122123856D01*
X162874142Y-121771105D01*
X162803539Y-121386273D01*
X162841237Y-121009448D01*
X162980627Y-120680718D01*
X163215097Y-120440170D01*
X163348606Y-120371854D01*
X163582906Y-120347516D01*
X163881171Y-120396385D01*
X163881171Y-120396385D01*
G37*
X163881171Y-120396385D02*
X164165787Y-120498776D01*
X164351519Y-120626223D01*
X164454751Y-120847873D01*
X164485268Y-121159946D01*
X164449848Y-121503351D01*
X164355270Y-121818997D01*
X164208312Y-122047792D01*
X164186174Y-122067692D01*
X164028660Y-122133858D01*
X163780045Y-122177496D01*
X163499913Y-122195636D01*
X163247847Y-122185307D01*
X163083431Y-122143540D01*
X163059660Y-122123856D01*
X162874142Y-121771105D01*
X162803539Y-121386273D01*
X162841237Y-121009448D01*
X162980627Y-120680718D01*
X163215097Y-120440170D01*
X163348606Y-120371854D01*
X163582906Y-120347516D01*
X163881171Y-120396385D01*
G36*
X130726172Y-62218653D02*
X130844591Y-62370021D01*
X131014601Y-62736135D01*
X131032054Y-63083733D01*
X130898410Y-63387904D01*
X130777504Y-63514141D01*
X130492999Y-63698467D01*
X130257843Y-63723299D01*
X130060045Y-63586978D01*
X129939054Y-63398040D01*
X129790305Y-63000474D01*
X129790059Y-62665608D01*
X129939903Y-62371947D01*
X130021448Y-62281526D01*
X130276274Y-62093932D01*
X130507493Y-62072578D01*
X130726172Y-62218653D01*
X130726172Y-62218653D01*
G37*
X130726172Y-62218653D02*
X130844591Y-62370021D01*
X131014601Y-62736135D01*
X131032054Y-63083733D01*
X130898410Y-63387904D01*
X130777504Y-63514141D01*
X130492999Y-63698467D01*
X130257843Y-63723299D01*
X130060045Y-63586978D01*
X129939054Y-63398040D01*
X129790305Y-63000474D01*
X129790059Y-62665608D01*
X129939903Y-62371947D01*
X130021448Y-62281526D01*
X130276274Y-62093932D01*
X130507493Y-62072578D01*
X130726172Y-62218653D01*
D13*
X114572000Y-79750000D03*
X111019000Y-79878000D03*
X111019000Y-79033000D03*
X114434000Y-79151000D03*
X138639000Y-121148000D03*
X139366000Y-121429000D03*
X137840000Y-121325000D03*
X137861000Y-127986000D03*
X138612000Y-127977000D03*
X139322000Y-127986000D03*
X167934000Y-80745000D03*
X167941000Y-80250000D03*
X165120000Y-80293000D03*
X164947000Y-80781000D03*
M02*
